<svg xmlns="http://www.w3.org/2000/svg" xmlns:xlink="http://www.w3.org/1999/xlink" width="225" height="98.235" viewBox="0 0 225 98.235">
  <defs>
    <clipPath id="clip-path">
      <rect id="Retângulo_1880" data-name="Retângulo 1880" width="182.306" height="75.282" fill="none"/>
    </clipPath>
    <clipPath id="clip-path-2">
      <rect id="Retângulo_1881" data-name="Retângulo 1881" width="76.879" height="53.881" transform="translate(148.121 3.522)" fill="none"/>
    </clipPath>
  </defs>
  <g id="Grupo_3033" data-name="Grupo 3033" transform="translate(-1617.102 1860.001)">
    <g id="Grupo_3032" data-name="Grupo 3032">
      <path id="Caminho_8132" data-name="Caminho 8132" d="M206.5,98.234H18.5A18.5,18.5,0,0,1,0,79.738V18.5A18.5,18.5,0,0,1,18.5,0H206.5A18.5,18.5,0,0,1,225,18.5V79.738a18.5,18.5,0,0,1-18.5,18.5" transform="translate(1617.102 -1860)" fill="#2a4fad"/>
      <path id="Caminho_8133" data-name="Caminho 8133" d="M206.037,95.159H18.964A15.906,15.906,0,0,1,3.076,79.271V18.963A15.906,15.906,0,0,1,18.964,3.075H206.037a15.906,15.906,0,0,1,15.888,15.888V79.271a15.906,15.906,0,0,1-15.888,15.888M18.964,3.758a15.222,15.222,0,0,0-15.205,15.2V79.271a15.222,15.222,0,0,0,15.205,15.2H206.037a15.222,15.222,0,0,0,15.205-15.2V18.963a15.222,15.222,0,0,0-15.205-15.2Z" transform="translate(1617.102 -1860)" fill="#fff"/>
      <g id="Grupo_3001" data-name="Grupo 3001" transform="translate(1617.102 -1860)" opacity="0.1">
        <g id="Grupo_3000" data-name="Grupo 3000">
          <g id="Grupo_2999" data-name="Grupo 2999" clip-path="url(#clip-path)">
            <path id="Caminho_8134" data-name="Caminho 8134" d="M18.964,0A18.965,18.965,0,0,0,0,18.964V75.281C37.573,66.97,125.744,43.859,182.307,0Z" fill="#fff"/>
          </g>
        </g>
      </g>
      <g id="Grupo_3004" data-name="Grupo 3004" transform="translate(1617.102 -1860)" opacity="0.05">
        <g id="Grupo_3003" data-name="Grupo 3003">
          <g id="Grupo_3002" data-name="Grupo 3002" clip-path="url(#clip-path-2)">
            <path id="Caminho_8135" data-name="Caminho 8135" d="M225,18.963a18.933,18.933,0,0,0-7.962-15.441C188.939,40.3,148.121,57.4,148.121,57.4,188.876,46.112,212.166,33.936,225,25.084Z" fill="#fff"/>
          </g>
        </g>
      </g>
      <path id="Caminho_8136" data-name="Caminho 8136" d="M33.1,45.215H30.761V36.434H35.95v1.9H33.1v1.676h2.631v1.9H33.1Z" transform="translate(1617.102 -1860)" fill="#fff"/>
      <path id="Caminho_8137" data-name="Caminho 8137" d="M37.392,45.215V36.434h2.372V43.3h3.382v1.916Z" transform="translate(1617.102 -1860)" fill="#fff"/>
      <path id="Caminho_8138" data-name="Caminho 8138" d="M52.016,36.434V41.72a3.546,3.546,0,0,1-.976,2.67,3.883,3.883,0,0,1-2.814.945,3.845,3.845,0,0,1-2.76-.919,3.479,3.479,0,0,1-.964-2.642v-5.34h2.385v5.153a2.113,2.113,0,0,0,.348,1.352,1.5,1.5,0,0,0,2.081,0,2.232,2.232,0,0,0,.327-1.366V36.434Z" transform="translate(1617.102 -1860)" fill="#fff"/>
      <path id="Caminho_8139" data-name="Caminho 8139" d="M61.771,45.215H59.026L57.314,42.47l-1.693,2.745H52.936l2.913-4.493L53.11,36.434h2.631l1.585,2.715,1.526-2.715h2.709L58.78,40.908Z" transform="translate(1617.102 -1860)" fill="#fff"/>
      <path id="Caminho_8140" data-name="Caminho 8140" d="M70.971,40.813a4.731,4.731,0,0,1-1.087,3.369,4.939,4.939,0,0,1-6.351-.006,4.716,4.716,0,0,1-1.1-3.375,4.686,4.686,0,0,1,1.1-3.349,4.971,4.971,0,0,1,6.363-.009,4.741,4.741,0,0,1,1.081,3.37m-6.042,0q0,2.547,1.772,2.546a1.522,1.522,0,0,0,1.336-.618,3.39,3.39,0,0,0,.436-1.928,3.421,3.421,0,0,0-.441-1.943,1.509,1.509,0,0,0-1.319-.628q-1.783,0-1.784,2.571" transform="translate(1617.102 -1860)" fill="#fff"/>
      <path id="Caminho_8141" data-name="Caminho 8141" d="M82.125,39.227a2.938,2.938,0,0,1-.868,2.273,3.5,3.5,0,0,1-2.465.8h-.667v2.913H75.753V36.434h3.039a3.72,3.72,0,0,1,2.5.727,2.592,2.592,0,0,1,.834,2.066m-4,1.141h.433a1.18,1.18,0,0,0,.849-.3,1.087,1.087,0,0,0,.316-.829q0-.889-.985-.889h-.613Z" transform="translate(1617.102 -1860)" fill="#fff"/>
      <path id="Caminho_8142" data-name="Caminho 8142" d="M88.912,45.215l-.432-1.646H85.628l-.445,1.646H82.576L85.44,36.4h3.166l2.9,8.817Zm-.924-3.592-.379-1.441q-.132-.481-.322-1.244t-.249-1.093c-.035.2-.107.541-.212,1.009s-.342,1.392-.707,2.769Z" transform="translate(1617.102 -1860)" fill="#fff"/>
      <path id="Caminho_8143" data-name="Caminho 8143" d="M94.828,42.02v3.195H92.456V36.434h2.877q3.579,0,3.579,2.594a2.592,2.592,0,0,1-1.489,2.361l2.558,3.826h-2.69L95.429,42.02Zm0-1.784h.445q1.242,0,1.243-1.1,0-.907-1.219-.907h-.469Z" transform="translate(1617.102 -1860)" fill="#fff"/>
      <path id="Caminho_8144" data-name="Caminho 8144" d="M106.168,45.215l-.432-1.646h-2.853l-.445,1.646H99.831L102.7,36.4h3.166l2.9,8.817Zm-.925-3.592-.378-1.441q-.133-.481-.322-1.244t-.249-1.093q-.054.306-.213,1.009t-.706,2.769Z" transform="translate(1617.102 -1860)" fill="#fff"/>
      <path id="Caminho_8145" data-name="Caminho 8145" d="M121.123,40.813a4.731,4.731,0,0,1-1.087,3.369,4.939,4.939,0,0,1-6.351-.006,4.716,4.716,0,0,1-1.1-3.375,4.686,4.686,0,0,1,1.1-3.349,4.971,4.971,0,0,1,6.363-.009,4.741,4.741,0,0,1,1.081,3.37m-6.042,0q0,2.547,1.772,2.546a1.522,1.522,0,0,0,1.336-.618,3.39,3.39,0,0,0,.436-1.928,3.421,3.421,0,0,0-.441-1.943,1.509,1.509,0,0,0-1.319-.628q-1.783,0-1.784,2.571" transform="translate(1617.102 -1860)" fill="#fff"/>
      <path id="Caminho_8146" data-name="Caminho 8146" d="M128.451,42.548A2.587,2.587,0,0,1,128.036,44a2.71,2.71,0,0,1-1.195.985,4.431,4.431,0,0,1-1.831.351,7.419,7.419,0,0,1-1.472-.123,5.4,5.4,0,0,1-1.237-.43V42.669a7.044,7.044,0,0,0,1.411.543,5.267,5.267,0,0,0,1.345.195,1.307,1.307,0,0,0,.775-.183.564.564,0,0,0,.246-.471.513.513,0,0,0-.1-.316,1.153,1.153,0,0,0-.318-.273q-.219-.138-1.168-.565a5.581,5.581,0,0,1-1.289-.757,2.321,2.321,0,0,1-.636-.84,2.8,2.8,0,0,1-.207-1.123,2.253,2.253,0,0,1,.882-1.893,3.9,3.9,0,0,1,2.427-.678,6.8,6.8,0,0,1,2.781.631l-.727,1.831a5.269,5.269,0,0,0-2.126-.564,1.11,1.11,0,0,0-.673.162.49.49,0,0,0-.21.4.581.581,0,0,0,.267.463,10.263,10.263,0,0,0,1.451.745,4.008,4.008,0,0,1,1.577,1.1,2.381,2.381,0,0,1,.441,1.474" transform="translate(1617.102 -1860)" fill="#fff"/>
      <path id="Caminho_8147" data-name="Caminho 8147" d="M140.469,36.434V41.72a3.546,3.546,0,0,1-.976,2.67,4.633,4.633,0,0,1-5.574.026,3.479,3.479,0,0,1-.964-2.642v-5.34h2.385v5.153a2.113,2.113,0,0,0,.348,1.352,1.5,1.5,0,0,0,2.081,0,2.232,2.232,0,0,0,.327-1.366V36.434Z" transform="translate(1617.102 -1860)" fill="#fff"/>
      <path id="Caminho_8148" data-name="Caminho 8148" d="M148.055,42.548A2.587,2.587,0,0,1,147.64,44a2.71,2.71,0,0,1-1.195.985,4.431,4.431,0,0,1-1.831.351,7.419,7.419,0,0,1-1.472-.123,5.4,5.4,0,0,1-1.237-.43V42.669a7.044,7.044,0,0,0,1.411.543,5.267,5.267,0,0,0,1.345.195,1.307,1.307,0,0,0,.775-.183.564.564,0,0,0,.246-.471.513.513,0,0,0-.1-.316,1.153,1.153,0,0,0-.318-.273q-.219-.138-1.168-.565a5.581,5.581,0,0,1-1.289-.757,2.321,2.321,0,0,1-.636-.84,2.8,2.8,0,0,1-.207-1.123,2.253,2.253,0,0,1,.882-1.893,3.9,3.9,0,0,1,2.427-.678,6.8,6.8,0,0,1,2.781.631l-.727,1.831a5.269,5.269,0,0,0-2.126-.564,1.11,1.11,0,0,0-.673.162.49.49,0,0,0-.21.4.581.581,0,0,0,.267.463,10.263,10.263,0,0,0,1.451.745,4.008,4.008,0,0,1,1.577,1.1,2.381,2.381,0,0,1,.441,1.474" transform="translate(1617.102 -1860)" fill="#fff"/>
      <path id="Caminho_8149" data-name="Caminho 8149" d="M156.878,36.434V41.72a3.546,3.546,0,0,1-.976,2.67,4.633,4.633,0,0,1-5.574.026,3.479,3.479,0,0,1-.964-2.642v-5.34h2.385v5.153a2.114,2.114,0,0,0,.348,1.352,1.5,1.5,0,0,0,2.081,0,2.232,2.232,0,0,0,.327-1.366V36.434Z" transform="translate(1617.102 -1860)" fill="#fff"/>
      <path id="Caminho_8150" data-name="Caminho 8150" d="M164.11,45.215l-.432-1.646h-2.853l-.445,1.646h-2.607l2.865-8.817H163.8l2.9,8.817Zm-3.141-9.484v-.174q.924-.991,1.174-1.28t.411-.516h2.571v.126q-.48.385-1.321.979t-1.274.865Zm2.216,5.892-.378-1.441q-.134-.481-.322-1.244t-.249-1.093q-.054.306-.213,1.009t-.706,2.769Z" transform="translate(1617.102 -1860)" fill="#fff"/>
      <path id="Caminho_8151" data-name="Caminho 8151" d="M170.026,42.02v3.195h-2.372V36.434h2.877q3.579,0,3.579,2.594a2.592,2.592,0,0,1-1.489,2.361l2.558,3.826h-2.69l-1.862-3.195Zm0-1.784h.445q1.242,0,1.243-1.1,0-.907-1.219-.907h-.469Z" transform="translate(1617.102 -1860)" fill="#fff"/>
      <rect id="Retângulo_1882" data-name="Retângulo 1882" width="2.384" height="8.781" transform="translate(1793.08 -1823.566)" fill="#fff"/>
      <path id="Caminho_8152" data-name="Caminho 8152" d="M188.476,40.813a4.736,4.736,0,0,1-1.087,3.369,4.939,4.939,0,0,1-6.351-.006,4.716,4.716,0,0,1-1.1-3.375,4.686,4.686,0,0,1,1.1-3.349,4.97,4.97,0,0,1,6.362-.009,4.741,4.741,0,0,1,1.082,3.37m-6.042,0q0,2.547,1.772,2.546a1.522,1.522,0,0,0,1.336-.618,3.39,3.39,0,0,0,.436-1.928,3.421,3.421,0,0,0-.441-1.943,1.509,1.509,0,0,0-1.319-.628q-1.783,0-1.784,2.571" transform="translate(1617.102 -1860)" fill="#fff"/>
      <path id="Caminho_8153" data-name="Caminho 8153" d="M195.8,42.548A2.594,2.594,0,0,1,195.39,44a2.716,2.716,0,0,1-1.195.985,4.436,4.436,0,0,1-1.832.351,7.408,7.408,0,0,1-1.471-.123,5.388,5.388,0,0,1-1.237-.43V42.669a7.044,7.044,0,0,0,1.411.543,5.255,5.255,0,0,0,1.345.195,1.309,1.309,0,0,0,.775-.183.564.564,0,0,0,.246-.471.519.519,0,0,0-.1-.316,1.168,1.168,0,0,0-.318-.273q-.221-.138-1.169-.565a5.571,5.571,0,0,1-1.288-.757,2.335,2.335,0,0,1-.637-.84,2.8,2.8,0,0,1-.207-1.123,2.251,2.251,0,0,1,.883-1.893,3.9,3.9,0,0,1,2.427-.678,6.793,6.793,0,0,1,2.78.631l-.727,1.831a5.265,5.265,0,0,0-2.126-.564,1.107,1.107,0,0,0-.672.162.49.49,0,0,0-.21.4.581.581,0,0,0,.267.463,10.228,10.228,0,0,0,1.45.745,4,4,0,0,1,1.577,1.1,2.375,2.375,0,0,1,.441,1.474" transform="translate(1617.102 -1860)" fill="#fff"/>
      <path id="Caminho_8154" data-name="Caminho 8154" d="M98.781,59.976H95.67l-3.207-6.187h-.055q.114,1.461.114,2.229v3.958h-2.1V51.195h3.1l3.195,6.1h.035q-.084-1.326-.084-2.132v-3.97h2.115Z" transform="translate(1617.102 -1860)" fill="#fff"/>
      <path id="Caminho_8155" data-name="Caminho 8155" d="M106.066,59.976l-.432-1.646h-2.853l-.445,1.646H99.729l2.865-8.817h3.166l2.9,8.817Zm-.925-3.592-.378-1.441q-.133-.481-.322-1.244t-.249-1.093q-.054.306-.213,1.009t-.706,2.769Z" transform="translate(1617.102 -1860)" fill="#fff"/>
      <path id="Caminho_8156" data-name="Caminho 8156" d="M120.271,51.194V56.48a3.547,3.547,0,0,1-.976,2.671,4.637,4.637,0,0,1-5.574.026,3.479,3.479,0,0,1-.964-2.642V51.194h2.385v5.154a2.11,2.11,0,0,0,.348,1.351,1.5,1.5,0,0,0,2.081,0,2.234,2.234,0,0,0,.327-1.366V51.194Z" transform="translate(1617.102 -1860)" fill="#fff"/>
      <path id="Caminho_8157" data-name="Caminho 8157" d="M122.115,51.195h3.063a5.217,5.217,0,0,1,2.658.531,1.8,1.8,0,0,1,.867,1.655,2.091,2.091,0,0,1-.378,1.261,1.69,1.69,0,0,1-1,.673v.06a2.037,2.037,0,0,1,1.183.721,2.17,2.17,0,0,1,.367,1.309,2.244,2.244,0,0,1-.9,1.883,3.931,3.931,0,0,1-2.448.688h-3.417Zm2.372,3.369h.715a1.3,1.3,0,0,0,.79-.21.732.732,0,0,0,.279-.625q0-.738-1.117-.739h-.667Zm0,1.736v1.844h.835q1.112,0,1.111-.937a.808.808,0,0,0-.3-.673,1.37,1.37,0,0,0-.862-.234Z" transform="translate(1617.102 -1860)" fill="#fff"/>
      <path id="Caminho_8158" data-name="Caminho 8158" d="M136.145,57.309a2.587,2.587,0,0,1-.415,1.451,2.71,2.71,0,0,1-1.195.985,4.431,4.431,0,0,1-1.831.351,7.418,7.418,0,0,1-1.472-.123,5.4,5.4,0,0,1-1.237-.43V57.43a7.044,7.044,0,0,0,1.411.543,5.267,5.267,0,0,0,1.345.195,1.307,1.307,0,0,0,.775-.183.564.564,0,0,0,.246-.471.513.513,0,0,0-.1-.316,1.153,1.153,0,0,0-.318-.273q-.219-.138-1.168-.565A5.581,5.581,0,0,1,130.9,55.6a2.321,2.321,0,0,1-.636-.84,2.8,2.8,0,0,1-.207-1.123,2.253,2.253,0,0,1,.882-1.893,3.9,3.9,0,0,1,2.427-.678,6.8,6.8,0,0,1,2.781.631l-.727,1.831a5.269,5.269,0,0,0-2.126-.564,1.11,1.11,0,0,0-.673.162.49.49,0,0,0-.21.4.581.581,0,0,0,.267.463,10.263,10.263,0,0,0,1.451.745,4.008,4.008,0,0,1,1.577,1.1,2.381,2.381,0,0,1,.441,1.474" transform="translate(1617.102 -1860)" fill="#fff"/>
    </g>
  </g>
</svg>
