<svg xmlns="http://www.w3.org/2000/svg" xmlns:xlink="http://www.w3.org/1999/xlink" width="225" height="108.235" viewBox="0 0 225 108.235">
  <defs>
    <clipPath id="clip-path">
      <rect id="Retângulo_1894" data-name="Retângulo 1894" width="225" height="98.234" transform="translate(238.5 260.5)" fill="none"/>
    </clipPath>
  </defs>
  <g id="Grupo_3028" data-name="Grupo 3028" transform="translate(-2122.391 1614.501)">
    <g id="Grupo_3022" data-name="Grupo 3022" transform="translate(1883.891 -1865)" opacity="0.3">
      <g id="Grupo_3021" data-name="Grupo 3021">
        <g id="Grupo_3020" data-name="Grupo 3020" clip-path="url(#clip-path)">
          <path id="Caminho_8283" data-name="Caminho 8283" d="M445,358.734H257a18.5,18.5,0,0,1-18.5-18.5V279A18.5,18.5,0,0,1,257,260.5H445A18.5,18.5,0,0,1,463.5,279v61.242a18.5,18.5,0,0,1-18.5,18.5" fill="#373538"/>
        </g>
      </g>
    </g>
    <path id="Caminho_8284" data-name="Caminho 8284" d="M445,348.734H257a18.5,18.5,0,0,1-18.5-18.5V269A18.5,18.5,0,0,1,257,250.5H445A18.5,18.5,0,0,1,463.5,269v61.242a18.5,18.5,0,0,1-18.5,18.5" transform="translate(1883.891 -1865)" fill="#ff4e00"/>
    <path id="Caminho_8285" data-name="Caminho 8285" d="M260.4,288.335h-2.336v-8.781h5.189v1.9H260.4v1.676h2.631v1.9H260.4Z" transform="translate(1883.891 -1865)" fill="#fff"/>
    <path id="Caminho_8286" data-name="Caminho 8286" d="M264.7,288.335v-8.781h2.372v6.865h3.382v1.916Z" transform="translate(1883.891 -1865)" fill="#fff"/>
    <path id="Caminho_8287" data-name="Caminho 8287" d="M279.323,279.553v5.286a3.546,3.546,0,0,1-.976,2.67,4.633,4.633,0,0,1-5.574.026,3.479,3.479,0,0,1-.964-2.642v-5.34h2.385v5.153a2.107,2.107,0,0,0,.349,1.352,1.5,1.5,0,0,0,2.081,0,2.239,2.239,0,0,0,.327-1.366v-5.142Z" transform="translate(1883.891 -1865)" fill="#fff"/>
    <path id="Caminho_8288" data-name="Caminho 8288" d="M289.078,288.335h-2.745l-1.712-2.745-1.693,2.745h-2.686l2.913-4.493-2.738-4.288h2.631l1.585,2.715,1.525-2.715h2.709l-2.78,4.474Z" transform="translate(1883.891 -1865)" fill="#fff"/>
    <path id="Caminho_8289" data-name="Caminho 8289" d="M298.28,283.932a4.723,4.723,0,0,1-1.089,3.369,4.939,4.939,0,0,1-6.351-.006,5.688,5.688,0,0,1-.005-6.723,4.969,4.969,0,0,1,6.363-.01,4.743,4.743,0,0,1,1.082,3.37m-6.043,0q0,2.547,1.771,2.546a1.519,1.519,0,0,0,1.336-.618,4.5,4.5,0,0,0,0-3.871,1.509,1.509,0,0,0-1.319-.628q-1.785,0-1.784,2.571" transform="translate(1883.891 -1865)" fill="#fff"/>
    <path id="Caminho_8290" data-name="Caminho 8290" d="M309.433,282.346a2.939,2.939,0,0,1-.868,2.274,3.5,3.5,0,0,1-2.465.8h-.667v2.913h-2.372v-8.782H306.1a3.719,3.719,0,0,1,2.5.728,2.589,2.589,0,0,1,.835,2.065m-4,1.142h.433a1.181,1.181,0,0,0,.849-.3,1.09,1.09,0,0,0,.316-.828q0-.891-.986-.89h-.612Z" transform="translate(1883.891 -1865)" fill="#fff"/>
    <path id="Caminho_8291" data-name="Caminho 8291" d="M316.22,288.335l-.433-1.646h-2.852l-.446,1.646h-2.606l2.865-8.818h3.165l2.9,8.818Zm-.925-3.592-.379-1.441q-.132-.482-.321-1.244t-.249-1.093c-.036.205-.108.541-.213,1.009s-.342,1.391-.706,2.769Z" transform="translate(1883.891 -1865)" fill="#fff"/>
    <path id="Caminho_8292" data-name="Caminho 8292" d="M322.136,285.139v3.2h-2.372v-8.781h2.877q3.579,0,3.579,2.6a2.589,2.589,0,0,1-1.489,2.36l2.558,3.826H324.6l-1.862-3.2Zm0-1.784h.444q1.244,0,1.243-1.1,0-.906-1.218-.907h-.469Z" transform="translate(1883.891 -1865)" fill="#fff"/>
    <path id="Caminho_8293" data-name="Caminho 8293" d="M333.476,288.335l-.433-1.646h-2.852l-.446,1.646h-2.606L330,279.517h3.165l2.9,8.818Zm-.925-3.592-.379-1.441q-.132-.482-.321-1.244t-.249-1.093c-.036.205-.108.541-.213,1.009s-.342,1.391-.706,2.769Z" transform="translate(1883.891 -1865)" fill="#fff"/>
    <path id="Caminho_8294" data-name="Caminho 8294" d="M348.431,283.932a4.731,4.731,0,0,1-1.087,3.369,4.939,4.939,0,0,1-6.351-.006,5.686,5.686,0,0,1-.006-6.723,4.969,4.969,0,0,1,6.363-.01,4.743,4.743,0,0,1,1.081,3.37m-6.042,0q0,2.547,1.771,2.546a1.523,1.523,0,0,0,1.337-.618,4.491,4.491,0,0,0-.005-3.871,1.51,1.51,0,0,0-1.319-.628q-1.783,0-1.784,2.571" transform="translate(1883.891 -1865)" fill="#fff"/>
    <path id="Caminho_8295" data-name="Caminho 8295" d="M355.759,285.668a2.6,2.6,0,0,1-.415,1.451,2.723,2.723,0,0,1-1.2.985,4.434,4.434,0,0,1-1.831.351,7.418,7.418,0,0,1-1.472-.123,5.389,5.389,0,0,1-1.237-.43v-2.113a7.106,7.106,0,0,0,1.411.543,5.261,5.261,0,0,0,1.345.2,1.3,1.3,0,0,0,.775-.183.564.564,0,0,0,.246-.471.513.513,0,0,0-.1-.316,1.171,1.171,0,0,0-.318-.274c-.147-.092-.536-.279-1.168-.564a5.619,5.619,0,0,1-1.289-.756,2.334,2.334,0,0,1-.637-.842,2.807,2.807,0,0,1-.207-1.123,2.253,2.253,0,0,1,.883-1.892,3.9,3.9,0,0,1,2.427-.678,6.818,6.818,0,0,1,2.781.631l-.727,1.832a5.26,5.26,0,0,0-2.127-.565,1.109,1.109,0,0,0-.672.162.491.491,0,0,0-.21.4.583.583,0,0,0,.267.463,10.5,10.5,0,0,0,1.45.744,4.022,4.022,0,0,1,1.578,1.1,2.386,2.386,0,0,1,.441,1.475" transform="translate(1883.891 -1865)" fill="#fff"/>
    <path id="Caminho_8296" data-name="Caminho 8296" d="M367.777,279.553v5.286a3.546,3.546,0,0,1-.976,2.67,4.633,4.633,0,0,1-5.574.026,3.479,3.479,0,0,1-.964-2.642v-5.34h2.385v5.153a2.107,2.107,0,0,0,.349,1.352,1.5,1.5,0,0,0,2.081,0,2.239,2.239,0,0,0,.327-1.366v-5.142Z" transform="translate(1883.891 -1865)" fill="#fff"/>
    <path id="Caminho_8297" data-name="Caminho 8297" d="M375.362,285.668a2.594,2.594,0,0,1-.414,1.451,2.723,2.723,0,0,1-1.2.985,4.435,4.435,0,0,1-1.832.351,7.418,7.418,0,0,1-1.472-.123,5.405,5.405,0,0,1-1.237-.43v-2.113a7.115,7.115,0,0,0,1.412.543,5.254,5.254,0,0,0,1.344.2,1.3,1.3,0,0,0,.776-.183.564.564,0,0,0,.246-.471.514.514,0,0,0-.1-.316,1.156,1.156,0,0,0-.318-.274c-.146-.092-.535-.279-1.168-.564a5.609,5.609,0,0,1-1.288-.756,2.322,2.322,0,0,1-.637-.842,2.79,2.79,0,0,1-.207-1.123,2.251,2.251,0,0,1,.883-1.892,3.9,3.9,0,0,1,2.427-.678,6.813,6.813,0,0,1,2.78.631l-.727,1.832a5.257,5.257,0,0,0-2.126-.565,1.1,1.1,0,0,0-.672.162.488.488,0,0,0-.21.4.585.585,0,0,0,.266.463,10.6,10.6,0,0,0,1.451.744,4.01,4.01,0,0,1,1.577,1.1,2.38,2.38,0,0,1,.441,1.475" transform="translate(1883.891 -1865)" fill="#fff"/>
    <path id="Caminho_8298" data-name="Caminho 8298" d="M384.186,279.553v5.286a3.543,3.543,0,0,1-.977,2.67,4.632,4.632,0,0,1-5.573.026,3.479,3.479,0,0,1-.964-2.642v-5.34h2.384v5.153a2.107,2.107,0,0,0,.349,1.352,1.5,1.5,0,0,0,2.081,0,2.232,2.232,0,0,0,.327-1.366v-5.142Z" transform="translate(1883.891 -1865)" fill="#fff"/>
    <path id="Caminho_8299" data-name="Caminho 8299" d="M391.417,288.335l-.433-1.646h-2.852l-.446,1.646H385.08l2.865-8.818h3.165l2.9,8.818Zm-3.142-9.484v-.174c.617-.662,1.008-1.087,1.175-1.28s.3-.364.411-.516h2.57v.127q-.48.384-1.321.978t-1.273.865Zm2.217,5.892-.379-1.441q-.132-.482-.321-1.244t-.249-1.093c-.036.205-.108.541-.213,1.009s-.342,1.391-.706,2.769Z" transform="translate(1883.891 -1865)" fill="#fff"/>
    <path id="Caminho_8300" data-name="Caminho 8300" d="M397.333,285.139v3.2h-2.372v-8.781h2.877q3.579,0,3.579,2.6a2.589,2.589,0,0,1-1.489,2.36l2.558,3.826H399.8l-1.862-3.2Zm0-1.784h.444q1.243,0,1.243-1.1,0-.906-1.218-.907h-.469Z" transform="translate(1883.891 -1865)" fill="#fff"/>
    <rect id="Retângulo_1895" data-name="Retângulo 1895" width="2.385" height="8.781" transform="translate(2287.176 -1585.447)" fill="#fff"/>
    <path id="Caminho_8301" data-name="Caminho 8301" d="M415.784,283.932A4.727,4.727,0,0,1,414.7,287.3a4.939,4.939,0,0,1-6.351-.006,5.69,5.69,0,0,1-.006-6.723,4.971,4.971,0,0,1,6.364-.01,4.743,4.743,0,0,1,1.081,3.37m-6.043,0q0,2.547,1.772,2.546a1.52,1.52,0,0,0,1.336-.618,4.491,4.491,0,0,0-.005-3.871,1.508,1.508,0,0,0-1.319-.628q-1.783,0-1.784,2.571" transform="translate(1883.891 -1865)" fill="#fff"/>
    <path id="Caminho_8302" data-name="Caminho 8302" d="M423.112,285.668a2.594,2.594,0,0,1-.414,1.451,2.728,2.728,0,0,1-1.2.985,4.439,4.439,0,0,1-1.832.351,7.429,7.429,0,0,1-1.473-.123,5.405,5.405,0,0,1-1.237-.43v-2.113a7.1,7.1,0,0,0,1.413.543,5.253,5.253,0,0,0,1.343.2,1.3,1.3,0,0,0,.776-.183.562.562,0,0,0,.247-.471.514.514,0,0,0-.1-.316,1.165,1.165,0,0,0-.317-.274c-.146-.092-.536-.279-1.168-.564a5.565,5.565,0,0,1-1.288-.756,2.314,2.314,0,0,1-.638-.842,2.79,2.79,0,0,1-.207-1.123,2.249,2.249,0,0,1,.884-1.892,3.89,3.89,0,0,1,2.426-.678,6.814,6.814,0,0,1,2.781.631l-.728,1.832a5.252,5.252,0,0,0-2.126-.565,1.107,1.107,0,0,0-.672.162.488.488,0,0,0-.21.4.585.585,0,0,0,.266.463,10.706,10.706,0,0,0,1.452.744,4.025,4.025,0,0,1,1.577,1.1,2.386,2.386,0,0,1,.441,1.475" transform="translate(1883.891 -1865)" fill="#fff"/>
    <path id="Caminho_8303" data-name="Caminho 8303" d="M436.025,288.335h-3.111l-3.207-6.187h-.054q.112,1.459.113,2.229v3.958h-2.1v-8.781h3.1l3.2,6.1h.036q-.084-1.326-.084-2.133v-3.969h2.114Z" transform="translate(1883.891 -1865)" fill="#fff"/>
    <path id="Caminho_8304" data-name="Caminho 8304" d="M443.311,288.335l-.433-1.646h-2.853l-.445,1.646h-2.606l2.865-8.818H443l2.9,8.818Zm-.926-3.592-.378-1.441q-.132-.482-.321-1.244t-.249-1.093q-.054.308-.214,1.009t-.7,2.769Z" transform="translate(1883.891 -1865)" fill="#fff"/>
    <path id="Caminho_8305" data-name="Caminho 8305" d="M299.867,294.314V299.6a3.543,3.543,0,0,1-.976,2.67,4.631,4.631,0,0,1-5.574.027,3.482,3.482,0,0,1-.964-2.642v-5.34h2.385v5.153a2.107,2.107,0,0,0,.349,1.352,1.5,1.5,0,0,0,2.081,0,2.239,2.239,0,0,0,.327-1.366v-5.142Z" transform="translate(1883.891 -1865)" fill="#fff"/>
    <path id="Caminho_8306" data-name="Caminho 8306" d="M301.712,294.315h3.062a5.219,5.219,0,0,1,2.659.531,1.8,1.8,0,0,1,.867,1.655,2.091,2.091,0,0,1-.378,1.261,1.7,1.7,0,0,1-1,.674v.059a2.04,2.04,0,0,1,1.183.721,2.17,2.17,0,0,1,.367,1.309,2.243,2.243,0,0,1-.9,1.883,3.926,3.926,0,0,1-2.447.688h-3.417Zm2.372,3.369h.715a1.3,1.3,0,0,0,.79-.209.739.739,0,0,0,.279-.625q0-.74-1.117-.74h-.667Zm0,1.736v1.844h.835q1.11,0,1.111-.938a.806.806,0,0,0-.3-.672,1.367,1.367,0,0,0-.861-.234Z" transform="translate(1883.891 -1865)" fill="#fff"/>
    <path id="Caminho_8307" data-name="Caminho 8307" d="M315.742,300.428a2.589,2.589,0,0,1-.415,1.45,2.711,2.711,0,0,1-1.2.986,4.434,4.434,0,0,1-1.831.351,7.418,7.418,0,0,1-1.472-.123,5.436,5.436,0,0,1-1.237-.43v-2.114a6.988,6.988,0,0,0,1.411.544,5.258,5.258,0,0,0,1.345.194,1.308,1.308,0,0,0,.775-.182.564.564,0,0,0,.246-.472.509.509,0,0,0-.1-.314,1.137,1.137,0,0,0-.318-.274c-.147-.092-.536-.281-1.168-.564a5.651,5.651,0,0,1-1.289-.758,2.327,2.327,0,0,1-.637-.84,2.81,2.81,0,0,1-.207-1.123,2.255,2.255,0,0,1,.883-1.893,3.889,3.889,0,0,1,2.427-.678,6.8,6.8,0,0,1,2.781.631l-.727,1.831a5.293,5.293,0,0,0-2.127-.565,1.116,1.116,0,0,0-.672.162.494.494,0,0,0-.21.4.581.581,0,0,0,.267.463,10.226,10.226,0,0,0,1.45.745,4.033,4.033,0,0,1,1.578,1.1,2.379,2.379,0,0,1,.441,1.474" transform="translate(1883.891 -1865)" fill="#fff"/>
    <path id="Caminho_8308" data-name="Caminho 8308" d="M326.667,297.107a2.942,2.942,0,0,1-.868,2.274,3.5,3.5,0,0,1-2.465.8h-.667V303.1H320.3v-8.782h3.039a3.719,3.719,0,0,1,2.5.727,2.591,2.591,0,0,1,.835,2.066m-4,1.141h.433a1.18,1.18,0,0,0,.849-.3,1.089,1.089,0,0,0,.316-.829q0-.888-.986-.889h-.612Z" transform="translate(1883.891 -1865)" fill="#fff"/>
    <path id="Caminho_8309" data-name="Caminho 8309" d="M333.454,303.1l-.433-1.646h-2.852l-.446,1.646h-2.606l2.865-8.817h3.165l2.9,8.817Zm-.924-3.592-.38-1.441q-.131-.481-.321-1.244c-.126-.508-.209-.873-.248-1.092-.037.2-.108.54-.214,1.008s-.342,1.392-.706,2.769Z" transform="translate(1883.891 -1865)" fill="#fff"/>
    <path id="Caminho_8310" data-name="Caminho 8310" d="M339.37,299.9v3.2H337v-8.782h2.877q3.579,0,3.579,2.6a2.591,2.591,0,0,1-1.489,2.36l2.558,3.827h-2.69l-1.862-3.2Zm0-1.783h.444q1.244,0,1.243-1.1,0-.906-1.218-.907h-.469Z" transform="translate(1883.891 -1865)" fill="#fff"/>
    <path id="Caminho_8311" data-name="Caminho 8311" d="M350.71,303.1l-.433-1.646h-2.852l-.446,1.646h-2.606l2.865-8.817H350.4l2.9,8.817Zm-.925-3.592-.379-1.441q-.132-.481-.321-1.244c-.126-.508-.209-.873-.249-1.092-.036.2-.108.54-.213,1.008s-.342,1.392-.706,2.769Z" transform="translate(1883.891 -1865)" fill="#fff"/>
    <path id="Caminho_8312" data-name="Caminho 8312" d="M365.665,298.693q0,2.985-1.9,4.023l2.143,2.469h-2.955l-1.549-1.951-.007-.006v-.007l-.006-.006a4.158,4.158,0,0,1-3.167-1.159,5.688,5.688,0,0,1-.006-6.724,4.966,4.966,0,0,1,6.363-.008,4.737,4.737,0,0,1,1.081,3.369m-6.042,0q0,2.546,1.771,2.547a1.526,1.526,0,0,0,1.337-.619,4.491,4.491,0,0,0,0-3.871,1.509,1.509,0,0,0-1.319-.627q-1.784,0-1.784,2.57" transform="translate(1883.891 -1865)" fill="#fff"/>
    <path id="Caminho_8313" data-name="Caminho 8313" d="M374.717,294.314V299.6a3.54,3.54,0,0,1-.977,2.67,4.63,4.63,0,0,1-5.573.027,3.482,3.482,0,0,1-.964-2.642v-5.34h2.384v5.153a2.107,2.107,0,0,0,.349,1.352,1.5,1.5,0,0,0,2.081,0,2.232,2.232,0,0,0,.327-1.366v-5.142Z" transform="translate(1883.891 -1865)" fill="#fff"/>
    <path id="Caminho_8314" data-name="Caminho 8314" d="M381.775,303.1h-5.214v-8.781h5.214v1.9h-2.842V297.6h2.631v1.9h-2.631v1.658h2.842Z" transform="translate(1883.891 -1865)" fill="#fff"/>
    <rect id="Retângulo_1896" data-name="Retângulo 1896" width="2.385" height="8.781" transform="translate(2267.203 -1570.686)" fill="#fff"/>
    <path id="Caminho_8315" data-name="Caminho 8315" d="M395.5,303.1h-2.745l-1.712-2.744-1.693,2.744h-2.685l2.913-4.492-2.739-4.289h2.631l1.586,2.715,1.525-2.715h2.709l-2.781,4.474Z" transform="translate(1883.891 -1865)" fill="#fff"/>
    <path id="Caminho_8316" data-name="Caminho 8316" d="M401.876,303.1l-.432-1.646h-2.853l-.445,1.646H395.54l2.864-8.817h3.166l2.9,8.817Zm-.925-3.592-.378-1.441c-.089-.321-.2-.735-.321-1.244s-.21-.873-.25-1.092c-.035.2-.107.54-.213,1.008s-.341,1.392-.706,2.769Z" transform="translate(1883.891 -1865)" fill="#fff"/>
    <path id="Caminho_8317" data-name="Caminho 8317" d="M411.162,300.428a2.589,2.589,0,0,1-.415,1.45,2.711,2.711,0,0,1-1.2.986,4.434,4.434,0,0,1-1.831.351,7.418,7.418,0,0,1-1.472-.123,5.436,5.436,0,0,1-1.237-.43v-2.114a6.987,6.987,0,0,0,1.411.544,5.258,5.258,0,0,0,1.345.194,1.308,1.308,0,0,0,.775-.182.564.564,0,0,0,.246-.472.509.509,0,0,0-.1-.314,1.137,1.137,0,0,0-.318-.274c-.147-.092-.536-.281-1.168-.564a5.651,5.651,0,0,1-1.289-.758,2.326,2.326,0,0,1-.637-.84,2.81,2.81,0,0,1-.207-1.123,2.255,2.255,0,0,1,.883-1.893,3.889,3.889,0,0,1,2.427-.678,6.8,6.8,0,0,1,2.781.631l-.727,1.831a5.293,5.293,0,0,0-2.127-.565,1.116,1.116,0,0,0-.672.162.5.5,0,0,0-.21.4.581.581,0,0,0,.267.463,10.229,10.229,0,0,0,1.45.745,4.033,4.033,0,0,1,1.578,1.1,2.379,2.379,0,0,1,.441,1.474" transform="translate(1883.891 -1865)" fill="#fff"/>
    <path id="Caminho_8318" data-name="Caminho 8318" d="M305.517,313.454a4.731,4.731,0,0,1-1.087,3.369,4.939,4.939,0,0,1-6.351-.006,5.686,5.686,0,0,1-.006-6.723,4.969,4.969,0,0,1,6.363-.01,4.743,4.743,0,0,1,1.081,3.37m-6.042,0q0,2.547,1.771,2.546a1.523,1.523,0,0,0,1.337-.618,4.491,4.491,0,0,0-.005-3.871,1.51,1.51,0,0,0-1.319-.628q-1.783,0-1.784,2.571" transform="translate(1883.891 -1865)" fill="#fff"/>
    <path id="Caminho_8319" data-name="Caminho 8319" d="M314.557,313.279a4.535,4.535,0,0,1-1.211,3.388,4.646,4.646,0,0,1-3.4,1.189H307.1v-8.781h3.039a4.582,4.582,0,0,1,3.264,1.081,4.08,4.08,0,0,1,1.151,3.123m-2.463.084a2.785,2.785,0,0,0-.478-1.789,1.762,1.762,0,0,0-1.45-.583h-.691v4.919H310a1.912,1.912,0,0,0,1.585-.627,3.032,3.032,0,0,0,.505-1.92" transform="translate(1883.891 -1865)" fill="#fff"/>
    <path id="Caminho_8320" data-name="Caminho 8320" d="M324.347,313.454a4.727,4.727,0,0,1-1.088,3.369,4.939,4.939,0,0,1-6.351-.006,5.69,5.69,0,0,1-.006-6.723,4.971,4.971,0,0,1,6.364-.01,4.743,4.743,0,0,1,1.081,3.37m-6.043,0q0,2.547,1.772,2.546a1.52,1.52,0,0,0,1.336-.618,4.491,4.491,0,0,0,0-3.871,1.508,1.508,0,0,0-1.319-.628q-1.784,0-1.784,2.571" transform="translate(1883.891 -1865)" fill="#fff"/>
    <path id="Caminho_8321" data-name="Caminho 8321" d="M334.293,317.856h-3.111l-3.207-6.187h-.055q.114,1.459.114,2.229v3.958h-2.1v-8.781h3.1l3.2,6.1h.036q-.086-1.326-.084-2.133v-3.969h2.114Z" transform="translate(1883.891 -1865)" fill="#fff"/>
    <path id="Caminho_8322" data-name="Caminho 8322" d="M340.065,317.856h-2.372v-6.841h-2.145v-1.94H342.2v1.94h-2.139Z" transform="translate(1883.891 -1865)" fill="#fff"/>
    <path id="Caminho_8323" data-name="Caminho 8323" d="M351.675,313.454a4.732,4.732,0,0,1-1.087,3.369,4.939,4.939,0,0,1-6.351-.006,5.686,5.686,0,0,1-.006-6.723,4.969,4.969,0,0,1,6.363-.01,4.743,4.743,0,0,1,1.081,3.37m-6.042,0q0,2.547,1.771,2.546a1.523,1.523,0,0,0,1.337-.618,4.491,4.491,0,0,0-.005-3.871,1.51,1.51,0,0,0-1.319-.628q-1.783,0-1.784,2.571" transform="translate(1883.891 -1865)" fill="#fff"/>
    <path id="Caminho_8324" data-name="Caminho 8324" d="M353.261,317.856v-8.781h2.372v6.865h3.382v1.916Z" transform="translate(1883.891 -1865)" fill="#fff"/>
    <path id="Caminho_8325" data-name="Caminho 8325" d="M368.637,313.454a4.727,4.727,0,0,1-1.088,3.369,4.936,4.936,0,0,1-6.351-.006,5.69,5.69,0,0,1-.006-6.723,4.971,4.971,0,0,1,6.364-.01,4.743,4.743,0,0,1,1.081,3.37m-6.043,0q0,2.547,1.773,2.546a1.519,1.519,0,0,0,1.335-.618,4.491,4.491,0,0,0-.005-3.871,1.508,1.508,0,0,0-1.319-.628q-1.783,0-1.784,2.571m.379-5.081V308.2q.924-.992,1.174-1.279c.166-.192.3-.364.412-.517h2.57v.127q-.48.384-1.321.979t-1.273.865Z" transform="translate(1883.891 -1865)" fill="#fff"/>
    <path id="Caminho_8326" data-name="Caminho 8326" d="M373.748,312.714h3.79v4.733a10.4,10.4,0,0,1-3.394.529,4.1,4.1,0,0,1-3.138-1.178,4.713,4.713,0,0,1-1.109-3.357,4.41,4.41,0,0,1,1.214-3.309,4.665,4.665,0,0,1,3.4-1.184,7.526,7.526,0,0,1,1.564.157,6.543,6.543,0,0,1,1.282.4l-.751,1.861a4.643,4.643,0,0,0-2.084-.467,1.984,1.984,0,0,0-1.606.674,2.925,2.925,0,0,0-.567,1.932,2.958,2.958,0,0,0,.513,1.877,1.778,1.778,0,0,0,1.481.646,4.344,4.344,0,0,0,.972-.1v-1.375h-1.567Z" transform="translate(1883.891 -1865)" fill="#fff"/>
    <rect id="Retângulo_1897" data-name="Retângulo 1897" width="2.384" height="8.781" transform="translate(2263.219 -1555.925)" fill="#fff"/>
    <path id="Caminho_8327" data-name="Caminho 8327" d="M387.52,310.895a1.513,1.513,0,0,0-1.321.693,3.345,3.345,0,0,0-.475,1.913q0,2.535,1.929,2.536a3.957,3.957,0,0,0,1.129-.163,11.559,11.559,0,0,0,1.1-.39v2.006a6.083,6.083,0,0,1-2.486.486,3.937,3.937,0,0,1-3.048-1.153,4.755,4.755,0,0,1-1.06-3.333,5.339,5.339,0,0,1,.513-2.4,3.674,3.674,0,0,1,1.478-1.589,4.462,4.462,0,0,1,2.267-.555,6.251,6.251,0,0,1,2.721.619l-.726,1.867a8.616,8.616,0,0,0-.973-.385,3.441,3.441,0,0,0-1.046-.155" transform="translate(1883.891 -1865)" fill="#fff"/>
    <path id="Caminho_8328" data-name="Caminho 8328" d="M396.98,317.856l-.432-1.646H393.7l-.445,1.646h-2.606l2.864-8.818h3.166l2.9,8.818Zm-.925-3.592-.378-1.441c-.089-.321-.2-.736-.321-1.244s-.21-.873-.25-1.093c-.035.205-.107.541-.213,1.009s-.341,1.391-.706,2.769Z" transform="translate(1883.891 -1865)" fill="#fff"/>
    <path id="Caminho_8329" data-name="Caminho 8329" d="M406.266,315.189a2.6,2.6,0,0,1-.415,1.451,2.722,2.722,0,0,1-1.2.985,4.434,4.434,0,0,1-1.831.351,7.418,7.418,0,0,1-1.472-.123,5.389,5.389,0,0,1-1.237-.43V315.31a7.105,7.105,0,0,0,1.411.543,5.261,5.261,0,0,0,1.345.2,1.3,1.3,0,0,0,.775-.183.564.564,0,0,0,.246-.471.513.513,0,0,0-.1-.316,1.171,1.171,0,0,0-.318-.274c-.147-.092-.536-.279-1.168-.564a5.618,5.618,0,0,1-1.289-.756,2.333,2.333,0,0,1-.637-.842,2.807,2.807,0,0,1-.207-1.123,2.253,2.253,0,0,1,.883-1.892,3.9,3.9,0,0,1,2.427-.678,6.817,6.817,0,0,1,2.781.631l-.727,1.832a5.26,5.26,0,0,0-2.127-.565,1.109,1.109,0,0,0-.672.162.491.491,0,0,0-.21.4.583.583,0,0,0,.267.463,10.5,10.5,0,0,0,1.45.744,4.023,4.023,0,0,1,1.578,1.1,2.386,2.386,0,0,1,.441,1.475" transform="translate(1883.891 -1865)" fill="#fff"/>
  </g>
</svg>
