<svg xmlns="http://www.w3.org/2000/svg" xmlns:xlink="http://www.w3.org/1999/xlink" width="225" height="108.235" viewBox="0 0 225 108.235">
  <defs>
    <clipPath id="clip-path">
      <rect id="Ret창ngulo_1892" data-name="Ret창ngulo 1892" width="225" height="98.234" transform="translate(0 260.5)" fill="none"/>
    </clipPath>
  </defs>
  <g id="Grupo_3034" data-name="Grupo 3034" transform="translate(-1760.032 1685.177)">
    <g id="Grupo_3019" data-name="Grupo 3019" transform="translate(1760.032 -1935.676)" opacity="0.3">
      <g id="Grupo_3018" data-name="Grupo 3018">
        <g id="Grupo_3017" data-name="Grupo 3017" clip-path="url(#clip-path)">
          <path id="Caminho_8258" data-name="Caminho 8258" d="M206.5,358.734H18.5A18.5,18.5,0,0,1,0,340.238V279a18.5,18.5,0,0,1,18.5-18.5H206.5A18.5,18.5,0,0,1,225,279v61.242a18.5,18.5,0,0,1-18.5,18.5" fill="#373538"/>
        </g>
      </g>
    </g>
    <path id="Caminho_8259" data-name="Caminho 8259" d="M206.5,348.734H18.5A18.5,18.5,0,0,1,0,330.238V269a18.5,18.5,0,0,1,18.5-18.5H206.5A18.5,18.5,0,0,1,225,269v61.242a18.5,18.5,0,0,1-18.5,18.5" transform="translate(1760.032 -1935.676)" fill="#007aff"/>
    <path id="Caminho_8260" data-name="Caminho 8260" d="M33.1,295.714H30.761v-8.781H35.95v1.9H33.1v1.676h2.631v1.9H33.1Z" transform="translate(1760.032 -1935.676)" fill="#fff"/>
    <path id="Caminho_8261" data-name="Caminho 8261" d="M37.392,295.714v-8.781h2.372V293.8h3.382v1.916Z" transform="translate(1760.032 -1935.676)" fill="#fff"/>
    <path id="Caminho_8262" data-name="Caminho 8262" d="M52.016,286.933v5.286a3.545,3.545,0,0,1-.976,2.67,3.883,3.883,0,0,1-2.814.946,3.841,3.841,0,0,1-2.76-.92,3.479,3.479,0,0,1-.964-2.642v-5.34h2.385v5.154a2.115,2.115,0,0,0,.348,1.352,1.5,1.5,0,0,0,2.081,0,2.226,2.226,0,0,0,.327-1.365v-5.143Z" transform="translate(1760.032 -1935.676)" fill="#fff"/>
    <path id="Caminho_8263" data-name="Caminho 8263" d="M61.771,295.714H59.026l-1.712-2.744-1.693,2.744H52.936l2.913-4.492-2.739-4.289h2.631l1.585,2.715,1.526-2.715h2.709l-2.781,4.474Z" transform="translate(1760.032 -1935.676)" fill="#fff"/>
    <path id="Caminho_8264" data-name="Caminho 8264" d="M70.971,291.312a4.728,4.728,0,0,1-1.087,3.369,4.936,4.936,0,0,1-6.351-.006,5.686,5.686,0,0,1-.006-6.723,4.968,4.968,0,0,1,6.363-.009,4.74,4.74,0,0,1,1.081,3.369m-6.042,0q0,2.547,1.772,2.547a1.521,1.521,0,0,0,1.336-.619,4.491,4.491,0,0,0-.005-3.871,1.508,1.508,0,0,0-1.319-.627q-1.783,0-1.784,2.57" transform="translate(1760.032 -1935.676)" fill="#fff"/>
    <path id="Caminho_8265" data-name="Caminho 8265" d="M82.125,289.726A2.939,2.939,0,0,1,81.257,292a3.5,3.5,0,0,1-2.465.8h-.667v2.912H75.753v-8.782h3.039a3.72,3.72,0,0,1,2.5.728,2.592,2.592,0,0,1,.834,2.065m-4,1.142h.433a1.184,1.184,0,0,0,.849-.3,1.088,1.088,0,0,0,.316-.829q0-.89-.985-.89h-.613Z" transform="translate(1760.032 -1935.676)" fill="#fff"/>
    <path id="Caminho_8266" data-name="Caminho 8266" d="M88.912,295.715l-.432-1.645H85.628l-.445,1.645H82.576L85.44,286.9h3.166l2.9,8.817Zm-.924-3.592-.379-1.441q-.132-.482-.322-1.243t-.249-1.093c-.035.2-.107.541-.212,1.009s-.342,1.391-.707,2.768Z" transform="translate(1760.032 -1935.676)" fill="#fff"/>
    <path id="Caminho_8267" data-name="Caminho 8267" d="M94.828,292.519v3.2H92.456v-8.782h2.877q3.579,0,3.579,2.6a2.589,2.589,0,0,1-1.489,2.359l2.558,3.827h-2.69l-1.862-3.2Zm0-1.783h.445q1.242,0,1.243-1.1,0-.9-1.219-.906h-.469Z" transform="translate(1760.032 -1935.676)" fill="#fff"/>
    <path id="Caminho_8268" data-name="Caminho 8268" d="M106.168,295.715l-.432-1.645h-2.853l-.445,1.645H99.831L102.7,286.9h3.166l2.9,8.817Zm-.925-3.592-.378-1.441q-.133-.482-.322-1.243t-.249-1.093q-.054.306-.213,1.009t-.706,2.768Z" transform="translate(1760.032 -1935.676)" fill="#fff"/>
    <path id="Caminho_8269" data-name="Caminho 8269" d="M121.123,291.312a4.728,4.728,0,0,1-1.087,3.369,4.936,4.936,0,0,1-6.351-.006,5.686,5.686,0,0,1-.006-6.723,4.968,4.968,0,0,1,6.363-.009,4.74,4.74,0,0,1,1.081,3.369m-6.042,0q0,2.547,1.772,2.547a1.521,1.521,0,0,0,1.336-.619,4.491,4.491,0,0,0-.005-3.871,1.508,1.508,0,0,0-1.319-.627q-1.783,0-1.784,2.57" transform="translate(1760.032 -1935.676)" fill="#fff"/>
    <path id="Caminho_8270" data-name="Caminho 8270" d="M128.451,293.048a2.585,2.585,0,0,1-.415,1.451,2.717,2.717,0,0,1-1.195.985,4.415,4.415,0,0,1-1.831.351,7.418,7.418,0,0,1-1.472-.123,5.5,5.5,0,0,1-1.237-.429v-2.114a7.168,7.168,0,0,0,1.411.543,5.263,5.263,0,0,0,1.345.194,1.316,1.316,0,0,0,.775-.181.566.566,0,0,0,.246-.472.51.51,0,0,0-.1-.315,1.155,1.155,0,0,0-.318-.275c-.146-.091-.536-.28-1.168-.563a5.615,5.615,0,0,1-1.289-.758,2.316,2.316,0,0,1-.636-.841,2.787,2.787,0,0,1-.207-1.123,2.254,2.254,0,0,1,.882-1.892,3.891,3.891,0,0,1,2.427-.677,6.8,6.8,0,0,1,2.781.63l-.727,1.831a5.285,5.285,0,0,0-2.126-.564,1.118,1.118,0,0,0-.673.161.5.5,0,0,0-.21.4.582.582,0,0,0,.267.464,10.616,10.616,0,0,0,1.451.745,4.007,4.007,0,0,1,1.577,1.1,2.381,2.381,0,0,1,.441,1.474" transform="translate(1760.032 -1935.676)" fill="#fff"/>
    <path id="Caminho_8271" data-name="Caminho 8271" d="M140.469,286.933v5.286a3.545,3.545,0,0,1-.976,2.67,3.883,3.883,0,0,1-2.814.946,3.841,3.841,0,0,1-2.76-.92,3.479,3.479,0,0,1-.964-2.642v-5.34h2.385v5.154a2.115,2.115,0,0,0,.348,1.352,1.5,1.5,0,0,0,2.081,0,2.226,2.226,0,0,0,.327-1.365v-5.143Z" transform="translate(1760.032 -1935.676)" fill="#fff"/>
    <path id="Caminho_8272" data-name="Caminho 8272" d="M148.055,293.048a2.585,2.585,0,0,1-.415,1.451,2.717,2.717,0,0,1-1.195.985,4.415,4.415,0,0,1-1.831.351,7.418,7.418,0,0,1-1.472-.123,5.5,5.5,0,0,1-1.237-.429v-2.114a7.168,7.168,0,0,0,1.411.543,5.263,5.263,0,0,0,1.345.194,1.316,1.316,0,0,0,.775-.181.566.566,0,0,0,.246-.472.51.51,0,0,0-.1-.315,1.155,1.155,0,0,0-.318-.275c-.146-.091-.536-.28-1.168-.563a5.616,5.616,0,0,1-1.289-.758,2.316,2.316,0,0,1-.636-.841,2.787,2.787,0,0,1-.207-1.123,2.254,2.254,0,0,1,.882-1.892,3.891,3.891,0,0,1,2.427-.677,6.8,6.8,0,0,1,2.781.63l-.727,1.831a5.285,5.285,0,0,0-2.126-.564,1.118,1.118,0,0,0-.673.161.5.5,0,0,0-.21.4.582.582,0,0,0,.267.464,10.617,10.617,0,0,0,1.451.745,4.007,4.007,0,0,1,1.577,1.1,2.381,2.381,0,0,1,.441,1.474" transform="translate(1760.032 -1935.676)" fill="#fff"/>
    <path id="Caminho_8273" data-name="Caminho 8273" d="M156.878,286.933v5.286a3.545,3.545,0,0,1-.976,2.67,3.883,3.883,0,0,1-2.814.946,3.841,3.841,0,0,1-2.76-.92,3.479,3.479,0,0,1-.964-2.642v-5.34h2.385v5.154a2.115,2.115,0,0,0,.348,1.352,1.5,1.5,0,0,0,2.081,0,2.226,2.226,0,0,0,.327-1.365v-5.143Z" transform="translate(1760.032 -1935.676)" fill="#fff"/>
    <path id="Caminho_8274" data-name="Caminho 8274" d="M164.11,295.715l-.432-1.645h-2.853l-.445,1.645h-2.607l2.865-8.817H163.8l2.9,8.817Zm-3.141-9.484v-.174c.616-.661,1.008-1.086,1.174-1.28s.3-.363.411-.515h2.571v.126q-.48.384-1.321.979t-1.274.864Zm2.216,5.892-.378-1.441q-.134-.482-.322-1.243t-.249-1.093q-.054.306-.213,1.009t-.706,2.768Z" transform="translate(1760.032 -1935.676)" fill="#fff"/>
    <path id="Caminho_8275" data-name="Caminho 8275" d="M170.026,292.519v3.2h-2.372v-8.782h2.877q3.579,0,3.579,2.6a2.589,2.589,0,0,1-1.489,2.359l2.558,3.827h-2.69l-1.862-3.2Zm0-1.783h.445q1.242,0,1.243-1.1,0-.9-1.219-.906h-.469Z" transform="translate(1760.032 -1935.676)" fill="#fff"/>
    <rect id="Ret창ngulo_1893" data-name="Ret창ngulo 1893" width="2.384" height="8.781" transform="translate(1936.01 -1648.743)" fill="#fff"/>
    <path id="Caminho_8276" data-name="Caminho 8276" d="M188.476,291.312a4.733,4.733,0,0,1-1.087,3.369,4.936,4.936,0,0,1-6.351-.006,5.686,5.686,0,0,1-.006-6.723,4.966,4.966,0,0,1,6.362-.009,4.74,4.74,0,0,1,1.082,3.369m-6.042,0q0,2.547,1.772,2.547a1.521,1.521,0,0,0,1.336-.619,4.491,4.491,0,0,0-.005-3.871,1.508,1.508,0,0,0-1.319-.627q-1.783,0-1.784,2.57" transform="translate(1760.032 -1935.676)" fill="#fff"/>
    <path id="Caminho_8277" data-name="Caminho 8277" d="M195.8,293.048a2.592,2.592,0,0,1-.414,1.451,2.723,2.723,0,0,1-1.195.985,4.42,4.42,0,0,1-1.832.351,7.408,7.408,0,0,1-1.471-.123,5.48,5.48,0,0,1-1.237-.429v-2.114a7.168,7.168,0,0,0,1.411.543,5.251,5.251,0,0,0,1.345.194,1.318,1.318,0,0,0,.775-.181.566.566,0,0,0,.246-.472.516.516,0,0,0-.1-.315,1.17,1.17,0,0,0-.318-.275c-.147-.091-.536-.28-1.169-.563a5.605,5.605,0,0,1-1.288-.758,2.33,2.33,0,0,1-.637-.841,2.787,2.787,0,0,1-.207-1.123,2.252,2.252,0,0,1,.883-1.892,3.889,3.889,0,0,1,2.427-.677,6.791,6.791,0,0,1,2.78.63l-.727,1.831a5.281,5.281,0,0,0-2.126-.564,1.115,1.115,0,0,0-.672.161.5.5,0,0,0-.21.4.582.582,0,0,0,.267.464,10.579,10.579,0,0,0,1.45.745,4,4,0,0,1,1.577,1.1,2.375,2.375,0,0,1,.441,1.474" transform="translate(1760.032 -1935.676)" fill="#fff"/>
    <path id="Caminho_8278" data-name="Caminho 8278" d="M98.781,310.476H95.67l-3.207-6.187h-.055q.114,1.459.114,2.228v3.959h-2.1V301.7h3.1l3.195,6.1h.035q-.084-1.326-.084-2.132V301.7h2.115Z" transform="translate(1760.032 -1935.676)" fill="#fff"/>
    <path id="Caminho_8279" data-name="Caminho 8279" d="M106.066,310.476l-.432-1.647h-2.853l-.445,1.647H99.729l2.865-8.818h3.166l2.9,8.818Zm-.925-3.592-.378-1.441q-.133-.481-.322-1.245c-.126-.507-.209-.873-.249-1.092q-.054.306-.213,1.008t-.706,2.77Z" transform="translate(1760.032 -1935.676)" fill="#fff"/>
    <path id="Caminho_8280" data-name="Caminho 8280" d="M120.271,301.7v5.285a3.544,3.544,0,0,1-.976,2.67,4.635,4.635,0,0,1-5.574.027,3.482,3.482,0,0,1-.964-2.642V301.7h2.385v5.152a2.112,2.112,0,0,0,.348,1.352,1.5,1.5,0,0,0,2.081,0,2.235,2.235,0,0,0,.327-1.367V301.7Z" transform="translate(1760.032 -1935.676)" fill="#fff"/>
    <path id="Caminho_8281" data-name="Caminho 8281" d="M122.115,301.7h3.063a5.206,5.206,0,0,1,2.658.531,1.8,1.8,0,0,1,.867,1.654,2.094,2.094,0,0,1-.378,1.262,1.7,1.7,0,0,1-1,.673v.059a2.047,2.047,0,0,1,1.183.721,2.172,2.172,0,0,1,.367,1.309,2.247,2.247,0,0,1-.9,1.884,3.937,3.937,0,0,1-2.448.688h-3.417Zm2.372,3.369h.715a1.3,1.3,0,0,0,.79-.21.734.734,0,0,0,.279-.625c0-.492-.372-.74-1.117-.74h-.667Zm0,1.736v1.844h.835q1.112,0,1.111-.938a.806.806,0,0,0-.3-.672,1.37,1.37,0,0,0-.862-.234Z" transform="translate(1760.032 -1935.676)" fill="#fff"/>
    <path id="Caminho_8282" data-name="Caminho 8282" d="M136.145,307.808a2.585,2.585,0,0,1-.415,1.451,2.71,2.71,0,0,1-1.195.985,4.431,4.431,0,0,1-1.831.351,7.418,7.418,0,0,1-1.472-.123,5.4,5.4,0,0,1-1.237-.43v-2.113a6.983,6.983,0,0,0,1.411.543,5.223,5.223,0,0,0,1.345.2,1.3,1.3,0,0,0,.775-.183.563.563,0,0,0,.246-.471.51.51,0,0,0-.1-.315,1.154,1.154,0,0,0-.318-.274q-.219-.138-1.168-.564a5.654,5.654,0,0,1-1.289-.757,2.316,2.316,0,0,1-.636-.841,2.79,2.79,0,0,1-.207-1.123,2.251,2.251,0,0,1,.882-1.892,3.891,3.891,0,0,1,2.427-.679,6.817,6.817,0,0,1,2.781.631l-.727,1.832a5.272,5.272,0,0,0-2.126-.565,1.117,1.117,0,0,0-.673.162.492.492,0,0,0-.21.4.583.583,0,0,0,.267.463,10.3,10.3,0,0,0,1.451.744,4.028,4.028,0,0,1,1.577,1.1,2.381,2.381,0,0,1,.441,1.474" transform="translate(1760.032 -1935.676)" fill="#fff"/>
  </g>
</svg>
