<svg xmlns="http://www.w3.org/2000/svg" xmlns:xlink="http://www.w3.org/1999/xlink" width="225" height="108.235" viewBox="0 0 225 108.235">
  <defs>
    <clipPath id="clip-path">
      <rect id="Retângulo_1898" data-name="Retângulo 1898" width="225" height="98.235" transform="translate(104.972 373.181)" fill="none"/>
    </clipPath>
  </defs>
  <g id="Grupo_3036" data-name="Grupo 3036" transform="translate(-1722.074 1496.819)">
    <g id="Grupo_3035" data-name="Grupo 3035">
      <g id="Grupo_3025" data-name="Grupo 3025" transform="translate(1617.102 -1860)" opacity="0.3">
        <g id="Grupo_3024" data-name="Grupo 3024">
          <g id="Grupo_3023" data-name="Grupo 3023" clip-path="url(#clip-path)">
            <path id="Caminho_8330" data-name="Caminho 8330" d="M311.476,471.416H123.468a18.5,18.5,0,0,1-18.5-18.5V391.678a18.5,18.5,0,0,1,18.5-18.5H311.476a18.5,18.5,0,0,1,18.5,18.5V452.92a18.5,18.5,0,0,1-18.5,18.5" fill="#373538"/>
          </g>
        </g>
      </g>
      <path id="Caminho_8331" data-name="Caminho 8331" d="M311.476,461.416H123.468a18.5,18.5,0,0,1-18.5-18.5V381.678a18.5,18.5,0,0,1,18.5-18.5H311.476a18.5,18.5,0,0,1,18.5,18.5V442.92a18.5,18.5,0,0,1-18.5,18.5" transform="translate(1617.102 -1860)" fill="#cd00ff"/>
      <path id="Caminho_8332" data-name="Caminho 8332" d="M137.432,401.016h-3.111l-3.207-6.187h-.055q.115,1.461.115,2.229v3.958h-2.1v-8.781h3.1l3.195,6.1h.036q-.084-1.326-.084-2.132v-3.97h2.114Z" transform="translate(1617.102 -1860)" fill="#fff"/>
      <path id="Caminho_8333" data-name="Caminho 8333" d="M144.544,401.016h-5.213v-8.781h5.213v1.9H141.7v1.382h2.631v1.9H141.7v1.658h2.841Z" transform="translate(1617.102 -1860)" fill="#fff"/>
      <path id="Caminho_8334" data-name="Caminho 8334" d="M149.991,394.055a1.513,1.513,0,0,0-1.321.693,3.348,3.348,0,0,0-.475,1.913q0,2.536,1.928,2.536a3.947,3.947,0,0,0,1.129-.163,11.214,11.214,0,0,0,1.1-.39v2.006a6.083,6.083,0,0,1-2.486.486,3.933,3.933,0,0,1-3.048-1.153,4.755,4.755,0,0,1-1.06-3.333,5.326,5.326,0,0,1,.513-2.4,3.685,3.685,0,0,1,1.478-1.589,4.462,4.462,0,0,1,2.267-.555,6.254,6.254,0,0,1,2.721.619l-.727,1.868a8.29,8.29,0,0,0-.973-.385,3.4,3.4,0,0,0-1.045-.156" transform="translate(1617.102 -1860)" fill="#fff"/>
      <path id="Caminho_8335" data-name="Caminho 8335" d="M159.277,401.016h-5.213v-8.781h5.213v1.9h-2.841v1.382h2.631v1.9h-2.631v1.658h2.841Z" transform="translate(1617.102 -1860)" fill="#fff"/>
      <path id="Caminho_8336" data-name="Caminho 8336" d="M166.556,398.349a2.587,2.587,0,0,1-.415,1.451,2.71,2.71,0,0,1-1.2.985,4.431,4.431,0,0,1-1.831.351,7.418,7.418,0,0,1-1.472-.123,5.405,5.405,0,0,1-1.237-.43V398.47a7.044,7.044,0,0,0,1.411.543,5.267,5.267,0,0,0,1.345.2,1.3,1.3,0,0,0,.775-.183.564.564,0,0,0,.246-.471.51.51,0,0,0-.1-.315,1.138,1.138,0,0,0-.318-.274q-.219-.138-1.168-.564a5.653,5.653,0,0,1-1.289-.757,2.316,2.316,0,0,1-.636-.841,2.793,2.793,0,0,1-.207-1.123,2.254,2.254,0,0,1,.882-1.893,3.9,3.9,0,0,1,2.427-.678,6.817,6.817,0,0,1,2.781.631l-.727,1.832a5.273,5.273,0,0,0-2.126-.565,1.11,1.11,0,0,0-.673.162.492.492,0,0,0-.21.4.583.583,0,0,0,.267.463,10.416,10.416,0,0,0,1.451.744,4.028,4.028,0,0,1,1.577,1.1,2.381,2.381,0,0,1,.441,1.474" transform="translate(1617.102 -1860)" fill="#fff"/>
      <path id="Caminho_8337" data-name="Caminho 8337" d="M173.656,398.349a2.58,2.58,0,0,1-.416,1.451,2.713,2.713,0,0,1-1.194.985,4.439,4.439,0,0,1-1.832.351,7.425,7.425,0,0,1-1.472-.123,5.422,5.422,0,0,1-1.237-.43V398.47a7.044,7.044,0,0,0,1.411.543,5.279,5.279,0,0,0,1.345.2,1.3,1.3,0,0,0,.775-.183.562.562,0,0,0,.247-.471.516.516,0,0,0-.1-.315,1.159,1.159,0,0,0-.319-.274q-.219-.138-1.168-.564a5.653,5.653,0,0,1-1.289-.757,2.316,2.316,0,0,1-.636-.841,2.793,2.793,0,0,1-.207-1.123,2.254,2.254,0,0,1,.882-1.893,3.9,3.9,0,0,1,2.427-.678,6.825,6.825,0,0,1,2.782.631l-.728,1.832a5.273,5.273,0,0,0-2.126-.565,1.107,1.107,0,0,0-.672.162.493.493,0,0,0-.211.4.583.583,0,0,0,.267.463,10.481,10.481,0,0,0,1.451.744,4.02,4.02,0,0,1,1.577,1.1,2.382,2.382,0,0,1,.442,1.474" transform="translate(1617.102 -1860)" fill="#fff"/>
      <rect id="Retângulo_1899" data-name="Retângulo 1899" width="2.384" height="8.781" transform="translate(1792.115 -1467.765)" fill="#fff"/>
      <path id="Caminho_8338" data-name="Caminho 8338" d="M186.749,396.44a4.534,4.534,0,0,1-1.211,3.387,4.644,4.644,0,0,1-3.4,1.189h-2.841v-8.781h3.039a4.576,4.576,0,0,1,3.264,1.082,4.08,4.08,0,0,1,1.151,3.123m-2.463.084a2.788,2.788,0,0,0-.478-1.79,1.761,1.761,0,0,0-1.45-.583h-.691v4.92h.529a1.916,1.916,0,0,0,1.586-.628,3.037,3.037,0,0,0,.5-1.919" transform="translate(1617.102 -1860)" fill="#fff"/>
      <path id="Caminho_8339" data-name="Caminho 8339" d="M193.71,401.016l-.432-1.646h-2.853l-.445,1.646h-2.607l2.865-8.817H193.4l2.9,8.817Zm-.925-3.592-.378-1.441q-.134-.482-.322-1.244c-.126-.508-.209-.873-.249-1.092q-.054.306-.213,1.008t-.706,2.769Z" transform="translate(1617.102 -1860)" fill="#fff"/>
      <path id="Caminho_8340" data-name="Caminho 8340" d="M204.707,396.44a4.534,4.534,0,0,1-1.211,3.387,4.644,4.644,0,0,1-3.4,1.189h-2.841v-8.781h3.039a4.576,4.576,0,0,1,3.264,1.082,4.08,4.08,0,0,1,1.151,3.123m-2.463.084a2.788,2.788,0,0,0-.478-1.79,1.761,1.761,0,0,0-1.45-.583h-.691v4.92h.529a1.916,1.916,0,0,0,1.586-.628,3.037,3.037,0,0,0,.5-1.919" transform="translate(1617.102 -1860)" fill="#fff"/>
      <path id="Caminho_8341" data-name="Caminho 8341" d="M211.494,401.016h-5.213v-8.781h5.213v1.9h-2.841v1.382h2.631v1.9h-2.631v1.658h2.841Z" transform="translate(1617.102 -1860)" fill="#fff"/>
      <path id="Caminho_8342" data-name="Caminho 8342" d="M218.774,398.349a2.587,2.587,0,0,1-.415,1.451,2.71,2.71,0,0,1-1.195.985,4.431,4.431,0,0,1-1.831.351,7.419,7.419,0,0,1-1.472-.123,5.406,5.406,0,0,1-1.237-.43V398.47a7.045,7.045,0,0,0,1.411.543,5.267,5.267,0,0,0,1.345.2,1.3,1.3,0,0,0,.775-.183.564.564,0,0,0,.246-.471.51.51,0,0,0-.1-.315,1.138,1.138,0,0,0-.318-.274q-.219-.138-1.168-.564a5.654,5.654,0,0,1-1.289-.757,2.316,2.316,0,0,1-.636-.841,2.793,2.793,0,0,1-.207-1.123,2.254,2.254,0,0,1,.882-1.893,3.9,3.9,0,0,1,2.427-.678,6.818,6.818,0,0,1,2.781.631l-.727,1.832a5.273,5.273,0,0,0-2.126-.565,1.11,1.11,0,0,0-.673.162.492.492,0,0,0-.21.4.584.584,0,0,0,.267.463,10.417,10.417,0,0,0,1.451.744,4.028,4.028,0,0,1,1.577,1.1,2.381,2.381,0,0,1,.441,1.474" transform="translate(1617.102 -1860)" fill="#fff"/>
      <path id="Caminho_8343" data-name="Caminho 8343" d="M227.236,394.055a1.513,1.513,0,0,0-1.321.693,3.348,3.348,0,0,0-.475,1.913q0,2.536,1.928,2.536a3.947,3.947,0,0,0,1.129-.163,11.214,11.214,0,0,0,1.1-.39v2.006a6.083,6.083,0,0,1-2.486.486,3.933,3.933,0,0,1-3.048-1.153A4.755,4.755,0,0,1,223,396.65a5.326,5.326,0,0,1,.513-2.4,3.686,3.686,0,0,1,1.478-1.589,4.463,4.463,0,0,1,2.267-.555,6.254,6.254,0,0,1,2.721.619l-.727,1.868a8.29,8.29,0,0,0-.973-.385,3.4,3.4,0,0,0-1.045-.156" transform="translate(1617.102 -1860)" fill="#fff"/>
      <path id="Caminho_8344" data-name="Caminho 8344" d="M239.526,396.614a4.727,4.727,0,0,1-1.088,3.369,4.94,4.94,0,0,1-6.351-.006,5.686,5.686,0,0,1-.006-6.723,4.969,4.969,0,0,1,6.364-.009,4.738,4.738,0,0,1,1.081,3.369m-6.043,0q0,2.547,1.772,2.547a1.521,1.521,0,0,0,1.336-.619,4.491,4.491,0,0,0-.005-3.871,1.507,1.507,0,0,0-1.319-.627q-1.783,0-1.784,2.57" transform="translate(1617.102 -1860)" fill="#fff"/>
      <path id="Caminho_8345" data-name="Caminho 8345" d="M244.937,401.016l-1.8-6.324h-.054q.126,1.616.126,2.511v3.813h-2.1v-8.781h3.159l1.831,6.235h.049l1.8-6.235h3.165v8.781h-2.181v-3.85q0-.3.009-.667c.007-.244.033-.842.082-1.795h-.055l-1.771,6.312Z" transform="translate(1617.102 -1860)" fill="#fff"/>
      <path id="Caminho_8346" data-name="Caminho 8346" d="M260.469,392.235v5.286a3.541,3.541,0,0,1-.977,2.67,3.88,3.88,0,0,1-2.813.945,3.84,3.84,0,0,1-2.76-.919,3.479,3.479,0,0,1-.964-2.642v-5.34h2.384v5.153a2.107,2.107,0,0,0,.349,1.352,1.5,1.5,0,0,0,2.081,0,2.232,2.232,0,0,0,.327-1.366v-5.142Z" transform="translate(1617.102 -1860)" fill="#fff"/>
      <path id="Caminho_8347" data-name="Caminho 8347" d="M270.673,401.016h-3.111l-3.207-6.187H264.3q.114,1.461.114,2.229v3.958h-2.1v-8.781h3.1l3.2,6.1h.035q-.084-1.326-.084-2.132v-3.97h2.114Z" transform="translate(1617.102 -1860)" fill="#fff"/>
      <path id="Caminho_8348" data-name="Caminho 8348" d="M278.314,398.349a2.6,2.6,0,0,1-.415,1.451,2.716,2.716,0,0,1-1.195.985,4.434,4.434,0,0,1-1.831.351,7.418,7.418,0,0,1-1.472-.123,5.389,5.389,0,0,1-1.237-.43V398.47a7.044,7.044,0,0,0,1.411.543,5.261,5.261,0,0,0,1.345.2,1.3,1.3,0,0,0,.775-.183.564.564,0,0,0,.246-.471.51.51,0,0,0-.1-.315,1.138,1.138,0,0,0-.318-.274q-.22-.138-1.168-.564a5.654,5.654,0,0,1-1.289-.757,2.331,2.331,0,0,1-.637-.841,2.811,2.811,0,0,1-.207-1.123,2.255,2.255,0,0,1,.883-1.893,3.9,3.9,0,0,1,2.427-.678,6.818,6.818,0,0,1,2.781.631l-.727,1.832a5.277,5.277,0,0,0-2.127-.565,1.109,1.109,0,0,0-.672.162.492.492,0,0,0-.21.4.583.583,0,0,0,.267.463,10.381,10.381,0,0,0,1.45.744,4.033,4.033,0,0,1,1.578,1.1,2.381,2.381,0,0,1,.441,1.474" transform="translate(1617.102 -1860)" fill="#fff"/>
      <path id="Caminho_8349" data-name="Caminho 8349" d="M290.32,396.44a4.534,4.534,0,0,1-1.21,3.387,4.647,4.647,0,0,1-3.4,1.189h-2.841v-8.781h3.039a4.575,4.575,0,0,1,3.263,1.082,4.08,4.08,0,0,1,1.151,3.123m-2.463.084a2.788,2.788,0,0,0-.478-1.79,1.761,1.761,0,0,0-1.45-.583h-.69v4.92h.528a1.916,1.916,0,0,0,1.586-.628,3.037,3.037,0,0,0,.5-1.919" transform="translate(1617.102 -1860)" fill="#fff"/>
      <path id="Caminho_8350" data-name="Caminho 8350" d="M300.109,396.614a4.731,4.731,0,0,1-1.086,3.369,4.94,4.94,0,0,1-6.351-.006,5.686,5.686,0,0,1-.006-6.723,4.968,4.968,0,0,1,6.363-.009,4.738,4.738,0,0,1,1.08,3.369m-6.041,0q0,2.547,1.771,2.547a1.518,1.518,0,0,0,1.336-.619,3.381,3.381,0,0,0,.436-1.928,3.415,3.415,0,0,0-.441-1.943,1.509,1.509,0,0,0-1.319-.627q-1.784,0-1.783,2.57" transform="translate(1617.102 -1860)" fill="#fff"/>
      <path id="Caminho_8351" data-name="Caminho 8351" d="M307.437,398.349a2.594,2.594,0,0,1-.414,1.451,2.716,2.716,0,0,1-1.2.985,4.435,4.435,0,0,1-1.832.351,7.408,7.408,0,0,1-1.471-.123,5.389,5.389,0,0,1-1.237-.43V398.47a7.044,7.044,0,0,0,1.411.543,5.255,5.255,0,0,0,1.345.2,1.3,1.3,0,0,0,.775-.183.564.564,0,0,0,.246-.471.516.516,0,0,0-.1-.315,1.153,1.153,0,0,0-.318-.274q-.221-.138-1.169-.564a5.643,5.643,0,0,1-1.288-.757,2.33,2.33,0,0,1-.637-.841,2.793,2.793,0,0,1-.207-1.123,2.252,2.252,0,0,1,.883-1.893,3.9,3.9,0,0,1,2.427-.678,6.809,6.809,0,0,1,2.78.631l-.727,1.832a5.269,5.269,0,0,0-2.126-.565,1.107,1.107,0,0,0-.672.162.492.492,0,0,0-.21.4.583.583,0,0,0,.267.463,10.381,10.381,0,0,0,1.45.744,4.021,4.021,0,0,1,1.577,1.1,2.375,2.375,0,0,1,.441,1.474" transform="translate(1617.102 -1860)" fill="#fff"/>
      <path id="Caminho_8352" data-name="Caminho 8352" d="M149.12,407v5.286a3.544,3.544,0,0,1-.976,2.67,3.883,3.883,0,0,1-2.814.945,3.84,3.84,0,0,1-2.76-.919,3.479,3.479,0,0,1-.964-2.642V407h2.385v5.153a2.113,2.113,0,0,0,.348,1.352,1.5,1.5,0,0,0,2.081,0,2.232,2.232,0,0,0,.327-1.366V407Z" transform="translate(1617.102 -1860)" fill="#fff"/>
      <path id="Caminho_8353" data-name="Caminho 8353" d="M156.706,413.11a2.587,2.587,0,0,1-.415,1.451,2.71,2.71,0,0,1-1.2.985,4.431,4.431,0,0,1-1.831.351,7.418,7.418,0,0,1-1.472-.123,5.4,5.4,0,0,1-1.237-.43v-2.113a7.041,7.041,0,0,0,1.411.543,5.267,5.267,0,0,0,1.345.2,1.3,1.3,0,0,0,.775-.183.564.564,0,0,0,.246-.471.51.51,0,0,0-.1-.315,1.137,1.137,0,0,0-.318-.274q-.219-.138-1.168-.564a5.654,5.654,0,0,1-1.289-.757,2.316,2.316,0,0,1-.636-.841,2.793,2.793,0,0,1-.207-1.123,2.254,2.254,0,0,1,.882-1.893,3.9,3.9,0,0,1,2.427-.678,6.817,6.817,0,0,1,2.781.631l-.727,1.832a5.272,5.272,0,0,0-2.126-.565,1.11,1.11,0,0,0-.673.162.492.492,0,0,0-.21.4.583.583,0,0,0,.267.463,10.419,10.419,0,0,0,1.451.744,4.028,4.028,0,0,1,1.577,1.1,2.381,2.381,0,0,1,.441,1.474" transform="translate(1617.102 -1860)" fill="#fff"/>
      <path id="Caminho_8354" data-name="Caminho 8354" d="M165.529,407v5.286a3.545,3.545,0,0,1-.977,2.67,3.883,3.883,0,0,1-2.814.945,3.836,3.836,0,0,1-2.759-.919,3.48,3.48,0,0,1-.965-2.642V407H160.4v5.153a2.12,2.12,0,0,0,.348,1.352,1.5,1.5,0,0,0,2.081,0,2.224,2.224,0,0,0,.328-1.366V407Z" transform="translate(1617.102 -1860)" fill="#fff"/>
      <path id="Caminho_8355" data-name="Caminho 8355" d="M172.76,415.777l-.432-1.646h-2.853l-.445,1.646h-2.607l2.865-8.817h3.166l2.9,8.817Zm-3.141-9.484v-.174q.924-.991,1.174-1.28c.166-.191.3-.364.411-.515h2.571v.126q-.48.384-1.321.978t-1.274.865Zm2.216,5.892-.378-1.441q-.134-.481-.322-1.244c-.126-.508-.209-.873-.249-1.092q-.054.306-.213,1.008t-.706,2.769Z" transform="translate(1617.102 -1860)" fill="#fff"/>
      <path id="Caminho_8356" data-name="Caminho 8356" d="M178.676,412.581v3.2H176.3v-8.782h2.877q3.579,0,3.579,2.6a2.589,2.589,0,0,1-1.489,2.36l2.558,3.827h-2.69l-1.862-3.2Zm0-1.783h.445q1.242,0,1.243-1.1,0-.906-1.219-.907h-.469Z" transform="translate(1617.102 -1860)" fill="#fff"/>
      <rect id="Retângulo_1900" data-name="Retângulo 1900" width="2.384" height="8.781" transform="translate(1801.731 -1453.004)" fill="#fff"/>
      <path id="Caminho_8357" data-name="Caminho 8357" d="M197.127,411.375a4.731,4.731,0,0,1-1.087,3.369,4.939,4.939,0,0,1-6.351-.006,5.686,5.686,0,0,1-.006-6.723,4.968,4.968,0,0,1,6.363-.009,4.738,4.738,0,0,1,1.081,3.369m-6.042,0q0,2.547,1.772,2.547a1.521,1.521,0,0,0,1.336-.619,4.491,4.491,0,0,0,0-3.871,1.508,1.508,0,0,0-1.319-.627q-1.784,0-1.784,2.57" transform="translate(1617.102 -1860)" fill="#fff"/>
      <path id="Caminho_8358" data-name="Caminho 8358" d="M204.455,413.11a2.587,2.587,0,0,1-.415,1.451,2.71,2.71,0,0,1-1.195.985,4.431,4.431,0,0,1-1.831.351,7.418,7.418,0,0,1-1.472-.123,5.4,5.4,0,0,1-1.237-.43v-2.113a7.041,7.041,0,0,0,1.411.543,5.267,5.267,0,0,0,1.345.2,1.3,1.3,0,0,0,.775-.183.564.564,0,0,0,.246-.471.51.51,0,0,0-.1-.315,1.137,1.137,0,0,0-.318-.274q-.219-.138-1.168-.564a5.654,5.654,0,0,1-1.289-.757,2.316,2.316,0,0,1-.636-.841,2.793,2.793,0,0,1-.207-1.123,2.254,2.254,0,0,1,.882-1.893,3.9,3.9,0,0,1,2.427-.678,6.817,6.817,0,0,1,2.781.631l-.727,1.832a5.272,5.272,0,0,0-2.126-.565,1.11,1.11,0,0,0-.673.162.492.492,0,0,0-.21.4.583.583,0,0,0,.267.463,10.42,10.42,0,0,0,1.451.744,4.029,4.029,0,0,1,1.577,1.1,2.381,2.381,0,0,1,.441,1.474" transform="translate(1617.102 -1860)" fill="#fff"/>
      <path id="Caminho_8359" data-name="Caminho 8359" d="M217.368,415.777h-3.111l-3.207-6.187h-.055q.116,1.461.115,2.229v3.958h-2.1V407h3.1l3.2,6.1h.036q-.084-1.326-.084-2.132V407h2.114Z" transform="translate(1617.102 -1860)" fill="#fff"/>
      <path id="Caminho_8360" data-name="Caminho 8360" d="M224.654,415.777l-.432-1.646h-2.853l-.445,1.646h-2.607l2.865-8.817h3.166l2.9,8.817Zm-.925-3.592-.378-1.441q-.134-.481-.322-1.244c-.126-.508-.209-.873-.249-1.092q-.054.306-.213,1.008t-.706,2.769Z" transform="translate(1617.102 -1860)" fill="#fff"/>
      <path id="Caminho_8361" data-name="Caminho 8361" d="M238.847,411.2a4.534,4.534,0,0,1-1.211,3.387,4.646,4.646,0,0,1-3.4,1.189h-2.841V407h3.039a4.578,4.578,0,0,1,3.264,1.082,4.08,4.08,0,0,1,1.151,3.123m-2.463.084a2.788,2.788,0,0,0-.478-1.79,1.762,1.762,0,0,0-1.45-.583h-.691v4.92h.529a1.913,1.913,0,0,0,1.585-.628,3.031,3.031,0,0,0,.505-1.919" transform="translate(1617.102 -1860)" fill="#fff"/>
      <path id="Caminho_8362" data-name="Caminho 8362" d="M245.634,415.777H240.42V407h5.214v1.9h-2.842v1.382h2.631v1.9h-2.631v1.658h2.842Z" transform="translate(1617.102 -1860)" fill="#fff"/>
      <path id="Caminho_8363" data-name="Caminho 8363" d="M251,415.777l-1.8-6.324h-.055q.128,1.615.127,2.511v3.813h-2.1V407h3.159l1.832,6.235h.048l1.8-6.235h3.165v8.781h-2.18v-3.85q0-.3.009-.667t.081-1.8h-.054l-1.772,6.312Z" transform="translate(1617.102 -1860)" fill="#fff"/>
      <path id="Caminho_8364" data-name="Caminho 8364" d="M264.451,415.777l-.432-1.646h-2.853l-.445,1.646h-2.606l2.864-8.817h3.166l2.9,8.817Zm-.925-3.592-.378-1.441c-.089-.321-.2-.735-.321-1.244s-.21-.873-.25-1.092c-.035.2-.107.54-.213,1.008s-.341,1.392-.706,2.769Z" transform="translate(1617.102 -1860)" fill="#fff"/>
      <path id="Caminho_8365" data-name="Caminho 8365" d="M276.355,415.777h-3.111l-3.207-6.187h-.054q.114,1.461.114,2.229v3.958h-2.1V407h3.1l3.2,6.1h.035q-.084-1.326-.084-2.132V407h2.114Z" transform="translate(1617.102 -1860)" fill="#fff"/>
      <path id="Caminho_8366" data-name="Caminho 8366" d="M285.707,411.2a4.534,4.534,0,0,1-1.211,3.387,4.646,4.646,0,0,1-3.4,1.189h-2.841V407h3.039a4.578,4.578,0,0,1,3.264,1.082,4.08,4.08,0,0,1,1.151,3.123m-2.463.084a2.788,2.788,0,0,0-.478-1.79,1.762,1.762,0,0,0-1.45-.583h-.691v4.92h.529a1.913,1.913,0,0,0,1.585-.628,3.031,3.031,0,0,0,.5-1.919" transform="translate(1617.102 -1860)" fill="#fff"/>
      <path id="Caminho_8367" data-name="Caminho 8367" d="M292.668,415.777l-.433-1.646h-2.852l-.446,1.646h-2.606l2.865-8.817h3.165l2.9,8.817Zm-.925-3.592-.379-1.441q-.132-.481-.321-1.244c-.126-.508-.209-.873-.249-1.092-.036.2-.108.54-.213,1.008s-.342,1.392-.706,2.769Z" transform="translate(1617.102 -1860)" fill="#fff"/>
      <path id="Caminho_8368" data-name="Caminho 8368" d="M182.236,430.538h-5.213v-8.781h5.213v1.9h-2.841v1.382h2.631v1.9h-2.631V428.6h2.841Z" transform="translate(1617.102 -1860)" fill="#fff"/>
      <path id="Caminho_8369" data-name="Caminho 8369" d="M189.515,427.871a2.587,2.587,0,0,1-.415,1.451,2.71,2.71,0,0,1-1.2.985,4.431,4.431,0,0,1-1.831.351,7.418,7.418,0,0,1-1.472-.123,5.405,5.405,0,0,1-1.237-.43v-2.113a7.044,7.044,0,0,0,1.411.543,5.267,5.267,0,0,0,1.345.2,1.3,1.3,0,0,0,.775-.183.564.564,0,0,0,.246-.471.51.51,0,0,0-.1-.315,1.138,1.138,0,0,0-.318-.274q-.219-.138-1.168-.564a5.653,5.653,0,0,1-1.289-.757,2.316,2.316,0,0,1-.636-.841,2.793,2.793,0,0,1-.207-1.123,2.254,2.254,0,0,1,.882-1.893,3.9,3.9,0,0,1,2.427-.678,6.817,6.817,0,0,1,2.781.631l-.727,1.832a5.272,5.272,0,0,0-2.126-.565,1.11,1.11,0,0,0-.673.162.492.492,0,0,0-.21.4.583.583,0,0,0,.267.463,10.419,10.419,0,0,0,1.451.744,4.028,4.028,0,0,1,1.577,1.1,2.381,2.381,0,0,1,.441,1.474" transform="translate(1617.102 -1860)" fill="#fff"/>
      <path id="Caminho_8370" data-name="Caminho 8370" d="M197.244,424.549a2.939,2.939,0,0,1-.868,2.274,3.5,3.5,0,0,1-2.465.8h-.667v2.913h-2.372v-8.782h3.039a3.72,3.72,0,0,1,2.5.728,2.592,2.592,0,0,1,.834,2.065m-4,1.142h.433a1.181,1.181,0,0,0,.849-.3,1.084,1.084,0,0,0,.316-.828q0-.89-.985-.89h-.613Z" transform="translate(1617.102 -1860)" fill="#fff"/>
      <path id="Caminho_8371" data-name="Caminho 8371" d="M206.86,426.135a4.731,4.731,0,0,1-1.087,3.369,4.939,4.939,0,0,1-6.351-.006,5.686,5.686,0,0,1-.006-6.723,4.968,4.968,0,0,1,6.363-.009,4.738,4.738,0,0,1,1.081,3.369m-6.042,0q0,2.547,1.772,2.547a1.521,1.521,0,0,0,1.336-.619,4.491,4.491,0,0,0,0-3.871,1.508,1.508,0,0,0-1.319-.627q-1.784,0-1.784,2.57" transform="translate(1617.102 -1860)" fill="#fff"/>
      <path id="Caminho_8372" data-name="Caminho 8372" d="M216.807,430.538H213.7l-3.207-6.187h-.055q.115,1.461.115,2.229v3.958h-2.1v-8.781h3.1l3.195,6.1h.036q-.084-1.326-.084-2.132v-3.97h2.114Z" transform="translate(1617.102 -1860)" fill="#fff"/>
      <path id="Caminho_8373" data-name="Caminho 8373" d="M222.579,430.538h-2.372V423.7h-2.145v-1.94h6.655v1.94h-2.138Z" transform="translate(1617.102 -1860)" fill="#fff"/>
      <path id="Caminho_8374" data-name="Caminho 8374" d="M231.36,430.538l-.432-1.646h-2.853l-.445,1.646h-2.607l2.865-8.817h3.166l2.9,8.817Zm-.643-9.484a7.874,7.874,0,0,1-1.207-.9,10.576,10.576,0,0,1-1.165.9h-1.55v-.174a11.819,11.819,0,0,0,.868-.919,9.188,9.188,0,0,0,.682-.876h2.36a13.166,13.166,0,0,0,1.538,1.8v.174Zm-.282,5.892-.378-1.441q-.134-.482-.322-1.244c-.126-.508-.209-.873-.249-1.092q-.054.306-.213,1.008t-.706,2.769Z" transform="translate(1617.102 -1860)" fill="#fff"/>
      <path id="Caminho_8375" data-name="Caminho 8375" d="M243.265,430.538h-3.111l-3.207-6.187h-.055q.114,1.461.114,2.229v3.958h-2.1v-8.781H238l3.2,6.1h.036q-.086-1.326-.084-2.132v-3.97h2.114Z" transform="translate(1617.102 -1860)" fill="#fff"/>
      <path id="Caminho_8376" data-name="Caminho 8376" d="M250.376,430.538h-5.213v-8.781h5.213v1.9h-2.841v1.382h2.631v1.9h-2.631V428.6h2.841Z" transform="translate(1617.102 -1860)" fill="#fff"/>
      <path id="Caminho_8377" data-name="Caminho 8377" d="M257.3,430.538l-.432-1.646h-2.853l-.445,1.646h-2.606l2.864-8.817h3.166l2.9,8.817Zm-.925-3.592L256,425.505c-.089-.321-.2-.735-.321-1.244s-.21-.873-.25-1.092c-.035.2-.107.54-.213,1.008s-.341,1.392-.706,2.769Z" transform="translate(1617.102 -1860)" fill="#fff"/>
    </g>
  </g>
</svg>
