<svg xmlns="http://www.w3.org/2000/svg" xmlns:xlink="http://www.w3.org/1999/xlink" width="225" height="98.235" viewBox="0 0 225 98.235">
  <defs>
    <clipPath id="clip-path">
      <rect id="Retângulo_1888" data-name="Retângulo 1888" width="182.306" height="75.283" transform="translate(104.972 112.681)" fill="none"/>
    </clipPath>
    <clipPath id="clip-path-2">
      <rect id="Retângulo_1889" data-name="Retângulo 1889" width="76.879" height="53.881" transform="translate(253.093 116.204)" fill="none"/>
    </clipPath>
  </defs>
  <g id="Grupo_3031" data-name="Grupo 3031" transform="translate(-1356.074 1624.856)">
    <g id="Grupo_3030" data-name="Grupo 3030">
      <g id="Grupo_3029" data-name="Grupo 3029">
        <path id="Caminho_8208" data-name="Caminho 8208" d="M311.476,210.916H123.468a18.5,18.5,0,0,1-18.5-18.5V131.178a18.5,18.5,0,0,1,18.5-18.5H311.476a18.5,18.5,0,0,1,18.5,18.5V192.42a18.5,18.5,0,0,1-18.5,18.5" transform="translate(1251.102 -1737.537)" fill="#912baa"/>
        <path id="Caminho_8209" data-name="Caminho 8209" d="M311.008,207.841H123.935a15.906,15.906,0,0,1-15.888-15.888V131.645a15.906,15.906,0,0,1,15.888-15.888H311.008A15.906,15.906,0,0,1,326.9,131.645v60.308a15.906,15.906,0,0,1-15.888,15.888m-187.073-91.4a15.222,15.222,0,0,0-15.2,15.205v60.308a15.223,15.223,0,0,0,15.2,15.205H311.008a15.223,15.223,0,0,0,15.205-15.205V131.645a15.222,15.222,0,0,0-15.205-15.205Z" transform="translate(1251.102 -1737.537)" fill="#fff"/>
        <g id="Grupo_3013" data-name="Grupo 3013" transform="translate(1251.102 -1737.537)" opacity="0.1">
          <g id="Grupo_3012" data-name="Grupo 3012">
            <g id="Grupo_3011" data-name="Grupo 3011" clip-path="url(#clip-path)">
              <path id="Caminho_8210" data-name="Caminho 8210" d="M123.935,112.681a18.964,18.964,0,0,0-18.964,18.964v56.318c37.573-8.311,125.744-31.422,182.307-75.282Z" fill="#fff"/>
            </g>
          </g>
        </g>
        <g id="Grupo_3016" data-name="Grupo 3016" transform="translate(1251.102 -1737.537)" opacity="0.05">
          <g id="Grupo_3015" data-name="Grupo 3015">
            <g id="Grupo_3014" data-name="Grupo 3014" clip-path="url(#clip-path-2)">
              <path id="Caminho_8211" data-name="Caminho 8211" d="M329.972,131.645A18.933,18.933,0,0,0,322.01,116.2c-28.1,36.782-68.917,53.881-68.917,53.881,40.755-11.291,64.045-23.467,76.879-32.319Z" fill="#fff"/>
            </g>
          </g>
        </g>
        <path id="Caminho_8212" data-name="Caminho 8212" d="M137.432,150.516h-3.111l-3.207-6.187h-.055q.115,1.461.115,2.229v3.958h-2.1v-8.781h3.1l3.195,6.1h.036q-.084-1.326-.084-2.132v-3.97h2.114Z" transform="translate(1251.102 -1737.537)" fill="#fff"/>
        <path id="Caminho_8213" data-name="Caminho 8213" d="M144.544,150.516h-5.213v-8.781h5.213v1.9H141.7v1.381h2.631v1.9H141.7v1.658h2.841Z" transform="translate(1251.102 -1737.537)" fill="#fff"/>
        <path id="Caminho_8214" data-name="Caminho 8214" d="M149.991,143.555a1.513,1.513,0,0,0-1.321.693,3.346,3.346,0,0,0-.475,1.913q0,2.535,1.928,2.535a3.946,3.946,0,0,0,1.129-.162,10.964,10.964,0,0,0,1.1-.391v2.007a6.083,6.083,0,0,1-2.486.486,3.933,3.933,0,0,1-3.048-1.153,4.756,4.756,0,0,1-1.06-3.334,5.324,5.324,0,0,1,.513-2.4,3.68,3.68,0,0,1,1.478-1.589,4.462,4.462,0,0,1,2.267-.555,6.252,6.252,0,0,1,2.721.618l-.727,1.869a7.955,7.955,0,0,0-.973-.385,3.4,3.4,0,0,0-1.045-.156" transform="translate(1251.102 -1737.537)" fill="#fff"/>
        <path id="Caminho_8215" data-name="Caminho 8215" d="M159.277,150.516h-5.213v-8.781h5.213v1.9h-2.841v1.381h2.631v1.9h-2.631v1.658h2.841Z" transform="translate(1251.102 -1737.537)" fill="#fff"/>
        <path id="Caminho_8216" data-name="Caminho 8216" d="M166.556,147.849a2.587,2.587,0,0,1-.415,1.451,2.71,2.71,0,0,1-1.2.985,4.431,4.431,0,0,1-1.831.351,7.418,7.418,0,0,1-1.472-.123,5.4,5.4,0,0,1-1.237-.43V147.97a7.044,7.044,0,0,0,1.411.543,5.267,5.267,0,0,0,1.345.195,1.307,1.307,0,0,0,.775-.183.564.564,0,0,0,.246-.471.513.513,0,0,0-.1-.316,1.153,1.153,0,0,0-.318-.273q-.219-.138-1.168-.565a5.58,5.58,0,0,1-1.289-.757,2.321,2.321,0,0,1-.636-.84,2.8,2.8,0,0,1-.207-1.123,2.253,2.253,0,0,1,.882-1.893,3.9,3.9,0,0,1,2.427-.678,6.8,6.8,0,0,1,2.781.631l-.727,1.831a5.269,5.269,0,0,0-2.126-.564,1.11,1.11,0,0,0-.673.162.49.49,0,0,0-.21.4.581.581,0,0,0,.267.463,10.262,10.262,0,0,0,1.451.745,4.008,4.008,0,0,1,1.577,1.1,2.381,2.381,0,0,1,.441,1.474" transform="translate(1251.102 -1737.537)" fill="#fff"/>
        <path id="Caminho_8217" data-name="Caminho 8217" d="M173.656,147.849a2.58,2.58,0,0,1-.416,1.451,2.713,2.713,0,0,1-1.194.985,4.439,4.439,0,0,1-1.832.351,7.425,7.425,0,0,1-1.472-.123,5.421,5.421,0,0,1-1.237-.43V147.97a7.044,7.044,0,0,0,1.411.543,5.279,5.279,0,0,0,1.345.195,1.3,1.3,0,0,0,.775-.183.562.562,0,0,0,.247-.471.519.519,0,0,0-.1-.316,1.174,1.174,0,0,0-.319-.273q-.219-.138-1.168-.565a5.581,5.581,0,0,1-1.289-.757,2.321,2.321,0,0,1-.636-.84,2.8,2.8,0,0,1-.207-1.123,2.253,2.253,0,0,1,.882-1.893,3.9,3.9,0,0,1,2.427-.678,6.809,6.809,0,0,1,2.782.631l-.728,1.831a5.269,5.269,0,0,0-2.126-.564,1.107,1.107,0,0,0-.672.162.491.491,0,0,0-.211.4.581.581,0,0,0,.267.463,10.326,10.326,0,0,0,1.451.745,4,4,0,0,1,1.577,1.1,2.382,2.382,0,0,1,.442,1.474" transform="translate(1251.102 -1737.537)" fill="#fff"/>
        <rect id="Retângulo_1890" data-name="Retângulo 1890" width="2.384" height="8.781" transform="translate(1426.115 -1595.802)" fill="#fff"/>
        <path id="Caminho_8218" data-name="Caminho 8218" d="M186.749,145.94a4.534,4.534,0,0,1-1.211,3.387,4.644,4.644,0,0,1-3.4,1.19h-2.841v-8.782h3.039a4.581,4.581,0,0,1,3.264,1.082,4.08,4.08,0,0,1,1.151,3.123m-2.463.084a2.788,2.788,0,0,0-.478-1.79,1.764,1.764,0,0,0-1.45-.583h-.691v4.92h.529a1.916,1.916,0,0,0,1.586-.628,3.035,3.035,0,0,0,.5-1.919" transform="translate(1251.102 -1737.537)" fill="#fff"/>
        <path id="Caminho_8219" data-name="Caminho 8219" d="M193.71,150.517l-.432-1.646h-2.853l-.445,1.646h-2.607l2.865-8.817H193.4l2.9,8.817Zm-.925-3.593-.378-1.44q-.134-.481-.322-1.244t-.249-1.093q-.054.306-.213,1.009t-.706,2.768Z" transform="translate(1251.102 -1737.537)" fill="#fff"/>
        <path id="Caminho_8220" data-name="Caminho 8220" d="M204.707,145.94a4.534,4.534,0,0,1-1.211,3.387,4.644,4.644,0,0,1-3.4,1.19h-2.841v-8.782h3.039a4.581,4.581,0,0,1,3.264,1.082,4.08,4.08,0,0,1,1.151,3.123m-2.463.084a2.788,2.788,0,0,0-.478-1.79,1.764,1.764,0,0,0-1.45-.583h-.691v4.92h.529a1.916,1.916,0,0,0,1.586-.628,3.035,3.035,0,0,0,.5-1.919" transform="translate(1251.102 -1737.537)" fill="#fff"/>
        <path id="Caminho_8221" data-name="Caminho 8221" d="M211.494,150.516h-5.213v-8.781h5.213v1.9h-2.841v1.381h2.631v1.9h-2.631v1.658h2.841Z" transform="translate(1251.102 -1737.537)" fill="#fff"/>
        <path id="Caminho_8222" data-name="Caminho 8222" d="M218.774,147.849a2.587,2.587,0,0,1-.415,1.451,2.71,2.71,0,0,1-1.195.985,4.431,4.431,0,0,1-1.831.351,7.418,7.418,0,0,1-1.472-.123,5.4,5.4,0,0,1-1.237-.43V147.97a7.045,7.045,0,0,0,1.411.543,5.267,5.267,0,0,0,1.345.195,1.307,1.307,0,0,0,.775-.183.564.564,0,0,0,.246-.471.513.513,0,0,0-.1-.316,1.153,1.153,0,0,0-.318-.273q-.219-.138-1.168-.565a5.581,5.581,0,0,1-1.289-.757,2.321,2.321,0,0,1-.636-.84,2.8,2.8,0,0,1-.207-1.123,2.253,2.253,0,0,1,.882-1.893,3.9,3.9,0,0,1,2.427-.678,6.8,6.8,0,0,1,2.781.631l-.727,1.831a5.269,5.269,0,0,0-2.126-.564,1.11,1.11,0,0,0-.673.162.49.49,0,0,0-.21.4.581.581,0,0,0,.267.463,10.263,10.263,0,0,0,1.451.745,4.008,4.008,0,0,1,1.577,1.1,2.381,2.381,0,0,1,.441,1.474" transform="translate(1251.102 -1737.537)" fill="#fff"/>
        <path id="Caminho_8223" data-name="Caminho 8223" d="M227.236,143.555a1.513,1.513,0,0,0-1.321.693,3.346,3.346,0,0,0-.475,1.913q0,2.535,1.928,2.535a3.946,3.946,0,0,0,1.129-.162,10.964,10.964,0,0,0,1.1-.391v2.007a6.083,6.083,0,0,1-2.486.486,3.933,3.933,0,0,1-3.048-1.153,4.756,4.756,0,0,1-1.06-3.334,5.324,5.324,0,0,1,.513-2.4,3.68,3.68,0,0,1,1.478-1.589,4.463,4.463,0,0,1,2.267-.555,6.253,6.253,0,0,1,2.721.618l-.727,1.869a7.955,7.955,0,0,0-.973-.385,3.4,3.4,0,0,0-1.045-.156" transform="translate(1251.102 -1737.537)" fill="#fff"/>
        <path id="Caminho_8224" data-name="Caminho 8224" d="M239.526,146.114a4.727,4.727,0,0,1-1.088,3.369,4.939,4.939,0,0,1-6.351-.006,5.688,5.688,0,0,1-.006-6.724,4.972,4.972,0,0,1,6.364-.009,4.741,4.741,0,0,1,1.081,3.37m-6.043,0q0,2.547,1.772,2.546a1.522,1.522,0,0,0,1.336-.618,4.491,4.491,0,0,0-.005-3.871,1.508,1.508,0,0,0-1.319-.628q-1.783,0-1.784,2.571" transform="translate(1251.102 -1737.537)" fill="#fff"/>
        <path id="Caminho_8225" data-name="Caminho 8225" d="M244.937,150.516l-1.8-6.325h-.054q.126,1.616.126,2.511v3.814h-2.1v-8.781h3.159l1.831,6.235h.049l1.8-6.235h3.165v8.781h-2.181v-3.85q0-.3.009-.667c.007-.244.033-.842.082-1.795h-.055l-1.771,6.312Z" transform="translate(1251.102 -1737.537)" fill="#fff"/>
        <path id="Caminho_8226" data-name="Caminho 8226" d="M260.469,141.735v5.286a3.543,3.543,0,0,1-.977,2.67,4.632,4.632,0,0,1-5.573.026,3.479,3.479,0,0,1-.964-2.642v-5.34h2.384v5.153a2.107,2.107,0,0,0,.349,1.352,1.5,1.5,0,0,0,2.081,0,2.232,2.232,0,0,0,.327-1.366v-5.142Z" transform="translate(1251.102 -1737.537)" fill="#fff"/>
        <path id="Caminho_8227" data-name="Caminho 8227" d="M270.673,150.516h-3.111l-3.207-6.187H264.3q.114,1.461.114,2.229v3.958h-2.1v-8.781h3.1l3.2,6.1h.035q-.084-1.326-.084-2.132v-3.97h2.114Z" transform="translate(1251.102 -1737.537)" fill="#fff"/>
        <path id="Caminho_8228" data-name="Caminho 8228" d="M278.314,147.849a2.6,2.6,0,0,1-.415,1.451,2.716,2.716,0,0,1-1.195.985,4.434,4.434,0,0,1-1.831.351,7.418,7.418,0,0,1-1.472-.123,5.388,5.388,0,0,1-1.237-.43V147.97a7.044,7.044,0,0,0,1.411.543,5.261,5.261,0,0,0,1.345.195,1.307,1.307,0,0,0,.775-.183.564.564,0,0,0,.246-.471.513.513,0,0,0-.1-.316,1.153,1.153,0,0,0-.318-.273q-.22-.138-1.168-.565a5.581,5.581,0,0,1-1.289-.757,2.335,2.335,0,0,1-.637-.84,2.814,2.814,0,0,1-.207-1.123,2.254,2.254,0,0,1,.883-1.893,3.9,3.9,0,0,1,2.427-.678,6.8,6.8,0,0,1,2.781.631l-.727,1.831a5.273,5.273,0,0,0-2.127-.564,1.109,1.109,0,0,0-.672.162.49.49,0,0,0-.21.4.581.581,0,0,0,.267.463,10.228,10.228,0,0,0,1.45.745,4.012,4.012,0,0,1,1.578,1.1,2.381,2.381,0,0,1,.441,1.474" transform="translate(1251.102 -1737.537)" fill="#fff"/>
        <path id="Caminho_8229" data-name="Caminho 8229" d="M290.32,145.94a4.534,4.534,0,0,1-1.21,3.387,4.648,4.648,0,0,1-3.4,1.19h-2.841v-8.782h3.039a4.58,4.58,0,0,1,3.263,1.082,4.08,4.08,0,0,1,1.151,3.123m-2.463.084a2.788,2.788,0,0,0-.478-1.79,1.764,1.764,0,0,0-1.45-.583h-.69v4.92h.528a1.916,1.916,0,0,0,1.586-.628,3.035,3.035,0,0,0,.5-1.919" transform="translate(1251.102 -1737.537)" fill="#fff"/>
        <path id="Caminho_8230" data-name="Caminho 8230" d="M300.109,146.114a4.731,4.731,0,0,1-1.086,3.369,4.939,4.939,0,0,1-6.351-.006,5.688,5.688,0,0,1-.006-6.724,4.971,4.971,0,0,1,6.363-.009,4.741,4.741,0,0,1,1.08,3.37m-6.041,0q0,2.547,1.771,2.546a1.52,1.52,0,0,0,1.336-.618,4.491,4.491,0,0,0,0-3.871,1.51,1.51,0,0,0-1.319-.628q-1.784,0-1.783,2.571" transform="translate(1251.102 -1737.537)" fill="#fff"/>
        <path id="Caminho_8231" data-name="Caminho 8231" d="M307.437,147.849a2.594,2.594,0,0,1-.414,1.451,2.716,2.716,0,0,1-1.2.985,4.436,4.436,0,0,1-1.832.351,7.408,7.408,0,0,1-1.471-.123,5.388,5.388,0,0,1-1.237-.43V147.97a7.044,7.044,0,0,0,1.411.543,5.255,5.255,0,0,0,1.345.195,1.309,1.309,0,0,0,.775-.183.564.564,0,0,0,.246-.471.519.519,0,0,0-.1-.316,1.168,1.168,0,0,0-.318-.273q-.221-.138-1.169-.565a5.571,5.571,0,0,1-1.288-.757,2.335,2.335,0,0,1-.637-.84,2.8,2.8,0,0,1-.207-1.123,2.251,2.251,0,0,1,.883-1.893,3.9,3.9,0,0,1,2.427-.678,6.793,6.793,0,0,1,2.78.631l-.727,1.831a5.265,5.265,0,0,0-2.126-.564,1.107,1.107,0,0,0-.672.162.49.49,0,0,0-.21.4.581.581,0,0,0,.267.463,10.228,10.228,0,0,0,1.45.745,4,4,0,0,1,1.577,1.1,2.375,2.375,0,0,1,.441,1.474" transform="translate(1251.102 -1737.537)" fill="#fff"/>
        <path id="Caminho_8232" data-name="Caminho 8232" d="M149.12,156.5v5.286a3.546,3.546,0,0,1-.976,2.67,4.633,4.633,0,0,1-5.574.026,3.479,3.479,0,0,1-.964-2.642V156.5h2.385v5.153a2.113,2.113,0,0,0,.348,1.352,1.5,1.5,0,0,0,2.081,0,2.232,2.232,0,0,0,.327-1.366V156.5Z" transform="translate(1251.102 -1737.537)" fill="#fff"/>
        <path id="Caminho_8233" data-name="Caminho 8233" d="M156.706,162.61a2.587,2.587,0,0,1-.415,1.451,2.71,2.71,0,0,1-1.2.985,4.431,4.431,0,0,1-1.831.351,7.418,7.418,0,0,1-1.472-.123,5.4,5.4,0,0,1-1.237-.43v-2.113a7.044,7.044,0,0,0,1.411.543,5.267,5.267,0,0,0,1.345.195,1.307,1.307,0,0,0,.775-.183.564.564,0,0,0,.246-.471.513.513,0,0,0-.1-.316,1.153,1.153,0,0,0-.318-.273q-.219-.138-1.168-.565a5.581,5.581,0,0,1-1.289-.757,2.321,2.321,0,0,1-.636-.84,2.8,2.8,0,0,1-.207-1.123,2.253,2.253,0,0,1,.882-1.893,3.9,3.9,0,0,1,2.427-.678,6.8,6.8,0,0,1,2.781.631l-.727,1.831a5.269,5.269,0,0,0-2.126-.564,1.11,1.11,0,0,0-.673.162.49.49,0,0,0-.21.4.581.581,0,0,0,.267.463,10.261,10.261,0,0,0,1.451.745,4.008,4.008,0,0,1,1.577,1.1,2.381,2.381,0,0,1,.441,1.474" transform="translate(1251.102 -1737.537)" fill="#fff"/>
        <path id="Caminho_8234" data-name="Caminho 8234" d="M165.529,156.5v5.286a3.546,3.546,0,0,1-.977,2.67,3.883,3.883,0,0,1-2.814.945,3.84,3.84,0,0,1-2.759-.919,3.48,3.48,0,0,1-.965-2.642V156.5H160.4v5.153a2.12,2.12,0,0,0,.348,1.352,1.5,1.5,0,0,0,2.081,0,2.224,2.224,0,0,0,.328-1.366V156.5Z" transform="translate(1251.102 -1737.537)" fill="#fff"/>
        <path id="Caminho_8235" data-name="Caminho 8235" d="M172.76,165.277l-.432-1.646h-2.853l-.445,1.646h-2.607l2.865-8.817h3.166l2.9,8.817Zm-3.141-9.484v-.174q.924-.992,1.174-1.28t.411-.516h2.571v.126q-.48.385-1.321.979t-1.274.865Zm2.216,5.892-.378-1.441q-.134-.481-.322-1.244t-.249-1.093q-.054.306-.213,1.009t-.706,2.769Z" transform="translate(1251.102 -1737.537)" fill="#fff"/>
        <path id="Caminho_8236" data-name="Caminho 8236" d="M178.676,162.082v3.195H176.3V156.5h2.877q3.579,0,3.579,2.594a2.592,2.592,0,0,1-1.489,2.361l2.558,3.826h-2.69l-1.862-3.195Zm0-1.784h.445q1.242,0,1.243-1.1,0-.908-1.219-.907h-.469Z" transform="translate(1251.102 -1737.537)" fill="#fff"/>
        <rect id="Retângulo_1891" data-name="Retângulo 1891" width="2.384" height="8.781" transform="translate(1435.731 -1581.041)" fill="#fff"/>
        <path id="Caminho_8237" data-name="Caminho 8237" d="M197.127,160.875a4.731,4.731,0,0,1-1.087,3.369,4.939,4.939,0,0,1-6.351-.006,5.688,5.688,0,0,1-.006-6.724,4.971,4.971,0,0,1,6.363-.009,4.741,4.741,0,0,1,1.081,3.37m-6.042,0q0,2.547,1.772,2.546a1.522,1.522,0,0,0,1.336-.618,4.491,4.491,0,0,0,0-3.871,1.509,1.509,0,0,0-1.319-.628q-1.784,0-1.784,2.571" transform="translate(1251.102 -1737.537)" fill="#fff"/>
        <path id="Caminho_8238" data-name="Caminho 8238" d="M204.455,162.61a2.587,2.587,0,0,1-.415,1.451,2.71,2.71,0,0,1-1.195.985,4.431,4.431,0,0,1-1.831.351,7.418,7.418,0,0,1-1.472-.123,5.4,5.4,0,0,1-1.237-.43v-2.113a7.045,7.045,0,0,0,1.411.543,5.267,5.267,0,0,0,1.345.195,1.307,1.307,0,0,0,.775-.183.564.564,0,0,0,.246-.471.513.513,0,0,0-.1-.316,1.153,1.153,0,0,0-.318-.273q-.219-.138-1.168-.565a5.581,5.581,0,0,1-1.289-.757,2.321,2.321,0,0,1-.636-.84,2.8,2.8,0,0,1-.207-1.123,2.253,2.253,0,0,1,.882-1.893,3.9,3.9,0,0,1,2.427-.678,6.8,6.8,0,0,1,2.781.631l-.727,1.831a5.269,5.269,0,0,0-2.126-.564,1.11,1.11,0,0,0-.673.162.49.49,0,0,0-.21.4.581.581,0,0,0,.267.463,10.262,10.262,0,0,0,1.451.745,4.008,4.008,0,0,1,1.577,1.1,2.381,2.381,0,0,1,.441,1.474" transform="translate(1251.102 -1737.537)" fill="#fff"/>
        <path id="Caminho_8239" data-name="Caminho 8239" d="M217.368,165.277h-3.111l-3.207-6.187h-.055q.116,1.461.115,2.229v3.958h-2.1V156.5h3.1l3.2,6.1h.036q-.084-1.326-.084-2.132V156.5h2.114Z" transform="translate(1251.102 -1737.537)" fill="#fff"/>
        <path id="Caminho_8240" data-name="Caminho 8240" d="M224.654,165.277l-.432-1.646h-2.853l-.445,1.646h-2.607l2.865-8.817h3.166l2.9,8.817Zm-.925-3.592-.378-1.441q-.134-.481-.322-1.244t-.249-1.093q-.054.306-.213,1.009t-.706,2.769Z" transform="translate(1251.102 -1737.537)" fill="#fff"/>
        <path id="Caminho_8241" data-name="Caminho 8241" d="M238.847,160.7a4.534,4.534,0,0,1-1.211,3.387,4.646,4.646,0,0,1-3.4,1.19h-2.841v-8.782h3.039a4.583,4.583,0,0,1,3.264,1.082,4.08,4.08,0,0,1,1.151,3.123m-2.463.084a2.788,2.788,0,0,0-.478-1.79,1.765,1.765,0,0,0-1.45-.583h-.691v4.92h.529a1.913,1.913,0,0,0,1.585-.628,3.029,3.029,0,0,0,.505-1.919" transform="translate(1251.102 -1737.537)" fill="#fff"/>
        <path id="Caminho_8242" data-name="Caminho 8242" d="M245.634,165.277H240.42V156.5h5.214v1.9h-2.842v1.381h2.631v1.9h-2.631v1.658h2.842Z" transform="translate(1251.102 -1737.537)" fill="#fff"/>
        <path id="Caminho_8243" data-name="Caminho 8243" d="M251,165.277l-1.8-6.325h-.055q.128,1.616.127,2.511v3.814h-2.1V156.5h3.159l1.832,6.235h.048l1.8-6.235h3.165v8.781h-2.18v-3.85q0-.3.009-.667t.081-1.795h-.054l-1.772,6.312Z" transform="translate(1251.102 -1737.537)" fill="#fff"/>
        <path id="Caminho_8244" data-name="Caminho 8244" d="M264.451,165.277l-.432-1.646h-2.853l-.445,1.646h-2.606l2.864-8.817h3.166l2.9,8.817Zm-.925-3.592-.378-1.441c-.089-.321-.2-.735-.321-1.244s-.21-.873-.25-1.093c-.035.2-.107.541-.213,1.009s-.341,1.392-.706,2.769Z" transform="translate(1251.102 -1737.537)" fill="#fff"/>
        <path id="Caminho_8245" data-name="Caminho 8245" d="M276.355,165.277h-3.111l-3.207-6.187h-.054q.114,1.461.114,2.229v3.958h-2.1V156.5h3.1l3.2,6.1h.035q-.084-1.326-.084-2.132V156.5h2.114Z" transform="translate(1251.102 -1737.537)" fill="#fff"/>
        <path id="Caminho_8246" data-name="Caminho 8246" d="M285.707,160.7a4.534,4.534,0,0,1-1.211,3.387,4.646,4.646,0,0,1-3.4,1.19h-2.841v-8.782h3.039a4.583,4.583,0,0,1,3.264,1.082,4.08,4.08,0,0,1,1.151,3.123m-2.463.084a2.788,2.788,0,0,0-.478-1.79,1.765,1.765,0,0,0-1.45-.583h-.691v4.92h.529a1.913,1.913,0,0,0,1.585-.628,3.029,3.029,0,0,0,.5-1.919" transform="translate(1251.102 -1737.537)" fill="#fff"/>
        <path id="Caminho_8247" data-name="Caminho 8247" d="M292.668,165.277l-.433-1.646h-2.852l-.446,1.646h-2.606l2.865-8.817h3.165l2.9,8.817Zm-.925-3.592-.379-1.441q-.132-.481-.321-1.244t-.249-1.093c-.036.2-.108.541-.213,1.009s-.342,1.392-.706,2.769Z" transform="translate(1251.102 -1737.537)" fill="#fff"/>
        <path id="Caminho_8248" data-name="Caminho 8248" d="M182.236,180.038h-5.213v-8.781h5.213v1.9h-2.841v1.381h2.631v1.9h-2.631V178.1h2.841Z" transform="translate(1251.102 -1737.537)" fill="#fff"/>
        <path id="Caminho_8249" data-name="Caminho 8249" d="M189.515,177.371a2.587,2.587,0,0,1-.415,1.451,2.71,2.71,0,0,1-1.2.985,4.431,4.431,0,0,1-1.831.351,7.418,7.418,0,0,1-1.472-.123,5.4,5.4,0,0,1-1.237-.43v-2.113a7.044,7.044,0,0,0,1.411.543,5.268,5.268,0,0,0,1.345.195,1.307,1.307,0,0,0,.775-.183.564.564,0,0,0,.246-.471.513.513,0,0,0-.1-.316,1.153,1.153,0,0,0-.318-.273q-.219-.138-1.168-.565a5.58,5.58,0,0,1-1.289-.757,2.321,2.321,0,0,1-.636-.84,2.8,2.8,0,0,1-.207-1.123,2.253,2.253,0,0,1,.882-1.893,3.9,3.9,0,0,1,2.427-.678,6.8,6.8,0,0,1,2.781.631l-.727,1.831a5.269,5.269,0,0,0-2.126-.564,1.11,1.11,0,0,0-.673.162.49.49,0,0,0-.21.4.581.581,0,0,0,.267.463,10.261,10.261,0,0,0,1.451.745,4.008,4.008,0,0,1,1.577,1.1,2.381,2.381,0,0,1,.441,1.474" transform="translate(1251.102 -1737.537)" fill="#fff"/>
        <path id="Caminho_8250" data-name="Caminho 8250" d="M197.244,174.05a2.938,2.938,0,0,1-.868,2.273,3.5,3.5,0,0,1-2.465.8h-.667v2.913h-2.372v-8.781h3.039a3.72,3.72,0,0,1,2.5.727,2.592,2.592,0,0,1,.834,2.066m-4,1.141h.433a1.18,1.18,0,0,0,.849-.3,1.087,1.087,0,0,0,.316-.829q0-.89-.985-.889h-.613Z" transform="translate(1251.102 -1737.537)" fill="#fff"/>
        <path id="Caminho_8251" data-name="Caminho 8251" d="M206.86,175.635A4.731,4.731,0,0,1,205.773,179a4.939,4.939,0,0,1-6.351-.006,5.688,5.688,0,0,1-.006-6.724,4.971,4.971,0,0,1,6.363-.009,4.741,4.741,0,0,1,1.081,3.37m-6.042,0q0,2.547,1.772,2.546a1.522,1.522,0,0,0,1.336-.618,4.491,4.491,0,0,0,0-3.871,1.509,1.509,0,0,0-1.319-.628q-1.784,0-1.784,2.571" transform="translate(1251.102 -1737.537)" fill="#fff"/>
        <path id="Caminho_8252" data-name="Caminho 8252" d="M216.807,180.038H213.7l-3.207-6.187h-.055q.115,1.461.115,2.229v3.958h-2.1v-8.781h3.1l3.195,6.1h.036q-.084-1.326-.084-2.132v-3.97h2.114Z" transform="translate(1251.102 -1737.537)" fill="#fff"/>
        <path id="Caminho_8253" data-name="Caminho 8253" d="M222.579,180.038h-2.372V173.2h-2.145v-1.94h6.655v1.94h-2.138Z" transform="translate(1251.102 -1737.537)" fill="#fff"/>
        <path id="Caminho_8254" data-name="Caminho 8254" d="M231.36,180.038l-.432-1.646h-2.853l-.445,1.646h-2.607l2.865-8.817h3.166l2.9,8.817Zm-.643-9.484a7.875,7.875,0,0,1-1.207-.9,10.7,10.7,0,0,1-1.165.9h-1.55v-.174a11.817,11.817,0,0,0,.868-.919,9.06,9.06,0,0,0,.682-.877h2.36a13.108,13.108,0,0,0,1.538,1.8v.174Zm-.282,5.892-.378-1.441q-.134-.481-.322-1.244t-.249-1.093q-.054.306-.213,1.009t-.706,2.769Z" transform="translate(1251.102 -1737.537)" fill="#fff"/>
        <path id="Caminho_8255" data-name="Caminho 8255" d="M243.265,180.038h-3.111l-3.207-6.187h-.055q.114,1.461.114,2.229v3.958h-2.1v-8.781H238l3.2,6.1h.036q-.086-1.326-.084-2.132v-3.97h2.114Z" transform="translate(1251.102 -1737.537)" fill="#fff"/>
        <path id="Caminho_8256" data-name="Caminho 8256" d="M250.376,180.038h-5.213v-8.781h5.213v1.9h-2.841v1.381h2.631v1.9h-2.631V178.1h2.841Z" transform="translate(1251.102 -1737.537)" fill="#fff"/>
        <path id="Caminho_8257" data-name="Caminho 8257" d="M257.3,180.038l-.432-1.646h-2.853l-.445,1.646h-2.606l2.864-8.817h3.166l2.9,8.817Zm-.925-3.592L256,175.005c-.089-.321-.2-.735-.321-1.244s-.21-.873-.25-1.093c-.035.2-.107.541-.213,1.009s-.341,1.392-.706,2.769Z" transform="translate(1251.102 -1737.537)" fill="#fff"/>
      </g>
    </g>
  </g>
</svg>
