<svg xmlns="http://www.w3.org/2000/svg" xmlns:xlink="http://www.w3.org/1999/xlink" width="225" height="98.235" viewBox="0 0 225 98.235">
  <defs>
    <clipPath id="clip-path">
      <rect id="Retângulo_1883" data-name="Retângulo 1883" width="182.306" height="75.282" transform="translate(238.5)" fill="none"/>
    </clipPath>
    <clipPath id="clip-path-2">
      <rect id="Retângulo_1884" data-name="Retângulo 1884" width="76.879" height="53.881" transform="translate(386.621 3.522)" fill="none"/>
    </clipPath>
  </defs>
  <g id="Grupo_3040" data-name="Grupo 3040" transform="translate(-2162.561 1920.031)">
    <g id="Grupo_3039" data-name="Grupo 3039">
      <g id="Grupo_3038" data-name="Grupo 3038">
        <g id="Grupo_3037" data-name="Grupo 3037">
          <path id="Caminho_8378" data-name="Caminho 8378" d="M445,98.234H257a18.5,18.5,0,0,1-18.5-18.5V18.5A18.5,18.5,0,0,1,257,0H445a18.5,18.5,0,0,1,18.5,18.5V79.738a18.5,18.5,0,0,1-18.5,18.5" transform="translate(1924.061 -1920.03)" fill="#aa552b"/>
          <path id="Caminho_8379" data-name="Caminho 8379" d="M444.537,95.159H257.464a15.906,15.906,0,0,1-15.888-15.888V18.963A15.906,15.906,0,0,1,257.464,3.075H444.537a15.906,15.906,0,0,1,15.888,15.888V79.271a15.906,15.906,0,0,1-15.888,15.888M257.464,3.758a15.222,15.222,0,0,0-15.2,15.2V79.271a15.222,15.222,0,0,0,15.2,15.2H444.537a15.222,15.222,0,0,0,15.205-15.2V18.963a15.222,15.222,0,0,0-15.205-15.2Z" transform="translate(1924.061 -1920.03)" fill="#fff"/>
          <g id="Grupo_3026" data-name="Grupo 3026" transform="translate(1924.061 -1920.03)" opacity="0.1">
            <g id="Grupo_3006" data-name="Grupo 3006">
              <g id="Grupo_3005" data-name="Grupo 3005" clip-path="url(#clip-path)">
                <path id="Caminho_8161" data-name="Caminho 8161" d="M257.464,0A18.965,18.965,0,0,0,238.5,18.964V75.281C276.073,66.97,364.244,43.859,420.807,0Z" fill="#fff"/>
              </g>
            </g>
          </g>
          <g id="Grupo_3027" data-name="Grupo 3027" transform="translate(1924.061 -1920.03)" opacity="0.05">
            <g id="Grupo_3009" data-name="Grupo 3009">
              <g id="Grupo_3008" data-name="Grupo 3008" clip-path="url(#clip-path-2)">
                <path id="Caminho_8162" data-name="Caminho 8162" d="M463.5,18.963a18.933,18.933,0,0,0-7.962-15.441C427.439,40.3,386.621,57.4,386.621,57.4c40.755-11.291,64.045-23.467,76.879-32.319Z" fill="#fff"/>
              </g>
            </g>
          </g>
          <path id="Caminho_8380" data-name="Caminho 8380" d="M260.4,37.835h-2.336V29.054h5.189v1.9H260.4v1.676h2.631v1.9H260.4Z" transform="translate(1924.061 -1920.03)" fill="#fff"/>
          <path id="Caminho_8381" data-name="Caminho 8381" d="M264.7,37.835V29.054h2.372v6.865h3.382v1.916Z" transform="translate(1924.061 -1920.03)" fill="#fff"/>
          <path id="Caminho_8382" data-name="Caminho 8382" d="M279.323,29.053v5.286a3.546,3.546,0,0,1-.976,2.67,4.633,4.633,0,0,1-5.574.026,3.479,3.479,0,0,1-.964-2.642v-5.34h2.385v5.153a2.107,2.107,0,0,0,.349,1.352,1.5,1.5,0,0,0,2.081,0,2.239,2.239,0,0,0,.327-1.366V29.053Z" transform="translate(1924.061 -1920.03)" fill="#fff"/>
          <path id="Caminho_8383" data-name="Caminho 8383" d="M289.078,37.835h-2.745l-1.712-2.745-1.693,2.745h-2.686l2.913-4.493-2.738-4.288h2.631l1.585,2.715,1.525-2.715h2.709l-2.78,4.474Z" transform="translate(1924.061 -1920.03)" fill="#fff"/>
          <path id="Caminho_8384" data-name="Caminho 8384" d="M298.28,33.432a4.723,4.723,0,0,1-1.089,3.369,4.939,4.939,0,0,1-6.351-.006,4.716,4.716,0,0,1-1.1-3.375,4.681,4.681,0,0,1,1.1-3.349,4.971,4.971,0,0,1,6.363-.009,4.741,4.741,0,0,1,1.082,3.37m-6.043,0q0,2.547,1.771,2.546a1.521,1.521,0,0,0,1.336-.618,3.39,3.39,0,0,0,.436-1.928,3.422,3.422,0,0,0-.44-1.943,1.509,1.509,0,0,0-1.319-.628q-1.785,0-1.784,2.571" transform="translate(1924.061 -1920.03)" fill="#fff"/>
          <path id="Caminho_8385" data-name="Caminho 8385" d="M309.433,31.846a2.938,2.938,0,0,1-.868,2.273,3.5,3.5,0,0,1-2.465.8h-.667v2.913h-2.372V29.053H306.1a3.719,3.719,0,0,1,2.5.727,2.59,2.59,0,0,1,.835,2.066m-4,1.141h.433a1.18,1.18,0,0,0,.849-.3,1.09,1.09,0,0,0,.316-.829q0-.89-.986-.889h-.612Z" transform="translate(1924.061 -1920.03)" fill="#fff"/>
          <path id="Caminho_8386" data-name="Caminho 8386" d="M316.22,37.835l-.433-1.646h-2.852l-.446,1.646h-2.606l2.865-8.817h3.165l2.9,8.817Zm-.925-3.592-.379-1.441q-.132-.481-.321-1.244t-.249-1.093c-.036.2-.108.541-.213,1.009s-.342,1.392-.706,2.769Z" transform="translate(1924.061 -1920.03)" fill="#fff"/>
          <path id="Caminho_8387" data-name="Caminho 8387" d="M322.136,34.64v3.195h-2.372V29.054h2.877q3.579,0,3.579,2.594a2.592,2.592,0,0,1-1.489,2.361l2.558,3.826H324.6l-1.862-3.195Zm0-1.784h.444q1.244,0,1.243-1.1,0-.907-1.218-.907h-.469Z" transform="translate(1924.061 -1920.03)" fill="#fff"/>
          <path id="Caminho_8388" data-name="Caminho 8388" d="M333.476,37.835l-.433-1.646h-2.852l-.446,1.646h-2.606L330,29.018h3.165l2.9,8.817Zm-.925-3.592-.379-1.441q-.132-.481-.321-1.244t-.249-1.093c-.036.2-.108.541-.213,1.009s-.342,1.392-.706,2.769Z" transform="translate(1924.061 -1920.03)" fill="#fff"/>
          <path id="Caminho_8389" data-name="Caminho 8389" d="M348.431,33.432a4.731,4.731,0,0,1-1.087,3.369,4.939,4.939,0,0,1-6.351-.006,4.716,4.716,0,0,1-1.1-3.375,4.681,4.681,0,0,1,1.1-3.349,4.971,4.971,0,0,1,6.363-.009,4.741,4.741,0,0,1,1.081,3.37m-6.042,0q0,2.547,1.771,2.546a1.525,1.525,0,0,0,1.337-.618,3.39,3.39,0,0,0,.436-1.928,3.421,3.421,0,0,0-.441-1.943,1.51,1.51,0,0,0-1.319-.628q-1.783,0-1.784,2.571" transform="translate(1924.061 -1920.03)" fill="#fff"/>
          <path id="Caminho_8390" data-name="Caminho 8390" d="M355.759,35.168a2.6,2.6,0,0,1-.415,1.451,2.716,2.716,0,0,1-1.2.985,4.434,4.434,0,0,1-1.831.351,7.418,7.418,0,0,1-1.472-.123,5.388,5.388,0,0,1-1.237-.43V35.289a7.044,7.044,0,0,0,1.411.543,5.261,5.261,0,0,0,1.345.195,1.307,1.307,0,0,0,.775-.183.564.564,0,0,0,.246-.471.513.513,0,0,0-.1-.316,1.152,1.152,0,0,0-.318-.273q-.221-.138-1.168-.565a5.581,5.581,0,0,1-1.289-.757,2.336,2.336,0,0,1-.637-.84,2.814,2.814,0,0,1-.207-1.123,2.254,2.254,0,0,1,.883-1.893,3.9,3.9,0,0,1,2.427-.678,6.8,6.8,0,0,1,2.781.631l-.727,1.831a5.273,5.273,0,0,0-2.127-.564,1.109,1.109,0,0,0-.672.162.49.49,0,0,0-.21.4.581.581,0,0,0,.267.463,10.225,10.225,0,0,0,1.45.745,4.012,4.012,0,0,1,1.578,1.1,2.381,2.381,0,0,1,.441,1.474" transform="translate(1924.061 -1920.03)" fill="#fff"/>
          <path id="Caminho_8391" data-name="Caminho 8391" d="M367.777,29.053v5.286a3.546,3.546,0,0,1-.976,2.67,4.633,4.633,0,0,1-5.574.026,3.479,3.479,0,0,1-.964-2.642v-5.34h2.385v5.153A2.107,2.107,0,0,0,363,35.558a1.5,1.5,0,0,0,2.081,0,2.239,2.239,0,0,0,.327-1.366V29.053Z" transform="translate(1924.061 -1920.03)" fill="#fff"/>
          <path id="Caminho_8392" data-name="Caminho 8392" d="M375.362,35.168a2.594,2.594,0,0,1-.414,1.451,2.716,2.716,0,0,1-1.2.985,4.435,4.435,0,0,1-1.832.351,7.418,7.418,0,0,1-1.472-.123,5.4,5.4,0,0,1-1.237-.43V35.289a7.053,7.053,0,0,0,1.412.543,5.254,5.254,0,0,0,1.344.195,1.31,1.31,0,0,0,.776-.183.564.564,0,0,0,.246-.471.514.514,0,0,0-.1-.316,1.138,1.138,0,0,0-.318-.273q-.219-.138-1.168-.565a5.571,5.571,0,0,1-1.288-.757,2.324,2.324,0,0,1-.637-.84,2.8,2.8,0,0,1-.207-1.123,2.251,2.251,0,0,1,.883-1.893,3.9,3.9,0,0,1,2.427-.678,6.8,6.8,0,0,1,2.78.631l-.727,1.831a5.269,5.269,0,0,0-2.126-.564,1.1,1.1,0,0,0-.672.162.488.488,0,0,0-.21.4.582.582,0,0,0,.266.463,10.323,10.323,0,0,0,1.451.745,4,4,0,0,1,1.577,1.1,2.375,2.375,0,0,1,.441,1.474" transform="translate(1924.061 -1920.03)" fill="#fff"/>
          <path id="Caminho_8393" data-name="Caminho 8393" d="M384.186,29.053v5.286a3.543,3.543,0,0,1-.977,2.67,4.632,4.632,0,0,1-5.573.026,3.479,3.479,0,0,1-.964-2.642v-5.34h2.384v5.153a2.107,2.107,0,0,0,.349,1.352,1.5,1.5,0,0,0,2.081,0,2.232,2.232,0,0,0,.327-1.366V29.053Z" transform="translate(1924.061 -1920.03)" fill="#fff"/>
          <path id="Caminho_8394" data-name="Caminho 8394" d="M391.417,37.835l-.433-1.646h-2.852l-.446,1.646H385.08l2.865-8.817h3.165l2.9,8.817Zm-3.142-9.484v-.174q.926-.991,1.175-1.28t.411-.516h2.57v.126q-.48.385-1.321.979t-1.273.865Zm2.217,5.892-.379-1.441q-.132-.481-.321-1.244t-.249-1.093c-.036.2-.108.541-.213,1.009s-.342,1.392-.706,2.769Z" transform="translate(1924.061 -1920.03)" fill="#fff"/>
          <path id="Caminho_8395" data-name="Caminho 8395" d="M397.333,34.64v3.195h-2.372V29.054h2.877q3.579,0,3.579,2.594a2.592,2.592,0,0,1-1.489,2.361l2.558,3.826H399.8l-1.862-3.195Zm0-1.784h.444q1.243,0,1.243-1.1,0-.907-1.218-.907h-.469Z" transform="translate(1924.061 -1920.03)" fill="#fff"/>
          <rect id="Retângulo_1901" data-name="Retângulo 1901" width="2.385" height="8.781" transform="translate(2327.346 -1890.977)" fill="#fff"/>
          <path id="Caminho_8396" data-name="Caminho 8396" d="M415.784,33.432A4.727,4.727,0,0,1,414.7,36.8a4.939,4.939,0,0,1-6.351-.006,4.716,4.716,0,0,1-1.1-3.375,4.685,4.685,0,0,1,1.1-3.349,4.972,4.972,0,0,1,6.364-.009,4.741,4.741,0,0,1,1.081,3.37m-6.043,0q0,2.547,1.772,2.546a1.522,1.522,0,0,0,1.336-.618,3.39,3.39,0,0,0,.436-1.928,3.421,3.421,0,0,0-.441-1.943,1.508,1.508,0,0,0-1.319-.628q-1.783,0-1.784,2.571" transform="translate(1924.061 -1920.03)" fill="#fff"/>
          <path id="Caminho_8397" data-name="Caminho 8397" d="M423.112,35.168a2.594,2.594,0,0,1-.414,1.451,2.721,2.721,0,0,1-1.2.985,4.439,4.439,0,0,1-1.832.351,7.429,7.429,0,0,1-1.473-.123,5.4,5.4,0,0,1-1.237-.43V35.289a7.038,7.038,0,0,0,1.413.543,5.253,5.253,0,0,0,1.343.195,1.311,1.311,0,0,0,.776-.183.562.562,0,0,0,.247-.471.514.514,0,0,0-.1-.316,1.146,1.146,0,0,0-.317-.273q-.219-.138-1.168-.565a5.528,5.528,0,0,1-1.288-.757,2.316,2.316,0,0,1-.638-.84,2.8,2.8,0,0,1-.207-1.123,2.249,2.249,0,0,1,.884-1.893,3.89,3.89,0,0,1,2.426-.678,6.8,6.8,0,0,1,2.781.631l-.728,1.831a5.265,5.265,0,0,0-2.126-.564,1.107,1.107,0,0,0-.672.162.488.488,0,0,0-.21.4.582.582,0,0,0,.266.463,10.423,10.423,0,0,0,1.452.745,4.015,4.015,0,0,1,1.577,1.1,2.381,2.381,0,0,1,.441,1.474" transform="translate(1924.061 -1920.03)" fill="#fff"/>
          <path id="Caminho_8398" data-name="Caminho 8398" d="M436.025,37.835h-3.111l-3.207-6.187h-.054q.112,1.461.113,2.229v3.958h-2.1V29.054h3.1l3.2,6.1h.036q-.084-1.326-.084-2.132v-3.97h2.114Z" transform="translate(1924.061 -1920.03)" fill="#fff"/>
          <path id="Caminho_8399" data-name="Caminho 8399" d="M443.311,37.835l-.433-1.646h-2.853l-.445,1.646h-2.606l2.865-8.817H443l2.9,8.817Zm-.926-3.592-.378-1.441q-.132-.481-.321-1.244t-.249-1.093q-.054.306-.214,1.009t-.7,2.769Z" transform="translate(1924.061 -1920.03)" fill="#fff"/>
          <path id="Caminho_8400" data-name="Caminho 8400" d="M299.867,43.814V49.1a3.546,3.546,0,0,1-.976,2.67,4.633,4.633,0,0,1-5.574.026,3.479,3.479,0,0,1-.964-2.642v-5.34h2.385v5.153a2.107,2.107,0,0,0,.349,1.352,1.5,1.5,0,0,0,2.081,0,2.239,2.239,0,0,0,.327-1.366V43.814Z" transform="translate(1924.061 -1920.03)" fill="#fff"/>
          <path id="Caminho_8401" data-name="Caminho 8401" d="M301.712,43.815h3.062a5.219,5.219,0,0,1,2.659.531A1.8,1.8,0,0,1,308.3,46a2.091,2.091,0,0,1-.378,1.261,1.69,1.69,0,0,1-1,.673v.06a2.04,2.04,0,0,1,1.183.721,2.17,2.17,0,0,1,.367,1.309,2.242,2.242,0,0,1-.9,1.883,3.926,3.926,0,0,1-2.447.688h-3.417Zm2.372,3.369h.715a1.3,1.3,0,0,0,.79-.21.735.735,0,0,0,.279-.625q0-.738-1.117-.739h-.667Zm0,1.736v1.844h.835q1.11,0,1.111-.937a.806.806,0,0,0-.3-.673,1.367,1.367,0,0,0-.861-.234Z" transform="translate(1924.061 -1920.03)" fill="#fff"/>
          <path id="Caminho_8402" data-name="Caminho 8402" d="M315.742,49.928a2.6,2.6,0,0,1-.415,1.451,2.716,2.716,0,0,1-1.2.985,4.434,4.434,0,0,1-1.831.351,7.418,7.418,0,0,1-1.472-.123,5.388,5.388,0,0,1-1.237-.43V50.049a7.044,7.044,0,0,0,1.411.543,5.261,5.261,0,0,0,1.345.195,1.307,1.307,0,0,0,.775-.183.564.564,0,0,0,.246-.471.513.513,0,0,0-.1-.316,1.153,1.153,0,0,0-.318-.273q-.221-.138-1.168-.565a5.581,5.581,0,0,1-1.289-.757,2.335,2.335,0,0,1-.637-.84,2.814,2.814,0,0,1-.207-1.123,2.254,2.254,0,0,1,.883-1.893,3.9,3.9,0,0,1,2.427-.678,6.8,6.8,0,0,1,2.781.631l-.727,1.831a5.273,5.273,0,0,0-2.127-.564,1.109,1.109,0,0,0-.672.162.49.49,0,0,0-.21.4.581.581,0,0,0,.267.463,10.225,10.225,0,0,0,1.45.745,4.012,4.012,0,0,1,1.578,1.1,2.381,2.381,0,0,1,.441,1.474" transform="translate(1924.061 -1920.03)" fill="#fff"/>
          <path id="Caminho_8403" data-name="Caminho 8403" d="M326.667,46.607a2.938,2.938,0,0,1-.868,2.273,3.5,3.5,0,0,1-2.465.8h-.667V52.6H320.3V43.814h3.039a3.719,3.719,0,0,1,2.5.727,2.59,2.59,0,0,1,.835,2.066m-4,1.141h.433a1.18,1.18,0,0,0,.849-.3,1.09,1.09,0,0,0,.316-.829q0-.889-.986-.889h-.612Z" transform="translate(1924.061 -1920.03)" fill="#fff"/>
          <path id="Caminho_8404" data-name="Caminho 8404" d="M333.454,52.6l-.433-1.646h-2.852l-.446,1.646h-2.606l2.865-8.817h3.165l2.9,8.817ZM332.53,49l-.38-1.441q-.131-.481-.321-1.244t-.248-1.093q-.055.306-.214,1.009T330.661,49Z" transform="translate(1924.061 -1920.03)" fill="#fff"/>
          <path id="Caminho_8405" data-name="Caminho 8405" d="M339.37,49.4V52.6H337V43.814h2.877q3.579,0,3.579,2.594a2.592,2.592,0,0,1-1.489,2.361l2.558,3.826h-2.69L339.971,49.4Zm0-1.784h.444q1.244,0,1.243-1.1,0-.907-1.218-.907h-.469Z" transform="translate(1924.061 -1920.03)" fill="#fff"/>
          <path id="Caminho_8406" data-name="Caminho 8406" d="M350.71,52.6l-.433-1.646h-2.852l-.446,1.646h-2.606l2.865-8.817H350.4l2.9,8.817ZM349.785,49l-.379-1.441q-.132-.481-.321-1.244t-.249-1.093c-.036.2-.108.541-.213,1.009s-.342,1.392-.706,2.769Z" transform="translate(1924.061 -1920.03)" fill="#fff"/>
          <path id="Caminho_8407" data-name="Caminho 8407" d="M365.665,48.193q0,2.985-1.9,4.024l2.143,2.469h-2.955l-1.549-1.952-.007-.006v-.007l-.006-.006a4.162,4.162,0,0,1-3.167-1.159,4.716,4.716,0,0,1-1.1-3.375,4.681,4.681,0,0,1,1.1-3.349,4.971,4.971,0,0,1,6.363-.009,4.741,4.741,0,0,1,1.081,3.37m-6.042,0q0,2.547,1.771,2.546a1.525,1.525,0,0,0,1.337-.618,3.39,3.39,0,0,0,.436-1.928,3.421,3.421,0,0,0-.441-1.943,1.51,1.51,0,0,0-1.319-.628q-1.784,0-1.784,2.571" transform="translate(1924.061 -1920.03)" fill="#fff"/>
          <path id="Caminho_8408" data-name="Caminho 8408" d="M374.717,43.814V49.1a3.543,3.543,0,0,1-.977,2.67,4.632,4.632,0,0,1-5.573.026,3.479,3.479,0,0,1-.964-2.642v-5.34h2.384v5.153a2.107,2.107,0,0,0,.349,1.352,1.5,1.5,0,0,0,2.081,0,2.232,2.232,0,0,0,.327-1.366V43.814Z" transform="translate(1924.061 -1920.03)" fill="#fff"/>
          <path id="Caminho_8409" data-name="Caminho 8409" d="M381.775,52.6h-5.214V43.814h5.214v1.9h-2.842V47.1h2.631V49h-2.631v1.658h2.842Z" transform="translate(1924.061 -1920.03)" fill="#fff"/>
          <rect id="Retângulo_1902" data-name="Retângulo 1902" width="2.385" height="8.781" transform="translate(2307.373 -1876.216)" fill="#fff"/>
          <path id="Caminho_8410" data-name="Caminho 8410" d="M395.5,52.6h-2.745l-1.712-2.745L389.354,52.6h-2.685l2.913-4.493-2.739-4.288h2.631l1.586,2.715,1.525-2.715h2.709l-2.781,4.474Z" transform="translate(1924.061 -1920.03)" fill="#fff"/>
          <path id="Caminho_8411" data-name="Caminho 8411" d="M401.876,52.6l-.432-1.646h-2.853l-.445,1.646H395.54l2.864-8.817h3.166l2.9,8.817ZM400.951,49l-.378-1.441c-.089-.321-.2-.735-.321-1.244s-.21-.873-.25-1.093c-.035.2-.107.541-.213,1.009s-.341,1.392-.706,2.769Z" transform="translate(1924.061 -1920.03)" fill="#fff"/>
          <path id="Caminho_8412" data-name="Caminho 8412" d="M411.162,49.928a2.6,2.6,0,0,1-.415,1.451,2.716,2.716,0,0,1-1.2.985,4.434,4.434,0,0,1-1.831.351,7.418,7.418,0,0,1-1.472-.123,5.388,5.388,0,0,1-1.237-.43V50.049a7.043,7.043,0,0,0,1.411.543,5.261,5.261,0,0,0,1.345.195,1.307,1.307,0,0,0,.775-.183.564.564,0,0,0,.246-.471.513.513,0,0,0-.1-.316,1.153,1.153,0,0,0-.318-.273q-.221-.138-1.168-.565a5.581,5.581,0,0,1-1.289-.757,2.335,2.335,0,0,1-.637-.84,2.813,2.813,0,0,1-.207-1.123,2.254,2.254,0,0,1,.883-1.893,3.9,3.9,0,0,1,2.427-.678,6.8,6.8,0,0,1,2.781.631l-.727,1.831a5.273,5.273,0,0,0-2.127-.564,1.109,1.109,0,0,0-.672.162.49.49,0,0,0-.21.4.581.581,0,0,0,.267.463,10.227,10.227,0,0,0,1.45.745,4.013,4.013,0,0,1,1.578,1.1,2.381,2.381,0,0,1,.441,1.474" transform="translate(1924.061 -1920.03)" fill="#fff"/>
          <path id="Caminho_8413" data-name="Caminho 8413" d="M305.517,62.954a4.731,4.731,0,0,1-1.087,3.369,4.939,4.939,0,0,1-6.351-.006,4.716,4.716,0,0,1-1.1-3.375,4.681,4.681,0,0,1,1.1-3.349,4.971,4.971,0,0,1,6.363-.009,4.741,4.741,0,0,1,1.081,3.37m-6.042,0q0,2.547,1.771,2.546a1.525,1.525,0,0,0,1.337-.618,4.491,4.491,0,0,0-.005-3.871,1.51,1.51,0,0,0-1.319-.628q-1.783,0-1.784,2.571" transform="translate(1924.061 -1920.03)" fill="#fff"/>
          <path id="Caminho_8414" data-name="Caminho 8414" d="M314.557,62.779a4.534,4.534,0,0,1-1.211,3.387,4.646,4.646,0,0,1-3.4,1.19H307.1V58.574h3.039a4.583,4.583,0,0,1,3.264,1.082,4.08,4.08,0,0,1,1.151,3.123m-2.463.084a2.788,2.788,0,0,0-.478-1.79,1.765,1.765,0,0,0-1.45-.583h-.691v4.92H310a1.913,1.913,0,0,0,1.585-.628,3.029,3.029,0,0,0,.505-1.919" transform="translate(1924.061 -1920.03)" fill="#fff"/>
          <path id="Caminho_8415" data-name="Caminho 8415" d="M324.347,62.954a4.727,4.727,0,0,1-1.088,3.369,4.939,4.939,0,0,1-6.351-.006,4.716,4.716,0,0,1-1.1-3.375,4.685,4.685,0,0,1,1.1-3.349,4.972,4.972,0,0,1,6.364-.009,4.741,4.741,0,0,1,1.081,3.37m-6.043,0q0,2.547,1.772,2.546a1.522,1.522,0,0,0,1.336-.618,4.491,4.491,0,0,0,0-3.871,1.508,1.508,0,0,0-1.319-.628q-1.784,0-1.784,2.571" transform="translate(1924.061 -1920.03)" fill="#fff"/>
          <path id="Caminho_8416" data-name="Caminho 8416" d="M334.293,67.356h-3.111l-3.207-6.187h-.055q.114,1.461.114,2.229v3.958h-2.1V58.575h3.1l3.2,6.1h.036q-.086-1.326-.084-2.132v-3.97h2.114Z" transform="translate(1924.061 -1920.03)" fill="#fff"/>
          <path id="Caminho_8417" data-name="Caminho 8417" d="M340.065,67.356h-2.372V60.515h-2.145v-1.94H342.2v1.94h-2.139Z" transform="translate(1924.061 -1920.03)" fill="#fff"/>
          <path id="Caminho_8418" data-name="Caminho 8418" d="M351.675,62.954a4.732,4.732,0,0,1-1.087,3.369,4.939,4.939,0,0,1-6.351-.006,4.716,4.716,0,0,1-1.1-3.375,4.681,4.681,0,0,1,1.1-3.349,4.971,4.971,0,0,1,6.363-.009,4.741,4.741,0,0,1,1.081,3.37m-6.042,0q0,2.547,1.771,2.546a1.525,1.525,0,0,0,1.337-.618,4.491,4.491,0,0,0-.005-3.871,1.51,1.51,0,0,0-1.319-.628q-1.783,0-1.784,2.571" transform="translate(1924.061 -1920.03)" fill="#fff"/>
          <path id="Caminho_8419" data-name="Caminho 8419" d="M353.261,67.356V58.575h2.372V65.44h3.382v1.916Z" transform="translate(1924.061 -1920.03)" fill="#fff"/>
          <path id="Caminho_8420" data-name="Caminho 8420" d="M368.637,62.954a4.731,4.731,0,0,1-1.088,3.369,4.94,4.94,0,0,1-6.351-.006,4.717,4.717,0,0,1-1.1-3.376,4.684,4.684,0,0,1,1.1-3.348,4.969,4.969,0,0,1,6.364-.009,4.739,4.739,0,0,1,1.081,3.37m-6.043,0q0,2.546,1.773,2.546a1.52,1.52,0,0,0,1.335-.619,3.38,3.38,0,0,0,.436-1.927,3.419,3.419,0,0,0-.441-1.944,1.507,1.507,0,0,0-1.319-.627q-1.783,0-1.784,2.571m.379-5.082V57.7q.924-.992,1.174-1.28c.166-.192.3-.364.412-.516h2.57v.126q-.48.385-1.321.979t-1.273.865Z" transform="translate(1924.061 -1920.03)" fill="#fff"/>
          <path id="Caminho_8421" data-name="Caminho 8421" d="M373.748,62.215h3.79v4.733a10.428,10.428,0,0,1-3.394.528,4.1,4.1,0,0,1-3.138-1.177,4.717,4.717,0,0,1-1.109-3.357,4.411,4.411,0,0,1,1.214-3.31,4.664,4.664,0,0,1,3.4-1.183,7.527,7.527,0,0,1,1.564.156,6.541,6.541,0,0,1,1.282.4l-.751,1.861a4.644,4.644,0,0,0-2.084-.468,1.982,1.982,0,0,0-1.606.675A2.924,2.924,0,0,0,372.349,63a2.96,2.96,0,0,0,.513,1.877,1.78,1.78,0,0,0,1.481.645,4.348,4.348,0,0,0,.972-.1V64.047h-1.567Z" transform="translate(1924.061 -1920.03)" fill="#fff"/>
          <rect id="Retângulo_1903" data-name="Retângulo 1903" width="2.384" height="8.781" transform="translate(2303.389 -1861.455)" fill="#fff"/>
          <path id="Caminho_8422" data-name="Caminho 8422" d="M387.52,60.4a1.513,1.513,0,0,0-1.321.693A3.345,3.345,0,0,0,385.724,63q0,2.535,1.929,2.535a3.957,3.957,0,0,0,1.129-.162,11.04,11.04,0,0,0,1.1-.391V66.99a6.083,6.083,0,0,1-2.486.486,3.933,3.933,0,0,1-3.048-1.153,4.756,4.756,0,0,1-1.06-3.334,5.338,5.338,0,0,1,.513-2.4A3.68,3.68,0,0,1,385.277,59a4.462,4.462,0,0,1,2.267-.555,6.249,6.249,0,0,1,2.721.618l-.726,1.869a8.083,8.083,0,0,0-.973-.385,3.41,3.41,0,0,0-1.046-.156" transform="translate(1924.061 -1920.03)" fill="#fff"/>
          <path id="Caminho_8423" data-name="Caminho 8423" d="M396.98,67.356l-.432-1.646H393.7l-.445,1.646h-2.606l2.864-8.817h3.166l2.9,8.817Zm-.925-3.592-.378-1.441c-.089-.321-.2-.735-.321-1.244s-.21-.873-.25-1.093c-.035.2-.107.541-.213,1.009s-.341,1.392-.706,2.769Z" transform="translate(1924.061 -1920.03)" fill="#fff"/>
          <path id="Caminho_8424" data-name="Caminho 8424" d="M406.266,64.689a2.6,2.6,0,0,1-.415,1.451,2.716,2.716,0,0,1-1.2.985,4.434,4.434,0,0,1-1.831.351,7.418,7.418,0,0,1-1.472-.123,5.388,5.388,0,0,1-1.237-.43V64.81a7.043,7.043,0,0,0,1.411.543,5.261,5.261,0,0,0,1.345.195,1.307,1.307,0,0,0,.775-.183.564.564,0,0,0,.246-.471.513.513,0,0,0-.1-.316,1.153,1.153,0,0,0-.318-.273q-.221-.138-1.168-.565a5.58,5.58,0,0,1-1.289-.757,2.335,2.335,0,0,1-.637-.84,2.814,2.814,0,0,1-.207-1.123,2.254,2.254,0,0,1,.883-1.893,3.9,3.9,0,0,1,2.427-.678,6.8,6.8,0,0,1,2.781.631l-.727,1.831a5.273,5.273,0,0,0-2.127-.564,1.109,1.109,0,0,0-.672.162.49.49,0,0,0-.21.4.581.581,0,0,0,.267.463,10.228,10.228,0,0,0,1.45.745,4.013,4.013,0,0,1,1.578,1.1,2.381,2.381,0,0,1,.441,1.474" transform="translate(1924.061 -1920.03)" fill="#fff"/>
        </g>
      </g>
    </g>
  </g>
</svg>
