<svg xmlns="http://www.w3.org/2000/svg" width="444.407" height="147.195" viewBox="0 0 444.407 147.195"><g transform="translate(-880 -949.49)"><g transform="translate(845.425 914.626)"><path d="M77.184,82.725q1.041,2.775,2.082,5.547l.494,1.263c1.933,4.906,3.722,9.876,6.395,14.454,2.134,4.568,5.546,8.164,8.976,11.736,1.575,1.641,3.32,3.122,4.852,4.8,4.731,5.18,5.2,11.151,3.139,17.581-1.5,4.687-3.781,9.041-5.71,13.544-1.759,4.1-3.328,8.262-3.708,12.762-.045.524-.241.74-.75.7-.135-.011-.273,0-.409,0q-19,0-37.992,0c-.226,0-.451-.026-.877-.052.658-1.52,1.287-2.949,1.9-4.386,1.791-4.221,3.571-8.446,4.319-13.013.85-5.192-.236-9.763-4.14-13.542a71.171,71.171,0,0,1-17.43-25.889c-6-15.745-4.694-31.021,3.212-45.788,1.419-2.651,2.869-5.361,5.577-7.03a8.235,8.235,0,0,1,4.322-1.345c3.389-.025,5.29,2.405,4.434,5.692a18.26,18.26,0,0,1-1.933,4.415c-4.582,8.023-7.42,16.5-6.952,25.878A28.97,28.97,0,0,0,49,99.161a29.684,29.684,0,0,0,6.308,9.918,20.225,20.225,0,0,0,7.71,5.412c2,.715,3.415.131,4.468-1.723a12.161,12.161,0,0,0,1.228-6.612,54.668,54.668,0,0,0-3.347-16.067,15.339,15.339,0,0,0-2.008-4.694,11.16,11.16,0,0,0-1.712-4.247l-.043-.334a60.917,60.917,0,0,0-5-8.349,14.656,14.656,0,0,1,9.4-.151A16.687,16.687,0,0,1,69.717,73.9,20.227,20.227,0,0,1,77.184,82.725Z" fill="#1d70b7"/><path d="M142.15,118.055c.827.707,1.719,1.367,2.488,2.149,1.385,1.408,1.281,3-.331,4.107-3.7,2.543-3.138,2.7-1.51,6.365a16.1,16.1,0,0,1,1.243,3.581c.591,3.182-.534,5.27-3.532,6.507a15.592,15.592,0,0,1-5.452,1.082c-3.092.116-6.191-.182-9.281.217a7.957,7.957,0,0,0-5.658,3.119,44.924,44.924,0,0,0-8.093,18.3c-.258,1.2-.632,1.715-1.988,1.656-3-.132-6.011-.057-9.018-.039-.739.005-1.183.03-.907-1.011A71.326,71.326,0,0,1,111.734,139.9c2.545-3.456,6.144-4.8,10.247-5.183,3.044-.282,6.1-.144,9.148-.262,3.343-.13,4.46-1.941,3.045-5.019-.566-1.231-1.3-2.383-1.9-3.6a2.98,2.98,0,0,1,.874-3.992c.035-.03.067-.062.1-.092,2.137-1.823,2.112-2.252-.227-3.849-1.353-.924-1.353-.924.049-1.7,2.151-1.186,2.572-3,1.2-5.148-.967-1.516-2.126-2.938-2.085-4.9a3.052,3.052,0,0,1,.851-2.208c1.042-1.08,2.1-2.15,3.052-3.312,1.618-1.984,1.563-3.71-.153-5.613A68.711,68.711,0,0,1,126.3,81.663c-1.794-3.334-2.209-7.183-3.381-10.757C118.45,57.276,109.5,48.4,95.259,45.547c-8.54-1.71-16.717.039-24.5,3.8a49.812,49.812,0,0,0-7.451,4.528A5.931,5.931,0,0,1,57.79,55a5.106,5.106,0,0,1-3.643-4.369,5.31,5.31,0,0,1,2.544-5.241,55.035,55.035,0,0,1,18.116-8.628c11.713-3.1,23.147-2.551,34.143,2.833a46.583,46.583,0,0,1,13.181,9.886c4.921,5.141,7.454,11.424,9.565,17.983,1.059,3.287,2.039,6.6,3.275,9.826,1.846,4.824,5.2,8.564,8.735,12.174,1.784,1.822,3.6,3.611,5.371,5.447,2.078,2.157,2.022,3.944-.255,5.924a33.256,33.256,0,0,1-4.015,3.056c-2.293,1.446-2.246,3.9-1.235,5.882.4.793.98,1.5,1.444,2.26,1.073,1.768.922,2.966-.619,4.345C143.7,117,142.9,117.5,142.15,118.055Z" fill="#1d70b7"/><path d="M63.358,85.395a15.339,15.339,0,0,1,2.008,4.694,54.668,54.668,0,0,1,3.347,16.067,12.161,12.161,0,0,1-1.228,6.612c-1.053,1.854-2.466,2.438-4.468,1.723a20.225,20.225,0,0,1-7.71-5.412A29.684,29.684,0,0,1,49,99.161a28.97,28.97,0,0,1-2.017-9.117l.4.877A58.489,58.489,0,0,1,51.328,75.98a64.6,64.6,0,0,1,16.8-23.262,5.537,5.537,0,0,1,8.141.463c1.982,2.252,1.641,5.536-.777,7.8a54.644,54.644,0,0,0-8.572,9.688,4.269,4.269,0,0,0-.916,1.65,14.652,14.652,0,0,0-9.4.15,60.917,60.917,0,0,1,5,8.349,4.769,4.769,0,0,0-1.217,2.81l-.015.052a1.039,1.039,0,0,0-.281,1,.412.412,0,0,0-.071.255,4.9,4.9,0,0,0-.391.848,45.316,45.316,0,0,0-1.43,9.279,17.114,17.114,0,0,0,.415,5.6c.743-3.237,1.544-6.434,2.334-9.633l0,0a.528.528,0,0,0,.221-.584.2.2,0,0,0,.042-.21,28.136,28.136,0,0,0,1.574-4.164.2.2,0,0,0,.072-.2.653.653,0,0,0,.3-.581A.179.179,0,0,1,63.358,85.395Z" fill="#35a8e0"/><path d="M77.184,82.725A20.227,20.227,0,0,0,69.717,73.9c2.138-2.353,3.976-4.97,6.315-7.147a70.372,70.372,0,0,1,5.929-5.24,5.6,5.6,0,0,1,7.546.639,5.44,5.44,0,0,1-.473,7.823,61.294,61.294,0,0,0-9.583,9.678C78.684,80.667,77.939,81.7,77.184,82.725Z" fill="#35a8e0"/><path d="M86.155,103.989c-2.673-4.578-4.462-9.548-6.395-14.454l-.494-1.263c1.2-1.758,2.359-3.544,3.6-5.269a37.718,37.718,0,0,1,6.37-6.712,4.849,4.849,0,0,1,6.06-.245,4.98,4.98,0,0,1,1.884,5.788,4.916,4.916,0,0,1-1.461,2.1c-3.415,3.188-6.454,6.637-8.2,11.084A23.516,23.516,0,0,0,86.155,103.989Z" fill="#35a8e0"/><path d="M61.646,81.148c-.362.42-.119.962-.285,1.417-.176.481-.212,1.111-.975,1.06A4.769,4.769,0,0,1,61.6,80.814C61.617,80.925,61.632,81.037,61.646,81.148Z" fill="#35a8e0" style="mix-blend-mode:multiply;isolation:isolate"/><path d="M62.851,85.87c-.041-.266-.008-.5.3-.581A.65.65,0,0,1,62.851,85.87Z" fill="#35a8e0" style="mix-blend-mode:multiply;isolation:isolate"/></g><g transform="translate(845.425 914.626)"><text transform="translate(170.982 60.889)" fill="#35a8e0" font-size="15.046" font-family="Montserrat-Black, Montserrat" font-weight="800" letter-spacing="0.5em" style="mix-blend-mode:multiply;isolation:isolate"><tspan x="0" y="0">CURSO</tspan><tspan x="0" y="18.056">NACIONAL </tspan></text><text transform="translate(170.982 86.059)" fill="#1d70b7" font-size="22.569" font-family="Montserrat-Light, Montserrat" font-weight="300" letter-spacing="0.04em"><tspan x="0" y="22">DE SAÚDE MENTAL E </tspan><tspan x="0" y="49.083">ATENÇÃO PSICOSSOCIAL </tspan><tspan x="0" y="76.167">NA COVID-19</tspan></text></g></g></svg>