<?xml version="1.0" encoding="utf-8"?>
<!-- Generator: Adobe Illustrator 24.3.0, SVG Export Plug-In . SVG Version: 6.00 Build 0)  -->
<svg version="1.1" id="Camada_1" xmlns="http://www.w3.org/2000/svg" xmlns:xlink="http://www.w3.org/1999/xlink" x="0px" y="0px"
	 viewBox="0 0 888 71.5" style="enable-background:new 0 0 888 71.5;" xml:space="preserve">
<style type="text/css">
	.st0{fill:#AFB2B4;}
	.st1{fill:#167A56;}
	.st2{fill:#FFFFFF;}
	.st3{fill:#344CA3;}
</style>
<g>
	<rect x="-0.8" y="-0.3" class="st0" width="889.6" height="50.5"/>
	<rect x="680.1" y="-0.3" class="st1" width="168.7" height="71.5"/>
	<g>
		<g>
			<path class="st2" d="M702,41.4c0.4,0.2,0.7,0.4,1,0.8c0.2,0.3,0.4,0.6,0.5,0.9c0.1,0.3,0.2,0.7,0.2,1.1c0,0.5-0.1,1-0.4,1.5
				c-0.3,0.5-0.7,0.8-1.3,1c0.5,0.2,0.8,0.5,1.1,0.9c0.2,0.4,0.3,0.9,0.3,1.7V50c0,0.5,0,0.8,0.1,1c0.1,0.3,0.2,0.5,0.4,0.6v0.3
				h-2.5c-0.1-0.2-0.1-0.4-0.1-0.6c-0.1-0.3-0.1-0.6-0.1-0.9l0-1c0-0.7-0.1-1.1-0.4-1.4c-0.2-0.2-0.7-0.3-1.3-0.3h-2.2v4.2h-2.2
				V41.1h5.2C701,41.1,701.6,41.2,702,41.4z M697.3,43v2.9h2.4c0.5,0,0.8-0.1,1.1-0.2c0.4-0.2,0.6-0.6,0.6-1.2
				c0-0.7-0.2-1.1-0.6-1.3c-0.2-0.1-0.6-0.2-1-0.2H697.3z"/>
			<path class="st2" d="M710.9,44.1c0.6,0.2,1,0.6,1.4,1.2c0.3,0.5,0.5,1,0.6,1.6c0.1,0.4,0.1,0.9,0.1,1.6h-5.8
				c0,0.8,0.3,1.4,0.8,1.7c0.3,0.2,0.7,0.3,1.1,0.3c0.5,0,0.9-0.1,1.2-0.4c0.2-0.1,0.3-0.3,0.4-0.5h2.1c-0.1,0.5-0.3,1-0.8,1.4
				c-0.7,0.8-1.7,1.2-3,1.2c-1.1,0-2-0.3-2.8-1c-0.8-0.7-1.2-1.7-1.2-3.2c0-1.4,0.4-2.4,1.1-3.2c0.7-0.7,1.7-1.1,2.9-1.1
				C709.7,43.7,710.4,43.8,710.9,44.1z M707.8,45.9c-0.3,0.3-0.5,0.7-0.6,1.2h3.6c0-0.6-0.2-1-0.6-1.3s-0.7-0.4-1.2-0.4
				C708.5,45.4,708.1,45.6,707.8,45.9z"/>
			<path class="st2" d="M716.2,51.9h-2.1V41.1h2.1V51.9z"/>
			<path class="st2" d="M721.4,47c0.4,0,0.7-0.1,0.8-0.2c0.3-0.1,0.5-0.3,0.5-0.6c0-0.3-0.1-0.6-0.3-0.7c-0.2-0.1-0.6-0.2-1-0.2
				c-0.5,0-0.9,0.1-1.1,0.4c-0.1,0.2-0.2,0.4-0.3,0.7h-2c0-0.7,0.2-1.3,0.6-1.7c0.6-0.7,1.5-1.1,2.8-1.1c0.9,0,1.7,0.2,2.3,0.5
				c0.7,0.3,1,1,1,2v3.7c0,0.3,0,0.6,0,0.9c0,0.3,0.1,0.5,0.1,0.6c0.1,0.1,0.2,0.2,0.3,0.2v0.3h-2.3c-0.1-0.2-0.1-0.3-0.1-0.5
				s0-0.3-0.1-0.5c-0.3,0.3-0.6,0.6-1,0.8c-0.5,0.3-1,0.4-1.5,0.4c-0.7,0-1.3-0.2-1.8-0.6c-0.5-0.4-0.7-1-0.7-1.8
				c0-1,0.4-1.7,1.1-2.1c0.4-0.2,1-0.4,1.8-0.5L721.4,47z M722.6,48c-0.1,0.1-0.3,0.2-0.4,0.2s-0.3,0.1-0.6,0.1l-0.5,0.1
				c-0.4,0.1-0.8,0.2-1,0.3c-0.3,0.2-0.5,0.5-0.5,0.9c0,0.4,0.1,0.6,0.3,0.8c0.2,0.2,0.4,0.2,0.7,0.2c0.5,0,0.9-0.1,1.3-0.4
				c0.4-0.3,0.6-0.7,0.6-1.4V48z"/>
			<path class="st2" d="M731.3,46.8c0-0.3-0.1-0.6-0.3-0.8c-0.2-0.3-0.6-0.5-1.1-0.5c-0.7,0-1.2,0.3-1.4,1c-0.1,0.4-0.2,0.9-0.2,1.5
				c0,0.6,0.1,1.1,0.2,1.4c0.2,0.7,0.7,1,1.4,1c0.5,0,0.8-0.1,1-0.4c0.2-0.3,0.3-0.6,0.4-1h2.1c0,0.6-0.3,1.2-0.7,1.8
				c-0.7,0.9-1.5,1.4-2.7,1.4l-0.5,0.7c0.2,0,0.3-0.1,0.3-0.1c0.1,0,0.1,0,0.2,0c0.4,0,0.7,0.1,0.9,0.3c0.2,0.2,0.4,0.5,0.4,0.8
				c0,0.5-0.2,0.8-0.5,1.1c-0.4,0.3-0.8,0.4-1.4,0.4c-0.2,0-0.5-0.1-0.9-0.2c-0.2,0-0.4-0.1-0.7-0.2l0.3-0.6
				c0.3,0.1,0.5,0.1,0.6,0.2c0.2,0.1,0.4,0.1,0.6,0.1c0.3,0,0.5-0.1,0.6-0.2c0.1-0.1,0.2-0.3,0.2-0.4c0-0.2-0.1-0.4-0.2-0.4
				c-0.1-0.1-0.3-0.1-0.5-0.1c-0.1,0-0.2,0-0.3,0c-0.1,0-0.2,0.1-0.3,0.1l-0.3-0.3l0.7-1.1c-0.9,0-1.7-0.4-2.3-1.1
				c-0.6-0.8-0.9-1.7-0.9-3c0-1.4,0.3-2.4,1-3.2c0.7-0.8,1.6-1.1,2.8-1.1c1,0,1.8,0.2,2.5,0.7c0.6,0.4,1,1.2,1.1,2.4H731.3z"/>
			<path class="st2" d="M741.5,50.9c-0.7,0.8-1.7,1.2-3.1,1.2c-1.4,0-2.4-0.4-3.1-1.2c-0.7-0.8-1-1.8-1-3c0-1.1,0.3-2.1,1-3
				c0.7-0.8,1.7-1.3,3.1-1.3c1.4,0,2.4,0.4,3.1,1.3c0.7,0.8,1,1.8,1,3C742.5,49.1,742.2,50.1,741.5,50.9z M737.9,40.9
				c0.1,0,0.2,0.1,0.3,0.1l0.7,0.3c0.2,0.1,0.3,0.1,0.4,0.1c0.1,0,0.1,0,0.2,0c0.2,0,0.4-0.1,0.5-0.2s0.2-0.3,0.2-0.4h1
				c-0.1,0.5-0.3,0.9-0.5,1.3c-0.3,0.3-0.6,0.5-1.1,0.5c-0.2,0-0.4,0-0.6-0.1c-0.2,0-0.3-0.1-0.5-0.1l-0.6-0.2
				c-0.1,0-0.2-0.1-0.2-0.1c-0.1,0-0.2,0-0.2,0c-0.2,0-0.3,0.1-0.5,0.2c-0.1,0.1-0.2,0.3-0.2,0.5h-1c0.1-0.5,0.2-0.9,0.4-1.1
				c0.3-0.5,0.8-0.7,1.4-0.7C737.6,40.9,737.8,40.9,737.9,40.9z M739.8,49.8c0.3-0.4,0.5-1,0.5-1.8c0-0.8-0.2-1.4-0.5-1.8
				c-0.3-0.4-0.8-0.6-1.4-0.6s-1.1,0.2-1.4,0.6s-0.5,1-0.5,1.8c0,0.8,0.2,1.4,0.5,1.8c0.3,0.4,0.8,0.6,1.4,0.6
				S739.5,50.2,739.8,49.8z"/>
			<path class="st2" d="M749.2,44.1c0.6,0.2,1,0.6,1.4,1.2c0.3,0.5,0.5,1,0.6,1.6c0.1,0.4,0.1,0.9,0.1,1.6h-5.8
				c0,0.8,0.3,1.4,0.8,1.7c0.3,0.2,0.7,0.3,1.1,0.3c0.5,0,0.9-0.1,1.2-0.4c0.2-0.1,0.3-0.3,0.4-0.5h2.1c-0.1,0.5-0.3,1-0.8,1.4
				c-0.7,0.8-1.7,1.2-3,1.2c-1.1,0-2-0.3-2.8-1c-0.8-0.7-1.2-1.7-1.2-3.2c0-1.4,0.4-2.4,1.1-3.2c0.7-0.7,1.7-1.1,2.9-1.1
				C748,43.7,748.7,43.8,749.2,44.1z M746.1,45.9c-0.3,0.3-0.5,0.7-0.6,1.2h3.6c0-0.6-0.2-1-0.6-1.3s-0.7-0.4-1.2-0.4
				C746.8,45.4,746.4,45.6,746.1,45.9z"/>
			<path class="st2" d="M754,49.3c0,0.4,0.1,0.6,0.3,0.8c0.3,0.3,0.7,0.4,1.4,0.4c0.4,0,0.7-0.1,1-0.2c0.2-0.1,0.4-0.3,0.4-0.5
				c0-0.2-0.1-0.4-0.3-0.5s-0.9-0.3-2.2-0.6c-0.9-0.2-1.5-0.5-1.9-0.8c-0.4-0.3-0.6-0.8-0.6-1.4c0-0.7,0.3-1.4,0.9-1.9
				c0.6-0.5,1.4-0.8,2.4-0.8c1,0,1.8,0.2,2.4,0.6c0.6,0.4,1,1.1,1.1,2.1h-2.1c0-0.3-0.1-0.5-0.2-0.6c-0.2-0.3-0.6-0.4-1.2-0.4
				c-0.5,0-0.8,0.1-1,0.2c-0.2,0.1-0.3,0.3-0.3,0.5c0,0.2,0.1,0.4,0.3,0.5c0.2,0.1,0.9,0.3,2.2,0.6c0.8,0.2,1.5,0.5,1.9,0.9
				c0.4,0.4,0.6,0.9,0.6,1.5c0,0.8-0.3,1.4-0.9,1.9c-0.6,0.5-1.5,0.7-2.7,0.7c-1.3,0-2.2-0.3-2.8-0.8c-0.6-0.5-0.9-1.2-0.9-2H754z"
				/>
			<path class="st2" d="M770,44.1c0.6,0.2,1,0.6,1.4,1.2c0.3,0.5,0.5,1,0.6,1.6c0.1,0.4,0.1,0.9,0.1,1.6h-5.8c0,0.8,0.3,1.4,0.8,1.7
				c0.3,0.2,0.7,0.3,1.1,0.3c0.5,0,0.9-0.1,1.2-0.4c0.2-0.1,0.3-0.3,0.4-0.5h2.1c-0.1,0.5-0.3,1-0.8,1.4c-0.7,0.8-1.7,1.2-3,1.2
				c-1.1,0-2-0.3-2.8-1c-0.8-0.7-1.2-1.7-1.2-3.2c0-1.4,0.4-2.4,1.1-3.2c0.7-0.7,1.7-1.1,2.8-1.1C768.8,43.7,769.5,43.8,770,44.1z
				 M766.9,45.9c-0.3,0.3-0.5,0.7-0.6,1.2h3.6c0-0.6-0.2-1-0.6-1.3c-0.3-0.3-0.7-0.4-1.2-0.4C767.6,45.4,767.2,45.6,766.9,45.9z"/>
			<path class="st2" d="M783.1,44c0.3,0.1,0.7,0.4,0.9,0.7c0.2,0.3,0.4,0.6,0.5,1c0,0.3,0.1,0.7,0.1,1.2l0,5h-2.1v-5.1
				c0-0.3,0-0.6-0.1-0.7c-0.2-0.4-0.5-0.6-1-0.6c-0.6,0-1,0.2-1.2,0.7c-0.1,0.3-0.2,0.6-0.2,0.9v4.7h-2.1v-4.7c0-0.5,0-0.8-0.1-1
				c-0.2-0.4-0.5-0.6-1-0.6c-0.6,0-1,0.2-1.2,0.6c-0.1,0.2-0.2,0.5-0.2,1v4.8h-2.1v-8h2v1.2c0.3-0.4,0.5-0.7,0.7-0.9
				c0.4-0.3,0.9-0.5,1.6-0.5c0.6,0,1.1,0.1,1.5,0.4c0.3,0.2,0.5,0.6,0.7,1c0.3-0.5,0.6-0.8,1-1c0.4-0.2,0.9-0.3,1.4-0.3
				C782.4,43.7,782.8,43.8,783.1,44z"/>
			<path class="st2" d="M795.8,44.1c0.6,0.2,1,0.6,1.4,1.2c0.3,0.5,0.5,1,0.6,1.6c0.1,0.4,0.1,0.9,0.1,1.6h-5.8
				c0,0.8,0.3,1.4,0.8,1.7c0.3,0.2,0.7,0.3,1.1,0.3c0.5,0,0.9-0.1,1.2-0.4c0.2-0.1,0.3-0.3,0.4-0.5h2.1c-0.1,0.5-0.3,1-0.8,1.4
				c-0.7,0.8-1.7,1.2-3,1.2c-1.1,0-2-0.3-2.8-1c-0.8-0.7-1.2-1.7-1.2-3.2c0-1.4,0.4-2.4,1.1-3.2c0.7-0.7,1.7-1.1,2.8-1.1
				C794.6,43.7,795.3,43.8,795.8,44.1z M792.7,45.9c-0.3,0.3-0.5,0.7-0.6,1.2h3.6c0-0.6-0.2-1-0.6-1.3c-0.3-0.3-0.7-0.4-1.2-0.4
				C793.4,45.4,793,45.6,792.7,45.9z"/>
			<path class="st2" d="M803.4,44.2c0.2,0.2,0.5,0.5,0.7,0.9v-1.2h2v11.1h-2.1v-4.1c-0.2,0.3-0.4,0.6-0.8,0.9s-0.9,0.4-1.5,0.4
				c-0.9,0-1.7-0.4-2.4-1.1c-0.6-0.7-1-1.7-1-2.9c0-1.3,0.3-2.4,1-3.2c0.7-0.8,1.5-1.2,2.4-1.2C802.5,43.7,803,43.9,803.4,44.2z
				 M803.9,49.4c0.2-0.4,0.3-0.9,0.3-1.5c0-0.5-0.1-0.9-0.2-1.3c-0.3-0.7-0.8-1-1.6-1c-0.5,0-1,0.2-1.3,0.6c-0.3,0.4-0.5,1-0.5,1.8
				c0,0.6,0.1,1,0.2,1.4c0.3,0.7,0.8,1,1.5,1C803.1,50.4,803.6,50,803.9,49.4z"/>
			<path class="st2" d="M810.2,43.9v4.8c0,0.5,0.1,0.8,0.2,1c0.2,0.4,0.6,0.6,1.1,0.6c0.7,0,1.2-0.3,1.5-0.9
				c0.1-0.3,0.2-0.7,0.2-1.2v-4.3h2.1v8h-2v-1.1c0,0-0.1,0.1-0.1,0.2c-0.1,0.1-0.2,0.2-0.3,0.3c-0.3,0.3-0.6,0.5-0.9,0.6
				s-0.7,0.2-1.1,0.2c-1.2,0-2-0.4-2.4-1.3c-0.2-0.5-0.3-1.2-0.3-2.1v-4.8H810.2z"/>
			<path class="st2" d="M819.4,43h-2.1V41h2.1V43z M817.3,43.9h2.1v8h-2.1V43.9z"/>
			<path class="st2" d="M828.1,44.8c0.7,0.7,1,1.7,1,3c0,1.4-0.3,2.5-1,3.2c-0.6,0.7-1.5,1.1-2.5,1.1c-0.6,0-1.2-0.2-1.6-0.5
				c-0.2-0.2-0.5-0.4-0.7-0.8V55h-2.1V43.9h2v1.2c0.2-0.3,0.5-0.6,0.7-0.8c0.5-0.4,1-0.5,1.7-0.5C826.7,43.7,827.5,44.1,828.1,44.8z
				 M826.5,46.3c-0.3-0.5-0.7-0.7-1.4-0.7c-0.8,0-1.3,0.4-1.6,1.1c-0.1,0.4-0.2,0.9-0.2,1.4c0,0.9,0.2,1.6,0.7,2
				c0.3,0.2,0.6,0.3,1,0.3c0.6,0,1-0.2,1.3-0.7s0.5-1,0.5-1.8C826.9,47.3,826.8,46.8,826.5,46.3z"/>
			<path class="st2" d="M835.8,44.1c0.6,0.2,1,0.6,1.4,1.2c0.3,0.5,0.5,1,0.6,1.6c0.1,0.4,0.1,0.9,0.1,1.6H832
				c0,0.8,0.3,1.4,0.8,1.7c0.3,0.2,0.7,0.3,1.1,0.3c0.5,0,0.9-0.1,1.2-0.4c0.2-0.1,0.3-0.3,0.4-0.5h2.1c-0.1,0.5-0.3,1-0.8,1.4
				c-0.7,0.8-1.7,1.2-3,1.2c-1.1,0-2-0.3-2.8-1c-0.8-0.7-1.2-1.7-1.2-3.2c0-1.4,0.4-2.4,1.1-3.2c0.7-0.7,1.7-1.1,2.9-1.1
				C834.6,43.7,835.2,43.8,835.8,44.1z M832.6,45.9c-0.3,0.3-0.5,0.7-0.6,1.2h3.6c0-0.6-0.2-1-0.6-1.3s-0.7-0.4-1.2-0.4
				C833.3,45.4,832.9,45.6,832.6,45.9z"/>
		</g>
		<rect x="690" y="12.6" class="st2" width="70.1" height="16.5"/>
		<g>
			<path class="st1" d="M694.9,16.5h1.9V22c0,0.6,0.1,1.1,0.2,1.4c0.2,0.5,0.7,0.8,1.5,0.8c0.8,0,1.3-0.3,1.5-0.8
				c0.1-0.3,0.2-0.7,0.2-1.4v-5.5h1.9V22c0,1-0.1,1.7-0.4,2.2c-0.6,1-1.6,1.5-3.2,1.5s-2.6-0.5-3.2-1.5c-0.3-0.5-0.4-1.3-0.4-2.2
				V16.5z"/>
			<path class="st1" d="M709.2,19.2c0.4,0.4,0.7,1,0.7,1.8v4.5H708v-4.1c0-0.4,0-0.6-0.1-0.8c-0.2-0.3-0.5-0.5-1-0.5
				c-0.6,0-1,0.3-1.2,0.8c-0.1,0.3-0.2,0.6-0.2,1v3.6h-1.7v-6.7h1.7v1c0.2-0.3,0.4-0.6,0.6-0.7c0.4-0.3,0.8-0.4,1.4-0.4
				C708.2,18.7,708.7,18.9,709.2,19.2z"/>
			<path class="st1" d="M713.2,18.1h-1.8v-1.6h1.8V18.1z M711.5,18.9h1.8v6.7h-1.8V18.9z"/>
			<path class="st1" d="M718.5,19c0.3,0.2,0.6,0.4,0.8,0.7v-3.2h1.8v9h-1.7v-0.9c-0.2,0.4-0.5,0.7-0.9,0.9c-0.3,0.2-0.7,0.3-1.2,0.3
				c-0.8,0-1.4-0.3-2-0.9c-0.5-0.6-0.8-1.4-0.8-2.4c0-1.1,0.3-2,0.8-2.7c0.5-0.7,1.2-1,2.1-1C717.8,18.7,718.1,18.8,718.5,19z
				 M718.9,23.7c0.3-0.4,0.4-0.8,0.4-1.4c0-0.8-0.2-1.4-0.6-1.7c-0.3-0.2-0.5-0.3-0.9-0.3c-0.5,0-0.9,0.2-1.1,0.6
				c-0.2,0.4-0.4,0.9-0.4,1.4c0,0.6,0.1,1.1,0.4,1.5c0.2,0.4,0.6,0.6,1.1,0.6S718.6,24.1,718.9,23.7z"/>
			<path class="st1" d="M725.2,21.5c0.3,0,0.6-0.1,0.7-0.2c0.2-0.1,0.4-0.3,0.4-0.5c0-0.3-0.1-0.5-0.3-0.6c-0.2-0.1-0.5-0.2-0.8-0.2
				c-0.4,0-0.7,0.1-0.9,0.3c-0.1,0.2-0.2,0.4-0.2,0.6h-1.7c0-0.6,0.2-1.1,0.5-1.4c0.5-0.6,1.3-0.9,2.4-0.9c0.7,0,1.4,0.1,2,0.4
				c0.6,0.3,0.9,0.8,0.9,1.6v3.1c0,0.2,0,0.5,0,0.8c0,0.2,0,0.4,0.1,0.5c0.1,0.1,0.1,0.1,0.3,0.2v0.3h-1.9c-0.1-0.1-0.1-0.3-0.1-0.4
				c0-0.1,0-0.3,0-0.4c-0.2,0.3-0.5,0.5-0.8,0.7c-0.4,0.2-0.8,0.3-1.3,0.3c-0.6,0-1.1-0.2-1.5-0.5c-0.4-0.3-0.6-0.8-0.6-1.5
				c0-0.8,0.3-1.4,1-1.8c0.3-0.2,0.9-0.3,1.5-0.4L725.2,21.5z M726.3,22.3c-0.1,0.1-0.2,0.1-0.3,0.2c-0.1,0-0.3,0.1-0.5,0.1
				l-0.4,0.1c-0.4,0.1-0.6,0.1-0.8,0.2c-0.3,0.2-0.4,0.4-0.4,0.7c0,0.3,0.1,0.5,0.3,0.6c0.2,0.1,0.4,0.2,0.6,0.2
				c0.4,0,0.7-0.1,1.1-0.3c0.3-0.2,0.5-0.6,0.5-1.2V22.3z"/>
			<path class="st1" d="M733.1,19c0.3,0.2,0.6,0.4,0.8,0.7v-3.2h1.8v9h-1.7v-0.9c-0.2,0.4-0.5,0.7-0.8,0.9c-0.3,0.2-0.7,0.3-1.2,0.3
				c-0.8,0-1.4-0.3-2-0.9c-0.5-0.6-0.8-1.4-0.8-2.4c0-1.1,0.3-2,0.8-2.7c0.5-0.7,1.2-1,2.1-1C732.4,18.7,732.8,18.8,733.1,19z
				 M733.5,23.7c0.3-0.4,0.4-0.8,0.4-1.4c0-0.8-0.2-1.4-0.6-1.7c-0.3-0.2-0.5-0.3-0.9-0.3c-0.5,0-0.9,0.2-1.1,0.6s-0.4,0.9-0.4,1.4
				c0,0.6,0.1,1.1,0.4,1.5c0.2,0.4,0.6,0.6,1.1,0.6C732.9,24.3,733.2,24.1,733.5,23.7z"/>
			<path class="st1" d="M741.5,19c0.5,0.2,0.8,0.5,1.2,1c0.3,0.4,0.5,0.9,0.5,1.4c0,0.3,0.1,0.7,0.1,1.3h-4.9c0,0.7,0.3,1.1,0.7,1.4
				c0.3,0.2,0.6,0.3,1,0.3c0.4,0,0.7-0.1,1-0.3c0.1-0.1,0.3-0.3,0.4-0.5h1.8c0,0.4-0.3,0.8-0.6,1.2c-0.6,0.6-1.4,1-2.5,1
				c-0.9,0-1.7-0.3-2.3-0.8s-1-1.4-1-2.7c0-1.2,0.3-2,0.9-2.7c0.6-0.6,1.4-0.9,2.4-0.9C740.5,18.7,741.1,18.8,741.5,19z M738.9,20.5
				c-0.2,0.3-0.4,0.6-0.5,1h3c0-0.5-0.2-0.8-0.5-1.1c-0.3-0.2-0.6-0.4-1-0.4C739.5,20.1,739.2,20.2,738.9,20.5z"/>
			<path class="st1" d="M753.4,23.6h-1v1.9h-1.7v-1.9h-3.5v-1.5l3.3-5.4h2v5.5h1V23.6z M750.7,22.2v-3.8l-2.2,3.8H750.7z"/>
		</g>
	</g>
	<rect x="37.4" y="0.3" class="st3" width="239.3" height="71.5"/>
	<g>
		<g>
			<path class="st2" d="M58.1,45.1c-0.2-0.7-0.6-1.3-1.3-1.5c-0.4-0.2-0.8-0.2-1.2-0.2c-0.9,0-1.6,0.3-2.1,1s-0.8,1.6-0.8,3
				c0,1.3,0.3,2.3,0.9,2.8s1.3,0.8,2.1,0.8c0.8,0,1.4-0.2,1.9-0.7c0.5-0.4,0.8-1,0.9-1.7h-2.5v-1.8h4.5v5.8h-1.5l-0.2-1.3
				c-0.4,0.5-0.8,0.9-1.2,1.1c-0.6,0.4-1.3,0.5-2.2,0.5c-1.4,0-2.6-0.5-3.5-1.5c-1-1-1.4-2.4-1.4-4.1c0-1.7,0.5-3.1,1.4-4.2
				c1-1.1,2.2-1.6,3.8-1.6c1.4,0,2.5,0.3,3.3,1s1.3,1.6,1.4,2.6H58.1z"/>
			<path class="st2" d="M67.5,44.7c0.6,0.2,1,0.6,1.4,1.2c0.3,0.5,0.5,1,0.6,1.6c0.1,0.4,0.1,0.9,0.1,1.6h-5.8
				c0,0.8,0.3,1.4,0.8,1.7c0.3,0.2,0.7,0.3,1.1,0.3c0.5,0,0.9-0.1,1.2-0.4c0.2-0.1,0.3-0.3,0.4-0.5h2.1c-0.1,0.5-0.3,1-0.8,1.4
				c-0.7,0.8-1.7,1.2-3,1.2c-1.1,0-2-0.3-2.8-1c-0.8-0.7-1.2-1.7-1.2-3.2c0-1.4,0.4-2.4,1.1-3.2s1.7-1.1,2.9-1.1
				C66.4,44.4,67,44.5,67.5,44.7z M64.4,46.5c-0.3,0.3-0.5,0.7-0.6,1.2h3.6c0-0.6-0.2-1-0.6-1.3c-0.3-0.3-0.7-0.4-1.2-0.4
				C65.1,46.1,64.7,46.2,64.4,46.5z"/>
			<path class="st2" d="M72.3,50c0,0.4,0.1,0.6,0.3,0.8c0.3,0.3,0.7,0.4,1.4,0.4c0.4,0,0.7-0.1,1-0.2c0.2-0.1,0.4-0.3,0.4-0.5
				c0-0.2-0.1-0.4-0.3-0.5s-0.9-0.3-2.2-0.6c-0.9-0.2-1.5-0.5-1.9-0.8c-0.4-0.3-0.6-0.8-0.6-1.4c0-0.7,0.3-1.4,0.9-1.9
				c0.6-0.5,1.4-0.8,2.4-0.8c1,0,1.8,0.2,2.4,0.6c0.6,0.4,1,1.1,1.1,2.1h-2.1c0-0.3-0.1-0.5-0.2-0.6c-0.2-0.3-0.6-0.4-1.2-0.4
				c-0.5,0-0.8,0.1-1,0.2s-0.3,0.3-0.3,0.5c0,0.2,0.1,0.4,0.3,0.5c0.2,0.1,0.9,0.3,2.2,0.6c0.8,0.2,1.5,0.5,1.9,0.9
				c0.4,0.4,0.6,0.9,0.6,1.5c0,0.8-0.3,1.4-0.9,1.9c-0.6,0.5-1.5,0.7-2.7,0.7c-1.3,0-2.2-0.3-2.8-0.8c-0.6-0.5-0.9-1.2-0.9-2H72.3z"
				/>
			<path class="st2" d="M78.2,46.1v-1.5h1.1v-2.2h2.1v2.2h1.3v1.5h-1.3v4.2c0,0.3,0,0.5,0.1,0.6c0.1,0.1,0.3,0.1,0.8,0.1
				c0.1,0,0.1,0,0.2,0c0.1,0,0.1,0,0.2,0v1.6l-1,0c-1,0-1.7-0.1-2-0.5c-0.2-0.2-0.4-0.6-0.4-1.1v-4.9H78.2z"/>
			<path class="st2" d="M87.1,47.7c0.4,0,0.7-0.1,0.8-0.2c0.3-0.1,0.4-0.3,0.4-0.6c0-0.3-0.1-0.6-0.3-0.7c-0.2-0.1-0.6-0.2-1-0.2
				c-0.5,0-0.9,0.1-1.1,0.4c-0.1,0.2-0.2,0.4-0.3,0.7h-2c0-0.7,0.2-1.3,0.6-1.7c0.6-0.7,1.5-1.1,2.8-1.1c0.9,0,1.7,0.2,2.3,0.5
				c0.7,0.3,1,1,1,2v3.7c0,0.3,0,0.6,0,0.9c0,0.3,0.1,0.5,0.1,0.6c0.1,0.1,0.2,0.2,0.3,0.2v0.3h-2.3c-0.1-0.2-0.1-0.3-0.1-0.5
				s0-0.3-0.1-0.5c-0.3,0.3-0.6,0.6-1,0.8c-0.5,0.3-1,0.4-1.5,0.4c-0.7,0-1.3-0.2-1.8-0.6s-0.7-1-0.7-1.8c0-1,0.4-1.7,1.1-2.1
				c0.4-0.2,1-0.4,1.8-0.5L87.1,47.7z M86.7,41.6c0.1,0,0.2,0.1,0.3,0.1l0.7,0.3c0.2,0.1,0.3,0.1,0.4,0.1c0.1,0,0.1,0,0.2,0
				c0.2,0,0.4-0.1,0.5-0.2s0.2-0.3,0.2-0.4h1c-0.1,0.5-0.3,0.9-0.5,1.3c-0.3,0.3-0.6,0.5-1.1,0.5c-0.2,0-0.4,0-0.6-0.1
				c-0.2,0-0.3-0.1-0.5-0.1l-0.6-0.2c-0.1,0-0.2-0.1-0.2-0.1c-0.1,0-0.2,0-0.2,0c-0.2,0-0.3,0.1-0.5,0.2c-0.1,0.1-0.2,0.3-0.2,0.5
				h-1c0.1-0.5,0.2-0.9,0.4-1.1c0.3-0.5,0.8-0.7,1.4-0.7C86.4,41.6,86.5,41.6,86.7,41.6z M88.4,48.7c-0.1,0.1-0.3,0.2-0.4,0.2
				S87.7,49,87.4,49L87,49.1c-0.4,0.1-0.8,0.2-1,0.3c-0.3,0.2-0.5,0.5-0.5,0.9c0,0.4,0.1,0.6,0.3,0.8c0.2,0.2,0.4,0.2,0.7,0.2
				c0.5,0,0.9-0.1,1.3-0.4c0.4-0.3,0.6-0.7,0.6-1.4V48.7z"/>
			<path class="st2" d="M99,51.6c-0.7,0.8-1.7,1.2-3.1,1.2c-1.4,0-2.4-0.4-3.1-1.2c-0.7-0.8-1-1.8-1-3c0-1.1,0.3-2.1,1-3
				c0.7-0.8,1.7-1.3,3.1-1.3c1.4,0,2.4,0.4,3.1,1.3c0.7,0.8,1,1.8,1,3C100,49.8,99.6,50.8,99,51.6z M97.3,50.4
				c0.3-0.4,0.5-1,0.5-1.8c0-0.8-0.2-1.4-0.5-1.8c-0.3-0.4-0.8-0.6-1.4-0.6c-0.6,0-1.1,0.2-1.4,0.6s-0.5,1-0.5,1.8
				c0,0.8,0.2,1.4,0.5,1.8c0.3,0.4,0.8,0.6,1.4,0.6C96.5,51.1,97,50.9,97.3,50.4z"/>
			<path class="st2" d="M109.8,44.7c0.4,0.2,0.7,0.5,0.9,0.9v-3.8h2.1v10.8h-2v-1.1c-0.3,0.5-0.6,0.8-1,1c-0.4,0.2-0.9,0.3-1.4,0.3
				c-0.9,0-1.7-0.4-2.4-1.1c-0.6-0.8-1-1.7-1-2.9c0-1.4,0.3-2.4,0.9-3.2c0.6-0.8,1.5-1.2,2.5-1.2C109,44.4,109.5,44.5,109.8,44.7z
				 M110.4,50.4c0.3-0.4,0.5-1,0.5-1.7c0-1-0.2-1.7-0.7-2.1c-0.3-0.3-0.7-0.4-1.1-0.4c-0.6,0-1.1,0.2-1.3,0.7
				c-0.3,0.5-0.4,1-0.4,1.7c0,0.7,0.1,1.3,0.4,1.8c0.3,0.4,0.7,0.7,1.3,0.7S110,50.8,110.4,50.4z"/>
			<path class="st2" d="M117.9,47.7c0.4,0,0.7-0.1,0.8-0.2c0.3-0.1,0.4-0.3,0.4-0.6c0-0.3-0.1-0.6-0.3-0.7c-0.2-0.1-0.6-0.2-1-0.2
				c-0.5,0-0.9,0.1-1.1,0.4c-0.1,0.2-0.2,0.4-0.3,0.7h-2c0-0.7,0.2-1.3,0.6-1.7c0.6-0.7,1.5-1.1,2.8-1.1c0.9,0,1.7,0.2,2.3,0.5
				c0.7,0.3,1,1,1,2v3.7c0,0.3,0,0.6,0,0.9c0,0.3,0.1,0.5,0.1,0.6c0.1,0.1,0.2,0.2,0.3,0.2v0.3h-2.3c-0.1-0.2-0.1-0.3-0.1-0.5
				s0-0.3-0.1-0.5c-0.3,0.3-0.6,0.6-1,0.8c-0.5,0.3-1,0.4-1.5,0.4c-0.7,0-1.3-0.2-1.8-0.6s-0.7-1-0.7-1.8c0-1,0.4-1.7,1.1-2.1
				c0.4-0.2,1-0.4,1.8-0.5L117.9,47.7z M119.2,48.7c-0.1,0.1-0.3,0.2-0.4,0.2s-0.3,0.1-0.6,0.1l-0.5,0.1c-0.4,0.1-0.8,0.2-1,0.3
				c-0.3,0.2-0.5,0.5-0.5,0.9c0,0.4,0.1,0.6,0.3,0.8c0.2,0.2,0.4,0.2,0.7,0.2c0.5,0,0.9-0.1,1.3-0.4c0.4-0.3,0.6-0.7,0.6-1.4V48.7z"
				/>
			<path class="st2" d="M132,47.4c0-0.3-0.1-0.6-0.3-0.8c-0.2-0.3-0.6-0.5-1.1-0.5c-0.7,0-1.2,0.3-1.4,1c-0.1,0.4-0.2,0.9-0.2,1.5
				c0,0.6,0.1,1.1,0.2,1.4c0.2,0.7,0.7,1,1.4,1c0.5,0,0.8-0.1,1-0.4c0.2-0.3,0.3-0.6,0.4-1h2.1c0,0.6-0.3,1.2-0.7,1.8
				c-0.7,0.9-1.6,1.4-2.9,1.4s-2.2-0.4-2.8-1.1c-0.6-0.8-0.9-1.7-0.9-3c0-1.4,0.3-2.4,1-3.2c0.7-0.8,1.6-1.1,2.8-1.1
				c1,0,1.8,0.2,2.5,0.7c0.6,0.4,1,1.2,1.1,2.4H132z"/>
			<path class="st2" d="M137.7,52.6h-2.1V41.8h2.1V52.6z"/>
			<path class="st2" d="M143.4,41.3l-2.2,2.2h-1.5l1.4-2.2H143.4z M139.8,44.6h2.1v8h-2.1V44.6z"/>
			<path class="st2" d="M150.3,45c0.5,0.4,0.8,1.1,0.8,2.1v5.4H149v-4.8c0-0.4-0.1-0.7-0.2-1c-0.2-0.4-0.6-0.6-1.2-0.6
				c-0.7,0-1.2,0.3-1.4,0.9c-0.1,0.3-0.2,0.7-0.2,1.2v4.3h-2.1v-8h2v1.2c0.3-0.4,0.5-0.7,0.8-0.9c0.4-0.3,1-0.5,1.6-0.5
				C149.1,44.4,149.8,44.6,150.3,45z"/>
			<path class="st2" d="M155.2,43.6h-2.1v-1.9h2.1V43.6z M153.1,44.6h2.1v8h-2.1V44.6z"/>
			<path class="st2" d="M162,47.4c0-0.3-0.1-0.6-0.3-0.8c-0.2-0.3-0.6-0.5-1.1-0.5c-0.7,0-1.2,0.3-1.4,1c-0.1,0.4-0.2,0.9-0.2,1.5
				c0,0.6,0.1,1.1,0.2,1.4c0.2,0.7,0.7,1,1.4,1c0.5,0,0.8-0.1,1-0.4c0.2-0.3,0.3-0.6,0.4-1h2.1c0,0.6-0.3,1.2-0.7,1.8
				c-0.7,0.9-1.6,1.4-2.9,1.4s-2.2-0.4-2.8-1.1c-0.6-0.8-0.9-1.7-0.9-3c0-1.4,0.3-2.4,1-3.2c0.7-0.8,1.6-1.1,2.8-1.1
				c1,0,1.8,0.2,2.5,0.7c0.6,0.4,1,1.2,1.1,2.4H162z"/>
			<path class="st2" d="M168.7,47.7c0.4,0,0.7-0.1,0.8-0.2c0.3-0.1,0.4-0.3,0.4-0.6c0-0.3-0.1-0.6-0.3-0.7c-0.2-0.1-0.6-0.2-1-0.2
				c-0.5,0-0.9,0.1-1.1,0.4c-0.1,0.2-0.2,0.4-0.3,0.7h-2c0-0.7,0.2-1.3,0.6-1.7c0.6-0.7,1.5-1.1,2.8-1.1c0.9,0,1.7,0.2,2.3,0.5
				c0.7,0.3,1,1,1,2v3.7c0,0.3,0,0.6,0,0.9c0,0.3,0.1,0.5,0.1,0.6c0.1,0.1,0.2,0.2,0.3,0.2v0.3h-2.3c-0.1-0.2-0.1-0.3-0.1-0.5
				s0-0.3-0.1-0.5c-0.3,0.3-0.6,0.6-1,0.8c-0.5,0.3-1,0.4-1.5,0.4c-0.7,0-1.3-0.2-1.8-0.6s-0.7-1-0.7-1.8c0-1,0.4-1.7,1.1-2.1
				c0.4-0.2,1-0.4,1.8-0.5L168.7,47.7z M170,48.7c-0.1,0.1-0.3,0.2-0.4,0.2S169.2,49,169,49l-0.5,0.1c-0.4,0.1-0.8,0.2-1,0.3
				c-0.3,0.2-0.5,0.5-0.5,0.9c0,0.4,0.1,0.6,0.3,0.8c0.2,0.2,0.4,0.2,0.7,0.2c0.5,0,0.9-0.1,1.3-0.4c0.4-0.3,0.6-0.7,0.6-1.4V48.7z"
				/>
			<path class="st2" d="M183.2,44.7c0.6,0.2,1,0.6,1.4,1.2c0.3,0.5,0.5,1,0.6,1.6c0.1,0.4,0.1,0.9,0.1,1.6h-5.8
				c0,0.8,0.3,1.4,0.8,1.7c0.3,0.2,0.7,0.3,1.1,0.3c0.5,0,0.9-0.1,1.2-0.4c0.2-0.1,0.3-0.3,0.4-0.5h2.1c-0.1,0.5-0.3,1-0.8,1.4
				c-0.7,0.8-1.7,1.2-3,1.2c-1.1,0-2-0.3-2.8-1c-0.8-0.7-1.2-1.7-1.2-3.2c0-1.4,0.4-2.4,1.1-3.2s1.7-1.1,2.9-1.1
				C182,44.4,182.7,44.5,183.2,44.7z M180.1,46.5c-0.3,0.3-0.5,0.7-0.6,1.2h3.6c0-0.6-0.2-1-0.6-1.3c-0.3-0.3-0.7-0.4-1.2-0.4
				C180.8,46.1,180.4,46.2,180.1,46.5z"/>
			<path class="st2" d="M194.7,44.7c0.4,0.2,0.7,0.5,0.9,0.9v-3.8h2.1v10.8h-2v-1.1c-0.3,0.5-0.6,0.8-1,1c-0.4,0.2-0.9,0.3-1.4,0.3
				c-0.9,0-1.7-0.4-2.4-1.1c-0.6-0.8-1-1.7-1-2.9c0-1.4,0.3-2.4,0.9-3.2c0.6-0.8,1.5-1.2,2.5-1.2C193.9,44.4,194.4,44.5,194.7,44.7z
				 M195.2,50.4c0.3-0.4,0.5-1,0.5-1.7c0-1-0.2-1.7-0.7-2.1c-0.3-0.3-0.7-0.4-1.1-0.4c-0.6,0-1.1,0.2-1.3,0.7
				c-0.3,0.5-0.4,1-0.4,1.7c0,0.7,0.1,1.3,0.4,1.8c0.3,0.4,0.7,0.7,1.3,0.7S194.9,50.8,195.2,50.4z"/>
			<path class="st2" d="M206.3,51.6c-0.7,0.8-1.7,1.2-3.1,1.2c-1.4,0-2.4-0.4-3.1-1.2c-0.7-0.8-1-1.8-1-3c0-1.1,0.3-2.1,1-3
				c0.7-0.8,1.7-1.3,3.1-1.3c1.4,0,2.4,0.4,3.1,1.3c0.7,0.8,1,1.8,1,3C207.3,49.8,207,50.8,206.3,51.6z M204.6,50.4
				c0.3-0.4,0.5-1,0.5-1.8c0-0.8-0.2-1.4-0.5-1.8c-0.3-0.4-0.8-0.6-1.4-0.6c-0.6,0-1.1,0.2-1.4,0.6s-0.5,1-0.5,1.8
				c0,0.8,0.2,1.4,0.5,1.8c0.3,0.4,0.8,0.6,1.4,0.6C203.8,51.1,204.3,50.9,204.6,50.4z"/>
			<path class="st2" d="M217.7,47.4c0-0.3-0.1-0.6-0.3-0.8c-0.2-0.3-0.6-0.5-1.1-0.5c-0.7,0-1.2,0.3-1.4,1c-0.1,0.4-0.2,0.9-0.2,1.5
				c0,0.6,0.1,1.1,0.2,1.4c0.2,0.7,0.7,1,1.4,1c0.5,0,0.8-0.1,1-0.4c0.2-0.3,0.3-0.6,0.4-1h2.1c0,0.6-0.3,1.2-0.7,1.8
				c-0.7,0.9-1.6,1.4-2.9,1.4s-2.2-0.4-2.8-1.1c-0.6-0.8-0.9-1.7-0.9-3c0-1.4,0.3-2.4,1-3.2c0.7-0.8,1.6-1.1,2.8-1.1
				c1,0,1.8,0.2,2.5,0.7c0.6,0.4,1,1.2,1.1,2.4H217.7z"/>
			<path class="st2" d="M223.4,44.6v4.8c0,0.5,0.1,0.8,0.2,1c0.2,0.4,0.6,0.6,1.1,0.6c0.7,0,1.2-0.3,1.5-0.9
				c0.1-0.3,0.2-0.7,0.2-1.2v-4.3h2.1v8h-2v-1.1c0,0-0.1,0.1-0.1,0.2c-0.1,0.1-0.2,0.2-0.3,0.3c-0.3,0.3-0.6,0.5-0.9,0.6
				c-0.3,0.1-0.7,0.2-1.1,0.2c-1.2,0-2-0.4-2.4-1.3c-0.2-0.5-0.3-1.2-0.3-2.1v-4.8H223.4z"/>
			<path class="st2" d="M232.6,43.6h-2.1v-1.9h2.1V43.6z M230.5,44.6h2.1v8h-2.1V44.6z"/>
			<path class="st2" d="M238.8,44.7c0.4,0.2,0.7,0.5,0.9,0.9v-3.8h2.1v10.8h-2v-1.1c-0.3,0.5-0.6,0.8-1,1c-0.4,0.2-0.9,0.3-1.4,0.3
				c-0.9,0-1.7-0.4-2.4-1.1c-0.6-0.8-1-1.7-1-2.9c0-1.4,0.3-2.4,0.9-3.2c0.6-0.8,1.5-1.2,2.5-1.2C238,44.4,238.4,44.5,238.8,44.7z
				 M239.3,50.4c0.3-0.4,0.5-1,0.5-1.7c0-1-0.2-1.7-0.7-2.1c-0.3-0.3-0.7-0.4-1.1-0.4c-0.6,0-1.1,0.2-1.3,0.7
				c-0.3,0.5-0.4,1-0.4,1.7c0,0.7,0.1,1.3,0.4,1.8c0.3,0.4,0.7,0.7,1.3,0.7S239,50.8,239.3,50.4z"/>
			<path class="st2" d="M246.9,47.7c0.4,0,0.7-0.1,0.8-0.2c0.3-0.1,0.4-0.3,0.4-0.6c0-0.3-0.1-0.6-0.3-0.7c-0.2-0.1-0.6-0.2-1-0.2
				c-0.5,0-0.9,0.1-1.1,0.4c-0.1,0.2-0.2,0.4-0.3,0.7h-2c0-0.7,0.2-1.3,0.6-1.7c0.6-0.7,1.5-1.1,2.8-1.1c0.9,0,1.7,0.2,2.3,0.5
				c0.7,0.3,1,1,1,2v3.7c0,0.3,0,0.6,0,0.9c0,0.3,0.1,0.5,0.1,0.6c0.1,0.1,0.2,0.2,0.3,0.2v0.3h-2.3c-0.1-0.2-0.1-0.3-0.1-0.5
				s0-0.3-0.1-0.5c-0.3,0.3-0.6,0.6-1,0.8c-0.5,0.3-1,0.4-1.5,0.4c-0.7,0-1.3-0.2-1.8-0.6s-0.7-1-0.7-1.8c0-1,0.4-1.7,1.1-2.1
				c0.4-0.2,1-0.4,1.8-0.5L246.9,47.7z M248.2,48.7c-0.1,0.1-0.3,0.2-0.4,0.2s-0.3,0.1-0.6,0.1l-0.5,0.1c-0.4,0.1-0.8,0.2-1,0.3
				c-0.3,0.2-0.5,0.5-0.5,0.9c0,0.4,0.1,0.6,0.3,0.8c0.2,0.2,0.4,0.2,0.7,0.2c0.5,0,0.9-0.1,1.3-0.4c0.4-0.3,0.6-0.7,0.6-1.4V48.7z"
				/>
			<path class="st2" d="M256.3,44.7c0.4,0.2,0.7,0.5,0.9,0.9v-3.8h2.1v10.8h-2v-1.1c-0.3,0.5-0.6,0.8-1,1c-0.4,0.2-0.9,0.3-1.4,0.3
				c-0.9,0-1.7-0.4-2.4-1.1c-0.6-0.8-1-1.7-1-2.9c0-1.4,0.3-2.4,0.9-3.2c0.6-0.8,1.5-1.2,2.5-1.2C255.5,44.4,255.9,44.5,256.3,44.7z
				 M256.8,50.4c0.3-0.4,0.5-1,0.5-1.7c0-1-0.2-1.7-0.7-2.1c-0.3-0.3-0.7-0.4-1.1-0.4c-0.6,0-1.1,0.2-1.3,0.7
				c-0.3,0.5-0.4,1-0.4,1.7c0,0.7,0.1,1.3,0.4,1.8c0.3,0.4,0.7,0.7,1.3,0.7S256.5,50.8,256.8,50.4z"/>
			<path class="st2" d="M267.9,51.6c-0.7,0.8-1.7,1.2-3.1,1.2c-1.4,0-2.4-0.4-3.1-1.2c-0.7-0.8-1-1.8-1-3c0-1.1,0.3-2.1,1-3
				c0.7-0.8,1.7-1.3,3.1-1.3c1.4,0,2.4,0.4,3.1,1.3c0.7,0.8,1,1.8,1,3C268.9,49.8,268.5,50.8,267.9,51.6z M266.2,50.4
				c0.3-0.4,0.5-1,0.5-1.8c0-0.8-0.2-1.4-0.5-1.8c-0.3-0.4-0.8-0.6-1.4-0.6c-0.6,0-1.1,0.2-1.4,0.6s-0.5,1-0.5,1.8
				c0,0.8,0.2,1.4,0.5,1.8c0.3,0.4,0.8,0.6,1.4,0.6C265.4,51.1,265.9,50.9,266.2,50.4z"/>
		</g>
		<rect x="45.8" y="13.2" class="st2" width="62" height="16.5"/>
		<g>
			<path class="st3" d="M56.7,17.2h2.7v9h-1.8v-6.1c0-0.2,0-0.4,0-0.7c0-0.3,0-0.6,0-0.7l-1.7,7.6h-1.8l-1.7-7.6c0,0.2,0,0.4,0,0.7
				c0,0.3,0,0.6,0,0.7v6.1h-1.8v-9h2.7l1.6,7.1L56.7,17.2z"/>
			<path class="st3" d="M66.5,25.4c-0.6,0.7-1.4,1-2.6,1s-2-0.3-2.6-1s-0.8-1.5-0.8-2.5c0-1,0.3-1.8,0.8-2.5
				c0.6-0.7,1.4-1.1,2.6-1.1s2,0.4,2.6,1.1c0.6,0.7,0.8,1.5,0.8,2.5C67.4,23.8,67.1,24.7,66.5,25.4z M65.1,24.4
				c0.3-0.4,0.4-0.9,0.4-1.5s-0.1-1.2-0.4-1.5c-0.3-0.4-0.7-0.5-1.2-0.5c-0.5,0-0.9,0.2-1.2,0.5c-0.3,0.4-0.4,0.9-0.4,1.5
				s0.1,1.2,0.4,1.5c0.3,0.4,0.7,0.5,1.2,0.5C64.5,24.9,64.9,24.8,65.1,24.4z M66,16.8l-1.9,1.8h-1.3l1.2-1.8H66z"/>
			<path class="st3" d="M72.1,19.6c0.3,0.2,0.6,0.4,0.8,0.7v-3.2h1.8v9H73v-0.9c-0.2,0.4-0.5,0.7-0.9,0.9c-0.3,0.2-0.7,0.3-1.2,0.3
				c-0.8,0-1.4-0.3-2-0.9S68.2,24,68.2,23c0-1.1,0.3-2,0.8-2.7c0.5-0.7,1.2-1,2.1-1C71.5,19.4,71.8,19.4,72.1,19.6z M72.6,24.4
				c0.3-0.4,0.4-0.8,0.4-1.4c0-0.8-0.2-1.4-0.6-1.7c-0.3-0.2-0.5-0.3-0.9-0.3c-0.5,0-0.9,0.2-1.1,0.6c-0.2,0.4-0.4,0.9-0.4,1.4
				c0,0.6,0.1,1.1,0.4,1.5c0.2,0.4,0.6,0.6,1.1,0.6C71.9,24.9,72.3,24.7,72.6,24.4z"/>
			<path class="st3" d="M78,19.5v4c0,0.4,0,0.7,0.1,0.9c0.2,0.3,0.5,0.5,0.9,0.5c0.6,0,1-0.2,1.2-0.7c0.1-0.3,0.2-0.6,0.2-1v-3.6
				h1.8v6.7h-1.7v-0.9c0,0-0.1,0.1-0.1,0.2c-0.1,0.1-0.1,0.2-0.2,0.3c-0.3,0.2-0.5,0.4-0.8,0.5c-0.3,0.1-0.6,0.1-0.9,0.1
				c-1,0-1.6-0.4-2-1.1c-0.2-0.4-0.3-1-0.3-1.7v-4H78z"/>
			<path class="st3" d="M85.7,26.2h-1.7v-9h1.7V26.2z"/>
			<path class="st3" d="M92.9,25.4c-0.6,0.7-1.4,1-2.6,1s-2-0.3-2.6-1S87,23.8,87,22.9c0-1,0.3-1.8,0.8-2.5c0.6-0.7,1.4-1.1,2.6-1.1
				s2,0.4,2.6,1.1c0.6,0.7,0.8,1.5,0.8,2.5C93.8,23.8,93.5,24.7,92.9,25.4z M91.6,24.4c0.3-0.4,0.4-0.9,0.4-1.5s-0.1-1.2-0.4-1.5
				c-0.3-0.4-0.7-0.5-1.2-0.5c-0.5,0-0.9,0.2-1.2,0.5c-0.3,0.4-0.4,0.9-0.4,1.5s0.1,1.2,0.4,1.5c0.3,0.4,0.7,0.5,1.2,0.5
				C90.9,24.9,91.3,24.8,91.6,24.4z"/>
			<path class="st3" d="M98.5,24.4c0.2-0.6,0.8-1.2,1.8-1.9c0.8-0.6,1.3-1,1.6-1.2c0.4-0.4,0.5-0.8,0.5-1.3c0-0.4-0.1-0.7-0.3-0.9
				c-0.2-0.2-0.5-0.4-0.9-0.4c-0.5,0-0.9,0.2-1.1,0.6c-0.1,0.2-0.2,0.6-0.2,1.1h-1.7c0-0.8,0.2-1.4,0.4-1.8c0.5-0.9,1.3-1.3,2.5-1.3
				c0.9,0,1.7,0.3,2.2,0.8c0.6,0.5,0.8,1.2,0.8,2.1c0,0.7-0.2,1.2-0.6,1.7c-0.3,0.3-0.7,0.7-1.3,1.1l-0.7,0.5
				c-0.4,0.3-0.7,0.5-0.9,0.7s-0.3,0.3-0.4,0.5h3.9v1.5h-6.1C98.1,25.5,98.2,25,98.5,24.4z"/>
		</g>
	</g>
</g>
</svg>
