<?xml version="1.0" encoding="utf-8"?>
<!-- Generator: Adobe Illustrator 24.3.0, SVG Export Plug-In . SVG Version: 6.00 Build 0)  -->
<svg version="1.1" id="Camada_1" xmlns="http://www.w3.org/2000/svg" xmlns:xlink="http://www.w3.org/1999/xlink" x="0px" y="0px"
	 viewBox="0 0 250 410" style="enable-background:new 0 0 250 410;" xml:space="preserve">
<style type="text/css">
	.st0{fill:#30459A;}
	.st1{fill:#1A6F4D;}
	.st2{fill:#FFFFFF;}
	.st3{fill:none;stroke:#304599;stroke-width:2;stroke-miterlimit:10;}
	.st4{fill:none;stroke:#30459A;stroke-width:3;stroke-linecap:round;stroke-linejoin:round;}
	.st5{fill:#0F4468;}
	.st6{fill:#FFE287;}
	.st7{fill:#FFCC00;}
	.st8{fill:#344CA3;}
</style>
<g>
	<g transform="matrix( 1, 0, 0, 1, 14.85,95.35) ">
		<g>
			<g id="Layer3_1_MEMBER_0_FILL">
				<path class="st0" d="M211.2,41c-5.6-13.2-13.5-24.8-23.6-35c-10.2-10.2-21.8-18-35-23.6c-13.7-5.8-28-8.6-42.9-8.6
					s-29.2,2.9-42.8,8.6C53.6-12.1,42-4.2,31.8,6s-18,21.8-23.6,35c-5.8,13.7-8.6,28-8.6,42.9s2.9,29.2,8.6,42.9
					c5.6,13.2,13.5,24.8,23.6,35c10.1,10.2,21.8,18,35,23.6c13.6,5.8,27.9,8.7,42.8,8.7c14.9,0,29.2-2.9,42.9-8.7
					c13.2-5.6,24.8-13.5,35-23.6c10.2-10.2,18-21.8,23.6-35c5.8-13.7,8.7-28,8.7-42.9C219.8,68.9,217,54.6,211.2,41z"/>
			</g>
		</g>
	</g>
	<g transform="matrix( 1, 0, 0, 1, 14.85,95.35) ">
		<g>
			<g id="Layer3_1_MEMBER_1_MEMBER_0_FILL">
				<path class="st1" d="M207.7,28.1h-9.6v118c0,0.7-0.2,1.2-0.7,1.7s-1,0.7-1.7,0.7c-3,0-6,0-8.9,0.1c-1.3,0.1-2.2,0.1-2.9,0.2
					l-17.1,1.3l-18.4,3.1l-6.3,1.6l-13.1,4.4l-8.1,4.1l-3.2,2.2l-2.4,2.3c-0.2,0.2-0.6,0.7-1.2,1.4l-0.6,0.8
					c-0.4,0.7-0.8,1.4-1.1,2.2l-0.1,0.1h95.3V28.1z"/>
			</g>
		</g>
	</g>
	<g transform="matrix( 1, 0, 0, 1, 14.85,95.35) ">
		<g>
			<g id="Layer3_1_MEMBER_1_MEMBER_1_FILL">
				<path class="st1" d="M21.1,28.1h-9.6v144.3h95.3l-0.1-0.1c-0.3-0.7-0.6-1.5-1-2.2l-0.7-0.8c-0.4-0.6-0.8-1.1-1.2-1.4l-1-1
					c-0.6-0.6-1.1-1.1-1.5-1.3l-3.1-2.2l-3.8-2.1l-11.8-4.8l-18.8-4.6l-11.6-1.7l-20-1.5c-3.9-0.1-6.8-0.2-8.9-0.2
					c-0.7,0-1.2-0.2-1.7-0.7c-0.5-0.4-0.7-1-0.7-1.7V28.1z"/>
			</g>
		</g>
	</g>
	<g transform="matrix( 1, 0, 0, 1, 14.85,95.35) ">
		<g>
			<g id="Layer3_1_MEMBER_1_MEMBER_2_FILL">
				<path class="st2" d="M185.1,143.9c3.7-0.1,6.4-0.2,8.3-0.2V-4.6c-23.4,0.2-43.1,3.1-59,8.6C119.5,9.2,112,15.1,112,21.7v123.5
					c0,0.7-0.2,1.2-0.7,1.7c-0.4,0.5-1,0.7-1.7,0.7c-0.7,0-1.2-0.2-1.7-0.7s-0.7-1-0.7-1.7V21.7c0-6.6-7.5-12.5-22.4-17.7
					C69-1.6,49.3-4.4,25.9-4.6h-0.1v148.3c3.7,0.1,6.5,0.1,8.3,0.2l2.6,0.1c2.5,0.1,4.3,0.2,5.5,0.3l15.3,1.7l7.4,1.2
					c1.6,0.3,2.4,0.4,2.5,0.4l6.6,1.4c2.1,0.5,4.2,1.1,6.2,1.6c0.3,0.1,0.8,0.2,1.4,0.4c2.3,0.7,3.7,1.1,4.2,1.4l7.1,2.8
					c0.8,0.3,1.8,0.8,2.9,1.3l5.8,3.2c0.9,0.6,1.6,1.1,2.3,1.7l1.1,0.8c1.2,1,2.1,1.9,2.8,2.6l0.2,0.3c0.7,0.7,1.2,1.5,1.8,2.2
					c0.4-0.5,0.7-0.9,0.9-1.1c0.3-0.4,0.6-0.8,0.8-1l2.7-2.6c0.9-0.8,2-1.6,3.3-2.5l8.5-4.6l2-0.8c0.8-0.4,1.9-0.8,3.1-1.2l12.8-3.9
					l14.9-3.1L185.1,143.9z"/>
			</g>
		</g>
		<g>
			<path id="Layer3_1_MEMBER_1_MEMBER_2_1_STROKES" class="st3" d="M114,162.7c0.9-0.8,2-1.6,3.3-2.5l8.5-4.6l2-0.8
				c0.8-0.4,1.9-0.8,3.1-1.2l12.8-3.9l14.9-3.1l26.6-2.6c3.7-0.1,6.4-0.2,8.3-0.2V-4.6c-23.4,0.2-43.1,3.1-59,8.6
				C119.5,9.2,112,15.1,112,21.7v123.5c0,0.7-0.2,1.2-0.7,1.7c-0.4,0.5-1,0.7-1.7,0.7c-0.7,0-1.2-0.2-1.7-0.7s-0.7-1-0.7-1.7V21.7
				c0-6.6-7.5-12.5-22.4-17.7C69-1.6,49.3-4.4,25.9-4.6h-0.1v148.3c3.7,0.1,6.5,0.1,8.3,0.2l2.6,0.1c2.5,0.1,4.3,0.2,5.5,0.3
				l15.3,1.7l7.4,1.2c1.6,0.3,2.4,0.4,2.5,0.4l6.6,1.4c2.1,0.5,4.2,1.1,6.2,1.6c0.3,0.1,0.8,0.2,1.4,0.4c2.3,0.7,3.7,1.1,4.2,1.4
				l7.1,2.8c0.8,0.3,1.8,0.8,2.9,1.3l5.8,3.2c0.9,0.6,1.6,1.1,2.3,1.7l1.1,0.8c1.2,1,2.1,1.9,2.8,2.6l0.2,0.3
				c0.7,0.7,1.2,1.5,1.8,2.2c0.4-0.5,0.7-0.9,0.9-1.1c0.3-0.4,0.6-0.8,0.8-1L114,162.7z"/>
		</g>
	</g>
	<g transform="matrix( 1, 0, 0, 1, 121,224.1) ">
		<g transform="matrix( 1, 0, 0, 1, -121,-224.1) ">
			<g>
				<g id="Circ_0_Layer0_0_FILL">
					<path class="st0" d="M153,202.8c-7.6,0-14.1,2.7-19.4,8.1s-8.1,11.8-8.1,19.4c0,7.6,2.7,14.1,8.1,19.5s11.9,8.1,19.4,8.1
						s14.1-2.7,19.4-8.1s8.1-11.9,8.1-19.5c0-7.6-2.7-14.1-8.1-19.4S160.6,202.8,153,202.8z"/>
				</g>
			</g>
			<g>
				<path id="Circ_0_Layer0_0_1_STROKES" class="st4" d="M185.5,230.3c0,9-3.2,16.6-9.5,23c-6.3,6.3-14,9.5-23,9.5
					c-9,0-16.6-3.2-23-9.5c-6.3-6.4-9.5-14-9.5-23c0-9,3.2-16.7,9.5-23c6.4-6.3,14-9.5,23-9.5c9,0,16.7,3.2,23,9.5
					C182.3,213.7,185.5,221.3,185.5,230.3z"/>
			</g>
		</g>
	</g>
	<g transform="matrix( 1.023895263671875, 0, 0, 1.023895263671875, 138.95,246.9) ">
		<g transform="matrix( 1, 0, 0, 1, -138.8,-246.7) ">
			<g>
				<g id="Mao_0_Layer0_0_FILL">
					<path class="st5" d="M149,222.1c-2.8,1.3-4.7,3.3-5.8,6.2c-1.1,2.9-1,5.7,0.2,8.4l11.4,25.1c-1.5-0.8-2.8-1.4-3.9-1.7
						c-1.4-0.4-2.6-0.5-3.8-0.3c-2.6,0.4-4.8,1.9-6.7,4.6c-0.9,1.8-1.5,3.1-1.8,3.8c-0.4,1.4-0.5,2.8-0.3,4.1
						c0.2,1.4,0.8,2.7,1.6,4.1c0.8,1.2,1.9,2.5,3.3,3.9c6.7,6.3,13.1,11.7,19.2,16.1c7,5.1,13.7,9.1,20,12c0.5,0.2,1,0.3,1.5,0.3
						s1-0.1,1.5-0.3l30.3-13.8c0.7-0.3,1.3-0.9,1.7-1.6c1.1-2,1.9-4.4,2.4-7.2c0.4-2.4,0.6-5.2,0.6-8.4c0-3-0.3-6-0.7-9.2
						c-0.5-3.2-1.1-6.3-1.9-9.2c-1.9-6.6-4.4-11.8-7.5-15.6c-1.8-2.2-3.9-3.7-6.3-4.6c-2.6-1-5.2-1.1-7.8-0.4
						c-0.5,0.2-1.4,0.7-2.4,1.4c-1.2-1-2.5-1.6-3.9-1.8c-2.2-0.4-4.3-0.2-6.3,0.8c-1,0.5-1.9,1.3-2.9,2.4l-0.9-0.4
						c-0.4-0.2-0.7-0.4-1-0.5c-2.1-0.4-4.2-0.2-6.2,0.8c-0.7,0.3-1.4,0.7-2.2,1.3l-6.8-14.9c-1.3-2.8-3.4-4.7-6.2-5.8
						C154.6,220.7,151.8,220.8,149,222.1 M150.1,230.8c0.3-0.9,1-1.6,1.9-2.1c1-0.4,1.9-0.5,2.8-0.1c0.9,0.4,1.6,1,2.1,1.9l9.7,21.3
						c0.3,0.8,0.9,1.4,1.7,1.8s1.6,0.5,2.4,0.4c0.8-0.2,1.5-0.6,2.1-1.2c0.6-0.7,0.9-1.5,0.9-2.3c0.2-1,0.7-1.7,1.3-2.1
						c0.5-0.4,1.3-0.6,2.3-0.7c0.3,0,0.6,0.1,0.7,0.2c0.3,0.2,0.5,0.6,0.8,1.2c0.3,0.8,0.9,1.4,1.7,1.8c0.8,0.4,1.6,0.6,2.4,0.4
						c0.8-0.2,1.5-0.6,2.1-1.2c0.6-0.7,0.9-1.4,0.9-2.3c0-1,0.2-1.6,0.6-1.9c0.3-0.2,0.9-0.3,2-0.4c0.3,0.1,0.6,0.2,0.7,0.3
						c0.3,0.2,0.5,0.5,0.8,1.1c0.3,0.6,0.7,1.1,1.4,1.5c0.6,0.4,1.3,0.6,2,0.6c0.7,0,1.4-0.2,2-0.6c0.6-0.5,1.1-1,1.4-1.6l0.8-0.5
						c0.5-0.4,0.9-0.6,1.2-0.6c1.1-0.3,2.1-0.2,3,0.1c0.9,0.4,1.9,1.3,3,2.6c1.1,1.3,2.2,3.1,3.3,5.4c1.1,2.2,2,4.7,2.8,7.3
						c0.7,2.6,1.3,5.4,1.7,8.2c0.4,2.9,0.6,5.6,0.6,8.3c0,2.3-0.1,4.4-0.4,6.4c-0.3,1.8-0.7,3.4-1.3,4.6l-27.2,12.4
						c-6.8-3.8-14.1-8.4-21.7-14c-9.7-7-15.3-12.2-16.8-15.7c0.1-1,0.4-1.8,0.9-2.5c0.5-0.8,1.1-1.3,1.8-1.5c1,0,1.9,0.2,2.6,0.6
						c0.4,0.2,1.2,0.8,2.4,1.6l8.5,6.9c0.7,0.5,1.4,0.8,2.3,0.9c0.9,0,1.7-0.2,2.4-0.8c0.6-0.5,1.1-1.2,1.3-2.1
						c0.2-0.9,0.1-1.7-0.2-2.5l-17.4-38.2C149.8,232.7,149.8,231.8,150.1,230.8z"/>
					<path class="st2" d="M152,228.8c-1,0.4-1.6,1.1-1.9,2.1c-0.3,0.9-0.3,1.9,0.1,2.8l17.4,38.2c0.3,0.8,0.4,1.6,0.2,2.5
						c-0.2,0.9-0.7,1.6-1.3,2.1c-0.7,0.5-1.4,0.8-2.4,0.8c-0.9,0-1.6-0.3-2.3-0.9l-8.5-6.9c-1.1-0.9-1.9-1.4-2.4-1.6
						c-0.7-0.4-1.6-0.6-2.6-0.6c-0.7,0.2-1.3,0.7-1.8,1.5c-0.5,0.7-0.8,1.5-0.9,2.5c1.5,3.5,7.1,8.7,16.8,15.7
						c7.6,5.6,14.9,10.2,21.7,14l27.2-12.4c0.6-1.2,1-2.8,1.3-4.6c0.3-2,0.5-4.1,0.4-6.4c0-2.6-0.2-5.4-0.6-8.3
						c-0.4-2.9-1-5.6-1.7-8.2c-0.8-2.7-1.7-5.1-2.8-7.3c-1.1-2.3-2.2-4.1-3.3-5.4c-1.1-1.3-2.1-2.2-3-2.6c-0.9-0.4-1.9-0.4-3-0.1
						c-0.3,0-0.7,0.2-1.2,0.6l-0.8,0.5c-0.3,0.6-0.7,1.2-1.4,1.6c-0.6,0.4-1.3,0.6-2,0.6c-0.7,0-1.4-0.2-2-0.6
						c-0.7-0.4-1.1-0.9-1.4-1.5c-0.3-0.6-0.5-0.9-0.8-1.1c-0.1-0.1-0.4-0.2-0.7-0.3c-1,0.1-1.7,0.2-2,0.4c-0.4,0.3-0.6,0.9-0.6,1.9
						c0,0.9-0.3,1.6-0.9,2.3c-0.6,0.7-1.3,1.1-2.1,1.2c-0.8,0.2-1.6,0-2.4-0.4c-0.8-0.4-1.4-1-1.7-1.8c-0.3-0.6-0.5-1-0.8-1.2
						c-0.1-0.1-0.4-0.2-0.7-0.2c-1,0.1-1.8,0.3-2.3,0.7c-0.6,0.4-1.1,1.1-1.3,2.1c0,0.8-0.3,1.6-0.9,2.3c-0.6,0.7-1.3,1.1-2.1,1.2
						c-0.8,0.2-1.6,0-2.4-0.4s-1.4-1-1.7-1.8l-9.7-21.3c-0.4-0.9-1.1-1.6-2.1-1.9C154,228.3,153,228.4,152,228.8z"/>
				</g>
			</g>
		</g>
	</g>
	<g transform="matrix( 1.1058197021484375, 0, 0, 1.1058197021484375, 112.55,219.2) ">
		<g transform="matrix( 1, 0, 0, 1, -118,-224.95) ">
			<g>
				<g id="Click_0_Layer0_0_FILL">
					<path class="st6" d="M119.4,228c-0.5,0.3-1,0.6-1.3,1.1c-0.3,0.5-0.5,1-0.6,1.7c-0.1,1,0.2,1.9,0.8,2.7
						c0.6,0.8,1.5,1.3,2.5,1.4l14.8,1.4c1,0.1,1.9-0.2,2.7-0.8c0.8-0.6,1.2-1.5,1.3-2.4c0.1-1-0.2-1.9-0.8-2.7
						c-0.7-0.8-1.5-1.2-2.5-1.4l-14.7-1.4C120.8,227.5,120,227.7,119.4,228 M161.2,217.6c-0.6,0.8-0.8,1.7-0.6,2.8
						c0.1,1,0.6,1.8,1.4,2.4c0.8,0.6,1.8,0.8,2.8,0.6c1-0.2,1.8-0.7,2.4-1.5l8.6-12c0.6-0.8,0.8-1.8,0.6-2.8c-0.2-1-0.7-1.8-1.5-2.4
						c-1.3-0.7-2.5-0.9-3.5-0.4c-0.6,0.2-1.1,0.6-1.6,1.2L161.2,217.6 M138.8,201.5c-0.9,0.4-1.6,1.1-1.9,2.1
						c-0.3,0.9-0.3,1.9,0.1,2.8l6.1,13.5c0.4,0.9,1.1,1.6,2,1.9c1,0.4,1.9,0.4,2.9-0.1c0.9-0.4,1.6-1.1,1.9-2.1
						c0.3-1,0.3-1.9-0.1-2.8l-6.1-13.4c-0.4-0.9-1.1-1.6-2.1-1.9C140.7,201.1,139.8,201.1,138.8,201.5z"/>
				</g>
			</g>
		</g>
	</g>
</g>
<rect x="15.3" y="307" class="st7" width="220.4" height="42.5"/>
<rect x="45" y="53.1" class="st7" width="153.6" height="27.6"/>
<g>
	<path class="st8" d="M26.5,311.5h1.2l2.9,7.9h-1.2l-0.8-2.4h-3.1l-0.9,2.4h-1.1L26.5,311.5z M28.3,316.1l-1.2-3.5l-1.3,3.5H28.3z"
		/>
	<path class="st8" d="M35.2,313.9c0.4,0.3,0.7,0.9,0.7,1.6H35c-0.1-0.4-0.2-0.6-0.4-0.9c-0.2-0.2-0.5-0.4-1-0.4
		c-0.6,0-1.1,0.3-1.3,0.9c-0.2,0.4-0.3,0.9-0.3,1.4c0,0.6,0.1,1.1,0.4,1.5c0.2,0.4,0.6,0.6,1.1,0.6c0.4,0,0.7-0.1,1-0.4
		c0.2-0.2,0.4-0.6,0.5-1H36c-0.1,0.8-0.4,1.3-0.8,1.7s-1,0.5-1.6,0.5c-0.8,0-1.4-0.3-1.8-0.8c-0.4-0.5-0.7-1.2-0.7-2.1
		c0-1,0.2-1.8,0.7-2.4c0.5-0.6,1.1-0.8,1.9-0.8C34.3,313.4,34.8,313.6,35.2,313.9z"/>
	<path class="st8" d="M40.5,313.8c0.4,0.2,0.7,0.4,0.9,0.7c0.2,0.3,0.3,0.6,0.4,1c0.1,0.3,0.1,0.7,0.1,1.3h-4.2
		c0,0.6,0.2,1.1,0.4,1.4c0.3,0.4,0.7,0.5,1.2,0.5c0.5,0,0.9-0.2,1.2-0.5c0.2-0.2,0.3-0.4,0.4-0.7h1c0,0.2-0.1,0.4-0.2,0.7
		c-0.1,0.3-0.3,0.5-0.5,0.6c-0.3,0.3-0.7,0.5-1.1,0.6c-0.2,0.1-0.5,0.1-0.8,0.1c-0.7,0-1.3-0.3-1.8-0.8c-0.5-0.5-0.7-1.3-0.7-2.2
		c0-0.9,0.2-1.7,0.7-2.3c0.5-0.6,1.1-0.9,2-0.9C39.7,313.5,40.1,313.6,40.5,313.8z M40.8,316c0-0.4-0.1-0.8-0.3-1
		c-0.3-0.5-0.7-0.7-1.3-0.7c-0.4,0-0.8,0.2-1.1,0.5c-0.3,0.3-0.5,0.7-0.5,1.2H40.8z"/>
	<path class="st8" d="M43.6,317.5c0,0.3,0.1,0.6,0.2,0.7c0.2,0.3,0.7,0.5,1.3,0.5c0.4,0,0.7-0.1,1-0.2c0.3-0.2,0.4-0.4,0.4-0.7
		c0-0.2-0.1-0.4-0.3-0.6c-0.1-0.1-0.4-0.2-0.8-0.3l-0.8-0.2c-0.5-0.1-0.9-0.3-1.1-0.4c-0.4-0.3-0.6-0.6-0.6-1.1c0-0.5,0.2-1,0.6-1.3
		c0.4-0.3,0.9-0.5,1.6-0.5c0.9,0,1.5,0.3,1.9,0.8c0.2,0.3,0.4,0.7,0.4,1h-0.9c0-0.2-0.1-0.4-0.2-0.6c-0.2-0.3-0.6-0.4-1.2-0.4
		c-0.4,0-0.7,0.1-0.8,0.2c-0.2,0.1-0.3,0.3-0.3,0.6c0,0.2,0.1,0.4,0.4,0.6c0.1,0.1,0.4,0.2,0.6,0.2l0.7,0.2c0.7,0.2,1.2,0.3,1.4,0.5
		c0.4,0.2,0.6,0.6,0.6,1.2c0,0.5-0.2,1-0.6,1.3c-0.4,0.4-1,0.6-1.8,0.6c-0.9,0-1.5-0.2-1.8-0.6c-0.4-0.4-0.6-0.9-0.6-1.4H43.6z"/>
	<path class="st8" d="M49.1,317.5c0,0.3,0.1,0.6,0.2,0.7c0.2,0.3,0.7,0.5,1.3,0.5c0.4,0,0.7-0.1,1-0.2c0.3-0.2,0.4-0.4,0.4-0.7
		c0-0.2-0.1-0.4-0.3-0.6c-0.1-0.1-0.4-0.2-0.8-0.3l-0.8-0.2c-0.5-0.1-0.9-0.3-1.1-0.4c-0.4-0.3-0.6-0.6-0.6-1.1c0-0.5,0.2-1,0.6-1.3
		c0.4-0.3,0.9-0.5,1.6-0.5c0.9,0,1.5,0.3,1.9,0.8c0.2,0.3,0.4,0.7,0.4,1h-0.9c0-0.2-0.1-0.4-0.2-0.6c-0.2-0.3-0.6-0.4-1.2-0.4
		c-0.4,0-0.7,0.1-0.8,0.2c-0.2,0.1-0.3,0.3-0.3,0.6c0,0.2,0.1,0.4,0.4,0.6c0.1,0.1,0.4,0.2,0.6,0.2L51,316c0.7,0.2,1.2,0.3,1.4,0.5
		c0.4,0.2,0.6,0.6,0.6,1.2c0,0.5-0.2,1-0.6,1.3c-0.4,0.4-1,0.6-1.8,0.6c-0.9,0-1.5-0.2-1.8-0.6c-0.4-0.4-0.6-0.9-0.6-1.4H49.1z"/>
	<path class="st8" d="M57.6,313.8c0.4,0.2,0.7,0.4,0.9,0.7c0.2,0.3,0.3,0.6,0.4,1c0.1,0.3,0.1,0.7,0.1,1.3h-4.2
		c0,0.6,0.2,1.1,0.4,1.4c0.3,0.4,0.7,0.5,1.2,0.5c0.5,0,0.9-0.2,1.2-0.5c0.2-0.2,0.3-0.4,0.4-0.7h1c0,0.2-0.1,0.4-0.2,0.7
		c-0.1,0.3-0.3,0.5-0.5,0.6c-0.3,0.3-0.7,0.5-1.1,0.6c-0.2,0.1-0.5,0.1-0.8,0.1c-0.7,0-1.3-0.3-1.8-0.8c-0.5-0.5-0.7-1.3-0.7-2.2
		c0-0.9,0.2-1.7,0.7-2.3c0.5-0.6,1.1-0.9,2-0.9C56.8,313.5,57.2,313.6,57.6,313.8z M58,316c0-0.4-0.1-0.8-0.3-1
		c-0.3-0.5-0.7-0.7-1.3-0.7c-0.4,0-0.8,0.2-1.1,0.5c-0.3,0.3-0.5,0.7-0.5,1.2H58z"/>
	<path class="st8" d="M63.2,313.6h0.9v0.8c0.3-0.3,0.6-0.6,0.9-0.7s0.6-0.2,1-0.2c0.8,0,1.4,0.3,1.7,0.9c0.2,0.3,0.2,0.8,0.2,1.3
		v3.7h-1v-3.6c0-0.4-0.1-0.6-0.2-0.8c-0.2-0.4-0.5-0.5-0.9-0.5c-0.2,0-0.4,0-0.6,0.1c-0.3,0.1-0.5,0.2-0.7,0.5
		c-0.2,0.2-0.3,0.4-0.3,0.6c0,0.2-0.1,0.5-0.1,0.9v3h-1V313.6z"/>
	<path class="st8" d="M73.5,314.2c0.5,0.5,0.8,1.2,0.8,2.2c0,0.9-0.2,1.7-0.7,2.3c-0.4,0.6-1.1,0.9-2.1,0.9c-0.8,0-1.4-0.3-1.9-0.8
		c-0.5-0.5-0.7-1.3-0.7-2.2c0-1,0.2-1.7,0.7-2.3c0.5-0.6,1.1-0.9,2-0.9C72.4,313.4,73,313.7,73.5,314.2z M72.9,318
		c0.2-0.5,0.4-1,0.4-1.6c0-0.5-0.1-1-0.3-1.3c-0.3-0.5-0.7-0.8-1.4-0.8c-0.6,0-1,0.2-1.3,0.7c-0.3,0.5-0.4,1-0.4,1.6
		c0,0.6,0.1,1.1,0.4,1.5c0.3,0.4,0.7,0.6,1.3,0.6C72.2,318.7,72.7,318.5,72.9,318z"/>
	<path class="st8" d="M81.6,315.9c0.2,0,0.4-0.1,0.4-0.3c0-0.1,0.1-0.2,0.1-0.4c0-0.3-0.1-0.6-0.4-0.7c-0.2-0.1-0.6-0.2-1-0.2
		c-0.5,0-0.9,0.1-1.1,0.4c-0.1,0.2-0.2,0.4-0.2,0.7h-0.9c0-0.7,0.2-1.2,0.7-1.5c0.4-0.3,1-0.4,1.5-0.4c0.7,0,1.2,0.1,1.6,0.4
		c0.4,0.3,0.6,0.7,0.6,1.2v3.3c0,0.1,0,0.2,0.1,0.2c0,0.1,0.1,0.1,0.3,0.1c0,0,0.1,0,0.1,0c0.1,0,0.1,0,0.2,0v0.7
		c-0.2,0-0.3,0.1-0.3,0.1s-0.2,0-0.3,0c-0.3,0-0.6-0.1-0.7-0.4c-0.1-0.1-0.1-0.3-0.2-0.5c-0.2,0.3-0.5,0.5-0.8,0.7
		c-0.4,0.2-0.8,0.3-1.2,0.3c-0.5,0-1-0.2-1.3-0.5c-0.3-0.3-0.5-0.7-0.5-1.2c0-0.5,0.2-0.9,0.5-1.2s0.8-0.5,1.3-0.5L81.6,315.9z
		 M79.6,318.5c0.2,0.2,0.4,0.2,0.7,0.2c0.3,0,0.7-0.1,1-0.2c0.5-0.3,0.8-0.7,0.8-1.3v-0.8c-0.1,0.1-0.3,0.1-0.5,0.2
		c-0.2,0-0.4,0.1-0.5,0.1l-0.6,0.1c-0.4,0-0.6,0.1-0.8,0.2c-0.3,0.2-0.4,0.4-0.4,0.8C79.3,318.1,79.4,318.3,79.6,318.5z"/>
	<path class="st8" d="M84.7,313.6h0.9v1c0.1-0.2,0.3-0.4,0.6-0.7s0.6-0.4,1-0.4c0,0,0,0,0.1,0s0.1,0,0.2,0v1c-0.1,0-0.1,0-0.2,0
		c0,0-0.1,0-0.2,0c-0.5,0-0.9,0.2-1.1,0.5c-0.3,0.3-0.4,0.7-0.4,1.1v3.3h-1V313.6z"/>
	<path class="st8" d="M91.5,313.8c0.2,0.1,0.4,0.3,0.5,0.6v-0.8H93v8h-1v-3c-0.2,0.3-0.4,0.5-0.7,0.6c-0.3,0.2-0.6,0.2-1.1,0.2
		c-0.6,0-1.2-0.2-1.6-0.7s-0.7-1.2-0.7-2.2c0-0.9,0.2-1.7,0.7-2.3c0.5-0.6,1-0.9,1.8-0.9C90.8,313.5,91.2,313.6,91.5,313.8z
		 M89.1,317.8c0.2,0.6,0.7,0.9,1.3,0.9c0.7,0,1.1-0.3,1.4-0.9c0.1-0.3,0.2-0.8,0.2-1.3c0-0.5-0.1-0.9-0.2-1.2
		c-0.3-0.6-0.7-0.9-1.4-0.9c-0.4,0-0.8,0.2-1.1,0.5s-0.4,0.9-0.4,1.7C88.9,317,89,317.5,89.1,317.8z"/>
	<path class="st8" d="M95.4,313.6v3.8c0,0.3,0,0.5,0.1,0.7c0.2,0.3,0.5,0.5,0.9,0.5c0.7,0,1.1-0.3,1.3-0.9c0.1-0.3,0.2-0.8,0.2-1.3
		v-2.8h1v5.8H98l0-0.8c-0.1,0.2-0.3,0.4-0.5,0.6c-0.4,0.3-0.8,0.5-1.3,0.5c-0.8,0-1.4-0.3-1.6-0.8c-0.2-0.3-0.2-0.7-0.2-1.2v-3.9
		H95.4z"/>
	<path class="st8" d="M100.5,311.5h1v1.1h-1V311.5z M100.5,313.6h1v5.7h-1V313.6z"/>
	<path class="st8" d="M103.5,313.6l1.5,4.7l1.6-4.7h1.1l-2.2,5.8h-1l-2.1-5.8H103.5z"/>
	<path class="st8" d="M112.7,314.2c0.5,0.5,0.8,1.2,0.8,2.2c0,0.9-0.2,1.7-0.7,2.3c-0.4,0.6-1.1,0.9-2.1,0.9c-0.8,0-1.4-0.3-1.9-0.8
		c-0.5-0.5-0.7-1.3-0.7-2.2c0-1,0.2-1.7,0.7-2.3c0.5-0.6,1.1-0.9,2-0.9C111.5,313.4,112.1,313.7,112.7,314.2z M112.1,318
		c0.2-0.5,0.4-1,0.4-1.6c0-0.5-0.1-1-0.3-1.3c-0.3-0.5-0.7-0.8-1.4-0.8c-0.6,0-1,0.2-1.3,0.7c-0.3,0.5-0.4,1-0.4,1.6
		c0,0.6,0.1,1.1,0.4,1.5c0.3,0.4,0.7,0.6,1.3,0.6C111.4,318.7,111.8,318.5,112.1,318z"/>
	<path class="st8" d="M121.8,314.2c0.5,0.5,0.8,1.2,0.8,2.2c0,0.9-0.2,1.7-0.7,2.3c-0.4,0.6-1.1,0.9-2.1,0.9c-0.8,0-1.4-0.3-1.9-0.8
		c-0.5-0.5-0.7-1.3-0.7-2.2c0-1,0.2-1.7,0.7-2.3c0.5-0.6,1.1-0.9,2-0.9C120.7,313.4,121.3,313.7,121.8,314.2z M121.2,318
		c0.2-0.5,0.4-1,0.4-1.6c0-0.5-0.1-1-0.3-1.3c-0.3-0.5-0.7-0.8-1.4-0.8c-0.6,0-1,0.2-1.3,0.7c-0.3,0.5-0.4,1-0.4,1.6
		c0,0.6,0.1,1.1,0.4,1.5c0.3,0.4,0.7,0.6,1.3,0.6C120.6,318.7,121,318.5,121.2,318z"/>
	<path class="st8" d="M124.3,317.5c0,0.3,0.1,0.6,0.2,0.7c0.2,0.3,0.7,0.5,1.3,0.5c0.4,0,0.7-0.1,1-0.2c0.3-0.2,0.4-0.4,0.4-0.7
		c0-0.2-0.1-0.4-0.3-0.6c-0.1-0.1-0.4-0.2-0.8-0.3l-0.8-0.2c-0.5-0.1-0.9-0.3-1.1-0.4c-0.4-0.3-0.6-0.6-0.6-1.1c0-0.5,0.2-1,0.6-1.3
		c0.4-0.3,0.9-0.5,1.6-0.5c0.9,0,1.5,0.3,1.9,0.8c0.2,0.3,0.4,0.7,0.4,1h-0.9c0-0.2-0.1-0.4-0.2-0.6c-0.2-0.3-0.6-0.4-1.2-0.4
		c-0.4,0-0.7,0.1-0.8,0.2c-0.2,0.1-0.3,0.3-0.3,0.6c0,0.2,0.1,0.4,0.4,0.6c0.1,0.1,0.4,0.2,0.6,0.2l0.7,0.2c0.7,0.2,1.2,0.3,1.4,0.5
		c0.4,0.2,0.6,0.6,0.6,1.2c0,0.5-0.2,1-0.6,1.3c-0.4,0.4-1,0.6-1.8,0.6c-0.9,0-1.5-0.2-1.8-0.6c-0.4-0.4-0.6-0.9-0.6-1.4H124.3z"/>
	<path class="st8" d="M135.5,313.8c0.2,0.1,0.4,0.3,0.6,0.6v-2.9h0.9v7.9h-0.9v-0.8c-0.2,0.4-0.5,0.6-0.8,0.8s-0.7,0.2-1.1,0.2
		c-0.6,0-1.2-0.3-1.7-0.8c-0.5-0.5-0.7-1.3-0.7-2.2c0-0.8,0.2-1.6,0.6-2.2c0.4-0.6,1-0.9,1.8-0.9
		C134.8,313.5,135.2,313.6,135.5,313.8z M133.3,318.1c0.3,0.4,0.7,0.6,1.3,0.6c0.4,0,0.8-0.2,1.1-0.6c0.3-0.4,0.4-0.9,0.4-1.7
		c0-0.7-0.1-1.3-0.4-1.6c-0.3-0.3-0.7-0.5-1.1-0.5c-0.5,0-0.9,0.2-1.2,0.6c-0.3,0.4-0.5,0.9-0.5,1.6
		C132.9,317.2,133.1,317.7,133.3,318.1z"/>
	<path class="st8" d="M138.4,311.5h1v1.1h-1V311.5z M138.4,313.6h1v5.7h-1V313.6z"/>
	<path class="st8" d="M141.4,313.6l1.5,4.7l1.6-4.7h1.1l-2.2,5.8h-1l-2.1-5.8H141.4z"/>
	<path class="st8" d="M149.9,313.8c0.4,0.2,0.7,0.4,0.9,0.7c0.2,0.3,0.3,0.6,0.4,1c0.1,0.3,0.1,0.7,0.1,1.3h-4.2
		c0,0.6,0.2,1.1,0.4,1.4c0.3,0.4,0.7,0.5,1.2,0.5c0.5,0,0.9-0.2,1.2-0.5c0.2-0.2,0.3-0.4,0.4-0.7h1c0,0.2-0.1,0.4-0.2,0.7
		c-0.1,0.3-0.3,0.5-0.5,0.6c-0.3,0.3-0.7,0.5-1.1,0.6c-0.2,0.1-0.5,0.1-0.8,0.1c-0.7,0-1.3-0.3-1.8-0.8c-0.5-0.5-0.7-1.3-0.7-2.2
		c0-0.9,0.2-1.7,0.7-2.3c0.5-0.6,1.1-0.9,2-0.9C149.2,313.5,149.6,313.6,149.9,313.8z M150.3,316c0-0.4-0.1-0.8-0.3-1
		c-0.3-0.5-0.7-0.7-1.3-0.7c-0.4,0-0.8,0.2-1.1,0.5c-0.3,0.3-0.5,0.7-0.5,1.2H150.3z"/>
	<path class="st8" d="M152.5,313.6h0.9v1c0.1-0.2,0.3-0.4,0.6-0.7c0.3-0.3,0.6-0.4,1-0.4c0,0,0,0,0.1,0s0.1,0,0.2,0v1
		c-0.1,0-0.1,0-0.2,0c0,0-0.1,0-0.2,0c-0.5,0-0.9,0.2-1.1,0.5c-0.3,0.3-0.4,0.7-0.4,1.1v3.3h-1V313.6z"/>
	<path class="st8" d="M156.7,317.5c0,0.3,0.1,0.6,0.2,0.7c0.2,0.3,0.7,0.5,1.3,0.5c0.4,0,0.7-0.1,1-0.2c0.3-0.2,0.4-0.4,0.4-0.7
		c0-0.2-0.1-0.4-0.3-0.6c-0.1-0.1-0.4-0.2-0.8-0.3l-0.8-0.2c-0.5-0.1-0.9-0.3-1.1-0.4c-0.4-0.3-0.6-0.6-0.6-1.1c0-0.5,0.2-1,0.6-1.3
		c0.4-0.3,0.9-0.5,1.6-0.5c0.9,0,1.5,0.3,1.9,0.8c0.2,0.3,0.4,0.7,0.4,1h-0.9c0-0.2-0.1-0.4-0.2-0.6c-0.2-0.3-0.6-0.4-1.2-0.4
		c-0.4,0-0.7,0.1-0.8,0.2c-0.2,0.1-0.3,0.3-0.3,0.6c0,0.2,0.1,0.4,0.4,0.6c0.1,0.1,0.4,0.2,0.6,0.2l0.7,0.2c0.7,0.2,1.2,0.3,1.4,0.5
		c0.4,0.2,0.6,0.6,0.6,1.2c0,0.5-0.2,1-0.6,1.3c-0.4,0.4-1,0.6-1.8,0.6c-0.9,0-1.5-0.2-1.8-0.6c-0.4-0.4-0.6-0.9-0.6-1.4H156.7z"/>
	<path class="st8" d="M165.8,314.2c0.5,0.5,0.8,1.2,0.8,2.2c0,0.9-0.2,1.7-0.7,2.3c-0.4,0.6-1.1,0.9-2.1,0.9c-0.8,0-1.4-0.3-1.9-0.8
		c-0.5-0.5-0.7-1.3-0.7-2.2c0-1,0.2-1.7,0.7-2.3s1.1-0.9,2-0.9C164.7,313.4,165.3,313.7,165.8,314.2z M165.2,318
		c0.2-0.5,0.4-1,0.4-1.6c0-0.5-0.1-1-0.3-1.3c-0.3-0.5-0.7-0.8-1.4-0.8c-0.6,0-1,0.2-1.3,0.7c-0.3,0.5-0.4,1-0.4,1.6
		c0,0.6,0.1,1.1,0.4,1.5c0.3,0.4,0.7,0.6,1.3,0.6C164.6,318.7,165,318.5,165.2,318z"/>
	<path class="st8" d="M168.4,317.5c0,0.3,0.1,0.6,0.2,0.7c0.2,0.3,0.7,0.5,1.3,0.5c0.4,0,0.7-0.1,1-0.2c0.3-0.2,0.4-0.4,0.4-0.7
		c0-0.2-0.1-0.4-0.3-0.6c-0.1-0.1-0.4-0.2-0.8-0.3l-0.8-0.2c-0.5-0.1-0.9-0.3-1.1-0.4c-0.4-0.3-0.6-0.6-0.6-1.1c0-0.5,0.2-1,0.6-1.3
		c0.4-0.3,0.9-0.5,1.6-0.5c0.9,0,1.5,0.3,1.9,0.8c0.2,0.3,0.4,0.7,0.4,1h-0.9c0-0.2-0.1-0.4-0.2-0.6c-0.2-0.3-0.6-0.4-1.2-0.4
		c-0.4,0-0.7,0.1-0.8,0.2c-0.2,0.1-0.3,0.3-0.3,0.6c0,0.2,0.1,0.4,0.4,0.6c0.1,0.1,0.4,0.2,0.6,0.2l0.7,0.2c0.7,0.2,1.2,0.3,1.4,0.5
		c0.4,0.2,0.6,0.6,0.6,1.2c0,0.5-0.2,1-0.6,1.3c-0.4,0.4-1,0.6-1.8,0.6c-0.9,0-1.5-0.2-1.8-0.6c-0.4-0.4-0.6-0.9-0.6-1.4H168.4z"/>
	<path class="st8" d="M176.6,311.5h3.5c0.7,0,1.3,0.2,1.7,0.6c0.4,0.4,0.6,1,0.6,1.7c0,0.6-0.2,1.2-0.6,1.6c-0.4,0.5-1,0.7-1.8,0.7
		h-2.5v3.3h-1.1V311.5z M180.7,312.5c-0.2-0.1-0.6-0.2-1-0.2h-2.1v2.7h2.1c0.5,0,0.9-0.1,1.2-0.3s0.4-0.6,0.4-1.1
		C181.4,313.1,181.2,312.7,180.7,312.5z"/>
	<path class="st8" d="M183.7,313.6h0.9v1c0.1-0.2,0.3-0.4,0.6-0.7c0.3-0.3,0.6-0.4,1-0.4c0,0,0,0,0.1,0s0.1,0,0.2,0v1
		c-0.1,0-0.1,0-0.2,0c0,0-0.1,0-0.2,0c-0.5,0-0.9,0.2-1.1,0.5c-0.3,0.3-0.4,0.7-0.4,1.1v3.3h-1V313.6z"/>
	<path class="st8" d="M191.5,314.2c0.5,0.5,0.8,1.2,0.8,2.2c0,0.9-0.2,1.7-0.7,2.3c-0.4,0.6-1.1,0.9-2.1,0.9c-0.8,0-1.4-0.3-1.9-0.8
		c-0.5-0.5-0.7-1.3-0.7-2.2c0-1,0.2-1.7,0.7-2.3s1.1-0.9,2-0.9C190.4,313.4,191,313.7,191.5,314.2z M190.9,318
		c0.2-0.5,0.4-1,0.4-1.6c0-0.5-0.1-1-0.3-1.3c-0.3-0.5-0.7-0.8-1.4-0.8c-0.6,0-1,0.2-1.3,0.7c-0.3,0.5-0.4,1-0.4,1.6
		c0,0.6,0.1,1.1,0.4,1.5c0.3,0.4,0.7,0.6,1.3,0.6C190.2,318.7,190.7,318.5,190.9,318z"/>
	<path class="st8" d="M193.7,312h1v1.6h0.9v0.8h-0.9v3.8c0,0.2,0.1,0.3,0.2,0.4c0.1,0,0.2,0.1,0.4,0.1c0,0,0.1,0,0.2,0s0.1,0,0.2,0
		v0.8c-0.1,0-0.2,0.1-0.3,0.1c-0.1,0-0.2,0-0.4,0c-0.5,0-0.8-0.1-0.9-0.3c-0.2-0.2-0.2-0.5-0.2-0.9v-3.8h-0.8v-0.8h0.8V312z"/>
	<path class="st8" d="M200.7,314.2c0.5,0.5,0.8,1.2,0.8,2.2c0,0.9-0.2,1.7-0.7,2.3c-0.4,0.6-1.1,0.9-2.1,0.9c-0.8,0-1.4-0.3-1.9-0.8
		c-0.5-0.5-0.7-1.3-0.7-2.2c0-1,0.2-1.7,0.7-2.3s1.1-0.9,2-0.9C199.6,313.4,200.2,313.7,200.7,314.2z M200.1,318
		c0.2-0.5,0.4-1,0.4-1.6c0-0.5-0.1-1-0.3-1.3c-0.3-0.5-0.7-0.8-1.4-0.8c-0.6,0-1,0.2-1.3,0.7c-0.3,0.5-0.4,1-0.4,1.6
		c0,0.6,0.1,1.1,0.4,1.5c0.3,0.4,0.7,0.6,1.3,0.6C199.4,318.7,199.9,318.5,200.1,318z"/>
	<path class="st8" d="M206.4,313.9c0.4,0.3,0.7,0.9,0.7,1.6h-0.9c-0.1-0.4-0.2-0.6-0.4-0.9c-0.2-0.2-0.5-0.4-1-0.4
		c-0.6,0-1.1,0.3-1.3,0.9c-0.2,0.4-0.3,0.9-0.3,1.4c0,0.6,0.1,1.1,0.4,1.5c0.2,0.4,0.6,0.6,1.1,0.6c0.4,0,0.7-0.1,1-0.4
		c0.2-0.2,0.4-0.6,0.5-1h0.9c-0.1,0.8-0.4,1.3-0.8,1.7s-1,0.5-1.6,0.5c-0.8,0-1.4-0.3-1.8-0.8c-0.4-0.5-0.7-1.2-0.7-2.1
		c0-1,0.2-1.8,0.7-2.4c0.5-0.6,1.1-0.8,1.9-0.8C205.5,313.4,206,313.6,206.4,313.9z"/>
	<path class="st8" d="M212.3,314.2c0.5,0.5,0.8,1.2,0.8,2.2c0,0.9-0.2,1.7-0.7,2.3c-0.4,0.6-1.1,0.9-2.1,0.9c-0.8,0-1.4-0.3-1.9-0.8
		c-0.5-0.5-0.7-1.3-0.7-2.2c0-1,0.2-1.7,0.7-2.3c0.5-0.6,1.1-0.9,2-0.9C211.2,313.4,211.8,313.7,212.3,314.2z M211.7,318
		c0.2-0.5,0.4-1,0.4-1.6c0-0.5-0.1-1-0.3-1.3c-0.3-0.5-0.7-0.8-1.4-0.8c-0.6,0-1,0.2-1.3,0.7c-0.3,0.5-0.4,1-0.4,1.6
		c0,0.6,0.1,1.1,0.4,1.5c0.3,0.4,0.7,0.6,1.3,0.6C211,318.7,211.5,318.5,211.7,318z"/>
	<path class="st8" d="M214.3,311.5h1v7.9h-1V311.5z"/>
	<path class="st8" d="M220.9,314.2c0.5,0.5,0.8,1.2,0.8,2.2c0,0.9-0.2,1.7-0.7,2.3c-0.4,0.6-1.1,0.9-2.1,0.9c-0.8,0-1.4-0.3-1.9-0.8
		c-0.5-0.5-0.7-1.3-0.7-2.2c0-1,0.2-1.7,0.7-2.3c0.5-0.6,1.1-0.9,2-0.9C219.7,313.4,220.4,313.7,220.9,314.2z M220.3,318
		c0.2-0.5,0.4-1,0.4-1.6c0-0.5-0.1-1-0.3-1.3c-0.3-0.5-0.7-0.8-1.4-0.8c-0.6,0-1,0.2-1.3,0.7c-0.3,0.5-0.4,1-0.4,1.6
		c0,0.6,0.1,1.1,0.4,1.5c0.3,0.4,0.7,0.6,1.3,0.6C219.6,318.7,220,318.5,220.3,318z"/>
	<path class="st8" d="M223.4,317.5c0,0.3,0.1,0.6,0.2,0.7c0.2,0.3,0.7,0.5,1.3,0.5c0.4,0,0.7-0.1,1-0.2c0.3-0.2,0.4-0.4,0.4-0.7
		c0-0.2-0.1-0.4-0.3-0.6c-0.1-0.1-0.4-0.2-0.8-0.3l-0.8-0.2c-0.5-0.1-0.9-0.3-1.1-0.4c-0.4-0.3-0.6-0.6-0.6-1.1c0-0.5,0.2-1,0.6-1.3
		c0.4-0.3,0.9-0.5,1.6-0.5c0.9,0,1.5,0.3,1.9,0.8c0.2,0.3,0.4,0.7,0.4,1h-0.9c0-0.2-0.1-0.4-0.2-0.6c-0.2-0.3-0.6-0.4-1.2-0.4
		c-0.4,0-0.7,0.1-0.8,0.2c-0.2,0.1-0.3,0.3-0.3,0.6c0,0.2,0.1,0.4,0.4,0.6c0.1,0.1,0.4,0.2,0.6,0.2l0.7,0.2c0.7,0.2,1.2,0.3,1.4,0.5
		c0.4,0.2,0.6,0.6,0.6,1.2c0,0.5-0.2,1-0.6,1.3c-0.4,0.4-1,0.6-1.8,0.6c-0.9,0-1.5-0.2-1.8-0.6c-0.4-0.4-0.6-0.9-0.6-1.4H223.4z"/>
	<path class="st8" d="M30.2,326.9c0.4,0.2,0.7,0.4,0.9,0.7c0.2,0.3,0.3,0.6,0.4,1c0.1,0.3,0.1,0.7,0.1,1.3h-4.2
		c0,0.6,0.2,1.1,0.4,1.4c0.3,0.4,0.7,0.5,1.2,0.5c0.5,0,0.9-0.2,1.2-0.5c0.2-0.2,0.3-0.4,0.4-0.7h1c0,0.2-0.1,0.4-0.2,0.7
		c-0.1,0.3-0.3,0.5-0.5,0.6c-0.3,0.3-0.7,0.5-1.1,0.6c-0.2,0.1-0.5,0.1-0.8,0.1c-0.7,0-1.3-0.3-1.8-0.8c-0.5-0.5-0.7-1.3-0.7-2.2
		c0-0.9,0.2-1.7,0.7-2.2c0.5-0.6,1.1-0.9,2-0.9C29.4,326.7,29.8,326.8,30.2,326.9z M30.5,329.2c0-0.4-0.1-0.8-0.3-1
		c-0.3-0.5-0.7-0.7-1.3-0.7c-0.4,0-0.8,0.2-1.1,0.5s-0.5,0.7-0.5,1.2H30.5z"/>
	<path class="st8" d="M35.9,324.7h1.3l3.9,6.4v-6.4h1v7.9H41l-4-6.4v6.4h-1V324.7z"/>
	<path class="st8" d="M47.9,327.4c0.5,0.5,0.8,1.2,0.8,2.2c0,0.9-0.2,1.7-0.7,2.3c-0.4,0.6-1.1,0.9-2.1,0.9c-0.8,0-1.4-0.3-1.9-0.8
		s-0.7-1.3-0.7-2.2c0-1,0.2-1.7,0.7-2.3c0.5-0.6,1.1-0.9,2-0.9C46.8,326.6,47.4,326.9,47.9,327.4z M47.3,331.2
		c0.2-0.5,0.4-1,0.4-1.6c0-0.5-0.1-1-0.3-1.3c-0.3-0.5-0.7-0.8-1.4-0.8c-0.6,0-1,0.2-1.3,0.7s-0.4,1-0.4,1.6c0,0.6,0.1,1.1,0.4,1.5
		s0.7,0.6,1.3,0.6C46.7,331.9,47.1,331.7,47.3,331.2z"/>
	<path class="st8" d="M50.1,325.2h1v1.6H52v0.8h-0.9v3.8c0,0.2,0.1,0.3,0.2,0.4c0.1,0,0.2,0.1,0.4,0.1c0,0,0.1,0,0.2,0
		c0.1,0,0.1,0,0.2,0v0.8c-0.1,0-0.2,0.1-0.3,0.1c-0.1,0-0.2,0-0.4,0c-0.5,0-0.8-0.1-0.9-0.3c-0.2-0.2-0.2-0.5-0.2-0.9v-3.8h-0.8
		v-0.8h0.8V325.2z"/>
	<path class="st8" d="M56,329.1c0.2,0,0.4-0.1,0.4-0.3c0-0.1,0.1-0.2,0.1-0.4c0-0.3-0.1-0.6-0.4-0.7c-0.2-0.1-0.6-0.2-1-0.2
		c-0.5,0-0.9,0.1-1.1,0.4c-0.1,0.2-0.2,0.4-0.2,0.7H53c0-0.7,0.2-1.2,0.7-1.5c0.4-0.3,1-0.4,1.5-0.4c0.7,0,1.2,0.1,1.6,0.4
		c0.4,0.3,0.6,0.7,0.6,1.2v3.3c0,0.1,0,0.2,0.1,0.2c0,0.1,0.1,0.1,0.3,0.1c0,0,0.1,0,0.1,0c0.1,0,0.1,0,0.2,0v0.7
		c-0.2,0-0.3,0.1-0.3,0.1c-0.1,0-0.2,0-0.3,0c-0.3,0-0.6-0.1-0.7-0.4c-0.1-0.1-0.1-0.3-0.2-0.5c-0.2,0.3-0.5,0.5-0.8,0.7
		c-0.4,0.2-0.8,0.3-1.2,0.3c-0.5,0-1-0.2-1.3-0.5c-0.3-0.3-0.5-0.7-0.5-1.2c0-0.5,0.2-0.9,0.5-1.2s0.8-0.5,1.3-0.5L56,329.1z
		 M54,331.7c0.2,0.2,0.4,0.2,0.7,0.2c0.3,0,0.7-0.1,1-0.2c0.5-0.3,0.8-0.7,0.8-1.3v-0.8c-0.1,0.1-0.3,0.1-0.5,0.2
		c-0.2,0.1-0.4,0.1-0.5,0.1l-0.6,0.1c-0.4,0-0.6,0.1-0.8,0.2c-0.3,0.2-0.4,0.4-0.4,0.8C53.7,331.3,53.8,331.5,54,331.7z"/>
	<path class="st8" d="M59.6,330.7c0,0.3,0.1,0.6,0.2,0.7c0.2,0.3,0.7,0.5,1.3,0.5c0.4,0,0.7-0.1,1-0.2c0.3-0.2,0.4-0.4,0.4-0.7
		c0-0.2-0.1-0.4-0.3-0.6c-0.1-0.1-0.4-0.2-0.8-0.3l-0.8-0.2c-0.5-0.1-0.9-0.3-1.1-0.4c-0.4-0.3-0.6-0.6-0.6-1.1c0-0.5,0.2-1,0.6-1.3
		c0.4-0.3,0.9-0.5,1.6-0.5c0.9,0,1.5,0.3,1.9,0.8c0.2,0.3,0.4,0.7,0.4,1h-0.9c0-0.2-0.1-0.4-0.2-0.6c-0.2-0.3-0.6-0.4-1.2-0.4
		c-0.4,0-0.7,0.1-0.8,0.2s-0.3,0.3-0.3,0.6c0,0.2,0.1,0.5,0.4,0.6c0.1,0.1,0.4,0.2,0.6,0.2l0.7,0.2c0.7,0.2,1.2,0.3,1.4,0.5
		c0.4,0.2,0.6,0.6,0.6,1.2c0,0.5-0.2,1-0.6,1.3c-0.4,0.4-1,0.6-1.8,0.6c-0.9,0-1.5-0.2-1.8-0.6c-0.4-0.4-0.6-0.9-0.6-1.4H59.6z"/>
	<path class="st8" d="M73.3,324.7v0.9h-2.7v6.9h-1.1v-6.9h-2.7v-0.9H73.3z"/>
	<path class="st8" d="M77.7,326.9c0.4,0.2,0.7,0.4,0.9,0.7c0.2,0.3,0.3,0.6,0.4,1C79,329,79,329.4,79,330h-4.2
		c0,0.6,0.2,1.1,0.4,1.4c0.3,0.4,0.7,0.5,1.2,0.5c0.5,0,0.9-0.2,1.2-0.5c0.2-0.2,0.3-0.4,0.4-0.7h1c0,0.2-0.1,0.4-0.2,0.7
		c-0.1,0.3-0.3,0.5-0.5,0.6c-0.3,0.3-0.7,0.5-1.1,0.6c-0.2,0.1-0.5,0.1-0.8,0.1c-0.7,0-1.3-0.3-1.8-0.8c-0.5-0.5-0.7-1.3-0.7-2.2
		c0-0.9,0.2-1.7,0.7-2.2c0.5-0.6,1.1-0.9,2-0.9C76.9,326.7,77.3,326.8,77.7,326.9z M78,329.2c0-0.4-0.1-0.8-0.3-1
		c-0.3-0.5-0.7-0.7-1.3-0.7c-0.4,0-0.8,0.2-1.1,0.5s-0.5,0.7-0.5,1.2H78z M77.6,324.5l-1.4,1.6h-0.7l1-1.6H77.6z"/>
	<path class="st8" d="M84.1,327.1c0.4,0.3,0.7,0.9,0.7,1.6h-0.9c-0.1-0.4-0.2-0.6-0.4-0.9c-0.2-0.2-0.5-0.4-1-0.4
		c-0.6,0-1.1,0.3-1.3,0.9c-0.2,0.4-0.3,0.9-0.3,1.4c0,0.6,0.1,1.1,0.4,1.5c0.2,0.4,0.6,0.6,1.1,0.6c0.4,0,0.7-0.1,1-0.4
		c0.2-0.2,0.4-0.6,0.5-1h0.9c-0.1,0.8-0.4,1.3-0.8,1.7c-0.4,0.4-1,0.5-1.6,0.5c-0.8,0-1.4-0.3-1.8-0.8c-0.4-0.5-0.7-1.2-0.7-2.1
		c0-1,0.2-1.8,0.7-2.4s1.1-0.8,1.9-0.8C83.1,326.6,83.6,326.8,84.1,327.1z"/>
	<path class="st8" d="M85.8,326.8h0.9v0.8c0.3-0.3,0.6-0.6,0.9-0.7c0.3-0.1,0.6-0.2,1-0.2c0.8,0,1.4,0.3,1.7,0.9
		c0.2,0.3,0.2,0.8,0.2,1.3v3.7h-1v-3.6c0-0.4-0.1-0.6-0.2-0.8c-0.2-0.4-0.5-0.5-0.9-0.5c-0.2,0-0.4,0-0.6,0.1
		c-0.3,0.1-0.5,0.2-0.7,0.5c-0.2,0.2-0.3,0.4-0.3,0.6c0,0.2-0.1,0.5-0.1,0.9v3h-1V326.8z"/>
	<path class="st8" d="M91.9,324.7h1v1.1h-1V324.7z M91.9,326.8h1v5.7h-1V326.8z"/>
	<path class="st8" d="M98.1,327.1c0.4,0.3,0.7,0.9,0.7,1.6h-0.9c-0.1-0.4-0.2-0.6-0.4-0.9c-0.2-0.2-0.5-0.4-1-0.4
		c-0.6,0-1.1,0.3-1.3,0.9c-0.2,0.4-0.3,0.9-0.3,1.4c0,0.6,0.1,1.1,0.4,1.5c0.2,0.4,0.6,0.6,1.1,0.6c0.4,0,0.7-0.1,1-0.4
		c0.2-0.2,0.4-0.6,0.5-1h0.9c-0.1,0.8-0.4,1.3-0.8,1.7c-0.4,0.4-1,0.5-1.6,0.5c-0.8,0-1.4-0.3-1.8-0.8c-0.4-0.5-0.7-1.2-0.7-2.1
		c0-1,0.2-1.8,0.7-2.4s1.1-0.8,1.9-0.8C97.2,326.6,97.7,326.8,98.1,327.1z"/>
	<path class="st8" d="M102.9,329.1c0.2,0,0.4-0.1,0.4-0.3c0-0.1,0.1-0.2,0.1-0.4c0-0.3-0.1-0.6-0.4-0.7c-0.2-0.1-0.6-0.2-1-0.2
		c-0.5,0-0.9,0.1-1.1,0.4c-0.1,0.2-0.2,0.4-0.2,0.7h-0.9c0-0.7,0.2-1.2,0.7-1.5c0.4-0.3,1-0.4,1.5-0.4c0.7,0,1.2,0.1,1.6,0.4
		c0.4,0.3,0.6,0.7,0.6,1.2v3.3c0,0.1,0,0.2,0.1,0.2c0,0.1,0.1,0.1,0.3,0.1c0,0,0.1,0,0.1,0c0.1,0,0.1,0,0.2,0v0.7
		c-0.2,0-0.3,0.1-0.3,0.1c-0.1,0-0.2,0-0.3,0c-0.3,0-0.6-0.1-0.7-0.4c-0.1-0.1-0.1-0.3-0.2-0.5c-0.2,0.3-0.5,0.5-0.8,0.7
		c-0.4,0.2-0.8,0.3-1.2,0.3c-0.5,0-1-0.2-1.3-0.5c-0.3-0.3-0.5-0.7-0.5-1.2c0-0.5,0.2-0.9,0.5-1.2s0.8-0.5,1.3-0.5L102.9,329.1z
		 M100.9,331.7c0.2,0.2,0.4,0.2,0.7,0.2c0.3,0,0.7-0.1,1-0.2c0.5-0.3,0.8-0.7,0.8-1.3v-0.8c-0.1,0.1-0.3,0.1-0.5,0.2
		c-0.2,0.1-0.4,0.1-0.5,0.1l-0.6,0.1c-0.4,0-0.6,0.1-0.8,0.2c-0.3,0.2-0.4,0.4-0.4,0.8C100.6,331.3,100.7,331.5,100.9,331.7z"/>
	<path class="st8" d="M106.5,330.7c0,0.3,0.1,0.6,0.2,0.7c0.2,0.3,0.7,0.5,1.3,0.5c0.4,0,0.7-0.1,1-0.2c0.3-0.2,0.4-0.4,0.4-0.7
		c0-0.2-0.1-0.4-0.3-0.6c-0.1-0.1-0.4-0.2-0.8-0.3l-0.8-0.2c-0.5-0.1-0.9-0.3-1.1-0.4c-0.4-0.3-0.6-0.6-0.6-1.1c0-0.5,0.2-1,0.6-1.3
		c0.4-0.3,0.9-0.5,1.6-0.5c0.9,0,1.5,0.3,1.9,0.8c0.2,0.3,0.4,0.7,0.4,1h-0.9c0-0.2-0.1-0.4-0.2-0.6c-0.2-0.3-0.6-0.4-1.2-0.4
		c-0.4,0-0.7,0.1-0.8,0.2s-0.3,0.3-0.3,0.6c0,0.2,0.1,0.5,0.4,0.6c0.1,0.1,0.4,0.2,0.6,0.2l0.7,0.2c0.7,0.2,1.2,0.3,1.4,0.5
		c0.4,0.2,0.6,0.6,0.6,1.2c0,0.5-0.2,1-0.6,1.3c-0.4,0.4-1,0.6-1.8,0.6c-0.9,0-1.5-0.2-1.8-0.6c-0.4-0.4-0.6-0.9-0.6-1.4H106.5z"/>
	<path class="st8" d="M117.7,327c0.2,0.1,0.4,0.3,0.5,0.6v-0.8h0.9v8h-1v-3c-0.2,0.3-0.4,0.5-0.7,0.6c-0.3,0.2-0.6,0.2-1.1,0.2
		c-0.6,0-1.2-0.2-1.6-0.7c-0.5-0.5-0.7-1.2-0.7-2.2c0-0.9,0.2-1.7,0.7-2.3c0.5-0.6,1-0.9,1.8-0.9C117,326.7,117.4,326.8,117.7,327z
		 M115.3,331c0.2,0.6,0.7,0.9,1.3,0.9c0.7,0,1.1-0.3,1.4-0.9c0.1-0.3,0.2-0.8,0.2-1.3c0-0.5-0.1-0.9-0.2-1.2
		c-0.3-0.6-0.7-0.9-1.4-0.9c-0.4,0-0.8,0.2-1.1,0.5c-0.3,0.4-0.4,0.9-0.4,1.7C115.1,330.2,115.2,330.7,115.3,331z"/>
	<path class="st8" d="M121.6,326.8v3.8c0,0.3,0,0.5,0.1,0.7c0.2,0.3,0.5,0.5,0.9,0.5c0.7,0,1.1-0.3,1.3-0.9c0.1-0.3,0.2-0.8,0.2-1.3
		v-2.8h1v5.8h-0.9l0-0.8c-0.1,0.2-0.3,0.4-0.5,0.6c-0.4,0.3-0.8,0.5-1.3,0.5c-0.8,0-1.4-0.3-1.6-0.8c-0.2-0.3-0.2-0.7-0.2-1.2v-3.9
		H121.6z"/>
	<path class="st8" d="M130.3,326.9c0.4,0.2,0.7,0.4,0.9,0.7c0.2,0.3,0.3,0.6,0.4,1c0.1,0.3,0.1,0.7,0.1,1.3h-4.2
		c0,0.6,0.2,1.1,0.4,1.4c0.3,0.4,0.7,0.5,1.2,0.5c0.5,0,0.9-0.2,1.2-0.5c0.2-0.2,0.3-0.4,0.4-0.7h1c0,0.2-0.1,0.4-0.2,0.7
		c-0.1,0.3-0.3,0.5-0.5,0.6c-0.3,0.3-0.7,0.5-1.1,0.6c-0.2,0.1-0.5,0.1-0.8,0.1c-0.7,0-1.3-0.3-1.8-0.8c-0.5-0.5-0.7-1.3-0.7-2.2
		c0-0.9,0.2-1.7,0.7-2.2c0.5-0.6,1.1-0.9,2-0.9C129.5,326.7,129.9,326.8,130.3,326.9z M130.6,329.2c0-0.4-0.1-0.8-0.3-1
		c-0.3-0.5-0.7-0.7-1.3-0.7c-0.4,0-0.8,0.2-1.1,0.5c-0.3,0.3-0.5,0.7-0.5,1.2H130.6z"/>
	<path class="st8" d="M139,329.1c0.2,0,0.4-0.1,0.4-0.3c0-0.1,0.1-0.2,0.1-0.4c0-0.3-0.1-0.6-0.4-0.7c-0.2-0.1-0.6-0.2-1-0.2
		c-0.5,0-0.9,0.1-1.1,0.4c-0.1,0.2-0.2,0.4-0.2,0.7h-0.9c0-0.7,0.2-1.2,0.7-1.5c0.4-0.3,1-0.4,1.5-0.4c0.7,0,1.2,0.1,1.6,0.4
		c0.4,0.3,0.6,0.7,0.6,1.2v3.3c0,0.1,0,0.2,0.1,0.2c0,0.1,0.1,0.1,0.3,0.1c0,0,0.1,0,0.1,0c0.1,0,0.1,0,0.2,0v0.7
		c-0.2,0-0.3,0.1-0.3,0.1c-0.1,0-0.2,0-0.3,0c-0.3,0-0.6-0.1-0.7-0.4c-0.1-0.1-0.1-0.3-0.2-0.5c-0.2,0.3-0.5,0.5-0.8,0.7
		c-0.4,0.2-0.8,0.3-1.2,0.3c-0.5,0-1-0.2-1.3-0.5c-0.3-0.3-0.5-0.7-0.5-1.2c0-0.5,0.2-0.9,0.5-1.2s0.8-0.5,1.3-0.5L139,329.1z
		 M136.9,331.7c0.2,0.2,0.4,0.2,0.7,0.2c0.3,0,0.7-0.1,1-0.2c0.5-0.3,0.8-0.7,0.8-1.3v-0.8c-0.1,0.1-0.3,0.1-0.5,0.2
		c-0.2,0.1-0.4,0.1-0.5,0.1l-0.6,0.1c-0.4,0-0.6,0.1-0.8,0.2c-0.3,0.2-0.4,0.4-0.4,0.8C136.6,331.3,136.7,331.5,136.9,331.7z"/>
	<path class="st8" d="M141.9,324.6h0.9v2.9c0.2-0.3,0.5-0.5,0.8-0.6c0.3-0.1,0.6-0.2,1-0.2c0.7,0,1.3,0.2,1.8,0.7s0.7,1.2,0.7,2.2
		c0,0.9-0.2,1.7-0.7,2.3s-1.1,0.9-1.8,0.9c-0.4,0-0.8-0.1-1.1-0.3c-0.2-0.1-0.4-0.3-0.6-0.6v0.7h-0.9V324.6z M145.6,331.2
		c0.3-0.4,0.4-1,0.4-1.6c0-0.6-0.1-1.1-0.4-1.5c-0.3-0.4-0.6-0.6-1.2-0.6c-0.4,0-0.8,0.2-1.2,0.5c-0.3,0.3-0.5,0.9-0.5,1.6
		c0,0.5,0.1,1,0.2,1.3c0.3,0.6,0.7,1,1.4,1C145,331.9,145.4,331.7,145.6,331.2z"/>
	<path class="st8" d="M152.3,327.4c0.5,0.5,0.8,1.2,0.8,2.2c0,0.9-0.2,1.7-0.7,2.3s-1.1,0.9-2.1,0.9c-0.8,0-1.4-0.3-1.9-0.8
		c-0.5-0.5-0.7-1.3-0.7-2.2c0-1,0.2-1.7,0.7-2.3c0.5-0.6,1.1-0.9,2-0.9C151.2,326.6,151.8,326.9,152.3,327.4z M151.7,331.2
		c0.2-0.5,0.4-1,0.4-1.6c0-0.5-0.1-1-0.3-1.3c-0.3-0.5-0.7-0.8-1.4-0.8c-0.6,0-1,0.2-1.3,0.7s-0.4,1-0.4,1.6c0,0.6,0.1,1.1,0.4,1.5
		s0.7,0.6,1.3,0.6C151,331.9,151.5,331.7,151.7,331.2z"/>
	<path class="st8" d="M154.3,326.8h0.9v1c0.1-0.2,0.3-0.4,0.6-0.7c0.3-0.3,0.6-0.4,1-0.4c0,0,0,0,0.1,0c0,0,0.1,0,0.2,0v1
		c-0.1,0-0.1,0-0.2,0c0,0-0.1,0-0.2,0c-0.5,0-0.9,0.2-1.1,0.5c-0.3,0.3-0.4,0.7-0.4,1.1v3.3h-1V326.8z"/>
	<path class="st8" d="M161.1,327c0.2,0.1,0.4,0.3,0.6,0.6v-2.9h0.9v7.9h-0.9v-0.8c-0.2,0.4-0.5,0.6-0.8,0.8
		c-0.3,0.2-0.7,0.2-1.1,0.2c-0.6,0-1.2-0.3-1.7-0.8c-0.5-0.5-0.7-1.3-0.7-2.2c0-0.8,0.2-1.6,0.6-2.2c0.4-0.6,1-0.9,1.8-0.9
		C160.4,326.7,160.8,326.8,161.1,327z M158.9,331.3c0.3,0.4,0.7,0.6,1.3,0.6c0.4,0,0.8-0.2,1.1-0.6c0.3-0.4,0.4-0.9,0.4-1.7
		c0-0.7-0.1-1.3-0.4-1.6c-0.3-0.3-0.7-0.5-1.1-0.5c-0.5,0-0.9,0.2-1.2,0.6s-0.5,0.9-0.5,1.6C158.5,330.3,158.7,330.9,158.9,331.3z"
		/>
	<path class="st8" d="M167.1,329.1c0.2,0,0.4-0.1,0.4-0.3c0-0.1,0.1-0.2,0.1-0.4c0-0.3-0.1-0.6-0.4-0.7c-0.2-0.1-0.6-0.2-1-0.2
		c-0.5,0-0.9,0.1-1.1,0.4c-0.1,0.2-0.2,0.4-0.2,0.7h-0.9c0-0.7,0.2-1.2,0.7-1.5c0.4-0.3,1-0.4,1.5-0.4c0.7,0,1.2,0.1,1.6,0.4
		c0.4,0.3,0.6,0.7,0.6,1.2v3.3c0,0.1,0,0.2,0.1,0.2c0,0.1,0.1,0.1,0.3,0.1c0,0,0.1,0,0.1,0c0.1,0,0.1,0,0.2,0v0.7
		c-0.2,0-0.3,0.1-0.3,0.1c-0.1,0-0.2,0-0.3,0c-0.3,0-0.6-0.1-0.7-0.4c-0.1-0.1-0.1-0.3-0.2-0.5c-0.2,0.3-0.5,0.5-0.8,0.7
		c-0.4,0.2-0.8,0.3-1.2,0.3c-0.5,0-1-0.2-1.3-0.5c-0.3-0.3-0.5-0.7-0.5-1.2c0-0.5,0.2-0.9,0.5-1.2s0.8-0.5,1.3-0.5L167.1,329.1z
		 M165.1,331.7c0.2,0.2,0.4,0.2,0.7,0.2c0.3,0,0.7-0.1,1-0.2c0.5-0.3,0.8-0.7,0.8-1.3v-0.8c-0.1,0.1-0.3,0.1-0.5,0.2
		c-0.2,0.1-0.4,0.1-0.5,0.1L166,330c-0.4,0-0.6,0.1-0.8,0.2c-0.3,0.2-0.4,0.4-0.4,0.8C164.8,331.3,164.9,331.5,165.1,331.7z"/>
	<path class="st8" d="M170.1,326.8h1v0.8c0.2-0.3,0.4-0.5,0.6-0.6c0.3-0.2,0.7-0.3,1.1-0.3c0.5,0,0.8,0.1,1.1,0.3
		c0.2,0.1,0.3,0.3,0.4,0.6c0.2-0.3,0.5-0.5,0.8-0.7s0.6-0.2,1-0.2c0.8,0,1.3,0.3,1.6,0.8c0.2,0.3,0.2,0.7,0.2,1.2v3.8h-1v-4
		c0-0.4-0.1-0.6-0.3-0.8c-0.2-0.1-0.4-0.2-0.7-0.2c-0.4,0-0.7,0.1-1,0.4c-0.3,0.3-0.4,0.7-0.4,1.3v3.3h-1v-3.8c0-0.4,0-0.7-0.1-0.9
		c-0.1-0.3-0.4-0.4-0.8-0.4c-0.4,0-0.7,0.1-1,0.4c-0.3,0.3-0.4,0.8-0.4,1.5v3.1h-1V326.8z"/>
	<path class="st8" d="M185.5,327c0.2,0.1,0.4,0.3,0.6,0.6v-2.9h0.9v7.9h-0.9v-0.8c-0.2,0.4-0.5,0.6-0.8,0.8
		c-0.3,0.2-0.7,0.2-1.1,0.2c-0.6,0-1.2-0.3-1.7-0.8c-0.5-0.5-0.7-1.3-0.7-2.2c0-0.8,0.2-1.6,0.6-2.2c0.4-0.6,1-0.9,1.8-0.9
		C184.9,326.7,185.2,326.8,185.5,327z M183.4,331.3c0.3,0.4,0.7,0.6,1.2,0.6c0.4,0,0.8-0.2,1.1-0.6c0.3-0.4,0.4-0.9,0.4-1.7
		c0-0.7-0.1-1.3-0.4-1.6c-0.3-0.3-0.7-0.5-1.1-0.5c-0.5,0-0.9,0.2-1.2,0.6c-0.3,0.4-0.5,0.9-0.5,1.6
		C183,330.3,183.1,330.9,183.4,331.3z"/>
	<path class="st8" d="M192,326.9c0.4,0.2,0.7,0.4,0.9,0.7c0.2,0.3,0.3,0.6,0.4,1c0.1,0.3,0.1,0.7,0.1,1.3h-4.2
		c0,0.6,0.2,1.1,0.4,1.4s0.7,0.5,1.2,0.5c0.5,0,0.9-0.2,1.2-0.5c0.2-0.2,0.3-0.4,0.4-0.7h1c0,0.2-0.1,0.4-0.2,0.7s-0.3,0.5-0.5,0.6
		c-0.3,0.3-0.7,0.5-1.1,0.6c-0.2,0.1-0.5,0.1-0.8,0.1c-0.7,0-1.3-0.3-1.8-0.8c-0.5-0.5-0.7-1.3-0.7-2.2c0-0.9,0.2-1.7,0.7-2.2
		c0.5-0.6,1.1-0.9,2-0.9C191.3,326.7,191.7,326.8,192,326.9z M192.4,329.2c0-0.4-0.1-0.8-0.3-1c-0.3-0.5-0.7-0.7-1.3-0.7
		c-0.4,0-0.8,0.2-1.1,0.5c-0.3,0.3-0.5,0.7-0.5,1.2H192.4z"/>
	<path class="st8" d="M198.1,325c0.2-0.3,0.7-0.5,1.3-0.5c0.1,0,0.1,0,0.2,0s0.1,0,0.2,0v0.9c-0.1,0-0.2,0-0.2,0s-0.1,0-0.1,0
		c-0.3,0-0.5,0.1-0.5,0.2c-0.1,0.2-0.1,0.5-0.1,1.2h1v0.8h-1v5h-1v-5h-0.8v-0.8h0.8v-0.9C197.9,325.5,198,325.2,198.1,325z"/>
	<path class="st8" d="M204.9,327.4c0.5,0.5,0.8,1.2,0.8,2.2c0,0.9-0.2,1.7-0.7,2.3s-1.1,0.9-2.1,0.9c-0.8,0-1.4-0.3-1.9-0.8
		c-0.5-0.5-0.7-1.3-0.7-2.2c0-1,0.2-1.7,0.7-2.3c0.5-0.6,1.1-0.9,2-0.9C203.8,326.6,204.4,326.9,204.9,327.4z M204.3,331.2
		c0.2-0.5,0.4-1,0.4-1.6c0-0.5-0.1-1-0.3-1.3c-0.3-0.5-0.7-0.8-1.4-0.8c-0.6,0-1,0.2-1.3,0.7s-0.4,1-0.4,1.6c0,0.6,0.1,1.1,0.4,1.5
		s0.7,0.6,1.3,0.6C203.6,331.9,204,331.7,204.3,331.2z"/>
	<path class="st8" d="M206.9,326.8h0.9v1c0.1-0.2,0.3-0.4,0.6-0.7c0.3-0.3,0.6-0.4,1-0.4c0,0,0,0,0.1,0c0,0,0.1,0,0.2,0v1
		c-0.1,0-0.1,0-0.2,0c0,0-0.1,0-0.2,0c-0.5,0-0.9,0.2-1.1,0.5c-0.3,0.3-0.4,0.7-0.4,1.1v3.3h-1V326.8z"/>
	<path class="st8" d="M210.5,326.8h1v0.8c0.2-0.3,0.4-0.5,0.6-0.6c0.3-0.2,0.7-0.3,1.1-0.3c0.5,0,0.8,0.1,1.1,0.3
		c0.2,0.1,0.3,0.3,0.4,0.6c0.2-0.3,0.5-0.5,0.8-0.7s0.6-0.2,1-0.2c0.8,0,1.3,0.3,1.6,0.8c0.2,0.3,0.2,0.7,0.2,1.2v3.8h-1v-4
		c0-0.4-0.1-0.6-0.3-0.8c-0.2-0.1-0.4-0.2-0.7-0.2c-0.4,0-0.7,0.1-1,0.4c-0.3,0.3-0.4,0.7-0.4,1.3v3.3h-1v-3.8c0-0.4,0-0.7-0.1-0.9
		c-0.1-0.3-0.4-0.4-0.8-0.4c-0.4,0-0.7,0.1-1,0.4c-0.3,0.3-0.4,0.8-0.4,1.5v3.1h-1V326.8z"/>
	<path class="st8" d="M222.7,329.1c0.2,0,0.4-0.1,0.4-0.3c0-0.1,0.1-0.2,0.1-0.4c0-0.3-0.1-0.6-0.4-0.7c-0.2-0.1-0.6-0.2-1-0.2
		c-0.5,0-0.9,0.1-1.1,0.4c-0.1,0.2-0.2,0.4-0.2,0.7h-0.9c0-0.7,0.2-1.2,0.7-1.5c0.4-0.3,1-0.4,1.5-0.4c0.7,0,1.2,0.1,1.6,0.4
		c0.4,0.3,0.6,0.7,0.6,1.2v3.3c0,0.1,0,0.2,0.1,0.2s0.1,0.1,0.3,0.1c0,0,0.1,0,0.1,0c0.1,0,0.1,0,0.2,0v0.7c-0.2,0-0.3,0.1-0.3,0.1
		c-0.1,0-0.2,0-0.3,0c-0.3,0-0.6-0.1-0.7-0.4c-0.1-0.1-0.1-0.3-0.2-0.5c-0.2,0.3-0.5,0.5-0.8,0.7c-0.4,0.2-0.8,0.3-1.2,0.3
		c-0.5,0-1-0.2-1.3-0.5c-0.3-0.3-0.5-0.7-0.5-1.2c0-0.5,0.2-0.9,0.5-1.2s0.8-0.5,1.3-0.5L222.7,329.1z M220.7,331.7
		c0.2,0.2,0.4,0.2,0.7,0.2c0.3,0,0.7-0.1,1-0.2c0.5-0.3,0.8-0.7,0.8-1.3v-0.8c-0.1,0.1-0.3,0.1-0.5,0.2s-0.4,0.1-0.5,0.1l-0.6,0.1
		c-0.4,0-0.6,0.1-0.8,0.2c-0.3,0.2-0.4,0.4-0.4,0.8C220.4,331.3,220.5,331.5,220.7,331.7z"/>
	<path class="st8" d="M51.5,340.2c0.4,0.2,0.7,0.4,0.9,0.7c0.2,0.3,0.3,0.6,0.4,1c0.1,0.3,0.1,0.7,0.1,1.3h-4.2
		c0,0.6,0.2,1.1,0.4,1.4c0.3,0.4,0.7,0.5,1.2,0.5c0.5,0,0.9-0.2,1.2-0.5c0.2-0.2,0.3-0.4,0.4-0.7h1c0,0.2-0.1,0.4-0.2,0.7
		c-0.1,0.3-0.3,0.5-0.5,0.6c-0.3,0.3-0.7,0.5-1.1,0.6c-0.2,0.1-0.5,0.1-0.8,0.1c-0.7,0-1.3-0.3-1.8-0.8s-0.7-1.2-0.7-2.2
		c0-0.9,0.2-1.7,0.7-2.3c0.5-0.6,1.1-0.9,2-0.9C50.7,339.9,51.1,340,51.5,340.2z M51.8,342.4c0-0.4-0.1-0.8-0.3-1
		c-0.3-0.5-0.7-0.7-1.3-0.7c-0.4,0-0.8,0.2-1.1,0.5c-0.3,0.3-0.5,0.7-0.5,1.2H51.8z"/>
	<path class="st8" d="M57.3,340.2c0.2,0.1,0.4,0.3,0.5,0.6V340h0.9v8h-1v-3c-0.2,0.3-0.4,0.5-0.7,0.6c-0.3,0.2-0.6,0.2-1.1,0.2
		c-0.6,0-1.2-0.2-1.6-0.7c-0.5-0.5-0.7-1.2-0.7-2.2c0-0.9,0.2-1.7,0.7-2.3c0.5-0.6,1-0.9,1.8-0.9C56.6,339.9,57,340,57.3,340.2z
		 M54.9,344.2c0.2,0.6,0.7,0.9,1.3,0.9c0.7,0,1.1-0.3,1.4-0.9c0.1-0.3,0.2-0.8,0.2-1.3c0-0.5-0.1-0.9-0.2-1.2
		c-0.3-0.6-0.7-0.9-1.4-0.9c-0.4,0-0.8,0.2-1.1,0.5s-0.4,0.9-0.4,1.7C54.7,343.4,54.7,343.9,54.9,344.2z"/>
	<path class="st8" d="M61.1,340v3.8c0,0.3,0,0.5,0.1,0.7c0.2,0.3,0.5,0.5,0.9,0.5c0.7,0,1.1-0.3,1.3-0.9c0.1-0.3,0.2-0.8,0.2-1.3
		V340h1v5.8h-0.9l0-0.8c-0.1,0.2-0.3,0.4-0.5,0.6c-0.4,0.3-0.8,0.5-1.3,0.5c-0.8,0-1.4-0.3-1.6-0.8c-0.2-0.3-0.2-0.7-0.2-1.2V340
		H61.1z"/>
	<path class="st8" d="M69.4,342.3c0.2,0,0.4-0.1,0.4-0.3c0-0.1,0.1-0.2,0.1-0.4c0-0.3-0.1-0.6-0.4-0.7s-0.6-0.2-1-0.2
		c-0.5,0-0.9,0.1-1.1,0.4c-0.1,0.2-0.2,0.4-0.2,0.7h-0.9c0-0.7,0.2-1.2,0.7-1.5c0.4-0.3,1-0.4,1.5-0.4c0.7,0,1.2,0.1,1.6,0.4
		c0.4,0.3,0.6,0.7,0.6,1.2v3.3c0,0.1,0,0.2,0.1,0.2c0,0.1,0.1,0.1,0.3,0.1c0,0,0.1,0,0.1,0s0.1,0,0.2,0v0.7c-0.2,0-0.3,0.1-0.3,0.1
		c-0.1,0-0.2,0-0.3,0c-0.3,0-0.6-0.1-0.7-0.4c-0.1-0.1-0.1-0.3-0.2-0.5c-0.2,0.3-0.5,0.5-0.8,0.7s-0.8,0.3-1.2,0.3
		c-0.5,0-1-0.2-1.3-0.5c-0.3-0.3-0.5-0.7-0.5-1.2c0-0.5,0.2-0.9,0.5-1.2c0.3-0.3,0.8-0.5,1.3-0.5L69.4,342.3z M67.3,344.9
		c0.2,0.2,0.4,0.2,0.7,0.2c0.3,0,0.7-0.1,1-0.2c0.5-0.3,0.8-0.7,0.8-1.3v-0.8c-0.1,0.1-0.3,0.1-0.5,0.2c-0.2,0-0.4,0.1-0.5,0.1
		l-0.6,0.1c-0.4,0-0.6,0.1-0.8,0.2c-0.3,0.2-0.4,0.4-0.4,0.8C67,344.5,67.1,344.7,67.3,344.9z M69.2,337.7l1.1,1.6h-0.9l-0.7-1
		l-0.7,1h-0.9l1.1-1.6H69.2z"/>
	<path class="st8" d="M72.4,340h0.9v0.8c0.3-0.3,0.6-0.6,0.9-0.7c0.3-0.1,0.6-0.2,1-0.2c0.8,0,1.4,0.3,1.7,0.9
		c0.2,0.3,0.2,0.8,0.2,1.3v3.7h-1v-3.6c0-0.4-0.1-0.6-0.2-0.8c-0.2-0.4-0.5-0.5-0.9-0.5c-0.2,0-0.4,0-0.6,0.1
		c-0.3,0.1-0.5,0.2-0.7,0.5c-0.2,0.2-0.3,0.4-0.3,0.6c0,0.2-0.1,0.5-0.1,0.9v3h-1V340z"/>
	<path class="st8" d="M78.5,337.9h1v1.1h-1V337.9z M78.5,340h1v5.7h-1V340z"/>
	<path class="st8" d="M81,340h1v0.8c0.2-0.3,0.4-0.5,0.6-0.6c0.3-0.2,0.7-0.3,1.1-0.3c0.5,0,0.8,0.1,1.1,0.3
		c0.2,0.1,0.3,0.3,0.4,0.6c0.2-0.3,0.5-0.5,0.8-0.7c0.3-0.1,0.6-0.2,1-0.2c0.8,0,1.3,0.3,1.6,0.8c0.2,0.3,0.2,0.7,0.2,1.2v3.8h-1v-4
		c0-0.4-0.1-0.6-0.3-0.8c-0.2-0.1-0.4-0.2-0.7-0.2c-0.4,0-0.7,0.1-1,0.4c-0.3,0.3-0.4,0.7-0.4,1.3v3.3h-1V342c0-0.4,0-0.7-0.1-0.9
		c-0.1-0.3-0.4-0.4-0.8-0.4c-0.4,0-0.7,0.1-1,0.4c-0.3,0.3-0.4,0.8-0.4,1.5v3.1h-1V340z"/>
	<path class="st8" d="M93.7,340.2c0.4,0.2,0.7,0.4,0.9,0.7c0.2,0.3,0.3,0.6,0.4,1c0.1,0.3,0.1,0.7,0.1,1.3h-4.2
		c0,0.6,0.2,1.1,0.4,1.4c0.3,0.4,0.7,0.5,1.2,0.5c0.5,0,0.9-0.2,1.2-0.5c0.2-0.2,0.3-0.4,0.4-0.7h1c0,0.2-0.1,0.4-0.2,0.7
		c-0.1,0.3-0.3,0.5-0.5,0.6c-0.3,0.3-0.7,0.5-1.1,0.6c-0.2,0.1-0.5,0.1-0.8,0.1c-0.7,0-1.3-0.3-1.8-0.8s-0.7-1.2-0.7-2.2
		c0-0.9,0.2-1.7,0.7-2.3c0.5-0.6,1.1-0.9,2-0.9C92.9,339.9,93.3,340,93.7,340.2z M94,342.4c0-0.4-0.1-0.8-0.3-1
		c-0.3-0.5-0.7-0.7-1.3-0.7c-0.4,0-0.8,0.2-1.1,0.5c-0.3,0.3-0.5,0.7-0.5,1.2H94z"/>
	<path class="st8" d="M99.5,338.4h1v1.6h0.9v0.8h-0.9v3.8c0,0.2,0.1,0.3,0.2,0.4c0.1,0,0.2,0.1,0.4,0.1c0,0,0.1,0,0.2,0
		c0.1,0,0.1,0,0.2,0v0.8c-0.1,0-0.2,0.1-0.3,0.1c-0.1,0-0.2,0-0.4,0c-0.5,0-0.8-0.1-0.9-0.3s-0.2-0.5-0.2-0.9v-3.8h-0.8V340h0.8
		V338.4z"/>
	<path class="st8" d="M106.5,340.6c0.5,0.5,0.8,1.2,0.8,2.2c0,0.9-0.2,1.7-0.7,2.3c-0.4,0.6-1.1,0.9-2.1,0.9c-0.8,0-1.4-0.3-1.9-0.8
		s-0.7-1.3-0.7-2.2c0-1,0.2-1.7,0.7-2.3c0.5-0.6,1.1-0.9,2-0.9C105.4,339.8,106,340.1,106.5,340.6z M105.9,344.4
		c0.2-0.5,0.4-1,0.4-1.6c0-0.5-0.1-1-0.3-1.3c-0.3-0.5-0.7-0.8-1.4-0.8c-0.6,0-1,0.2-1.3,0.7s-0.4,1-0.4,1.6c0,0.6,0.1,1.1,0.4,1.5
		s0.7,0.6,1.3,0.6C105.3,345.1,105.7,344.9,105.9,344.4z"/>
	<path class="st8" d="M111.6,340.2c0.2,0.1,0.4,0.3,0.6,0.6v-2.9h0.9v7.9h-0.9v-0.8c-0.2,0.4-0.5,0.6-0.8,0.8
		c-0.3,0.2-0.7,0.2-1.1,0.2c-0.6,0-1.2-0.3-1.7-0.8c-0.5-0.5-0.7-1.3-0.7-2.2c0-0.8,0.2-1.6,0.6-2.2c0.4-0.6,1-0.9,1.8-0.9
		C111,339.9,111.4,340,111.6,340.2z M109.5,344.5c0.3,0.4,0.7,0.6,1.3,0.6c0.4,0,0.8-0.2,1.1-0.6s0.4-0.9,0.4-1.7
		c0-0.7-0.1-1.3-0.4-1.6c-0.3-0.3-0.7-0.5-1.1-0.5c-0.5,0-0.9,0.2-1.2,0.6c-0.3,0.4-0.5,0.9-0.5,1.6
		C109.1,343.6,109.2,344.1,109.5,344.5z"/>
	<path class="st8" d="M117.7,342.3c0.2,0,0.4-0.1,0.4-0.3c0-0.1,0.1-0.2,0.1-0.4c0-0.3-0.1-0.6-0.4-0.7s-0.6-0.2-1-0.2
		c-0.5,0-0.9,0.1-1.1,0.4c-0.1,0.2-0.2,0.4-0.2,0.7h-0.9c0-0.7,0.2-1.2,0.7-1.5c0.4-0.3,1-0.4,1.5-0.4c0.7,0,1.2,0.1,1.6,0.4
		c0.4,0.3,0.6,0.7,0.6,1.2v3.3c0,0.1,0,0.2,0.1,0.2c0,0.1,0.1,0.1,0.3,0.1c0,0,0.1,0,0.1,0s0.1,0,0.2,0v0.7c-0.2,0-0.3,0.1-0.3,0.1
		c-0.1,0-0.2,0-0.3,0c-0.3,0-0.6-0.1-0.7-0.4c-0.1-0.1-0.1-0.3-0.2-0.5c-0.2,0.3-0.5,0.5-0.8,0.7s-0.8,0.3-1.2,0.3
		c-0.5,0-1-0.2-1.3-0.5c-0.3-0.3-0.5-0.7-0.5-1.2c0-0.5,0.2-0.9,0.5-1.2c0.3-0.3,0.8-0.5,1.3-0.5L117.7,342.3z M115.7,344.9
		c0.2,0.2,0.4,0.2,0.7,0.2c0.3,0,0.7-0.1,1-0.2c0.5-0.3,0.8-0.7,0.8-1.3v-0.8c-0.1,0.1-0.3,0.1-0.5,0.2c-0.2,0-0.4,0.1-0.5,0.1
		l-0.6,0.1c-0.4,0-0.6,0.1-0.8,0.2c-0.3,0.2-0.4,0.4-0.4,0.8C115.3,344.5,115.4,344.7,115.7,344.9z"/>
	<path class="st8" d="M126.9,342.3c0.2,0,0.4-0.1,0.4-0.3c0-0.1,0.1-0.2,0.1-0.4c0-0.3-0.1-0.6-0.4-0.7c-0.2-0.1-0.6-0.2-1-0.2
		c-0.5,0-0.9,0.1-1.1,0.4c-0.1,0.2-0.2,0.4-0.2,0.7h-0.9c0-0.7,0.2-1.2,0.7-1.5c0.4-0.3,1-0.4,1.5-0.4c0.7,0,1.2,0.1,1.6,0.4
		c0.4,0.3,0.6,0.7,0.6,1.2v3.3c0,0.1,0,0.2,0.1,0.2c0,0.1,0.1,0.1,0.3,0.1c0,0,0.1,0,0.1,0s0.1,0,0.2,0v0.7c-0.2,0-0.3,0.1-0.3,0.1
		c-0.1,0-0.2,0-0.3,0c-0.3,0-0.6-0.1-0.7-0.4c-0.1-0.1-0.1-0.3-0.2-0.5c-0.2,0.3-0.5,0.5-0.8,0.7c-0.4,0.2-0.8,0.3-1.2,0.3
		c-0.5,0-1-0.2-1.3-0.5c-0.3-0.3-0.5-0.7-0.5-1.2c0-0.5,0.2-0.9,0.5-1.2c0.3-0.3,0.8-0.5,1.3-0.5L126.9,342.3z M124.8,344.9
		c0.2,0.2,0.4,0.2,0.7,0.2c0.3,0,0.7-0.1,1-0.2c0.5-0.3,0.8-0.7,0.8-1.3v-0.8c-0.1,0.1-0.3,0.1-0.5,0.2c-0.2,0-0.4,0.1-0.5,0.1
		l-0.6,0.1c-0.4,0-0.6,0.1-0.8,0.2c-0.3,0.2-0.4,0.4-0.4,0.8C124.5,344.5,124.6,344.7,124.8,344.9z"/>
	<path class="st8" d="M133.2,337.9h3.6c0.6,0,1.1,0.1,1.5,0.3c0.7,0.3,1.1,1,1.1,1.9c0,0.5-0.1,0.9-0.3,1.2s-0.5,0.5-0.8,0.7
		c0.3,0.1,0.5,0.3,0.7,0.5c0.2,0.2,0.2,0.5,0.3,1l0,1.1c0,0.3,0,0.5,0.1,0.7c0.1,0.3,0.2,0.4,0.3,0.5v0.2h-1.3
		c0-0.1-0.1-0.2-0.1-0.3s0-0.3-0.1-0.6l-0.1-1.3c0-0.5-0.2-0.9-0.6-1c-0.2-0.1-0.5-0.1-0.9-0.1h-2.4v3.4h-1.1V337.9z M136.7,341.5
		c0.5,0,0.9-0.1,1.2-0.3c0.3-0.2,0.4-0.6,0.4-1.1c0-0.6-0.2-0.9-0.6-1.1c-0.2-0.1-0.5-0.2-0.9-0.2h-2.5v2.7H136.7z"/>
	<path class="st8" d="M144.4,340.2c0.4,0.2,0.7,0.4,0.9,0.7c0.2,0.3,0.3,0.6,0.4,1c0.1,0.3,0.1,0.7,0.1,1.3h-4.2
		c0,0.6,0.2,1.1,0.4,1.4c0.3,0.4,0.7,0.5,1.2,0.5c0.5,0,0.9-0.2,1.2-0.5c0.2-0.2,0.3-0.4,0.4-0.7h1c0,0.2-0.1,0.4-0.2,0.7
		c-0.1,0.3-0.3,0.5-0.5,0.6c-0.3,0.3-0.7,0.5-1.1,0.6c-0.2,0.1-0.5,0.1-0.8,0.1c-0.7,0-1.3-0.3-1.8-0.8c-0.5-0.5-0.7-1.2-0.7-2.2
		c0-0.9,0.2-1.7,0.7-2.3c0.5-0.6,1.1-0.9,2-0.9C143.7,339.9,144.1,340,144.4,340.2z M144.8,342.4c0-0.4-0.1-0.8-0.3-1
		c-0.3-0.5-0.7-0.7-1.3-0.7c-0.4,0-0.8,0.2-1.1,0.5c-0.3,0.3-0.5,0.7-0.5,1.2H144.8z"/>
	<path class="st8" d="M150.2,340.2c0.2,0.1,0.4,0.3,0.6,0.6v-2.9h0.9v7.9h-0.9v-0.8c-0.2,0.4-0.5,0.6-0.8,0.8
		c-0.3,0.2-0.7,0.2-1.1,0.2c-0.6,0-1.2-0.3-1.7-0.8c-0.5-0.5-0.7-1.3-0.7-2.2c0-0.8,0.2-1.6,0.6-2.2c0.4-0.6,1-0.9,1.8-0.9
		C149.5,339.9,149.9,340,150.2,340.2z M148,344.5c0.3,0.4,0.7,0.6,1.2,0.6c0.4,0,0.8-0.2,1.1-0.6c0.3-0.4,0.4-0.9,0.4-1.7
		c0-0.7-0.1-1.3-0.4-1.6s-0.7-0.5-1.1-0.5c-0.5,0-0.9,0.2-1.2,0.6c-0.3,0.4-0.5,0.9-0.5,1.6C147.6,343.6,147.8,344.1,148,344.5z"/>
	<path class="st8" d="M156.7,340.2c0.4,0.2,0.7,0.4,0.9,0.7c0.2,0.3,0.3,0.6,0.4,1c0.1,0.3,0.1,0.7,0.1,1.3h-4.2
		c0,0.6,0.2,1.1,0.4,1.4c0.3,0.4,0.7,0.5,1.2,0.5c0.5,0,0.9-0.2,1.2-0.5c0.2-0.2,0.3-0.4,0.4-0.7h1c0,0.2-0.1,0.4-0.2,0.7
		c-0.1,0.3-0.3,0.5-0.5,0.6c-0.3,0.3-0.7,0.5-1.1,0.6c-0.2,0.1-0.5,0.1-0.8,0.1c-0.7,0-1.3-0.3-1.8-0.8c-0.5-0.5-0.7-1.2-0.7-2.2
		c0-0.9,0.2-1.7,0.7-2.3c0.5-0.6,1.1-0.9,2-0.9C155.9,339.9,156.3,340,156.7,340.2z M157,342.4c0-0.4-0.1-0.8-0.3-1
		c-0.3-0.5-0.7-0.7-1.3-0.7c-0.4,0-0.8,0.2-1.1,0.5c-0.3,0.3-0.5,0.7-0.5,1.2H157z"/>
	<path class="st8" d="M163.1,343.2c0,0.4,0.1,0.8,0.3,1.1c0.3,0.5,0.9,0.8,1.8,0.8c0.4,0,0.7-0.1,1.1-0.2c0.6-0.2,0.9-0.6,0.9-1.2
		c0-0.4-0.1-0.7-0.4-0.9c-0.3-0.2-0.7-0.3-1.2-0.5l-1-0.2c-0.7-0.2-1.2-0.3-1.4-0.5c-0.5-0.3-0.7-0.8-0.7-1.5c0-0.7,0.2-1.3,0.7-1.7
		s1.2-0.7,2-0.7c0.8,0,1.5,0.2,2.1,0.6c0.6,0.4,0.8,1,0.8,1.9h-1c-0.1-0.4-0.2-0.7-0.3-1c-0.3-0.4-0.8-0.6-1.6-0.6
		c-0.6,0-1,0.1-1.3,0.4c-0.3,0.3-0.4,0.6-0.4,0.9c0,0.4,0.2,0.7,0.5,0.8c0.2,0.1,0.7,0.3,1.4,0.4l1.1,0.3c0.5,0.1,0.9,0.3,1.2,0.5
		c0.5,0.4,0.7,0.9,0.7,1.6c0,0.9-0.3,1.5-0.9,1.9c-0.6,0.4-1.3,0.6-2.2,0.6c-1,0-1.7-0.2-2.2-0.8c-0.5-0.5-0.8-1.2-0.8-2H163.1z"/>
	<path class="st8" d="M169.9,337.9h5.7v1h-4.7v2.4h4.3v0.9h-4.3v2.7h4.8v0.9h-5.8V337.9z"/>
	<path class="st8" d="M177.8,343.2c0,0.4,0.1,0.8,0.3,1.1c0.3,0.5,0.9,0.8,1.8,0.8c0.4,0,0.7-0.1,1.1-0.2c0.6-0.2,0.9-0.6,0.9-1.2
		c0-0.4-0.1-0.7-0.4-0.9c-0.3-0.2-0.7-0.3-1.2-0.5l-1-0.2c-0.7-0.2-1.2-0.3-1.4-0.5c-0.5-0.3-0.7-0.8-0.7-1.5c0-0.7,0.2-1.3,0.7-1.7
		s1.2-0.7,2-0.7c0.8,0,1.5,0.2,2.1,0.6c0.6,0.4,0.8,1,0.8,1.9h-1c-0.1-0.4-0.2-0.7-0.3-1c-0.3-0.4-0.8-0.6-1.6-0.6
		c-0.6,0-1,0.1-1.3,0.4c-0.3,0.3-0.4,0.6-0.4,0.9c0,0.4,0.2,0.7,0.5,0.8c0.2,0.1,0.7,0.3,1.4,0.4l1.1,0.3c0.5,0.1,0.9,0.3,1.2,0.5
		c0.5,0.4,0.7,0.9,0.7,1.6c0,0.9-0.3,1.5-0.9,1.9c-0.6,0.4-1.3,0.6-2.2,0.6c-1,0-1.7-0.2-2.2-0.8c-0.5-0.5-0.8-1.2-0.8-2H177.8z"/>
	<path class="st8" d="M184.1,342.2h2.7v1h-2.7V342.2z"/>
	<path class="st8" d="M188.2,337.9h3.2c1.1,0,1.9,0.4,2.5,1.2c0.5,0.7,0.8,1.6,0.8,2.7c0,0.8-0.2,1.6-0.5,2.3
		c-0.5,1.2-1.5,1.8-2.8,1.8h-3.1V337.9z M191.1,344.8c0.4,0,0.6,0,0.9-0.1c0.4-0.1,0.7-0.4,1-0.8c0.2-0.3,0.4-0.7,0.4-1.2
		c0.1-0.3,0.1-0.6,0.1-0.8c0-1-0.2-1.7-0.6-2.3s-1-0.8-1.8-0.8h-1.9v6.1H191.1z"/>
	<path class="st8" d="M196.2,337.9h5.5v1h-4.4v2.4h3.9v0.9h-3.9v3.6h-1.1V337.9z"/>
	<path class="st8" d="M201.7,344.6h1.1v1.2h-1.1V344.6z"/>
</g>
<g>
	<path class="st8" d="M82.7,66.8c-0.8,0.6-1.8,0.9-3.2,0.9h-2.7v4.7h-2.7v-13h5.6c1.3,0,2.3,0.3,3.1,1c0.8,0.7,1.1,1.7,1.1,3.1
		C83.9,65.1,83.5,66.2,82.7,66.8z M80.7,62.2c-0.3-0.3-0.8-0.4-1.4-0.4h-2.4v3.8h2.4c0.6,0,1.1-0.2,1.4-0.5s0.5-0.8,0.5-1.5
		S81,62.5,80.7,62.2z"/>
	<path class="st8" d="M89.6,66.6c0.5-0.1,0.8-0.1,1-0.2c0.4-0.2,0.5-0.4,0.5-0.7c0-0.4-0.1-0.7-0.4-0.8c-0.3-0.1-0.7-0.2-1.2-0.2
		c-0.6,0-1,0.1-1.3,0.4c-0.2,0.2-0.3,0.5-0.4,0.9h-2.4c0.1-0.8,0.3-1.5,0.7-2.1c0.7-0.8,1.8-1.3,3.4-1.3c1.1,0,2,0.2,2.8,0.6
		s1.2,1.2,1.2,2.4V70c0,0.3,0,0.7,0,1.1c0,0.3,0.1,0.6,0.1,0.7s0.2,0.2,0.4,0.3v0.4h-2.7c-0.1-0.2-0.1-0.4-0.2-0.5s-0.1-0.4-0.1-0.6
		c-0.3,0.4-0.7,0.7-1.2,1c-0.5,0.3-1.2,0.5-1.8,0.5c-0.9,0-1.6-0.2-2.2-0.7s-0.9-1.2-0.9-2.1c0-1.2,0.5-2,1.4-2.6
		c0.5-0.3,1.2-0.5,2.2-0.6L89.6,66.6z M91.2,67.8C91,67.9,90.8,68,90.7,68c-0.2,0.1-0.4,0.1-0.7,0.2l-0.6,0.1
		c-0.5,0.1-0.9,0.2-1.2,0.3c-0.4,0.2-0.6,0.6-0.6,1.1c0,0.4,0.1,0.7,0.4,0.9c0.2,0.2,0.5,0.3,0.9,0.3c0.5,0,1.1-0.2,1.5-0.5
		c0.5-0.3,0.7-0.9,0.7-1.7V67.8z"/>
	<path class="st8" d="M101.2,62.6c0,0,0.1,0,0.2,0v2.6c-0.2,0-0.3,0-0.4,0s-0.2,0-0.3,0c-1,0-1.7,0.3-2,1c-0.2,0.4-0.3,0.9-0.3,1.7
		v4.6h-2.5v-9.6h2.4v1.7c0.4-0.6,0.7-1.1,1-1.3c0.5-0.4,1.1-0.6,1.8-0.6C101.1,62.6,101.1,62.6,101.2,62.6z"/>
	<path class="st8" d="M106.6,66.6c0.5-0.1,0.8-0.1,1-0.2c0.4-0.2,0.5-0.4,0.5-0.7c0-0.4-0.1-0.7-0.4-0.8c-0.3-0.1-0.7-0.2-1.2-0.2
		c-0.6,0-1,0.1-1.3,0.4c-0.2,0.2-0.3,0.5-0.4,0.9h-2.4c0.1-0.8,0.3-1.5,0.7-2.1c0.7-0.8,1.8-1.3,3.4-1.3c1.1,0,2,0.2,2.8,0.6
		s1.2,1.2,1.2,2.4V70c0,0.3,0,0.7,0,1.1c0,0.3,0.1,0.6,0.1,0.7s0.2,0.2,0.4,0.3v0.4h-2.7c-0.1-0.2-0.1-0.4-0.2-0.5s-0.1-0.4-0.1-0.6
		c-0.3,0.4-0.7,0.7-1.2,1c-0.5,0.3-1.2,0.5-1.8,0.5c-0.9,0-1.6-0.2-2.2-0.7s-0.9-1.2-0.9-2.1c0-1.2,0.5-2,1.4-2.6
		c0.5-0.3,1.2-0.5,2.2-0.6L106.6,66.6z M108.2,67.8c-0.2,0.1-0.3,0.2-0.5,0.2c-0.2,0.1-0.4,0.1-0.7,0.2l-0.6,0.1
		c-0.5,0.1-0.9,0.2-1.2,0.3c-0.4,0.2-0.6,0.6-0.6,1.1c0,0.4,0.1,0.7,0.4,0.9c0.2,0.2,0.5,0.3,0.9,0.3c0.5,0,1.1-0.2,1.5-0.5
		c0.5-0.3,0.7-0.9,0.7-1.7V67.8z"/>
	<path class="st8" d="M119.8,69.4c0.1,0.4,0.2,0.8,0.3,0.9c0.3,0.3,0.9,0.5,1.7,0.5c0.5,0,0.9-0.1,1.2-0.2s0.4-0.4,0.4-0.7
		c0-0.3-0.1-0.5-0.4-0.6s-1.1-0.4-2.6-0.8c-1.1-0.3-1.9-0.6-2.3-1c-0.4-0.4-0.7-1-0.7-1.7c0-0.9,0.3-1.6,1-2.3c0.7-0.6,1.7-1,2.9-1
		c1.2,0,2.2,0.2,2.9,0.7s1.2,1.3,1.3,2.5h-2.5c0-0.3-0.1-0.6-0.3-0.8c-0.3-0.3-0.7-0.5-1.4-0.5c-0.5,0-0.9,0.1-1.2,0.3
		s-0.3,0.4-0.3,0.6c0,0.3,0.1,0.5,0.4,0.6c0.2,0.1,1.1,0.4,2.6,0.7c1,0.2,1.7,0.6,2.2,1.1c0.5,0.5,0.7,1.1,0.7,1.8
		c0,0.9-0.4,1.7-1.1,2.3c-0.7,0.6-1.8,0.9-3.3,0.9c-1.5,0-2.6-0.3-3.3-1c-0.7-0.6-1.1-1.4-1.1-2.4H119.8z"/>
	<path class="st8" d="M131.7,66.6c0.5-0.1,0.8-0.1,1-0.2c0.4-0.2,0.5-0.4,0.5-0.7c0-0.4-0.1-0.7-0.4-0.8s-0.7-0.2-1.2-0.2
		c-0.6,0-1,0.1-1.3,0.4c-0.2,0.2-0.3,0.5-0.4,0.9h-2.4c0.1-0.8,0.3-1.5,0.7-2.1c0.7-0.8,1.8-1.3,3.4-1.3c1.1,0,2,0.2,2.8,0.6
		c0.8,0.4,1.2,1.2,1.2,2.4V70c0,0.3,0,0.7,0,1.1c0,0.3,0.1,0.6,0.1,0.7s0.2,0.2,0.4,0.3v0.4h-2.7c-0.1-0.2-0.1-0.4-0.2-0.5
		s-0.1-0.4-0.1-0.6c-0.3,0.4-0.7,0.7-1.2,1c-0.5,0.3-1.2,0.5-1.8,0.5c-0.9,0-1.6-0.2-2.2-0.7c-0.6-0.5-0.9-1.2-0.9-2.1
		c0-1.2,0.5-2,1.4-2.6c0.5-0.3,1.2-0.5,2.2-0.6L131.7,66.6z M133.2,67.8c-0.2,0.1-0.3,0.2-0.5,0.2s-0.4,0.1-0.7,0.2l-0.6,0.1
		c-0.5,0.1-0.9,0.2-1.2,0.3c-0.4,0.2-0.6,0.6-0.6,1.1c0,0.4,0.1,0.7,0.4,0.9c0.2,0.2,0.5,0.3,0.9,0.3c0.5,0,1.1-0.2,1.5-0.5
		c0.5-0.3,0.7-0.9,0.7-1.7V67.8z"/>
	<path class="st8" d="M146.1,64c0.7,0.9,1.1,2.1,1.1,3.5c0,1.5-0.4,2.7-1.1,3.7c-0.7,1-1.7,1.5-3,1.5c-0.8,0-1.4-0.2-1.9-0.5
		c-0.3-0.2-0.6-0.5-0.9-1v1.2h-2.5V59.5h2.5v4.6c0.3-0.4,0.7-0.8,1.1-1c0.5-0.3,1-0.4,1.7-0.4C144.4,62.7,145.3,63.1,146.1,64z
		 M144,69.9c0.4-0.5,0.5-1.2,0.5-2.1c0-0.7-0.1-1.2-0.3-1.7c-0.3-0.8-1-1.3-1.9-1.3c-0.9,0-1.5,0.4-1.9,1.2c-0.2,0.4-0.3,1-0.3,1.7
		c0,0.8,0.2,1.5,0.5,2s0.9,0.8,1.7,0.8C143.1,70.6,143.6,70.4,144,69.9z"/>
	<path class="st8" d="M155.1,63.1c0.7,0.3,1.2,0.8,1.7,1.4c0.4,0.6,0.6,1.2,0.8,2c0.1,0.4,0.1,1.1,0.1,1.9h-7c0,1,0.4,1.6,1,2
		c0.4,0.2,0.8,0.4,1.4,0.4c0.6,0,1-0.1,1.4-0.4c0.2-0.2,0.4-0.4,0.5-0.7h2.6c-0.1,0.6-0.4,1.1-0.9,1.7c-0.9,0.9-2.1,1.4-3.6,1.4
		c-1.3,0-2.4-0.4-3.4-1.2s-1.5-2.1-1.5-3.8c0-1.7,0.4-2.9,1.3-3.8c0.9-0.9,2-1.3,3.4-1.3C153.7,62.6,154.5,62.8,155.1,63.1z
		 M151.4,65.2c-0.4,0.4-0.6,0.9-0.7,1.5h4.3c0-0.7-0.3-1.2-0.7-1.5s-0.9-0.5-1.5-0.5C152.2,64.7,151.7,64.9,151.4,65.2z"/>
	<path class="st8" d="M164.2,62.6c0,0,0.1,0,0.2,0v2.6c-0.2,0-0.3,0-0.4,0s-0.2,0-0.3,0c-1,0-1.7,0.3-2,1c-0.2,0.4-0.3,0.9-0.3,1.7
		v4.6h-2.5v-9.6h2.4v1.7c0.4-0.6,0.7-1.1,1-1.3c0.5-0.4,1.1-0.6,1.8-0.6C164.1,62.6,164.2,62.6,164.2,62.6z"/>
	<path class="st8" d="M166.7,59.5h2.8v3.3l-0.7,6h-1.3l-0.7-6V59.5z M166.8,69.9h2.6v2.5h-2.6V69.9z"/>
</g>
</svg>
