<?xml version="1.0" encoding="utf-8"?>
<!-- Generator: Adobe Illustrator 24.3.0, SVG Export Plug-In . SVG Version: 6.00 Build 0)  -->
<svg version="1.1" id="Camada_1" xmlns="http://www.w3.org/2000/svg" xmlns:xlink="http://www.w3.org/1999/xlink" x="0px" y="0px"
	 viewBox="0 0 195 195" style="enable-background:new 0 0 195 195;" xml:space="preserve">
<style type="text/css">
	.st0{fill:#FDC901;}
	.st1{fill:#FFFFFF;}
	.st2{fill:none;stroke:#FFFFFF;stroke-width:5;stroke-miterlimit:10;}
</style>
<g>
	<circle class="st0" cx="97.6" cy="97.5" r="96.3"/>
	<g>
		<path class="st1" d="M81.9,121.5c-2.4-10.8-12-18.2-23-18.2c-1.4,0-2.6,0.7-3.4,1.9l-8.9,12.7c-1.2,1.7-3.6,1.7-4.8,0l-8.9-13
			c-0.7-1.2-2.2-1.9-3.4-1.9c-11,0-20.4,7.7-23,18.2l-5.3,23.3c-1.2,5.3,2.9,10.1,8.2,10.1h69.8c5.3,0,9.4-5,8.2-10.1L81.9,121.5z"
			/>
		<path class="st2" d="M44.2,99.7c12.2,0,22.3-10.1,22.3-22.3V68c0-12.2-10.1-22.3-22.3-22.3C32,45.7,21.9,55.8,21.9,68v9.4
			C21.9,89.6,32,99.7,44.2,99.7z"/>
		<path class="st1" d="M181.7,121.5c-2.4-10.8-12-18.2-23-18.2c-1.4,0-2.6,0.7-3.4,1.9l-8.9,12.7c-1.2,1.7-3.6,1.7-4.8,0l-8.9-13
			c-0.7-1.2-2.2-1.9-3.4-1.9c-11,0-20.4,7.7-23,18.2l-5.3,23.3c-1.2,5.3,2.9,10.1,8.2,10.1H179c5.3,0,9.4-5,8.2-10.1L181.7,121.5z"
			/>
		<path class="st2" d="M144,99.7c12.2,0,22.3-10.1,22.3-22.3V68c0-12.2-10.1-22.3-22.3-22.3c-12.2,0-22.3,10.1-22.3,22.3v9.4
			C121.7,89.6,131.8,99.7,144,99.7z"/>
		<g>
			<g>
				<path class="st2" d="M113.1,18.1H70V46h32.1l2.8,2.3l8.2,6.8l-3.5-9.2h3.5V18.1z"/>
			</g>
		</g>
	</g>
</g>
</svg>
