<?xml version="1.0" encoding="utf-8"?>
<!-- Generator: Adobe Illustrator 24.3.0, SVG Export Plug-In . SVG Version: 6.00 Build 0)  -->
<svg version="1.1" xmlns="http://www.w3.org/2000/svg" xmlns:xlink="http://www.w3.org/1999/xlink" x="0px" y="0px"
	 viewBox="0 0 195 195" style="enable-background:new 0 0 195 195;" xml:space="preserve">
<style type="text/css">
	.st0{fill:#FECA05;}
	.st1{fill:#FFFFFF;}
	.st2{fill:none;stroke:#FFFFFF;stroke-width:6;stroke-miterlimit:10;}
</style>
<g id="Camada_1">
	<circle class="st0" cx="97.2" cy="97.1" r="96.3"/>
	<g>
		<path class="st1" d="M45.5,172.6c-12.7,0-21.7-6.7-25.9-12.9c-2.9-4.3-5.8-12-5.3-18.8c0.1-1.7,1.6-2.9,3.3-2.8
			c1.7,0.1,3,1.6,2.8,3.3c-0.4,5.1,1.9,11.5,4.3,15c3.2,4.7,10.6,10.2,20.9,10.2h0c2,0,4-0.2,6-0.6c14.2-2.9,18.4-14.2,23.2-27.3
			c2.1-5.7,4.3-11.5,7.4-17.2c2.7-4.9,6-9.6,9.2-14.1c4.9-7,9.9-14.1,12.4-21.7c5.6-16.8,3.1-33.5-6.9-45.9
			C86.6,27.2,69.8,20.8,52,22.8c-18,2-28.1,8.7-34.9,23c-0.7,1.4-2.8,6.2-3,10.4c-0.1,1.7-1.5,3-3.2,2.9c-1.7-0.1-3-1.5-2.9-3.2
			c0.3-5.2,2.6-10.6,3.6-12.7C19.1,27.2,31.4,19,51.3,16.8c20-2.2,38.7,4.9,50.2,19.2c11.4,14.1,14.3,32.9,8,51.7
			c-2.8,8.4-8.1,15.9-13.2,23.2c-3.1,4.5-6.3,9-8.8,13.6c-2.9,5.3-5,10.9-7,16.3c-5,13.6-10.3,27.7-27.8,31.2
			C50.3,172.4,47.9,172.6,45.5,172.6L45.5,172.6L45.5,172.6z"/>
		<path class="st1" d="M35.5,126.1c-0.8,0-1.6-0.3-2.2-0.9c-1.2-1.2-1.1-3.2,0.1-4.3c0.1-0.1,13-12.5,19-21.5
			c0.1-0.1,0.1-0.2,0.2-0.3c0,0,4.1-5.1,3.1-10c-0.5-2.6-2.6-4.9-6.1-6.7c-0.1-0.1-11.7-6.1-19.1-7.1c-1.7-0.2-2.8-1.8-2.6-3.5
			c0.2-1.7,1.8-2.8,3.5-2.6c8.4,1.2,20.5,7.5,21,7.8c5.2,2.7,8.3,6.4,9.3,11c1.5,7.2-3.4,13.9-4.3,15c-6.3,9.5-19.2,21.9-19.8,22.4
			C37,125.8,36.2,126.1,35.5,126.1L35.5,126.1z"/>
		<path class="st1" d="M43.7,100c-0.7,0-1.5-0.3-2.1-0.8C40.9,98.6,24.9,83.9,26.2,68c0-1.5,0.4-12.3,8-19.8
			c4.7-4.7,11.1-7.1,19.1-7.1h0c4.5,0,19.8,1.3,28.5,18.3c5.6,11.1,5,22.9-1.9,36.1c-0.8,1.5-2.6,2.1-4.1,1.3
			c-1.5-0.8-2.1-2.6-1.3-4.1c7.9-15.1,4.8-24.6,1.8-30.5c-6.9-13.5-18.4-15-23-15h0c-20.6,0-20.9,20.1-20.9,20.9c0,0.1,0,0.2,0,0.3
			c-1.1,13,13.3,26.1,13.4,26.3c1.3,1.1,1.4,3.1,0.2,4.3C45.3,99.6,44.5,100,43.7,100L43.7,100z"/>
	</g>
	<g>
		<rect x="138.6" y="155.1" class="st1" width="8.6" height="8.6"/>
		<polygon class="st1" points="138.6,146.5 147.2,146.5 149.3,107.8 136.4,107.8 		"/>
		<path class="st2" d="M142.9,92.7c-23.6,0-43,19.3-43,43s19.3,43,43,43s43-19.3,43-43S166.5,92.7,142.9,92.7z"/>
	</g>
</g>
<g id="Guias">
</g>
</svg>
