<?xml version="1.0" encoding="utf-8"?>
<!-- Generator: Adobe Illustrator 24.3.0, SVG Export Plug-In . SVG Version: 6.00 Build 0)  -->
<svg version="1.1" id="Camada_1" xmlns="http://www.w3.org/2000/svg" xmlns:xlink="http://www.w3.org/1999/xlink" x="0px" y="0px"
	 viewBox="0 0 195 195" style="enable-background:new 0 0 195 195;" xml:space="preserve">
<style type="text/css">
	.st0{fill:#FECA05;}
	.st1{fill:none;stroke:#FFFFFF;stroke-width:5;stroke-miterlimit:10;}
	.st2{fill:#FFFFFF;}
</style>
<circle class="st0" cx="97.2" cy="97.1" r="96.3"/>
<g>
	<path class="st1" d="M23.3,86h7l-7,18.5l16.6-13.8l5.7-4.7h65V29.7H23.3V86z"/>
	<path class="st2" d="M177.4,92.9H90.1v56.3h65l5.7,4.7l16.6,13.8l-7-18.5h7V92.9z M138.3,133.2l-6.4,6.4l-19.2-19.2l19.2-19.2
		l6.4,6.4l-8.2,8.2h19.4l0,9.1l-19.4,0L138.3,133.2z"/>
	<rect x="31.1" y="65.3" class="st2" width="71.8" height="3.6"/>
	<rect x="31.1" y="56.1" class="st2" width="71.8" height="3.6"/>
	<rect x="31.1" y="46.8" class="st2" width="71.8" height="3.6"/>
</g>
</svg>
