<?xml version="1.0" encoding="utf-8"?>
<!-- Generator: Adobe Illustrator 24.3.0, SVG Export Plug-In . SVG Version: 6.00 Build 0)  -->
<svg version="1.1" id="Camada_1" xmlns="http://www.w3.org/2000/svg" xmlns:xlink="http://www.w3.org/1999/xlink" x="0px" y="0px"
	 viewBox="0 0 377.2 267" style="enable-background:new 0 0 377.2 267;" xml:space="preserve">
<style type="text/css">
	.st0{fill:#FFCC00;}
	.st1{fill:#344CA3;}
	.st2{fill:#FFFFFF;}
</style>
<g>
	<rect class="st0" width="377.2" height="267"/>
	<rect x="113.5" y="200.1" class="st1" width="150.3" height="25.4"/>
	<g>
		<path class="st2" d="M160.8,213.9c-0.6,0.5-1.5,0.8-2.7,0.8h-2.2v3.9h-2.2v-10.8h4.6c1.1,0,1.9,0.3,2.6,0.8c0.6,0.6,1,1.4,1,2.6
			C161.7,212.5,161.4,213.4,160.8,213.9z M159.1,210c-0.3-0.2-0.7-0.4-1.2-0.4h-2v3.2h2c0.5,0,0.9-0.1,1.2-0.4
			c0.3-0.3,0.4-0.7,0.4-1.2S159.4,210.3,159.1,210z"/>
		<path class="st2" d="M167.8,210.4c0,0,0.1,0,0.2,0v2.1c-0.1,0-0.2,0-0.4,0s-0.2,0-0.2,0c-0.8,0-1.4,0.3-1.7,0.8
			c-0.2,0.3-0.2,0.8-0.2,1.4v3.8h-2.1v-8h2v1.4c0.3-0.5,0.6-0.9,0.8-1.1C166.6,210.6,167.1,210.4,167.8,210.4
			C167.7,210.4,167.8,210.4,167.8,210.4z"/>
		<path class="st2" d="M171.3,209.6h-2.1v-1.9h2.1V209.6z M169.2,210.6h2.1v8h-2.1V210.6z"/>
		<path class="st2" d="M179.8,211c0.5,0.4,0.8,1.1,0.8,2.1v5.4h-2.1v-4.8c0-0.4-0.1-0.7-0.2-1c-0.2-0.4-0.6-0.6-1.2-0.6
			c-0.7,0-1.2,0.3-1.4,0.9c-0.1,0.3-0.2,0.7-0.2,1.2v4.3h-2.1v-8h2v1.2c0.3-0.4,0.5-0.7,0.8-0.9c0.4-0.3,1-0.5,1.6-0.5
			C178.6,210.4,179.3,210.6,179.8,211z"/>
		<path class="st2" d="M187.3,213.4c0-0.3-0.1-0.6-0.3-0.8c-0.2-0.3-0.6-0.5-1.1-0.5c-0.7,0-1.2,0.3-1.4,1c-0.1,0.4-0.2,0.9-0.2,1.5
			s0.1,1.1,0.2,1.4c0.2,0.7,0.7,1,1.4,1c0.5,0,0.8-0.1,1-0.4c0.2-0.3,0.3-0.6,0.4-1h2.1c0,0.6-0.3,1.2-0.7,1.8
			c-0.7,0.9-1.6,1.4-2.9,1.4s-2.2-0.4-2.8-1.1c-0.6-0.8-0.9-1.7-0.9-3c0-1.4,0.3-2.4,1-3.2s1.6-1.1,2.8-1.1c1,0,1.8,0.2,2.5,0.7
			s1,1.2,1.1,2.4L187.3,213.4L187.3,213.4z"/>
		<path class="st2" d="M194.5,207.3l-2.2,2.2h-1.5l1.4-2.2H194.5z M190.9,210.6h2.1v8h-2.1V210.6z"/>
		<path class="st2" d="M201.7,211.4c0.6,0.7,1,1.7,1,3c0,1.4-0.3,2.5-1,3.2c-0.6,0.7-1.5,1.1-2.5,1.1c-0.6,0-1.2-0.2-1.6-0.5
			c-0.2-0.2-0.5-0.4-0.7-0.8v4.2h-2.1v-11.1h2v1.2c0.2-0.3,0.5-0.6,0.7-0.8c0.5-0.4,1-0.5,1.7-0.5
			C200.3,210.4,201,210.8,201.7,211.4z M200.1,212.9c-0.3-0.5-0.7-0.7-1.4-0.7c-0.8,0-1.3,0.4-1.6,1.1c-0.1,0.4-0.2,0.9-0.2,1.4
			c0,0.9,0.2,1.6,0.7,2c0.3,0.2,0.6,0.3,1,0.3c0.6,0,1-0.2,1.3-0.7s0.5-1,0.5-1.8C200.5,214,200.4,213.4,200.1,212.9z"/>
		<path class="st2" d="M206.3,209.6h-2.1v-1.9h2.1V209.6z M204.2,210.6h2.1v8h-2.1V210.6z"/>
		<path class="st2" d="M215,217.6c-0.7,0.8-1.7,1.2-3.1,1.2c-1.4,0-2.4-0.4-3.1-1.2c-0.7-0.8-1-1.8-1-3c0-1.1,0.3-2.1,1-3
			c0.7-0.8,1.7-1.3,3.1-1.3c1.4,0,2.4,0.4,3.1,1.3c0.7,0.8,1,1.8,1,3S215.6,216.8,215,217.6z M213.3,216.4c0.3-0.4,0.5-1,0.5-1.8
			s-0.2-1.4-0.5-1.8c-0.3-0.4-0.8-0.6-1.4-0.6s-1.1,0.2-1.4,0.6s-0.5,1-0.5,1.8s0.2,1.4,0.5,1.8c0.3,0.4,0.8,0.6,1.4,0.6
			S213,216.9,213.3,216.4z"/>
		<path class="st2" d="M219.1,216c0,0.4,0.1,0.6,0.3,0.8c0.3,0.3,0.7,0.4,1.4,0.4c0.4,0,0.7-0.1,1-0.2c0.2-0.1,0.4-0.3,0.4-0.5
			s-0.1-0.4-0.3-0.5s-0.9-0.3-2.2-0.6c-0.9-0.2-1.5-0.5-1.9-0.8s-0.6-0.8-0.6-1.4c0-0.7,0.3-1.4,0.9-1.9c0.6-0.5,1.4-0.8,2.4-0.8
			s1.8,0.2,2.4,0.6s1,1.1,1.1,2.1h-2.1c0-0.3-0.1-0.5-0.2-0.6c-0.2-0.3-0.6-0.4-1.2-0.4c-0.5,0-0.8,0.1-1,0.2
			c-0.2,0.1-0.3,0.3-0.3,0.5s0.1,0.4,0.3,0.5s0.9,0.3,2.2,0.6c0.8,0.2,1.5,0.5,1.9,0.9s0.6,0.9,0.6,1.5c0,0.8-0.3,1.4-0.9,1.9
			c-0.6,0.5-1.5,0.8-2.7,0.8c-1.3,0-2.2-0.3-2.8-0.8s-0.9-1.2-0.9-2h2.2V216z"/>
	</g>
	<path class="st1" d="M217,72l-37.9,22c-0.4,0.2-0.8,0.6-1,1l-21.2,40.2c-0.6,1-0.4,2.1,0.4,2.9c0.4,0.4,1.1,0.6,1.7,0.6
		c0.4,0,0.8-0.2,1.1-0.4l40.8-23.5c0.4-0.2,0.8-0.6,1-1L220.4,75c0.4-1,0.2-2.1-0.6-2.9C219.1,71.4,218,71.4,217,72L217,72z"/>
	<path class="st1" d="M252.7,106.1c-0.8-34.8-29.1-63-64.1-63c-35.4,0-64.1,28.7-64.1,64.1s28.7,64.1,64.1,64.1h1.9h0.2h0.4
		c34.3-1.3,61.6-29.5,61.6-64.1L252.7,106.1L252.7,106.1z M239.7,108.8h8.2c-0.6,30.4-24.7,55.3-54.7,57.6v-8.2l0,0h-5l0,0v8.4
		c-32.1-0.2-58.2-26-58.9-58h8.4v-5h-8.4c1.9-30.8,27.6-55.5,59.1-55.7v8.4h5V48c29.3,2.3,52.8,26,54.5,55.7h-8.2
		c-0.1,0-0.1,0-0.2,0v4.9C239.6,108.8,239.6,108.8,239.7,108.8z"/>
</g>
<path class="st2" d="M348.5,240.7c-0.3-0.3-0.4-0.7-0.4-1c0-0.4,0.2-0.8,0.4-1l5.7-5.7l-29.8-11.2l11.1,29.8l5.7-5.7
	c0.3-0.3,0.7-0.4,1-0.4c0.4,0,0.8,0.2,1,0.4l10.6,10.5l5.2-5.2L348.5,240.7z"/>
</svg>
