<?xml version="1.0" encoding="utf-8"?>
<!-- Generator: Adobe Illustrator 24.3.0, SVG Export Plug-In . SVG Version: 6.00 Build 0)  -->
<svg version="1.1" id="Camada_1" xmlns="http://www.w3.org/2000/svg" xmlns:xlink="http://www.w3.org/1999/xlink" x="0px" y="0px"
	 viewBox="0 0 888 71.5" style="enable-background:new 0 0 888 71.5;" xml:space="preserve">
<style type="text/css">
	.st0{fill:#AFB2B4;}
	.st1{fill:#167A56;}
	.st2{fill:#FFFFFF;}
	.st3{fill:#344CA3;}
</style>
<g>
	<rect x="-1.3" class="st0" width="889.6" height="50.5"/>
	<rect x="578.4" class="st1" width="269.7" height="71.5"/>
	<g>
		<g>
			<path class="st2" d="M596.2,41.4h2.5l3.8,10.8h-2.4l-0.7-2.2h-4l-0.7,2.2h-2.4L596.2,41.4z M596,48.2h2.8l-1.4-4.2L596,48.2z"/>
			<path class="st2" d="M602.9,45.8v-1.5h1.1v-2.2h2.1v2.2h1.3v1.5h-1.3V50c0,0.3,0,0.5,0.1,0.6c0.1,0.1,0.3,0.1,0.8,0.1
				c0.1,0,0.1,0,0.2,0c0.1,0,0.1,0,0.2,0v1.6l-1,0c-1,0-1.7-0.1-2-0.5c-0.2-0.2-0.4-0.6-0.4-1.1v-4.9H602.9z"/>
			<path class="st2" d="M613.2,44.1c0,0,0.1,0,0.2,0v2.1c-0.1,0-0.2,0-0.4,0c-0.1,0-0.2,0-0.2,0c-0.8,0-1.4,0.3-1.7,0.8
				c-0.2,0.3-0.2,0.8-0.2,1.4v3.8h-2.1v-8h2v1.4c0.3-0.5,0.6-0.9,0.8-1.1C611.9,44.2,612.4,44.1,613.2,44.1
				C613.1,44.1,613.1,44.1,613.2,44.1z"/>
			<path class="st2" d="M616.7,43.3h-2.1v-1.9h2.1V43.3z M614.6,44.3h2.1v8h-2.1V44.3z"/>
			<path class="st2" d="M625.5,45.2c0.6,0.8,0.9,1.7,0.9,2.9c0,1.2-0.3,2.3-0.9,3.1c-0.6,0.8-1.4,1.2-2.5,1.2
				c-0.7,0-1.2-0.1-1.6-0.4c-0.2-0.2-0.5-0.4-0.8-0.8v1h-2.1V41.5h2.1v3.8c0.3-0.4,0.6-0.7,0.9-0.8c0.4-0.2,0.9-0.4,1.4-0.4
				C624.1,44.1,624.9,44.5,625.5,45.2z M623.8,50.1c0.3-0.4,0.5-1,0.5-1.7c0-0.6-0.1-1-0.2-1.4c-0.3-0.7-0.8-1.1-1.5-1.1
				c-0.8,0-1.3,0.3-1.6,1c-0.1,0.4-0.2,0.8-0.2,1.4c0,0.7,0.2,1.2,0.5,1.7c0.3,0.4,0.8,0.7,1.4,0.7
				C623.1,50.7,623.5,50.5,623.8,50.1z"/>
			<path class="st2" d="M629.9,44.3v4.8c0,0.5,0.1,0.8,0.2,1c0.2,0.4,0.6,0.6,1.1,0.6c0.7,0,1.2-0.3,1.5-0.9
				c0.1-0.3,0.2-0.7,0.2-1.2v-4.3h2.1v8h-2v-1.1c0,0-0.1,0.1-0.1,0.2c-0.1,0.1-0.2,0.2-0.3,0.3c-0.3,0.3-0.6,0.5-0.9,0.6
				c-0.3,0.1-0.7,0.2-1.1,0.2c-1.2,0-2-0.4-2.4-1.3c-0.2-0.5-0.3-1.2-0.3-2.1v-4.8H629.9z"/>
			<path class="st2" d="M639.2,43.3H637v-1.9h2.1V43.3z M637,44.3h2.1v8H637V44.3z"/>
			<path class="st2" d="M645.9,47.1c0-0.3-0.1-0.6-0.3-0.8c-0.2-0.3-0.6-0.5-1.1-0.5c-0.7,0-1.2,0.3-1.4,1c-0.1,0.4-0.2,0.9-0.2,1.5
				c0,0.6,0.1,1.1,0.2,1.4c0.2,0.7,0.7,1,1.4,1c0.5,0,0.8-0.1,1-0.4c0.2-0.3,0.3-0.6,0.4-1h2.1c0,0.6-0.3,1.2-0.7,1.8
				c-0.7,0.9-1.5,1.4-2.7,1.4l-0.5,0.7c0.2,0,0.3-0.1,0.3-0.1c0.1,0,0.1,0,0.2,0c0.4,0,0.7,0.1,0.9,0.3c0.2,0.2,0.4,0.5,0.4,0.8
				c0,0.4-0.2,0.8-0.5,1.1c-0.4,0.3-0.8,0.4-1.4,0.4c-0.2,0-0.5-0.1-0.9-0.2c-0.2,0-0.4-0.1-0.7-0.2l0.3-0.6
				c0.3,0.1,0.5,0.1,0.6,0.2c0.2,0.1,0.4,0.1,0.6,0.1c0.3,0,0.5-0.1,0.6-0.2c0.1-0.1,0.2-0.3,0.2-0.4c0-0.2-0.1-0.4-0.2-0.4
				s-0.3-0.1-0.5-0.1c-0.1,0-0.2,0-0.3,0s-0.2,0.1-0.3,0.1l-0.3-0.3l0.7-1.1c-0.9,0-1.7-0.4-2.3-1.1c-0.6-0.8-0.9-1.7-0.9-3
				c0-1.4,0.3-2.4,1-3.2c0.7-0.8,1.6-1.1,2.8-1.1c1,0,1.8,0.2,2.5,0.7s1,1.2,1.1,2.4H645.9z"/>
			<path class="st2" d="M656.1,51.2c-0.7,0.8-1.7,1.2-3.1,1.2s-2.4-0.4-3.1-1.2c-0.7-0.8-1-1.8-1-3c0-1.1,0.3-2.1,1-3
				s1.7-1.3,3.1-1.3s2.4,0.4,3.1,1.3s1,1.8,1,3C657.2,49.4,656.8,50.4,656.1,51.2z M652.5,41.3c0.1,0,0.2,0.1,0.3,0.1l0.7,0.3
				c0.2,0.1,0.3,0.1,0.4,0.1s0.1,0,0.2,0c0.2,0,0.4-0.1,0.5-0.2c0.1-0.1,0.2-0.3,0.2-0.4h1c-0.1,0.5-0.3,0.9-0.5,1.3
				c-0.3,0.3-0.6,0.5-1.1,0.5c-0.2,0-0.4,0-0.6-0.1c-0.2,0-0.3-0.1-0.5-0.1l-0.6-0.2c-0.1,0-0.2-0.1-0.2-0.1c-0.1,0-0.2,0-0.2,0
				c-0.2,0-0.3,0.1-0.5,0.2c-0.1,0.1-0.2,0.3-0.2,0.5h-1c0.1-0.5,0.2-0.9,0.4-1.1c0.3-0.5,0.8-0.7,1.4-0.7
				C652.3,41.2,652.4,41.2,652.5,41.3z M654.5,50.1c0.3-0.4,0.5-1,0.5-1.8c0-0.8-0.2-1.4-0.5-1.8s-0.8-0.6-1.4-0.6
				c-0.6,0-1.1,0.2-1.4,0.6s-0.5,1-0.5,1.8c0,0.8,0.2,1.4,0.5,1.8c0.3,0.4,0.8,0.6,1.4,0.6C653.7,50.7,654.2,50.5,654.5,50.1z"/>
			<path class="st2" d="M663.8,44.4c0.6,0.2,1,0.6,1.4,1.2c0.3,0.5,0.5,1,0.6,1.6c0.1,0.4,0.1,0.9,0.1,1.6h-5.8
				c0,0.8,0.3,1.4,0.8,1.7c0.3,0.2,0.7,0.3,1.1,0.3c0.5,0,0.9-0.1,1.2-0.4c0.2-0.1,0.3-0.3,0.4-0.5h2.1c-0.1,0.5-0.3,1-0.8,1.4
				c-0.7,0.8-1.7,1.2-3,1.2c-1.1,0-2-0.3-2.8-1c-0.8-0.7-1.2-1.7-1.2-3.2c0-1.4,0.4-2.4,1.1-3.2c0.7-0.7,1.7-1.1,2.8-1.1
				C662.7,44,663.3,44.2,663.8,44.4z M660.7,46.2c-0.3,0.3-0.5,0.7-0.6,1.2h3.6c0-0.6-0.2-1-0.6-1.3c-0.3-0.3-0.7-0.4-1.2-0.4
				C661.4,45.8,661,45.9,660.7,46.2z"/>
			<path class="st2" d="M668.6,49.7c0,0.4,0.1,0.6,0.3,0.8c0.3,0.3,0.7,0.4,1.4,0.4c0.4,0,0.7-0.1,1-0.2c0.2-0.1,0.4-0.3,0.4-0.5
				c0-0.2-0.1-0.4-0.3-0.5c-0.2-0.1-0.9-0.3-2.2-0.6c-0.9-0.2-1.5-0.5-1.9-0.8c-0.4-0.3-0.6-0.8-0.6-1.4c0-0.7,0.3-1.4,0.9-1.9
				c0.6-0.5,1.4-0.8,2.4-0.8c1,0,1.8,0.2,2.4,0.6s1,1.1,1.1,2.1h-2.1c0-0.3-0.1-0.5-0.2-0.6c-0.2-0.3-0.6-0.4-1.2-0.4
				c-0.5,0-0.8,0.1-1,0.2c-0.2,0.1-0.3,0.3-0.3,0.5c0,0.2,0.1,0.4,0.3,0.5c0.2,0.1,0.9,0.3,2.2,0.6c0.8,0.2,1.5,0.5,1.9,0.9
				c0.4,0.4,0.6,0.9,0.6,1.5c0,0.8-0.3,1.4-0.9,1.9c-0.6,0.5-1.5,0.8-2.7,0.8c-1.3,0-2.2-0.3-2.8-0.8c-0.6-0.5-0.9-1.2-0.9-2H668.6z
				"/>
			<path class="st2" d="M684.7,44.4c0.6,0.2,1,0.6,1.4,1.2c0.3,0.5,0.5,1,0.6,1.6c0.1,0.4,0.1,0.9,0.1,1.6h-5.8
				c0,0.8,0.3,1.4,0.8,1.7c0.3,0.2,0.7,0.3,1.1,0.3c0.5,0,0.9-0.1,1.2-0.4c0.2-0.1,0.3-0.3,0.4-0.5h2.1c-0.1,0.5-0.3,1-0.8,1.4
				c-0.7,0.8-1.7,1.2-3,1.2c-1.1,0-2-0.3-2.8-1c-0.8-0.7-1.2-1.7-1.2-3.2c0-1.4,0.4-2.4,1.1-3.2c0.7-0.7,1.7-1.1,2.8-1.1
				C683.5,44,684.1,44.2,684.7,44.4z M681.5,46.2c-0.3,0.3-0.5,0.7-0.6,1.2h3.6c0-0.6-0.2-1-0.6-1.3c-0.3-0.3-0.7-0.4-1.2-0.4
				C682.2,45.8,681.8,45.9,681.5,46.2z"/>
			<path class="st2" d="M692.1,41.5h7.7v1.9h-5.4v2.5h4.8v1.9h-4.8v4.5h-2.2V41.5z"/>
			<path class="st2" d="M706.3,44.4c0.6,0.2,1,0.6,1.4,1.2c0.3,0.5,0.5,1,0.6,1.6c0.1,0.4,0.1,0.9,0.1,1.6h-5.8
				c0,0.8,0.3,1.4,0.8,1.7c0.3,0.2,0.7,0.3,1.1,0.3c0.5,0,0.9-0.1,1.2-0.4c0.2-0.1,0.3-0.3,0.4-0.5h2.1c-0.1,0.5-0.3,1-0.8,1.4
				c-0.7,0.8-1.7,1.2-3,1.2c-1.1,0-2-0.3-2.8-1c-0.8-0.7-1.2-1.7-1.2-3.2c0-1.4,0.4-2.4,1.1-3.2c0.7-0.7,1.7-1.1,2.8-1.1
				C705.1,44,705.7,44.2,706.3,44.4z M703.2,46.2c-0.3,0.3-0.5,0.7-0.6,1.2h3.6c0-0.6-0.2-1-0.6-1.3c-0.3-0.3-0.7-0.4-1.2-0.4
				C703.9,45.8,703.5,45.9,703.2,46.2z"/>
			<path class="st2" d="M713.9,44.1c0,0,0.1,0,0.2,0v2.1c-0.1,0-0.2,0-0.4,0c-0.1,0-0.2,0-0.2,0c-0.8,0-1.4,0.3-1.7,0.8
				c-0.2,0.3-0.2,0.8-0.2,1.4v3.8h-2.1v-8h2v1.4c0.3-0.5,0.6-0.9,0.8-1.1C712.6,44.2,713.1,44.1,713.9,44.1
				C713.8,44.1,713.8,44.1,713.9,44.1z"/>
			<path class="st2" d="M719.7,44.1c0,0,0.1,0,0.2,0v2.1c-0.1,0-0.2,0-0.4,0c-0.1,0-0.2,0-0.2,0c-0.8,0-1.4,0.3-1.7,0.8
				c-0.2,0.3-0.2,0.8-0.2,1.4v3.8h-2.1v-8h2v1.4c0.3-0.5,0.6-0.9,0.8-1.1C718.5,44.2,719,44.1,719.7,44.1
				C719.6,44.1,719.7,44.1,719.7,44.1z"/>
			<path class="st2" d="M724.2,47.4c0.4,0,0.7-0.1,0.8-0.2c0.3-0.1,0.5-0.3,0.5-0.6c0-0.3-0.1-0.6-0.3-0.7c-0.2-0.1-0.6-0.2-1-0.2
				c-0.5,0-0.9,0.1-1.1,0.4c-0.1,0.2-0.2,0.4-0.3,0.7h-2c0-0.7,0.2-1.3,0.6-1.7c0.6-0.7,1.5-1.1,2.8-1.1c0.9,0,1.7,0.2,2.3,0.5
				s1,1,1,2v3.7c0,0.3,0,0.6,0,0.9c0,0.3,0.1,0.5,0.1,0.6c0.1,0.1,0.2,0.2,0.3,0.2v0.3h-2.3c-0.1-0.2-0.1-0.3-0.1-0.5
				c0-0.1,0-0.3-0.1-0.5c-0.3,0.3-0.6,0.6-1,0.8c-0.5,0.3-1,0.4-1.5,0.4c-0.7,0-1.3-0.2-1.8-0.6c-0.5-0.4-0.7-1-0.7-1.8
				c0-1,0.4-1.7,1.1-2.1c0.4-0.2,1-0.4,1.8-0.5L724.2,47.4z M725.5,48.3c-0.1,0.1-0.3,0.1-0.4,0.2c-0.1,0.1-0.3,0.1-0.6,0.1
				l-0.5,0.1c-0.4,0.1-0.8,0.2-1,0.3c-0.3,0.2-0.5,0.5-0.5,0.9c0,0.4,0.1,0.6,0.3,0.8c0.2,0.2,0.4,0.2,0.7,0.2
				c0.5,0,0.9-0.1,1.3-0.4c0.4-0.3,0.6-0.7,0.6-1.4V48.3z"/>
			<path class="st2" d="M739.4,44.3c0.3,0.1,0.7,0.4,0.9,0.7c0.2,0.3,0.4,0.6,0.5,1c0,0.3,0.1,0.7,0.1,1.2l0,5h-2.1v-5.1
				c0-0.3,0-0.6-0.1-0.7c-0.2-0.4-0.5-0.6-1-0.6c-0.6,0-1,0.2-1.2,0.7c-0.1,0.3-0.2,0.6-0.2,0.9v4.7H734v-4.7c0-0.5,0-0.8-0.1-1
				c-0.2-0.4-0.5-0.6-1-0.6c-0.6,0-1,0.2-1.2,0.6c-0.1,0.2-0.2,0.5-0.2,1v4.8h-2.1v-8h2v1.2c0.3-0.4,0.5-0.7,0.7-0.9
				c0.4-0.3,0.9-0.5,1.6-0.5c0.6,0,1.1,0.1,1.5,0.4c0.3,0.2,0.5,0.6,0.7,1c0.3-0.5,0.6-0.8,1-1c0.4-0.2,0.9-0.3,1.4-0.3
				C738.7,44.1,739,44.1,739.4,44.3z"/>
			<path class="st2" d="M747.9,44.4c0.6,0.2,1,0.6,1.4,1.2c0.3,0.5,0.5,1,0.6,1.6c0.1,0.4,0.1,0.9,0.1,1.6h-5.8
				c0,0.8,0.3,1.4,0.8,1.7c0.3,0.2,0.7,0.3,1.1,0.3c0.5,0,0.9-0.1,1.2-0.4c0.2-0.1,0.3-0.3,0.4-0.5h2.1c-0.1,0.5-0.3,1-0.8,1.4
				c-0.7,0.8-1.7,1.2-3,1.2c-1.1,0-2-0.3-2.8-1c-0.8-0.7-1.2-1.7-1.2-3.2c0-1.4,0.4-2.4,1.1-3.2c0.7-0.7,1.7-1.1,2.8-1.1
				C746.7,44,747.4,44.2,747.9,44.4z M744.8,46.2c-0.3,0.3-0.5,0.7-0.6,1.2h3.6c0-0.6-0.2-1-0.6-1.3c-0.3-0.3-0.7-0.4-1.2-0.4
				C745.5,45.8,745.1,45.9,744.8,46.2z"/>
			<path class="st2" d="M757.5,44.7c0.5,0.4,0.8,1.1,0.8,2.1v5.4h-2.1v-4.8c0-0.4-0.1-0.7-0.2-1c-0.2-0.4-0.6-0.6-1.2-0.6
				c-0.7,0-1.2,0.3-1.4,0.9c-0.1,0.3-0.2,0.7-0.2,1.2v4.3h-2.1v-8h2v1.2c0.3-0.4,0.5-0.7,0.8-0.9c0.4-0.3,1-0.5,1.6-0.5
				C756.3,44.1,757,44.3,757.5,44.7z"/>
			<path class="st2" d="M759.4,45.8v-1.5h1.1v-2.2h2.1v2.2h1.3v1.5h-1.3V50c0,0.3,0,0.5,0.1,0.6c0.1,0.1,0.3,0.1,0.8,0.1
				c0.1,0,0.1,0,0.2,0c0.1,0,0.1,0,0.2,0v1.6l-1,0c-1,0-1.7-0.1-2-0.5c-0.2-0.2-0.4-0.6-0.4-1.1v-4.9H759.4z"/>
			<path class="st2" d="M768.3,47.4c0.4,0,0.7-0.1,0.8-0.2c0.3-0.1,0.5-0.3,0.5-0.6c0-0.3-0.1-0.6-0.3-0.7c-0.2-0.1-0.6-0.2-1-0.2
				c-0.5,0-0.9,0.1-1.1,0.4c-0.1,0.2-0.2,0.4-0.3,0.7h-2c0-0.7,0.2-1.3,0.6-1.7c0.6-0.7,1.5-1.1,2.8-1.1c0.9,0,1.7,0.2,2.3,0.5
				s1,1,1,2v3.7c0,0.3,0,0.6,0,0.9c0,0.3,0.1,0.5,0.1,0.6c0.1,0.1,0.2,0.2,0.3,0.2v0.3h-2.3c-0.1-0.2-0.1-0.3-0.1-0.5
				c0-0.1,0-0.3-0.1-0.5c-0.3,0.3-0.6,0.6-1,0.8c-0.5,0.3-1,0.4-1.5,0.4c-0.7,0-1.3-0.2-1.8-0.6c-0.5-0.4-0.7-1-0.7-1.8
				c0-1,0.4-1.7,1.1-2.1c0.4-0.2,1-0.4,1.8-0.5L768.3,47.4z M769.6,48.3c-0.1,0.1-0.3,0.1-0.4,0.2c-0.1,0.1-0.3,0.1-0.6,0.1
				l-0.5,0.1c-0.4,0.1-0.8,0.2-1,0.3c-0.3,0.2-0.5,0.5-0.5,0.9c0,0.4,0.1,0.6,0.3,0.8c0.2,0.2,0.4,0.2,0.7,0.2
				c0.5,0,0.9-0.1,1.3-0.4c0.4-0.3,0.6-0.7,0.6-1.4V48.3z"/>
			<path class="st2" d="M775.1,49.7c0,0.4,0.1,0.6,0.3,0.8c0.3,0.3,0.7,0.4,1.4,0.4c0.4,0,0.7-0.1,1-0.2c0.2-0.1,0.4-0.3,0.4-0.5
				c0-0.2-0.1-0.4-0.3-0.5c-0.2-0.1-0.9-0.3-2.2-0.6c-0.9-0.2-1.5-0.5-1.9-0.8c-0.4-0.3-0.6-0.8-0.6-1.4c0-0.7,0.3-1.4,0.9-1.9
				c0.6-0.5,1.4-0.8,2.4-0.8c1,0,1.8,0.2,2.4,0.6s1,1.1,1.1,2.1H778c0-0.3-0.1-0.5-0.2-0.6c-0.2-0.3-0.6-0.4-1.2-0.4
				c-0.5,0-0.8,0.1-1,0.2c-0.2,0.1-0.3,0.3-0.3,0.5c0,0.2,0.1,0.4,0.3,0.5c0.2,0.1,0.9,0.3,2.2,0.6c0.8,0.2,1.5,0.5,1.9,0.9
				c0.4,0.4,0.6,0.9,0.6,1.5c0,0.8-0.3,1.4-0.9,1.9c-0.6,0.5-1.5,0.8-2.7,0.8c-1.3,0-2.2-0.3-2.8-0.8c-0.6-0.5-0.9-1.2-0.9-2H775.1z
				"/>
			<path class="st2" d="M790.2,44.4c0.4,0.2,0.7,0.5,0.9,0.9v-3.8h2.1v10.8h-2v-1.1c-0.3,0.5-0.6,0.8-1,1c-0.4,0.2-0.9,0.3-1.4,0.3
				c-0.9,0-1.7-0.4-2.4-1.1c-0.6-0.8-1-1.7-1-2.9c0-1.4,0.3-2.4,0.9-3.2c0.6-0.8,1.5-1.2,2.5-1.2C789.4,44.1,789.8,44.2,790.2,44.4z
				 M790.7,50.1c0.3-0.4,0.5-1,0.5-1.7c0-1-0.2-1.7-0.7-2.1c-0.3-0.3-0.7-0.4-1.1-0.4c-0.6,0-1.1,0.2-1.3,0.7s-0.4,1-0.4,1.7
				c0,0.7,0.1,1.3,0.4,1.8s0.7,0.7,1.3,0.7S790.4,50.5,790.7,50.1z"/>
			<path class="st2" d="M798.3,47.4c0.4,0,0.7-0.1,0.8-0.2c0.3-0.1,0.4-0.3,0.4-0.6c0-0.3-0.1-0.6-0.3-0.7c-0.2-0.1-0.6-0.2-1-0.2
				c-0.5,0-0.9,0.1-1.1,0.4c-0.1,0.2-0.2,0.4-0.3,0.7h-2c0-0.7,0.2-1.3,0.6-1.7c0.6-0.7,1.5-1.1,2.8-1.1c0.9,0,1.7,0.2,2.3,0.5
				c0.7,0.3,1,1,1,2v3.7c0,0.3,0,0.6,0,0.9c0,0.3,0.1,0.5,0.1,0.6s0.2,0.2,0.3,0.2v0.3h-2.3c-0.1-0.2-0.1-0.3-0.1-0.5
				c0-0.1,0-0.3-0.1-0.5c-0.3,0.3-0.6,0.6-1,0.8c-0.5,0.3-1,0.4-1.5,0.4c-0.7,0-1.3-0.2-1.8-0.6c-0.5-0.4-0.7-1-0.7-1.8
				c0-1,0.4-1.7,1.1-2.1c0.4-0.2,1-0.4,1.8-0.5L798.3,47.4z M799.6,48.3c-0.1,0.1-0.3,0.1-0.4,0.2c-0.1,0.1-0.3,0.1-0.6,0.1
				l-0.5,0.1c-0.4,0.1-0.8,0.2-1,0.3c-0.3,0.2-0.5,0.5-0.5,0.9c0,0.4,0.1,0.6,0.3,0.8s0.4,0.2,0.7,0.2c0.5,0,0.9-0.1,1.3-0.4
				c0.4-0.3,0.6-0.7,0.6-1.4V48.3z"/>
			<path class="st2" d="M810.3,41.4h2.5l3.8,10.8h-2.4l-0.7-2.2h-4l-0.7,2.2h-2.4L810.3,41.4z M810.2,48.2h2.8l-1.4-4.2L810.2,48.2z
				"/>
			<path class="st2" d="M825.3,47.6c-0.6,0.5-1.5,0.8-2.7,0.8h-2.2v3.9h-2.2V41.4h4.6c1.1,0,1.9,0.3,2.6,0.8c0.6,0.6,1,1.4,1,2.6
				C826.2,46.1,825.9,47,825.3,47.6z M823.6,43.7c-0.3-0.2-0.7-0.4-1.2-0.4h-2v3.2h2c0.5,0,0.9-0.1,1.2-0.4c0.3-0.3,0.4-0.7,0.4-1.2
				S823.9,43.9,823.6,43.7z"/>
			<path class="st2" d="M829.7,48.9c0.1,0.5,0.2,0.9,0.4,1.1c0.4,0.4,1,0.7,1.9,0.7c0.5,0,1-0.1,1.3-0.2c0.6-0.2,1-0.6,1-1.2
				c0-0.4-0.2-0.6-0.5-0.8c-0.3-0.2-0.8-0.4-1.5-0.5l-1.2-0.3c-1.1-0.3-1.9-0.5-2.4-0.8c-0.7-0.5-1.1-1.3-1.1-2.3
				c0-1,0.4-1.8,1.1-2.4c0.7-0.6,1.8-1,3.1-1c1.1,0,2.1,0.3,2.9,0.9c0.8,0.6,1.2,1.5,1.3,2.6H834c0-0.6-0.3-1.1-0.9-1.4
				c-0.4-0.2-0.8-0.3-1.3-0.3c-0.6,0-1.1,0.1-1.4,0.4c-0.4,0.2-0.5,0.6-0.5,1c0,0.4,0.2,0.7,0.5,0.9c0.2,0.1,0.7,0.3,1.4,0.4
				l1.9,0.4c0.8,0.2,1.5,0.5,1.9,0.8c0.6,0.5,1,1.2,1,2.2c0,1-0.4,1.8-1.1,2.5c-0.8,0.7-1.8,1-3.2,1c-1.4,0-2.5-0.3-3.3-1
				c-0.8-0.6-1.2-1.5-1.2-2.6H829.7z"/>
		</g>
		<rect x="588" y="12.9" class="st2" width="70.1" height="16.5"/>
		<g>
			<path class="st1" d="M592.9,16.8h1.9v5.5c0,0.6,0.1,1.1,0.2,1.4c0.2,0.5,0.7,0.8,1.5,0.8c0.8,0,1.3-0.3,1.5-0.8
				c0.1-0.3,0.2-0.7,0.2-1.4v-5.5h1.9v5.5c0,1-0.1,1.7-0.4,2.2c-0.6,1-1.6,1.5-3.2,1.5s-2.6-0.5-3.2-1.5c-0.3-0.5-0.4-1.3-0.4-2.2
				V16.8z"/>
			<path class="st1" d="M607.2,19.6c0.4,0.4,0.7,1,0.7,1.8v4.5h-1.8v-4.1c0-0.4,0-0.6-0.1-0.8c-0.2-0.3-0.5-0.5-1-0.5
				c-0.6,0-1,0.3-1.2,0.8c-0.1,0.3-0.2,0.6-0.2,1v3.6h-1.7v-6.7h1.7v1c0.2-0.3,0.4-0.6,0.6-0.7c0.4-0.3,0.8-0.4,1.4-0.4
				C606.2,19,606.8,19.2,607.2,19.6z"/>
			<path class="st1" d="M611.3,18.4h-1.8v-1.6h1.8V18.4z M609.5,19.2h1.8v6.7h-1.8V19.2z"/>
			<path class="st1" d="M616.5,19.3c0.3,0.2,0.6,0.4,0.8,0.7v-3.2h1.8v9h-1.7v-0.9c-0.2,0.4-0.5,0.7-0.9,0.9
				c-0.3,0.2-0.7,0.3-1.2,0.3c-0.8,0-1.4-0.3-2-0.9c-0.5-0.6-0.8-1.4-0.8-2.4c0-1.1,0.3-2,0.8-2.7c0.5-0.7,1.2-1,2.1-1
				C615.8,19,616.2,19.1,616.5,19.3z M616.9,24c0.3-0.4,0.4-0.8,0.4-1.4c0-0.8-0.2-1.4-0.6-1.7c-0.3-0.2-0.5-0.3-0.9-0.3
				c-0.5,0-0.9,0.2-1.1,0.6c-0.2,0.4-0.4,0.9-0.4,1.4c0,0.6,0.1,1.1,0.4,1.5s0.6,0.6,1.1,0.6S616.6,24.4,616.9,24z"/>
			<path class="st1" d="M623.2,21.8c0.3,0,0.6-0.1,0.7-0.2c0.2-0.1,0.4-0.3,0.4-0.5c0-0.3-0.1-0.5-0.3-0.6c-0.2-0.1-0.5-0.2-0.8-0.2
				c-0.4,0-0.7,0.1-0.9,0.3c-0.1,0.2-0.2,0.4-0.2,0.6h-1.7c0-0.6,0.2-1.1,0.5-1.4c0.5-0.6,1.3-0.9,2.4-0.9c0.7,0,1.4,0.1,2,0.4
				c0.6,0.3,0.9,0.8,0.9,1.6v3.1c0,0.2,0,0.5,0,0.8c0,0.2,0,0.4,0.1,0.5c0.1,0.1,0.1,0.1,0.3,0.2v0.3h-1.9c-0.1-0.1-0.1-0.3-0.1-0.4
				c0-0.1,0-0.3,0-0.4c-0.2,0.3-0.5,0.5-0.8,0.7c-0.4,0.2-0.8,0.3-1.3,0.3c-0.6,0-1.1-0.2-1.5-0.5s-0.6-0.8-0.6-1.5
				c0-0.8,0.3-1.4,1-1.8c0.3-0.2,0.9-0.3,1.5-0.4L623.2,21.8z M624.3,22.6c-0.1,0.1-0.2,0.1-0.3,0.2s-0.3,0.1-0.5,0.1l-0.4,0.1
				c-0.4,0.1-0.6,0.1-0.8,0.2c-0.3,0.2-0.4,0.4-0.4,0.7c0,0.3,0.1,0.5,0.3,0.6c0.2,0.1,0.4,0.2,0.6,0.2c0.4,0,0.7-0.1,1.1-0.3
				c0.3-0.2,0.5-0.6,0.5-1.2V22.6z"/>
			<path class="st1" d="M631.1,19.3c0.3,0.2,0.6,0.4,0.8,0.7v-3.2h1.8v9h-1.7v-0.9c-0.2,0.4-0.5,0.7-0.8,0.9
				c-0.3,0.2-0.7,0.3-1.2,0.3c-0.8,0-1.4-0.3-2-0.9c-0.5-0.6-0.8-1.4-0.8-2.4c0-1.1,0.3-2,0.8-2.7c0.5-0.7,1.2-1,2.1-1
				C630.4,19,630.8,19.1,631.1,19.3z M631.5,24c0.3-0.4,0.4-0.8,0.4-1.4c0-0.8-0.2-1.4-0.6-1.7c-0.3-0.2-0.5-0.3-0.9-0.3
				c-0.5,0-0.9,0.2-1.1,0.6c-0.2,0.4-0.4,0.9-0.4,1.4c0,0.6,0.1,1.1,0.4,1.5c0.2,0.4,0.6,0.6,1.1,0.6
				C630.9,24.6,631.3,24.4,631.5,24z"/>
			<path class="st1" d="M639.5,19.3c0.5,0.2,0.8,0.5,1.2,1c0.3,0.4,0.5,0.9,0.5,1.4c0,0.3,0.1,0.7,0.1,1.3h-4.9
				c0,0.7,0.3,1.1,0.7,1.4c0.3,0.2,0.6,0.3,1,0.3c0.4,0,0.7-0.1,1-0.3c0.1-0.1,0.3-0.3,0.4-0.5h1.8c0,0.4-0.3,0.8-0.6,1.2
				c-0.6,0.6-1.4,1-2.5,1c-0.9,0-1.7-0.3-2.3-0.8s-1-1.4-1-2.7c0-1.2,0.3-2,0.9-2.7c0.6-0.6,1.4-0.9,2.4-0.9
				C638.6,19,639.1,19.1,639.5,19.3z M636.9,20.8c-0.2,0.3-0.4,0.6-0.5,1h3c0-0.5-0.2-0.8-0.5-1.1c-0.3-0.2-0.6-0.4-1-0.4
				C637.5,20.4,637.2,20.6,636.9,20.8z"/>
			<path class="st1" d="M645.6,24.1c0.2-0.6,0.8-1.2,1.8-1.9c0.8-0.6,1.3-1,1.6-1.2c0.4-0.4,0.5-0.8,0.5-1.3c0-0.4-0.1-0.7-0.3-0.9
				c-0.2-0.2-0.5-0.4-0.9-0.4c-0.5,0-0.9,0.2-1.1,0.6c-0.1,0.2-0.2,0.6-0.2,1.1h-1.7c0-0.8,0.2-1.4,0.4-1.8c0.5-0.9,1.3-1.3,2.5-1.3
				c0.9,0,1.7,0.3,2.2,0.8c0.6,0.5,0.8,1.2,0.8,2.1c0,0.7-0.2,1.2-0.6,1.7c-0.3,0.3-0.7,0.7-1.3,1.1l-0.7,0.5
				c-0.4,0.3-0.7,0.5-0.9,0.7s-0.3,0.3-0.4,0.5h3.9v1.5h-6.1C645.2,25.2,645.4,24.6,645.6,24.1z"/>
		</g>
	</g>
	<rect x="37.6" class="st3" width="179.1" height="71.5"/>
	<g>
		<g>
			<path class="st2" d="M58.4,47.6c-0.6,0.5-1.5,0.8-2.7,0.8h-2.2v3.9h-2.2V41.4h4.6c1.1,0,1.9,0.3,2.6,0.8s1,1.4,1,2.6
				C59.3,46.1,59,47,58.4,47.6z M56.6,43.7c-0.3-0.2-0.7-0.4-1.2-0.4h-2v3.2h2c0.5,0,0.9-0.1,1.2-0.4c0.3-0.3,0.4-0.7,0.4-1.2
				S56.9,43.9,56.6,43.7z"/>
			<path class="st2" d="M65.4,44.1c0,0,0.1,0,0.2,0v2.1c-0.1,0-0.2,0-0.4,0c-0.1,0-0.2,0-0.2,0c-0.8,0-1.4,0.3-1.7,0.8
				c-0.2,0.3-0.2,0.8-0.2,1.4v3.8h-2.1v-8h2v1.4c0.3-0.5,0.6-0.9,0.8-1.1C64.1,44.2,64.6,44.1,65.4,44.1
				C65.3,44.1,65.3,44.1,65.4,44.1z"/>
			<path class="st2" d="M73.4,51.2c-0.7,0.8-1.7,1.2-3.1,1.2c-1.4,0-2.4-0.4-3.1-1.2c-0.7-0.8-1-1.8-1-3c0-1.1,0.3-2.1,1-3
				C68,44.4,69,44,70.4,44c1.4,0,2.4,0.4,3.1,1.3c0.7,0.8,1,1.8,1,3C74.4,49.4,74.1,50.4,73.4,51.2z M71.7,50.1
				c0.3-0.4,0.5-1,0.5-1.8c0-0.8-0.2-1.4-0.5-1.8c-0.3-0.4-0.8-0.6-1.4-0.6c-0.6,0-1.1,0.2-1.4,0.6s-0.5,1-0.5,1.8
				c0,0.8,0.2,1.4,0.5,1.8c0.3,0.4,0.8,0.6,1.4,0.6C71,50.7,71.4,50.5,71.7,50.1z"/>
			<path class="st2" d="M80.7,47.1c0-0.3-0.1-0.6-0.3-0.8c-0.2-0.3-0.6-0.5-1.1-0.5c-0.7,0-1.2,0.3-1.4,1c-0.1,0.4-0.2,0.9-0.2,1.5
				c0,0.6,0.1,1.1,0.2,1.4c0.2,0.7,0.7,1,1.4,1c0.5,0,0.8-0.1,1-0.4c0.2-0.3,0.3-0.6,0.4-1h2.1c0,0.6-0.3,1.2-0.7,1.8
				c-0.7,0.9-1.6,1.4-2.9,1.4s-2.2-0.4-2.8-1.1c-0.6-0.8-0.9-1.7-0.9-3c0-1.4,0.3-2.4,1-3.2c0.7-0.8,1.6-1.1,2.8-1.1
				c1,0,1.8,0.2,2.5,0.7s1,1.2,1.1,2.4H80.7z"/>
			<path class="st2" d="M89.4,44.4c0.6,0.2,1,0.6,1.4,1.2c0.3,0.5,0.5,1,0.6,1.6c0.1,0.4,0.1,0.9,0.1,1.6h-5.8
				c0,0.8,0.3,1.4,0.8,1.7c0.3,0.2,0.7,0.3,1.1,0.3c0.5,0,0.9-0.1,1.2-0.4c0.2-0.1,0.3-0.3,0.4-0.5h2.1c-0.1,0.5-0.3,1-0.8,1.4
				c-0.7,0.8-1.7,1.2-3,1.2c-1.1,0-2-0.3-2.8-1c-0.8-0.7-1.2-1.7-1.2-3.2c0-1.4,0.4-2.4,1.1-3.2c0.7-0.7,1.7-1.1,2.9-1.1
				C88.3,44,88.9,44.2,89.4,44.4z M86.3,46.2c-0.3,0.3-0.5,0.7-0.6,1.2h3.6c0-0.6-0.2-1-0.6-1.3c-0.3-0.3-0.7-0.4-1.2-0.4
				C87,45.8,86.6,45.9,86.3,46.2z"/>
			<path class="st2" d="M94.2,49.7c0,0.4,0.1,0.6,0.3,0.8c0.3,0.3,0.7,0.4,1.4,0.4c0.4,0,0.7-0.1,1-0.2c0.2-0.1,0.4-0.3,0.4-0.5
				c0-0.2-0.1-0.4-0.3-0.5c-0.2-0.1-0.9-0.3-2.2-0.6c-0.9-0.2-1.5-0.5-1.9-0.8c-0.4-0.3-0.6-0.8-0.6-1.4c0-0.7,0.3-1.4,0.9-1.9
				c0.6-0.5,1.4-0.8,2.4-0.8c1,0,1.8,0.2,2.4,0.6c0.6,0.4,1,1.1,1.1,2.1h-2.1c0-0.3-0.1-0.5-0.2-0.6c-0.2-0.3-0.6-0.4-1.2-0.4
				c-0.5,0-0.8,0.1-1,0.2s-0.3,0.3-0.3,0.5c0,0.2,0.1,0.4,0.3,0.5c0.2,0.1,0.9,0.3,2.2,0.6c0.8,0.2,1.5,0.5,1.9,0.9
				c0.4,0.4,0.6,0.9,0.6,1.5c0,0.8-0.3,1.4-0.9,1.9c-0.6,0.5-1.5,0.8-2.7,0.8c-1.3,0-2.2-0.3-2.8-0.8c-0.6-0.5-0.9-1.2-0.9-2H94.2z"
				/>
			<path class="st2" d="M102.5,49.7c0,0.4,0.1,0.6,0.3,0.8c0.3,0.3,0.7,0.4,1.4,0.4c0.4,0,0.7-0.1,1-0.2c0.2-0.1,0.4-0.3,0.4-0.5
				c0-0.2-0.1-0.4-0.3-0.5c-0.2-0.1-0.9-0.3-2.2-0.6c-0.9-0.2-1.5-0.5-1.9-0.8c-0.4-0.3-0.6-0.8-0.6-1.4c0-0.7,0.3-1.4,0.9-1.9
				c0.6-0.5,1.4-0.8,2.4-0.8c1,0,1.8,0.2,2.4,0.6c0.6,0.4,1,1.1,1.1,2.1h-2.1c0-0.3-0.1-0.5-0.2-0.6c-0.2-0.3-0.6-0.4-1.2-0.4
				c-0.5,0-0.8,0.1-1,0.2s-0.3,0.3-0.3,0.5c0,0.2,0.1,0.4,0.3,0.5c0.2,0.1,0.9,0.3,2.2,0.6c0.8,0.2,1.5,0.5,1.9,0.9
				c0.4,0.4,0.6,0.9,0.6,1.5c0,0.8-0.3,1.4-0.9,1.9c-0.6,0.5-1.5,0.8-2.7,0.8c-1.3,0-2.2-0.3-2.8-0.8c-0.6-0.5-0.9-1.2-0.9-2H102.5z
				"/>
			<path class="st2" d="M115.9,51.2c-0.7,0.8-1.7,1.2-3.1,1.2c-1.4,0-2.4-0.4-3.1-1.2c-0.7-0.8-1-1.8-1-3c0-1.1,0.3-2.1,1-3
				c0.7-0.8,1.7-1.3,3.1-1.3c1.4,0,2.4,0.4,3.1,1.3c0.7,0.8,1,1.8,1,3C116.9,49.4,116.5,50.4,115.9,51.2z M114.2,50.1
				c0.3-0.4,0.5-1,0.5-1.8c0-0.8-0.2-1.4-0.5-1.8c-0.3-0.4-0.8-0.6-1.4-0.6c-0.6,0-1.1,0.2-1.4,0.6s-0.5,1-0.5,1.8
				c0,0.8,0.2,1.4,0.5,1.8c0.3,0.4,0.8,0.6,1.4,0.6C113.4,50.7,113.9,50.5,114.2,50.1z"/>
			<path class="st2" d="M126.8,44.4c0.4,0.2,0.7,0.5,0.9,0.9v-3.8h2.1v10.8h-2v-1.1c-0.3,0.5-0.6,0.8-1,1c-0.4,0.2-0.9,0.3-1.4,0.3
				c-0.9,0-1.7-0.4-2.4-1.1c-0.6-0.8-1-1.7-1-2.9c0-1.4,0.3-2.4,0.9-3.2c0.6-0.8,1.5-1.2,2.5-1.2C126,44.1,126.4,44.2,126.8,44.4z
				 M127.3,50.1c0.3-0.4,0.5-1,0.5-1.7c0-1-0.2-1.7-0.7-2.1c-0.3-0.3-0.7-0.4-1.1-0.4c-0.6,0-1.1,0.2-1.3,0.7s-0.4,1-0.4,1.7
				c0,0.7,0.1,1.3,0.4,1.8c0.3,0.4,0.7,0.7,1.3,0.7S127,50.5,127.3,50.1z"/>
			<path class="st2" d="M136.9,44.4c0.6,0.2,1,0.6,1.4,1.2c0.3,0.5,0.5,1,0.6,1.6c0.1,0.4,0.1,0.9,0.1,1.6h-5.8
				c0,0.8,0.3,1.4,0.8,1.7c0.3,0.2,0.7,0.3,1.1,0.3c0.5,0,0.9-0.1,1.2-0.4c0.2-0.1,0.3-0.3,0.4-0.5h2.1c-0.1,0.5-0.3,1-0.8,1.4
				c-0.7,0.8-1.7,1.2-3,1.2c-1.1,0-2-0.3-2.8-1c-0.8-0.7-1.2-1.7-1.2-3.2c0-1.4,0.4-2.4,1.1-3.2c0.7-0.7,1.7-1.1,2.9-1.1
				C135.7,44,136.3,44.2,136.9,44.4z M133.8,46.2c-0.3,0.3-0.5,0.7-0.6,1.2h3.6c0-0.6-0.2-1-0.6-1.3c-0.3-0.3-0.7-0.4-1.2-0.4
				C134.5,45.8,134,45.9,133.8,46.2z"/>
			<path class="st2" d="M143.3,45.8v-1.5h1.1v-2.2h2.1v2.2h1.3v1.5h-1.3V50c0,0.3,0,0.5,0.1,0.6c0.1,0.1,0.3,0.1,0.8,0.1
				c0.1,0,0.1,0,0.2,0c0.1,0,0.1,0,0.2,0v1.6l-1,0c-1,0-1.7-0.1-2-0.5c-0.2-0.2-0.4-0.6-0.4-1.1v-4.9H143.3z"/>
			<path class="st2" d="M153.6,44.1c0,0,0.1,0,0.2,0v2.1c-0.1,0-0.2,0-0.4,0c-0.1,0-0.2,0-0.2,0c-0.8,0-1.4,0.3-1.7,0.8
				c-0.2,0.3-0.2,0.8-0.2,1.4v3.8h-2.1v-8h2v1.4c0.3-0.5,0.6-0.9,0.8-1.1C152.4,44.2,152.9,44.1,153.6,44.1
				C153.5,44.1,153.6,44.1,153.6,44.1z"/>
			<path class="st2" d="M158.1,47.4c0.4,0,0.7-0.1,0.8-0.2c0.3-0.1,0.4-0.3,0.4-0.6c0-0.3-0.1-0.6-0.3-0.7c-0.2-0.1-0.6-0.2-1-0.2
				c-0.5,0-0.9,0.1-1.1,0.4c-0.1,0.2-0.2,0.4-0.3,0.7h-2c0-0.7,0.2-1.3,0.6-1.7c0.6-0.7,1.5-1.1,2.8-1.1c0.9,0,1.7,0.2,2.3,0.5
				c0.7,0.3,1,1,1,2v3.7c0,0.3,0,0.6,0,0.9c0,0.3,0.1,0.5,0.1,0.6c0.1,0.1,0.2,0.2,0.3,0.2v0.3h-2.3c-0.1-0.2-0.1-0.3-0.1-0.5
				c0-0.1,0-0.3-0.1-0.5c-0.3,0.3-0.6,0.6-1,0.8c-0.5,0.3-1,0.4-1.5,0.4c-0.7,0-1.3-0.2-1.8-0.6c-0.5-0.4-0.7-1-0.7-1.8
				c0-1,0.4-1.7,1.1-2.1c0.4-0.2,1-0.4,1.8-0.5L158.1,47.4z M159.4,48.3c-0.1,0.1-0.3,0.1-0.4,0.2c-0.1,0.1-0.3,0.1-0.6,0.1
				l-0.5,0.1c-0.4,0.1-0.8,0.2-1,0.3c-0.3,0.2-0.5,0.5-0.5,0.9c0,0.4,0.1,0.6,0.3,0.8c0.2,0.2,0.4,0.2,0.7,0.2
				c0.5,0,0.9-0.1,1.3-0.4c0.4-0.3,0.6-0.7,0.6-1.4V48.3z"/>
			<path class="st2" d="M170.1,45.2c0.6,0.8,0.9,1.7,0.9,2.9c0,1.2-0.3,2.3-0.9,3.1c-0.6,0.8-1.4,1.2-2.5,1.2
				c-0.7,0-1.2-0.1-1.6-0.4c-0.2-0.2-0.5-0.4-0.8-0.8v1h-2.1V41.5h2.1v3.8c0.3-0.4,0.6-0.7,0.9-0.8c0.4-0.2,0.9-0.4,1.4-0.4
				C168.7,44.1,169.5,44.5,170.1,45.2z M168.4,50.1c0.3-0.4,0.4-1,0.4-1.7c0-0.6-0.1-1-0.2-1.4c-0.3-0.7-0.8-1.1-1.5-1.1
				c-0.8,0-1.3,0.3-1.6,1c-0.1,0.4-0.2,0.8-0.2,1.4c0,0.7,0.2,1.2,0.5,1.7c0.3,0.4,0.8,0.7,1.4,0.7
				C167.7,50.7,168.1,50.5,168.4,50.1z"/>
			<path class="st2" d="M175.6,47.4c0.4,0,0.7-0.1,0.8-0.2c0.3-0.1,0.4-0.3,0.4-0.6c0-0.3-0.1-0.6-0.3-0.7c-0.2-0.1-0.6-0.2-1-0.2
				c-0.5,0-0.9,0.1-1.1,0.4c-0.1,0.2-0.2,0.4-0.3,0.7h-2c0-0.7,0.2-1.3,0.6-1.7c0.6-0.7,1.5-1.1,2.8-1.1c0.9,0,1.7,0.2,2.3,0.5
				c0.7,0.3,1,1,1,2v3.7c0,0.3,0,0.6,0,0.9c0,0.3,0.1,0.5,0.1,0.6c0.1,0.1,0.2,0.2,0.3,0.2v0.3h-2.3c-0.1-0.2-0.1-0.3-0.1-0.5
				c0-0.1,0-0.3-0.1-0.5c-0.3,0.3-0.6,0.6-1,0.8c-0.5,0.3-1,0.4-1.5,0.4c-0.7,0-1.3-0.2-1.8-0.6c-0.5-0.4-0.7-1-0.7-1.8
				c0-1,0.4-1.7,1.1-2.1c0.4-0.2,1-0.4,1.8-0.5L175.6,47.4z M176.9,48.3c-0.1,0.1-0.3,0.1-0.4,0.2c-0.1,0.1-0.3,0.1-0.6,0.1
				l-0.5,0.1c-0.4,0.1-0.8,0.2-1,0.3c-0.3,0.2-0.5,0.5-0.5,0.9c0,0.4,0.1,0.6,0.3,0.8c0.2,0.2,0.4,0.2,0.7,0.2
				c0.5,0,0.9-0.1,1.3-0.4c0.4-0.3,0.6-0.7,0.6-1.4V48.3z"/>
			<path class="st2" d="M182.9,52.2h-2.1V41.4h2.1V52.2z"/>
			<path class="st2" d="M190.7,44.3c0.4,0.2,0.7,0.4,1,0.8c0.2,0.3,0.4,0.6,0.4,0.9c0,0.3,0.1,0.8,0.1,1.5v4.7H190v-4.9
				c0-0.4-0.1-0.8-0.2-1c-0.2-0.4-0.5-0.6-1.1-0.6c-0.5,0-1,0.2-1.2,0.6c-0.3,0.4-0.4,0.9-0.4,1.6v4.3H185V41.5h2.1v3.8
				c0.3-0.5,0.6-0.8,1-1c0.4-0.2,0.8-0.3,1.2-0.3C189.8,44,190.3,44.1,190.7,44.3z"/>
			<path class="st2" d="M200.7,51.2c-0.7,0.8-1.7,1.2-3.1,1.2c-1.4,0-2.4-0.4-3.1-1.2c-0.7-0.8-1-1.8-1-3c0-1.1,0.3-2.1,1-3
				c0.7-0.8,1.7-1.3,3.1-1.3c1.4,0,2.4,0.4,3.1,1.3c0.7,0.8,1,1.8,1,3C201.7,49.4,201.4,50.4,200.7,51.2z M199.1,50.1
				c0.3-0.4,0.5-1,0.5-1.8c0-0.8-0.2-1.4-0.5-1.8c-0.3-0.4-0.8-0.6-1.4-0.6c-0.6,0-1.1,0.2-1.4,0.6s-0.5,1-0.5,1.8
				c0,0.8,0.2,1.4,0.5,1.8c0.3,0.4,0.8,0.6,1.4,0.6C198.3,50.7,198.7,50.5,199.1,50.1z"/>
		</g>
		<rect x="46" y="12.9" class="st2" width="62" height="16.5"/>
		<g>
			<path class="st3" d="M56.9,16.8h2.7v9h-1.8v-6.1c0-0.2,0-0.4,0-0.7c0-0.3,0-0.6,0-0.7l-1.7,7.6h-1.8l-1.7-7.6c0,0.2,0,0.4,0,0.7
				c0,0.3,0,0.6,0,0.7v6.1h-1.8v-9h2.7l1.6,7.1L56.9,16.8z"/>
			<path class="st3" d="M66.8,25c-0.6,0.7-1.4,1-2.6,1s-2-0.3-2.6-1s-0.8-1.5-0.8-2.5c0-1,0.3-1.8,0.8-2.5c0.6-0.7,1.4-1.1,2.6-1.1
				s2,0.4,2.6,1.1c0.6,0.7,0.8,1.5,0.8,2.5C67.6,23.5,67.3,24.3,66.8,25z M65.4,24.1c0.3-0.4,0.4-0.9,0.4-1.5c0-0.7-0.1-1.2-0.4-1.5
				c-0.3-0.4-0.7-0.5-1.2-0.5c-0.5,0-0.9,0.2-1.2,0.5c-0.3,0.4-0.4,0.9-0.4,1.5c0,0.7,0.1,1.2,0.4,1.5c0.3,0.4,0.7,0.5,1.2,0.5
				C64.7,24.6,65.1,24.4,65.4,24.1z M66.3,16.5l-1.9,1.8h-1.3l1.2-1.8H66.3z"/>
			<path class="st3" d="M72.4,19.3c0.3,0.2,0.6,0.4,0.8,0.7v-3.2h1.8v9h-1.7v-0.9c-0.2,0.4-0.5,0.7-0.9,0.9
				c-0.3,0.2-0.7,0.3-1.2,0.3c-0.8,0-1.4-0.3-2-0.9s-0.8-1.4-0.8-2.4c0-1.1,0.3-2,0.8-2.7s1.2-1,2.1-1C71.7,19,72.1,19.1,72.4,19.3z
				 M72.8,24c0.3-0.4,0.4-0.8,0.4-1.4c0-0.8-0.2-1.4-0.6-1.7c-0.3-0.2-0.5-0.3-0.9-0.3c-0.5,0-0.9,0.2-1.1,0.6
				c-0.2,0.4-0.4,0.9-0.4,1.4c0,0.6,0.1,1.1,0.4,1.5c0.2,0.4,0.6,0.6,1.1,0.6C72.2,24.6,72.6,24.4,72.8,24z"/>
			<path class="st3" d="M78.3,19.2v4c0,0.4,0,0.7,0.1,0.9c0.2,0.3,0.5,0.5,0.9,0.5c0.6,0,1-0.2,1.2-0.7c0.1-0.3,0.2-0.6,0.2-1v-3.6
				h1.8v6.7h-1.7v-0.9c0,0-0.1,0.1-0.1,0.2c-0.1,0.1-0.1,0.2-0.2,0.3c-0.3,0.2-0.5,0.4-0.8,0.5S79.1,26,78.7,26c-1,0-1.6-0.4-2-1.1
				c-0.2-0.4-0.3-1-0.3-1.7v-4H78.3z"/>
			<path class="st3" d="M86,25.8h-1.7v-9H86V25.8z"/>
			<path class="st3" d="M93.2,25c-0.6,0.7-1.4,1-2.6,1s-2-0.3-2.6-1s-0.8-1.5-0.8-2.5c0-1,0.3-1.8,0.8-2.5c0.6-0.7,1.4-1.1,2.6-1.1
				s2,0.4,2.6,1.1c0.6,0.7,0.8,1.5,0.8,2.5C94.1,23.5,93.8,24.3,93.2,25z M91.8,24.1c0.3-0.4,0.4-0.9,0.4-1.5c0-0.7-0.1-1.2-0.4-1.5
				c-0.3-0.4-0.7-0.5-1.2-0.5c-0.5,0-0.9,0.2-1.2,0.5c-0.3,0.4-0.4,0.9-0.4,1.5c0,0.7,0.1,1.2,0.4,1.5c0.3,0.4,0.7,0.5,1.2,0.5
				C91.1,24.6,91.5,24.4,91.8,24.1z"/>
			<path class="st3" d="M98.8,19.7v-1.2c0.5,0,0.9-0.1,1.2-0.1c0.3-0.1,0.6-0.2,0.9-0.5c0.2-0.2,0.3-0.4,0.3-0.6
				c0-0.2,0.1-0.3,0.1-0.4h1.5v8.9h-1.8v-6.1H98.8z"/>
		</g>
	</g>
</g>
</svg>
