<?xml version="1.0" encoding="utf-8"?>
<!-- Generator: Adobe Illustrator 24.3.0, SVG Export Plug-In . SVG Version: 6.00 Build 0)  -->
<svg version="1.1" id="Camada_1" xmlns="http://www.w3.org/2000/svg" xmlns:xlink="http://www.w3.org/1999/xlink" x="0px" y="0px"
	 viewBox="0 0 377.2 267" style="enable-background:new 0 0 377.2 267;" xml:space="preserve">
<style type="text/css">
	.st0{fill:#FFCC00;}
	.st1{fill:#344CA3;}
	.st2{fill:#FFFFFF;}
	.st3{fill:none;stroke:#344CA3;stroke-width:3;stroke-miterlimit:10;}
</style>
<g>
	<rect class="st0" width="377.2" height="267"/>
	<rect x="113.5" y="200.1" class="st1" width="150.3" height="25.4"/>
	<g>
		<path class="st2" d="M163.9,217.6c-0.8,0.8-2,1.3-3.5,1.3s-2.7-0.4-3.5-1.3c-1.1-1-1.6-2.5-1.6-4.4c0-2,0.5-3.5,1.6-4.4
			c0.8-0.8,2-1.3,3.5-1.3s2.7,0.4,3.5,1.3c1.1,1,1.6,2.5,1.6,4.4C165.6,215.1,165,216.6,163.9,217.6z M162.5,216
			c0.5-0.7,0.8-1.6,0.8-2.8s-0.3-2.1-0.8-2.8s-1.2-1-2.1-1s-1.6,0.3-2.1,1s-0.8,1.6-0.8,2.8s0.3,2.1,0.8,2.8s1.2,1,2.1,1
			S162,216.6,162.5,216z"/>
		<path class="st2" d="M173.9,211.5c0.6,0.8,0.9,1.7,0.9,2.9s-0.3,2.3-0.9,3.1c-0.6,0.8-1.4,1.2-2.5,1.2c-0.7,0-1.2-0.1-1.6-0.4
			c-0.2-0.2-0.5-0.4-0.8-0.8v1h-2v-10.8h2.1v3.8c0.3-0.4,0.6-0.7,0.9-0.8c0.4-0.2,0.9-0.4,1.4-0.4
			C172.5,210.4,173.3,210.8,173.9,211.5z M172.2,216.4c0.3-0.4,0.4-1,0.4-1.7c0-0.6-0.1-1-0.2-1.4c-0.3-0.7-0.8-1.1-1.5-1.1
			c-0.8,0-1.3,0.3-1.6,1c-0.1,0.4-0.2,0.8-0.2,1.4c0,0.7,0.2,1.2,0.5,1.7c0.3,0.4,0.8,0.7,1.4,0.7
			C171.5,217.1,171.9,216.8,172.2,216.4z"/>
		<path class="st2" d="M175.4,220.1c0.1,0,0.2,0,0.2,0h0.1c0.2,0,0.4,0,0.5-0.2c0.1-0.1,0.2-0.3,0.2-0.6v-8.8h2.1v8.8
			c0,0.8-0.2,1.4-0.5,1.8c-0.3,0.4-0.9,0.6-1.9,0.6c-0.1,0-0.2,0-0.3,0s-0.3,0-0.5,0L175.4,220.1L175.4,220.1z M178.4,209.6h-2.1
			v-1.9h2.1V209.6z"/>
		<path class="st2" d="M185.6,210.8c0.6,0.2,1,0.6,1.4,1.2c0.3,0.5,0.5,1,0.6,1.6c0.1,0.4,0.1,0.9,0.1,1.6h-5.8
			c0,0.8,0.3,1.4,0.8,1.7c0.3,0.2,0.7,0.3,1.1,0.3c0.5,0,0.9-0.1,1.2-0.4c0.2-0.1,0.3-0.3,0.4-0.5h2.1c-0.1,0.5-0.3,1-0.8,1.4
			c-0.7,0.8-1.7,1.2-3,1.2c-1.1,0-2-0.3-2.8-1s-1.2-1.7-1.2-3.2c0-1.4,0.4-2.4,1.1-3.2c0.7-0.7,1.7-1.1,2.9-1.1
			C184.4,210.4,185.1,210.5,185.6,210.8z M182.5,212.6c-0.3,0.3-0.5,0.7-0.6,1.2h3.6c0-0.6-0.2-1-0.6-1.3c-0.3-0.3-0.7-0.4-1.2-0.4
			S182.8,212.2,182.5,212.6z"/>
		<path class="st2" d="M187.9,212.1v-1.5h1.1v-2.2h2.1v2.2h1.3v1.5h-1.3v4.2c0,0.3,0,0.5,0.1,0.6s0.3,0.1,0.8,0.1c0.1,0,0.1,0,0.2,0
			c0.1,0,0.1,0,0.2,0v1.6h-1c-1,0-1.7-0.1-2-0.5c-0.2-0.2-0.4-0.6-0.4-1.1v-4.9L187.9,212.1L187.9,212.1z"/>
		<path class="st2" d="M195.9,209.6h-2.1v-1.9h2.1V209.6z M193.8,210.6h2.1v8h-2.1V210.6z"/>
		<path class="st2" d="M202.8,210.6h2.2l-2.9,8H200l-2.9-8h2.3l1.7,5.9L202.8,210.6z"/>
		<path class="st2" d="M212.9,217.6c-0.7,0.8-1.7,1.2-3.1,1.2c-1.4,0-2.4-0.4-3.1-1.2c-0.7-0.8-1-1.8-1-3c0-1.1,0.3-2.1,1-3
			c0.7-0.8,1.7-1.3,3.1-1.3c1.4,0,2.4,0.4,3.1,1.3c0.7,0.8,1,1.8,1,3S213.5,216.8,212.9,217.6z M211.2,216.4c0.3-0.4,0.5-1,0.5-1.8
			s-0.2-1.4-0.5-1.8c-0.3-0.4-0.8-0.6-1.4-0.6s-1.1,0.2-1.4,0.6s-0.5,1-0.5,1.8s0.2,1.4,0.5,1.8c0.3,0.4,0.8,0.6,1.4,0.6
			S210.9,216.9,211.2,216.4z"/>
		<path class="st2" d="M217,216c0,0.4,0.1,0.6,0.3,0.8c0.3,0.3,0.7,0.4,1.4,0.4c0.4,0,0.7-0.1,1-0.2c0.2-0.1,0.4-0.3,0.4-0.5
			s-0.1-0.4-0.3-0.5s-0.9-0.3-2.2-0.6c-0.9-0.2-1.5-0.5-1.9-0.8s-0.6-0.8-0.6-1.4c0-0.7,0.3-1.4,0.9-1.9c0.6-0.5,1.4-0.8,2.4-0.8
			s1.8,0.2,2.4,0.6s1,1.1,1.1,2.1h-2.1c0-0.3-0.1-0.5-0.2-0.6c-0.2-0.3-0.6-0.4-1.2-0.4c-0.5,0-0.8,0.1-1,0.2
			c-0.2,0.1-0.3,0.3-0.3,0.5s0.1,0.4,0.3,0.5s0.9,0.3,2.2,0.6c0.8,0.2,1.5,0.5,1.9,0.9s0.6,0.9,0.6,1.5c0,0.8-0.3,1.4-0.9,1.9
			c-0.6,0.5-1.5,0.8-2.7,0.8c-1.3,0-2.2-0.3-2.8-0.8s-0.9-1.2-0.9-2h2.2V216z"/>
	</g>
	<g>
		<path class="st3" d="M206.3,68v23.1c13.4,2.7,23.5,14.5,23.5,28.7c0,16.2-13.1,29.3-29.3,29.3c-14.1,0-25.8-9.9-28.7-23.2h-23.1
			c3.1,25.9,25.1,46,51.8,46c28.8,0,52.2-23.4,52.2-52.2C252.7,93,232.4,70.9,206.3,68z"/>
		<path class="st1" d="M176.8,49.4v30.1L141.3,44l-16.7,16.7l35.6,35.6H130v23.6h70.4V49.4H176.8z"/>
	</g>
</g>
<path class="st2" d="M348.5,240.7c-0.3-0.3-0.4-0.7-0.4-1c0-0.4,0.2-0.8,0.4-1l5.7-5.7l-29.8-11.2l11.1,29.8l5.7-5.7
	c0.3-0.3,0.7-0.4,1-0.4c0.4,0,0.8,0.2,1,0.4l10.6,10.5l5.2-5.2L348.5,240.7z"/>
</svg>
