<?xml version="1.0" encoding="utf-8"?>
<!-- Generator: Adobe Illustrator 24.3.0, SVG Export Plug-In . SVG Version: 6.00 Build 0)  -->
<svg version="1.1" xmlns="http://www.w3.org/2000/svg" xmlns:xlink="http://www.w3.org/1999/xlink" x="0px" y="0px"
	 viewBox="0 0 195 195" style="enable-background:new 0 0 195 195;" xml:space="preserve">
<style type="text/css">
	.st0{fill:#FECA05;}
	.st1{fill:#FFFFFF;}
	.st2{fill:none;stroke:#FFFFFF;stroke-width:5;stroke-miterlimit:10;}
</style>
<g id="Camada_1">
	<circle class="st0" cx="97.2" cy="97.1" r="96.3"/>
	<path class="st1" d="M160.8,172.6l-9.6-25.5h-16c-11.6,0-20.9-9.5-20.9-21.2v-13h-6.1c-4.6,0-7.2-4-5.5-8.2l11.6-29.5v-1.7
		c0-28.2,21.7-50.8,49.2-50.8c1.6,0,2.9,1.3,2.9,2.9c0,1.6-1.3,2.9-2.9,2.9c-24.2,0-43.4,19.9-43.4,45v2.3c0,0.4-0.1,0.7-0.2,1.1
		C111.9,97,108,107,108.3,107h9c1.6,0,2.9,1.3,2.9,2.9v16c0,8.5,6.7,15.3,15,15.3h18c1.2,0,2.3,0.8,2.7,1.9l10.4,27.4
		c0.6,1.5-0.2,3.2-1.7,3.8C163.1,174.8,161.4,174.1,160.8,172.6L160.8,172.6z"/>
	<g>
		<g>
			<path class="st2" d="M83.3,32.3H9v48h55.4l4.8,4l14.1,11.8l-6-15.8h6V32.3z"/>
		</g>
		<g>
			<circle class="st1" cx="28" cy="58.7" r="5.5"/>
			<circle class="st1" cx="45.9" cy="58.7" r="5.5"/>
			<circle class="st1" cx="63.9" cy="58.7" r="5.5"/>
		</g>
	</g>
</g>
<g id="Guias">
</g>
</svg>
