<?xml version="1.0" encoding="utf-8"?>
<!-- Generator: Adobe Illustrator 24.3.0, SVG Export Plug-In . SVG Version: 6.00 Build 0)  -->
<svg version="1.1" id="Camada_1" xmlns="http://www.w3.org/2000/svg" xmlns:xlink="http://www.w3.org/1999/xlink" x="0px" y="0px"
	 viewBox="0 0 888 42" style="enable-background:new 0 0 888 42;" xml:space="preserve">
<style type="text/css">
	.st0{fill:#FFFFFF;stroke:#344CA4;stroke-miterlimit:10;}
	.st1{fill:#167A56;}
	.st2{fill:#FFFFFF;}
	.st3{fill:#818385;}
	.st4{fill:#29696D;}
	.st5{fill:#FFCC04;}
	.st6{fill:#DDDCD6;}
	.st7{fill:#11A64A;}
	.st8{fill:#003F7A;}
	.st9{fill:#008137;}
	.st10{fill-rule:evenodd;clip-rule:evenodd;fill:#075DA5;}
	.st11{fill:#1D1D1B;}
</style>
<rect x="-7.4" y="0.1" class="st0" width="902.7" height="41.7"/>
<rect y="32.6" class="st1" width="888" height="9.2"/>
<g id="Guias">
</g>
<g id="Guias_1_">
</g>
<g id="Camada_3">
	<g>
		<rect x="37.7" y="5.4" class="st1" width="54.2" height="19.1"/>
		<g>
			<path class="st2" d="M51.8,10.6v1.6h-2.7v7.4h-1.9v-7.4h-2.7v-1.6H51.8z"/>
			<path class="st2" d="M58.3,18.8c-0.6,0.7-1.4,1-2.6,1s-2-0.3-2.6-1s-0.8-1.5-0.8-2.5s0.3-1.8,0.8-2.5s1.4-1.1,2.6-1.1
				s2,0.4,2.6,1.1s0.8,1.5,0.8,2.5C59.1,17.2,58.9,18.1,58.3,18.8z M56.9,17.8c0.3-0.4,0.4-0.9,0.4-1.5c0-0.7-0.1-1.2-0.4-1.5
				c-0.3-0.4-0.7-0.5-1.2-0.5s-0.9,0.2-1.2,0.5c-0.3,0.4-0.4,0.9-0.4,1.5c0,0.7,0.1,1.2,0.4,1.5c0.3,0.4,0.7,0.5,1.2,0.5
				S56.6,18.1,56.9,17.8z M57.8,10.2L56,12h-1.3l1.2-1.8H57.8z"/>
			<path class="st2" d="M66,13.6c0.5,0.6,0.8,1.4,0.8,2.5c0,1.2-0.3,2.1-0.8,2.7s-1.2,0.9-2.1,0.9c-0.5,0-1-0.1-1.3-0.4
				c-0.2-0.1-0.4-0.4-0.6-0.6v3.5h-1.7v-9.3H62v1c0.2-0.3,0.4-0.5,0.6-0.7c0.4-0.3,0.9-0.4,1.4-0.4C64.8,12.8,65.4,13,66,13.6z
				 M64.7,14.9c-0.2-0.4-0.6-0.6-1.2-0.6c-0.6,0-1.1,0.3-1.3,0.9c-0.1,0.3-0.2,0.7-0.2,1.2c0,0.8,0.2,1.3,0.6,1.6
				c0.2,0.2,0.5,0.3,0.9,0.3c0.5,0,0.9-0.2,1.1-0.6c0.3-0.4,0.4-0.9,0.4-1.5C65,15.7,64.9,15.3,64.7,14.9z"/>
			<path class="st2" d="M69.8,12.1H68v-1.6h1.8V12.1z M68.1,12.9h1.8v6.7h-1.8V12.9z"/>
			<path class="st2" d="M75.5,15.3c0-0.2-0.1-0.5-0.3-0.7c-0.2-0.3-0.5-0.4-0.9-0.4c-0.6,0-1,0.3-1.2,0.9C73,15.4,73,15.8,73,16.3
				c0,0.5,0.1,0.9,0.2,1.2c0.2,0.6,0.6,0.8,1.2,0.8c0.4,0,0.7-0.1,0.9-0.3c0.2-0.2,0.3-0.5,0.3-0.9h1.8c0,0.5-0.2,1-0.6,1.5
				c-0.5,0.8-1.4,1.1-2.4,1.1s-1.9-0.3-2.4-1c-0.5-0.6-0.8-1.5-0.8-2.5c0-1.1,0.3-2,0.8-2.7s1.3-1,2.3-1c0.8,0,1.5,0.2,2.1,0.6
				c0.5,0.4,0.8,1,0.9,2h-1.8V15.3z"/>
			<path class="st2" d="M84,18.8c-0.6,0.7-1.4,1-2.6,1s-2-0.3-2.6-1S78,17.3,78,16.3s0.3-1.8,0.8-2.5s1.4-1.1,2.6-1.1s2,0.4,2.6,1.1
				s0.8,1.5,0.8,2.5C84.9,17.2,84.6,18.1,84,18.8z M82.6,17.8c0.3-0.4,0.4-0.9,0.4-1.5c0-0.7-0.1-1.2-0.4-1.5
				c-0.3-0.4-0.7-0.5-1.2-0.5s-0.9,0.2-1.2,0.5c-0.3,0.4-0.4,0.9-0.4,1.5c0,0.7,0.1,1.2,0.4,1.5c0.3,0.4,0.7,0.5,1.2,0.5
				C82,18.3,82.4,18.1,82.6,17.8z"/>
		</g>
	</g>
	<g>
		<path class="st1" d="M99,11.6h4c0.8,0,1.4,0.2,1.9,0.7s0.7,1.1,0.7,1.9c0,0.7-0.2,1.3-0.7,1.8c-0.4,0.5-1.1,0.8-2,0.8h-2.8v3.8H99
			V11.6z M103.7,12.8c-0.3-0.1-0.6-0.2-1.1-0.2h-2.4v3.1h2.4c0.5,0,1-0.1,1.3-0.3s0.5-0.6,0.5-1.2C104.5,13.5,104.2,13.1,103.7,12.8
			z"/>
		<path class="st1" d="M107.1,11.6h1.1v9h-1.1V11.6z"/>
		<path class="st1" d="M113.4,16.6c0.3,0,0.4-0.1,0.5-0.3c0-0.1,0.1-0.2,0.1-0.4c0-0.4-0.1-0.6-0.4-0.8s-0.6-0.3-1.1-0.3
			c-0.6,0-1,0.2-1.2,0.5c-0.1,0.2-0.2,0.4-0.3,0.8h-1c0-0.8,0.3-1.4,0.8-1.7s1.1-0.5,1.7-0.5c0.8,0,1.4,0.1,1.9,0.4
			c0.5,0.3,0.7,0.8,0.7,1.4v3.8c0,0.1,0,0.2,0.1,0.3s0.1,0.1,0.3,0.1c0,0,0.1,0,0.2,0s0.1,0,0.2,0v0.8c-0.2,0-0.3,0.1-0.4,0.1
			s-0.2,0-0.4,0c-0.4,0-0.7-0.1-0.8-0.4c-0.1-0.1-0.2-0.3-0.2-0.6c-0.2,0.3-0.5,0.5-1,0.8c-0.4,0.2-0.9,0.3-1.4,0.3
			c-0.6,0-1.1-0.2-1.5-0.6s-0.6-0.8-0.6-1.4s0.2-1.1,0.6-1.4s0.9-0.5,1.5-0.6L113.4,16.6z M111.1,19.6c0.2,0.2,0.5,0.3,0.8,0.3
			c0.4,0,0.8-0.1,1.1-0.3c0.6-0.3,0.9-0.8,0.9-1.5v-0.9c-0.1,0.1-0.3,0.2-0.5,0.2s-0.4,0.1-0.6,0.1l-0.7,0.1
			c-0.4,0.1-0.7,0.1-0.9,0.2c-0.3,0.2-0.5,0.5-0.5,0.9C110.7,19.1,110.8,19.4,111.1,19.6z"/>
		<path class="st1" d="M116.8,14h1v0.9c0.3-0.4,0.6-0.7,1-0.8c0.3-0.2,0.7-0.3,1.2-0.3c0.9,0,1.6,0.3,1.9,1c0.2,0.4,0.3,0.9,0.3,1.5
			v4.2h-1.1v-4.1c0-0.4-0.1-0.7-0.2-1c-0.2-0.4-0.6-0.6-1.1-0.6c-0.3,0-0.5,0-0.6,0.1c-0.3,0.1-0.6,0.3-0.8,0.5
			c-0.2,0.2-0.3,0.4-0.4,0.7s-0.1,0.6-0.1,1v3.4h-1.1C116.8,20.5,116.8,14,116.8,14z"/>
		<path class="st1" d="M127.9,14.2c0.4,0.2,0.8,0.5,1,0.8s0.4,0.7,0.4,1.2c0.1,0.3,0.1,0.8,0.1,1.4h-4.8c0,0.7,0.2,1.2,0.5,1.6
			s0.7,0.6,1.4,0.6c0.6,0,1-0.2,1.4-0.6c0.2-0.2,0.3-0.5,0.4-0.8h1.1c0,0.2-0.1,0.5-0.3,0.8s-0.3,0.5-0.5,0.7
			c-0.3,0.3-0.7,0.5-1.2,0.7c-0.3,0.1-0.6,0.1-0.9,0.1c-0.8,0-1.5-0.3-2.1-0.9s-0.8-1.4-0.8-2.5s0.3-1.9,0.9-2.6
			c0.6-0.7,1.3-1,2.2-1C127,13.9,127.4,14,127.9,14.2z M128.3,16.8c0-0.5-0.1-0.9-0.3-1.1c-0.3-0.5-0.8-0.8-1.5-0.8
			c-0.5,0-0.9,0.2-1.3,0.5s-0.5,0.8-0.5,1.4H128.3z"/>
		<path class="st1" d="M129.7,22.2c0.5,0,0.8-0.1,0.9-0.1s0.1-0.3,0.1-0.7V14h1.1v7.5c0,0.5-0.1,0.8-0.2,1.1
			c-0.3,0.4-0.7,0.6-1.5,0.6c-0.1,0-0.1,0-0.2,0s-0.2,0-0.3,0L129.7,22.2L129.7,22.2z M131.9,12.9h-1.1v-1.3h1.1V12.9z"/>
		<path class="st1" d="M137.1,16.6c0.3,0,0.4-0.1,0.5-0.3c0-0.1,0.1-0.2,0.1-0.4c0-0.4-0.1-0.6-0.4-0.8c-0.3-0.2-0.6-0.3-1.1-0.3
			c-0.6,0-1,0.2-1.2,0.5c-0.1,0.2-0.2,0.4-0.3,0.8h-1c0-0.8,0.3-1.4,0.8-1.7s1.1-0.5,1.7-0.5c0.8,0,1.4,0.1,1.9,0.4
			c0.5,0.3,0.7,0.8,0.7,1.4v3.8c0,0.1,0,0.2,0.1,0.3s0.1,0.1,0.3,0.1c0,0,0.1,0,0.2,0c0.1,0,0.1,0,0.2,0v0.8c-0.2,0-0.3,0.1-0.4,0.1
			s-0.2,0-0.4,0c-0.4,0-0.7-0.1-0.8-0.4c-0.1-0.1-0.2-0.3-0.2-0.6c-0.2,0.3-0.5,0.5-1,0.8c-0.4,0.2-0.9,0.3-1.4,0.3
			c-0.6,0-1.1-0.2-1.5-0.6s-0.6-0.8-0.6-1.4s0.2-1.1,0.6-1.4c0.4-0.3,0.9-0.5,1.5-0.6L137.1,16.6z M134.8,19.6
			c0.2,0.2,0.5,0.3,0.8,0.3c0.4,0,0.8-0.1,1.1-0.3c0.6-0.3,0.9-0.8,0.9-1.5v-0.9c-0.1,0.1-0.3,0.2-0.5,0.2s-0.4,0.1-0.6,0.1
			l-0.7,0.1c-0.4,0.1-0.7,0.1-0.9,0.2c-0.3,0.2-0.5,0.5-0.5,0.9C134.4,19.1,134.5,19.4,134.8,19.6z"/>
		<path class="st1" d="M140.5,14h1.1v0.9c0.3-0.3,0.5-0.6,0.7-0.7c0.4-0.2,0.8-0.4,1.2-0.4c0.5,0,0.9,0.1,1.3,0.4
			c0.2,0.1,0.3,0.4,0.5,0.6c0.2-0.4,0.5-0.6,0.9-0.8c0.3-0.2,0.7-0.3,1.1-0.3c0.9,0,1.5,0.3,1.8,1c0.2,0.3,0.3,0.8,0.3,1.4v4.4h-1.1
			V16c0-0.4-0.1-0.7-0.3-0.9s-0.5-0.2-0.8-0.2c-0.4,0-0.8,0.1-1.1,0.4c-0.3,0.3-0.5,0.8-0.5,1.4v3.8h-1.1v-4.3c0-0.4-0.1-0.8-0.2-1
			c-0.2-0.3-0.5-0.5-0.9-0.5s-0.8,0.2-1.1,0.5s-0.5,0.9-0.5,1.7v3.5h-1.1V14H140.5z"/>
		<path class="st1" d="M155,14.2c0.4,0.2,0.8,0.5,1,0.8s0.4,0.7,0.4,1.2c0.1,0.3,0.1,0.8,0.1,1.4h-4.8c0,0.7,0.2,1.2,0.5,1.6
			s0.7,0.6,1.4,0.6c0.6,0,1-0.2,1.4-0.6c0.2-0.2,0.3-0.5,0.4-0.8h1.1c0,0.2-0.1,0.5-0.3,0.8s-0.3,0.5-0.5,0.7
			c-0.3,0.3-0.7,0.5-1.2,0.7c-0.3,0.1-0.6,0.1-0.9,0.1c-0.8,0-1.5-0.3-2.1-0.9s-0.8-1.4-0.8-2.5s0.3-1.9,0.9-2.6
			c0.6-0.7,1.3-1,2.2-1C154.1,13.9,154.6,14,155,14.2z M155.4,16.8c0-0.5-0.1-0.9-0.3-1.1c-0.3-0.5-0.8-0.8-1.5-0.8
			c-0.5,0-0.9,0.2-1.3,0.5s-0.5,0.8-0.5,1.4H155.4z"/>
		<path class="st1" d="M157.9,14h1v0.9c0.3-0.4,0.6-0.7,1-0.8c0.3-0.2,0.7-0.3,1.2-0.3c0.9,0,1.6,0.3,1.9,1c0.2,0.4,0.3,0.9,0.3,1.5
			v4.2h-1.1v-4.1c0-0.4-0.1-0.7-0.2-1c-0.2-0.4-0.6-0.6-1.1-0.6c-0.3,0-0.5,0-0.6,0.1c-0.3,0.1-0.6,0.3-0.8,0.5s-0.3,0.4-0.4,0.7
			s-0.1,0.6-0.1,1v3.4h-1.1L157.9,14L157.9,14z"/>
		<path class="st1" d="M165.1,12.2h1.1V14h1v0.9h-1v4.3c0,0.2,0.1,0.4,0.2,0.5c0.1,0,0.2,0.1,0.4,0.1c0.1,0,0.1,0,0.2,0
			c0.1,0,0.1,0,0.2,0v0.9c-0.1,0-0.3,0.1-0.4,0.1c-0.1,0-0.3,0-0.4,0c-0.5,0-0.9-0.1-1-0.4c-0.2-0.3-0.3-0.6-0.3-1v-4.3h-0.9V14h0.9
			V12.2z"/>
		<path class="st1" d="M173.1,14.7c0.6,0.6,0.9,1.4,0.9,2.5s-0.3,1.9-0.8,2.6s-1.3,1-2.4,1c-0.9,0-1.6-0.3-2.1-0.9s-0.8-1.4-0.8-2.5
			s0.3-2,0.8-2.6c0.6-0.7,1.3-1,2.2-1C171.8,13.8,172.5,14.1,173.1,14.7z M172.4,19c0.3-0.6,0.4-1.2,0.4-1.8c0-0.6-0.1-1.1-0.3-1.5
			c-0.3-0.6-0.8-0.9-1.6-0.9c-0.7,0-1.1,0.3-1.5,0.8c-0.3,0.5-0.5,1.1-0.5,1.9c0,0.7,0.2,1.3,0.5,1.7c0.3,0.5,0.8,0.7,1.4,0.7
			C171.7,19.9,172.2,19.6,172.4,19z"/>
		<path class="st1" d="M182.8,14.2c0.4,0.2,0.8,0.5,1,0.8s0.4,0.7,0.4,1.2c0.1,0.3,0.1,0.8,0.1,1.4h-4.8c0,0.7,0.2,1.2,0.5,1.6
			s0.7,0.6,1.4,0.6c0.6,0,1-0.2,1.4-0.6c0.2-0.2,0.3-0.5,0.4-0.8h1.1c0,0.2-0.1,0.5-0.3,0.8s-0.3,0.5-0.5,0.7
			c-0.3,0.3-0.7,0.5-1.2,0.7c-0.3,0.1-0.6,0.1-0.9,0.1c-0.8,0-1.5-0.3-2.1-0.9s-0.8-1.4-0.8-2.5s0.3-1.9,0.9-2.6
			c0.6-0.7,1.3-1,2.2-1C182,13.9,182.4,14,182.8,14.2z M183.2,16.8c0-0.5-0.1-0.9-0.3-1.1c-0.3-0.5-0.8-0.8-1.5-0.8
			c-0.5,0-0.9,0.2-1.3,0.5s-0.5,0.8-0.5,1.4H183.2z"/>
		<path class="st1" d="M185.8,14h1.1v0.9c0.3-0.3,0.5-0.6,0.7-0.7c0.4-0.2,0.8-0.4,1.2-0.4c0.5,0,0.9,0.1,1.3,0.4
			c0.2,0.1,0.3,0.4,0.5,0.6c0.2-0.4,0.5-0.6,0.9-0.8c0.3-0.2,0.7-0.3,1.1-0.3c0.9,0,1.5,0.3,1.8,1c0.2,0.3,0.3,0.8,0.3,1.4v4.4h-1.1
			V16c0-0.4-0.1-0.7-0.3-0.9s-0.5-0.2-0.8-0.2c-0.4,0-0.8,0.1-1.1,0.4c-0.3,0.3-0.5,0.8-0.5,1.4v3.8h-1.1v-4.3c0-0.4-0.1-0.8-0.2-1
			c-0.2-0.3-0.5-0.5-0.9-0.5s-0.8,0.2-1.1,0.5s-0.5,0.9-0.5,1.7v3.5H186V14H185.8z"/>
		<path class="st1" d="M203.7,14.2c0.4,0.2,0.8,0.5,1,0.8s0.4,0.7,0.4,1.2c0.1,0.3,0.1,0.8,0.1,1.4h-4.8c0,0.7,0.2,1.2,0.5,1.6
			s0.7,0.6,1.4,0.6c0.6,0,1-0.2,1.4-0.6c0.2-0.2,0.3-0.5,0.4-0.8h1.1c0,0.2-0.1,0.5-0.3,0.8s-0.3,0.5-0.5,0.7
			c-0.3,0.3-0.7,0.5-1.2,0.7c-0.3,0.1-0.6,0.1-0.9,0.1c-0.8,0-1.5-0.3-2.1-0.9s-0.8-1.4-0.8-2.5s0.3-1.9,0.9-2.6
			c0.6-0.7,1.3-1,2.2-1C202.8,13.9,203.3,14,203.7,14.2z M204.1,16.8c0-0.5-0.1-0.9-0.3-1.1c-0.3-0.5-0.8-0.8-1.5-0.8
			c-0.5,0-0.9,0.2-1.3,0.5s-0.5,0.8-0.5,1.4H204.1z"/>
		<path class="st1" d="M210.3,14.3c0.2,0.1,0.4,0.4,0.6,0.6V14h1v9.2h-1.1v-3.4c-0.2,0.3-0.4,0.5-0.8,0.7c-0.3,0.2-0.7,0.3-1.2,0.3
			c-0.7,0-1.3-0.3-1.9-0.8c-0.5-0.5-0.8-1.4-0.8-2.5c0-1,0.3-1.9,0.8-2.6c0.5-0.7,1.2-1,2-1C209.5,13.9,210,14,210.3,14.3z
			 M207.6,18.8c0.3,0.7,0.8,1,1.5,1c0.8,0,1.3-0.4,1.6-1.1c0.2-0.4,0.2-0.9,0.2-1.5s-0.1-1-0.3-1.4c-0.3-0.6-0.8-1-1.6-1
			c-0.5,0-0.9,0.2-1.2,0.6c-0.3,0.4-0.5,1.1-0.5,1.9C207.3,17.9,207.4,18.4,207.6,18.8z"/>
		<path class="st1" d="M214.7,14v4.3c0,0.3,0.1,0.6,0.2,0.8c0.2,0.4,0.5,0.6,1.1,0.6c0.7,0,1.3-0.3,1.5-1c0.1-0.4,0.2-0.9,0.2-1.5
			V14h1.1v6.5h-1v-1c-0.1,0.2-0.3,0.5-0.5,0.6c-0.4,0.3-0.9,0.5-1.5,0.5c-0.9,0-1.5-0.3-1.9-0.9c-0.2-0.3-0.3-0.8-0.3-1.3V14H214.7z
			"/>
		<path class="st1" d="M220.6,11.6h1.1v1.2h-1.1V11.6z M220.6,14h1.1v6.5h-1.1V14z"/>
		<path class="st1" d="M223.3,14h1.1v0.9c0.2-0.3,0.5-0.5,0.7-0.7c0.4-0.2,0.8-0.4,1.3-0.4c0.7,0,1.4,0.3,1.9,0.9
			c0.5,0.6,0.8,1.4,0.8,2.4c0,1.4-0.4,2.4-1.1,3.1c-0.5,0.4-1,0.6-1.7,0.6c-0.5,0-0.9-0.1-1.2-0.3c-0.2-0.1-0.4-0.3-0.7-0.6v3.3
			h-1.1V14z M227.4,19.2c0.3-0.4,0.5-1.1,0.5-1.9c0-0.5-0.1-1-0.2-1.3c-0.3-0.7-0.8-1.1-1.6-1.1s-1.3,0.4-1.6,1.1
			c-0.2,0.4-0.2,0.9-0.2,1.6c0,0.5,0.1,0.9,0.2,1.3c0.3,0.7,0.8,1,1.6,1C226.6,19.8,227.1,19.6,227.4,19.2z"/>
		<path class="st1" d="M234.4,14.2c0.4,0.2,0.8,0.5,1,0.8s0.4,0.7,0.4,1.2c0.1,0.3,0.1,0.8,0.1,1.4h-4.8c0,0.7,0.2,1.2,0.5,1.6
			s0.7,0.6,1.4,0.6c0.6,0,1-0.2,1.4-0.6c0.2-0.2,0.3-0.5,0.4-0.8h1.1c0,0.2-0.1,0.5-0.3,0.8s-0.3,0.5-0.5,0.7
			c-0.3,0.3-0.7,0.5-1.2,0.7c-0.3,0.1-0.6,0.1-0.9,0.1c-0.8,0-1.5-0.3-2.1-0.9s-0.8-1.4-0.8-2.5s0.3-1.9,0.9-2.6
			c0.6-0.7,1.3-1,2.2-1C233.5,13.9,233.9,14,234.4,14.2z M234.8,16.8c0-0.5-0.1-0.9-0.3-1.1c-0.3-0.5-0.8-0.8-1.5-0.8
			c-0.5,0-0.9,0.2-1.3,0.5s-0.5,0.8-0.5,1.4H234.8z"/>
		<path class="st1" d="M245.1,14.4c0.5,0.4,0.7,1,0.8,1.9h-1.1c-0.1-0.4-0.2-0.7-0.4-1s-0.6-0.4-1.1-0.4c-0.7,0-1.2,0.3-1.5,1
			c-0.2,0.4-0.3,1-0.3,1.6c0,0.7,0.1,1.2,0.4,1.7c0.3,0.4,0.7,0.7,1.3,0.7c0.5,0,0.8-0.1,1.1-0.4s0.5-0.7,0.6-1.1h1.1
			c-0.1,0.9-0.4,1.5-0.9,1.9s-1.1,0.6-1.9,0.6c-0.9,0-1.5-0.3-2-0.9s-0.8-1.4-0.8-2.3c0-1.1,0.3-2,0.8-2.7s1.3-1,2.1-1
			C244,13.8,244.6,14,245.1,14.4z"/>
		<path class="st1" d="M251.8,14.7c0.6,0.6,0.9,1.4,0.9,2.5s-0.3,1.9-0.8,2.6s-1.3,1-2.4,1c-0.9,0-1.6-0.3-2.1-0.9s-0.8-1.4-0.8-2.5
			s0.3-2,0.8-2.6c0.6-0.7,1.3-1,2.2-1C250.5,13.8,251.2,14.1,251.8,14.7z M251.1,19c0.3-0.6,0.4-1.2,0.4-1.8c0-0.6-0.1-1.1-0.3-1.5
			c-0.3-0.6-0.8-0.9-1.6-0.9c-0.7,0-1.1,0.3-1.5,0.8c-0.3,0.5-0.5,1.1-0.5,1.9c0,0.7,0.2,1.3,0.5,1.7c0.3,0.5,0.8,0.7,1.4,0.7
			C250.3,19.9,250.8,19.6,251.1,19z"/>
		<path class="st1" d="M254,14h1.1v0.9c0.3-0.3,0.5-0.6,0.7-0.7c0.4-0.2,0.8-0.4,1.2-0.4c0.5,0,0.9,0.1,1.3,0.4
			c0.2,0.1,0.3,0.4,0.5,0.6c0.2-0.4,0.5-0.6,0.9-0.8c0.3-0.2,0.7-0.3,1.1-0.3c0.9,0,1.5,0.3,1.8,1c0.2,0.3,0.3,0.8,0.3,1.4v4.4h-1.1
			V16c0-0.4-0.1-0.7-0.3-0.9c-0.2-0.2-0.5-0.2-0.8-0.2c-0.4,0-0.8,0.1-1.1,0.4c-0.3,0.3-0.5,0.8-0.5,1.4v3.8H258v-4.3
			c0-0.4-0.1-0.8-0.2-1c-0.2-0.3-0.5-0.5-0.9-0.5s-0.8,0.2-1.1,0.5c-0.3,0.3-0.5,0.9-0.5,1.7v3.5H254V14z"/>
		<path class="st1" d="M269.2,14.7c0.6,0.6,0.9,1.4,0.9,2.5s-0.3,1.9-0.8,2.6s-1.3,1-2.4,1c-0.9,0-1.6-0.3-2.1-0.9s-0.8-1.4-0.8-2.5
			s0.3-2,0.8-2.6c0.6-0.7,1.3-1,2.2-1C267.9,13.8,268.6,14.1,269.2,14.7z M268.5,19c0.3-0.6,0.4-1.2,0.4-1.8c0-0.6-0.1-1.1-0.3-1.5
			c-0.3-0.6-0.8-0.9-1.6-0.9c-0.7,0-1.1,0.3-1.5,0.8c-0.3,0.5-0.5,1.1-0.5,1.9c0,0.7,0.2,1.3,0.5,1.7c0.3,0.5,0.8,0.7,1.4,0.7
			C267.7,19.9,268.2,19.6,268.5,19z"/>
		<path class="st1" d="M274.8,14h1.1v0.9c0.2-0.3,0.5-0.5,0.7-0.7c0.4-0.2,0.8-0.4,1.3-0.4c0.7,0,1.4,0.3,1.9,0.9
			c0.5,0.6,0.8,1.4,0.8,2.4c0,1.4-0.4,2.4-1.1,3.1c-0.5,0.4-1,0.6-1.7,0.6c-0.5,0-0.9-0.1-1.2-0.3c-0.2-0.1-0.4-0.3-0.7-0.6v3.3
			h-1.1L274.8,14L274.8,14z M278.9,19.2c0.3-0.4,0.5-1.1,0.5-1.9c0-0.5-0.1-1-0.2-1.3c-0.3-0.7-0.8-1.1-1.6-1.1
			c-0.8,0-1.3,0.4-1.6,1.1c-0.2,0.4-0.2,0.9-0.2,1.6c0,0.5,0.1,0.9,0.2,1.3c0.3,0.7,0.8,1,1.6,1C278.1,19.8,278.6,19.6,278.9,19.2z"
			/>
		<path class="st1" d="M281.9,14h1v1.1c0.1-0.2,0.3-0.5,0.6-0.8c0.3-0.3,0.7-0.5,1.2-0.5h0.1c0,0,0.1,0,0.3,0V15c-0.1,0-0.1,0-0.2,0
			s-0.1,0-0.2,0c-0.6,0-1,0.2-1.3,0.5c-0.3,0.4-0.4,0.8-0.4,1.2v3.8h-1.1V14z"/>
		<path class="st1" d="M290.7,14.7c0.6,0.6,0.9,1.4,0.9,2.5s-0.3,1.9-0.8,2.6s-1.3,1-2.4,1c-0.9,0-1.6-0.3-2.1-0.9s-0.8-1.4-0.8-2.5
			s0.3-2,0.8-2.6c0.6-0.7,1.3-1,2.2-1C289.4,13.8,290.2,14.1,290.7,14.7z M290.1,19c0.3-0.6,0.4-1.2,0.4-1.8c0-0.6-0.1-1.1-0.3-1.5
			c-0.3-0.6-0.8-0.9-1.6-0.9c-0.7,0-1.1,0.3-1.5,0.8c-0.3,0.5-0.5,1.1-0.5,1.9c0,0.7,0.2,1.3,0.5,1.7c0.3,0.5,0.8,0.7,1.4,0.7
			C289.3,19.9,289.8,19.6,290.1,19z"/>
		<path class="st1" d="M293,14h1.1v0.9c0.3-0.3,0.5-0.6,0.7-0.7c0.4-0.2,0.8-0.4,1.2-0.4c0.5,0,0.9,0.1,1.3,0.4
			c0.2,0.1,0.3,0.4,0.5,0.6c0.2-0.4,0.5-0.6,0.9-0.8c0.3-0.2,0.7-0.3,1.1-0.3c0.9,0,1.5,0.3,1.8,1c0.2,0.3,0.3,0.8,0.3,1.4v4.4h-1.1
			V16c0-0.4-0.1-0.7-0.3-0.9c-0.2-0.2-0.5-0.2-0.8-0.2c-0.4,0-0.8,0.1-1.1,0.4c-0.3,0.3-0.5,0.8-0.5,1.4v3.8H297v-4.3
			c0-0.4-0.1-0.8-0.2-1c-0.2-0.3-0.5-0.5-0.9-0.5s-0.8,0.2-1.1,0.5c-0.3,0.3-0.5,0.9-0.5,1.7v3.5H293V14z"/>
		<path class="st1" d="M308.1,14.7c0.6,0.6,0.9,1.4,0.9,2.5s-0.3,1.9-0.8,2.6s-1.3,1-2.4,1c-0.9,0-1.6-0.3-2.1-0.9s-0.8-1.4-0.8-2.5
			s0.3-2,0.8-2.6c0.6-0.7,1.3-1,2.2-1C306.8,13.8,307.6,14.1,308.1,14.7z M307.4,19c0.3-0.6,0.4-1.2,0.4-1.8c0-0.6-0.1-1.1-0.3-1.5
			c-0.3-0.6-0.8-0.9-1.6-0.9c-0.7,0-1.1,0.3-1.5,0.8c-0.3,0.5-0.5,1.1-0.5,1.9c0,0.7,0.2,1.3,0.5,1.7c0.3,0.5,0.8,0.7,1.4,0.7
			C306.7,19.9,307.2,19.6,307.4,19z"/>
		<path class="st1" d="M310.6,12.2h1.1V14h1v0.9h-1v4.3c0,0.2,0.1,0.4,0.2,0.5c0.1,0,0.2,0.1,0.4,0.1c0.1,0,0.1,0,0.2,0s0.1,0,0.2,0
			v0.9c-0.1,0-0.3,0.1-0.4,0.1s-0.3,0-0.4,0c-0.5,0-0.9-0.1-1-0.4c-0.2-0.3-0.3-0.6-0.3-1v-4.3h-0.9V14h0.9L310.6,12.2L310.6,12.2z"
			/>
		<path class="st1" d="M318.6,14.7c0.6,0.6,0.9,1.4,0.9,2.5s-0.3,1.9-0.8,2.6s-1.3,1-2.4,1c-0.9,0-1.6-0.3-2.1-0.9s-0.8-1.4-0.8-2.5
			s0.3-2,0.8-2.6c0.6-0.7,1.3-1,2.2-1C317.3,13.8,318,14.1,318.6,14.7z M317.9,19c0.3-0.6,0.4-1.2,0.4-1.8c0-0.6-0.1-1.1-0.3-1.5
			c-0.3-0.6-0.8-0.9-1.6-0.9c-0.7,0-1.1,0.3-1.5,0.8c-0.3,0.5-0.5,1.1-0.5,1.9c0,0.7,0.2,1.3,0.5,1.7c0.3,0.5,0.8,0.7,1.4,0.7
			C317.1,19.9,317.6,19.6,317.9,19z"/>
		<path class="st1" d="M320.8,14h1v1.1c0.1-0.2,0.3-0.5,0.6-0.8c0.3-0.3,0.7-0.5,1.2-0.5h0.1c0,0,0.1,0,0.3,0V15c-0.1,0-0.1,0-0.2,0
			s-0.1,0-0.2,0c-0.6,0-1,0.2-1.3,0.5c-0.3,0.4-0.4,0.8-0.4,1.2v3.8h-1.1V14z"/>
		<path class="st1" d="M332,14.2c0.2,0.1,0.4,0.3,0.7,0.6v-3.3h1.1v9h-1v-0.9c-0.3,0.4-0.6,0.7-0.9,0.9c-0.3,0.2-0.7,0.3-1.2,0.3
			c-0.7,0-1.4-0.3-1.9-0.9s-0.8-1.4-0.8-2.4s0.2-1.8,0.7-2.5s1.2-1,2.1-1C331.3,13.9,331.7,14,332,14.2z M329.6,19.1
			c0.3,0.5,0.8,0.7,1.4,0.7c0.5,0,0.9-0.2,1.2-0.7c0.3-0.4,0.5-1.1,0.5-1.9s-0.2-1.4-0.5-1.8c-0.3-0.4-0.8-0.6-1.2-0.6
			c-0.6,0-1,0.2-1.3,0.6c-0.3,0.4-0.5,1-0.5,1.9C329.1,18.1,329.3,18.7,329.6,19.1z"/>
		<path class="st1" d="M339.5,14.2c0.4,0.2,0.8,0.5,1,0.8s0.4,0.7,0.4,1.2c0.1,0.3,0.1,0.8,0.1,1.4h-4.8c0,0.7,0.2,1.2,0.5,1.6
			s0.7,0.6,1.4,0.6c0.6,0,1-0.2,1.4-0.6c0.2-0.2,0.3-0.5,0.4-0.8h1.1c0,0.2-0.1,0.5-0.3,0.8c-0.2,0.3-0.3,0.5-0.5,0.7
			c-0.3,0.3-0.7,0.5-1.2,0.7c-0.3,0.1-0.6,0.1-0.9,0.1c-0.8,0-1.5-0.3-2.1-0.9s-0.8-1.4-0.8-2.5s0.3-1.9,0.9-2.6
			c0.6-0.7,1.3-1,2.2-1C338.6,13.9,339,14,339.5,14.2z M339.8,16.8c0-0.5-0.1-0.9-0.3-1.1c-0.3-0.5-0.8-0.8-1.5-0.8
			c-0.5,0-0.9,0.2-1.3,0.5s-0.5,0.8-0.5,1.4H339.8z"/>
		<path class="st1" d="M349.5,14.3c0.2,0.1,0.4,0.4,0.6,0.6V14h1v9.2H350v-3.4c-0.2,0.3-0.4,0.5-0.8,0.7c-0.3,0.2-0.7,0.3-1.2,0.3
			c-0.7,0-1.3-0.3-1.9-0.8c-0.5-0.5-0.8-1.4-0.8-2.5c0-1,0.3-1.9,0.8-2.6c0.5-0.7,1.2-1,2-1C348.7,13.9,349.2,14,349.5,14.3z
			 M346.8,18.8c0.3,0.7,0.8,1,1.5,1c0.8,0,1.3-0.4,1.6-1.1c0.2-0.4,0.2-0.9,0.2-1.5s-0.1-1-0.3-1.4c-0.3-0.6-0.8-1-1.6-1
			c-0.5,0-0.9,0.2-1.2,0.6c-0.3,0.4-0.5,1.1-0.5,1.9C346.6,17.9,346.6,18.4,346.8,18.8z"/>
		<path class="st1" d="M353.9,14v4.3c0,0.3,0.1,0.6,0.2,0.8c0.2,0.4,0.5,0.6,1.1,0.6c0.7,0,1.3-0.3,1.5-1c0.1-0.4,0.2-0.9,0.2-1.5
			V14h1.1v6.5h-1v-1c-0.1,0.2-0.3,0.5-0.5,0.6c-0.4,0.3-0.9,0.5-1.5,0.5c-0.9,0-1.5-0.3-1.9-0.9c-0.2-0.3-0.3-0.8-0.3-1.3V14H353.9z
			"/>
		<path class="st1" d="M363.3,16.6c0.3,0,0.4-0.1,0.5-0.3c0-0.1,0.1-0.2,0.1-0.4c0-0.4-0.1-0.6-0.4-0.8s-0.6-0.3-1.1-0.3
			c-0.6,0-1,0.2-1.2,0.5c-0.1,0.2-0.2,0.4-0.3,0.8h-1c0-0.8,0.3-1.4,0.8-1.7s1.1-0.5,1.7-0.5c0.8,0,1.4,0.1,1.9,0.4
			c0.5,0.3,0.7,0.8,0.7,1.4v3.8c0,0.1,0,0.2,0.1,0.3s0.1,0.1,0.3,0.1c0,0,0.1,0,0.2,0s0.1,0,0.2,0v0.8c-0.2,0-0.3,0.1-0.4,0.1
			s-0.2,0-0.4,0c-0.4,0-0.7-0.1-0.8-0.4c-0.1-0.1-0.2-0.3-0.2-0.6c-0.2,0.3-0.5,0.5-1,0.8c-0.4,0.2-0.9,0.3-1.4,0.3
			c-0.6,0-1.1-0.2-1.5-0.6s-0.6-0.8-0.6-1.4s0.2-1.1,0.6-1.4s0.9-0.5,1.5-0.6L363.3,16.6z M361,19.6c0.2,0.2,0.5,0.3,0.8,0.3
			c0.4,0,0.8-0.1,1.1-0.3c0.6-0.3,0.9-0.8,0.9-1.5v-0.9c-0.1,0.1-0.3,0.2-0.5,0.2s-0.4,0.1-0.6,0.1l-0.7,0.1
			c-0.4,0.1-0.7,0.1-0.9,0.2c-0.3,0.2-0.5,0.5-0.5,0.9C360.6,19.1,360.7,19.4,361,19.6z"/>
		<path class="st1" d="M366.8,11.6h1.1v9h-1.1V11.6z"/>
		<path class="st1" d="M369.5,11.6h1.1v1.2h-1.1V11.6z M369.5,14h1.1v6.5h-1.1V14z"/>
		<path class="st1" d="M375.9,14.2c0.2,0.1,0.4,0.3,0.7,0.6v-3.3h1.1v9h-1v-0.9c-0.3,0.4-0.6,0.7-0.9,0.9c-0.3,0.2-0.7,0.3-1.2,0.3
			c-0.7,0-1.4-0.3-1.9-0.9s-0.8-1.4-0.8-2.4s0.2-1.8,0.7-2.5s1.2-1,2.1-1C375.1,13.9,375.6,14,375.9,14.2z M373.4,19.1
			c0.3,0.5,0.8,0.7,1.4,0.7c0.5,0,0.9-0.2,1.2-0.7c0.3-0.4,0.5-1.1,0.5-1.9s-0.2-1.4-0.5-1.8c-0.3-0.4-0.8-0.6-1.2-0.6
			c-0.6,0-1,0.2-1.3,0.6c-0.3,0.4-0.5,1-0.5,1.9C373,18.1,373.2,18.7,373.4,19.1z"/>
		<path class="st1" d="M382.8,16.6c0.3,0,0.4-0.1,0.5-0.3c0-0.1,0.1-0.2,0.1-0.4c0-0.4-0.1-0.6-0.4-0.8s-0.6-0.3-1.1-0.3
			c-0.6,0-1,0.2-1.2,0.5c-0.1,0.2-0.2,0.4-0.3,0.8h-1c0-0.8,0.3-1.4,0.8-1.7s1.1-0.5,1.7-0.5c0.8,0,1.4,0.1,1.9,0.4
			c0.5,0.3,0.7,0.8,0.7,1.4v3.8c0,0.1,0,0.2,0.1,0.3s0.1,0.1,0.3,0.1c0,0,0.1,0,0.2,0s0.1,0,0.2,0v0.8c-0.2,0-0.3,0.1-0.4,0.1
			s-0.2,0-0.4,0c-0.4,0-0.7-0.1-0.8-0.4c-0.1-0.1-0.2-0.3-0.2-0.6c-0.2,0.3-0.5,0.5-1,0.8c-0.4,0.2-0.9,0.3-1.4,0.3
			c-0.6,0-1.1-0.2-1.5-0.6s-0.6-0.8-0.6-1.4s0.2-1.1,0.6-1.4s0.9-0.5,1.5-0.6L382.8,16.6z M380.5,19.6c0.2,0.2,0.5,0.3,0.8,0.3
			c0.4,0,0.8-0.1,1.1-0.3c0.6-0.3,0.9-0.8,0.9-1.5v-0.9c-0.1,0.1-0.3,0.2-0.5,0.2s-0.4,0.1-0.6,0.1l-0.7,0.1
			c-0.4,0.1-0.7,0.1-0.9,0.2c-0.3,0.2-0.5,0.5-0.5,0.9C380.1,19.1,380.2,19.4,380.5,19.6z"/>
		<path class="st1" d="M389.8,14.2c0.2,0.1,0.4,0.3,0.7,0.6v-3.3h1.1v9h-1v-0.9c-0.3,0.4-0.6,0.7-0.9,0.9c-0.3,0.2-0.7,0.3-1.2,0.3
			c-0.7,0-1.4-0.3-1.9-0.9s-0.8-1.4-0.8-2.4s0.2-1.8,0.7-2.5s1.2-1,2.1-1C389.1,13.9,389.5,14,389.8,14.2z M387.4,19.1
			c0.3,0.5,0.8,0.7,1.4,0.7c0.5,0,0.9-0.2,1.2-0.7c0.3-0.4,0.5-1.1,0.5-1.9s-0.2-1.4-0.5-1.8c-0.3-0.4-0.8-0.6-1.2-0.6
			c-0.6,0-1,0.2-1.3,0.6c-0.3,0.4-0.5,1-0.5,1.9C386.9,18.1,387.1,18.7,387.4,19.1z"/>
		<path class="st1" d="M397.2,14.2c0.4,0.2,0.8,0.5,1,0.8s0.4,0.7,0.4,1.2c0.1,0.3,0.1,0.8,0.1,1.4H394c0,0.7,0.2,1.2,0.5,1.6
			s0.7,0.6,1.4,0.6c0.6,0,1-0.2,1.4-0.6c0.2-0.2,0.3-0.5,0.4-0.8h1.1c0,0.2-0.1,0.5-0.3,0.8c-0.2,0.3-0.3,0.5-0.5,0.7
			c-0.3,0.3-0.7,0.5-1.2,0.7c-0.3,0.1-0.6,0.1-0.9,0.1c-0.8,0-1.5-0.3-2.1-0.9s-0.8-1.4-0.8-2.5s0.3-1.9,0.9-2.6
			c0.6-0.7,1.3-1,2.2-1C396.4,13.9,396.8,14,397.2,14.2z M397.6,16.8c0-0.5-0.1-0.9-0.3-1.1c-0.3-0.5-0.8-0.8-1.5-0.8
			c-0.5,0-0.9,0.2-1.3,0.5s-0.5,0.8-0.5,1.4H397.6z"/>
		<path class="st1" d="M403.6,14h1v0.9c0.3-0.4,0.6-0.7,1-0.8c0.3-0.2,0.7-0.3,1.2-0.3c0.9,0,1.6,0.3,1.9,1c0.2,0.4,0.3,0.9,0.3,1.5
			v4.2h-1.1v-4.1c0-0.4-0.1-0.7-0.2-1c-0.2-0.4-0.6-0.6-1.1-0.6c-0.3,0-0.5,0-0.6,0.1c-0.3,0.1-0.6,0.3-0.8,0.5
			c-0.2,0.2-0.3,0.4-0.4,0.7s-0.1,0.6-0.1,1v3.4h-1.1L403.6,14L403.6,14z"/>
		<path class="st1" d="M414.1,16.6c0.3,0,0.4-0.1,0.5-0.3c0-0.1,0.1-0.2,0.1-0.4c0-0.4-0.1-0.6-0.4-0.8s-0.6-0.3-1.1-0.3
			c-0.6,0-1,0.2-1.2,0.5c-0.1,0.2-0.2,0.4-0.3,0.8h-1c0-0.8,0.3-1.4,0.8-1.7s1.1-0.5,1.7-0.5c0.8,0,1.4,0.1,1.9,0.4
			c0.5,0.3,0.7,0.8,0.7,1.4v3.8c0,0.1,0,0.2,0.1,0.3s0.1,0.1,0.3,0.1c0,0,0.1,0,0.2,0s0.1,0,0.2,0v0.8c-0.2,0-0.3,0.1-0.4,0.1
			s-0.2,0-0.4,0c-0.4,0-0.7-0.1-0.8-0.4c-0.1-0.1-0.2-0.3-0.2-0.6c-0.2,0.3-0.5,0.5-1,0.8c-0.4,0.2-0.9,0.3-1.4,0.3
			c-0.6,0-1.1-0.2-1.5-0.6s-0.6-0.8-0.6-1.4s0.2-1.1,0.6-1.4s0.9-0.5,1.5-0.6L414.1,16.6z M411.8,19.6c0.2,0.2,0.5,0.3,0.8,0.3
			c0.4,0,0.8-0.1,1.1-0.3c0.6-0.3,0.9-0.8,0.9-1.5v-0.9c-0.1,0.1-0.3,0.2-0.5,0.2s-0.4,0.1-0.6,0.1l-0.7,0.1
			c-0.4,0.1-0.7,0.1-0.9,0.2c-0.3,0.2-0.5,0.5-0.5,0.9C411.4,19.1,411.6,19.4,411.8,19.6z"/>
		<path class="st1" d="M418.2,18.5c0,0.4,0.1,0.6,0.3,0.8c0.3,0.4,0.8,0.5,1.5,0.5c0.4,0,0.8-0.1,1.1-0.3c0.3-0.2,0.5-0.5,0.5-0.8
			s-0.1-0.5-0.4-0.6c-0.2-0.1-0.5-0.2-1-0.3l-0.9-0.2c-0.6-0.1-1-0.3-1.3-0.5c-0.5-0.3-0.7-0.7-0.7-1.2c0-0.6,0.2-1.1,0.7-1.5
			s1.1-0.6,1.8-0.6c1,0,1.7,0.3,2.2,0.9c0.3,0.4,0.4,0.8,0.4,1.2h-1c0-0.2-0.1-0.5-0.3-0.7c-0.3-0.3-0.7-0.4-1.3-0.4
			c-0.4,0-0.7,0.1-1,0.2c-0.2,0.2-0.3,0.4-0.3,0.6c0,0.3,0.1,0.5,0.4,0.7c0.2,0.1,0.4,0.2,0.7,0.3l0.7,0.2c0.8,0.2,1.3,0.4,1.6,0.6
			c0.4,0.3,0.6,0.7,0.6,1.3c0,0.6-0.2,1.1-0.7,1.5s-1.1,0.6-2,0.6c-1,0-1.7-0.2-2.1-0.7c-0.4-0.4-0.6-1-0.7-1.6H418.2z"/>
		<path class="st1" d="M427.3,14h1v1.1c0.1-0.2,0.3-0.5,0.6-0.8c0.3-0.3,0.7-0.5,1.2-0.5h0.1c0,0,0.1,0,0.3,0V15c-0.1,0-0.1,0-0.2,0
			s-0.1,0-0.2,0c-0.6,0-1,0.2-1.3,0.5c-0.3,0.4-0.4,0.8-0.4,1.2v3.8h-1.1V14z"/>
		<path class="st1" d="M435.5,14.2c0.4,0.2,0.8,0.5,1,0.8s0.4,0.7,0.4,1.2c0.1,0.3,0.1,0.8,0.1,1.4h-4.8c0,0.7,0.2,1.2,0.5,1.6
			s0.7,0.6,1.4,0.6c0.6,0,1-0.2,1.4-0.6c0.2-0.2,0.3-0.5,0.4-0.8h1.1c0,0.2-0.1,0.5-0.3,0.8c-0.2,0.3-0.3,0.5-0.5,0.7
			c-0.3,0.3-0.7,0.5-1.2,0.7c-0.3,0.1-0.6,0.1-0.9,0.1c-0.8,0-1.5-0.3-2.1-0.9s-0.8-1.4-0.8-2.5s0.3-1.9,0.9-2.6
			c0.6-0.7,1.3-1,2.2-1C434.6,13.9,435.1,14,435.5,14.2z M435.9,16.8c0-0.5-0.1-0.9-0.3-1.1c-0.3-0.5-0.8-0.8-1.5-0.8
			c-0.5,0-0.9,0.2-1.3,0.5s-0.5,0.8-0.5,1.4H435.9z"/>
		<path class="st1" d="M438.5,11.6h1.1v9h-1.1V11.6z"/>
		<path class="st1" d="M444.7,16.6c0.3,0,0.4-0.1,0.5-0.3c0-0.1,0.1-0.2,0.1-0.4c0-0.4-0.1-0.6-0.4-0.8s-0.6-0.3-1.1-0.3
			c-0.6,0-1,0.2-1.2,0.5c-0.1,0.2-0.2,0.4-0.3,0.8h-1c0-0.8,0.3-1.4,0.8-1.7s1.1-0.5,1.7-0.5c0.8,0,1.4,0.1,1.9,0.4
			c0.5,0.3,0.7,0.8,0.7,1.4v3.8c0,0.1,0,0.2,0.1,0.3s0.1,0.1,0.3,0.1c0,0,0.1,0,0.2,0s0.1,0,0.2,0v0.8c-0.2,0-0.3,0.1-0.4,0.1
			s-0.2,0-0.4,0c-0.4,0-0.7-0.1-0.8-0.4c-0.1-0.1-0.2-0.3-0.2-0.6c-0.2,0.3-0.5,0.5-1,0.8c-0.4,0.2-0.9,0.3-1.4,0.3
			c-0.6,0-1.1-0.2-1.5-0.6s-0.6-0.8-0.6-1.4s0.2-1.1,0.6-1.4s0.9-0.5,1.5-0.6L444.7,16.6z M442.4,19.6c0.2,0.2,0.5,0.3,0.8,0.3
			c0.4,0,0.8-0.1,1.1-0.3c0.6-0.3,0.9-0.8,0.9-1.5v-0.9c-0.1,0.1-0.3,0.2-0.5,0.2c-0.2,0.1-0.4,0.1-0.6,0.1l-0.7,0.1
			c-0.4,0.1-0.7,0.1-0.9,0.2c-0.3,0.2-0.5,0.5-0.5,0.9C442.1,19.1,442.2,19.4,442.4,19.6z"/>
		<path class="st1" d="M452.5,14.4c0.5,0.4,0.7,1,0.8,1.9h-1.1c-0.1-0.4-0.2-0.7-0.4-1s-0.6-0.4-1.1-0.4c-0.7,0-1.2,0.3-1.5,1
			c-0.2,0.4-0.3,1-0.3,1.6c0,0.7,0.1,1.2,0.4,1.7c0.3,0.4,0.7,0.7,1.3,0.7c0.5,0,0.8-0.1,1.1-0.4c0.3-0.3,0.5-0.7,0.6-1.1h1.1
			c-0.1,0.9-0.4,1.5-0.9,1.9s-1.1,0.6-1.7,0.6l-0.4,0.6c0.1,0,0.3-0.1,0.5-0.1c0.3,0,0.5,0.1,0.7,0.2s0.3,0.4,0.3,0.7
			c0,0.3-0.1,0.6-0.4,0.8c-0.2,0.2-0.6,0.3-1.1,0.3c-0.2,0-0.4,0-0.7-0.1c-0.1,0-0.3-0.1-0.5-0.2l0.2-0.5c0.2,0.1,0.3,0.1,0.4,0.1
			c0.2,0,0.3,0.1,0.5,0.1s0.3,0,0.4-0.1c0.2-0.1,0.3-0.2,0.3-0.5c0-0.1-0.1-0.2-0.2-0.3c-0.1-0.1-0.3-0.1-0.4-0.1s-0.2,0-0.2,0
			c-0.1,0-0.2,0-0.3,0.1l-0.2-0.3l0.7-0.9c-0.6,0-1.1-0.2-1.5-0.7c-0.6-0.7-0.9-1.5-0.9-2.6s0.3-2,0.8-2.7s1.3-1,2.1-1
			C451.5,13.8,452.1,14,452.5,14.4z"/>
		<path class="st1" d="M459.2,14.7c0.6,0.6,0.9,1.4,0.9,2.5s-0.3,1.9-0.8,2.6s-1.3,1-2.4,1c-0.9,0-1.6-0.3-2.1-0.9s-0.8-1.4-0.8-2.5
			s0.3-2,0.8-2.6c0.6-0.7,1.3-1,2.2-1C457.9,13.8,458.6,14.1,459.2,14.7z M457.5,12c0.1,0,0.2,0.1,0.3,0.1c0.1,0,0.2,0,0.3,0
			c0.2,0,0.4-0.1,0.5-0.2c0.1-0.1,0.1-0.2,0.1-0.3h0.6c-0.1,0.5-0.2,0.9-0.5,1.1c-0.2,0.2-0.5,0.3-0.8,0.3c-0.1,0-0.2,0-0.3,0
			s-0.3-0.1-0.4-0.1l-0.3-0.1c-0.2-0.1-0.3-0.1-0.5-0.2s-0.2-0.1-0.4-0.1c-0.1,0-0.3,0-0.4,0.1s-0.2,0.2-0.2,0.4H455
			c0.1-0.3,0.1-0.6,0.3-0.8c0.2-0.4,0.6-0.6,1-0.6c0.1,0,0.3,0,0.5,0.1C456.9,11.8,457.2,11.9,457.5,12z M458.5,19
			c0.3-0.6,0.4-1.2,0.4-1.8c0-0.6-0.1-1.1-0.3-1.5c-0.3-0.6-0.8-0.9-1.6-0.9c-0.7,0-1.1,0.3-1.5,0.8c-0.3,0.5-0.5,1.1-0.5,1.9
			c0,0.7,0.2,1.3,0.5,1.7c0.3,0.5,0.8,0.7,1.4,0.7C457.7,19.9,458.2,19.6,458.5,19z"/>
		<path class="st1" d="M465.5,14.2c0.4,0.2,0.8,0.5,1,0.8s0.4,0.7,0.4,1.2c0.1,0.3,0.1,0.8,0.1,1.4h-4.8c0,0.7,0.2,1.2,0.5,1.6
			s0.7,0.6,1.4,0.6c0.6,0,1-0.2,1.4-0.6c0.2-0.2,0.3-0.5,0.4-0.8h1.1c0,0.2-0.1,0.5-0.3,0.8c-0.2,0.3-0.3,0.5-0.5,0.7
			c-0.3,0.3-0.7,0.5-1.2,0.7c-0.3,0.1-0.6,0.1-0.9,0.1c-0.8,0-1.5-0.3-2.1-0.9s-0.8-1.4-0.8-2.5s0.3-1.9,0.9-2.6
			c0.6-0.7,1.3-1,2.2-1C464.6,13.9,465,14,465.5,14.2z M465.9,16.8c0-0.5-0.1-0.9-0.3-1.1c-0.3-0.5-0.8-0.8-1.5-0.8
			c-0.5,0-0.9,0.2-1.3,0.5c-0.3,0.4-0.5,0.8-0.5,1.4H465.9z"/>
		<path class="st1" d="M469,18.5c0,0.4,0.1,0.6,0.3,0.8c0.3,0.4,0.8,0.5,1.5,0.5c0.4,0,0.8-0.1,1.1-0.3c0.3-0.2,0.5-0.5,0.5-0.8
			s-0.1-0.5-0.4-0.6c-0.2-0.1-0.5-0.2-1-0.3l-0.9-0.2c-0.6-0.1-1-0.3-1.3-0.5c-0.5-0.3-0.7-0.7-0.7-1.2c0-0.6,0.2-1.1,0.7-1.5
			s1.1-0.6,1.8-0.6c1,0,1.7,0.3,2.2,0.9c0.3,0.4,0.4,0.8,0.4,1.2h-1c0-0.2-0.1-0.5-0.3-0.7c-0.3-0.3-0.7-0.4-1.3-0.4
			c-0.4,0-0.7,0.1-1,0.2c-0.2,0.2-0.3,0.4-0.3,0.6c0,0.3,0.1,0.5,0.4,0.7c0.2,0.1,0.4,0.2,0.7,0.3l0.7,0.2c0.8,0.2,1.3,0.4,1.6,0.6
			c0.4,0.3,0.6,0.7,0.6,1.3c0,0.6-0.2,1.1-0.7,1.5c-0.4,0.4-1.1,0.6-2,0.6c-1,0-1.7-0.2-2.1-0.7c-0.4-0.4-0.6-1-0.7-1.6H469z"/>
		<path class="st1" d="M478.1,11.6h1.1v1.2h-1.1V11.6z M478.1,14h1.1v6.5h-1.1V14z"/>
		<path class="st1" d="M480.9,14h1v0.9c0.3-0.4,0.6-0.7,1-0.8c0.3-0.2,0.7-0.3,1.2-0.3c0.9,0,1.6,0.3,1.9,1c0.2,0.4,0.3,0.9,0.3,1.5
			v4.2h-1.1v-4.1c0-0.4-0.1-0.7-0.2-1c-0.2-0.4-0.5-0.6-1.1-0.6c-0.3,0-0.5,0-0.6,0.1c-0.3,0.1-0.6,0.3-0.8,0.5
			c-0.2,0.2-0.3,0.4-0.4,0.7c-0.1,0.2-0.1,0.6-0.1,1v3.4h-1.1L480.9,14L480.9,14z"/>
		<path class="st1" d="M488.1,12.2h1.1V14h1v0.9h-1v4.3c0,0.2,0.1,0.4,0.2,0.5c0.1,0,0.2,0.1,0.4,0.1c0.1,0,0.1,0,0.2,0s0.1,0,0.2,0
			v0.9c-0.1,0-0.3,0.1-0.4,0.1s-0.3,0-0.4,0c-0.5,0-0.9-0.1-1-0.4c-0.2-0.3-0.3-0.6-0.3-1v-4.3h-0.9V14h0.9L488.1,12.2L488.1,12.2z"
			/>
		<path class="st1" d="M495.4,14.2c0.4,0.2,0.8,0.5,1,0.8s0.4,0.7,0.4,1.2c0.1,0.3,0.1,0.8,0.1,1.4h-4.8c0,0.7,0.2,1.2,0.5,1.6
			s0.7,0.6,1.4,0.6c0.6,0,1-0.2,1.4-0.6c0.2-0.2,0.3-0.5,0.4-0.8h1.1c0,0.2-0.1,0.5-0.3,0.8c-0.2,0.3-0.3,0.5-0.5,0.7
			c-0.3,0.3-0.7,0.5-1.2,0.7c-0.3,0.1-0.6,0.1-0.9,0.1c-0.8,0-1.5-0.3-2.1-0.9s-0.8-1.4-0.8-2.5s0.3-1.9,0.9-2.6s1.3-1,2.2-1
			C494.5,13.9,495,14,495.4,14.2z M495.8,16.8c0-0.5-0.1-0.9-0.3-1.1c-0.3-0.5-0.8-0.8-1.5-0.8c-0.5,0-0.9,0.2-1.3,0.5
			c-0.3,0.4-0.5,0.8-0.5,1.4H495.8z"/>
		<path class="st1" d="M498.3,14h1v1.1c0.1-0.2,0.3-0.5,0.6-0.8c0.3-0.3,0.7-0.5,1.2-0.5h0.1c0,0,0.1,0,0.3,0V15c-0.1,0-0.1,0-0.2,0
			s-0.1,0-0.2,0c-0.6,0-1,0.2-1.3,0.5c-0.3,0.4-0.4,0.8-0.4,1.2v3.8h-1.1V14z"/>
		<path class="st1" d="M502.4,14h1.1v0.9c0.2-0.3,0.5-0.5,0.7-0.7c0.4-0.2,0.8-0.4,1.3-0.4c0.7,0,1.4,0.3,1.9,0.9
			c0.5,0.6,0.8,1.4,0.8,2.4c0,1.4-0.4,2.4-1.1,3.1c-0.5,0.4-1,0.6-1.7,0.6c-0.5,0-0.9-0.1-1.2-0.3c-0.2-0.1-0.4-0.3-0.7-0.6v3.3
			h-1.1L502.4,14L502.4,14z M506.5,19.2c0.3-0.4,0.5-1.1,0.5-1.9c0-0.5-0.1-1-0.2-1.3c-0.3-0.7-0.8-1.1-1.6-1.1
			c-0.8,0-1.3,0.4-1.6,1.1c-0.2,0.4-0.2,0.9-0.2,1.6c0,0.5,0.1,0.9,0.2,1.3c0.3,0.7,0.8,1,1.6,1C505.8,19.8,506.2,19.6,506.5,19.2z"
			/>
		<path class="st1" d="M513.5,14.2c0.4,0.2,0.8,0.5,1,0.8s0.4,0.7,0.4,1.2c0.1,0.3,0.1,0.8,0.1,1.4h-4.8c0,0.7,0.2,1.2,0.5,1.6
			s0.7,0.6,1.4,0.6c0.6,0,1-0.2,1.4-0.6c0.2-0.2,0.3-0.5,0.4-0.8h1.1c0,0.2-0.1,0.5-0.3,0.8s-0.3,0.5-0.5,0.7
			c-0.3,0.3-0.7,0.5-1.2,0.7c-0.3,0.1-0.6,0.1-0.9,0.1c-0.8,0-1.5-0.3-2.1-0.9s-0.8-1.4-0.8-2.5s0.3-1.9,0.9-2.6s1.3-1,2.2-1
			C512.6,13.9,513.1,14,513.5,14.2z M513.9,16.8c0-0.5-0.1-0.9-0.3-1.1c-0.3-0.5-0.8-0.8-1.5-0.8c-0.5,0-0.9,0.2-1.3,0.5
			c-0.3,0.4-0.5,0.8-0.5,1.4H513.9z"/>
		<path class="st1" d="M517.1,18.5c0,0.4,0.1,0.6,0.3,0.8c0.3,0.4,0.8,0.5,1.5,0.5c0.4,0,0.8-0.1,1.1-0.3c0.3-0.2,0.5-0.5,0.5-0.8
			s-0.1-0.5-0.4-0.6c-0.2-0.1-0.5-0.2-1-0.3l-0.9-0.2c-0.6-0.1-1-0.3-1.3-0.5c-0.5-0.3-0.7-0.7-0.7-1.2c0-0.6,0.2-1.1,0.7-1.5
			s1.1-0.6,1.8-0.6c1,0,1.7,0.3,2.2,0.9c0.3,0.4,0.4,0.8,0.4,1.2h-1c0-0.2-0.1-0.5-0.3-0.7c-0.3-0.3-0.7-0.4-1.3-0.4
			c-0.4,0-0.7,0.1-1,0.2s-0.3,0.4-0.3,0.6c0,0.3,0.1,0.5,0.4,0.7c0.2,0.1,0.4,0.2,0.7,0.3l0.7,0.2c0.8,0.2,1.3,0.4,1.6,0.6
			c0.4,0.3,0.6,0.7,0.6,1.3c0,0.6-0.2,1.1-0.7,1.5c-0.4,0.4-1.1,0.6-2,0.6c-1,0-1.7-0.2-2.1-0.7c-0.4-0.4-0.6-1-0.7-1.6H517.1z"/>
		<path class="st1" d="M523.3,18.5c0,0.4,0.1,0.6,0.3,0.8c0.3,0.4,0.8,0.5,1.5,0.5c0.4,0,0.8-0.1,1.1-0.3c0.3-0.2,0.5-0.5,0.5-0.8
			s-0.1-0.5-0.4-0.6c-0.2-0.1-0.5-0.2-1-0.3l-0.9-0.2c-0.6-0.1-1-0.3-1.3-0.5c-0.5-0.3-0.7-0.7-0.7-1.2c0-0.6,0.2-1.1,0.7-1.5
			s1.1-0.6,1.8-0.6c1,0,1.7,0.3,2.2,0.9c0.3,0.4,0.4,0.8,0.4,1.2h-1c0-0.2-0.1-0.5-0.3-0.7c-0.3-0.3-0.7-0.4-1.3-0.4
			c-0.4,0-0.7,0.1-1,0.2s-0.3,0.4-0.3,0.6c0,0.3,0.1,0.5,0.4,0.7c0.2,0.1,0.4,0.2,0.7,0.3l0.7,0.2c0.8,0.2,1.3,0.4,1.6,0.6
			c0.4,0.3,0.6,0.7,0.6,1.3c0,0.6-0.2,1.1-0.7,1.5c-0.4,0.4-1.1,0.6-2,0.6c-1,0-1.7-0.2-2.1-0.7c-0.4-0.4-0.6-1-0.7-1.6H523.3z"/>
		<path class="st1" d="M533.7,14.7c0.6,0.6,0.9,1.4,0.9,2.5s-0.3,1.9-0.8,2.6s-1.3,1-2.4,1c-0.9,0-1.6-0.3-2.1-0.9s-0.8-1.4-0.8-2.5
			s0.3-2,0.8-2.6c0.6-0.7,1.3-1,2.2-1C532.4,13.8,533.1,14.1,533.7,14.7z M533,19c0.3-0.6,0.4-1.2,0.4-1.8c0-0.6-0.1-1.1-0.3-1.5
			c-0.3-0.6-0.8-0.9-1.6-0.9c-0.7,0-1.1,0.3-1.5,0.8c-0.3,0.5-0.5,1.1-0.5,1.9c0,0.7,0.2,1.3,0.5,1.7c0.3,0.5,0.8,0.7,1.4,0.7
			C532.2,19.9,532.7,19.6,533,19z"/>
		<path class="st1" d="M539.4,16.6c0.3,0,0.4-0.1,0.5-0.3c0-0.1,0.1-0.2,0.1-0.4c0-0.4-0.1-0.6-0.4-0.8c-0.3-0.2-0.6-0.3-1.1-0.3
			c-0.6,0-1,0.2-1.2,0.5c-0.1,0.2-0.2,0.4-0.3,0.8h-1c0-0.8,0.3-1.4,0.8-1.7s1.1-0.5,1.7-0.5c0.8,0,1.4,0.1,1.9,0.4
			c0.5,0.3,0.7,0.8,0.7,1.4v3.8c0,0.1,0,0.2,0.1,0.3s0.1,0.1,0.3,0.1c0,0,0.1,0,0.2,0c0.1,0,0.1,0,0.2,0v0.8c-0.2,0-0.3,0.1-0.4,0.1
			s-0.2,0-0.4,0c-0.4,0-0.7-0.1-0.8-0.4c-0.1-0.1-0.2-0.3-0.2-0.6c-0.2,0.3-0.5,0.5-1,0.8c-0.4,0.2-0.9,0.3-1.4,0.3
			c-0.6,0-1.1-0.2-1.5-0.6s-0.6-0.8-0.6-1.4s0.2-1.1,0.6-1.4c0.4-0.3,0.9-0.5,1.5-0.6L539.4,16.6z M537.1,19.6
			c0.2,0.2,0.5,0.3,0.8,0.3c0.4,0,0.8-0.1,1.1-0.3c0.6-0.3,0.9-0.8,0.9-1.5v-0.9c-0.1,0.1-0.3,0.2-0.5,0.2c-0.2,0.1-0.4,0.1-0.6,0.1
			l-0.7,0.1c-0.4,0.1-0.7,0.1-0.9,0.2c-0.3,0.2-0.5,0.5-0.5,0.9C536.7,19.1,536.9,19.4,537.1,19.6z"/>
		<path class="st1" d="M542.9,11.6h1.1v1.2h-1.1V11.6z M542.9,14h1.1v6.5h-1.1V14z"/>
		<path class="st1" d="M546.3,18.5c0,0.4,0.1,0.6,0.3,0.8c0.3,0.4,0.8,0.5,1.5,0.5c0.4,0,0.8-0.1,1.1-0.3c0.3-0.2,0.5-0.5,0.5-0.8
			s-0.1-0.5-0.4-0.6c-0.2-0.1-0.5-0.2-1-0.3l-0.9-0.2c-0.6-0.1-1-0.3-1.3-0.5c-0.5-0.3-0.7-0.7-0.7-1.2c0-0.6,0.2-1.1,0.7-1.5
			s1.1-0.6,1.8-0.6c1,0,1.7,0.3,2.2,0.9c0.3,0.4,0.4,0.8,0.4,1.2h-1c0-0.2-0.1-0.5-0.3-0.7c-0.3-0.3-0.7-0.4-1.3-0.4
			c-0.4,0-0.7,0.1-1,0.2c-0.2,0.2-0.3,0.4-0.3,0.6c0,0.3,0.1,0.5,0.4,0.7c0.2,0.1,0.4,0.2,0.7,0.3l0.7,0.2c0.8,0.2,1.3,0.4,1.6,0.6
			c0.4,0.3,0.6,0.7,0.6,1.3c0,0.6-0.2,1.1-0.7,1.5c-0.4,0.4-1.1,0.6-2,0.6c-1,0-1.7-0.2-2.1-0.7c-0.4-0.4-0.6-1-0.7-1.6H546.3z"/>
	</g>
</g>
<g id="Camada_2_1_">
</g>
<g>
	<g>
		<path class="st3" d="M602.1,23.4l0-0.3l0-0.6l0-0.4c0,0,0-0.1,0-0.1c0,0,0-0.1,0-0.1c0.1,0,0.2,0,0.2,0c0,0,0.1,0,0.2,0
			c0.1,0,0.1,0,0.2,0c0.1,0,0.2,0,0.2,0c0,0,0.1,0,0.1,0.1c0,0,0.1,0.1,0.1,0.1c0,0.1,0,0.1,0,0.2c0,0.1,0,0.2-0.1,0.2
			c0,0.1-0.1,0.1-0.2,0.2c-0.1,0-0.2,0.1-0.3,0.1c0,0-0.1,0-0.2,0c0-0.1,0-0.1-0.1-0.2c0,0,0.1,0,0.1,0c0.1,0,0.1,0,0.2,0
			c0,0,0.1,0,0.1-0.1c0,0,0-0.1,0-0.1c0,0,0-0.1,0-0.1c0,0,0,0,0-0.1c0,0,0,0-0.1,0c0,0-0.1,0-0.1,0c0,0-0.1,0-0.1,0
			c0,0-0.1,0-0.1,0c0,0.1,0,0.3,0,0.4l0,0.4c0,0.1,0,0.2,0,0.3c0,0,0,0.1,0,0.1l-0.2,0C602.3,23.4,602.2,23.4,602.1,23.4z"/>
		<path class="st3" d="M603.4,23.4c0-0.2,0-0.5,0-0.7c0-0.3,0-0.5,0-0.7c0.1,0,0.2,0,0.2,0c0.1,0,0.1,0,0.2,0c0.1,0,0.1,0,0.2,0
			c0.1,0,0.2,0,0.2,0c0.1,0,0.1,0,0.2,0.1c0.1,0,0.1,0.1,0.1,0.1c0,0,0,0.1,0,0.2c0,0,0,0.1,0,0.1c0,0,0,0.1,0,0.1
			c0,0,0,0.1-0.1,0.1c0,0,0,0-0.1,0.1c0,0-0.1,0-0.1,0c0,0-0.1,0-0.1,0l0.1,0.1c0,0,0.1,0.1,0.1,0.2l0.1,0.2c0,0,0,0,0.1,0.1
			c-0.1,0-0.1,0-0.2,0c0,0-0.1,0-0.2,0l-0.1-0.3c0,0,0-0.1-0.1-0.2l-0.1-0.3c0,0,0-0.1-0.1-0.1c0,0,0.1,0,0.1,0c0.1,0,0.1,0,0.2,0
			c0.1,0,0.1-0.1,0.1-0.1c0,0,0-0.1,0-0.1c0,0,0-0.1,0-0.1c0,0,0,0-0.1-0.1c0,0-0.1,0-0.1,0c0,0-0.1,0-0.1,0c0,0-0.1,0-0.1,0
			c0,0-0.1,0-0.1,0l0,0.4l0,0.8l-0.2,0C603.5,23.4,603.5,23.4,603.4,23.4z"/>
		<path class="st3" d="M605.6,21.9c0.1,0,0.2,0,0.3,0c0.1,0,0.2,0.1,0.3,0.1c0.1,0.1,0.1,0.1,0.2,0.2c0,0.1,0.1,0.2,0.1,0.3
			c0,0.1,0,0.2-0.1,0.3c0,0.1-0.1,0.2-0.2,0.3c-0.1,0.1-0.2,0.1-0.3,0.2c-0.1,0-0.2,0.1-0.3,0.1c-0.1,0-0.2,0-0.3,0
			c-0.1,0-0.2-0.1-0.3-0.1c-0.1-0.1-0.1-0.1-0.2-0.2c0-0.1,0-0.2,0-0.3c0-0.1,0-0.2,0.1-0.3c0-0.1,0.1-0.2,0.2-0.3
			c0.1-0.1,0.2-0.1,0.3-0.2C605.4,22,605.5,21.9,605.6,21.9z M605.6,22.2c-0.1,0-0.2,0-0.3,0.1c-0.1,0-0.1,0.1-0.2,0.2
			c0,0.1-0.1,0.2-0.1,0.3c0,0.1,0,0.2,0.1,0.3c0,0.1,0.1,0.1,0.2,0.2c0.1,0,0.2,0.1,0.3,0.1c0.1,0,0.1,0,0.2,0
			c0.1,0,0.1-0.1,0.2-0.1c0,0,0.1-0.1,0.1-0.2c0-0.1,0-0.1,0-0.2c0-0.1,0-0.1,0-0.2c0-0.1-0.1-0.1-0.1-0.2c0,0-0.1-0.1-0.2-0.1
			C605.7,22.2,605.6,22.2,605.6,22.2z"/>
		<path class="st3" d="M607.4,22.6c0.1,0,0.2,0,0.3,0c0.1,0,0.2,0,0.3,0c0,0.2,0,0.5,0,0.8c-0.1,0-0.2,0-0.3,0c-0.1,0-0.2,0-0.2,0
			c-0.1,0-0.2,0-0.3,0c-0.1,0-0.2-0.1-0.3-0.1c-0.1-0.1-0.1-0.1-0.2-0.2c0-0.1-0.1-0.2-0.1-0.3c0-0.1,0-0.2,0-0.3
			c0-0.1,0.1-0.2,0.1-0.2c0.1-0.1,0.1-0.1,0.2-0.2c0.1,0,0.2-0.1,0.3-0.1c0.1,0,0.2,0,0.3,0c0.1,0,0.3,0,0.5,0.1c0,0.1,0,0.2,0,0.3
			c-0.2-0.1-0.3-0.1-0.5-0.1c-0.1,0-0.2,0-0.2,0c-0.1,0-0.1,0.1-0.2,0.1c-0.1,0.1-0.1,0.1-0.1,0.2c0,0.1,0,0.2,0,0.2
			c0,0.1,0,0.2,0.1,0.2c0,0.1,0.1,0.1,0.2,0.2c0.1,0,0.2,0.1,0.3,0.1c0,0,0.1,0,0.1,0c0.1,0,0.1,0,0.2,0l0-0.4l-0.1,0
			c0,0-0.1,0-0.2,0C607.4,22.7,607.4,22.6,607.4,22.6z"/>
		<path class="st3" d="M608.2,23.4c0-0.2,0-0.5,0-0.7c0-0.3,0-0.5,0-0.7c0.1,0,0.2,0,0.2,0c0.1,0,0.1,0,0.2,0c0.1,0,0.1,0,0.2,0
			c0.1,0,0.2,0,0.2,0c0.1,0,0.1,0,0.2,0.1c0.1,0,0.1,0.1,0.1,0.1c0,0,0,0.1,0,0.2c0,0,0,0.1,0,0.1c0,0,0,0.1,0,0.1
			c0,0,0,0.1-0.1,0.1c0,0,0,0-0.1,0.1c0,0-0.1,0-0.1,0c0,0-0.1,0-0.1,0l0.1,0.1c0,0,0.1,0.1,0.1,0.2l0.1,0.2c0,0,0,0,0.1,0.1
			c-0.1,0-0.1,0-0.2,0c0,0-0.1,0-0.2,0l-0.1-0.3c0,0,0-0.1-0.1-0.2l-0.1-0.3c0,0,0-0.1-0.1-0.1c0,0,0.1,0,0.1,0c0.1,0,0.1,0,0.2,0
			c0.1,0,0.1-0.1,0.1-0.1c0,0,0-0.1,0-0.1c0,0,0-0.1,0-0.1c0,0,0,0-0.1-0.1c0,0-0.1,0-0.1,0c0,0-0.1,0-0.1,0c0,0-0.1,0-0.1,0
			c0,0-0.1,0-0.1,0l0,0.4l0,0.8l-0.2,0C608.4,23.4,608.3,23.4,608.2,23.4z"/>
		<path class="st3" d="M609.4,23.4c0.1-0.1,0.2-0.3,0.3-0.5l0.3-0.5c0.1-0.2,0.2-0.3,0.2-0.4c0.1,0,0.2,0,0.2,0c0.1,0,0.1,0,0.2,0
			l0.2,0.4l0.3,0.9l0,0.1l-0.2,0c0,0-0.1,0-0.2,0c0-0.1,0-0.1-0.1-0.3c0-0.1-0.1-0.2-0.1-0.3H610c-0.1,0.2-0.2,0.3-0.2,0.5l-0.2,0
			C609.6,23.4,609.5,23.4,609.4,23.4z M610.1,22.7h0.4l-0.2-0.5l-0.1,0.2L610.1,22.7z"/>
		<path class="st3" d="M611.2,23.4l0-0.2l0.1-0.8l0-0.4c0.1,0,0.2,0,0.2,0c0,0,0.1,0,0.2,0c0,0.1,0,0.1,0,0.1c0,0,0,0.1,0,0.1
			c0,0.1,0,0.1,0.1,0.2c0,0.1,0.1,0.2,0.1,0.3l0.1,0.3l0.1-0.4l0.2-0.5c0,0,0,0,0-0.1c0,0,0-0.1,0-0.1c0.1,0,0.2,0,0.2,0
			c0,0,0.1,0,0.2,0c0,0.2,0,0.4,0,0.7c0,0.2,0,0.4,0,0.6c0,0.1,0,0.1,0,0.2c-0.1,0-0.1,0-0.1,0c0,0-0.1,0-0.1,0c0-0.1,0-0.1,0-0.2
			l0-0.6c0-0.1,0-0.2,0-0.3l0-0.1l-0.4,1l0,0.1c-0.1,0-0.1,0-0.1,0c0,0-0.1,0-0.2,0l-0.2-0.7c0,0,0-0.1,0-0.1l-0.1-0.2
			c0,0,0,0,0-0.1c0,0,0,0,0-0.1l0,0.1c0,0,0,0.1,0,0.2l0,0.7c0,0,0,0.1,0,0.1l-0.1,0C611.3,23.4,611.3,23.4,611.2,23.4z"/>
		<path class="st3" d="M613,23.4c0.1-0.1,0.2-0.3,0.3-0.5l0.3-0.5c0.1-0.2,0.2-0.3,0.2-0.4c0.1,0,0.2,0,0.2,0c0.1,0,0.1,0,0.2,0
			l0.2,0.4l0.3,0.9l0,0.1l-0.2,0c0,0-0.1,0-0.2,0c0-0.1,0-0.1-0.1-0.3c0-0.1-0.1-0.2-0.1-0.3h-0.6c-0.1,0.2-0.2,0.3-0.2,0.5l-0.2,0
			C613.1,23.4,613.1,23.4,613,23.4z M613.7,22.7h0.4l-0.2-0.5l-0.1,0.2L613.7,22.7z"/>
		<path class="st3" d="M615.4,23.4l0-0.4l0-0.5l0-0.5c0,0,0-0.1,0-0.2c0.1,0,0.2,0,0.2,0c0.1,0,0.1,0,0.2,0c0.1,0,0.2,0,0.2,0
			c0.1,0,0.2,0,0.2,0c0.1,0,0.1,0,0.2,0.1c0.1,0,0.1,0.1,0.1,0.1c0,0,0.1,0.1,0.1,0.1c0,0,0,0.1,0.1,0.2c0,0.1,0,0.1,0,0.2
			c0,0.1,0,0.2-0.1,0.3c0,0.1-0.1,0.2-0.2,0.3c-0.1,0.1-0.2,0.1-0.3,0.1c-0.1,0-0.2,0-0.3,0l-0.4,0
			C615.5,23.4,615.5,23.4,615.4,23.4z M615.7,23.2c0.1,0,0.1,0,0.2,0c0.1,0,0.1,0,0.2,0c0.1,0,0.1,0,0.1,0c0,0,0.1,0,0.1-0.1
			c0,0,0.1-0.1,0.1-0.1c0,0,0-0.1,0.1-0.2c0-0.1,0-0.1,0-0.2c0-0.1,0-0.2-0.1-0.3c0-0.1-0.1-0.1-0.1-0.1c-0.1,0-0.2,0-0.3,0
			c-0.1,0-0.2,0-0.3,0L615.7,23.2z"/>
		<path class="st3" d="M617,23.4l0-0.4l0-0.5l0-0.4V22c0.2,0,0.4,0,0.5,0l0.2,0l0.3,0l0,0.2l-0.1,0c0,0-0.1,0-0.1,0c0,0-0.1,0-0.1,0
			c-0.1,0-0.2,0-0.2,0c0,0-0.1,0-0.1,0l0,0.4c0.1,0,0.2,0,0.3,0c0.1,0,0.2,0,0.3,0c0,0.1,0,0.1,0,0.2c-0.2,0-0.3,0-0.3,0
			c-0.1,0-0.2,0-0.3,0l0,0.4l0.1,0c0,0,0.1,0,0.2,0l0.2,0l0.2,0c0,0.1,0,0.2,0,0.2c-0.2,0-0.4,0-0.5,0l-0.3,0L617,23.4z"/>
		<path class="st3" d="M620.5,23.1c0,0,0,0.1,0,0.1l0,0.1c-0.1,0-0.3,0-0.4,0c-0.1,0-0.3,0-0.4,0c-0.1,0-0.2,0-0.3,0
			c-0.1,0-0.2-0.1-0.3-0.1c-0.1-0.1-0.1-0.1-0.2-0.2c0-0.1-0.1-0.2-0.1-0.3c0-0.1,0-0.2,0.1-0.3c0-0.1,0.1-0.2,0.2-0.3
			c0.1-0.1,0.2-0.1,0.3-0.2c0.1,0,0.2,0,0.3,0c0.1,0,0.2,0,0.3,0c0.1,0,0.2,0.1,0.3,0.1c0.1,0.1,0.1,0.1,0.2,0.2
			c0,0.1,0.1,0.2,0.1,0.3c0,0,0,0.1,0,0.1c0,0,0,0.1,0,0.1c0,0,0,0.1-0.1,0.1c0,0,0,0.1-0.1,0.1c0,0-0.1,0-0.1,0.1
			c0.1,0,0.1,0,0.1,0C620.4,23.2,620.4,23.2,620.5,23.1z M619.7,22.2c-0.1,0-0.2,0-0.3,0.1c-0.1,0-0.1,0.1-0.2,0.2
			c0,0.1-0.1,0.2-0.1,0.3c0,0.1,0,0.2,0.1,0.3c0,0.1,0.1,0.1,0.2,0.2c0.1,0,0.2,0.1,0.2,0.1c0.1,0,0.2,0,0.3-0.1
			c0.1,0,0.1-0.1,0.2-0.2c0-0.1,0.1-0.2,0.1-0.3c0-0.1,0-0.1,0-0.2c0-0.1-0.1-0.1-0.1-0.2c0,0-0.1-0.1-0.2-0.1
			C619.8,22.2,619.7,22.2,619.7,22.2z"/>
		<path class="st3" d="M620.8,22c0.1,0,0.1,0,0.2,0c0,0,0.1,0,0.2,0l0,0.9c0,0,0,0,0,0c0,0.1,0,0.2,0,0.2c0,0,0.1,0.1,0.1,0.1
			c0.1,0,0.1,0,0.2,0c0,0,0.1,0,0.1,0c0,0,0.1,0,0.1,0c0,0,0,0,0.1,0c0,0,0,0,0-0.1c0,0,0-0.1,0-0.1c0-0.1,0-0.1,0-0.3l0-0.4
			c0-0.1,0-0.2,0-0.4c0.1,0,0.1,0,0.2,0l0.2,0l0,0.5l0,0.4c0,0.1,0,0.2,0,0.2c0,0,0,0.1,0,0.1c0,0,0,0.1-0.1,0.1
			c0,0-0.1,0.1-0.1,0.1c-0.1,0-0.1,0-0.2,0.1c-0.1,0-0.2,0-0.3,0c-0.1,0-0.2,0-0.3,0c-0.1,0-0.1,0-0.2-0.1c-0.1,0-0.1-0.1-0.1-0.1
			c0,0,0-0.1-0.1-0.1c0,0,0-0.1,0-0.2c0,0,0,0,0-0.1c0,0,0-0.1,0-0.1l0-0.1c0,0,0-0.1,0-0.2l0-0.2C620.8,22.1,620.8,22,620.8,22z"/>
		<path class="st3" d="M622.2,23.4c0.1-0.1,0.2-0.3,0.3-0.5l0.3-0.5c0.1-0.2,0.2-0.3,0.2-0.4c0.1,0,0.2,0,0.2,0c0.1,0,0.1,0,0.2,0
			l0.2,0.4l0.3,0.9l0,0.1l-0.2,0c0,0-0.1,0-0.2,0c0-0.1,0-0.1-0.1-0.3c0-0.1-0.1-0.2-0.1-0.3h-0.6c-0.1,0.2-0.2,0.3-0.2,0.5l-0.2,0
			C622.3,23.4,622.2,23.4,622.2,23.4z M622.8,22.7h0.4l-0.2-0.5l-0.1,0.2L622.8,22.7z"/>
		<path class="st3" d="M624,23.4c0-0.2,0-0.5,0.1-0.7c0-0.3,0-0.5,0-0.7c0.1,0,0.1,0,0.2,0c0,0,0.1,0,0.2,0c0,0.1,0,0.3,0,0.4l0,0.4
			c0,0.1,0,0.2,0,0.4l0.2,0c0.2,0,0.3,0,0.3,0c0.1,0,0.1,0,0.2,0c0,0.1,0,0.1,0,0.2c-0.2,0-0.3,0-0.5,0l-0.3,0L624,23.4z"/>
		<path class="st3" d="M625.2,23.4c0-0.2,0-0.5,0-0.7c0-0.3,0-0.5,0-0.6l0-0.1l0.2,0c0,0,0.1,0,0.2,0c0,0.4,0,0.9-0.1,1.4l-0.2,0
			C625.3,23.4,625.2,23.4,625.2,23.4z"/>
		<path class="st3" d="M625.8,23.4c0-0.1,0-0.3,0-0.3c0-0.1,0-0.3,0-0.6c0-0.2,0-0.3,0-0.4V22c0.2,0,0.4,0,0.5,0l0.3,0l0.2,0
			c0,0.1,0,0.2,0,0.2l-0.2,0l-0.1,0h-0.1h-0.2l-0.2,0l0,0.4l0.2,0c0.1,0,0.2,0,0.3,0l0.1,0c0,0.1,0,0.2,0,0.2c-0.1,0-0.2,0-0.3,0
			c-0.1,0-0.2,0-0.3,0l0,0.5l0,0.1v0.1l-0.2,0C626,23.4,625.9,23.4,625.8,23.4z"/>
		<path class="st3" d="M627,23.4c0-0.2,0-0.5,0-0.7c0-0.3,0-0.5,0-0.6l0-0.1l0.2,0c0,0,0.1,0,0.2,0c0,0.4,0,0.9-0.1,1.4l-0.2,0
			C627.2,23.4,627.1,23.4,627,23.4z"/>
		<path class="st3" d="M628.9,23.2c0,0.1,0,0.2,0,0.3c-0.1,0-0.2,0-0.2,0c-0.1,0-0.1,0-0.2,0c-0.1,0-0.2,0-0.3,0
			c-0.1,0-0.2-0.1-0.3-0.1c-0.1-0.1-0.1-0.1-0.2-0.2c0-0.1-0.1-0.2-0.1-0.3c0-0.1,0-0.2,0.1-0.3c0-0.1,0.1-0.2,0.2-0.3
			c0.1-0.1,0.2-0.1,0.3-0.2c0.1,0,0.2-0.1,0.3-0.1c0.1,0,0.2,0,0.4,0c0,0.1,0,0.1,0,0.1l0,0.1c-0.1,0-0.1,0-0.2,0
			c-0.1,0-0.1,0-0.2,0c-0.1,0-0.1,0-0.2,0c-0.1,0-0.1,0.1-0.2,0.1c-0.1,0.1-0.1,0.1-0.1,0.2c0,0.1,0,0.1,0,0.2c0,0.1,0,0.2,0.1,0.2
			c0,0.1,0.1,0.1,0.2,0.2c0.1,0,0.2,0.1,0.3,0.1C628.6,23.2,628.7,23.2,628.9,23.2z"/>
		<path class="st3" d="M628.9,23.4c0.1-0.1,0.2-0.3,0.3-0.5l0.3-0.5c0.1-0.2,0.2-0.3,0.2-0.4c0.1,0,0.2,0,0.2,0c0.1,0,0.1,0,0.2,0
			l0.2,0.4l0.3,0.9l0,0.1l-0.2,0c0,0-0.1,0-0.2,0c0-0.1,0-0.1-0.1-0.3c0-0.1-0.1-0.2-0.1-0.3h-0.6c-0.1,0.2-0.2,0.3-0.2,0.5l-0.2,0
			C629,23.4,629,23.4,628.9,23.4z M629.6,22.7h0.4l-0.2-0.5l-0.1,0.2L629.6,22.7z"/>
		<path class="st3" d="M631.9,23.2c0,0.1,0,0.2,0,0.3c-0.1,0-0.2,0-0.2,0c-0.1,0-0.1,0-0.2,0c-0.1,0-0.2,0-0.3,0
			c-0.1,0-0.2-0.1-0.3-0.1c-0.1-0.1-0.1-0.1-0.2-0.2c0-0.1-0.1-0.2-0.1-0.3c0-0.1,0-0.2,0.1-0.3c0-0.1,0.1-0.2,0.2-0.3
			c0.1-0.1,0.2-0.1,0.3-0.2c0.1,0,0.2-0.1,0.3-0.1c0.1,0,0.2,0,0.4,0c0,0.1,0,0.1,0,0.1l0,0.1c-0.1,0-0.1,0-0.2,0
			c-0.1,0-0.1,0-0.2,0c-0.1,0-0.1,0-0.2,0c-0.1,0-0.1,0.1-0.2,0.1c-0.1,0.1-0.1,0.1-0.1,0.2c0,0.1,0,0.1,0,0.2c0,0.1,0,0.2,0.1,0.2
			c0,0.1,0.1,0.1,0.2,0.2c0.1,0,0.2,0.1,0.3,0.1C631.6,23.2,631.8,23.2,631.9,23.2z M631.6,23.5c-0.1,0.1-0.1,0.2-0.1,0.3
			c-0.1,0-0.1,0-0.2,0c0,0-0.1,0-0.2,0l0.1-0.1c0,0,0.1-0.1,0.1-0.2c0,0,0.1,0,0.1,0C631.5,23.5,631.6,23.5,631.6,23.5z"/>
		<path class="st3" d="M631.9,23.4c0.1-0.1,0.2-0.3,0.3-0.5l0.3-0.5c0.1-0.2,0.2-0.3,0.2-0.4c0.1,0,0.2,0,0.2,0c0.1,0,0.1,0,0.2,0
			l0.2,0.4l0.3,0.9l0,0.1l-0.2,0c0,0-0.1,0-0.2,0c0-0.1,0-0.1-0.1-0.3c0-0.1-0.1-0.2-0.1-0.3h-0.6c-0.1,0.2-0.2,0.3-0.2,0.5l-0.2,0
			C632.1,23.4,632,23.4,631.9,23.4z M632.6,21.8c0-0.1,0-0.1,0-0.1c0,0,0-0.1,0-0.1c0,0,0,0,0.1,0c0,0,0,0,0,0c0,0,0,0,0,0
			c0,0,0,0,0,0c0,0,0,0,0,0l0.1,0c0,0,0,0,0,0c0,0,0,0,0,0c0,0,0,0,0,0c0,0,0,0,0,0c0,0,0,0,0,0c0,0,0,0,0,0c0,0,0.1,0,0.1,0
			c0,0,0,0,0.1,0c0,0,0,0.1,0,0.1c0,0,0,0.1,0,0.1c0,0,0,0-0.1,0c0,0,0,0,0,0c0,0,0,0,0,0c0,0,0,0-0.1,0c0,0-0.1,0-0.1,0
			c0,0,0,0,0,0c0,0,0,0,0,0c0,0,0,0,0,0c0,0,0,0,0,0.1C632.7,21.8,632.7,21.8,632.6,21.8C632.6,21.8,632.6,21.8,632.6,21.8z
			 M632.6,22.7h0.4l-0.2-0.5l-0.1,0.2L632.6,22.7z"/>
		<path class="st3" d="M634.6,21.9c0.1,0,0.2,0,0.3,0c0.1,0,0.2,0.1,0.3,0.1c0.1,0.1,0.1,0.1,0.2,0.2c0,0.1,0.1,0.2,0.1,0.3
			c0,0.1,0,0.2-0.1,0.3c0,0.1-0.1,0.2-0.2,0.3c-0.1,0.1-0.2,0.1-0.3,0.2c-0.1,0-0.2,0.1-0.3,0.1c-0.1,0-0.2,0-0.3,0
			c-0.1,0-0.2-0.1-0.3-0.1c-0.1-0.1-0.1-0.1-0.2-0.2c0-0.1,0-0.2,0-0.3c0-0.1,0-0.2,0.1-0.3c0-0.1,0.1-0.2,0.2-0.3
			c0.1-0.1,0.2-0.1,0.3-0.2C634.4,22,634.5,21.9,634.6,21.9z M634.6,22.2c-0.1,0-0.2,0-0.3,0.1c-0.1,0-0.1,0.1-0.2,0.2
			c0,0.1-0.1,0.2-0.1,0.3c0,0.1,0,0.2,0.1,0.3c0,0.1,0.1,0.1,0.2,0.2c0.1,0,0.2,0.1,0.3,0.1c0.1,0,0.1,0,0.2,0
			c0.1,0,0.1-0.1,0.2-0.1c0,0,0.1-0.1,0.1-0.2c0-0.1,0-0.1,0-0.2c0-0.1,0-0.1,0-0.2c0-0.1-0.1-0.1-0.1-0.2c0,0-0.1-0.1-0.2-0.1
			C634.7,22.2,634.6,22.2,634.6,22.2z"/>
		<path class="st3" d="M601,26l0-0.4l0-0.5l0-0.5c0,0,0-0.1,0-0.2c0.1,0,0.2,0,0.2,0c0.1,0,0.1,0,0.2,0c0.1,0,0.2,0,0.2,0
			c0.1,0,0.2,0,0.2,0c0.1,0,0.1,0,0.2,0.1c0.1,0,0.1,0.1,0.1,0.1c0,0,0.1,0.1,0.1,0.1c0,0,0,0.1,0.1,0.2c0,0.1,0,0.1,0,0.2
			c0,0.1,0,0.2-0.1,0.3c0,0.1-0.1,0.2-0.2,0.3c-0.1,0.1-0.2,0.1-0.3,0.1c-0.1,0-0.2,0-0.3,0l-0.4,0C601.2,26,601.1,26,601,26z
			 M601.3,25.8c0.1,0,0.1,0,0.2,0c0.1,0,0.1,0,0.2,0c0.1,0,0.1,0,0.1,0c0,0,0.1,0,0.1-0.1c0,0,0.1-0.1,0.1-0.1c0,0,0-0.1,0.1-0.2
			c0-0.1,0-0.1,0-0.2c0-0.1,0-0.2-0.1-0.3c0-0.1-0.1-0.1-0.1-0.1c-0.1,0-0.2,0-0.3,0c-0.1,0-0.2,0-0.3,0L601.3,25.8z"/>
		<path class="st3" d="M602.4,26c0.1-0.1,0.2-0.3,0.3-0.5L603,25c0.1-0.2,0.2-0.3,0.2-0.4c0.1,0,0.2,0,0.2,0c0.1,0,0.1,0,0.2,0
			l0.2,0.4l0.3,0.9l0,0.1l-0.2,0c0,0-0.1,0-0.2,0c0-0.1,0-0.1-0.1-0.3c0-0.1-0.1-0.2-0.1-0.3H603c-0.1,0.2-0.2,0.3-0.2,0.5l-0.2,0
			C602.6,26,602.5,26,602.4,26z M603.1,25.3h0.4l-0.2-0.5l-0.1,0.2L603.1,25.3z"/>
		<path class="st3" d="M604.6,26c0.1-0.1,0.2-0.3,0.3-0.5l0.3-0.5c0.1-0.2,0.2-0.3,0.2-0.4c0.1,0,0.2,0,0.2,0c0.1,0,0.1,0,0.2,0
			l0.2,0.4l0.3,0.9l0,0.1l-0.2,0c0,0-0.1,0-0.2,0c0-0.1,0-0.1-0.1-0.3c0-0.1-0.1-0.2-0.1-0.3h-0.6c-0.1,0.2-0.2,0.3-0.2,0.5l-0.2,0
			C604.8,26,604.7,26,604.6,26z M605.3,25.3h0.4l-0.2-0.5l-0.1,0.2L605.3,25.3z"/>
		<path class="st3" d="M606.7,26l0-0.3l0-0.5l0-0.5h-0.1l-0.1,0l-0.1,0l-0.2,0c0-0.1,0-0.2,0-0.2c0.2,0,0.4,0,0.6,0l0.4,0l0.2,0
			c0,0.1,0,0.2,0,0.2c-0.1,0-0.3,0-0.4,0h-0.1l0,0.2l0,0.7l0,0.1c0,0.1,0,0.1,0,0.2l-0.2,0C606.9,26,606.8,26,606.7,26z"/>
		<path class="st3" d="M607.7,26l0-0.4l0-0.5l0-0.4v-0.1c0.2,0,0.4,0,0.5,0l0.2,0l0.3,0l0,0.2l-0.1,0c0,0-0.1,0-0.1,0
			c0,0-0.1,0-0.1,0c-0.1,0-0.2,0-0.2,0c0,0-0.1,0-0.1,0l0,0.4c0.1,0,0.2,0,0.3,0c0.1,0,0.2,0,0.3,0c0,0.1,0,0.1,0,0.2
			c-0.2,0-0.3,0-0.3,0c-0.1,0-0.2,0-0.3,0l0,0.4l0.1,0c0,0,0.1,0,0.2,0l0.2,0l0.2,0c0,0.1,0,0.2,0,0.2c-0.2,0-0.4,0-0.5,0l-0.3,0
			L607.7,26z"/>
		<path class="st3" d="M609,26c0-0.1,0-0.3,0-0.4l0-0.5c0-0.2,0-0.4,0-0.5c0.1,0,0.2,0,0.2,0c0,0,0.1,0,0.2,0
			c0.1,0.1,0.2,0.3,0.3,0.5c0.1,0.2,0.3,0.4,0.3,0.6l0-1c0,0,0-0.1,0-0.1c0.1,0,0.1,0,0.2,0c0,0,0.1,0,0.1,0l0,0.4l0,0.7l0,0.4
			c-0.1,0-0.1,0-0.2,0c0,0-0.1,0-0.2,0c0-0.1-0.1-0.1-0.1-0.1c0,0-0.1-0.1-0.2-0.3c-0.1-0.1-0.1-0.2-0.2-0.4
			c-0.1-0.1-0.1-0.2-0.2-0.3c0,0.1,0,0.3,0,0.6c0,0.1,0,0.3,0,0.4c-0.1,0-0.1,0-0.1,0C609.1,26,609.1,26,609,26z"/>
		<path class="st3" d="M611.9,25.8c0,0.1,0,0.2,0,0.3c-0.1,0-0.2,0-0.2,0c-0.1,0-0.1,0-0.2,0c-0.1,0-0.2,0-0.3,0
			c-0.1,0-0.2-0.1-0.3-0.1c-0.1-0.1-0.1-0.1-0.2-0.2c0-0.1-0.1-0.2-0.1-0.3c0-0.1,0-0.2,0.1-0.3c0-0.1,0.1-0.2,0.2-0.3
			c0.1-0.1,0.2-0.1,0.3-0.2c0.1,0,0.2-0.1,0.3-0.1c0.1,0,0.2,0,0.4,0c0,0.1,0,0.1,0,0.1l0,0.1c-0.1,0-0.1,0-0.2,0
			c-0.1,0-0.1,0-0.2,0c-0.1,0-0.1,0-0.2,0c-0.1,0-0.1,0.1-0.2,0.1c-0.1,0.1-0.1,0.1-0.1,0.2c0,0.1,0,0.1,0,0.2c0,0.1,0,0.2,0.1,0.2
			c0,0.1,0.1,0.1,0.2,0.2c0.1,0,0.2,0.1,0.3,0.1C611.6,25.8,611.8,25.8,611.9,25.8z M611.6,26.1c-0.1,0.1-0.1,0.2-0.1,0.3
			c-0.1,0-0.1,0-0.2,0c0,0-0.1,0-0.2,0l0.1-0.1c0,0,0.1-0.1,0.1-0.2c0,0,0.1,0,0.1,0C611.5,26.1,611.6,26.1,611.6,26.1z"/>
		<path class="st3" d="M611.9,26c0.1-0.1,0.2-0.3,0.3-0.5l0.3-0.5c0.1-0.2,0.2-0.3,0.2-0.4c0.1,0,0.2,0,0.2,0c0.1,0,0.1,0,0.2,0
			l0.2,0.4l0.3,0.9l0,0.1l-0.2,0c0,0-0.1,0-0.2,0c0-0.1,0-0.1-0.1-0.3c0-0.1-0.1-0.2-0.1-0.3h-0.6c-0.1,0.2-0.2,0.3-0.2,0.5l-0.2,0
			C612.1,26,612,26,611.9,26z M612.6,24.4c0-0.1,0-0.1,0-0.1c0,0,0-0.1,0-0.1c0,0,0,0,0.1,0c0,0,0,0,0,0c0,0,0,0,0,0c0,0,0,0,0,0
			c0,0,0,0,0,0l0.1,0c0,0,0,0,0,0c0,0,0,0,0,0c0,0,0,0,0,0c0,0,0,0,0,0c0,0,0,0,0,0c0,0,0,0,0,0c0,0,0.1,0,0.1,0c0,0,0,0,0.1,0
			c0,0,0,0.1,0,0.1c0,0,0,0.1,0,0.1c0,0,0,0-0.1,0c0,0,0,0,0,0c0,0,0,0,0,0c0,0,0,0-0.1,0c0,0-0.1,0-0.1,0c0,0,0,0,0,0c0,0,0,0,0,0
			c0,0,0,0,0,0c0,0,0,0,0,0.1C612.7,24.4,612.7,24.4,612.6,24.4C612.6,24.4,612.6,24.4,612.6,24.4z M612.6,25.3h0.4l-0.2-0.5
			l-0.1,0.2L612.6,25.3z"/>
		<path class="st3" d="M614.6,24.6c0.1,0,0.2,0,0.3,0c0.1,0,0.2,0.1,0.3,0.1c0.1,0.1,0.1,0.1,0.2,0.2c0,0.1,0.1,0.2,0.1,0.3
			c0,0.1,0,0.2-0.1,0.3c0,0.1-0.1,0.2-0.2,0.3c-0.1,0.1-0.2,0.1-0.3,0.2c-0.1,0-0.2,0.1-0.3,0.1c-0.1,0-0.2,0-0.3,0
			c-0.1,0-0.2-0.1-0.3-0.1c-0.1-0.1-0.1-0.1-0.2-0.2c0-0.1,0-0.2,0-0.3c0-0.1,0-0.2,0.1-0.3c0-0.1,0.1-0.2,0.2-0.3
			c0.1-0.1,0.2-0.1,0.3-0.2C614.4,24.6,614.5,24.6,614.6,24.6z M614.6,24.8c-0.1,0-0.2,0-0.3,0.1c-0.1,0-0.1,0.1-0.2,0.2
			c0,0.1-0.1,0.2-0.1,0.3c0,0.1,0,0.2,0.1,0.3c0,0.1,0.1,0.1,0.2,0.2c0.1,0,0.2,0.1,0.3,0.1c0.1,0,0.1,0,0.2,0
			c0.1,0,0.1-0.1,0.2-0.1c0,0,0.1-0.1,0.1-0.2c0-0.1,0-0.1,0-0.2c0-0.1,0-0.1,0-0.2c0-0.1-0.1-0.1-0.1-0.2c0,0-0.1-0.1-0.2-0.1
			C614.7,24.8,614.7,24.8,614.6,24.8z"/>
		<path class="st3" d="M616.1,26l0-0.3l0-0.6l0-0.4c0,0,0-0.1,0-0.1c0,0,0-0.1,0-0.1c0.1,0,0.2,0,0.2,0c0,0,0.1,0,0.2,0
			c0.1,0,0.1,0,0.2,0c0.1,0,0.2,0,0.2,0c0,0,0.1,0,0.1,0.1c0,0,0.1,0.1,0.1,0.1c0,0.1,0,0.1,0,0.2c0,0.1,0,0.2-0.1,0.2
			c0,0.1-0.1,0.1-0.2,0.2c-0.1,0-0.2,0.1-0.3,0.1c0,0-0.1,0-0.2,0c0-0.1,0-0.1-0.1-0.2c0,0,0.1,0,0.1,0c0.1,0,0.1,0,0.2,0
			c0,0,0.1,0,0.1-0.1c0,0,0-0.1,0-0.1c0,0,0-0.1,0-0.1c0,0,0,0,0-0.1c0,0,0,0-0.1,0c0,0-0.1,0-0.1,0c0,0-0.1,0-0.1,0
			c0,0-0.1,0-0.1,0c0,0.1,0,0.3,0,0.4l0,0.4c0,0.1,0,0.2,0,0.3c0,0,0,0.1,0,0.1l-0.2,0C616.3,26,616.2,26,616.1,26z"/>
		<path class="st3" d="M617.4,26c0-0.2,0-0.5,0-0.7c0-0.3,0-0.5,0-0.7c0.1,0,0.2,0,0.2,0c0.1,0,0.1,0,0.2,0c0.1,0,0.1,0,0.2,0
			c0.1,0,0.2,0,0.2,0c0.1,0,0.1,0,0.2,0.1c0.1,0,0.1,0.1,0.1,0.1c0,0,0,0.1,0,0.2c0,0,0,0.1,0,0.1c0,0,0,0.1,0,0.1
			c0,0,0,0.1-0.1,0.1c0,0,0,0-0.1,0.1c0,0-0.1,0-0.1,0c0,0-0.1,0-0.1,0l0.1,0.1c0,0,0.1,0.1,0.1,0.2l0.1,0.2c0,0,0,0,0.1,0.1
			c-0.1,0-0.1,0-0.2,0c0,0-0.1,0-0.2,0l-0.1-0.3c0,0,0-0.1-0.1-0.2l-0.1-0.3c0,0,0-0.1-0.1-0.1c0,0,0.1,0,0.1,0c0.1,0,0.1,0,0.2,0
			c0.1,0,0.1-0.1,0.1-0.1c0,0,0-0.1,0-0.1c0,0,0-0.1,0-0.1c0,0,0,0-0.1-0.1c0,0-0.1,0-0.1,0c0,0-0.1,0-0.1,0c0,0-0.1,0-0.1,0
			c0,0-0.1,0-0.1,0l0,0.4l0,0.8l-0.2,0C617.5,26,617.5,26,617.4,26z"/>
		<path class="st3" d="M618.8,26c0-0.2,0-0.5,0-0.7c0-0.3,0-0.5,0-0.6l0-0.1l0.2,0c0,0,0.1,0,0.2,0c0,0.4,0,0.9-0.1,1.4l-0.2,0
			C618.9,26,618.9,26,618.8,26z"/>
		<path class="st3" d="M619.4,26l0-0.2l0.1-0.8l0-0.4c0.1,0,0.2,0,0.2,0c0,0,0.1,0,0.2,0c0,0.1,0,0.1,0,0.1c0,0,0,0.1,0,0.1
			c0,0.1,0,0.1,0.1,0.2c0,0.1,0.1,0.2,0.1,0.3l0.1,0.3l0.1-0.4l0.2-0.5c0,0,0,0,0-0.1c0,0,0-0.1,0-0.1c0.1,0,0.2,0,0.2,0
			c0,0,0.1,0,0.2,0c0,0.2,0,0.4,0,0.7c0,0.2,0,0.4,0,0.6c0,0.1,0,0.1,0,0.2c-0.1,0-0.1,0-0.1,0c0,0-0.1,0-0.1,0c0-0.1,0-0.1,0-0.2
			l0-0.6c0-0.1,0-0.2,0-0.3l0-0.1l-0.4,1l0,0.1c-0.1,0-0.1,0-0.1,0c0,0-0.1,0-0.2,0l-0.2-0.7c0,0,0-0.1,0-0.1l-0.1-0.2
			c0,0,0,0,0-0.1c0,0,0,0,0-0.1l0,0.1c0,0,0,0.1,0,0.2l0,0.7c0,0,0,0.1,0,0.1l-0.1,0C619.5,26,619.5,26,619.4,26z"/>
		<path class="st3" d="M621.2,26c0.1-0.1,0.2-0.3,0.3-0.5l0.3-0.5c0.1-0.2,0.2-0.3,0.2-0.4c0.1,0,0.2,0,0.2,0c0.1,0,0.1,0,0.2,0
			l0.2,0.4l0.3,0.9l0,0.1l-0.2,0c0,0-0.1,0-0.2,0c0-0.1,0-0.1-0.1-0.3c0-0.1-0.1-0.2-0.1-0.3h-0.6c-0.1,0.2-0.2,0.3-0.2,0.5l-0.2,0
			C621.3,26,621.3,26,621.2,26z M621.9,25.3h0.4l-0.2-0.5L622,25L621.9,25.3z M622,24.4L622,24.4c0-0.1,0.1-0.1,0.1-0.2
			c0,0,0-0.1,0-0.1c0.1,0,0.1,0,0.2,0c0,0,0.1,0,0.2,0c0,0.1-0.1,0.1-0.1,0.1l-0.1,0.1c0,0-0.1,0-0.1,0
			C622.1,24.4,622,24.4,622,24.4z"/>
		<path class="st3" d="M623,26c0-0.2,0-0.5,0-0.7c0-0.3,0-0.5,0-0.7c0.1,0,0.2,0,0.2,0c0.1,0,0.1,0,0.2,0c0.1,0,0.1,0,0.2,0
			c0.1,0,0.2,0,0.2,0c0.1,0,0.1,0,0.2,0.1c0.1,0,0.1,0.1,0.1,0.1c0,0,0,0.1,0,0.2c0,0,0,0.1,0,0.1c0,0,0,0.1,0,0.1
			c0,0,0,0.1-0.1,0.1c0,0,0,0-0.1,0.1c0,0-0.1,0-0.1,0c0,0-0.1,0-0.1,0l0.1,0.1c0,0,0.1,0.1,0.1,0.2l0.1,0.2c0,0,0,0,0.1,0.1
			c-0.1,0-0.1,0-0.2,0c0,0-0.1,0-0.2,0l-0.1-0.3c0,0,0-0.1-0.1-0.2l-0.1-0.3c0,0,0-0.1-0.1-0.1c0,0,0.1,0,0.1,0c0.1,0,0.1,0,0.2,0
			c0.1,0,0.1-0.1,0.1-0.1c0,0,0-0.1,0-0.1c0,0,0-0.1,0-0.1c0,0,0,0-0.1-0.1c0,0-0.1,0-0.1,0c0,0-0.1,0-0.1,0c0,0-0.1,0-0.1,0
			c0,0-0.1,0-0.1,0l0,0.4l0,0.8l-0.2,0C623.1,26,623.1,26,623,26z"/>
		<path class="st3" d="M624.4,26c0-0.2,0-0.5,0-0.7c0-0.3,0-0.5,0-0.6l0-0.1l0.2,0c0,0,0.1,0,0.2,0c0,0.4,0,0.9-0.1,1.4l-0.2,0
			C624.5,26,624.5,26,624.4,26z"/>
		<path class="st3" d="M624.8,26c0.1-0.1,0.2-0.3,0.3-0.5l0.3-0.5c0.1-0.2,0.2-0.3,0.2-0.4c0.1,0,0.2,0,0.2,0c0.1,0,0.1,0,0.2,0
			l0.2,0.4l0.3,0.9l0,0.1l-0.2,0c0,0-0.1,0-0.2,0c0-0.1,0-0.1-0.1-0.3c0-0.1-0.1-0.2-0.1-0.3h-0.6c-0.1,0.2-0.2,0.3-0.2,0.5l-0.2,0
			C625,26,624.9,26,624.8,26z M625.5,25.3h0.4l-0.2-0.5l-0.1,0.2L625.5,25.3z"/>
		<path class="st3" d="M627,26c0.1-0.1,0.2-0.3,0.3-0.5l0.3-0.5c0.1-0.2,0.2-0.3,0.2-0.4c0.1,0,0.2,0,0.2,0c0.1,0,0.1,0,0.2,0
			l0.2,0.4l0.3,0.9l0,0.1l-0.2,0c0,0-0.1,0-0.2,0c0-0.1,0-0.1-0.1-0.3c0-0.1-0.1-0.2-0.1-0.3h-0.6c-0.1,0.2-0.2,0.3-0.2,0.5l-0.2,0
			C627.1,26,627.1,26,627,26z M628.1,24.4c0,0-0.1,0-0.1,0c0,0-0.1,0-0.1,0l-0.1-0.1c0,0-0.1-0.1-0.1-0.1c0.1,0,0.1,0,0.2,0
			c0,0,0.1,0,0.2,0l0,0.1C628,24.3,628,24.3,628.1,24.4L628.1,24.4z M627.7,25.3h0.4l-0.2-0.5l-0.1,0.2L627.7,25.3z"/>
		<path class="st3" d="M629.3,26c0-0.1,0-0.2,0-0.3c0.1,0.1,0.3,0.1,0.4,0.1c0,0,0.1,0,0.1,0c0,0,0.1,0,0.1-0.1c0,0,0-0.1,0-0.1
			c0,0,0,0,0-0.1c0,0,0-0.1-0.1-0.1c0,0-0.1-0.1-0.2-0.2c0,0-0.1-0.1-0.1-0.1c0,0-0.1-0.1-0.1-0.1c0,0,0-0.1,0-0.1c0,0,0-0.1,0-0.1
			c0-0.1,0-0.1,0.1-0.2c0-0.1,0.1-0.1,0.2-0.1c0.1,0,0.2,0,0.3,0c0.1,0,0.2,0,0.3,0c0,0.1,0,0.2,0,0.3c-0.1,0-0.2-0.1-0.3-0.1
			c-0.1,0-0.1,0-0.2,0c0,0-0.1,0.1-0.1,0.1c0,0,0,0,0,0c0,0,0,0,0,0c0,0,0,0,0,0c0,0,0,0,0.1,0.1c0,0,0.1,0,0.1,0.1l0.1,0.1
			c0,0,0.1,0.1,0.1,0.1c0,0,0,0.1,0.1,0.1c0,0,0,0,0,0.1c0,0,0,0,0,0.1c0,0,0,0,0,0.1c0,0.1,0,0.1,0,0.2c0,0.1-0.1,0.1-0.1,0.1
			c-0.1,0-0.1,0.1-0.2,0.1c-0.1,0-0.1,0-0.2,0c0,0-0.1,0-0.2,0C629.5,26,629.4,26,629.3,26z"/>
		<path class="st3" d="M630.3,26c0.1-0.1,0.2-0.3,0.3-0.5l0.3-0.5c0.1-0.2,0.2-0.3,0.2-0.4c0.1,0,0.2,0,0.2,0c0.1,0,0.1,0,0.2,0
			l0.2,0.4l0.3,0.9l0,0.1l-0.2,0c0,0-0.1,0-0.2,0c0-0.1,0-0.1-0.1-0.3c0-0.1-0.1-0.2-0.1-0.3h-0.6c-0.1,0.2-0.2,0.3-0.2,0.5l-0.2,0
			C630.4,26,630.4,26,630.3,26z M631,25.3h0.4l-0.2-0.5l-0.1,0.2L631,25.3z"/>
		<path class="st3" d="M632.2,24.6c0.1,0,0.1,0,0.2,0c0,0,0.1,0,0.2,0l0,0.9c0,0,0,0,0,0c0,0.1,0,0.2,0,0.2c0,0,0.1,0.1,0.1,0.1
			c0.1,0,0.1,0,0.2,0c0,0,0.1,0,0.1,0c0,0,0.1,0,0.1,0c0,0,0,0,0.1,0c0,0,0,0,0-0.1c0,0,0-0.1,0-0.1c0-0.1,0-0.1,0-0.3l0-0.4
			c0-0.1,0-0.2,0-0.4c0.1,0,0.1,0,0.2,0l0.2,0l0,0.5l0,0.4c0,0.1,0,0.2,0,0.2c0,0,0,0.1,0,0.1c0,0,0,0.1-0.1,0.1
			c0,0-0.1,0.1-0.1,0.1c-0.1,0-0.1,0-0.2,0.1c-0.1,0-0.2,0-0.3,0c-0.1,0-0.2,0-0.3,0c-0.1,0-0.1,0-0.2-0.1c-0.1,0-0.1-0.1-0.1-0.1
			c0,0,0-0.1-0.1-0.1c0,0,0-0.1,0-0.2c0,0,0,0,0-0.1c0,0,0-0.1,0-0.1l0-0.1c0,0,0-0.1,0-0.2l0-0.2C632.2,24.7,632.2,24.7,632.2,24.6
			z M632.7,24.4L632.7,24.4c0-0.1,0.1-0.1,0.1-0.2c0,0,0-0.1,0-0.1c0.1,0,0.1,0,0.2,0c0,0,0.1,0,0.2,0c0,0.1-0.1,0.1-0.1,0.1
			l-0.1,0.1c0,0-0.1,0-0.1,0C632.8,24.4,632.8,24.4,632.7,24.4z"/>
		<path class="st3" d="M633.8,26l0-0.4l0-0.5l0-0.5c0,0,0-0.1,0-0.2c0.1,0,0.2,0,0.2,0c0.1,0,0.1,0,0.2,0c0.1,0,0.2,0,0.2,0
			c0.1,0,0.2,0,0.2,0c0.1,0,0.1,0,0.2,0.1c0.1,0,0.1,0.1,0.1,0.1c0,0,0.1,0.1,0.1,0.1c0,0,0,0.1,0.1,0.2c0,0.1,0,0.1,0,0.2
			c0,0.1,0,0.2-0.1,0.3c0,0.1-0.1,0.2-0.2,0.3c-0.1,0.1-0.2,0.1-0.3,0.1c-0.1,0-0.2,0-0.3,0l-0.4,0C633.9,26,633.9,26,633.8,26z
			 M634.1,25.8c0.1,0,0.1,0,0.2,0c0.1,0,0.1,0,0.2,0c0.1,0,0.1,0,0.1,0c0,0,0.1,0,0.1-0.1c0,0,0.1-0.1,0.1-0.1c0,0,0-0.1,0.1-0.2
			c0-0.1,0-0.1,0-0.2c0-0.1,0-0.2-0.1-0.3c0-0.1-0.1-0.1-0.1-0.1c-0.1,0-0.2,0-0.3,0c-0.1,0-0.2,0-0.3,0L634.1,25.8z"/>
		<path class="st3" d="M635.4,26l0-0.4l0-0.5l0-0.4v-0.1c0.2,0,0.4,0,0.5,0l0.2,0l0.3,0l0,0.2l-0.1,0c0,0-0.1,0-0.1,0
			c0,0-0.1,0-0.1,0c-0.1,0-0.2,0-0.2,0c0,0-0.1,0-0.1,0l0,0.4c0.1,0,0.2,0,0.3,0c0.1,0,0.2,0,0.3,0c0,0.1,0,0.1,0,0.2
			c-0.2,0-0.3,0-0.3,0c-0.1,0-0.2,0-0.3,0l0,0.4l0.1,0c0,0,0.1,0,0.2,0l0.2,0l0.2,0c0,0.1,0,0.2,0,0.2c-0.2,0-0.4,0-0.5,0l-0.3,0
			L635.4,26z"/>
		<g>
			<path class="st4" d="M606.7,19c0,0.1-0.1,0.3-0.1,0.6c-0.5,0.1-1,0.1-1.5,0.2c-0.5,0-0.9,0.1-1.2,0.1c-0.4,0-0.8-0.1-1.2-0.2
				c-0.4-0.1-0.7-0.3-1-0.5c-0.3-0.3-0.5-0.5-0.6-0.9c-0.1-0.3-0.2-0.7-0.2-1.1c0-0.4,0.1-0.8,0.2-1.2c0.1-0.4,0.3-0.7,0.6-1
				c0.3-0.3,0.6-0.5,1-0.6c0.4-0.1,0.8-0.2,1.2-0.2c0.4,0,0.7,0.1,1.1,0.2c0.4,0.1,0.7,0.3,0.9,0.5c0.3,0.2,0.4,0.5,0.6,0.9
				c0.1,0.3,0.2,0.7,0.2,1.1c0,0.2,0,0.4,0,0.6c0,0.2-0.1,0.3-0.1,0.5c-0.1,0.2-0.1,0.3-0.2,0.4c-0.1,0.1-0.2,0.3-0.3,0.4
				c-0.1,0.1-0.2,0.2-0.3,0.3c-0.1,0.1-0.2,0.2-0.3,0.2c0.2,0,0.3,0,0.5-0.1c0.1,0,0.2,0,0.3-0.1C606.3,19.1,606.5,19.1,606.7,19z
				 M603.8,14.8c-0.3,0-0.6,0-0.9,0.1c-0.3,0.1-0.5,0.3-0.7,0.5c-0.2,0.2-0.4,0.5-0.5,0.8c-0.1,0.3-0.2,0.6-0.2,1
				c0,0.3,0,0.6,0.1,0.8c0.1,0.3,0.2,0.5,0.4,0.7c0.2,0.2,0.4,0.4,0.7,0.5c0.3,0.1,0.6,0.2,0.9,0.2c0.3,0,0.6-0.1,0.9-0.2
				c0.3-0.1,0.5-0.3,0.7-0.5c0.2-0.2,0.4-0.5,0.5-0.8c0.1-0.3,0.1-0.6,0.1-0.9c0-0.5-0.1-0.9-0.3-1.2c-0.2-0.3-0.4-0.6-0.8-0.7
				C604.6,14.9,604.2,14.8,603.8,14.8z"/>
			<path class="st4" d="M610.8,19.8c-0.1,0-0.2,0-0.3,0c-0.1,0-0.2,0-0.3,0l0-0.8c-0.1,0.1-0.1,0.2-0.2,0.3c0,0.1-0.1,0.1-0.2,0.2
				c-0.1,0.1-0.1,0.1-0.2,0.2c-0.1,0-0.2,0.1-0.3,0.1c-0.1,0-0.2,0.1-0.3,0.1c-0.1,0-0.3,0-0.4,0c-0.3,0-0.6,0-0.8-0.1
				c-0.2-0.1-0.4-0.2-0.5-0.4c-0.1-0.2-0.2-0.4-0.2-0.7c0,0,0-0.1,0-0.2c0-0.1,0-0.3,0-0.4l0.1-1.3l0-0.4c0-0.1,0-0.2,0-0.4l0.4,0
				c0.1,0,0.2,0,0.3,0c0,0.5-0.1,1-0.1,1.5c0,0.6-0.1,0.9-0.1,1.1c0,0.2,0,0.4,0.1,0.6c0.1,0.1,0.2,0.2,0.4,0.3
				c0.2,0.1,0.4,0.1,0.6,0.1c0.2,0,0.4,0,0.6-0.1c0.2-0.1,0.3-0.1,0.4-0.2c0.1-0.1,0.2-0.3,0.3-0.4c0.1-0.1,0.1-0.3,0.1-0.5
				c0-0.2,0-0.4,0.1-0.8c0-0.5,0-1,0-1.5l0.4,0c0.1,0,0.2,0,0.3,0c0,0.5-0.1,1.2-0.1,2.2C610.9,18.5,610.8,19.1,610.8,19.8z"/>
			<path class="st4" d="M611.7,16.4c0-0.1,0-0.3,0.1-0.5c0.3-0.1,0.6-0.1,0.8-0.2c0.2,0,0.5,0,0.7,0c0.2,0,0.5,0,0.7,0.1
				c0.2,0,0.4,0.1,0.5,0.2c0.1,0.1,0.2,0.2,0.3,0.3c0,0.1,0.1,0.3,0.1,0.4c0,0.2,0,0.5,0,0.9c0,0.4,0,0.8-0.1,1.2c0,0.4,0,0.7,0,1
				c-0.1,0-0.3,0-0.3,0c-0.1,0-0.2,0-0.4,0l0.1-1.1l0.1-1.3c-0.1,0.1-0.2,0.1-0.2,0.2c0,0-0.1,0.1-0.2,0.1c-0.1,0-0.1,0-0.2,0.1
				c-0.1,0-0.2,0.1-0.4,0.1c-0.2,0.1-0.3,0.1-0.4,0.1c-0.2,0.1-0.3,0.1-0.4,0.2c-0.1,0.1-0.2,0.1-0.3,0.2c-0.1,0.1-0.1,0.1-0.2,0.2
				c0,0.1-0.1,0.2-0.1,0.3c0,0.1,0,0.3,0.1,0.4s0.2,0.2,0.3,0.2c0.1,0,0.3,0.1,0.5,0.1c0.1,0,0.2,0,0.3,0c0.1,0,0.3-0.1,0.5-0.1
				c0,0.1-0.1,0.3-0.1,0.5c-0.2,0-0.4,0.1-0.5,0.1c-0.1,0-0.2,0-0.3,0c-0.4,0-0.6,0-0.8-0.1c-0.2-0.1-0.4-0.2-0.5-0.4
				c-0.1-0.2-0.2-0.4-0.2-0.6c0-0.1,0-0.2,0.1-0.3c0-0.1,0.1-0.2,0.1-0.3c0.1-0.1,0.1-0.2,0.3-0.2c0.1-0.1,0.2-0.1,0.4-0.2
				c0.1-0.1,0.3-0.1,0.4-0.2c0.2-0.1,0.4-0.1,0.8-0.2c0.1,0,0.2-0.1,0.3-0.1c0.1,0,0.2-0.1,0.2-0.1c0.1,0,0.1-0.1,0.2-0.1
				c0,0,0.1-0.1,0.1-0.1c0-0.1,0.1-0.1,0.1-0.2c0-0.1,0-0.1,0-0.2c0-0.1,0-0.2-0.1-0.3s-0.2-0.2-0.3-0.2c-0.1,0-0.3-0.1-0.5-0.1
				c-0.2,0-0.3,0-0.5,0c-0.2,0-0.3,0.1-0.5,0.1C612.1,16.3,611.9,16.3,611.7,16.4z"/>
			<path class="st4" d="M615.4,19.8c0.1-0.8,0.1-1.8,0.2-2.9c0-0.8,0.1-1.7,0.1-2.5l0.4,0c0.1,0,0.2,0,0.4,0l-0.1,2.3l-0.1,2.4
				l0,0.7c-0.2,0-0.3,0-0.3,0C615.8,19.8,615.6,19.8,615.4,19.8z"/>
			<path class="st4" d="M616.8,19.8l0.1-1l0.1-1.7l0-1.3l0.4,0l0.4,0c0,0.4-0.1,0.8-0.1,1.3c0,0.5,0,0.9-0.1,1.5c0,0.5,0,0.9,0,1.2
				c-0.2,0-0.3,0-0.4,0C617.2,19.8,617,19.8,616.8,19.8z M617,14.9c0-0.2,0-0.4,0-0.6c0.1,0,0.3,0,0.4,0c0.1,0,0.3,0,0.4,0
				c0,0.1,0,0.3,0,0.6c-0.1,0-0.3,0-0.4,0S617.2,14.9,617,14.9z"/>
			<path class="st4" d="M618.1,19.7l0-0.3c0,0,0-0.1,0-0.3c0.4,0.2,0.8,0.3,1.1,0.3c0.2,0,0.3,0,0.5-0.1c0.1,0,0.2-0.1,0.3-0.2
				c0.1-0.1,0.1-0.2,0.1-0.3c0-0.1,0-0.1,0-0.2c0-0.1,0-0.1-0.1-0.2c0-0.1-0.1-0.1-0.2-0.2c-0.1-0.1-0.2-0.2-0.4-0.4
				c-0.2-0.2-0.4-0.3-0.5-0.4c-0.1-0.1-0.2-0.2-0.3-0.3c-0.1-0.1-0.1-0.2-0.2-0.3c0-0.1-0.1-0.2-0.1-0.3c0-0.2,0.1-0.3,0.2-0.5
				c0.1-0.2,0.3-0.3,0.5-0.4c0.2-0.1,0.4-0.1,0.7-0.1c0.3,0,0.6,0,1,0.1c0,0.2,0,0.4,0,0.6c-0.3-0.1-0.6-0.2-0.9-0.2
				c-0.2,0-0.3,0-0.4,0.1c-0.1,0-0.2,0.1-0.3,0.2c-0.1,0.1-0.1,0.2-0.1,0.3c0,0.1,0,0.1,0,0.2c0,0.1,0.1,0.1,0.1,0.2
				c0.1,0.1,0.1,0.1,0.2,0.2c0.1,0.1,0.2,0.2,0.5,0.4c0.2,0.2,0.4,0.3,0.5,0.4c0.1,0.1,0.2,0.2,0.2,0.3c0.1,0.1,0.1,0.2,0.1,0.3
				c0,0.1,0,0.2,0,0.3c0,0.2-0.1,0.4-0.2,0.5c-0.1,0.2-0.3,0.3-0.5,0.4c-0.2,0.1-0.5,0.1-0.7,0.1c-0.1,0-0.2,0-0.4,0
				c-0.2,0-0.3,0-0.4-0.1C618.3,19.8,618.2,19.7,618.1,19.7z"/>
		</g>
		<g>
			<path class="st4" d="M620.7,19.8l0.3-0.6l2.1-3.9l0.2-0.4c0.1-0.1,0.2-0.3,0.3-0.5c0.5,0,0.8,0,1,0c0.4,0,0.7,0,1,0l0.6,1.7
				l1.2,3.2l0.2,0.6c-0.5,0-0.7,0-0.8,0c-0.2,0-0.5,0-1,0c-0.1-0.4-0.3-0.9-0.5-1.5h-2c-0.2,0.5-0.5,1-0.7,1.5c-0.5,0-0.8,0-0.9,0
				C621.5,19.8,621.1,19.8,620.7,19.8z M623.8,17.1h1.2c-0.3-0.9-0.5-1.4-0.5-1.5c-0.2,0.4-0.3,0.7-0.4,1L623.8,17.1z"/>
			<path class="st4" d="M627.6,19.8l0.1-1l0.1-2l0-1.4c0-0.2,0-0.3,0-0.5c0-0.1,0-0.3,0-0.6c0.3,0,0.6,0,0.8,0c0.2,0,0.5,0,0.8,0
				s0.7,0,0.9,0c0.4,0,0.6,0,0.8,0.1c0.2,0,0.3,0.1,0.5,0.2c0.1,0.1,0.3,0.2,0.3,0.3c0.1,0.1,0.2,0.3,0.2,0.4c0,0.2,0.1,0.3,0.1,0.5
				c0,0.4-0.1,0.7-0.3,1c-0.2,0.3-0.4,0.5-0.7,0.7c-0.3,0.1-0.7,0.2-1.1,0.2c-0.1,0-0.3,0-0.5,0c0-0.1-0.1-0.3-0.1-0.5
				c-0.1-0.2-0.1-0.4-0.1-0.5c0.1,0,0.2,0,0.4,0c0.3,0,0.5-0.1,0.6-0.2s0.2-0.3,0.2-0.5c0-0.1,0-0.2,0-0.2c0-0.1-0.1-0.1-0.1-0.2
				c-0.1,0-0.1-0.1-0.2-0.1c-0.1,0-0.2,0-0.3,0c-0.1,0-0.2,0-0.3,0l-0.3,0c0,0.5-0.1,1.1-0.1,1.7c0,1.1-0.1,1.8-0.1,2v0.5l-0.8,0
				C628.3,19.8,628.1,19.8,627.6,19.8z"/>
			<path class="st4" d="M632.3,19.7c0-0.6-0.1-1-0.1-1.4c0.3,0.1,0.6,0.2,0.8,0.3c0.2,0.1,0.4,0.1,0.6,0.1c0.2,0,0.4,0,0.6-0.1
				c0.1-0.1,0.2-0.2,0.2-0.3c0,0,0-0.1,0-0.1c0,0,0-0.1-0.1-0.1c0-0.1-0.1-0.1-0.2-0.2l-0.7-0.7c-0.2-0.1-0.3-0.3-0.4-0.3
				c-0.1-0.1-0.2-0.3-0.3-0.4c-0.1-0.1-0.1-0.2-0.2-0.4c0-0.1-0.1-0.2-0.1-0.4c0-0.2,0-0.3,0.1-0.5c0.1-0.2,0.1-0.3,0.3-0.4
				c0.1-0.1,0.3-0.3,0.5-0.3c0.2-0.1,0.4-0.2,0.6-0.2c0.2,0,0.4-0.1,0.7-0.1c0.4,0,0.9,0.1,1.5,0.2c0,0.2,0,0.3,0,0.5
				c0,0.2,0,0.4,0.1,0.8c-0.2-0.1-0.5-0.2-0.7-0.2c-0.2,0-0.4-0.1-0.5-0.1c-0.2,0-0.4,0-0.5,0.1c-0.1,0.1-0.2,0.2-0.2,0.3
				c0,0.1,0,0.1,0,0.2c0,0.1,0.1,0.1,0.1,0.2c0.1,0.1,0.1,0.1,0.2,0.2c0.1,0.1,0.2,0.2,0.4,0.4l0.3,0.2c0.1,0.1,0.2,0.2,0.3,0.2
				c0.1,0.1,0.2,0.2,0.3,0.3c0.1,0.1,0.1,0.2,0.2,0.3c0,0.1,0.1,0.2,0.1,0.2c0,0.1,0,0.2,0,0.3c0,0.2-0.1,0.5-0.2,0.7
				c-0.1,0.2-0.3,0.4-0.5,0.5c-0.2,0.1-0.4,0.2-0.7,0.3c-0.2,0.1-0.5,0.1-0.8,0.1C633.5,19.9,633,19.8,632.3,19.7z"/>
		</g>
		<g>
			<g>
				<path class="st4" d="M596.1,21.1c-0.3,0.5-1,0.7-1.5,0.3c-0.5-0.3-0.7-1-0.3-1.5c0.3-0.5,1-0.7,1.5-0.3
					C596.2,20,596.4,20.6,596.1,21.1z"/>
			</g>
			<path class="st4" d="M596.1,18c-1.4,0.7-2.6,1.8-3.5,3.1c-0.5-0.3-1.1-0.6-1.6-0.9c0.9-1.7,2.2-3.2,3.9-4.3
				C595.3,16.6,595.7,17.3,596.1,18z"/>
			<path class="st5" d="M587.4,15.7c1.4-0.7,2.6-1.8,3.5-3.1c0.5,0.3,1.1,0.6,1.6,0.9c-0.9,1.7-2.2,3.2-3.9,4.3
				C588.2,17.1,587.8,16.4,587.4,15.7z"/>
			<g>
				<path class="st5" d="M587.4,12.5c0.3-0.5,1-0.7,1.5-0.3c0.5,0.3,0.7,1,0.3,1.5c-0.3,0.5-1,0.7-1.5,0.3
					C587.3,13.7,587.1,13,587.4,12.5z"/>
			</g>
			<g>
				<path class="st6" d="M587.4,21.1c0.3,0.5,1,0.7,1.5,0.3c0.5-0.3,0.7-1,0.3-1.5c-0.3-0.5-1-0.7-1.5-0.3
					C587.2,19.9,587.1,20.6,587.4,21.1z"/>
			</g>
			<g>
				<path class="st7" d="M596.1,12.6c-0.3-0.5-1-0.7-1.5-0.3c-0.5,0.3-0.7,1-0.3,1.5c0.3,0.5,1,0.7,1.5,0.3
					C596.3,13.8,596.5,13.1,596.1,12.6z"/>
			</g>
			<path class="st7" d="M596.2,15.8c-1.4-0.7-2.6-1.8-3.5-3.1c-0.5,0.3-1.1,0.6-1.6,0.9c0.9,1.7,2.2,3.2,3.9,4.3
				C595.4,17.2,595.8,16.5,596.2,15.8z"/>
			<g>
				<path class="st4" d="M591.8,24.5c-2.1,0-4-0.8-5.5-2.3c-3-3-3-7.9,0-10.9c1.5-1.5,3.4-2.3,5.5-2.3c2.1,0,4,0.8,5.5,2.3l0,0l0,0
					c1.5,1.5,2.3,3.4,2.3,5.5s-0.8,4-2.3,5.5C595.8,23.7,593.8,24.5,591.8,24.5z M591.8,10.2c-1.8,0-3.4,0.7-4.7,1.9
					c-2.6,2.6-2.6,6.8,0,9.3c1.2,1.2,2.9,1.9,4.7,1.9c1.8,0,3.4-0.7,4.7-1.9c1.2-1.2,1.9-2.9,1.9-4.7c0-1.8-0.7-3.4-1.9-4.7l0,0
					C595.2,10.9,593.5,10.2,591.8,10.2z"/>
			</g>
			<path class="st6" d="M587.3,17.9c1.4,0.7,2.6,1.8,3.5,3.1c0.5-0.3,1.1-0.6,1.6-0.9c-0.9-1.7-2.2-3.2-3.9-4.3
				C588.1,16.5,587.7,17.2,587.3,17.9z"/>
			<path class="st5" d="M589.2,14.5c-0.6,0.5-1.2,0.9-1.8,1.2c0.4,0.7,0.8,1.4,1.2,2.1c0.8-0.5,1.5-1.1,2.1-1.8
				C590.3,15.5,589.7,15,589.2,14.5z"/>
		</g>
	</g>
	<g>
		<rect x="647.2" y="8.4" class="st2" width="20.4" height="10.2"/>
		<g>
			<g>
				<g>
					<g>
						<path class="st8" d="M650,24.9v-3.5h1.3v3.4c0,0.9,0.4,1.3,1.1,1.3c0.7,0,1.1-0.4,1.1-1.3v-3.4h1.3v3.5c0,1.6-0.9,2.3-2.4,2.3
							C651,27.2,650,26.5,650,24.9z"/>
					</g>
				</g>
				<g>
					<g>
						<path class="st8" d="M658.7,27.1v-2.5c0-0.6-0.2-0.9-0.7-0.9c-0.5,0-0.8,0.4-0.8,1.2v2.3H656v-3.3c0-0.4,0-0.8,0-1h1.2
							c0,0.2,0.1,0.6,0.1,0.9c0.2-0.7,0.8-1,1.4-1c1.1,0,1.4,0.7,1.4,1.5v2.9H658.7z"/>
					</g>
				</g>
				<g>
					<g>
						<path class="st8" d="M663.3,27.1h-2.2v-5.7h2c1.3,0,2.1,0.5,2.1,1.4c0,0.6-0.3,1.1-1,1.2c0.9,0.1,1.3,0.6,1.3,1.4
							C665.5,26.6,664.6,27.1,663.3,27.1z M663,22.3h-0.6v1.3h0.6c0.6,0,0.9-0.2,0.9-0.7C663.9,22.5,663.6,22.3,663,22.3z
							 M663.1,24.6h-0.7v1.5h0.8c0.6,0,1-0.2,1-0.8C664.2,24.8,663.7,24.6,663.1,24.6z"/>
					</g>
				</g>
			</g>
		</g>
		<g>
			<g>
				<g>
					<path class="st9" d="M664.5,12.1c-1,0.7-2.2,1.4-3.4,1.9c-0.6,0.3-1.2,0.4-1.9,0.5c-0.5,0.1-1,0.1-1.5,0.1v4h9.9V9.8
						L664.5,12.1L664.5,12.1z"/>
				</g>
				<g>
					<path class="st9" d="M650.3,12.1c1,0.7,2.2,1.4,3.4,1.9c0.6,0.3,1.2,0.4,1.9,0.5c0.5,0.1,1,0.1,1.5,0.1v4h-9.9V9.8L650.3,12.1
						L650.3,12.1z"/>
				</g>
				<g>
					<path class="st8" d="M657.7,8.4V14c0.5,0,0.9,0,1.4-0.1l0,0c0.6-0.1,1.2-0.2,1.8-0.5c1.2-0.5,2.3-1.1,3.3-1.9v0l3.5-2.5V8.4
						H657.7z"/>
				</g>
				<g>
					<path class="st8" d="M657.1,8.4V14c-0.5,0-0.9,0-1.4-0.1h0c-0.6-0.1-1.2-0.2-1.8-0.5c-1.2-0.5-2.3-1.1-3.3-1.9v0l-3.5-2.5V8.4
						H657.1z"/>
				</g>
			</g>
		</g>
	</g>
	<g>
		<path class="st10" d="M835.6,20.9c-1.3,0-2.2-0.9-2.2-2v-3.8h1.7v3.9c0,0.5,0.4,0.9,1,0.9c0.5,0,1-0.4,1-0.9v-3.9h0.8v3.8
			C837.8,20.1,836.9,20.9,835.6,20.9 M830.9,18.7l-1-0.3c-0.6-0.2-1.1-0.9-1.1-1.6c0-0.9,0.7-1.7,1.7-1.7h2.1v0.7H831
			c-0.3,0-0.5,0.2-0.5,0.5c0,0.2,0.1,0.4,0.3,0.5l1,0.3c0.7,0.2,1,0.9,1,1.7c0,1-0.8,1.8-1.8,1.8h-2.2v-0.8h1.9
			c0.3,0,0.6-0.3,0.6-0.6C831.3,19,831.1,18.8,830.9,18.7 M840.5,18.7l-1-0.3c-0.7-0.2-1.1-0.9-1.1-1.6c0-0.9,0.7-1.7,1.7-1.7h2.1
			v0.7h-1.4c-0.3,0-0.5,0.2-0.5,0.5c0,0.2,0.1,0.4,0.3,0.5l1,0.3c0.7,0.2,1.1,0.9,1.1,1.7c0,1-0.8,1.8-1.8,1.8h-2.2v-0.8h1.9
			c0.3,0,0.6-0.3,0.6-0.6C840.9,19,840.7,18.8,840.5,18.7"/>
		<path class="st10" d="M854.7,20.7h0.7V25c-0.1-0.4-0.3-3-0.3-3.8C855,21,854.7,20.7,854.7,20.7 M849.7,16.2L849.7,16.2l-0.7-0.7
			c-0.9,0-4-0.3-5-0.5v5.4c4.9,0.5,7.4,0.6,10.3,0.5h0L849.7,16.2z M849.8,14.7h5.5V9.4h-5.5V14.7z M845.5,15c0.4,0,3.6,0.3,3.8,0.3
			l5.1,5.1h6.5V15H845.5z M854.7,21.3c0,0-2.9,0.2-5.4,0c0,3,0.4,4.6,0.5,4.9h5.4C855,24.5,854.8,22,854.7,21.3"/>
	</g>
	<g>
		<path class="st11" d="M706.3,19.6h1.4v-0.3h-0.9l0.9-1.2v-0.3h-1.3v0.3h0.9l-0.9,1.2V19.6L706.3,19.6z M705.7,17.8v1
			c0,0.3,0,0.6-0.4,0.6c-0.4,0-0.4-0.3-0.4-0.6v-1h-0.4v1.2c0,0.5,0.4,0.7,0.8,0.7c0.4,0,0.8-0.2,0.8-0.7v-1.2H705.7L705.7,17.8z
			 M703.1,18.9h0.4c0.1,0,0.2,0.1,0.2,0.2c0,0.2,0,0.3,0.1,0.5h0.4c-0.1-0.1-0.1-0.3-0.1-0.4c0-0.3,0-0.4-0.3-0.5v0
			c0.2,0,0.4-0.2,0.4-0.4c0-0.4-0.3-0.5-0.6-0.5h-0.8v1.8h0.4V18.9L703.1,18.9z M703.1,18.1h0.3c0.2,0,0.3,0.1,0.3,0.2
			c0,0.2-0.1,0.2-0.3,0.3h-0.3V18.1L703.1,18.1z M702.5,18.3c0-0.5-0.3-0.6-0.8-0.6c-0.5,0-0.8,0.4-0.8,1c0,0.5,0.2,1,0.8,1
			c0.4,0,0.8-0.2,0.8-0.6h-0.4c0,0.2-0.1,0.4-0.4,0.4c-0.3,0-0.4-0.4-0.4-0.7c0-0.3,0.1-0.7,0.4-0.7c0.2,0,0.4,0.2,0.4,0.3H702.5
			L702.5,18.3z M699.9,18c0.4,0,0.5,0.4,0.5,0.7c0,0.3-0.1,0.7-0.5,0.7c-0.4,0-0.5-0.4-0.5-0.7C699.4,18.4,699.5,18,699.9,18
			L699.9,18z M699.9,19.6c0.6,0,0.9-0.4,0.9-1c0-0.5-0.3-1-0.9-1c-0.6,0-0.9,0.4-0.9,1C699,19.2,699.3,19.6,699.9,19.6L699.9,19.6z
			 M698.8,17.8h-0.4v1.8h0.4V17.8L698.8,17.8z M697.4,19.6v-0.8h0.7v-0.3h-0.7v-0.4h0.8v-0.3H697v1.8H697.4L697.4,19.6z"/>
		<path class="st11" d="M704.8,26.7c0-0.1,0-0.2,0.2-0.2c0.1,0,0.2,0.1,0.2,0.2v0.1c-0.2,0-0.3,0-0.5,0.1c-0.2,0.1-0.3,0.3-0.3,0.4
			c0,0.2,0.2,0.4,0.4,0.4c0.2,0,0.3-0.1,0.4-0.2h0c0,0.1,0,0.1,0,0.2h0.3c0,0,0-0.1,0-0.1v-0.7c0-0.4-0.3-0.5-0.5-0.5
			c-0.1,0-0.3,0-0.4,0.1c-0.1,0.1-0.2,0.2-0.2,0.3H704.8L704.8,26.7z M705.2,27c0,0.2,0,0.4-0.2,0.4c-0.1,0-0.2-0.1-0.2-0.2
			C704.8,27,705,27,705.2,27L705.2,27z M704.1,25.8h-0.4v0.3h0.4V25.8L704.1,25.8z M703.7,25.8h0.4H703.7z M704.1,26.3h-0.4v1.3h0.4
			V26.3L704.1,26.3z M703.7,26.3h0.4H703.7z M703.4,25.8H703v1.8h0.4V25.8L703.4,25.8z M703,25.8h0.4H703z M702.3,27.6h0.4v-1.3
			h-0.4V27.6L702.3,27.6z M702.7,27.6h-0.4H702.7z M702.6,25.8l-0.2,0.4h0.2l0.3-0.4H702.6L702.6,25.8z M702,26.7
			c0-0.3-0.2-0.4-0.5-0.4c-0.2,0-0.5,0.1-0.5,0.4c0,0.3,0.2,0.4,0.5,0.4c0.1,0,0.3,0.1,0.3,0.2c0,0.1-0.1,0.1-0.2,0.1
			c-0.1,0-0.2-0.1-0.2-0.2H701c0,0.3,0.3,0.4,0.6,0.4c0.2,0,0.6-0.1,0.6-0.4c0-0.5-0.7-0.4-0.7-0.6c0-0.1,0-0.1,0.2-0.1
			c0.1,0,0.2,0,0.2,0.1H702L702,26.7z M700,26.7c0-0.1,0-0.2,0.2-0.2c0.1,0,0.2,0.1,0.2,0.2v0.1c-0.2,0-0.3,0-0.5,0.1
			c-0.2,0.1-0.3,0.3-0.3,0.4c0,0.2,0.2,0.4,0.4,0.4c0.2,0,0.3-0.1,0.4-0.2h0c0,0.1,0,0.1,0,0.2h0.3c0,0,0-0.1,0-0.1v-0.7
			c0-0.4-0.3-0.5-0.5-0.5c-0.1,0-0.3,0-0.4,0.1c-0.1,0.1-0.2,0.2-0.2,0.3H700L700,26.7z M700.4,27c0,0.2,0,0.4-0.2,0.4
			c-0.1,0-0.2-0.1-0.2-0.2C699.9,27,700.2,27,700.4,27L700.4,27z M698.6,26.3c0,0.1,0,0.2,0,0.3l0,1h0.4V27c0-0.1,0-0.2,0.1-0.2
			c0-0.1,0.1-0.1,0.2-0.1h0.2v-0.3c-0.2,0-0.4,0-0.4,0.2h0l0-0.2H698.6L698.6,26.3z M697.7,27.6c0.3,0,0.7-0.1,0.7-0.5
			c0-0.3-0.2-0.4-0.4-0.5v0c0.2-0.1,0.3-0.2,0.3-0.4c0-0.4-0.3-0.5-0.7-0.5H697v1.8H697.7L697.7,27.6z M697.4,26.5v-0.4h0.3
			c0.2,0,0.3,0.1,0.3,0.2c0,0.1-0.1,0.2-0.3,0.2H697.4L697.4,26.5z M697.4,27.3v-0.5h0.3c0.2,0,0.3,0,0.3,0.2c0,0.2-0.1,0.2-0.3,0.2
			H697.4L697.4,27.3z"/>
		<path class="st11" d="M720,10.4c0-0.2,0.1-0.4,0.3-0.4c0.2,0,0.3,0.2,0.3,0.4H720L720,10.4z M720.9,10.6v-0.1
			c0-0.4-0.2-0.6-0.6-0.6c-0.4,0-0.6,0.3-0.6,0.7c0,0.4,0.2,0.7,0.6,0.7c0.3,0,0.5-0.1,0.6-0.4h-0.3c0,0.2-0.1,0.3-0.3,0.3
			c-0.2,0-0.3-0.2-0.3-0.5H720.9L720.9,10.6z M719.2,10.1L719.2,10.1c-0.1-0.2-0.2-0.2-0.4-0.2c-0.4,0-0.6,0.3-0.6,0.7
			c0,0.3,0.2,0.7,0.5,0.7c0.2,0,0.4-0.1,0.4-0.2h0v0l0,0.2h0.2c0-0.1,0-0.2,0-0.2V9.3h-0.2V10.1L719.2,10.1z M718.5,10.5
			c0-0.2,0.1-0.5,0.4-0.5c0.3,0,0.4,0.3,0.4,0.5c0,0.2-0.1,0.5-0.4,0.5C718.6,11,718.5,10.8,718.5,10.5L718.5,10.5z M717.6,10.6
			c0,0,0,0.2,0,0.3c0,0.1-0.2,0.2-0.3,0.2c-0.2,0-0.3-0.2-0.3-0.4V9.9h-0.2v0.9c0,0.3,0.2,0.5,0.4,0.5c0.2,0,0.3-0.1,0.4-0.2h0v0.2
			h0.2V9.9h-0.2V10.6L717.6,10.6z M717.4,9.3l-0.2,0.4h0.2l0.3-0.4H717.4L717.4,9.3z M715.8,10.4c-0.3,0-0.6,0.1-0.6,0.5
			c0,0.3,0.2,0.4,0.5,0.4c0.2,0,0.3-0.1,0.4-0.2h0c0,0.1,0,0.1,0,0.2c0,0,0,0,0.1,0h0.2c0-0.1,0-0.2,0-0.3v-0.6
			c0-0.4-0.3-0.4-0.5-0.4c-0.3,0-0.5,0.1-0.5,0.4h0.3c0-0.1,0.1-0.2,0.2-0.2c0.3,0,0.3,0.1,0.3,0.4H715.8L715.8,10.4z M716.1,10.6
			c0,0.2,0,0.5-0.3,0.5c-0.1,0-0.3-0.1-0.3-0.2c0-0.2,0.2-0.2,0.3-0.2H716.1L716.1,10.6z M713.5,10.6c0,0.4,0.3,0.6,0.7,0.6
			c0.4,0,0.7-0.1,0.7-0.6c0-0.5-0.5-0.5-0.8-0.6c-0.2-0.1-0.3-0.1-0.3-0.3c0-0.2,0.2-0.3,0.4-0.3c0.2,0,0.4,0.1,0.4,0.3h0.3
			c0-0.4-0.3-0.5-0.6-0.5c-0.3,0-0.7,0.1-0.7,0.5c0,0.4,0.5,0.5,0.8,0.6c0.2,0,0.3,0.1,0.3,0.3c0,0.3-0.3,0.3-0.5,0.3
			c-0.2,0-0.4-0.1-0.4-0.4H713.5L713.5,10.6z M712,10.4c-0.3,0-0.6,0.1-0.6,0.5c0,0.3,0.2,0.4,0.4,0.4c0.2,0,0.3-0.1,0.4-0.2h0
			c0,0.1,0,0.1,0,0.2c0,0,0,0,0.1,0h0.2c0-0.1,0-0.2,0-0.3v-0.6c0-0.4-0.3-0.4-0.5-0.4c-0.3,0-0.5,0.1-0.5,0.4h0.3
			c0-0.1,0.1-0.2,0.2-0.2c0.3,0,0.3,0.1,0.3,0.4H712L712,10.4z M712.2,10.6c0,0.2,0,0.5-0.3,0.5c-0.1,0-0.3-0.1-0.3-0.2
			c0-0.2,0.2-0.2,0.3-0.2H712.2L712.2,10.6z M710.8,10.1L710.8,10.1c-0.1-0.2-0.2-0.2-0.4-0.2c-0.4,0-0.6,0.3-0.6,0.7
			c0,0.3,0.2,0.7,0.5,0.7c0.2,0,0.4-0.1,0.4-0.2h0v0l0,0.2h0.2c0-0.1,0-0.2,0-0.2V9.3h-0.2V10.1L710.8,10.1z M710.1,10.5
			c0-0.2,0.1-0.5,0.4-0.5c0.3,0,0.4,0.3,0.4,0.5c0,0.2-0.1,0.5-0.4,0.5C710.2,11,710.1,10.8,710.1,10.5L710.1,10.5z M707.8,10.5
			c0-0.3,0.1-0.5,0.4-0.5c0.3,0,0.4,0.2,0.4,0.5c0,0.3-0.1,0.5-0.4,0.5C707.9,11,707.8,10.8,707.8,10.5L707.8,10.5z M708.2,9.9
			c-0.4,0-0.6,0.3-0.6,0.7c0,0.4,0.2,0.7,0.6,0.7c0.4,0,0.6-0.3,0.6-0.7C708.8,10.1,708.6,9.9,708.2,9.9L708.2,9.9z M706.9,9.6h0.3
			V9.3h-0.3V9.6L706.9,9.6z M706.9,11.2h0.2V9.9h-0.2V11.2L706.9,11.2z M707.2,11.2h-0.2H707.2z M706.2,10.5c0-0.3,0.1-0.4,0.4-0.4
			c0,0,0.1,0,0.1,0V9.9c0,0-0.1,0-0.1,0c-0.2,0-0.3,0.1-0.4,0.3h0V9.9h-0.2v1.3h0.2V10.5L706.2,10.5z M704.7,10.4
			c0-0.2,0.1-0.4,0.3-0.4c0.2,0,0.3,0.2,0.3,0.4H704.7L704.7,10.4z M705.6,10.6v-0.1c0-0.4-0.2-0.6-0.6-0.6c-0.4,0-0.6,0.3-0.6,0.7
			c0,0.4,0.2,0.7,0.6,0.7c0.3,0,0.5-0.1,0.6-0.4h-0.3c0,0.2-0.1,0.3-0.3,0.3c-0.2,0-0.3-0.2-0.3-0.5H705.6L705.6,10.6z M705.1,9.3
			l-0.2,0.4h0.2l0.3-0.4H705.1L705.1,9.3z M703.5,9.9v0.2l0.2,0v0.8c0,0.2,0,0.2,0.1,0.2c0,0.1,0.1,0.1,0.1,0.1c0.1,0,0.1,0,0.2,0
			c0.1,0,0.1,0,0.2,0V11c0,0-0.1,0-0.1,0c-0.1,0-0.2,0-0.2-0.1v-0.8l0.3,0V9.9l-0.3,0V9.5l-0.2,0.1v0.3L703.5,9.9L703.5,9.9z
			 M702.3,10.2c0,0.5,0.8,0.3,0.8,0.6c0,0.2-0.1,0.2-0.3,0.2c-0.1,0-0.3-0.1-0.3-0.2h-0.3c0,0.3,0.2,0.4,0.5,0.4
			c0.3,0,0.6-0.1,0.6-0.4c0-0.3-0.3-0.3-0.5-0.4c-0.1,0-0.3,0-0.3-0.2c0-0.1,0.1-0.2,0.2-0.2c0.1,0,0.3,0.1,0.3,0.2h0.3
			c0-0.3-0.3-0.4-0.5-0.4C702.6,9.9,702.3,10,702.3,10.2L702.3,10.2z M701.7,9.6h0.3V9.3h-0.3V9.6L701.7,9.6z M701.7,11.2h0.2V9.9
			h-0.2V11.2L701.7,11.2z M701.9,11.2h-0.2H701.9z M700.3,9.9h-0.2v1.3h0.2v-0.7c0-0.3,0.1-0.3,0.1-0.3c0.1-0.1,0.2-0.1,0.2-0.1
			c0.2,0,0.3,0.1,0.3,0.3v0.8h0.2v-0.9c0-0.4-0.4-0.4-0.5-0.4c-0.1,0-0.3,0.1-0.4,0.2h0V9.9L700.3,9.9z M699.4,9.6h0.3V9.3h-0.3V9.6
			L699.4,9.6z M699.4,11.2h0.2V9.9h-0.2V11.2L699.4,11.2z M699.6,11.2h-0.2H699.6z M698.7,11.2h0.3V9.3h-0.4l-0.5,1.5h0l-0.5-1.5
			H697v1.8h0.3V9.5h0l0.6,1.7h0.2l0.6-1.7h0V11.2L698.7,11.2z"/>
		<path class="st11" d="M729,22l-0.7,0.7V23h1.2v-0.3h-0.7l0.7-0.7v-0.3h-1.1V22H729L729,22z M727.6,23h0.5c0-0.1,0-0.2,0-0.3v-1
			h-0.5v0.7c0,0,0,0.3-0.2,0.3c-0.2,0-0.2-0.1-0.2-0.3v-0.8h-0.5v0.9c0,0.3,0.2,0.5,0.5,0.5c0.2,0,0.3-0.1,0.4-0.2L727.6,23
			L727.6,23z M726,21.7h-0.5c0,0.1,0,0.2,0,0.3v1h0.5v-0.5c0-0.2,0.1-0.4,0.3-0.4c0,0,0.1,0,0.1,0v-0.4c-0.2,0-0.4,0.1-0.4,0.3h0
			L726,21.7L726,21.7z M725.3,21.8c0-0.5-0.4-0.6-0.9-0.6c-0.6,0-0.9,0.3-0.9,1c0,0.6,0.3,1,0.9,1c0.4,0,0.9-0.2,0.9-0.6h-0.5
			c0,0.2-0.1,0.3-0.3,0.3c-0.3,0-0.3-0.3-0.3-0.6c0-0.3,0.1-0.6,0.3-0.6c0.2,0,0.3,0.1,0.3,0.3H725.3L725.3,21.8z M721.7,21.7
			c-0.4,0-0.7,0.2-0.7,0.7c0,0.5,0.3,0.7,0.7,0.7c0.4,0,0.7-0.2,0.7-0.7C722.4,21.9,722.1,21.7,721.7,21.7L721.7,21.7z M721.4,22.4
			c0-0.2,0-0.4,0.2-0.4c0.2,0,0.3,0.2,0.3,0.4c0,0.2,0,0.4-0.3,0.4C721.5,22.8,721.4,22.6,721.4,22.4L721.4,22.4z M720,22
			c0.2,0,0.2,0.2,0.2,0.4c0,0.2,0,0.4-0.2,0.4c-0.2,0-0.2-0.2-0.2-0.4C719.7,22.2,719.7,22,720,22L720,22z M720.2,23h0.5v-1.8h-0.5
			v0.7h0c-0.1-0.1-0.3-0.2-0.4-0.2c-0.4,0-0.6,0.3-0.6,0.7c0,0.3,0.2,0.7,0.5,0.7c0.2,0,0.4-0.1,0.4-0.2h0L720.2,23L720.2,23z
			 M718.5,23h0.5v-1.8h-0.5V23L718.5,23z M718.9,23h-0.5H718.9z M718.1,23c0-0.2,0-0.2,0-0.3v-0.7c0-0.3-0.3-0.4-0.6-0.4
			c-0.1,0-0.3,0-0.4,0.1c-0.1,0.1-0.2,0.2-0.2,0.3h0.5c0-0.1,0-0.2,0.2-0.2c0.2,0,0.2,0.2,0.2,0.3h-0.2c-0.4,0-0.7,0.1-0.7,0.4
			c0,0.3,0.2,0.4,0.5,0.4c0.2,0,0.4-0.1,0.4-0.2h0c0,0.1,0,0.1,0,0.2H718.1L718.1,23z M717.3,22.6c0-0.1,0.1-0.1,0.1-0.2
			c0.1,0,0.2,0,0.3,0c0,0.2,0,0.4-0.2,0.4C717.3,22.8,717.3,22.7,717.3,22.6L717.3,22.6z M715.2,23l0.3-0.9h0l0.2,0.9h0.5l0.4-1.3
			h-0.4l-0.2,0.9h0l-0.2-0.9h-0.5l-0.2,0.9h0l-0.2-0.9h-0.5l0.4,1.3H715.2L715.2,23z M714.2,22.1c0-0.4-0.3-0.4-0.6-0.4
			c-0.3,0-0.6,0.1-0.6,0.4c0,0.5,0.8,0.3,0.8,0.6c0,0.1-0.1,0.1-0.2,0.1c0,0-0.1,0-0.1-0.1c0,0,0-0.1,0-0.1H713
			c0,0.4,0.3,0.5,0.6,0.5c0.3,0,0.6-0.1,0.6-0.4c0-0.2-0.1-0.3-0.3-0.4c-0.3-0.1-0.5-0.1-0.5-0.2c0-0.1,0-0.1,0.1-0.1
			c0.1,0,0.1,0,0.1,0c0,0,0,0.1,0,0.1H714.2L714.2,22.1z M711.8,23.1c0.6,0,1-0.4,1-1c0-0.6-0.3-1-1-1c-0.6,0-1,0.4-1,1
			C710.9,22.7,711.2,23.1,711.8,23.1L711.8,23.1z M712.2,22.1c0,0.3-0.1,0.6-0.4,0.6c-0.3,0-0.4-0.3-0.4-0.6c0-0.3,0.1-0.6,0.4-0.6
			C712.2,21.5,712.2,21.8,712.2,22.1L712.2,22.1z M709,21.7c-0.4,0-0.7,0.2-0.7,0.7c0,0.5,0.3,0.7,0.7,0.7c0.4,0,0.7-0.2,0.7-0.7
			C709.8,21.9,709.4,21.7,709,21.7L709,21.7z M708.8,22.4c0-0.2,0-0.4,0.2-0.4c0.2,0,0.2,0.2,0.2,0.4c0,0.2,0,0.4-0.2,0.4
			C708.8,22.8,708.8,22.6,708.8,22.4L708.8,22.4z M708.1,23c0-0.2,0-0.2,0-0.3v-0.7c0-0.3-0.3-0.4-0.6-0.4c-0.1,0-0.3,0-0.4,0.1
			c-0.1,0.1-0.2,0.2-0.2,0.3h0.5c0-0.1,0-0.2,0.2-0.2c0.2,0,0.2,0.2,0.2,0.3h-0.2c-0.4,0-0.7,0.1-0.7,0.4c0,0.3,0.2,0.4,0.5,0.4
			c0.2,0,0.3-0.1,0.4-0.2h0c0,0.1,0,0.1,0,0.2H708.1L708.1,23z M707.2,22.6c0-0.1,0.1-0.1,0.1-0.2c0.1,0,0.2,0,0.3,0
			c0,0.2,0,0.4-0.2,0.4C707.3,22.8,707.2,22.7,707.2,22.6L707.2,22.6z M707.1,21.6c0-0.1,0-0.1,0.1-0.1c0.1,0,0.1,0,0.2,0.1
			c0.1,0,0.2,0.1,0.3,0.1c0.1,0,0.2-0.1,0.2-0.1c0.1-0.1,0.1-0.2,0.1-0.2h-0.2c0,0,0,0.1-0.1,0.1c0,0-0.1,0-0.2-0.1
			c-0.1,0-0.2-0.1-0.3-0.1c-0.1,0-0.2,0-0.2,0.1c-0.1,0.1-0.1,0.2-0.1,0.3H707.1L707.1,21.6z M706.5,22.2c0-0.4-0.3-0.5-0.7-0.5
			c-0.4,0-0.7,0.2-0.7,0.7c0,0.4,0.2,0.6,0.5,0.7l-0.1,0.2l0.1,0.1c0,0,0.1,0,0.1,0c0.1,0,0.1,0,0.1,0.1c0,0.1-0.1,0.1-0.2,0.1
			c-0.1,0-0.2,0-0.3-0.1l0,0.1c0.1,0,0.2,0,0.3,0c0.1,0,0.2,0,0.3,0c0.1,0,0.1-0.1,0.1-0.2c0-0.2-0.1-0.2-0.3-0.2c0,0-0.1,0-0.1,0
			l0.1-0.1h0c0.2,0,0.3-0.1,0.5-0.1c0.1-0.1,0.2-0.2,0.2-0.4h-0.5c0,0.1,0,0.2-0.2,0.3c-0.2,0-0.2-0.3-0.2-0.4c0-0.1,0-0.4,0.2-0.4
			c0.1,0,0.1,0,0.2,0.1c0,0,0,0.1,0,0.2H706.5L706.5,22.2z M704.9,23c0-0.2,0-0.2,0-0.3v-0.7c0-0.3-0.3-0.4-0.6-0.4
			c-0.1,0-0.3,0-0.4,0.1c-0.1,0.1-0.2,0.2-0.2,0.3h0.5c0-0.1,0-0.2,0.2-0.2c0.2,0,0.2,0.2,0.2,0.3h-0.2c-0.4,0-0.7,0.1-0.7,0.4
			c0,0.3,0.2,0.4,0.5,0.4c0.2,0,0.4-0.1,0.4-0.2h0c0,0.1,0,0.1,0,0.2H704.9L704.9,23z M704.1,22.6c0-0.1,0.1-0.1,0.1-0.2
			c0.1,0,0.2,0,0.3,0c0,0.2,0,0.4-0.2,0.4C704.1,22.8,704.1,22.7,704.1,22.6L704.1,22.6z M702.6,22c0.2,0,0.2,0.2,0.2,0.4
			c0,0.2,0,0.4-0.2,0.4c-0.2,0-0.2-0.2-0.2-0.4C702.4,22.2,702.4,22,702.6,22L702.6,22z M702.9,23h0.5v-1.8h-0.5v0.7h0
			c-0.1-0.1-0.3-0.2-0.4-0.2c-0.4,0-0.6,0.3-0.6,0.7c0,0.3,0.2,0.7,0.5,0.7c0.2,0,0.4-0.1,0.4-0.2h0L702.9,23L702.9,23z M700.7,21.7
			h-0.5c0,0.1,0,0.2,0,0.3v1h0.5v-0.7c0,0,0-0.3,0.2-0.3c0.2,0,0.2,0.1,0.2,0.3V23h0.5v-0.9c0-0.3-0.2-0.5-0.5-0.5
			c-0.2,0-0.3,0.1-0.4,0.2L700.7,21.7L700.7,21.7z M699.4,23h0.5c0-0.1,0-0.2,0-0.3v-1h-0.5v0.7c0,0,0,0.3-0.2,0.3
			c-0.1,0-0.2-0.1-0.2-0.3v-0.8h-0.5v0.9c0,0.3,0.2,0.5,0.5,0.5c0.2,0,0.3-0.1,0.4-0.2L699.4,23L699.4,23z M697.5,22.3h0.7V22h-0.7
			v-0.4h0.8v-0.4H697V23h0.5V22.3L697.5,22.3z"/>
		<path class="st11" d="M693.3,21.8L693.3,21.8L693.3,21.8l0.3,0.5v0.4h-13v-0.4l0.3-0.5l0,0h0v-7.1h0.4v-2.9h0.2v0h0v-0.4h0l0-0.4
			c-0.1-0.2-0.2-0.3-0.2-0.5c0-0.4,0.3-0.7,0.7-0.7c0.4,0,0.7,0.3,0.7,0.7c0,0.2-0.1,0.4-0.2,0.5v0l0,0.4h0v0.3l0,0.2h0.3v2.9h1.7
			v-2.5l-0.1-0.2h0l0,0l0.3,0h4.7l0,0l0.2,0l0.1,0l0,0h0l-0.1,0.2v2.5h1.6v-2.9h0.3l0-0.8c-0.1-0.2-0.2-0.3-0.2-0.5
			c0-0.4,0.3-0.7,0.7-0.7c0.4,0,0.7,0.3,0.7,0.7c0,0.2-0.1,0.4-0.2,0.5v0.9h0.3v2.9h0.4L693.3,21.8L693.3,21.8L693.3,21.8
			L693.3,21.8z M693.3,14.2v-2.8h-0.3v-0.2c0.1-0.2,0.2-0.4,0.2-0.7c0-0.6-0.4-1.1-1-1.2l0-0.1c0-0.1,0.1-0.1,0.1-0.2
			c0-0.1,0-0.2-0.1-0.2L692.2,8c0,0,0,0,0,0c0,0,0-0.1-0.1-0.1c-0.1,0-0.1,0-0.1,0.1c0,0,0,0,0,0h0l-0.1,0.8c-0.1,0-0.1,0.1-0.1,0.2
			c0,0.1,0,0.1,0.1,0.2l0,0.1c-0.5,0.1-0.9,0.6-0.9,1.2c0,0.2,0.1,0.5,0.2,0.7v0.2h-0.3v2.9h-0.7v-2l0.2-0.2v-0.3l-0.2-0.1l0,0
			l-0.1-0.2h-0.3l0,0l-0.2,0.2c0,0,0,0,0,0l0,0l0,0h0l0,0h-1.3l-0.2-0.2h-0.3l-0.2,0.2h-0.5l-0.2-0.2h-0.3l-0.2,0.2h-1.2l0,0
			l-0.2-0.2h-0.3l-0.1,0.1l-0.1,0.1l-0.1,0l-0.2,0.1V12l0.2,0.2v2h-0.8v-2.9H683v-0.2c0.1-0.2,0.2-0.4,0.2-0.7c0-0.6-0.4-1-1-1.2
			l0-0.1c0-0.1,0.1-0.1,0.1-0.2c0-0.1,0-0.2-0.1-0.2L682.2,8h0c0,0,0,0,0,0c0,0,0-0.1-0.1-0.1c0,0-0.1,0-0.1,0.1c0,0,0,0,0,0
			l-0.1,0.8c-0.1,0-0.1,0.1-0.1,0.2c0,0.1,0,0.1,0.1,0.2l0,0.1c-0.5,0.1-1,0.6-1,1.2c0,0.2,0.1,0.5,0.2,0.7v0.2h-0.2v2.9h-0.7v0.4h0
			l0.3,0.2v2.4h-0.3v0.4l0.3,0.3v1.7h-0.3V20l0.3,0.2v1.5l-0.3,0.2v0.6h0v0.4H694v-0.4h0V22l-0.3-0.2v0h0v-1.5L694,20v-0.4h-0.3
			v-1.7l0.3-0.3v-0.4h-0.3v-2.4l0.3-0.2h0v-0.4H693.3L693.3,14.2z"/>
	</g>
	<g>
		<g>
			<path d="M754.9,14.1c-0.2-0.1-0.4-0.2-0.7-0.2c-0.1,0-0.2,0-0.3,0c-0.1,0-0.2,0.1-0.3,0.1c-0.1,0.1-0.2,0.1-0.2,0.2
				c-0.1,0.1-0.1,0.2-0.1,0.3c0,0.1,0,0.2,0.1,0.3c0.1,0.1,0.2,0.1,0.3,0.2s0.3,0.1,0.4,0.1c0.2,0,0.3,0.1,0.5,0.1
				c0.2,0,0.3,0.1,0.5,0.1c0.2,0.1,0.3,0.1,0.4,0.2c0.1,0.1,0.2,0.2,0.3,0.3c0.1,0.1,0.1,0.3,0.1,0.5c0,0.2,0,0.4-0.2,0.6
				c-0.1,0.2-0.2,0.3-0.4,0.4c-0.2,0.1-0.3,0.2-0.5,0.2c-0.2,0-0.4,0.1-0.6,0.1c-0.2,0-0.5,0-0.7-0.1c-0.2-0.1-0.4-0.1-0.6-0.3
				c-0.2-0.1-0.3-0.3-0.4-0.5c-0.1-0.2-0.1-0.4-0.1-0.7h0.5c0,0.2,0,0.3,0.1,0.5c0.1,0.1,0.2,0.2,0.3,0.3c0.1,0.1,0.2,0.1,0.4,0.2
				c0.2,0,0.3,0.1,0.5,0.1c0.1,0,0.3,0,0.4,0c0.1,0,0.2-0.1,0.3-0.1s0.2-0.1,0.2-0.2c0.1-0.1,0.1-0.2,0.1-0.4c0-0.1,0-0.3-0.1-0.4
				c-0.1-0.1-0.2-0.2-0.3-0.2s-0.3-0.1-0.4-0.1c-0.2,0-0.3-0.1-0.5-0.1c-0.2,0-0.3-0.1-0.5-0.1c-0.2,0-0.3-0.1-0.4-0.2
				c-0.1-0.1-0.2-0.2-0.3-0.3s-0.1-0.3-0.1-0.5c0-0.2,0-0.4,0.1-0.6c0.1-0.2,0.2-0.3,0.3-0.4c0.1-0.1,0.3-0.2,0.5-0.2
				c0.2,0,0.4-0.1,0.6-0.1c0.2,0,0.4,0,0.6,0.1s0.3,0.1,0.5,0.2c0.1,0.1,0.3,0.2,0.3,0.4c0.1,0.2,0.1,0.4,0.1,0.6h-0.5
				C755.2,14.5,755,14.3,754.9,14.1z"/>
			<path d="M758.7,17.6c-0.2,0.2-0.5,0.3-0.9,0.3c-0.2,0-0.5,0-0.6-0.1c-0.2-0.1-0.3-0.2-0.5-0.3c-0.1-0.1-0.2-0.3-0.3-0.5
				c-0.1-0.2-0.1-0.4-0.1-0.6c0-0.2,0-0.4,0.1-0.6c0.1-0.2,0.2-0.4,0.3-0.5c0.1-0.1,0.3-0.3,0.5-0.3c0.2-0.1,0.4-0.1,0.6-0.1
				c0.3,0,0.5,0.1,0.7,0.2c0.2,0.1,0.3,0.3,0.4,0.4s0.2,0.4,0.2,0.6c0,0.2,0.1,0.4,0.1,0.6h-2.3c0,0.1,0,0.3,0,0.4
				c0,0.1,0.1,0.2,0.2,0.3c0.1,0.1,0.2,0.2,0.3,0.2s0.3,0.1,0.4,0.1c0.2,0,0.4,0,0.5-0.1c0.1-0.1,0.2-0.2,0.3-0.4h0.5
				C759,17.2,758.9,17.4,758.7,17.6z M758.5,15.6c0-0.1-0.1-0.2-0.2-0.3c-0.1-0.1-0.2-0.1-0.3-0.2c-0.1,0-0.2-0.1-0.3-0.1
				c-0.1,0-0.2,0-0.4,0.1c-0.1,0-0.2,0.1-0.3,0.2c-0.1,0.1-0.1,0.2-0.2,0.3c0,0.1-0.1,0.2-0.1,0.3h1.8
				C758.6,15.8,758.6,15.7,758.5,15.6z"/>
			<path d="M761.5,15.3c-0.1-0.1-0.3-0.2-0.5-0.2c-0.2,0-0.3,0-0.5,0.1s-0.2,0.2-0.3,0.3c-0.1,0.1-0.1,0.2-0.2,0.4
				c0,0.1,0,0.3,0,0.4c0,0.1,0,0.3,0,0.4s0.1,0.3,0.2,0.4c0.1,0.1,0.2,0.2,0.3,0.3s0.2,0.1,0.4,0.1c0.2,0,0.4-0.1,0.6-0.2
				c0.1-0.1,0.2-0.3,0.3-0.5h0.5c-0.1,0.4-0.2,0.7-0.4,0.9c-0.2,0.2-0.5,0.3-0.9,0.3c-0.2,0-0.4,0-0.6-0.1s-0.3-0.2-0.4-0.3
				c-0.1-0.1-0.2-0.3-0.3-0.5c-0.1-0.2-0.1-0.4-0.1-0.6s0-0.4,0.1-0.6c0.1-0.2,0.1-0.4,0.3-0.5s0.3-0.3,0.5-0.3
				c0.2-0.1,0.4-0.1,0.6-0.1c0.2,0,0.3,0,0.5,0.1c0.2,0,0.3,0.1,0.4,0.2c0.1,0.1,0.2,0.2,0.3,0.3s0.1,0.3,0.1,0.5h-0.5
				C761.7,15.5,761.6,15.4,761.5,15.3z"/>
			<path d="M763.3,14.7v0.6h0c0.1-0.2,0.3-0.4,0.4-0.5c0.2-0.1,0.4-0.2,0.7-0.2v0.5c-0.2,0-0.4,0-0.5,0.1c-0.1,0.1-0.3,0.1-0.3,0.2
				s-0.2,0.2-0.2,0.4c0,0.2-0.1,0.3-0.1,0.5v1.4h-0.5v-3.1H763.3z"/>
			<path d="M766.9,17.6c-0.2,0.2-0.5,0.3-0.9,0.3c-0.2,0-0.5,0-0.6-0.1c-0.2-0.1-0.3-0.2-0.5-0.3c-0.1-0.1-0.2-0.3-0.3-0.5
				c-0.1-0.2-0.1-0.4-0.1-0.6c0-0.2,0-0.4,0.1-0.6c0.1-0.2,0.2-0.4,0.3-0.5c0.1-0.1,0.3-0.3,0.5-0.3c0.2-0.1,0.4-0.1,0.6-0.1
				c0.3,0,0.5,0.1,0.7,0.2c0.2,0.1,0.3,0.3,0.4,0.4s0.2,0.4,0.2,0.6c0,0.2,0.1,0.4,0.1,0.6h-2.3c0,0.1,0,0.3,0,0.4
				c0,0.1,0.1,0.2,0.2,0.3c0.1,0.1,0.2,0.2,0.3,0.2s0.3,0.1,0.4,0.1c0.2,0,0.4,0,0.5-0.1c0.1-0.1,0.2-0.2,0.3-0.4h0.5
				C767.2,17.2,767.1,17.4,766.9,17.6z M766.7,15.6c0-0.1-0.1-0.2-0.2-0.3c-0.1-0.1-0.2-0.1-0.3-0.2c-0.1,0-0.2-0.1-0.3-0.1
				c-0.1,0-0.2,0-0.4,0.1c-0.1,0-0.2,0.1-0.3,0.2c-0.1,0.1-0.1,0.2-0.2,0.3c0,0.1-0.1,0.2-0.1,0.3h1.8
				C766.8,15.8,766.8,15.7,766.7,15.6z"/>
			<path d="M769.2,14.7v0.4h-0.6v1.9c0,0.1,0,0.1,0,0.1c0,0,0,0.1,0.1,0.1c0,0,0.1,0,0.1,0c0,0,0.1,0,0.2,0h0.2v0.4h-0.4
				c-0.1,0-0.2,0-0.3,0c-0.1,0-0.2-0.1-0.2-0.1c-0.1,0-0.1-0.1-0.1-0.2c0-0.1,0-0.2,0-0.3v-1.9h-0.5v-0.4h0.5v-0.9h0.5v0.9H769.2z"
				/>
			<path d="M772.4,17.8c-0.1,0.1-0.2,0.1-0.4,0.1c-0.1,0-0.2,0-0.3-0.1c-0.1-0.1-0.1-0.2-0.1-0.4c-0.1,0.2-0.3,0.3-0.5,0.4
				c-0.2,0.1-0.4,0.1-0.6,0.1c-0.1,0-0.3,0-0.4,0c-0.1,0-0.2-0.1-0.3-0.1c-0.1-0.1-0.2-0.2-0.2-0.3c-0.1-0.1-0.1-0.2-0.1-0.4
				c0-0.2,0-0.3,0.1-0.4c0.1-0.1,0.1-0.2,0.2-0.3s0.2-0.1,0.3-0.2s0.3-0.1,0.4-0.1c0.1,0,0.3,0,0.4-0.1c0.1,0,0.2,0,0.3-0.1
				c0.1,0,0.2-0.1,0.2-0.1c0.1,0,0.1-0.1,0.1-0.2c0-0.1,0-0.2-0.1-0.3c0-0.1-0.1-0.1-0.2-0.2c-0.1,0-0.1-0.1-0.2-0.1
				c-0.1,0-0.2,0-0.2,0c-0.2,0-0.4,0-0.5,0.1c-0.1,0.1-0.2,0.2-0.2,0.5h-0.5c0-0.2,0-0.3,0.1-0.5s0.2-0.2,0.3-0.3
				c0.1-0.1,0.3-0.1,0.4-0.2c0.2,0,0.3-0.1,0.5-0.1c0.1,0,0.3,0,0.4,0s0.3,0.1,0.4,0.1c0.1,0.1,0.2,0.1,0.3,0.3
				c0.1,0.1,0.1,0.3,0.1,0.4v1.6c0,0.1,0,0.2,0,0.3s0.1,0.1,0.1,0.1c0,0,0.1,0,0.2,0V17.8z M771.6,16.2c-0.1,0-0.1,0.1-0.2,0.1
				s-0.2,0-0.3,0.1s-0.2,0-0.3,0s-0.2,0-0.3,0.1s-0.2,0.1-0.2,0.2c-0.1,0.1-0.1,0.2-0.1,0.3c0,0.1,0,0.2,0,0.2
				c0,0.1,0.1,0.1,0.1,0.1c0.1,0,0.1,0.1,0.2,0.1c0.1,0,0.1,0,0.2,0c0.2,0,0.3,0,0.4-0.1s0.2-0.1,0.3-0.2c0.1-0.1,0.1-0.1,0.2-0.2
				c0-0.1,0.1-0.2,0.1-0.2V16.2z"/>
			<path d="M773.4,14.7v0.6h0c0.1-0.2,0.3-0.4,0.4-0.5c0.2-0.1,0.4-0.2,0.7-0.2v0.5c-0.2,0-0.4,0-0.5,0.1c-0.1,0.1-0.3,0.1-0.3,0.2
				s-0.2,0.2-0.2,0.4c0,0.2-0.1,0.3-0.1,0.5v1.4h-0.5v-3.1H773.4z"/>
			<path d="M774.9,14.2v-0.6h0.5v0.6H774.9z M775.4,14.7v3.1h-0.5v-3.1H775.4z"/>
			<path d="M778.9,17.8c-0.1,0.1-0.2,0.1-0.4,0.1c-0.1,0-0.2,0-0.3-0.1c-0.1-0.1-0.1-0.2-0.1-0.4c-0.1,0.2-0.3,0.3-0.5,0.4
				c-0.2,0.1-0.4,0.1-0.6,0.1c-0.1,0-0.3,0-0.4,0c-0.1,0-0.2-0.1-0.3-0.1c-0.1-0.1-0.2-0.2-0.2-0.3c-0.1-0.1-0.1-0.2-0.1-0.4
				c0-0.2,0-0.3,0.1-0.4c0.1-0.1,0.1-0.2,0.2-0.3s0.2-0.1,0.3-0.2s0.3-0.1,0.4-0.1c0.1,0,0.3,0,0.4-0.1c0.1,0,0.2,0,0.3-0.1
				c0.1,0,0.2-0.1,0.2-0.1c0.1,0,0.1-0.1,0.1-0.2c0-0.1,0-0.2-0.1-0.3c0-0.1-0.1-0.1-0.2-0.2c-0.1,0-0.1-0.1-0.2-0.1
				c-0.1,0-0.2,0-0.2,0c-0.2,0-0.4,0-0.5,0.1c-0.1,0.1-0.2,0.2-0.2,0.5h-0.5c0-0.2,0-0.3,0.1-0.5s0.2-0.2,0.3-0.3
				c0.1-0.1,0.3-0.1,0.4-0.2c0.2,0,0.3-0.1,0.5-0.1c0.1,0,0.3,0,0.4,0s0.3,0.1,0.4,0.1c0.1,0.1,0.2,0.1,0.3,0.3
				c0.1,0.1,0.1,0.3,0.1,0.4v1.6c0,0.1,0,0.2,0,0.3s0.1,0.1,0.1,0.1c0,0,0.1,0,0.2,0V17.8z M778.1,16.2c-0.1,0-0.1,0.1-0.2,0.1
				s-0.2,0-0.3,0.1s-0.2,0-0.3,0s-0.2,0-0.3,0.1s-0.2,0.1-0.2,0.2c-0.1,0.1-0.1,0.2-0.1,0.3c0,0.1,0,0.2,0,0.2
				c0,0.1,0.1,0.1,0.1,0.1c0.1,0,0.1,0.1,0.2,0.1c0.1,0,0.1,0,0.2,0c0.2,0,0.3,0,0.4-0.1s0.2-0.1,0.3-0.2c0.1-0.1,0.1-0.1,0.2-0.2
				c0-0.1,0.1-0.2,0.1-0.2V16.2z"/>
			<path d="M783.2,17.8v-0.4h0c-0.1,0.2-0.2,0.3-0.4,0.4c-0.2,0.1-0.4,0.1-0.6,0.1c-0.2,0-0.4,0-0.6-0.1c-0.2-0.1-0.3-0.2-0.4-0.3
				c-0.1-0.1-0.2-0.3-0.3-0.5c-0.1-0.2-0.1-0.4-0.1-0.6s0-0.4,0.1-0.6c0.1-0.2,0.1-0.4,0.3-0.5s0.3-0.3,0.4-0.3
				c0.2-0.1,0.4-0.1,0.6-0.1c0.1,0,0.2,0,0.3,0c0.1,0,0.2,0,0.3,0.1c0.1,0,0.2,0.1,0.3,0.1s0.1,0.1,0.2,0.2h0v-1.6h0.5v4.2H783.2z
				 M781.4,16.7c0,0.1,0.1,0.3,0.2,0.4c0.1,0.1,0.2,0.2,0.3,0.3s0.3,0.1,0.4,0.1c0.2,0,0.3,0,0.4-0.1c0.1-0.1,0.2-0.2,0.3-0.3
				c0.1-0.1,0.1-0.2,0.2-0.4c0-0.1,0-0.3,0-0.4c0-0.1,0-0.3-0.1-0.4c0-0.1-0.1-0.3-0.2-0.4c-0.1-0.1-0.2-0.2-0.3-0.3
				s-0.3-0.1-0.4-0.1c-0.2,0-0.3,0-0.4,0.1s-0.2,0.2-0.3,0.3c-0.1,0.1-0.1,0.2-0.2,0.4c0,0.1,0,0.3,0,0.4
				C781.4,16.4,781.4,16.6,781.4,16.7z"/>
			<path d="M786.7,17.6c-0.2,0.2-0.5,0.3-0.9,0.3c-0.2,0-0.5,0-0.6-0.1c-0.2-0.1-0.3-0.2-0.5-0.3c-0.1-0.1-0.2-0.3-0.3-0.5
				c-0.1-0.2-0.1-0.4-0.1-0.6c0-0.2,0-0.4,0.1-0.6c0.1-0.2,0.2-0.4,0.3-0.5c0.1-0.1,0.3-0.3,0.5-0.3c0.2-0.1,0.4-0.1,0.6-0.1
				c0.3,0,0.5,0.1,0.7,0.2c0.2,0.1,0.3,0.3,0.4,0.4s0.2,0.4,0.2,0.6c0,0.2,0.1,0.4,0.1,0.6h-2.3c0,0.1,0,0.3,0,0.4
				c0,0.1,0.1,0.2,0.2,0.3c0.1,0.1,0.2,0.2,0.3,0.2s0.3,0.1,0.4,0.1c0.2,0,0.4,0,0.5-0.1c0.1-0.1,0.2-0.2,0.3-0.4h0.5
				C787.1,17.2,786.9,17.4,786.7,17.6z M786.6,15.6c0-0.1-0.1-0.2-0.2-0.3c-0.1-0.1-0.2-0.1-0.3-0.2c-0.1,0-0.2-0.1-0.3-0.1
				c-0.1,0-0.2,0-0.4,0.1c-0.1,0-0.2,0.1-0.3,0.2c-0.1,0.1-0.1,0.2-0.2,0.3c0,0.1-0.1,0.2-0.1,0.3h1.8
				C786.6,15.8,786.6,15.7,786.6,15.6z"/>
			<path d="M745.3,18.8v0.5h-2.4v1.3h2.2v0.5h-2.2v1.5h2.4V23h-2.9v-4.2H745.3z"/>
			<path d="M746.3,22.4c0,0.1,0.1,0.1,0.2,0.2c0.1,0,0.2,0.1,0.3,0.1s0.2,0,0.3,0c0.1,0,0.2,0,0.2,0c0.1,0,0.2,0,0.2-0.1
				c0.1,0,0.1-0.1,0.2-0.1c0-0.1,0.1-0.1,0.1-0.2c0-0.1,0-0.2-0.1-0.3c-0.1-0.1-0.2-0.1-0.4-0.2c-0.1,0-0.3-0.1-0.5-0.1
				c-0.2,0-0.3-0.1-0.5-0.1c-0.1-0.1-0.3-0.1-0.4-0.3c-0.1-0.1-0.1-0.3-0.1-0.5c0-0.2,0-0.3,0.1-0.4s0.2-0.2,0.3-0.3
				s0.2-0.1,0.4-0.2c0.1,0,0.3-0.1,0.4-0.1c0.2,0,0.3,0,0.5,0c0.1,0,0.3,0.1,0.4,0.2s0.2,0.2,0.3,0.3c0.1,0.1,0.1,0.3,0.1,0.5h-0.5
				c0-0.1,0-0.2-0.1-0.2c0-0.1-0.1-0.1-0.2-0.2c-0.1,0-0.1-0.1-0.2-0.1s-0.2,0-0.2,0c-0.1,0-0.2,0-0.2,0c-0.1,0-0.1,0-0.2,0.1
				c-0.1,0-0.1,0.1-0.2,0.1c0,0-0.1,0.1-0.1,0.2c0,0.1,0,0.2,0.1,0.2c0.1,0.1,0.1,0.1,0.2,0.1c0.1,0,0.2,0.1,0.3,0.1
				c0.1,0,0.2,0.1,0.4,0.1c0.1,0,0.2,0.1,0.4,0.1c0.1,0,0.2,0.1,0.3,0.2s0.2,0.1,0.2,0.2c0.1,0.1,0.1,0.2,0.1,0.4
				c0,0.2,0,0.3-0.1,0.5c-0.1,0.1-0.2,0.2-0.3,0.3c-0.1,0.1-0.3,0.1-0.4,0.2c-0.2,0-0.3,0-0.5,0c-0.2,0-0.3,0-0.5-0.1
				c-0.2,0-0.3-0.1-0.4-0.2c-0.1-0.1-0.2-0.2-0.3-0.3c-0.1-0.1-0.1-0.3-0.1-0.5h0.5C746.2,22.2,746.2,22.3,746.3,22.4z"/>
			<path d="M750.1,20v0.4h-0.6v1.9c0,0.1,0,0.1,0,0.1c0,0,0,0.1,0.1,0.1c0,0,0.1,0,0.1,0c0,0,0.1,0,0.2,0h0.2V23h-0.4
				c-0.1,0-0.2,0-0.3,0c-0.1,0-0.2-0.1-0.2-0.1c-0.1,0-0.1-0.1-0.1-0.2c0-0.1,0-0.2,0-0.3v-1.9h-0.5V20h0.5v-0.9h0.5V20H750.1z"/>
			<path d="M753.4,23c-0.1,0.1-0.2,0.1-0.4,0.1c-0.1,0-0.2,0-0.3-0.1c-0.1-0.1-0.1-0.2-0.1-0.4c-0.1,0.2-0.3,0.3-0.5,0.4
				c-0.2,0.1-0.4,0.1-0.6,0.1c-0.1,0-0.3,0-0.4,0c-0.1,0-0.2-0.1-0.3-0.1c-0.1-0.1-0.2-0.2-0.2-0.3c-0.1-0.1-0.1-0.2-0.1-0.4
				c0-0.2,0-0.3,0.1-0.4c0.1-0.1,0.1-0.2,0.2-0.3s0.2-0.1,0.3-0.2s0.3-0.1,0.4-0.1c0.1,0,0.3,0,0.4-0.1c0.1,0,0.2,0,0.3-0.1
				c0.1,0,0.2-0.1,0.2-0.1c0.1,0,0.1-0.1,0.1-0.2c0-0.1,0-0.2-0.1-0.3c0-0.1-0.1-0.1-0.2-0.2c-0.1,0-0.1-0.1-0.2-0.1
				c-0.1,0-0.2,0-0.2,0c-0.2,0-0.4,0-0.5,0.1c-0.1,0.1-0.2,0.2-0.2,0.5h-0.5c0-0.2,0-0.3,0.1-0.5s0.2-0.2,0.3-0.3
				c0.1-0.1,0.3-0.1,0.4-0.2c0.2,0,0.3-0.1,0.5-0.1c0.1,0,0.3,0,0.4,0s0.3,0.1,0.4,0.1c0.1,0.1,0.2,0.1,0.3,0.3
				c0.1,0.1,0.1,0.3,0.1,0.4v1.6c0,0.1,0,0.2,0,0.3s0.1,0.1,0.1,0.1c0,0,0.1,0,0.2,0V23z M752.6,21.5c-0.1,0-0.1,0.1-0.2,0.1
				s-0.2,0-0.3,0.1s-0.2,0-0.3,0s-0.2,0-0.3,0.1s-0.2,0.1-0.2,0.2c-0.1,0.1-0.1,0.2-0.1,0.3c0,0.1,0,0.2,0,0.2
				c0,0.1,0.1,0.1,0.1,0.1c0.1,0,0.1,0.1,0.2,0.1c0.1,0,0.1,0,0.2,0c0.2,0,0.3,0,0.4-0.1s0.2-0.1,0.3-0.2c0.1-0.1,0.1-0.1,0.2-0.2
				c0-0.1,0.1-0.2,0.1-0.2V21.5z"/>
			<path d="M756.1,23v-0.4h0c-0.1,0.2-0.2,0.3-0.4,0.4c-0.2,0.1-0.4,0.1-0.6,0.1c-0.2,0-0.4,0-0.6-0.1c-0.2-0.1-0.3-0.2-0.4-0.3
				c-0.1-0.1-0.2-0.3-0.3-0.5c-0.1-0.2-0.1-0.4-0.1-0.6s0-0.4,0.1-0.6c0.1-0.2,0.1-0.4,0.3-0.5s0.3-0.3,0.4-0.3
				c0.2-0.1,0.4-0.1,0.6-0.1c0.1,0,0.2,0,0.3,0c0.1,0,0.2,0,0.3,0.1c0.1,0,0.2,0.1,0.3,0.1s0.1,0.1,0.2,0.2h0v-1.6h0.5V23H756.1z
				 M754.3,22c0,0.1,0.1,0.3,0.2,0.4c0.1,0.1,0.2,0.2,0.3,0.3s0.3,0.1,0.4,0.1c0.2,0,0.3,0,0.4-0.1c0.1-0.1,0.2-0.2,0.3-0.3
				c0.1-0.1,0.1-0.2,0.2-0.4c0-0.1,0-0.3,0-0.4c0-0.1,0-0.3-0.1-0.4c0-0.1-0.1-0.3-0.2-0.4c-0.1-0.1-0.2-0.2-0.3-0.3
				s-0.3-0.1-0.4-0.1c-0.2,0-0.3,0-0.4,0.1s-0.2,0.2-0.3,0.3c-0.1,0.1-0.1,0.2-0.2,0.4c0,0.1,0,0.3,0,0.4
				C754.2,21.7,754.2,21.8,754.3,22z"/>
			<path d="M757.3,20.9c0.1-0.2,0.2-0.4,0.3-0.5c0.1-0.1,0.3-0.3,0.5-0.3c0.2-0.1,0.4-0.1,0.6-0.1c0.2,0,0.5,0,0.6,0.1
				c0.2,0.1,0.3,0.2,0.5,0.3c0.1,0.1,0.2,0.3,0.3,0.5c0.1,0.2,0.1,0.4,0.1,0.6s0,0.4-0.1,0.6c-0.1,0.2-0.2,0.4-0.3,0.5
				c-0.1,0.1-0.3,0.3-0.5,0.3c-0.2,0.1-0.4,0.1-0.6,0.1c-0.2,0-0.5,0-0.6-0.1c-0.2-0.1-0.3-0.2-0.5-0.3c-0.1-0.1-0.2-0.3-0.3-0.5
				c-0.1-0.2-0.1-0.4-0.1-0.6S757.2,21.1,757.3,20.9z M757.8,22c0,0.1,0.1,0.3,0.2,0.4s0.2,0.2,0.3,0.2s0.2,0.1,0.4,0.1
				s0.3,0,0.4-0.1s0.2-0.1,0.3-0.2s0.2-0.2,0.2-0.4c0-0.1,0.1-0.3,0.1-0.5s0-0.3-0.1-0.5c0-0.1-0.1-0.3-0.2-0.4s-0.2-0.2-0.3-0.2
				s-0.2-0.1-0.4-0.1s-0.3,0-0.4,0.1s-0.2,0.1-0.3,0.2s-0.2,0.2-0.2,0.4c0,0.1-0.1,0.3-0.1,0.5S757.8,21.9,757.8,22z"/>
			<path d="M764.6,23v-0.4h0c-0.1,0.2-0.2,0.3-0.4,0.4c-0.2,0.1-0.4,0.1-0.6,0.1c-0.2,0-0.4,0-0.6-0.1c-0.2-0.1-0.3-0.2-0.4-0.3
				c-0.1-0.1-0.2-0.3-0.3-0.5c-0.1-0.2-0.1-0.4-0.1-0.6s0-0.4,0.1-0.6c0.1-0.2,0.1-0.4,0.3-0.5s0.3-0.3,0.4-0.3
				c0.2-0.1,0.4-0.1,0.6-0.1c0.1,0,0.2,0,0.3,0c0.1,0,0.2,0,0.3,0.1c0.1,0,0.2,0.1,0.3,0.1s0.1,0.1,0.2,0.2h0v-1.6h0.5V23H764.6z
				 M762.8,22c0,0.1,0.1,0.3,0.2,0.4c0.1,0.1,0.2,0.2,0.3,0.3s0.3,0.1,0.4,0.1c0.2,0,0.3,0,0.4-0.1c0.1-0.1,0.2-0.2,0.3-0.3
				c0.1-0.1,0.1-0.2,0.2-0.4c0-0.1,0-0.3,0-0.4c0-0.1,0-0.3-0.1-0.4c0-0.1-0.1-0.3-0.2-0.4c-0.1-0.1-0.2-0.2-0.3-0.3
				s-0.3-0.1-0.4-0.1c-0.2,0-0.3,0-0.4,0.1s-0.2,0.2-0.3,0.3c-0.1,0.1-0.1,0.2-0.2,0.4c0,0.1,0,0.3,0,0.4
				C762.8,21.7,762.8,21.8,762.8,22z"/>
			<path d="M768.1,22.8c-0.2,0.2-0.5,0.3-0.9,0.3c-0.2,0-0.5,0-0.6-0.1c-0.2-0.1-0.3-0.2-0.5-0.3c-0.1-0.1-0.2-0.3-0.3-0.5
				c-0.1-0.2-0.1-0.4-0.1-0.6c0-0.2,0-0.4,0.1-0.6c0.1-0.2,0.2-0.4,0.3-0.5c0.1-0.1,0.3-0.3,0.5-0.3c0.2-0.1,0.4-0.1,0.6-0.1
				c0.3,0,0.5,0.1,0.7,0.2c0.2,0.1,0.3,0.3,0.4,0.4s0.2,0.4,0.2,0.6c0,0.2,0.1,0.4,0.1,0.6h-2.3c0,0.1,0,0.3,0,0.4
				c0,0.1,0.1,0.2,0.2,0.3c0.1,0.1,0.2,0.2,0.3,0.2s0.3,0.1,0.4,0.1c0.2,0,0.4,0,0.5-0.1c0.1-0.1,0.2-0.2,0.3-0.4h0.5
				C768.4,22.4,768.3,22.7,768.1,22.8z M767.9,20.9c0-0.1-0.1-0.2-0.2-0.3c-0.1-0.1-0.2-0.1-0.3-0.2c-0.1,0-0.2-0.1-0.3-0.1
				c-0.1,0-0.2,0-0.4,0.1c-0.1,0-0.2,0.1-0.3,0.2c-0.1,0.1-0.1,0.2-0.2,0.3c0,0.1-0.1,0.2-0.1,0.3h1.8C768,21.1,768,21,767.9,20.9z"
				/>
			<path d="M772.9,19.4c-0.2-0.1-0.4-0.2-0.7-0.2c-0.1,0-0.2,0-0.3,0c-0.1,0-0.2,0.1-0.3,0.1c-0.1,0.1-0.2,0.1-0.2,0.2
				c-0.1,0.1-0.1,0.2-0.1,0.3c0,0.1,0,0.2,0.1,0.3c0.1,0.1,0.2,0.1,0.3,0.2s0.3,0.1,0.4,0.1c0.2,0,0.3,0.1,0.5,0.1
				c0.2,0,0.3,0.1,0.5,0.1c0.2,0.1,0.3,0.1,0.4,0.2c0.1,0.1,0.2,0.2,0.3,0.3c0.1,0.1,0.1,0.3,0.1,0.5c0,0.2,0,0.4-0.2,0.6
				c-0.1,0.2-0.2,0.3-0.4,0.4c-0.2,0.1-0.3,0.2-0.5,0.2c-0.2,0-0.4,0.1-0.6,0.1c-0.2,0-0.5,0-0.7-0.1c-0.2-0.1-0.4-0.1-0.6-0.3
				c-0.2-0.1-0.3-0.3-0.4-0.5c-0.1-0.2-0.1-0.4-0.1-0.7h0.5c0,0.2,0,0.3,0.1,0.5c0.1,0.1,0.2,0.2,0.3,0.3c0.1,0.1,0.2,0.1,0.4,0.2
				c0.2,0,0.3,0.1,0.5,0.1c0.1,0,0.3,0,0.4,0c0.1,0,0.2-0.1,0.3-0.1s0.2-0.1,0.2-0.2c0.1-0.1,0.1-0.2,0.1-0.4c0-0.1,0-0.3-0.1-0.4
				c-0.1-0.1-0.2-0.2-0.3-0.2s-0.3-0.1-0.4-0.1c-0.2,0-0.3-0.1-0.5-0.1c-0.2,0-0.3-0.1-0.5-0.1c-0.2,0-0.3-0.1-0.4-0.2
				c-0.1-0.1-0.2-0.2-0.3-0.3s-0.1-0.3-0.1-0.5c0-0.2,0-0.4,0.1-0.6c0.1-0.2,0.2-0.3,0.3-0.4c0.1-0.1,0.3-0.2,0.5-0.2
				c0.2,0,0.4-0.1,0.6-0.1c0.2,0,0.4,0,0.6,0.1s0.3,0.1,0.5,0.2c0.1,0.1,0.3,0.2,0.3,0.4c0.1,0.2,0.1,0.4,0.1,0.6h-0.5
				C773.2,19.8,773.1,19.5,772.9,19.4z"/>
			<path d="M777.3,23c-0.1,0.1-0.2,0.1-0.4,0.1c-0.1,0-0.2,0-0.3-0.1c-0.1-0.1-0.1-0.2-0.1-0.4c-0.1,0.2-0.3,0.3-0.5,0.4
				c-0.2,0.1-0.4,0.1-0.6,0.1c-0.1,0-0.3,0-0.4,0c-0.1,0-0.2-0.1-0.3-0.1c-0.1-0.1-0.2-0.2-0.2-0.3c-0.1-0.1-0.1-0.2-0.1-0.4
				c0-0.2,0-0.3,0.1-0.4c0.1-0.1,0.1-0.2,0.2-0.3s0.2-0.1,0.3-0.2s0.3-0.1,0.4-0.1c0.1,0,0.3,0,0.4-0.1c0.1,0,0.2,0,0.3-0.1
				c0.1,0,0.2-0.1,0.2-0.1c0.1,0,0.1-0.1,0.1-0.2c0-0.1,0-0.2-0.1-0.3c0-0.1-0.1-0.1-0.2-0.2c-0.1,0-0.1-0.1-0.2-0.1
				c-0.1,0-0.2,0-0.2,0c-0.2,0-0.4,0-0.5,0.1c-0.1,0.1-0.2,0.2-0.2,0.5h-0.5c0-0.2,0-0.3,0.1-0.5s0.2-0.2,0.3-0.3
				c0.1-0.1,0.3-0.1,0.4-0.2c0.2,0,0.3-0.1,0.5-0.1c0.1,0,0.3,0,0.4,0s0.3,0.1,0.4,0.1c0.1,0.1,0.2,0.1,0.3,0.3
				c0.1,0.1,0.1,0.3,0.1,0.4v1.6c0,0.1,0,0.2,0,0.3s0.1,0.1,0.1,0.1c0,0,0.1,0,0.2,0V23z M776.4,21.5c-0.1,0-0.1,0.1-0.2,0.1
				s-0.2,0-0.3,0.1s-0.2,0-0.3,0s-0.2,0-0.3,0.1s-0.2,0.1-0.2,0.2c-0.1,0.1-0.1,0.2-0.1,0.3c0,0.1,0,0.2,0,0.2
				c0,0.1,0.1,0.1,0.1,0.1c0.1,0,0.1,0.1,0.2,0.1c0.1,0,0.1,0,0.2,0c0.2,0,0.3,0,0.4-0.1s0.2-0.1,0.3-0.2c0.1-0.1,0.1-0.1,0.2-0.2
				c0-0.1,0.1-0.2,0.1-0.2V21.5z"/>
			<path d="M779.8,23v-0.5h0c-0.1,0.2-0.2,0.3-0.4,0.4c-0.2,0.1-0.4,0.1-0.6,0.1c-0.2,0-0.4,0-0.5-0.1s-0.2-0.1-0.3-0.2
				c-0.1-0.1-0.1-0.2-0.2-0.4c0-0.1-0.1-0.3-0.1-0.5v-2h0.5v2.1c0,0.2,0.1,0.3,0.2,0.4c0.1,0.1,0.3,0.2,0.5,0.2c0.2,0,0.3,0,0.4-0.1
				s0.2-0.1,0.3-0.2c0.1-0.1,0.1-0.2,0.2-0.3c0-0.1,0.1-0.2,0.1-0.4V20h0.5V23H779.8z M779.2,18.5l-0.6,1h0.4l0.8-1H779.2z"/>
			<path d="M783.2,23v-0.4h0c-0.1,0.2-0.2,0.3-0.4,0.4c-0.2,0.1-0.4,0.1-0.6,0.1c-0.2,0-0.4,0-0.6-0.1c-0.2-0.1-0.3-0.2-0.4-0.3
				c-0.1-0.1-0.2-0.3-0.3-0.5c-0.1-0.2-0.1-0.4-0.1-0.6s0-0.4,0.1-0.6c0.1-0.2,0.1-0.4,0.3-0.5s0.3-0.3,0.4-0.3
				c0.2-0.1,0.4-0.1,0.6-0.1c0.1,0,0.2,0,0.3,0c0.1,0,0.2,0,0.3,0.1c0.1,0,0.2,0.1,0.3,0.1s0.1,0.1,0.2,0.2h0v-1.6h0.5V23H783.2z
				 M781.4,22c0,0.1,0.1,0.3,0.2,0.4c0.1,0.1,0.2,0.2,0.3,0.3s0.3,0.1,0.4,0.1c0.2,0,0.3,0,0.4-0.1c0.1-0.1,0.2-0.2,0.3-0.3
				c0.1-0.1,0.1-0.2,0.2-0.4c0-0.1,0-0.3,0-0.4c0-0.1,0-0.3-0.1-0.4c0-0.1-0.1-0.3-0.2-0.4c-0.1-0.1-0.2-0.2-0.3-0.3
				s-0.3-0.1-0.4-0.1c-0.2,0-0.3,0-0.4,0.1s-0.2,0.2-0.3,0.3c-0.1,0.1-0.1,0.2-0.2,0.4c0,0.1,0,0.3,0,0.4
				C781.4,21.7,781.4,21.8,781.4,22z"/>
			<path d="M786.7,22.8c-0.2,0.2-0.5,0.3-0.9,0.3c-0.2,0-0.5,0-0.6-0.1c-0.2-0.1-0.3-0.2-0.5-0.3c-0.1-0.1-0.2-0.3-0.3-0.5
				c-0.1-0.2-0.1-0.4-0.1-0.6c0-0.2,0-0.4,0.1-0.6c0.1-0.2,0.2-0.4,0.3-0.5c0.1-0.1,0.3-0.3,0.5-0.3c0.2-0.1,0.4-0.1,0.6-0.1
				c0.3,0,0.5,0.1,0.7,0.2c0.2,0.1,0.3,0.3,0.4,0.4s0.2,0.4,0.2,0.6c0,0.2,0.1,0.4,0.1,0.6h-2.3c0,0.1,0,0.3,0,0.4
				c0,0.1,0.1,0.2,0.2,0.3c0.1,0.1,0.2,0.2,0.3,0.2s0.3,0.1,0.4,0.1c0.2,0,0.4,0,0.5-0.1c0.1-0.1,0.2-0.2,0.3-0.4h0.5
				C787.1,22.4,786.9,22.7,786.7,22.8z M786.6,20.9c0-0.1-0.1-0.2-0.2-0.3c-0.1-0.1-0.2-0.1-0.3-0.2c-0.1,0-0.2-0.1-0.3-0.1
				c-0.1,0-0.2,0-0.4,0.1c-0.1,0-0.2,0.1-0.3,0.2c-0.1,0.1-0.1,0.2-0.2,0.3c0,0.1-0.1,0.2-0.1,0.3h1.8
				C786.6,21.1,786.6,21,786.6,20.9z"/>
		</g>
		<g>
			<path d="M801.1,23.2h-1l-0.2-1.1c-0.4,0.5-0.9,0.8-1.3,1s-0.9,0.3-1.5,0.3c-0.7,0-1.3-0.1-1.9-0.4c-0.6-0.3-1-0.6-1.4-1
				c-0.4-0.4-0.7-1-0.9-1.5c-0.2-0.6-0.3-1.2-0.3-1.9c0-0.7,0.1-1.3,0.3-1.9c0.2-0.6,0.5-1.1,0.9-1.5c0.4-0.4,0.8-0.8,1.4-1.1
				c0.5-0.3,1.2-0.4,1.9-0.4c0.5,0,1,0.1,1.4,0.2s0.9,0.3,1.2,0.6c0.4,0.3,0.6,0.6,0.9,1c0.2,0.4,0.4,0.9,0.4,1.4h-1.6
				c0-0.3-0.1-0.6-0.3-0.8c-0.1-0.2-0.3-0.4-0.5-0.6c-0.2-0.2-0.5-0.3-0.7-0.4S797.3,15,797,15c-0.5,0-0.9,0.1-1.3,0.3
				s-0.7,0.5-0.9,0.8c-0.2,0.3-0.4,0.7-0.5,1.1s-0.2,0.9-0.2,1.3s0.1,0.9,0.2,1.3c0.1,0.4,0.3,0.8,0.5,1.1c0.2,0.3,0.5,0.6,0.9,0.8
				s0.8,0.3,1.3,0.3c0.4,0,0.8,0,1.1-0.2c0.3-0.1,0.6-0.3,0.8-0.5c0.2-0.2,0.4-0.5,0.5-0.8s0.2-0.7,0.2-1.1h-2.5v-1.2h4V23.2z"/>
			<path d="M802.8,13.9h3.8c0.7,0,1.3,0.1,1.8,0.4c0.5,0.2,0.9,0.6,1.3,1s0.6,0.9,0.7,1.5c0.2,0.6,0.2,1.2,0.2,1.8
				c0,0.6-0.1,1.2-0.2,1.8s-0.4,1.1-0.7,1.5s-0.8,0.8-1.3,1c-0.5,0.2-1.1,0.4-1.8,0.4h-3.8V13.9z M804.5,21.8h1.6
				c0.6,0,1.2-0.1,1.6-0.3s0.7-0.4,0.9-0.7c0.2-0.3,0.4-0.6,0.5-1.1c0.1-0.4,0.1-0.8,0.1-1.3c0-0.5,0-0.9-0.1-1.3
				c-0.1-0.4-0.2-0.8-0.5-1.1c-0.2-0.3-0.5-0.5-0.9-0.7s-0.9-0.3-1.6-0.3h-1.6V21.8z"/>
			<path d="M812.2,13.9h6.4v1.4h-4.8v2.4h4.2v1.3h-4.2v4.1h-1.6V13.9z"/>
		</g>
	</g>
</g>
</svg>
