<svg xmlns="http://www.w3.org/2000/svg" viewBox="0 0 90.14 81.82"><defs><style>.cls-1{fill:none;stroke:#fff;stroke-miterlimit:10;}.cls-2{fill:#fff;}</style></defs><g id="Camada_2" data-name="Camada 2"><g id="Tela18"><path class="cls-1" d="M1.14,33.48h4.1L1.14,44.34l9.71-8.08,3.33-2.78H52.24V.5H1.14ZM5.66,21.34H47.72v2.13H5.66Zm0-5.41H47.72v2.13H5.66Zm0-5.41H47.72v2.13H5.66Z"/><rect class="cls-2" x="5.66" y="21.34" width="42.05" height="2.13"/><rect class="cls-2" x="5.66" y="15.93" width="42.05" height="2.13"/><rect class="cls-2" x="5.66" y="10.52" width="42.05" height="2.13"/><path class="cls-2" d="M90.14,38H39V71H77.09l3.34,2.77,9.71,8.08L86,71h4.1ZM67.26,61.54l-3.77,3.77L52.24,54.07,63.49,42.82l3.77,3.77L62.45,51.4H73.81v5.33H62.45Z"/></g></g></svg>