<?xml version="1.0" encoding="utf-8"?>
<!-- Generator: Adobe Illustrator 24.3.0, SVG Export Plug-In . SVG Version: 6.00 Build 0)  -->
<svg version="1.1" id="Camada_1" xmlns="http://www.w3.org/2000/svg" xmlns:xlink="http://www.w3.org/1999/xlink" x="0px" y="0px"
	 viewBox="0 0 498 281" style="enable-background:new 0 0 498 281;" xml:space="preserve">
<style type="text/css">
	.st0{fill:#344CA4;}
	.st1{fill:none;stroke:#FFFFFF;stroke-width:2;stroke-miterlimit:10;}
	.st2{fill:#FFFFFF;}
</style>
<g>
	<rect x="0" y="0.4" class="st0" width="498" height="280.1"/>
	<g>
		<g>
			<polygon class="st1" points="282.9,119.8 282.9,94.1 171.3,94.1 171.3,186.9 282.9,186.9 282.9,161.2 326.7,186.5 326.7,94.5 			
				"/>
		</g>
		<polygon class="st2" points="257.9,141.4 213.1,171.7 213.1,109.3 		"/>
	</g>
	<g>
		<circle class="st2" cx="49.3" cy="16.7" r="8.1"/>
		<path class="st2" d="M33.1,8.6v16.2c4.5,0,8.1-3.6,8.1-8.1C41.2,12.2,37.5,8.6,33.1,8.6z"/>
		<g>
			<rect x="8.9" y="8.6" class="st2" width="8" height="16.2"/>
			<path class="st2" d="M16.9,8.6c4.5,0,8.1,3.6,8.1,8.1s-3.6,8.1-8.1,8.1H25V8.6H16.9z"/>
		</g>
	</g>
	<g>
		<rect x="461.2" y="259.7" class="st2" width="13.6" height="13.6"/>
		<circle class="st2" cx="481.8" cy="266.6" r="6.8"/>
		<path class="st2" d="M481.8,245.4c-3.8,0-6.8-3-6.8-6.8v-6.1h13.6v6.1C488.6,242.3,485.6,245.4,481.8,245.4z"/>
		<path class="st2" d="M454.4,273.4v-13.6c3.8,0,6.8,3,6.8,6.8C461.2,270.3,458.1,273.4,454.4,273.4z"/>
	</g>
</g>
</svg>
