<?xml version="1.0" encoding="utf-8"?>
<!-- Generator: Adobe Illustrator 26.5.0, SVG Export Plug-In . SVG Version: 6.00 Build 0)  -->
<svg version="1.1" xmlns="http://www.w3.org/2000/svg" xmlns:xlink="http://www.w3.org/1999/xlink" x="0px" y="0px"
	 viewBox="0 0 183.2 187.4" style="enable-background:new 0 0 183.2 187.4;" xml:space="preserve">
<style type="text/css">
	.st0{fill:#F4F7FA;}
	.st1{clip-path:url(#SVGID_00000085216919770713385200000013044617373956281023_);}
	.st2{opacity:0.5;clip-path:url(#SVGID_00000003810692275770613930000009459344423749185429_);}
	.st3{fill:#FFFFFF;}
	.st4{clip-path:url(#SVGID_00000063610317097110027750000002420110618021261737_);}
	.st5{fill:#FCFDFE;}
	.st6{fill:#97A6B7;}
	.st7{fill:#D8DEE8;}
	.st8{opacity:0.74;fill:#FFFFFF;}
	.st9{opacity:0.3;fill:#97A6B7;}
	.st10{fill:url(#SVGID_00000152232432343520053160000001807835456914116540_);}
	.st11{fill:url(#SVGID_00000076596265522571129030000010196308974316733369_);}
	.st12{clip-path:url(#SVGID_00000168109153785483391350000011205650337474440110_);}
	.st13{opacity:0.5;fill:#FFFFFF;}
	.st14{fill:url(#SVGID_00000076589748755360587910000005872267714216561586_);}
	.st15{fill:url(#SVGID_00000110463669075258040830000006690757352647306893_);}
	.st16{fill:url(#SVGID_00000052073637336931210450000000860965137324569257_);}
	.st17{fill:url(#SVGID_00000175281773671265775030000009649475969295947679_);}
	.st18{fill:url(#SVGID_00000096039955542863027410000007318798266409355419_);}
	.st19{fill:url(#SVGID_00000037663901017527444510000016891760529017435022_);}
	.st20{fill:url(#SVGID_00000047053844701685707120000002157871166843605146_);}
	.st21{fill:url(#SVGID_00000146497600292688623800000011715776720765954974_);}
	.st22{fill:url(#SVGID_00000149357225507597001710000006634512147133766532_);}
	.st23{fill:url(#SVGID_00000119085565697400411180000017060357544771275191_);}
	.st24{opacity:0.4;fill:url(#SVGID_00000135690508622350860260000014197846983028229001_);}
	.st25{fill:url(#SVGID_00000030457526668667910110000004905276608215552657_);}
	.st26{opacity:0.3;}
	.st27{fill:url(#SVGID_00000006685750454113138500000012908440588576412811_);}
	.st28{fill:url(#SVGID_00000077303335740664461860000005570830551344337317_);}
	.st29{opacity:0.4;}
	.st30{fill:url(#SVGID_00000092454125579699094330000016818926441258469762_);}
	.st31{fill:url(#SVGID_00000130631247755788784940000014838342277480563898_);}
	.st32{fill:url(#SVGID_00000019662531923507536200000009975724680808167056_);}
	.st33{fill:url(#SVGID_00000093160163392686221770000002714373647447813534_);}
	.st34{fill:url(#SVGID_00000109724543316498855720000002723577599745180054_);}
	.st35{fill:#A2A7AE;}
	.st36{fill:url(#SVGID_00000084512844167489463490000013793989865325142420_);}
	.st37{fill:url(#SVGID_00000029742129817098408710000003039115186469901209_);}
	.st38{opacity:0.5;}
	.st39{fill:url(#SVGID_00000145745381547229167460000010868085849693040054_);}
	.st40{opacity:0.58;fill:#FFFFFF;}
	.st41{fill:url(#SVGID_00000051354489838198518830000016114422189858561926_);}
	.st42{fill:url(#SVGID_00000075156867327873493910000004038433065863622037_);}
	.st43{opacity:0.3;fill:#D8DEE8;}
	.st44{fill:url(#SVGID_00000101800729364095804130000005801875758562882193_);}
	.st45{fill:url(#SVGID_00000120540966066456367380000015802676019391578782_);}
	.st46{fill:url(#SVGID_00000124128544080602519810000002272949977773815223_);}
	.st47{fill:url(#SVGID_00000071545073067894216220000002534982126498266763_);}
	.st48{fill:url(#SVGID_00000105406624081170528930000006956096925365135533_);}
</style>
<g id="Background">
</g>
<g id="Illustration">
	<g>
		<path class="st0" d="M105.5,0c24.8,0.4,63.3,9.9,74.3,34.1c3.9,8.5,3.6,20.9,3.1,45.9c-0.2,7.3-0.4,18-2.2,31.2
			c-3.7,27.5-6.3,46.2-15.8,57.2c-24,27.3-110.7,26.5-147.8-22.7c-20.2-26.8-23.3-65-4.8-96.6C32.6,14.4,72.2-0.6,105.5,0z"/>
		<g>
			<defs>
				<rect id="SVGID_1_" x="83.1" y="0.6" width="96.2" height="105"/>
			</defs>
			<clipPath id="SVGID_00000005951699698384839210000011677050712035954574_">
				<use xlink:href="#SVGID_1_"  style="overflow:visible;"/>
			</clipPath>
			<g style="clip-path:url(#SVGID_00000005951699698384839210000011677050712035954574_);">
				<g>
					<g>
						<defs>
							<path id="SVGID_00000082351475229952017910000006836586744634784656_" d="M92.6,120.1c-8.7-0.4-21.5-36.6-8.1-53.8
								c5.6-7.2,12.9-7.4,17-16.8c3.6-8.4-0.6-12,1.8-21.5c3.4-13.4,17.1-26.9,28.1-24.6c5.5,1.2,11.3,6.5,12.4,13.3
								c0.9,5.5-4.1,10.4-2.6,11.6c1.2,1,4.1-2.3,6.3-1.4c3.3,1.3,4.5,11.7,0.6,20C141.5,60.8,123.8,59.5,122,70
								c-1.2,6.7,5.6,9.5,3.7,16.3c-1.6,6-7.6,6.5-15.9,13.3C96.9,110,97.3,120.3,92.6,120.1z"/>
						</defs>
						
							<linearGradient id="SVGID_00000017486131909426123320000017253312061701978525_" gradientUnits="userSpaceOnUse" x1="130.5896" y1="18.3893" x2="90.7295" y2="121.4471">
							<stop  offset="3.597120e-03" style="stop-color:#E38DDD"/>
							<stop  offset="1" style="stop-color:#9571F6"/>
						</linearGradient>
						
							<use xlink:href="#SVGID_00000082351475229952017910000006836586744634784656_"  style="overflow:visible;fill:url(#SVGID_00000017486131909426123320000017253312061701978525_);"/>
						<clipPath id="SVGID_00000049908840254741910090000005002586951021287353_">
							<use xlink:href="#SVGID_00000082351475229952017910000006836586744634784656_"  style="overflow:visible;"/>
						</clipPath>
						<g style="opacity:0.5;clip-path:url(#SVGID_00000049908840254741910090000005002586951021287353_);">
							<path class="st3" d="M94,127.9c-0.2,0-0.4-0.1-0.5-0.2c-0.1-0.1-0.1-0.3,0-0.5c0-0.3-0.1-1.1-0.2-2.1
								c-0.5-5.6-2-20.4,3.4-43.1c6.7-28.6,21.6-59,44.2-90.4c0.1-0.2,0.4-0.2,0.6-0.1c0.2,0.1,0.2,0.4,0.1,0.6
								C117.4,25.8,89.5,76.2,94.3,125c0.2,2.2,0.3,2.6-0.1,2.8C94.1,127.8,94.1,127.9,94,127.9z"/>
							<path class="st3" d="M107.9,52.1c-0.2,0-0.4-0.1-0.5-0.3c-0.1-0.2,0.1-0.5,0.3-0.5c19.2-4.5,30.9-10,37.3-13.8
								c6.9-4.1,9.4-7.2,9.4-7.2c0.1-0.2,0.4-0.2,0.6-0.1c0.2,0.1,0.2,0.4,0.1,0.6c-0.1,0.1-2.5,3.2-9.6,7.4
								C139.1,41.9,127.3,47.5,107.9,52.1C107.9,52.1,107.9,52.1,107.9,52.1z"/>
							<path class="st3" d="M116.8,31.9c-0.1,0-0.2,0-0.3,0c-4.9-2.4-7.7-9-8.4-19.7c-0.5-7.9,0.3-15.2,0.4-15.2
								c0-0.2,0.2-0.4,0.5-0.4c0.2,0,0.4,0.2,0.4,0.5c0,0.3-3.4,28.7,7.6,34c0.2,0.1,0.3,0.4,0.2,0.6
								C117,31.8,116.9,31.9,116.8,31.9z"/>
							<path class="st3" d="M96.2,87.6c-0.1,0-0.3,0-0.4-0.1c-6.5-5.6-9-14.4-9.9-20.8c-1-6.9-0.5-12.6-0.5-12.7
								c0-0.2,0.2-0.4,0.5-0.4c0.2,0,0.4,0.2,0.4,0.5c0,0.1-0.5,5.7,0.5,12.5c0.9,6.2,3.4,14.8,9.6,20.2c0.2,0.2,0.2,0.4,0,0.6
								C96.4,87.5,96.3,87.6,96.2,87.6z"/>
						</g>
					</g>
				</g>
				<g>
					<g>
						<defs>
							<path id="SVGID_00000078723456672130691160000017438395220646325182_" d="M102.5,104.2c3.1-15.5,8.2-26.4,12.1-33.3
								c3.1-5.4,7.9-12.7,12.3-12c2.1,0.3,2.6,2.3,4.9,2.5c4.3,0.5,6.9-5.9,11.2-9.5c7.4-6.2,23.3-6.9,30.8,1.8
								c9.1,10.4,2.2,30.1-6.4,33.4c-5.1,2-11.2-1.7-12.7,0.7c-1.4,2.4,4.5,6.5,3.2,10.8c-1.3,4.4-9.3,5.6-9.8,5.7
								c-9.7,1.3-13.8-6-23.2-7.5C119.9,96.2,112.4,97,102.5,104.2z"/>
						</defs>
						
							<linearGradient id="SVGID_00000039848576534373705930000009151836447071888043_" gradientUnits="userSpaceOnUse" x1="152.1348" y1="66.429" x2="116.7023" y2="106.0624">
							<stop  offset="0" style="stop-color:#FFC444"/>
							<stop  offset="0.9964" style="stop-color:#F36F56"/>
						</linearGradient>
						
							<use xlink:href="#SVGID_00000078723456672130691160000017438395220646325182_"  style="overflow:visible;fill:url(#SVGID_00000039848576534373705930000009151836447071888043_);"/>
						<clipPath id="SVGID_00000021102699805811887340000010507890011277274764_">
							<use xlink:href="#SVGID_00000078723456672130691160000017438395220646325182_"  style="overflow:visible;"/>
						</clipPath>
						<g style="clip-path:url(#SVGID_00000021102699805811887340000010507890011277274764_);">
							<g>
								<path class="st5" d="M96,115.1l0.2,0.1c15.7-33.6,49.6-54.4,90.8-55.4l0-0.2c-19.5,0.5-38.1,5.6-53.8,14.8
									C116.8,84,103.9,98.1,96,115.1z"/>
								<path class="st5" d="M106.4,61.1c3.3,9.6,3.7,25.7,0.8,36l0.2,0.1c2.9-10.3,2.5-26.5-0.8-36.1L106.4,61.1z"/>
								<path class="st5" d="M99.2,108.5l0.2,0.2c3.6-4.2,9.2-6.3,16.6-6.5c5.4-0.1,11.7,0.9,18.6,3l0.1-0.2
									c-6.9-2.1-13.2-3.1-18.7-3C108.5,102.1,102.9,104.3,99.2,108.5z"/>
								<path class="st5" d="M135.5,73.1l0.2,0.2c7.2-7.5,9-18.3,9.2-26.1l-0.2,0C144.5,54.9,142.7,65.7,135.5,73.1z"/>
								<path class="st5" d="M157.6,64l0,0.2c11.7-1.1,22.2,5.5,27.3,9.5l0.1-0.2C179.9,69.5,169.4,62.9,157.6,64z"/>
							</g>
						</g>
					</g>
				</g>
			</g>
		</g>
		<g>
			<path class="st6" d="M133.8,24.2L19.5,17.8c-2.6-0.1-5,2.6-5,5v141.4c0,3.2,3.4,3.9,6.1,3.6l113.3-11.1c2.1-0.2,3.7-2,3.7-4.1
				V28.1C137.5,26,135.9,24.3,133.8,24.2z"/>
			<path class="st7" d="M135.7,23.1L21.1,17.7c-2.6-0.1-4.8,1.7-4.8,4v142.5c0,2.3,2.1,4,4.8,3.8l114.5-11.3c2.1-0.2,3.7-2,3.7-4.1
				V27C139.4,24.9,137.7,23.2,135.7,23.1z"/>
			<path class="st8" d="M21.1,165.9c-1.4,0.1-2.6-0.8-2.6-2V21.8c0-1.3,1.2-2.2,2.6-2.2l114.5,5.2c1.1,0.1,2,1,2,2.1v125.7
				c0,1.1-0.9,2.1-2,2.2L21.1,165.9z"/>
			<polygon class="st3" points="128.3,151.5 30.3,160.5 30.3,29.4 128.3,32.9 			"/>
			<path class="st9" d="M89.1,33.6L50,34l0.9-8.5c0.1-1.1,0.9-2,2-2.2l6.6-1c0.8-0.1,1.5-0.6,1.8-1.3l0.7-1.5l17.3,1L89.1,33.6z"/>
			
				<linearGradient id="SVGID_00000155849261861709539940000000478897005168907184_" gradientUnits="userSpaceOnUse" x1="49.9569" y1="20.4366" x2="111.5046" y2="20.4366">
				<stop  offset="0" style="stop-color:#444B8C"/>
				<stop  offset="0.9964" style="stop-color:#26264F"/>
			</linearGradient>
			<path style="fill:url(#SVGID_00000155849261861709539940000000478897005168907184_);" d="M110,28.1c-0.2-1-1-1.6-2-1.7l-6.3-0.3
				c-2.8-0.1-4.9-2.3-4.8-5.1l0.2-6.5c0-1.2-0.8-2.2-2.1-2.2l-2.1-0.1c-1.6-0.1-2.6-1.4-2.4-3c0.4-2.7-1.5-5-4.3-5.2
				c-2.8-0.2-5.4,1.9-5.8,4.6c-0.1,0.4-0.2,0.8-0.4,1.2c-0.6,1-1.8,1.5-2.9,1.5l-2.1-0.1c-1.3-0.1-2.5,0.8-2.8,2l-1.8,6.6
				c-0.8,2.9-3.6,4.9-6.7,4.8L57,24.2c-1.1,0-2.2,0.6-2.7,1.6l-4.1,7.9c-0.3,0.6,0.1,1.3,0.8,1.4l59.5,1.9c0.7,0,1.2-0.6,1.1-1.2
				L110,28.1z M85.5,9.6c-0.8,0-1.4-0.7-1.3-1.5c0.1-0.8,0.9-1.4,1.7-1.3c0.8,0.1,1.4,0.7,1.3,1.5C87.1,9.1,86.3,9.7,85.5,9.6z"/>
			<path class="st6" d="M110.4,28.2c-0.2-1-1-1.6-2-1.7l-6.3-0.3c-2.8-0.1-4.9-2.3-4.8-5.1l0.2-6.5c0-1.2-0.8-2.2-2.1-2.2l-2.1-0.1
				c-1.6-0.1-2.6-1.4-2.4-3c0.4-2.7-1.5-5-4.3-5.2C83.9,4,81.3,6,80.9,8.7c-0.1,0.4-0.2,0.8-0.4,1.2c-0.6,1-1.8,1.5-2.9,1.5
				l-2.1-0.1c-1.3-0.1-2.5,0.8-2.8,2l-1.8,6.6c-0.8,2.9-3.6,4.9-6.7,4.8l-6.9-0.3c-1.1,0-2.2,0.6-2.7,1.6l-4.1,7.9
				c-0.3,0.6,0.1,1.3,0.8,1.4l59.5,1.9c0.7,0,1.2-0.6,1.1-1.2L110.4,28.2z M85.9,9.8c-0.8,0-1.4-0.7-1.3-1.5
				c0.1-0.8,0.9-1.4,1.7-1.3c0.8,0.1,1.4,0.7,1.3,1.5C87.4,9.2,86.7,9.8,85.9,9.8z"/>
			<g>
				
					<linearGradient id="SVGID_00000119803562841887158630000001222689480395500971_" gradientUnits="userSpaceOnUse" x1="56.7362" y1="62.6408" x2="137.2861" y2="157.3144">
					<stop  offset="0" style="stop-color:#FF9085"/>
					<stop  offset="1" style="stop-color:#FB6FBB"/>
				</linearGradient>
				<path style="fill:url(#SVGID_00000119803562841887158630000001222689480395500971_);" d="M117.4,137.2l-5.5-25.7
					c-1-5.7,0.9-11.6,5.1-15.9h0c2.3-2.3,3.7-5.3,4.1-8.5c0.5-4.9,0.4-13-2.9-22.9c-4.4-13.2-18.2-21.7-33.1-20
					C77.5,45,68.6,47,59,51.3c-5.6,2.5-9.5,7.5-10.1,13.2c-0.3,2.7-0.8,5.6-1.8,8.3c-1.2,3.3-1.8,5.6-2,7.1
					c-0.2,1.3,0.4,2.7,1.5,3.5l0,0c1.2,0.9,1.5,2.4,0.7,3.6l-8.6,13.7v0.4c0,1.4,1.2,2.4,2.7,2.5l5.2,0.1l-0.2,4.8
					c0,0.9,0.6,1.7,1.6,1.9l1.2,0.2l-1.1,0.8c-0.9,0.7-1.1,1.8-0.5,2.6l1.5,2.3c0.7,1,0.6,2.4-0.2,3.4l0,0c-1.4,1.7-1.7,3.9-0.7,5.7
					l0.4,0.8c1.9,3.8,6.5,5.6,11.1,4.5c5.1-1.2,11.6-3.1,15.9-5.3c1.2-0.6,2.7,0.1,2.7,1.4v13L117.4,137.2z"/>
				<g>
					<defs>
						<path id="SVGID_00000177464286213971221840000013029394993928439726_" d="M68.5,79.1c-4-0.9-5.3,0.7-8.5-0.5
							c-4-1.5-6.9-5.4-7.4-9.4c-0.7-5.6,3.7-9.8,6.8-12.7c7-6.6,15.4-8.1,17.9-8.5c3.3-0.6,17.7-2.5,29,7
							c7.9,6.5,9.8,14.8,10.3,17.3c0.8,3.6,3.2,14.8-3.1,19.2c-3.8,2.6-9.8,2.3-13.6,0.1c-2.8-1.6-2.2-2.8-5-4.4
							c-5.6-3.2-9.4,0.8-16-1.7C73.5,83.6,74,80.3,68.5,79.1z"/>
					</defs>
					
						<linearGradient id="SVGID_00000165922119990409526360000017317431782060851330_" gradientUnits="userSpaceOnUse" x1="77.8831" y1="85.1349" x2="116.8331" y2="33.7425">
						<stop  offset="0" style="stop-color:#AA80F9"/>
						<stop  offset="0.9964" style="stop-color:#6165D7"/>
					</linearGradient>
					
						<use xlink:href="#SVGID_00000177464286213971221840000013029394993928439726_"  style="overflow:visible;fill:url(#SVGID_00000165922119990409526360000017317431782060851330_);"/>
					<clipPath id="SVGID_00000182509130849053480280000000442175498475095689_">
						<use xlink:href="#SVGID_00000177464286213971221840000013029394993928439726_"  style="overflow:visible;"/>
					</clipPath>
					<g style="clip-path:url(#SVGID_00000182509130849053480280000000442175498475095689_);">
						<path class="st13" d="M100.7,70v-4.4c-0.6,0.5-1.3,0.8-2,0.7C98,66.3,97.3,65.8,97,65c-0.4-0.8-0.4-1.5-0.1-2.1
							c0.3-0.5,0.9-0.9,1.7-0.9c0.9-0.1,1.5,0.3,1.8,0.5c0.1,0,0.1,0,0.2,0c0,0,0.1,0,0.1-0.1v-3.8l4.6,0c0.2,0,0.4,0.1,0.5,0.3
							c0.1,0.2,0.1,0.4,0,0.6c-0.2,0.4-0.5,1.1-0.6,1.7c-0.1,0.4,0.1,0.8,0.4,1.1c0.5,0.5,1.3,0.7,2.1,0.6c0.5-0.1,1-0.4,1.3-0.8
							c0.3-0.4,0.5-1,0.4-1.4c0-0.3-0.3-0.6-0.6-1.1h0c-0.1-0.2-0.2-0.4-0.1-0.6c0.1-0.2,0.3-0.4,0.6-0.4c0,0,0,0,0,0l4.5,0v3.6
							c0,0.1,0.1,0.2,0.1,0.2c0.1,0,0.2,0,0.3,0c0.4-0.3,1-0.6,1.7-0.5c1.3,0.2,1.7,0.9,1.9,2c0.1,0.6-0.3,1.3-1.1,1.7
							c-0.9,0.5-1.8,0.5-2.5,0c-0.1-0.1-0.2-0.1-0.3,0c-0.1,0-0.1,0.1-0.1,0.2V70l-4.4,0c0,0,0,0,0,0c-0.2,0-0.5-0.1-0.6-0.3
							c-0.1-0.2-0.1-0.4,0-0.6c0.5-0.9,0.7-1.7,0.3-2.3c-0.3-0.6-0.9-0.9-1.6-0.9c0,0,0,0,0,0c-1,0-1.8,0.5-2.2,0.9
							c-0.3,0.3-0.5,0.7-0.5,1c0,0.3,0.2,0.8,0.5,1.4c0.1,0.2,0.1,0.4,0,0.6c-0.1,0.2-0.3,0.3-0.6,0.3L100.7,70z M101,65v4.7l3.9,0
							c0.2,0,0.3-0.1,0.4-0.2c0.1-0.1,0.1-0.3,0-0.4c-0.4-0.6-0.6-1.1-0.6-1.5c0-0.4,0.2-0.8,0.5-1.2c0.6-0.6,1.5-1,2.4-1
							c0.8,0,1.4,0.4,1.8,1c0.4,0.7,0.3,1.6-0.3,2.6c-0.1,0.1-0.1,0.3,0,0.4c0.1,0.1,0.2,0.2,0.4,0.2c0,0,0,0,0,0l4.2,0v-3.6
							c0-0.2,0.1-0.4,0.3-0.4c0.2-0.1,0.4-0.1,0.6,0.1c0.6,0.5,1.5,0.5,2.2,0c0.6-0.4,1-1,1-1.5c-0.2-1.2-0.6-1.7-1.7-1.8
							c-0.6-0.1-1.2,0.2-1.5,0.4c-0.2,0.1-0.4,0.1-0.5,0c-0.2-0.1-0.3-0.3-0.3-0.4v-3.4l-4.2,0c0,0,0,0,0,0c-0.2,0-0.3,0.1-0.3,0.2
							c-0.1,0.1,0,0.3,0,0.4h0c0.4,0.5,0.6,0.9,0.7,1.2c0.1,0.4-0.1,1-0.5,1.5c-0.4,0.5-0.9,0.9-1.5,0.9c-0.8,0.1-1.8-0.2-2.3-0.7
							c-0.4-0.4-0.5-0.8-0.4-1.3c0.1-0.7,0.4-1.4,0.6-1.8c0.1-0.1,0.1-0.2,0-0.4c-0.1-0.1-0.2-0.2-0.3-0.2l-4.4,0v3.5
							c0,0.1-0.1,0.3-0.2,0.3c-0.1,0.1-0.3,0-0.4-0.1c-0.3-0.3-0.8-0.5-1.6-0.5c-0.7,0-1.2,0.3-1.5,0.8c-0.3,0.5-0.2,1.2,0.1,1.9
							c0.3,0.7,0.9,1.1,1.6,1.2c0.7,0.1,1.4-0.2,2-0.8L101,65z"/>
						<path class="st13" d="M107.6,85.1C107.6,85.1,107.6,85.1,107.6,85.1c-0.9-0.1-1.8-0.4-2.3-1c-0.2-0.3-0.3-0.6-0.2-0.9
							c0.1-0.4,0.3-0.9,0.6-1.4c0.1-0.1,0.1-0.2,0-0.3c-0.1-0.1-0.2-0.2-0.3-0.2l-4.5,0.1V77c0-0.1,0.1-0.3,0.2-0.3
							c0.1-0.1,0.3-0.1,0.4,0c0.4,0.3,0.9,0.4,1.6,0.4c0.9,0,1.7-0.6,1.9-1.4c0.2-0.7-0.2-1.3-0.9-1.7c-1.9-1-3.1,0.2-3.1,0.3
							l-0.2,0.2v-4.7l4.1,0c0.2,0,0.3-0.1,0.4-0.2c0.1-0.1,0.1-0.3,0-0.4c-0.4-0.6-0.6-1.1-0.6-1.5c0-0.4,0.2-0.8,0.5-1.2
							c0.6-0.6,1.5-1,2.4-1c0.8,0,1.4,0.4,1.8,1c0.4,0.7,0.3,1.6-0.3,2.6l0,0c-0.1,0.1-0.1,0.3,0,0.4c0.1,0.1,0.2,0.2,0.4,0.2
							c0,0,0,0,0,0l4.4,0v3.4c0,0.1,0,0.2,0.1,0.2c0.1,0,0.2,0,0.3,0c0.5-0.3,1-0.3,1.7-0.2c1.7,0.5,1.6,1.6,1.3,3
							c-0.1,0.5-0.5,1-1,1.2c-0.6,0.2-1.4,0.1-2-0.3c-0.1-0.1-0.2-0.1-0.3,0c-0.1,0-0.2,0.1-0.2,0.2v3.8l-4.2,0.1
							c-0.1,0-0.3,0.1-0.3,0.2c-0.1,0.1,0,0.2,0,0.3c0.7,1,0.5,1.7,0.2,2.2C109.1,84.6,108.2,85.1,107.6,85.1z M105.4,81
							c0.2,0,0.4,0.1,0.5,0.3c0.1,0.2,0.1,0.4,0,0.6c-0.3,0.5-0.5,0.9-0.5,1.3c0,0.3,0,0.5,0.2,0.7c0.4,0.5,1.3,0.8,2,0.9
							c0.4,0,1.3-0.3,1.7-1.1c0.2-0.4,0.4-1.1-0.2-2c-0.1-0.2-0.1-0.4,0-0.6c0.1-0.2,0.3-0.3,0.5-0.3l3.9-0.1v-3.6
							c0-0.2,0.1-0.4,0.3-0.5c0.2-0.1,0.4-0.1,0.5,0c0.5,0.4,1.2,0.5,1.7,0.3c0.5-0.2,0.8-0.5,0.8-1c0.3-1.6,0.2-2.4-1.1-2.7
							c-0.6-0.2-1.1-0.1-1.5,0.2c-0.2,0.1-0.4,0.1-0.5,0c-0.2-0.1-0.2-0.2-0.2-0.4V70l-4.2,0c0,0,0,0,0,0c-0.2,0-0.5-0.1-0.6-0.3
							c-0.1-0.2-0.1-0.4,0-0.6c0.5-0.9,0.7-1.7,0.3-2.3c-0.3-0.6-0.9-0.9-1.6-0.9c0,0,0,0,0,0c-1,0-1.8,0.5-2.2,0.9
							c-0.3,0.3-0.5,0.7-0.5,1c0,0.3,0.2,0.8,0.5,1.4c0.1,0.2,0.1,0.4,0,0.6c-0.1,0.2-0.3,0.3-0.6,0.3l-3.9,0v3.8
							c0.5-0.3,1.6-1,3.2-0.1c0.9,0.5,1.2,1.2,1,2c-0.2,0.9-1.1,1.6-2.1,1.6c-0.7,0-1.3-0.2-1.8-0.5c0,0-0.1,0-0.2,0
							c-0.1,0-0.1,0.1-0.1,0.1V81L105.4,81C105.4,81,105.4,81,105.4,81z"/>
						<path class="st13" d="M87.9,81.5v-4.4c0-0.2,0.1-0.3,0.3-0.4c0.2-0.1,0.4-0.1,0.5,0c0.4,0.3,1.1,0.6,1.7,0.4
							c0.5-0.1,1-0.6,1.4-1.3c0.2-0.4,0.2-0.8,0-1.1c-0.3-0.6-1-1-1.8-1c-0.8-0.1-1.3,0.1-1.7,0.3c-0.2,0.1-0.4,0.1-0.5,0
							c-0.1-0.1-0.2-0.3-0.2-0.4v-3.8l4.7,0c0,0,0,0,0,0c0.2,0,0.5,0.1,0.6,0.3c0.1,0.2,0.1,0.4,0,0.6c-0.2,0.5-0.4,1-0.4,1.5
							c0,0.5,0.1,1,0.4,1.3c0.4,0.5,1.2,0.7,2,0.6c0.6,0,1.3-0.5,1.6-1.2c0.3-0.7,0.2-1.4-0.3-2.1c-0.1-0.2-0.2-0.4-0.1-0.6
							c0.1-0.2,0.3-0.4,0.6-0.4l4.1,0v4.1c0.5-0.3,1.6-1,3.2-0.1c0.9,0.5,1.2,1.2,1,2c-0.2,0.9-1.1,1.6-2.1,1.6
							c-0.7,0-1.3-0.2-1.8-0.5c0,0-0.1,0-0.2,0c-0.1,0-0.1,0.1-0.1,0.1v4.3l-4.4,0.1c0,0,0,0,0,0c-0.2,0-0.4-0.1-0.5-0.3
							c-0.1-0.2-0.1-0.4,0-0.6c0.2-0.4,0.5-0.9,0.5-1.5c0-1.2-1-2-1.9-2.1c-0.6,0-1.4,0.4-2,0.9c-0.4,0.3-0.6,0.7-0.6,1
							c0,0.5,0.3,1.2,0.6,1.8c0.1,0.2,0.1,0.4,0,0.6c-0.1,0.2-0.3,0.3-0.5,0.3L87.9,81.5z M88.4,76.9c0,0-0.1,0-0.1,0
							c-0.1,0-0.1,0.1-0.1,0.2v4.1l4.2-0.1c0.1,0,0.3-0.1,0.3-0.2c0.1-0.1,0.1-0.2,0-0.3c-0.3-0.6-0.7-1.4-0.7-1.9
							c0-0.3,0.2-0.8,0.6-1.2c0.6-0.6,1.5-1,2.1-1c1.2,0.1,2.1,1.1,2.1,2.3c0,0.5-0.2,1.1-0.5,1.7c-0.1,0.1-0.1,0.2,0,0.3
							c0.1,0.1,0.2,0.2,0.3,0.2c0,0,0,0,0,0l4.2-0.1V77c0-0.1,0.1-0.3,0.2-0.3c0.1-0.1,0.3-0.1,0.4,0l0,0c0.4,0.3,0.9,0.4,1.6,0.4
							c0.9,0,1.7-0.6,1.9-1.4c0.2-0.7-0.2-1.3-0.9-1.7c-1.9-1-3.1,0.2-3.1,0.3l-0.2,0.2V70l-3.9,0c-0.2,0-0.3,0.1-0.4,0.2
							c-0.1,0.1-0.1,0.3,0,0.4c0.6,0.8,0.7,1.6,0.3,2.4c-0.3,0.7-1.1,1.3-1.8,1.3c-0.9,0.1-1.7-0.2-2.2-0.7
							c-0.4-0.4-0.6-0.9-0.5-1.5c0-0.6,0.2-1.1,0.5-1.6c0.1-0.1,0.1-0.3,0-0.4c-0.1-0.1-0.2-0.2-0.4-0.2c0,0,0,0,0,0l-4.5,0v3.6
							c0,0.1,0,0.2,0.1,0.2c0.1,0.1,0.2,0.1,0.3,0c0.5-0.3,1.1-0.4,1.8-0.3c0.9,0.1,1.7,0.5,2,1.2c0.2,0.5,0.2,0.9,0,1.4
							c-0.4,0.8-1,1.2-1.6,1.4c-0.7,0.2-1.5-0.1-1.9-0.4C88.5,76.9,88.5,76.9,88.4,76.9z"/>
						<path class="st13" d="M126.1,59.1l-4.2,0c-0.2,0-0.4-0.1-0.6-0.3c-0.1-0.2-0.1-0.4,0-0.6c0.3-0.4,0.5-0.8,0.6-1.1
							c0.1-0.3,0-0.7-0.3-1.1c-0.4-0.6-1.1-1-1.8-1.1c-0.5,0-1.2,0.2-1.6,0.6c-0.4,0.3-0.6,0.7-0.6,1c0,0.3,0.2,1,0.5,1.8
							c0.1,0.2,0,0.4-0.1,0.6c-0.1,0.2-0.3,0.3-0.5,0.3c0,0,0,0,0,0l-4.1,0v-4c0-0.2,0.1-0.4,0.3-0.4c0.2-0.1,0.4-0.1,0.5,0.1
							c0.5,0.4,1.1,0.5,1.7,0.4c0.5-0.1,0.8-0.5,1-0.9c0.3-0.7,0.3-1.4,0-1.9c-0.2-0.4-0.6-0.6-1.2-0.7l0,0c-1.3-0.2-2,0.7-2.1,0.7
							l-0.2,0.3v-4.7l4.2-0.1c0.2,0,0.4,0.1,0.5,0.3c0.1,0.2,0.1,0.4,0.1,0.6c-0.2,0.5-0.5,1.3-0.5,2c0,0.5,0.3,0.9,0.6,1
							c0.6,0.4,1.4,0.5,2.1,0.2c0.5-0.2,0.9-0.7,1.1-1.2c0.2-0.6,0.1-1.3-0.3-1.9c-0.1-0.2-0.1-0.4,0-0.6c0.1-0.2,0.3-0.3,0.5-0.3
							l4,0.1v0.1c0,1,0,2.2,0,3.1c0,0.1,0.1,0.2,0.1,0.2c0.1,0,0.2,0,0.3,0c0.5-0.4,1.4-0.9,2.5,0.3c0.9,1,0.8,2.5,0.2,3.3
							c-0.6,0.7-1.5,0.8-2.5,0.3c-0.1,0-0.2,0-0.3,0c-0.1,0-0.1,0.1-0.1,0.2V59.1z M119.8,54.6c0,0,0.1,0,0.1,0
							c0.7,0.1,1.5,0.5,2,1.2c0.3,0.5,0.4,0.9,0.3,1.3c-0.1,0.4-0.3,0.8-0.6,1.2c-0.1,0.1-0.1,0.2,0,0.4c0.1,0.1,0.2,0.2,0.3,0.2
							l4,0v-3.5c0-0.2,0.1-0.3,0.2-0.4c0.2-0.1,0.3-0.1,0.5,0c0.9,0.5,1.6,0.4,2.1-0.2c0.6-0.7,0.6-2.1-0.2-3
							c-0.7-0.8-1.4-0.8-2.1-0.3c-0.1,0.1-0.3,0.2-0.5,0.1c-0.2-0.1-0.3-0.2-0.3-0.4c0-0.8,0-2,0-3l-3.7-0.1c-0.1,0-0.3,0.1-0.3,0.2
							c-0.1,0.1-0.1,0.3,0,0.4c0.4,0.6,0.5,1.4,0.3,2.1c-0.2,0.6-0.7,1.2-1.2,1.4c-0.7,0.3-1.7,0.2-2.3-0.2
							c-0.4-0.3-0.7-0.7-0.7-1.3c0-0.7,0.3-1.6,0.5-2.1c0-0.1,0-0.2,0-0.3c-0.1-0.1-0.2-0.2-0.3-0.2l-4,0.1v3.8
							c0.3-0.3,1-0.8,2.1-0.6l0,0c0.6,0.1,1.1,0.4,1.4,0.8c0.3,0.5,0.3,1.3,0,2.1c-0.2,0.5-0.6,0.9-1.1,1.1c-0.6,0.2-1.3,0-1.9-0.4
							c-0.1-0.1-0.2-0.1-0.3,0c-0.1,0-0.1,0.1-0.1,0.2v3.7l3.8,0c0,0,0,0,0,0c0.1,0,0.2-0.1,0.3-0.2c0.1-0.1,0.1-0.2,0-0.3
							c-0.2-0.6-0.5-1.4-0.5-1.9c0-0.4,0.2-0.8,0.6-1.2C118.6,54.8,119.3,54.6,119.8,54.6z"/>
						<path class="st13" d="M100.9,58.9l-4.1,0c-0.3,0-0.5-0.1-0.6-0.4c-0.1-0.2-0.1-0.4,0.1-0.6c0.3-0.3,0.4-0.6,0.4-1
							c0.1-1.2-0.9-2.3-2.1-2.4c-0.7-0.1-1.4,0.2-1.9,0.7c-0.4,0.4-0.6,0.9-0.5,1.3c0.1,0.5,0.3,0.9,0.5,1.5c0.1,0.2,0.1,0.4,0,0.6
							c-0.1,0.2-0.3,0.3-0.6,0.3c0,0,0,0,0,0l-4.7,0v-4c0-0.1,0-0.2-0.1-0.2c-0.1-0.1-0.2-0.1-0.3,0c-0.9,0.4-2.5,0.8-3-0.4
							c-0.4-0.9-0.4-2,0-2.8c0.3-0.4,0.7-0.7,1.1-0.8c0.7-0.1,1.4,0.3,1.8,0.5l0,0c0.1,0.1,0.2,0.1,0.3,0c0.1,0,0.1-0.1,0.1-0.2
							v-3.9l4.7,0.1c0.2,0,0.4,0.1,0.5,0.3c0.1,0.2,0.1,0.4,0.1,0.5c-0.1,0.4-0.3,1.1-0.5,1.7c-0.1,0.5,0.1,1,0.6,1.4
							c0.5,0.5,1.1,0.7,1.6,0.6c1-0.2,2.2-0.9,2.1-2.1c0-0.4-0.2-0.8-0.6-1.2C96,48.3,96,48,96.1,47.8c0.1-0.2,0.3-0.4,0.6-0.4
							l4.2,0.1v4c0,0.1,0.1,0.1,0.1,0.1c0.1,0,0.1,0,0.2,0c0.7-0.4,2.1-0.9,3.3-0.1c0.4,0.3,0.6,0.7,0.5,1.3
							c-0.1,0.9-0.8,1.9-1.6,2.2c-0.5,0.2-1.3,0.3-2.2-0.4c-0.1,0-0.1,0-0.2,0c0,0-0.1,0-0.1,0.1V58.9z M94.4,54.2
							c0.1,0,0.2,0,0.2,0c1.3,0.1,2.4,1.3,2.3,2.7c0,0.4-0.2,0.8-0.5,1.1c-0.1,0.1-0.1,0.2,0,0.4c0.1,0.1,0.2,0.2,0.4,0.2l3.8,0
							v-3.9c0-0.1,0.1-0.3,0.2-0.3c0.1-0.1,0.3,0,0.4,0.1c0.8,0.7,1.5,0.6,2,0.4c0.8-0.3,1.4-1.2,1.5-2c0-0.5-0.1-0.8-0.4-1.1
							c-1.1-0.7-2.4-0.2-3.1,0.1c-0.1,0.1-0.3,0.1-0.4,0c-0.1-0.1-0.2-0.2-0.2-0.3v-3.8l-4-0.1c0,0,0,0,0,0c-0.2,0-0.3,0.1-0.4,0.2
							c-0.1,0.1,0,0.3,0,0.4c0.4,0.4,0.6,0.9,0.6,1.4c0.1,1.3-1.1,2.1-2.3,2.4c-0.6,0.1-1.3-0.1-1.8-0.6c-0.5-0.5-0.7-1-0.6-1.6
							c0.1-0.7,0.3-1.3,0.5-1.8c0-0.1,0-0.2-0.1-0.3c-0.1-0.1-0.2-0.2-0.3-0.2l-4.5-0.1v3.6c0,0.2-0.1,0.3-0.3,0.4
							c-0.2,0.1-0.4,0.1-0.5,0l0,0c-0.4-0.3-1.1-0.5-1.7-0.5c-0.5,0-0.8,0.4-0.9,0.6c-0.4,0.7-0.4,1.7,0,2.5c0.4,1,1.9,0.6,2.7,0.2
							c0.2-0.1,0.4,0,0.5,0.1c0.1,0.1,0.2,0.3,0.2,0.4v3.8l4.5,0c0.1,0,0.3-0.1,0.4-0.2c0.1-0.1,0.1-0.2,0-0.4
							c-0.3-0.5-0.5-1.1-0.6-1.5c-0.1-0.5,0.1-1.1,0.5-1.5C93.1,54.5,93.8,54.2,94.4,54.2z"/>
						
							<linearGradient id="SVGID_00000069387594432320764630000011883505368519264653_" gradientUnits="userSpaceOnUse" x1="104.2697" y1="49.2015" x2="117.7898" y2="67.4834">
							<stop  offset="0" style="stop-color:#FF9085"/>
							<stop  offset="1" style="stop-color:#FB6FBB"/>
						</linearGradient>
						<path style="fill:url(#SVGID_00000069387594432320764630000011883505368519264653_);" d="M101.2,51.8c0.7-0.4,2-0.9,3.2-0.1
							c1.5,1-0.8,4.9-3.2,2.9c-0.2-0.1-0.4,0-0.4,0.2v4l4.5,0c0.4,0,0.6,0.4,0.5,0.7c-0.2,0.5-0.5,1.1-0.6,1.8
							c-0.2,1.3,1.3,2,2.6,1.9c1.3-0.2,2-1.6,1.9-2.3c-0.1-0.3-0.4-0.8-0.7-1.2c-0.3-0.3,0-0.8,0.4-0.8l4.3,0v-3.9
							c0-0.3,0.4-0.5,0.6-0.3c1.1,0.8,2.4,0.5,2.8-0.6c0.5-1.3,0.1-2.5-1.3-2.7c-1.4-0.2-2.2,0.8-2.2,0.8s0-2.4,0-4.2l-4.3,0.1
							c-0.4,0-0.7-0.4-0.4-0.8c0.3-0.4,0.6-1,0.7-1.6c0.2-1.3-0.9-2.6-2.1-2.6c-1.2,0-2.7,1-2.3,2.6c0.1,0.6,0.3,1,0.4,1.3
							c0.1,0.3-0.1,0.7-0.5,0.7l-4.2-0.1v3.9C100.7,51.8,101,51.9,101.2,51.8z"/>
						<path class="st13" d="M81.4,63.3c-0.7,0-1.4-0.2-1.8-0.7c-0.5-0.4-0.7-1-0.7-1.7c0-0.5,0.2-1.1,0.4-1.5c0.1-0.1,0-0.2,0-0.3
							c-0.1-0.1-0.2-0.2-0.4-0.2l-4.1,0v-3.6c0-0.2,0.1-0.4,0.3-0.6c0.2-0.1,0.5-0.2,0.7-0.1c0.9,0.4,2.1,0.4,2.7-0.2
							c0.4-0.4,0.4-1.1-0.1-2c-0.4-0.8-0.9-1.3-1.4-1.4c-0.4-0.1-0.8-0.1-1.2,0.1l0,0c-0.2,0.1-0.5,0.1-0.8,0
							c-0.2-0.1-0.3-0.4-0.3-0.6v-3.5l4.3,0.1c0.3,0,0.5,0.2,0.7,0.4c0.1,0.2,0.1,0.5-0.1,0.7c-0.4,0.6-0.7,1.1-0.7,1.6
							c0,0.4,0.1,0.8,0.5,1.1c0.5,0.5,1.3,0.8,2.1,0.8c0.5,0,1-0.3,1.4-0.7c0.4-0.4,0.6-1,0.5-1.5c0-0.4-0.2-0.8-0.5-1.2
							c-0.2-0.2-0.2-0.5-0.1-0.7c0.1-0.2,0.4-0.4,0.6-0.4l4.1,0.1v3.9c0,0.2-0.1,0.3-0.3,0.4c-0.2,0.1-0.4,0.1-0.5,0
							c-0.4-0.3-1.1-0.5-1.7-0.5c-0.5,0-0.8,0.4-0.9,0.6c-0.4,0.7-0.4,1.7,0,2.5c0.4,1,1.9,0.6,2.7,0.2c0.2-0.1,0.4,0,0.5,0.1
							c0.1,0.1,0.2,0.3,0.2,0.4v4l-4.6,0c0,0,0,0,0,0c-0.2,0-0.3,0.1-0.4,0.2c-0.1,0.1-0.1,0.3,0,0.4c0.5,0.7,0.8,1.2,0.9,1.5
							c0.1,0.4,0,0.9-0.3,1.4c-0.2,0.4-0.7,0.9-1.7,1C81.7,63.2,81.5,63.3,81.4,63.3z M75,58.5l3.8,0c0.2,0,0.5,0.1,0.6,0.3
							c0.1,0.2,0.1,0.4,0,0.6c-0.2,0.5-0.3,0.9-0.3,1.4c0,0.6,0.2,1.1,0.6,1.5c0.5,0.5,1.3,0.7,2.1,0.6c0.9-0.1,1.3-0.5,1.5-0.9
							c0.3-0.4,0.3-0.9,0.2-1.2c-0.1-0.3-0.4-0.7-0.8-1.4c-0.1-0.2-0.2-0.4-0.1-0.6c0.1-0.2,0.3-0.3,0.6-0.4l4.3,0v-3.7
							c0-0.1,0-0.2-0.1-0.2c-0.1-0.1-0.2-0.1-0.3,0c-0.9,0.4-2.5,0.8-3-0.4c-0.4-0.9-0.4-2,0-2.8c0.3-0.4,0.7-0.7,1.1-0.8
							c0.7-0.1,1.4,0.3,1.8,0.5c0.1,0.1,0.2,0.1,0.3,0c0.1,0,0.1-0.1,0.1-0.2v-3.6l-3.9-0.1c-0.2,0-0.3,0.1-0.4,0.2
							c-0.1,0.1-0.1,0.3,0,0.5c0.3,0.5,0.5,0.9,0.5,1.3c0,0.6-0.2,1.2-0.6,1.7c-0.4,0.5-1,0.7-1.6,0.8c-0.8,0-1.7-0.3-2.3-0.9
							c-0.4-0.4-0.6-0.8-0.5-1.3c0-0.5,0.3-1.1,0.7-1.7c0.1-0.1,0.1-0.3,0-0.4c-0.1-0.2-0.3-0.3-0.4-0.3L75,47.2v3.2
							c0,0.2,0.1,0.3,0.2,0.4c0.2,0.1,0.4,0.1,0.5,0c0.5-0.2,0.9-0.3,1.4-0.1c0.6,0.2,1.1,0.7,1.5,1.6c0.6,1.3,0.4,2,0,2.3
							c-0.7,0.7-2,0.7-3,0.3c-0.2-0.1-0.3-0.1-0.5,0c-0.1,0.1-0.2,0.2-0.2,0.4V58.5z"/>
						
							<linearGradient id="SVGID_00000142898309197121683780000007329867967955520174_" gradientUnits="userSpaceOnUse" x1="65.4556" y1="57.1485" x2="152.1413" y2="159.0338">
							<stop  offset="0" style="stop-color:#FF9085"/>
							<stop  offset="1" style="stop-color:#FB6FBB"/>
						</linearGradient>
						<path style="fill:url(#SVGID_00000142898309197121683780000007329867967955520174_);" d="M88.6,76.8c0.8,0.5,2.2,1,3.3-0.9
							c0.6-1-0.3-2.2-1.9-2.4c-0.8-0.1-1.4,0.1-1.7,0.3c-0.3,0.1-0.6-0.1-0.6-0.3v-3.7l-4.3,0c-0.4,0-0.7-0.4-0.5-0.8
							c1.5-2.4-0.9-3.5-1.5-3.4c-0.7,0-2.7,0.4-2.7,1.8c0,0.7,0.2,1.2,0.4,1.6c0.2,0.4-0.1,0.8-0.5,0.8l-3.8,0v3.6
							c0,0.4-0.4,0.7-0.8,0.5c-0.6-0.2-1.4-0.4-2.3-0.3c-1.6,0.1-2,2.3-1.1,3.3c0.7,0.8,2,0.2,3-0.3c0.4-0.2,0.9,0.1,0.9,0.5v4.3
							l4.7-0.1c0.4,0,0.6,0.4,0.4,0.7c-0.3,0.4-0.5,0.9-0.7,1.4c-0.3,1.1,1.2,1.8,2.4,1.8c1.2,0,2.1-0.8,2.1-2.1
							c0-0.5-0.1-0.9-0.4-1.2c-0.2-0.3,0-0.7,0.4-0.7l4.4-0.1v-4.2C88,76.8,88.4,76.6,88.6,76.8z"/>
						
							<linearGradient id="SVGID_00000068652666572893141620000005440089982681792408_" gradientUnits="userSpaceOnUse" x1="90.2657" y1="58.9259" x2="103.9975" y2="77.4941">
							<stop  offset="0" style="stop-color:#FF9085"/>
							<stop  offset="1" style="stop-color:#FB6FBB"/>
						</linearGradient>
						<path style="fill:url(#SVGID_00000068652666572893141620000005440089982681792408_);" d="M88.3,62.6c0.4-0.3,1.1-0.5,2.1-0.2
							c1.8,0.5,1.7,2,1.4,2.8c-0.3,0.7-2.1,1.4-3.3,0.5c-0.3-0.2-0.6,0-0.6,0.3v3.8l4.6,0c0.4,0,0.7,0.4,0.5,0.7
							c-0.2,0.4-0.4,0.9-0.4,1.5c-0.1,1.5,1.2,2.2,2.6,2.1c1.2-0.1,2.6-1.7,1.4-3.5c-0.2-0.3,0-0.8,0.4-0.8l4,0v-4.5
							c-1.2,1.4-3.1,1-3.8-0.4c-0.7-1.4-0.1-2.7,1.5-2.8c0.8-0.1,1.4,0.2,1.7,0.5c0.2,0.2,0.5,0,0.5-0.2v-3.7l-3.9,0
							c-0.4,0-0.7-0.5-0.4-0.8c0.2-0.3,0.4-0.6,0.4-1.1c0.1-1.2-0.9-2.4-2.2-2.6c-1.3-0.1-2.7,1-2.5,2.2c0.1,0.6,0.3,1.1,0.5,1.5
							c0.2,0.3-0.1,0.7-0.5,0.7l-4.6,0v3.6C87.7,62.6,88,62.8,88.3,62.6z"/>
						
							<linearGradient id="SVGID_00000142872620228473946570000006075742234900539564_" gradientUnits="userSpaceOnUse" x1="81.831" y1="64.6125" x2="96.0661" y2="83.8613">
							<stop  offset="0" style="stop-color:#FF9085"/>
							<stop  offset="1" style="stop-color:#FB6FBB"/>
						</linearGradient>
						<path style="fill:url(#SVGID_00000142872620228473946570000006075742234900539564_);" d="M75.8,62.5c0.3-0.1,0.7-0.3,1.1-0.3
							c2.3-0.4,2,2.4,0.8,3.4c-0.6,0.6-1.3,0.4-1.9,0.1c-0.4-0.2-0.9,0-0.9,0.5v3.7l3.8,0c0.4,0,0.7-0.4,0.5-0.8
							c-0.2-0.4-0.4-1-0.4-1.6c0-1.4,2.1-1.8,2.7-1.8c0.6,0,3,1,1.5,3.4c-0.2,0.4,0.1,0.8,0.5,0.8l4.3,0v-3.8c0-0.3,0.4-0.5,0.6-0.3
							c1.3,0.9,3,0.1,3.3-0.5c0.4-0.8,0.5-2.3-1.4-2.8c-1-0.2-1.7,0-2.1,0.2c-0.3,0.2-0.6,0-0.6-0.3v-3.6l-4.4,0
							c-0.4,0-0.7,0.5-0.4,0.8c0.4,0.5,0.8,1.1,0.9,1.4c0.2,0.6-0.2,2-1.9,2.2c-1.7,0.2-2.9-0.8-2.8-2.2c0-0.6,0.2-1.1,0.4-1.5
							c0.2-0.3-0.1-0.7-0.5-0.7l-3.9,0V62C74.9,62.5,75.4,62.7,75.8,62.5z"/>
						<path class="st13" d="M68.3,85.9c-0.8,0-2.2-0.2-2.8-0.9c-0.3-0.3-0.4-0.6-0.4-1c0-0.6,0.2-1.1,0.5-1.6c0.1-0.1,0.1-0.2,0-0.3
							c-0.1-0.1-0.2-0.2-0.3-0.2c0,0,0,0,0,0l-4.5,0.1v-4.5c0-0.2,0.1-0.4,0.3-0.5c0.2-0.1,0.4-0.2,0.7-0.1c0.7,0.3,2,0.7,2.4,0.2
							c0.5-0.5,0.7-1.5,0.5-2.3c-0.1-0.5-0.4-0.9-0.8-1c-0.7-0.2-1.5,0.1-2,0.4c-0.2,0.1-0.5,0.1-0.7,0c-0.2-0.1-0.3-0.3-0.3-0.5
							v-3.9l4.6,0c0.2,0,0.3-0.1,0.4-0.2c0.1-0.1,0.1-0.2,0-0.4c-0.4-0.8-0.7-1.9-0.2-2.7c0.3-0.5,0.9-0.8,1.9-0.9
							c1.7-0.1,2.4,0.4,2.7,0.9c0.4,0.7,0.3,1.7-0.3,2.7c-0.1,0.1-0.1,0.3,0,0.4c0.1,0.1,0.2,0.2,0.4,0.2c0,0,0,0,0,0l4.8,0v3.7
							c0,0.2-0.1,0.4-0.3,0.6c-0.2,0.1-0.5,0.2-0.7,0.1c-0.5-0.2-1.3-0.4-2.2-0.3c-0.8,0.1-1.2,0.7-1.3,1c-0.3,0.7-0.2,1.6,0.3,2.1
							c0.7,0.7,1.9,0.1,2.8-0.3c0.2-0.1,0.5-0.1,0.7,0c0.2,0.1,0.3,0.3,0.3,0.6v4.4l-4.7,0.1c-0.2,0-0.3,0.1-0.4,0.2
							c-0.1,0.1,0,0.2,0,0.4c0.8,1.1,0.7,1.9,0.5,2.4C69.7,85.5,68.9,85.9,68.3,85.9C68.3,85.9,68.3,85.9,68.3,85.9z M65.3,81.6
							c0.2,0,0.4,0.1,0.6,0.3c0.1,0.2,0.1,0.4,0,0.6c-0.3,0.5-0.5,1-0.5,1.5c0,0.3,0.1,0.6,0.3,0.8c0.6,0.6,2,0.8,2.7,0.8
							c0.4,0,1.2-0.3,1.5-1c0.3-0.6,0.1-1.3-0.5-2.1c-0.1-0.2-0.2-0.4-0.1-0.6c0.1-0.2,0.3-0.4,0.6-0.4l4.5-0.1v-4.2
							c0-0.2-0.1-0.3-0.2-0.4c-0.1-0.1-0.3-0.1-0.5,0l0,0c-0.9,0.4-2.4,1.1-3.1,0.2c-0.5-0.6-0.7-1.6-0.4-2.4
							c0.3-0.7,0.8-1.1,1.5-1.2c0.9-0.1,1.8,0.1,2.3,0.3c0.2,0.1,0.3,0,0.5-0.1c0.1-0.1,0.2-0.2,0.2-0.4V70l-4.6,0c0,0,0,0,0,0
							c-0.3,0-0.5-0.1-0.6-0.3c-0.1-0.2-0.1-0.4,0-0.6c0.6-0.9,0.7-1.9,0.3-2.5c-0.4-0.6-1.2-0.9-2.5-0.8c-0.8,0.1-1.4,0.3-1.7,0.8
							c-0.4,0.7-0.1,1.7,0.3,2.4c0.1,0.2,0.1,0.4,0,0.6c-0.1,0.2-0.4,0.3-0.6,0.3l-4.4,0v3.6c0,0.1,0.1,0.2,0.2,0.3
							c0.1,0.1,0.3,0.1,0.4,0c0.6-0.3,1.5-0.6,2.2-0.4c0.5,0.1,0.8,0.6,1,1.2c0.2,0.9,0,2-0.5,2.5c-0.6,0.6-1.8,0.2-2.7-0.1
							c-0.1-0.1-0.3,0-0.4,0c-0.1,0.1-0.2,0.2-0.2,0.3v4.3L65.3,81.6C65.3,81.6,65.3,81.6,65.3,81.6z"/>
						<path class="st13" d="M70.2,70c-0.3,0-0.5-0.1-0.6-0.3c-0.1-0.2-0.1-0.4,0-0.6c0.6-0.9,0.7-1.9,0.3-2.5
							c-0.4-0.6-1.2-0.9-2.5-0.8c-0.8,0.1-1.4,0.3-1.7,0.8c-0.4,0.7-0.1,1.7,0.3,2.4l0,0c0.1,0.2,0.1,0.4,0,0.6
							c-0.1,0.2-0.4,0.3-0.6,0.3l-4.6,0v-3.8c0-0.1-0.1-0.3-0.2-0.3c-0.1-0.1-0.3-0.1-0.5,0c-0.9,0.6-2.2,1.1-3.1,0.6
							c-0.4-0.2-0.9-0.8-0.9-2.1c0-0.8,0.3-1.4,0.8-1.7c0.8-0.5,2-0.3,2.8,0.1c0.1,0.1,0.3,0,0.4-0.1c0.1-0.1,0.2-0.2,0.2-0.3v-3.9
							l4.9,0c0.3,0,0.5,0.1,0.6,0.3c0.1,0.2,0.1,0.4,0,0.6c-0.3,0.5-0.4,0.9-0.4,1.4c0,0.5,0.3,1,0.7,1.4c0.6,0.5,1.4,0.8,2.1,0.7
							c0.8-0.1,1.5-0.5,1.9-1c0.2-0.3,0.3-0.7,0.2-1c-0.1-0.4-0.4-0.8-0.8-1.3c-0.2-0.2-0.2-0.4-0.1-0.7c0.1-0.2,0.3-0.4,0.6-0.4
							l5.1,0V62c0,0.2,0.1,0.3,0.2,0.4c0.2,0.1,0.3,0.1,0.5,0c0.4-0.2,0.8-0.3,1.1-0.4c1.1-0.2,1.6,0.4,1.7,0.7
							c0.4,0.8,0,2.2-0.8,2.9c-0.5,0.5-1.3,0.5-2,0.1c-0.2-0.1-0.4-0.1-0.5,0C75.1,65.9,75,66,75,66.2V70L70.2,70
							C70.2,70,70.2,70,70.2,70z M67.8,65.5c1.4,0,2,0.5,2.2,0.9c0.4,0.7,0.3,1.7-0.3,2.7c-0.1,0.1-0.1,0.3,0,0.4
							c0.1,0.1,0.2,0.2,0.4,0.2c0,0,0,0,0,0l4.6,0v-3.6c0-0.2,0.1-0.5,0.3-0.6c0.2-0.1,0.5-0.1,0.8,0c0.7,0.4,1.3,0.4,1.8,0
							c0.7-0.7,1.1-1.9,0.8-2.7c-0.2-0.5-0.7-0.7-1.5-0.6c-0.4,0.1-0.7,0.2-1.1,0.3c-0.2,0.1-0.5,0.1-0.8,0
							c-0.2-0.1-0.3-0.3-0.3-0.6v-3.2l-4.8,0c-0.2,0-0.3,0.1-0.4,0.2c-0.1,0.1,0,0.3,0.1,0.4c0.5,0.5,0.7,1,0.9,1.4
							c0.1,0.4,0,0.8-0.2,1.2c-0.4,0.6-1.2,1-2.1,1.1c-0.8,0.1-1.7-0.2-2.3-0.8c-0.5-0.5-0.8-1-0.8-1.6c0-0.5,0.2-1,0.5-1.5
							c0.1-0.1,0.1-0.3,0-0.4c-0.1-0.1-0.2-0.2-0.4-0.2l-4.6,0v3.6c0,0.2-0.1,0.4-0.3,0.5c-0.2,0.1-0.4,0.2-0.7,0.1
							c-0.7-0.2-1.9-0.6-2.6-0.1c-0.4,0.3-0.6,0.8-0.7,1.5c0,0.9,0.2,1.5,0.7,1.8c0.8,0.4,2.1,0,2.9-0.5c0.2-0.2,0.5-0.2,0.7,0
							c0.2,0.1,0.3,0.3,0.3,0.5v3.6l4.4,0c0.2,0,0.3-0.1,0.4-0.2c0.1-0.1,0.1-0.2,0-0.4c-0.4-0.8-0.7-1.9-0.2-2.7
							c0.3-0.5,0.9-0.8,1.9-0.9C67.6,65.5,67.7,65.5,67.8,65.5z"/>
						<path class="st13" d="M107.7,96.2c0,0-0.1,0-0.1,0c-1.1-0.1-1.9-0.5-2.2-1c-0.2-0.3-0.3-0.7-0.2-1.1c0.2-0.9,0.6-1.7,0.8-2.1
							l-5.1,0.1v-4.4c0-0.2,0.1-0.3,0.2-0.4c0.1-0.1,0.3,0,0.4,0.1c0.4,0.4,0.9,0.5,1.4,0.5c0.5,0,0.9-0.3,1.3-0.7
							c0.6-0.7,0.7-1.3,0.5-1.9c-0.2-0.5-0.8-0.8-1.5-0.8c-0.9,0-1.4,0.3-1.7,0.5c-0.1,0.1-0.3,0.1-0.4,0.1
							c-0.1-0.1-0.2-0.2-0.2-0.3V81l4.5-0.1c0,0,0,0,0,0c0.2,0,0.4,0.1,0.5,0.3c0.1,0.2,0.1,0.4,0,0.6c-0.3,0.5-0.5,0.9-0.5,1.3
							c0,0.3,0,0.5,0.2,0.7c0.4,0.5,1.3,0.8,2,0.9c0.4,0,1.3-0.3,1.7-1.1c0.2-0.4,0.4-1.1-0.2-2c-0.1-0.2-0.1-0.4,0-0.6
							c0.1-0.2,0.3-0.3,0.5-0.3l4.2-0.1v3.6c0,0.2-0.1,0.3-0.2,0.4c-0.1,0.1-0.3,0.1-0.5,0.1c-0.5-0.2-1.4-0.5-2-0.5c0,0,0,0,0,0
							c-0.2,0-0.5,0.1-0.6,0.3c-0.4,0.6-0.5,1.7-0.3,2.4c0.1,0.3,0.3,0.5,0.7,0.7c0.7,0.2,1.5,0.1,2.2-0.3v0c0.2-0.1,0.4-0.1,0.5,0
							c0.2,0.1,0.3,0.3,0.3,0.4V92l-4.3,0.1c-0.1,0-0.2,0.1-0.3,0.2c0,0-0.1,0.2,0,0.3c0.6,0.8,0.8,1.6,0.4,2.4
							C109.2,95.7,108.4,96.2,107.7,96.2z M106.4,91.8l-0.1,0.2c0,0-0.6,1.1-0.9,2.2c-0.1,0.3,0,0.6,0.2,0.9
							c0.3,0.5,1.1,0.8,2.1,0.9c0.6,0.1,1.4-0.4,1.7-1.1c0.2-0.4,0.5-1.2-0.3-2.2c-0.1-0.1-0.2-0.3-0.1-0.5c0.1-0.2,0.3-0.3,0.5-0.3
							l4.1-0.1V88c0-0.1,0-0.2-0.1-0.2c-0.1,0-0.2,0-0.3,0l0,0c-0.7,0.4-1.7,0.6-2.4,0.3c-0.4-0.2-0.7-0.5-0.8-0.8
							c-0.2-0.8-0.2-2,0.3-2.6c0.2-0.3,0.5-0.4,0.8-0.4c0,0,0,0,0,0c0.7,0,1.5,0.3,2.1,0.5c0.1,0,0.2,0,0.3,0
							c0.1-0.1,0.1-0.1,0.1-0.2v-3.4l-3.9,0.1c-0.1,0-0.3,0.1-0.3,0.2c-0.1,0.1,0,0.2,0,0.3c0.7,1,0.5,1.7,0.2,2.2
							c-0.5,0.8-1.4,1.2-2,1.2c-0.8-0.1-1.8-0.4-2.2-1c-0.2-0.3-0.3-0.6-0.2-0.9c0.1-0.4,0.3-0.9,0.6-1.4c0.1-0.1,0.1-0.2,0-0.3
							c-0.1-0.1-0.2-0.2-0.3-0.2l-4.2,0.1v3.6c0,0.1,0.1,0.1,0.1,0.1c0,0,0.1,0,0.2,0c0.3-0.3,0.9-0.6,1.9-0.6c0.8,0,1.5,0.4,1.7,1
							c0.3,0.6,0.1,1.4-0.6,2.1c-0.4,0.5-0.9,0.8-1.4,0.8c-0.5,0-1.1-0.2-1.6-0.6c-0.1,0-0.1,0-0.2,0c0,0-0.1,0-0.1,0.1v4.1
							L106.4,91.8z"/>
						<path class="st13" d="M87.9,92.5v-4.1c0-0.1,0-0.2-0.1-0.2c-0.1-0.1-0.2,0-0.3,0c-1.2,0.7-2.2,0.8-2.9,0.1
							c-0.6-0.6-0.8-1.5-0.6-2.2c0.2-0.8,0.9-1.3,1.6-1.4c0.8-0.1,1.5,0.1,1.9,0.4c0.1,0.1,0.2,0.1,0.3,0c0.1,0,0.1-0.1,0.1-0.2
							v-3.5l4.4-0.1c0.1,0,0.3-0.1,0.3-0.2c0.1-0.1,0.1-0.2,0-0.3c-0.3-0.6-0.7-1.4-0.7-1.9c0-0.3,0.2-0.8,0.6-1.2
							c0.6-0.6,1.5-1,2.1-1c1.2,0.1,2.1,1.1,2.1,2.3c0,0.5-0.2,1.1-0.5,1.7c-0.1,0.1-0.1,0.2,0,0.3c0.1,0.1,0.2,0.2,0.3,0.2
							c0,0,0,0,0,0l4.4-0.1v3.8c0,0.1,0.1,0.1,0.1,0.1c0,0,0.1,0,0.2,0c0.3-0.3,0.9-0.6,1.9-0.6c0.8,0,1.5,0.4,1.7,1
							c0.3,0.6,0.1,1.4-0.6,2.1c-0.4,0.5-0.9,0.8-1.4,0.8c-0.5,0-1.1-0.2-1.6-0.6l0,0c-0.1,0-0.1,0-0.2,0c0,0-0.1,0-0.1,0.1v4.3
							l-4.5,0.1c-0.2,0-0.4-0.1-0.5-0.3c-0.1-0.2,0-0.4,0.1-0.6c1-1.1,0.7-2.2,0.5-2.6c-0.3-0.7-0.8-1.1-1.3-1.1
							c-0.9,0-2.2,0.4-2.8,1c-0.3,0.3-0.4,0.5-0.4,0.8c0,0.5,0.3,1.2,0.7,2.1c0.1,0.2,0.1,0.3,0,0.5c-0.1,0.2-0.3,0.3-0.5,0.3
							L87.9,92.5z M87.6,87.9c0.1,0,0.2,0,0.3,0.1c0.2,0.1,0.3,0.2,0.3,0.4v3.9l4.4-0.1c0.1,0,0.2-0.1,0.3-0.2c0-0.1,0-0.2,0-0.3
							c-0.3-0.6-0.8-1.5-0.8-2.2c0-0.3,0.2-0.7,0.5-1c0.7-0.7,2.1-1.1,3-1.1c0.6,0,1.2,0.5,1.5,1.3c0.4,1,0.2,2-0.6,2.9
							c-0.1,0.1-0.1,0.2-0.1,0.3c0,0.1,0.1,0.2,0.3,0.2l4.2-0.1v-4.1c0-0.2,0.1-0.3,0.2-0.4c0.1-0.1,0.3,0,0.4,0.1l0,0
							c0.4,0.4,0.9,0.5,1.4,0.5c0.5,0,0.9-0.3,1.3-0.7c0.6-0.7,0.7-1.3,0.5-1.9c-0.2-0.5-0.8-0.8-1.5-0.8c-0.9,0-1.4,0.3-1.7,0.5
							c-0.1,0.1-0.3,0.1-0.4,0.1c-0.1-0.1-0.2-0.2-0.2-0.3v-3.6l-4.2,0.1c0,0,0,0,0,0c-0.2,0-0.4-0.1-0.5-0.3
							c-0.1-0.2-0.1-0.4,0-0.6c0.2-0.4,0.5-0.9,0.5-1.5c0-1.2-1-2-1.9-2.1c-0.6,0-1.4,0.4-2,0.9c-0.4,0.3-0.6,0.7-0.6,1
							c0,0.5,0.3,1.2,0.6,1.8c0.1,0.2,0.1,0.4,0,0.6c-0.1,0.2-0.3,0.3-0.5,0.3l-4.2,0.1v3.2c0,0.2-0.1,0.3-0.3,0.4
							c-0.2,0.1-0.4,0.1-0.6,0c-0.5-0.3-1.1-0.4-1.7-0.3c-0.7,0.1-1.2,0.6-1.4,1.3c-0.2,0.7,0,1.4,0.5,2c0.8,0.8,1.8,0.4,2.6-0.1
							C87.4,87.9,87.5,87.9,87.6,87.9z"/>
						<path class="st13" d="M74.4,92.9v-3.8c0-0.2,0.1-0.5,0.3-0.6c0.2-0.1,0.5-0.2,0.8,0c0.6,0.3,1.5,0.6,2.1,0
							c0.7-0.6,1-1.5,0.9-2.2c-0.1-0.6-0.6-0.9-1.2-1.1c-0.6-0.2-1.2-0.1-1.7,0.2c-0.2,0.1-0.5,0.1-0.8,0c-0.2-0.1-0.3-0.3-0.3-0.6
							v-3.3l4.8-0.1c0,0,0,0,0,0c0.2,0,0.4,0.1,0.5,0.3c0.1,0.2,0.1,0.4,0,0.6c-0.3,0.5-0.5,1-0.6,1.4c-0.1,0.3,0,0.5,0.2,0.8
							c0.4,0.5,1.3,0.9,2.1,0.9c1.1,0,1.9-0.8,2-2c0-0.4-0.1-0.8-0.3-1.1C83,82.1,83,81.9,83,81.7c0.1-0.2,0.3-0.3,0.6-0.3l4.5-0.1
							v3.5c0,0.2-0.1,0.3-0.3,0.4c-0.2,0.1-0.4,0.1-0.6,0c-0.5-0.3-1.1-0.4-1.7-0.3c-0.7,0.1-1.2,0.6-1.4,1.3c-0.2,0.7,0,1.4,0.5,2
							c0.8,0.8,1.8,0.4,2.6-0.1l0,0c0.2-0.1,0.4-0.1,0.5,0c0.2,0.1,0.3,0.2,0.3,0.4v4.1l-4.7,0.1c-0.2,0-0.4-0.1-0.5-0.3
							c-0.1-0.2-0.1-0.4,0.1-0.6c0.9-1.1,0.6-2,0.4-2.5c-0.3-0.6-0.9-1-1.5-0.9c-1.3,0.1-2.2,0.4-2.6,0.8c-0.2,0.2-0.3,0.5-0.2,0.8
							c0.1,0.8,0.4,1.5,0.6,2c0.1,0.2,0.1,0.3,0,0.5c-0.1,0.2-0.3,0.3-0.5,0.3L74.4,92.9z M75.2,88.6c-0.1,0-0.2,0-0.3,0.1
							c-0.1,0.1-0.2,0.2-0.2,0.4v3.6l4.6-0.1c0.1,0,0.2-0.1,0.3-0.2c0-0.1,0.1-0.2,0-0.3c-0.3-0.5-0.6-1.2-0.7-2
							c0-0.4,0.1-0.7,0.3-1c0.4-0.5,1.3-0.8,2.8-0.9c0.6,0,1.3,0.4,1.7,1.1c0.3,0.5,0.5,1.5-0.4,2.7c-0.1,0.1-0.1,0.2,0,0.3
							c0.1,0.1,0.1,0.2,0.3,0.2l4.5-0.1v-3.9c0-0.1,0-0.2-0.1-0.2c-0.1-0.1-0.2,0-0.3,0l0,0c-1.2,0.7-2.2,0.8-2.9,0.1
							c-0.6-0.6-0.8-1.5-0.6-2.2c0.2-0.8,0.9-1.3,1.6-1.4c0.8-0.1,1.5,0.1,1.9,0.4c0.1,0.1,0.2,0.1,0.3,0c0.1,0,0.1-0.1,0.1-0.2
							v-3.2l-4.3,0.1c-0.2,0-0.3,0.1-0.3,0.2c-0.1,0.1,0,0.2,0,0.3c0.3,0.4,0.4,0.8,0.4,1.3c-0.1,1.4-1,2.3-2.2,2.2
							c-0.8,0-1.8-0.3-2.3-1c-0.2-0.3-0.3-0.6-0.2-1c0.1-0.4,0.3-0.9,0.7-1.5c0.1-0.1,0.1-0.2,0-0.3c-0.1-0.1-0.2-0.2-0.3-0.2
							c0,0,0,0,0,0l-4.6,0.1v3.1c0,0.2,0.1,0.3,0.2,0.4c0.2,0.1,0.4,0.1,0.5,0c0.6-0.3,1.2-0.4,1.9-0.2c0.8,0.2,1.2,0.6,1.4,1.3
							c0.2,0.8-0.2,1.8-0.9,2.4c-0.6,0.5-1.4,0.5-2.4,0C75.4,88.6,75.3,88.6,75.2,88.6z"/>
						<path class="st13" d="M119.8,95.8c-0.6,0-1.3-0.1-1.8-0.6c-0.4-0.3-0.6-0.7-0.6-1.2c0-0.6,0.2-1.2,0.6-1.7
							c0.1-0.1,0.1-0.2,0-0.3c0-0.1-0.1-0.2-0.2-0.1l-4.3,0.1V88c0-0.1,0-0.2-0.1-0.2c-0.1,0-0.2,0-0.3,0c-0.7,0.4-1.7,0.6-2.4,0.3
							c-0.4-0.2-0.7-0.5-0.8-0.8c-0.2-0.8-0.2-2,0.3-2.6c0.2-0.3,0.5-0.4,0.8-0.4c0,0,0,0,0,0c0.7,0,1.5,0.3,2.1,0.5
							c0.1,0,0.2,0,0.3,0c0.1-0.1,0.1-0.1,0.1-0.2v-3.6l4.4-0.1c0.1,0,0.2-0.1,0.3-0.2c0.1-0.1,0.1-0.2,0-0.3
							c-0.3-0.8-0.8-2.3-0.2-3.2c0.3-0.4,0.8-0.7,1.4-0.7c1.3-0.1,2.3,0.3,2.7,1.1c0.4,0.8,0.2,1.8-0.5,2.7l0,0
							c-0.1,0.1-0.1,0.2,0,0.4c0.1,0.1,0.2,0.2,0.3,0.2c0,0,0,0,0,0l3.8-0.1V84c0,0.2-0.1,0.4-0.3,0.4c-0.2,0.1-0.4,0.1-0.5,0
							c-0.3-0.2-0.7-0.3-1.1-0.2c-0.7,0.1-1.3,0.6-1.5,1.3c-0.2,0.6-0.1,1.3,0.3,1.8c0.6,0.8,2,0.2,2.8-0.2c0.2-0.1,0.3-0.1,0.5,0
							c0.1,0.1,0.2,0.2,0.2,0.4v3.8l-4.2,0.1c-0.1,0-0.2,0.1-0.3,0.2c0,0.1,0,0.2,0,0.3c0.7,0.9,0.6,1.7,0.4,2.3
							c-0.3,0.9-1.2,1.5-1.7,1.6C120.3,95.8,120.1,95.8,119.8,95.8z M117.8,91.6c0.2,0,0.4,0.1,0.5,0.3c0.1,0.2,0.1,0.4-0.1,0.5
							c-0.4,0.5-0.6,1-0.6,1.6c0,0.4,0.2,0.8,0.5,1c0.6,0.5,1.7,0.6,2.2,0.5c0.4-0.1,1.2-0.7,1.5-1.5c0.3-0.7,0.1-1.4-0.4-2
							c-0.1-0.2-0.1-0.4-0.1-0.5c0.1-0.2,0.3-0.3,0.5-0.3l4-0.1v-3.6c0-0.1,0-0.2-0.1-0.2c-0.1,0-0.2,0-0.2,0
							c-0.8,0.4-2.3,1-3.1,0.1c-0.5-0.6-0.6-1.4-0.3-2.1c0.3-0.7,0.9-1.3,1.7-1.4c0.5-0.1,1,0,1.3,0.2c0.1,0.1,0.2,0.1,0.2,0
							c0.1,0,0.1-0.1,0.1-0.2v-3.1L122,81c0,0,0,0,0,0c-0.2,0-0.4-0.1-0.5-0.3c-0.1-0.2-0.1-0.4,0.1-0.6c0.7-0.9,0.8-1.7,0.5-2.4
							c-0.4-0.7-1.3-1.1-2.5-1c-0.6,0-1,0.2-1.2,0.6c-0.5,0.8-0.1,2.2,0.2,3c0.1,0.2,0,0.4-0.1,0.5c-0.1,0.2-0.3,0.3-0.5,0.3
							l-4.2,0.1v3.4c0,0.2-0.1,0.3-0.2,0.4c-0.1,0.1-0.3,0.1-0.5,0.1c-0.5-0.2-1.4-0.5-2-0.5c0,0,0,0,0,0c-0.2,0-0.5,0.1-0.6,0.3
							c-0.4,0.6-0.5,1.7-0.3,2.4c0.1,0.3,0.3,0.5,0.7,0.7c0.7,0.2,1.5,0.1,2.2-0.3c0.2-0.1,0.4-0.1,0.5,0c0.2,0.1,0.3,0.3,0.3,0.4
							v3.7L117.8,91.6C117.8,91.6,117.8,91.6,117.8,91.6z"/>
						<path class="st13" d="M120.7,73.8C120.7,73.8,120.6,73.8,120.7,73.8c-0.2,0-0.3,0-0.5,0c-0.7,0-1.7,0-2.3-0.5
							c-0.2-0.2-0.3-0.5-0.3-0.8c0-0.8,0.3-1.5,0.5-2c0.1-0.1,0.1-0.3,0-0.4c-0.1-0.1-0.2-0.2-0.3-0.2c0,0,0,0,0,0l-4.2,0v-3.8
							c0-0.2,0.1-0.4,0.3-0.4c0.2-0.1,0.4-0.1,0.6,0.1c0.6,0.5,1.5,0.5,2.2,0c0.6-0.4,1-1,1-1.5c-0.2-1.2-0.6-1.7-1.7-1.8
							c-0.6-0.1-1.2,0.2-1.5,0.4c-0.2,0.1-0.4,0.1-0.5,0c-0.2-0.1-0.3-0.3-0.3-0.4v-3.6l4.1,0c0,0,0,0,0,0c0.1,0,0.2-0.1,0.3-0.2
							c0.1-0.1,0.1-0.2,0-0.3c-0.2-0.6-0.5-1.4-0.5-1.9c0-0.4,0.2-0.8,0.6-1.2c0.5-0.5,1.2-0.8,1.8-0.7c0.7,0.1,1.5,0.5,2,1.2
							c0.3,0.5,0.4,0.9,0.3,1.3c-0.1,0.4-0.3,0.8-0.6,1.2c-0.1,0.1-0.1,0.2,0,0.4c0.1,0.1,0.2,0.2,0.3,0.2l4.2,0v2.9
							c0,0.1,0,0.2,0.1,0.2c0.1,0,0.2,0,0.2,0c0.4-0.3,0.9-0.4,1.5-0.4c1,0.1,1.9,1.4,2,2.5c0.1,0.9-0.3,1.5-1,1.7
							c-1.2,0.3-2.2,0.1-2.8-0.1l0,0c-0.1,0-0.2,0-0.2,0c-0.1,0-0.1,0.1-0.1,0.2v4.3l-3.7,0c-0.1,0-0.3,0.1-0.3,0.2
							c-0.1,0.1-0.1,0.3,0,0.4c0.4,0.7,0.5,1.6,0,2.3C121.5,73.5,121,73.8,120.7,73.8z M120.4,73.6c0.1,0,0.2,0,0.3,0
							c0.2,0,0.7-0.2,1-0.7c0.2-0.4,0.5-1.1,0-2c-0.1-0.2-0.1-0.4,0-0.6c0.1-0.2,0.3-0.3,0.6-0.3l3.5,0v-4c0-0.2,0.1-0.3,0.2-0.4
							c0.1-0.1,0.3-0.1,0.4-0.1l0,0c0.6,0.2,1.6,0.4,2.7,0.1c0.8-0.2,0.8-1.1,0.8-1.4c-0.1-1-0.8-2.2-1.8-2.2c-0.5,0-1,0.1-1.3,0.3
							c-0.1,0.1-0.3,0.1-0.5,0c-0.2-0.1-0.3-0.2-0.3-0.4v-2.6l-4,0c-0.2,0-0.4-0.1-0.6-0.3c-0.1-0.2-0.1-0.4,0-0.6
							c0.3-0.4,0.5-0.8,0.6-1.1c0.1-0.3,0-0.7-0.3-1.1c-0.4-0.6-1.1-1-1.8-1.1c-0.5,0-1.2,0.2-1.6,0.6c-0.4,0.3-0.6,0.7-0.6,1
							c0,0.3,0.2,1,0.5,1.8c0.1,0.2,0,0.4-0.1,0.6c-0.1,0.2-0.3,0.3-0.5,0.3c0,0,0,0,0,0l-3.8,0v3.4c0,0.1,0.1,0.2,0.1,0.2
							c0.1,0,0.2,0,0.3,0c0.4-0.3,1-0.6,1.7-0.5c1.3,0.2,1.7,0.9,1.9,2c0.1,0.6-0.3,1.3-1.1,1.7c-0.9,0.5-1.8,0.5-2.5,0
							c-0.1-0.1-0.2-0.1-0.3,0c-0.1,0-0.1,0.1-0.1,0.2v3.6l3.9,0c0,0,0,0,0,0c0.2,0,0.4,0.1,0.5,0.3c0.1,0.2,0.1,0.4,0,0.6
							c-0.2,0.4-0.5,1.1-0.5,1.9c0,0.3,0.1,0.5,0.3,0.7c0.5,0.5,1.4,0.4,2.1,0.4C120.2,73.6,120.3,73.6,120.4,73.6z"/>
						<path class="st13" d="M113.5,81.1v-3.8c0-0.2,0.1-0.4,0.3-0.5c0.2-0.1,0.4-0.1,0.5,0c0.5,0.4,1.2,0.5,1.7,0.3
							c0.5-0.2,0.8-0.5,0.8-1c0.3-1.6,0.2-2.4-1.1-2.7c-0.6-0.2-1.1-0.1-1.5,0.2c-0.2,0.1-0.4,0.1-0.5,0c-0.2-0.1-0.2-0.2-0.2-0.4
							v-3.4l4.2,0c0,0,0,0,0,0c0.2,0,0.4,0.1,0.5,0.3c0.1,0.2,0.1,0.4,0,0.6c-0.2,0.4-0.5,1.1-0.5,1.9c0,0.3,0.1,0.5,0.3,0.7
							c0.5,0.5,1.4,0.4,2.1,0.4c0.2,0,0.4,0,0.5,0c0.2,0,0.7-0.2,1-0.7c0.2-0.4,0.5-1.1,0-2l0,0c-0.1-0.2-0.1-0.4,0-0.6
							c0.1-0.2,0.3-0.3,0.6-0.3l3.7,0v3c0,0.1,0.1,0.2,0.1,0.2c0.1,0,0.2,0,0.3,0c1-0.9,2-0.9,2.9,0c1,1,0.9,2.9,0,3.9
							c-0.4,0.4-1.3,1.2-3,0c-0.1-0.1-0.2-0.1-0.3,0c-0.1,0-0.1,0.1-0.1,0.2v3.7L122,81c0,0,0,0,0,0c-0.2,0-0.4-0.1-0.5-0.3
							c-0.1-0.2-0.1-0.4,0.1-0.6c0.7-0.9,0.8-1.7,0.5-2.4c-0.4-0.7-1.3-1.1-2.5-1c-0.6,0-1,0.2-1.2,0.6c-0.5,0.8-0.1,2.2,0.2,3
							c0.1,0.2,0,0.4-0.1,0.5c-0.1,0.2-0.3,0.3-0.5,0.3L113.5,81.1z M114.1,77c0,0-0.1,0-0.1,0c-0.1,0-0.2,0.1-0.2,0.2v3.6l4.2-0.1
							c0.1,0,0.2-0.1,0.3-0.2c0.1-0.1,0.1-0.2,0-0.3c-0.3-0.8-0.8-2.3-0.2-3.2c0.3-0.4,0.8-0.7,1.4-0.7c1.3-0.1,2.3,0.3,2.7,1.1
							c0.4,0.8,0.2,1.8-0.5,2.7c-0.1,0.1-0.1,0.2,0,0.4c0.1,0.1,0.2,0.2,0.3,0.2c0,0,0,0,0,0l3.6-0.1v-3.5c0-0.2,0.1-0.3,0.3-0.4
							c0.2-0.1,0.4-0.1,0.5,0c1,0.7,2,0.7,2.6,0c0.7-0.9,0.9-2.6,0-3.5c-1-1-1.9-0.5-2.6,0c-0.1,0.1-0.3,0.2-0.5,0.1
							c-0.2-0.1-0.3-0.2-0.3-0.4v-2.8l-3.5,0c-0.1,0-0.3,0.1-0.3,0.2c-0.1,0.1-0.1,0.3,0,0.4l0,0c0.4,0.7,0.5,1.6,0,2.3
							c-0.3,0.5-0.8,0.9-1.2,0.8c-0.1,0-0.3,0-0.5,0c-0.7,0-1.7,0-2.3-0.5c-0.2-0.2-0.3-0.5-0.3-0.8c0-0.8,0.3-1.5,0.5-2
							c0.1-0.1,0.1-0.3,0-0.4c-0.1-0.1-0.2-0.2-0.3-0.2c0,0,0,0,0,0l-3.9,0v3.2c0,0.1,0,0.2,0.1,0.2c0.1,0,0.2,0,0.3,0
							c0.5-0.3,1-0.3,1.7-0.2c1.7,0.5,1.6,1.6,1.3,3c-0.1,0.5-0.5,1-1,1.2c-0.6,0.2-1.4,0.1-2-0.3C114.2,77,114.1,77,114.1,77z"/>
						<path class="st13" d="M46.5,93.4v-3.7c0-0.2-0.1-0.3-0.2-0.4c-0.2-0.1-0.4-0.2-0.6-0.1c-1.3,0.3-2.2,0.3-2.8-0.2
							c-0.7-0.6-0.6-1.7-0.5-2.7c0.1-0.5,0.3-0.9,0.7-1.1c1-0.6,2.8,0.1,3.4,0.3v-3.6l4.9-0.1c0.3,0,0.5,0.1,0.6,0.3
							c0.1,0.2,0.1,0.4-0.1,0.6c-0.4,0.5-0.6,1-0.6,1.4c0,0.3,0.1,0.6,0.3,0.9c0.4,0.5,1.3,0.8,2.4,0.8c0.7,0,1.5-0.3,1.9-0.8
							c0.3-0.3,0.4-0.7,0.4-1.1c-0.1-0.4-0.3-0.8-0.7-1.3c-0.1-0.2-0.2-0.4-0.1-0.6c0.1-0.2,0.3-0.4,0.6-0.4l4.9-0.1v3.5
							c0,0.2-0.1,0.4-0.3,0.5c-0.2,0.1-0.5,0.1-0.7,0c-0.5-0.3-1.1-0.4-1.8-0.4c-0.7,0-1.1,0.3-1.4,0.9c-0.4,1-0.1,2.4,0.3,2.8
							c0.4,0.5,2,0.5,2.9,0l0,0c0.2-0.1,0.5-0.1,0.7,0c0.2,0.1,0.3,0.3,0.3,0.5V93l-5.3,0.1c-0.2,0-0.4-0.1-0.5-0.3
							c-0.1-0.2-0.1-0.4,0-0.5c0.5-1,0.6-2,0.2-2.6C55.1,89.3,54.6,89,54,89c-1,0.1-1.8,0.4-2.2,0.8c-0.2,0.3-0.3,0.6-0.3,1
							c0.1,0.6,0.3,1.2,0.5,1.6c0.1,0.2,0.1,0.3,0,0.5c-0.1,0.2-0.3,0.3-0.5,0.3L46.5,93.4z M45.9,88.8c0.2,0,0.4,0.1,0.6,0.2
							c0.2,0.1,0.3,0.4,0.3,0.6v3.5l4.7-0.1c0.1,0,0.2-0.1,0.3-0.2c0,0,0.1-0.1,0-0.3c-0.2-0.4-0.4-1-0.5-1.6
							c-0.1-0.5,0.1-0.9,0.3-1.2c0.4-0.5,1.3-0.9,2.4-0.9c0.7,0,1.3,0.2,1.6,0.8c0.5,0.7,0.4,1.8-0.1,2.9c0,0.1,0,0.2,0,0.3
							c0.1,0.1,0.2,0.2,0.3,0.1l5.1-0.1v-3.2c0-0.1-0.1-0.2-0.2-0.3c-0.1-0.1-0.3-0.1-0.4,0l0,0c-1,0.5-2.7,0.5-3.2-0.1
							c-0.5-0.5-0.8-2-0.4-3.1c0.3-0.7,0.8-1,1.6-1c0.8,0,1.4,0.1,2,0.5c0.1,0.1,0.3,0.1,0.5,0c0.1-0.1,0.2-0.2,0.2-0.3v-3.2
							L56.1,82c-0.2,0-0.3,0.1-0.4,0.2c-0.1,0.1,0,0.2,0,0.3c0.4,0.5,0.7,1,0.7,1.4c0.1,0.4-0.1,0.9-0.5,1.3
							c-0.5,0.6-1.3,0.9-2.1,0.9c-0.5,0-1.9-0.1-2.5-0.9c-0.3-0.3-0.4-0.7-0.3-1.1c0.1-0.5,0.3-1,0.7-1.6c0.1-0.1,0.1-0.2,0-0.4
							c-0.1-0.1-0.2-0.2-0.4-0.2c0,0,0,0,0,0l-4.7,0.1v3.7l-0.2-0.1c0,0-2.2-1-3.3-0.4c-0.3,0.2-0.5,0.5-0.6,0.9
							c-0.2,1.3,0,2.1,0.4,2.5c0.5,0.4,1.3,0.4,2.5,0.1C45.7,88.8,45.8,88.8,45.9,88.8z"/>
						<path class="st13" d="M68.3,97.4C68.3,97.4,68.3,97.4,68.3,97.4c-1.2,0-2.3-0.1-2.9-0.7c-0.2-0.3-0.4-0.6-0.3-1
							c0-0.9,0.5-1.8,0.9-2.4c0.1-0.1,0.1-0.2,0-0.3c-0.1-0.1-0.2-0.2-0.3-0.2L60.8,93v-3.4c0-0.1-0.1-0.2-0.2-0.3
							c-0.1-0.1-0.3-0.1-0.4,0c-1,0.5-2.7,0.5-3.2-0.1c-0.5-0.5-0.8-2-0.4-3.1c0.3-0.7,0.8-1,1.6-1c0.8,0,1.4,0.1,2,0.5
							c0.1,0.1,0.3,0.1,0.5,0c0.1-0.1,0.2-0.2,0.2-0.3v-3.5l4.5-0.1c0.2,0,0.5,0.1,0.6,0.3c0.1,0.2,0.1,0.4,0,0.6
							c-0.3,0.5-0.5,1-0.5,1.5c0,0.3,0.1,0.6,0.3,0.8c0.6,0.6,2,0.8,2.7,0.8c0.4,0,1.2-0.3,1.5-1c0.3-0.6,0.1-1.3-0.5-2.1
							c-0.1-0.2-0.2-0.4-0.1-0.6c0.1-0.2,0.3-0.4,0.6-0.4l4.7-0.1v3.3c0,0.2,0.1,0.3,0.2,0.4c0.2,0.1,0.4,0.1,0.5,0
							c0.6-0.3,1.2-0.4,1.9-0.2c0.8,0.2,1.2,0.6,1.4,1.3c0.2,0.8-0.2,1.8-0.9,2.4c-0.6,0.5-1.4,0.5-2.4,0c-0.2-0.1-0.4-0.1-0.5,0
							c-0.1,0.1-0.2,0.2-0.2,0.4v3.8L70.1,93c-0.1,0-0.2,0.1-0.3,0.2c0,0.1,0,0.2,0,0.3c0.6,0.8,0.6,1.8,0.2,2.7
							C69.6,96.9,68.9,97.4,68.3,97.4z M65.7,92.6c0.2,0,0.4,0.1,0.5,0.3c0.1,0.2,0.1,0.4,0,0.5c-0.4,0.6-0.8,1.4-0.8,2.3
							c0,0.3,0.1,0.6,0.3,0.8c0.5,0.5,1.6,0.6,2.7,0.7c0,0,0,0,0,0c0.5,0,1.1-0.4,1.5-1.1c0.4-0.8,0.4-1.7-0.1-2.4
							c-0.1-0.2-0.1-0.4,0-0.5c0.1-0.2,0.3-0.3,0.5-0.3l4.3-0.1v-3.6c0-0.2,0.1-0.5,0.3-0.6c0.2-0.1,0.5-0.2,0.8,0
							c0.6,0.3,1.5,0.6,2.1,0c0.7-0.6,1-1.5,0.9-2.2c-0.1-0.6-0.6-0.9-1.2-1.1c-0.6-0.2-1.2-0.1-1.7,0.2c-0.2,0.1-0.5,0.1-0.8,0
							c-0.2-0.1-0.3-0.3-0.3-0.6v-3.1l-4.5,0.1c-0.2,0-0.3,0.1-0.4,0.2c-0.1,0.1,0,0.2,0,0.4c0.8,1.1,0.7,1.9,0.5,2.4
							c-0.4,0.8-1.2,1.1-1.7,1.1c-0.8,0-2.2-0.2-2.9-0.9c-0.3-0.3-0.4-0.6-0.4-1c0-0.6,0.2-1.1,0.5-1.6c0.1-0.1,0.1-0.2,0-0.3
							c-0.1-0.1-0.2-0.2-0.3-0.2c0,0,0,0,0,0L61,81.9v3.3c0,0.2-0.1,0.4-0.3,0.5c-0.2,0.1-0.5,0.1-0.7,0c-0.5-0.3-1.1-0.4-1.8-0.4
							c-0.7,0-1.1,0.3-1.4,0.9c-0.4,1-0.1,2.4,0.3,2.8c0.4,0.5,2,0.5,2.9,0c0.2-0.1,0.5-0.1,0.7,0c0.2,0.1,0.3,0.3,0.3,0.5v3.2
							L65.7,92.6C65.7,92.6,65.7,92.6,65.7,92.6z"/>
						<path class="st13" d="M54,74.4c-0.9,0-1.8-0.3-2.3-0.8c-0.4-0.4-0.5-0.8-0.5-1.2c0.1-0.5,0.3-1.1,0.8-1.7
							c0.1-0.1,0.1-0.3,0-0.4c-0.1-0.1-0.2-0.2-0.4-0.2c0,0,0,0,0,0l-5.1,0v-3c0-0.3,0.1-0.5,0.4-0.6c0.2-0.2,0.6-0.2,0.8-0.1
							c0.6,0.2,1.4,0.1,2.1-0.3c0.5-0.3,0.8-0.8,0.9-1.2c0.1-0.8-0.2-1.6-0.7-2.1c-0.2-0.2-0.5-0.4-1-0.4c-0.4,0-0.8,0.2-1.2,0.3
							c-0.3,0.1-0.6,0.1-0.9-0.1c-0.2-0.2-0.4-0.4-0.4-0.7v-3.6l5.1,0c0.3,0,0.5,0.1,0.6,0.3c0.1,0.2,0.1,0.4,0,0.6
							c-0.3,0.5-0.5,1.1-0.5,1.7c0,0.5,0.1,0.9,0.3,1.2c0.4,0.4,1.1,0.6,2.1,0.6c0,0,0,0,0,0c0.6,0,1.1-0.2,1.5-0.7
							c0.4-0.4,0.5-1,0.5-1.4c-0.1-0.4-0.3-0.8-0.7-1.4c-0.1-0.2-0.2-0.4-0.1-0.6c0.1-0.2,0.4-0.4,0.6-0.4l4.5,0v3.9
							c0,0.2-0.1,0.4-0.3,0.5c-0.2,0.1-0.4,0.2-0.7,0.1c-0.7-0.2-1.9-0.6-2.6-0.1c-0.4,0.3-0.6,0.8-0.7,1.5c0,0.9,0.2,1.5,0.7,1.8
							c0.8,0.4,2.1,0,2.9-0.5c0.2-0.2,0.5-0.2,0.7,0c0.2,0.1,0.3,0.3,0.3,0.5v3.8l-4.5,0c-0.2,0-0.4,0.1-0.4,0.3
							c-0.1,0.1,0,0.3,0,0.4c0.6,0.7,0.7,1.5,0.4,2.3c-0.3,0.8-1.1,1.4-2,1.5C54.3,74.4,54.1,74.4,54,74.4z M51.6,69.7
							c0.3,0,0.5,0.1,0.6,0.4c0.1,0.2,0.1,0.4,0,0.6l0,0c-0.4,0.6-0.7,1.2-0.7,1.6c0,0.4,0.1,0.7,0.4,1c0.6,0.6,1.6,0.9,2.6,0.7
							c0.8-0.1,1.5-0.6,1.8-1.4c0.3-0.7,0.2-1.4-0.3-2c-0.1-0.2-0.2-0.4-0.1-0.6c0.1-0.2,0.4-0.4,0.7-0.4l4.3,0v-3.6
							c0-0.1-0.1-0.3-0.2-0.3c-0.1-0.1-0.3-0.1-0.5,0c-0.9,0.6-2.2,1.1-3.1,0.6c-0.4-0.2-0.9-0.8-0.9-2.1c0-0.8,0.3-1.4,0.8-1.7
							c0.8-0.5,2-0.3,2.8,0.1c0.1,0.1,0.3,0,0.4-0.1c0.1-0.1,0.2-0.2,0.2-0.3v-3.6l-4.2,0c-0.2,0-0.3,0.1-0.4,0.2
							c-0.1,0.1-0.1,0.3,0,0.4c0.4,0.6,0.7,1.1,0.7,1.5c0.1,0.5-0.1,1.1-0.5,1.6c-0.4,0.5-1,0.8-1.7,0.8c0,0,0,0,0,0
							c-1.1,0-1.9-0.2-2.3-0.7c-0.3-0.4-0.5-0.8-0.4-1.4c0.1-0.6,0.2-1.2,0.5-1.8c0.1-0.1,0.1-0.3,0-0.4c-0.1-0.1-0.2-0.2-0.4-0.2
							l-4.8,0v3.3c0,0.2,0.1,0.3,0.3,0.5c0.2,0.1,0.4,0.2,0.6,0.1c0.5-0.2,0.9-0.3,1.3-0.3c0.4,0,0.8,0.1,1.2,0.4
							c0.5,0.5,0.9,1.4,0.8,2.3c0,0.5-0.4,1-1,1.4c-0.7,0.5-1.6,0.6-2.3,0.3c-0.2-0.1-0.4,0-0.6,0.1c-0.2,0.1-0.2,0.3-0.2,0.4v2.7
							L51.6,69.7C51.6,69.7,51.6,69.7,51.6,69.7z"/>
						<path class="st13" d="M54.2,63.1C54.2,63.1,54.2,63.1,54.2,63.1c-1.1,0-1.9-0.2-2.3-0.7c-0.3-0.4-0.5-0.8-0.4-1.4
							c0.1-0.6,0.2-1.2,0.5-1.8h0c0.1-0.1,0.1-0.3,0-0.4c-0.1-0.1-0.2-0.2-0.4-0.2l-5.1,0v-3.7c0-0.3,0.1-0.5,0.4-0.6
							c0.3-0.2,0.6-0.2,0.9-0.1c1.1,0.5,1.9,0.5,2.4,0.2c0.4-0.3,0.6-0.9,0.5-1.8c-0.1-0.7-0.3-1.1-0.7-1.4
							c-0.6-0.4-1.6-0.3-2.3-0.1c-0.3,0.1-0.6,0-0.8-0.2c-0.2-0.2-0.3-0.4-0.3-0.6v-3.9l4.7,0.1c0.3,0,0.6,0.2,0.7,0.4
							c0.1,0.2,0.1,0.5,0,0.7c-0.3,0.5-0.4,1-0.4,1.5c0.1,1.6,0.9,2.2,2.4,2.2c0.8,0,1.5-0.4,2-1c0.3-0.4,0.4-0.8,0.3-1.2
							c-0.1-0.3-0.4-0.8-0.8-1.4c-0.1-0.2-0.2-0.5,0-0.7c0.1-0.2,0.4-0.4,0.7-0.4l4.4,0.1v4.2c0,0.1,0,0.2,0.1,0.3
							c0.1,0.1,0.2,0.1,0.4,0.1c0.8-0.1,2.2-0.3,3.6,0.2c0.8,0.3,1.2,1,1.1,1.7c-0.2,0.9-1.1,1.7-2.5,1.7c-0.8,0-1.5-0.2-2-0.5
							c-0.1-0.1-0.3-0.1-0.4,0c-0.1,0.1-0.2,0.2-0.2,0.3v3.9l-4.5,0c-0.2,0-0.3,0.1-0.4,0.2c-0.1,0.1-0.1,0.3,0,0.4
							c0.4,0.6,0.7,1.1,0.7,1.5c0.1,0.5-0.1,1.1-0.5,1.6C55.4,62.8,54.8,63.1,54.2,63.1z M46.7,58.3l4.8,0c0.3,0,0.5,0.1,0.6,0.3
							c0.1,0.2,0.1,0.4,0,0.6h0c-0.3,0.5-0.5,1.1-0.5,1.7c0,0.5,0.1,0.9,0.3,1.2c0.4,0.4,1.1,0.6,2.1,0.6c0,0,0,0,0,0
							c0.6,0,1.1-0.2,1.5-0.7c0.4-0.4,0.5-1,0.5-1.4c-0.1-0.4-0.3-0.8-0.7-1.4c-0.1-0.2-0.2-0.4-0.1-0.6c0.1-0.2,0.4-0.4,0.6-0.4
							l4.2,0v-3.7c0-0.2,0.1-0.4,0.3-0.5c0.2-0.1,0.5-0.1,0.7,0c0.5,0.3,1.1,0.4,1.9,0.4c1.3,0,2.1-0.8,2.3-1.5
							c0.1-0.7-0.2-1.2-0.9-1.5c-1.3-0.5-2.7-0.3-3.4-0.2c-0.2,0-0.4,0-0.6-0.1c-0.1-0.1-0.2-0.3-0.2-0.5v-3.9l-4.1-0.1
							c-0.2,0-0.4,0.1-0.5,0.3c-0.1,0.1-0.1,0.3,0,0.4c0.5,0.7,0.7,1.2,0.8,1.5c0.1,0.4,0,0.9-0.4,1.4c-0.5,0.7-1.3,1.1-2.2,1.1
							c-1.7,0-2.5-0.7-2.7-2.4c-0.1-0.6,0.1-1.1,0.4-1.6c0.1-0.1,0.1-0.3,0-0.4c-0.1-0.2-0.3-0.3-0.5-0.3l-4.5-0.1v3.6
							c0,0.2,0.1,0.3,0.2,0.4c0.2,0.1,0.4,0.2,0.6,0.1c0.7-0.2,1.8-0.3,2.5,0.2c0.5,0.3,0.7,0.9,0.8,1.6c0.1,1-0.1,1.7-0.6,2.1
							c-0.5,0.4-1.4,0.3-2.6-0.2c-0.2-0.1-0.5-0.1-0.6,0.1c-0.2,0.1-0.3,0.3-0.3,0.4V58.3z"/>
						<path class="st13" d="M54,86.1C54,86.1,54,86.1,54,86.1c-0.6,0-2-0.1-2.6-0.9c-0.3-0.3-0.4-0.7-0.3-1.1c0.1-0.5,0.3-1,0.7-1.6
							l0,0c0.1-0.1,0.1-0.2,0-0.4c-0.1-0.1-0.2-0.2-0.4-0.2c0,0,0,0,0,0l-4.9,0.1v-4.3c0-0.3,0.1-0.5,0.4-0.7
							c0.3-0.2,0.6-0.2,0.9-0.1c1.7,0.7,2.4,0.6,2.7,0.5c0.1-0.1,0.2-0.2,0.2-0.3c0.2-1,0-2.4-0.5-3.1c-0.2-0.2-0.4-0.3-0.6-0.4
							c-0.3,0-0.6,0.3-1,0.6c-0.3,0.2-0.6,0.5-0.8,0.6c-0.3,0.1-0.6,0.1-0.9-0.1c-0.2-0.2-0.4-0.4-0.4-0.7v-4.5l5.1,0c0,0,0,0,0,0
							c0.3,0,0.5,0.1,0.6,0.4c0.1,0.2,0.1,0.4,0,0.6c-0.4,0.6-0.7,1.2-0.7,1.6c0,0.4,0.1,0.7,0.4,1c0.6,0.6,1.6,0.9,2.6,0.7
							c0.8-0.1,1.5-0.6,1.8-1.4c0.3-0.7,0.2-1.4-0.3-2c-0.1-0.2-0.2-0.4-0.1-0.6c0.1-0.2,0.4-0.4,0.7-0.4l4.5,0v3.9
							c0,0.1,0.1,0.2,0.2,0.3c0.1,0.1,0.3,0.1,0.4,0c0.6-0.3,1.5-0.6,2.2-0.4c0.5,0.1,0.8,0.6,1,1.2c0.2,0.9,0,2-0.5,2.5
							c-0.6,0.6-1.8,0.2-2.7-0.1c-0.1-0.1-0.3,0-0.4,0c-0.1,0.1-0.2,0.2-0.2,0.3v4.5L56.1,82c-0.2,0-0.3,0.1-0.4,0.2
							c-0.1,0.1,0,0.2,0,0.3c0.4,0.5,0.7,1,0.7,1.4c0.1,0.4-0.1,0.9-0.5,1.3C55.6,85.8,54.8,86.1,54,86.1z M51.4,81.8
							c0.3,0,0.5,0.1,0.6,0.3c0.1,0.2,0.1,0.4-0.1,0.6l0,0c-0.4,0.5-0.6,1-0.6,1.4c0,0.3,0.1,0.6,0.3,0.9c0.4,0.5,1.3,0.8,2.4,0.8
							c0.7,0,1.5-0.3,1.9-0.8c0.3-0.3,0.4-0.7,0.4-1.1c-0.1-0.4-0.3-0.8-0.7-1.3c-0.1-0.2-0.2-0.4-0.1-0.6c0.1-0.2,0.3-0.4,0.6-0.4
							l4.6-0.1v-4.3c0-0.2,0.1-0.4,0.3-0.5c0.2-0.1,0.4-0.2,0.7-0.1c0.7,0.3,2,0.7,2.4,0.2c0.5-0.5,0.7-1.5,0.5-2.3
							c-0.1-0.5-0.4-0.9-0.8-1c-0.7-0.2-1.5,0.1-2,0.4c-0.2,0.1-0.5,0.1-0.7,0c-0.2-0.1-0.3-0.3-0.3-0.5v-3.6l-4.3,0
							c-0.2,0-0.4,0.1-0.4,0.3c-0.1,0.1,0,0.3,0,0.4c0.6,0.7,0.7,1.5,0.4,2.3c-0.3,0.8-1.1,1.4-2,1.5c-1.1,0.1-2.1-0.2-2.8-0.8
							c-0.4-0.4-0.5-0.8-0.5-1.2c0.1-0.5,0.3-1.1,0.8-1.7c0.1-0.1,0.1-0.3,0-0.4c-0.1-0.1-0.2-0.2-0.4-0.2c0,0,0,0,0,0l-4.8,0v4.3
							c0,0.2,0.1,0.3,0.3,0.5c0.2,0.1,0.4,0.1,0.6,0c0.2-0.1,0.5-0.3,0.7-0.6c0.4-0.4,0.8-0.7,1.2-0.7c0.3,0,0.5,0.2,0.8,0.5
							c0.6,0.7,0.7,2.3,0.6,3.3c0,0.2-0.2,0.4-0.4,0.5c-0.5,0.3-1.5,0.1-2.9-0.5c-0.2-0.1-0.5-0.1-0.7,0.1c-0.2,0.1-0.3,0.3-0.3,0.5
							v4.1L51.4,81.8C51.4,81.8,51.4,81.8,51.4,81.8z"/>
						<path class="st13" d="M67.9,63.2c-0.7,0-1.4-0.3-2-0.8c-0.5-0.5-0.8-1-0.8-1.6c0-0.5,0.2-1,0.5-1.5c0.1-0.1,0.1-0.3,0-0.4
							c-0.1-0.1-0.2-0.2-0.4-0.2l-4.9,0v-3.9c0-0.2,0.1-0.4,0.3-0.5c0.2-0.1,0.5-0.1,0.7,0c0.5,0.3,1.1,0.4,1.9,0.4
							c1.3,0,2.1-0.8,2.3-1.5c0.1-0.7-0.2-1.2-0.9-1.5c-1.3-0.5-2.7-0.3-3.4-0.2h0c-0.2,0-0.4,0-0.6-0.1c-0.1-0.1-0.2-0.3-0.2-0.5
							v-4.2l5,0.1c0,0,0,0,0,0c0.2,0,0.4-0.1,0.4-0.3c0.1-0.1,0.1-0.3,0-0.4c-0.4-0.6-0.7-1.2-0.9-1.8c-0.2-0.7,0-1.4,0.5-2
							c0.5-0.6,1.4-1,2.2-1c1.8,0.1,2.9,1.1,3,2.8c0.1,0.8-0.1,1.5-0.5,2.2c-0.1,0.1-0.1,0.3,0,0.4c0.1,0.2,0.3,0.3,0.5,0.3l4.6,0.1
							v3.5c0,0.2,0.1,0.3,0.2,0.4c0.2,0.1,0.4,0.1,0.5,0c0.5-0.2,0.9-0.3,1.4-0.1c0.6,0.2,1.1,0.7,1.5,1.6c0.6,1.3,0.4,2,0,2.3
							c-0.7,0.7-2,0.7-3,0.3c-0.2-0.1-0.3-0.1-0.5,0c-0.1,0.1-0.2,0.2-0.2,0.4v3.6l-5.1,0c-0.2,0-0.3,0.1-0.4,0.2
							c-0.1,0.1,0,0.3,0.1,0.4c0.5,0.5,0.7,1,0.9,1.4c0.1,0.4,0,0.8-0.2,1.2c-0.4,0.6-1.2,1-2.1,1.1C68.1,63.2,68,63.2,67.9,63.2z
							 M60.5,58.4l4.6,0c0.3,0,0.5,0.1,0.6,0.3c0.1,0.2,0.1,0.4,0,0.6c-0.3,0.5-0.4,0.9-0.4,1.4c0,0.5,0.3,1,0.7,1.4
							c0.6,0.5,1.4,0.8,2.1,0.7c0.8-0.1,1.5-0.5,1.9-1c0.2-0.3,0.3-0.7,0.2-1c-0.1-0.4-0.4-0.8-0.8-1.3c-0.2-0.2-0.2-0.4-0.1-0.7
							c0.1-0.2,0.3-0.4,0.6-0.4l4.8,0v-3.3c0-0.2,0.1-0.4,0.3-0.6c0.2-0.1,0.5-0.2,0.7-0.1c0.9,0.4,2.1,0.4,2.7-0.2
							c0.4-0.4,0.4-1.1-0.1-2c-0.4-0.8-0.9-1.3-1.4-1.4c-0.4-0.1-0.8-0.1-1.2,0.1c-0.2,0.1-0.5,0.1-0.8,0c-0.2-0.1-0.3-0.4-0.3-0.6
							v-3.2l-4.4-0.1c-0.3,0-0.5-0.2-0.7-0.4c-0.1-0.2-0.1-0.5,0-0.7c0.4-0.6,0.6-1.3,0.5-2c-0.2-2.1-1.8-2.5-2.8-2.6
							c-0.7-0.1-1.5,0.3-2,0.9c-0.4,0.5-0.6,1.1-0.4,1.8c0.2,0.6,0.4,1.2,0.8,1.8c0.1,0.2,0.2,0.5,0.1,0.7c-0.1,0.2-0.4,0.4-0.7,0.4
							c0,0,0,0,0,0l-4.8-0.1v3.9c0,0.1,0,0.2,0.1,0.3c0.1,0.1,0.2,0.1,0.4,0.1l0,0c0.8-0.1,2.2-0.3,3.6,0.2c0.8,0.3,1.2,1,1.1,1.7
							c-0.2,0.9-1.1,1.7-2.5,1.7c-0.8,0-1.5-0.2-2-0.5c-0.1-0.1-0.3-0.1-0.4,0c-0.1,0.1-0.2,0.2-0.2,0.3V58.4z"/>
					</g>
				</g>
			</g>
			<g>
				<g>
					<polygon class="st7" points="79.7,147.7 37.5,151.2 37.5,149.1 79.7,145.6 					"/>
					<polygon class="st7" points="79.7,151.3 37.5,155 37.5,152.9 79.7,149.3 					"/>
				</g>
				<g>
					<polygon class="st7" points="122.4,144.1 83.8,147.3 83.8,145.3 122.4,142.1 					"/>
					<polygon class="st7" points="122.4,147.5 83.8,150.9 83.8,148.9 122.4,145.6 					"/>
				</g>
			</g>
			<g>
				<path class="st13" d="M100.2,31.9c-5.3-3.1-9.4-0.9-12.7-4.5c-3.5-3.8-1.2-8.8-4.8-11.2c-2.3-1.5-4.4-0.2-7.2-0.6
					c-1-0.1-2.1-0.5-3.2-1.3l-1.5,5.5c-0.8,2.9-3.6,4.9-6.7,4.8l-6.9-0.3c-1.1,0-2.2,0.6-2.7,1.6l-4.1,7.9c-0.3,0.6,0.1,1.3,0.8,1.4
					l54.1,1.7C104,34.8,102.3,33.1,100.2,31.9z"/>
			</g>
		</g>
		<g>
			<g>
				<path class="st6" d="M128,186.4c-1.3,0-2.4-1-2.4-2.3c0-1.1-0.3-26,15.8-32.4c3.9-1.5,7.4-1.5,10.4,0.1c6.2,3.4,8,12.4,8.6,15.4
					c0,0.2,0.1,0.4,0.1,0.5c0.4,1,0,2.2-0.9,2.8c-1.1,0.7-2.6,0.4-3.3-0.7c-0.3-0.4-0.4-0.8-0.5-1.6c-1.3-6.5-3.4-10.6-6.2-12.1
					c-1.7-0.9-3.8-0.9-6.4,0.1c-13,5.2-12.8,27.6-12.8,27.9c0,1.2-0.9,2.3-2.1,2.4C128.2,186.4,128.1,186.4,128,186.4z M160.3,167.1
					C160.3,167.1,160.3,167.1,160.3,167.1C160.3,167.1,160.3,167.1,160.3,167.1z M160.3,167.1C160.3,167.1,160.3,167.1,160.3,167.1
					C160.3,167.1,160.3,167.1,160.3,167.1z"/>
				<path class="st6" d="M92.3,173.5c-1.3-0.1-2.3-1.3-2.1-2.6c0.1-1.1,2.7-25.8,19.4-30.3c4-1.1,7.5-0.6,10.3,1.3
					c5.8,4.1,6.5,13.3,6.8,16.3c0,0.2,0,0.4,0,0.5c0.2,1-0.3,2.2-1.3,2.7c-1.2,0.6-2.6,0.1-3.2-1.1c-0.2-0.5-0.3-0.8-0.3-1.7
					c-0.5-6.6-2.1-10.9-4.8-12.8c-1.6-1.1-3.7-1.4-6.3-0.6c-13.5,3.6-15.9,26-15.9,26.2c-0.1,1.2-1.2,2.2-2.4,2.2
					C92.5,173.5,92.4,173.5,92.3,173.5z M126.5,158.1C126.5,158.1,126.5,158.1,126.5,158.1C126.5,158.1,126.5,158.1,126.5,158.1z
					 M126.5,158.1C126.5,158.1,126.5,158.1,126.5,158.1C126.5,158.1,126.5,158.1,126.5,158.1z"/>
				<g>
					<path class="st6" d="M91.2,153.6c5.2-10.5,16.9-8.4,26.8-18.6c6.8-7,4.1-11,10.6-16.7c1.4-1.3,3-2.3,4.6-3.2
						c1.4-0.8,3.1-1.1,4.7-1l35,3.1c1.5,0.1,2.5,3.1,1.3,4c-1,0.8-0.6,0.5-1.5,1.4c-6.9,7.1-3.6,11.3-10.7,19.8
						c-10.4,12.4-23.1,12.2-28.9,22.5l-0.7,0.7c-0.8,0.6-2.1,0.2-2.5,0.2l-36.5-8.2C91.5,157.5,90.3,155.4,91.2,153.6
						C91.2,153.6,91.2,153.6,91.2,153.6z"/>
				</g>
				<g>
					
						<linearGradient id="SVGID_00000078019595253084032150000002929522446663706784_" gradientUnits="userSpaceOnUse" x1="122.4729" y1="111.941" x2="133.9862" y2="144.7096">
						<stop  offset="0" style="stop-color:#FFC444"/>
						<stop  offset="0.9964" style="stop-color:#F36F56"/>
					</linearGradient>
					<path style="fill:url(#SVGID_00000078019595253084032150000002929522446663706784_);" d="M88.8,153.3
						c5.2-10.5,16.9-8.4,26.8-18.6c6.8-7,4.1-11,10.6-16.7c1.4-1.3,3-2.3,4.6-3.2c1.4-0.8,3.1-1.1,4.7-1l36.9,3.1
						c0.7,0,0.6-0.3,0.9,0.2c0,0,0.5,0.9,0.5,0.9c0.2,0.6,0.1,1.4-0.5,1.8c-1,0.8-2,1.6-2.9,2.6c-6.9,7.1-3.6,11.3-10.7,19.8
						c-10.4,12.4-23.9,10.9-28.9,23.2l0,0c-0.2,0.4-0.5,0.6-0.9,0.6L91,157.4c-0.9-0.1-1.7-0.6-2.1-1.3c0,0-0.6-1-0.6-1
						C88.3,154.3,88.4,154.3,88.8,153.3C88.8,153.4,88.8,153.4,88.8,153.3z"/>
				</g>
				<g>
					
						<linearGradient id="SVGID_00000011730094485749732240000018086527945264368541_" gradientUnits="userSpaceOnUse" x1="186.7593" y1="130.1025" x2="60.1134" y2="151.0034">
						<stop  offset="0" style="stop-color:#FFC444"/>
						<stop  offset="0.9964" style="stop-color:#F36F56"/>
					</linearGradient>
					<path style="fill:url(#SVGID_00000011730094485749732240000018086527945264368541_);" d="M88.4,152.6
						c5.2-10.5,16.9-8.4,26.8-18.6c6.8-7,4.1-11,10.6-16.7c1.4-1.3,3-2.3,4.6-3.2c1.4-0.8,3.1-1.1,4.7-1l36.9,3.1
						c1.5,0.1,2.1,2,0.9,2.9c-1,0.8-2,1.6-2.9,2.6c-6.9,7.1-3.6,11.3-10.7,19.8c-10.4,12.4-23.9,10.9-28.9,23.2l0,0
						c-0.2,0.4-0.5,0.6-0.9,0.6l-38.8-8.6C88.7,156.5,87.5,154.4,88.4,152.6C88.4,152.7,88.4,152.6,88.4,152.6z"/>
				</g>
			</g>
			<g>
				
					<linearGradient id="SVGID_00000105424751810736336920000009743598516094767241_" gradientUnits="userSpaceOnUse" x1="-2270.5432" y1="182.471" x2="-2264.3538" y2="182.471" gradientTransform="matrix(-1 0 0 1 -2162.377 0)">
					<stop  offset="0" style="stop-color:#311944"/>
					<stop  offset="1" style="stop-color:#893976"/>
				</linearGradient>
				<path style="fill:url(#SVGID_00000105424751810736336920000009743598516094767241_);" d="M107.7,180.2c0,0,0.8,1.9,0.3,2.4
					c-0.5,0.5-4.5,1.9-5.6,2.1c-1.1,0.3,0-1.3,1.3-2.1C104.7,182,107.7,180.2,107.7,180.2z"/>
				
					<linearGradient id="SVGID_00000077289094753139768440000002944051070613655444_" gradientUnits="userSpaceOnUse" x1="-2281.5083" y1="184.99" x2="-2274.1746" y2="184.99" gradientTransform="matrix(-1 0 0 1 -2162.377 0)">
					<stop  offset="0" style="stop-color:#311944"/>
					<stop  offset="1" style="stop-color:#893976"/>
				</linearGradient>
				<path style="fill:url(#SVGID_00000077289094753139768440000002944051070613655444_);" d="M119.1,182.6c0,0,0,1.6-0.3,2.1
					c-0.3,0.5-0.3,0.5-0.3,0.5s-5.3,1.9-6.4,2.1c-1.1,0.3,0.1-1.7,0.5-2.1c0.5-0.5,4-2.4,4-2.4L119.1,182.6z"/>
				
					<linearGradient id="SVGID_00000176721855669110340770000001360601121047296910_" gradientUnits="userSpaceOnUse" x1="-2264.0818" y1="165.1977" x2="-2279.6528" y2="143.345" gradientTransform="matrix(-1 0 0 1 -2162.377 0)">
					<stop  offset="0" style="stop-color:#444B8C"/>
					<stop  offset="0.9964" style="stop-color:#26264F"/>
				</linearGradient>
				<path style="fill:url(#SVGID_00000176721855669110340770000001360601121047296910_);" d="M120.5,131.6
					c-1.7,0.2-15.9,2.2-21.5,13.5c-3,6.2-2.1,12.3-1.6,16.2c1.4,9.8,6.4,16.6,9,19.6c0.5-0.1,1.1-0.2,1.6-0.3
					c0.6-1.3,1.3-3.2,1.9-5.6c0.4-2,0.7-4.4,0.5-8.5c-0.4-7.6-1.8-7.3-1.3-10.1c0.9-4.6,5-5.4,14.9-15.9c2.5-2.6,4-4.5,3.5-6.1
					C126.5,132,121.4,131.7,120.5,131.6z"/>
				
					<linearGradient id="SVGID_00000175292776279610251990000010946215628905507259_" gradientUnits="userSpaceOnUse" x1="121.3612" y1="91.6684" x2="122.2771" y2="127.7688">
					<stop  offset="0.3999" style="stop-color:#6165D7"/>
					<stop  offset="0.557" style="stop-color:#8A74EA"/>
					<stop  offset="1" style="stop-color:#AA80F9"/>
				</linearGradient>
				<path style="fill:url(#SVGID_00000175292776279610251990000010946215628905507259_);" d="M136.6,92.6c-1-0.7-7.5-1.9-12.2,0.8
					c-7.8,4.7-11,13.4-16.5,22.3c-2.4,3.8-2.6,5.3-2.1,6.4c1.4,3.4,9.4,4.2,14.9,2.4C135.1,119.8,140.7,95.3,136.6,92.6z"/>
				
					<linearGradient id="SVGID_00000097499427650442068550000017816170328842793605_" gradientUnits="userSpaceOnUse" x1="-2277.0105" y1="99.1046" x2="-2288.6003" y2="109.7213" gradientTransform="matrix(-1 0 0 1 -2162.377 0)">
					<stop  offset="0.3999" style="stop-color:#6165D7"/>
					<stop  offset="0.557" style="stop-color:#8A74EA"/>
					<stop  offset="1" style="stop-color:#AA80F9"/>
				</linearGradient>
				<path style="opacity:0.4;fill:url(#SVGID_00000097499427650442068550000017816170328842793605_);" d="M117.9,122.2
					c0.7-1.3,1.4-3.8,0.3-5c-1.5-1.6-5.5,0-6.1,0.3c-2.5,1.1-3.6,2.7-4,2.4c-0.5-0.3,0.2-2.8,1.9-4.5c1.9-2,3.4-1.4,5-3.2
					c1.5-1.7,0.7-2.9,1.9-5c1.6-2.9,4.2-3,7.2-5c1.7-1.1,3.7-3.1,5.4-6.4c4.1-2.4,6.2-3.6,7.2-3c4.1,2.7-1.5,27.2-15.9,31.9
					c-1.9,0.6-4.1,0.9-6.2,0.9C115.8,124.8,117.1,123.8,117.9,122.2z"/>
				<path class="st6" d="M110.1,183.3c0.3,0,0.6-0.2,0.7-0.6l8.1-58.7c0.1-0.9-0.1-1.7-0.6-2.4c-0.5-0.7-1.3-1.1-2.2-1.3l-1.6-0.2
					c-0.7-0.1-1.4,0.1-1.9,0.6c-0.5,0.5-0.8,1.1-0.8,1.8v1.2c0,0.4,0.3,0.7,0.7,0.7c0.4,0,0.7-0.3,0.7-0.7v-1.2
					c0-0.3,0.1-0.6,0.4-0.8c0.2-0.2,0.5-0.3,0.9-0.3l1.6,0.2c0.5,0.1,1,0.3,1.3,0.7c0.3,0.4,0.4,0.9,0.4,1.4l-8.1,58.7
					C109.4,182.9,109.7,183.2,110.1,183.3C110,183.3,110.1,183.3,110.1,183.3z"/>
				
					<linearGradient id="SVGID_00000042013418909417414940000002085842980386853555_" gradientUnits="userSpaceOnUse" x1="-2277.1074" y1="167.2017" x2="-2307.8958" y2="139.333" gradientTransform="matrix(-1 0 0 1 -2162.377 0)">
					<stop  offset="0" style="stop-color:#444B8C"/>
					<stop  offset="0.9964" style="stop-color:#26264F"/>
				</linearGradient>
				<path style="fill:url(#SVGID_00000042013418909417414940000002085842980386853555_);" d="M151.2,133.2c1.7,4.4,1,7.3,0.5,8.8
					c-2.4,7-12.4,10.1-14.1,10.6c-3.4,1.1-6.1,1.2-9,3.7c-0.8,0.7-2.3,2.2-3.5,4.5c-1.6,3.3-1.4,6.4-1.3,8c0.1,3.5-0.8,8.5-4.8,15.1
					c-0.6-0.1-1.2-0.2-1.9-0.3c-1.7-4.5-5.1-15.2-2.1-27.6c0.8-3.4,2.5-10.3,8.2-17c1.9-2.3,3.9-3.9,5.3-5
					C136.2,133.8,143.7,133.5,151.2,133.2z"/>
				<g class="st26">
					
						<linearGradient id="SVGID_00000010303251019271554720000014553841083818826911_" gradientUnits="userSpaceOnUse" x1="-2279.6951" y1="170.0605" x2="-2310.4834" y2="142.1917" gradientTransform="matrix(-1 0 0 1 -2162.377 0)">
						<stop  offset="0" style="stop-color:#444B8C"/>
						<stop  offset="0.9964" style="stop-color:#26264F"/>
					</linearGradient>
					<path style="fill:url(#SVGID_00000010303251019271554720000014553841083818826911_);" d="M117.5,158.4c1-1.6,2-0.9,4.2-2.9
						c3.9-3.6,2.2-7.2,5-9.6c3.4-2.8,7.7,0.9,13-1.3c3.3-1.4,6.8-7.8,8.3-11.3c1,0,2-0.1,3.1-0.1c1.7,4.4,1,7.3,0.5,8.8
						c-2.4,7-12.4,10.1-14.1,10.6c-3.4,1.1-6.1,1.2-9,3.7c-0.8,0.7-2.3,2.2-3.5,4.5c-1.6,3.3-1.4,6.4-1.3,8
						c0.1,3.5-0.8,8.5-4.8,15.1c-0.6-0.1-1.2-0.2-1.9-0.3c-0.3-0.8-0.7-1.8-1-3c2.7-3,3.5-5.7,3.7-7.6
						C120.5,166.8,115.2,162.1,117.5,158.4z"/>
				</g>
				<g>
					
						<linearGradient id="SVGID_00000002363645754985253090000001960916569239407023_" gradientUnits="userSpaceOnUse" x1="-2288.9548" y1="102.7028" x2="-2312.5024" y2="143.1493" gradientTransform="matrix(-1 0 0 1 -2162.377 0)">
						<stop  offset="0.3999" style="stop-color:#6165D7"/>
						<stop  offset="0.557" style="stop-color:#8A74EA"/>
						<stop  offset="1" style="stop-color:#AA80F9"/>
					</linearGradient>
					<path style="fill:url(#SVGID_00000002363645754985253090000001960916569239407023_);" d="M135.2,90.2c5,0.1,10,5.5,13.1,8.1
						c5.2,4.3,7.3,13.5,7.3,17.5c-0.1,5.9-1.1,6.9-1.1,10c0,3.9,2.2,5.1,1.3,7.7c-0.6,1.8-2.7,1.6-4.5,1.9
						c-3.9,0.7-8.6,0.7-12.7,1.1c-2.7,0.2-5.7,0.4-8.2,1.5c-2.1,0.8-4.6,1.9-6.5,1.3c-1.3-0.4-2.3-1.7-2.5-2.2c-1-2.8-1-2.7,0-5.7
						c1.4-4.1,3.4-9.3,1.7-14.3c-0.5-1.5-2.8-5.5-3.9-7.1c-0.8-1.1-2-3.3-2.1-4.4c-0.5-4.5,2.2-8.4,5.3-10.9
						C126.6,91.4,129.8,90.1,135.2,90.2z"/>
				</g>
				<g class="st29">
					
						<linearGradient id="SVGID_00000129894604485204497440000005708121510442127788_" gradientUnits="userSpaceOnUse" x1="149.2348" y1="107.4448" x2="126.5139" y2="146.4712">
						<stop  offset="0.3999" style="stop-color:#6165D7"/>
						<stop  offset="0.557" style="stop-color:#8A74EA"/>
						<stop  offset="1" style="stop-color:#AA80F9"/>
					</linearGradient>
					<path style="fill:url(#SVGID_00000129894604485204497440000005708121510442127788_);" d="M154.5,125.9c0-3.1,1-4.1,1.1-10
						c0-4-2.1-13.2-7.3-17.5c-2.7-2.2-6.7-6.5-11-7.8c0.5,1.6,1,3.1,1.6,4.5c3.3,7.9,3.5,19.6-4.5,23.6c-3.1,1.6-7.3,1.2-10.7,2.6
						c0,3.6-1.3,7.2-2.3,10.1c-1,3-1,2.9,0,5.7c0.2,0.5,1.2,1.7,2.5,2.2c1.9,0.6,4.4-0.4,6.5-1.3c2.6-1.1,5.5-1.2,8.2-1.5
						c4.2-0.4,8.8-0.4,12.7-1.1c1.8-0.3,3.9-0.1,4.5-1.9C156.7,130.9,154.5,129.7,154.5,125.9z"/>
				</g>
				
					<linearGradient id="SVGID_00000013902049685678841220000001852535017403476903_" gradientUnits="userSpaceOnUse" x1="-2276.2656" y1="117.9815" x2="-2279.3843" y2="122.361" gradientTransform="matrix(-1 0 0 1 -2162.377 0)">
					<stop  offset="0" style="stop-color:#FFC444"/>
					<stop  offset="0.9964" style="stop-color:#F36F56"/>
				</linearGradient>
				<path style="fill:url(#SVGID_00000013902049685678841220000001852535017403476903_);" d="M117.3,119.4l-0.4-0.5
					c-0.4-0.5-1.1-0.7-1.7-0.5c-0.7,0.2-1.7,0.5-2.1,0.8c-0.8,0.5,1.6,2.9,1.9,2.9C115.4,122.1,117.8,120.5,117.3,119.4z"/>
				
					<linearGradient id="SVGID_00000125564755200205467990000010628969060967415187_" gradientUnits="userSpaceOnUse" x1="-2278.6418" y1="116.9963" x2="-2285.5427" y2="127.613" gradientTransform="matrix(-1 0 0 1 -2162.377 0)">
					<stop  offset="0" style="stop-color:#FFC444"/>
					<stop  offset="0.9964" style="stop-color:#F36F56"/>
				</linearGradient>
				<path style="fill:url(#SVGID_00000125564755200205467990000010628969060967415187_);" d="M123.4,120.2c0,0-2.1,0-2.9,0
					c-0.8,0-3.2-1.6-4.2-1.3c-1.1,0.3-1.9,1.9-1.9,2.7c0,0.8,0.8,0.8,2.1-0.3c1-0.8,2.7,0,3.2,0.3c0.5,0.3,2.9,0.8,2.9,0.8
					L123.4,120.2z"/>
				<g>
					
						<linearGradient id="SVGID_00000150817183374639415390000012039415947449534365_" gradientUnits="userSpaceOnUse" x1="-2302.8342" y1="116.5058" x2="-2316.427" y2="156.0489" gradientTransform="matrix(-1 0 0 1 -2162.377 0)">
						<stop  offset="0.3999" style="stop-color:#6165D7"/>
						<stop  offset="0.557" style="stop-color:#8A74EA"/>
						<stop  offset="1" style="stop-color:#AA80F9"/>
					</linearGradient>
					<path style="fill:url(#SVGID_00000150817183374639415390000012039415947449534365_);" d="M134.4,90.9c2.6-2.9,18.3,3,22.2,9
						c0.6,1,6.2,9.2,6.5,13.5c0.4,5.5-5.2,13.5-8.3,15.7c-10.6,7.4-17.8,3.1-27.7,0.3c-3.7-1.1-6.7-2-7.9-5.2
						c-0.6-1.4-0.1-2.2,0.9-3.4c2.3-2.7,6.6-1.6,10-1.5c4.1,0.1,7.5,2.4,12.2-0.4c1.3-0.8,3.1-5.1,2.9-8.1
						C144.9,105.2,131.7,93.9,134.4,90.9z"/>
				</g>
				<g>
					
						<linearGradient id="SVGID_00000178174325181811880230000003470538880666111393_" gradientUnits="userSpaceOnUse" x1="123.833" y1="97.1995" x2="120.1133" y2="92.5942">
						<stop  offset="0" style="stop-color:#FFC444"/>
						<stop  offset="0.9964" style="stop-color:#F36F56"/>
					</linearGradient>
					<path style="fill:url(#SVGID_00000178174325181811880230000003470538880666111393_);" d="M122.4,94.8c0.1,0.8,0.5,0.9,0.6,1.6
						c0.1,0.5-0.1,1-1.9,3.6c-1,1.3-1.2,1.5-1.1,1.6c0.2,0.3,3.8-2.3,6.8-5.5c0,0,1.9-1.9,1.6-2.3c-0.2-0.3-1.6,1-2.9,0.6
						c-1.2-0.4-1.4-1.8-2.1-1.7C122.8,92.7,122.3,93.8,122.4,94.8z"/>
					<g>
						<g>
							<path class="st35" d="M118.4,93.1c-1.1-0.2-2.2-1.4-2-2.6c0.1-0.7,0.7-1.4,1.4-1.6c0.7-0.2,1.1,0.3,1.8,0
								c0.6-0.2,0.5-0.6,1.2-1c0.2-0.1,1-0.5,1.7-0.2c1,0.4,1.1,1.9,1.3,2.6c0.1,0.4-0.1,0.6-0.1,1c-0.1,0.5-0.2,1.3-0.4,2.7
								c-0.2-0.2-0.6-0.4-1-0.6c-0.2-0.1-0.8-0.4-1.4-0.5C119.7,92.7,119.4,93.4,118.4,93.1z"/>
							
								<linearGradient id="SVGID_00000101809882547098677890000014203854979335605930_" gradientUnits="userSpaceOnUse" x1="1329.2357" y1="-2020.1403" x2="1328.9956" y2="-2000.7902" gradientTransform="matrix(-0.8261 0.5635 0.5635 0.8261 2357.0024 1010.6032)">
								<stop  offset="0" style="stop-color:#FFC444"/>
								<stop  offset="0.9964" style="stop-color:#F36F56"/>
							</linearGradient>
							<path style="fill:url(#SVGID_00000101809882547098677890000014203854979335605930_);" d="M124,92.6c0,0,0.1,1-0.6,2
								c-0.2,0.4-0.5,0.9-1.1,1.1c-1.1,0.4-2.2-0.7-2.6-1c-1.3-1.2-2-3.1-1.5-3.6c0.2-0.2,0.5,0,1.2-0.2c0.5-0.2,0.8-0.6,0.8-0.7
								c0.3-0.4,0.2-0.5,0.5-0.7c0.4-0.3,0.8-0.1,1-0.1c0.7,0.2,1.3,1.1,1.4,2.3c0.1-0.5,0.4-0.9,0.7-0.9c0.1,0,0.2,0,0.4,0
								C124.6,91,124.6,91.7,124,92.6z"/>
						</g>
						<path class="st35" d="M119.4,94.3c0,0,0.8,0.9,1.1,0.4c0.2-0.5,0.5-1.1,1.2-1c0.7,0.1,1.1-3.1,1.1-3.1l0.5,0
							c0,0-0.5,1.1-0.2,1.5c0.3,0.4,0.6,2.4,0.8,3.1c0.2,0.9-0.6,3-3,1.7C120.2,96.6,119.4,94.3,119.4,94.3z"/>
					</g>
				</g>
			</g>
		</g>
		<g>
			<g>
				<g>
					
						<linearGradient id="SVGID_00000179610173134114261580000001446711566779945385_" gradientUnits="userSpaceOnUse" x1="8.405" y1="149.4317" x2="34.702" y2="149.4317">
						<stop  offset="0" style="stop-color:#FFC444"/>
						<stop  offset="0.9964" style="stop-color:#F36F56"/>
					</linearGradient>
					<path style="fill:url(#SVGID_00000179610173134114261580000001446711566779945385_);" d="M8.4,119.5v54.7
						c0,2.8,5.9,5.1,13.1,5.1c7.3,0,13.1-2.3,13.1-5.1v-54.7H8.4z"/>
					<g class="st38">
						
							<linearGradient id="SVGID_00000159428738957633510650000005784619421383518101_" gradientUnits="userSpaceOnUse" x1="8.405" y1="149.4317" x2="34.702" y2="149.4317">
							<stop  offset="0" style="stop-color:#FFC444"/>
							<stop  offset="0.9964" style="stop-color:#F36F56"/>
						</linearGradient>
						<path style="fill:url(#SVGID_00000159428738957633510650000005784619421383518101_);" d="M25.5,150.1
							c-2.3-8.7-10.2-9.3-11.8-16.7c-0.7-3.1-0.4-7.6,4.1-13.9H8.4v54.7c0,2.8,5.9,5.1,13.1,5.1c2.8,0,5.4-0.3,7.5-0.9
							c-2.5-2.8-4.3-5.9-5-9.4C22.5,161.2,27.5,157.7,25.5,150.1z"/>
					</g>
					<path class="st40" d="M34.7,163.9c-4.6,1.6-10.5,2.2-17.6,0.6v-40h17.6V163.9z"/>
				</g>
				
					<linearGradient id="SVGID_00000173133853480860541950000011087249187350772391_" gradientUnits="userSpaceOnUse" x1="29.7268" y1="114.0673" x2="13.6448" y2="120.8244">
					<stop  offset="0" style="stop-color:#EBEFF2"/>
					<stop  offset="1" style="stop-color:#FFFFFF"/>
				</linearGradient>
				<path style="fill:url(#SVGID_00000173133853480860541950000011087249187350772391_);" d="M32.1,121.1H11c-2,0-3.6-1.6-3.6-3.6v0
					c0-2,1.6-3.6,3.6-3.6h21c2,0,3.6,1.6,3.6,3.6v0C35.7,119.5,34.1,121.1,32.1,121.1z"/>
				<g>
					<path class="st7" d="M32.6,119.8L32.6,119.8c-0.5,0-0.9-0.4-0.9-0.9v-2.7c0-0.5,0.4-0.9,0.9-0.9h0c0.5,0,0.9,0.4,0.9,0.9v2.7
						C33.5,119.4,33.1,119.8,32.6,119.8z"/>
					<path class="st7" d="M29.3,119.8L29.3,119.8c-0.5,0-0.9-0.4-0.9-0.9v-2.7c0-0.5,0.4-0.9,0.9-0.9h0c0.5,0,0.9,0.4,0.9,0.9v2.7
						C30.3,119.4,29.8,119.8,29.3,119.8z"/>
					<path class="st7" d="M26.1,119.8L26.1,119.8c-0.5,0-0.9-0.4-0.9-0.9v-2.7c0-0.5,0.4-0.9,0.9-0.9h0c0.5,0,0.9,0.4,0.9,0.9v2.7
						C27,119.4,26.6,119.8,26.1,119.8z"/>
					<path class="st7" d="M22.9,119.8L22.9,119.8c-0.5,0-0.9-0.4-0.9-0.9v-2.7c0-0.5,0.4-0.9,0.9-0.9h0c0.5,0,0.9,0.4,0.9,0.9v2.7
						C23.8,119.4,23.4,119.8,22.9,119.8z"/>
					<path class="st7" d="M19.7,119.8L19.7,119.8c-0.5,0-0.9-0.4-0.9-0.9v-2.7c0-0.5,0.4-0.9,0.9-0.9h0c0.5,0,0.9,0.4,0.9,0.9v2.7
						C20.6,119.4,20.2,119.8,19.7,119.8z"/>
					<path class="st7" d="M16.5,119.8L16.5,119.8c-0.5,0-0.9-0.4-0.9-0.9v-2.7c0-0.5,0.4-0.9,0.9-0.9h0c0.5,0,0.9,0.4,0.9,0.9v2.7
						C17.4,119.4,17,119.8,16.5,119.8z"/>
					<path class="st7" d="M13.2,119.8L13.2,119.8c-0.5,0-0.9-0.4-0.9-0.9v-2.7c0-0.5,0.4-0.9,0.9-0.9h0c0.5,0,0.9,0.4,0.9,0.9v2.7
						C14.2,119.4,13.8,119.8,13.2,119.8z"/>
					<path class="st7" d="M10,119.8L10,119.8c-0.5,0-0.9-0.4-0.9-0.9v-2.7c0-0.5,0.4-0.9,0.9-0.9h0c0.5,0,0.9,0.4,0.9,0.9v2.7
						C11,119.4,10.5,119.8,10,119.8z"/>
				</g>
			</g>
			<g>
				<g>
					
						<linearGradient id="SVGID_00000175293359144137635930000005360771655960146318_" gradientUnits="userSpaceOnUse" x1="36.3404" y1="172.9839" x2="40.2717" y2="198.4695">
						<stop  offset="0" style="stop-color:#D8DEE8"/>
						<stop  offset="0.9964" style="stop-color:#97A6B7"/>
					</linearGradient>
					<path style="fill:url(#SVGID_00000175293359144137635930000005360771655960146318_);" d="M41.7,173.7c-1.5-0.2-3.2-0.3-5-0.3
						c-1.8,0-3.4,0.1-5,0.3h-7.9v3.7c0,2.2,5.8,4,12.9,4s12.9-1.8,12.9-4v-3.7H41.7z"/>
					<ellipse class="st3" cx="36.7" cy="173.7" rx="12.9" ry="4"/>
					<path class="st43" d="M36.7,176.6c-3.3,0-6.5-0.4-8.8-1.1c-2.5-0.8-3-1.6-3-1.8s0.6-1,3-1.8c2.3-0.7,5.5-1.1,8.8-1.1
						c3.3,0,6.5,0.4,8.8,1.1c2.5,0.8,3,1.6,3,1.8s-0.6,1-3,1.8C43.2,176.2,40.1,176.6,36.7,176.6z"/>
					<path class="st43" d="M36.7,176.6c-3.3,0-6.5-0.4-8.8-1.2c-2.5-0.8-3-1.7-3-1.9c0-0.2,0.6-1.1,3-1.9c2.3-0.8,5.5-1.2,8.8-1.2
						c3.3,0,6.5,0.4,8.8,1.2c2.5,0.8,3,1.7,3,1.9c0,0.2-0.6,1.1-3,1.9C43.2,176.2,40.1,176.6,36.7,176.6z"/>
					<path class="st7" d="M29.6,175c-0.3,0-0.6-0.2-0.7-0.5c-0.1-0.3,0.2-0.6,0.5-0.6l13.5-2.1c0.4-0.1,0.7,0.1,0.8,0.4
						c0.1,0.3-0.2,0.6-0.5,0.6L29.7,175C29.7,175,29.7,175,29.6,175z"/>
				</g>
				<g>
					
						<linearGradient id="SVGID_00000119830537679369411670000013644068636087507624_" gradientUnits="userSpaceOnUse" x1="33.6824" y1="173.2539" x2="60.3494" y2="161.3938">
						<stop  offset="0" style="stop-color:#D8DEE8"/>
						<stop  offset="0.9964" style="stop-color:#97A6B7"/>
					</linearGradient>
					<path style="fill:url(#SVGID_00000119830537679369411670000013644068636087507624_);" d="M41.7,169.4c-1.5-0.2-3.2-0.3-5-0.3
						c-1.8,0-3.4,0.1-5,0.3h-7.9v3.7c0,2.2,5.8,4,12.9,4s12.9-1.8,12.9-4v-3.7H41.7z"/>
					<ellipse class="st3" cx="36.7" cy="169.4" rx="12.9" ry="4"/>
					<path class="st43" d="M36.7,172.3c-3.3,0-6.5-0.4-8.8-1.1c-2.5-0.8-3-1.6-3-1.8c0-0.2,0.6-1,3-1.8c2.3-0.7,5.5-1.1,8.8-1.1
						c3.3,0,6.5,0.4,8.8,1.1c2.5,0.8,3,1.6,3,1.8c0,0.2-0.6,1-3,1.8C43.2,171.9,40.1,172.3,36.7,172.3z"/>
					<path class="st43" d="M36.7,172.3c-3.3,0-6.5-0.4-8.8-1.2c-2.5-0.8-3-1.7-3-1.9s0.6-1.1,3-1.9c2.3-0.8,5.5-1.2,8.8-1.2
						c3.3,0,6.5,0.4,8.8,1.2c2.5,0.8,3,1.7,3,1.9s-0.6,1.1-3,1.9C43.2,171.9,40.1,172.3,36.7,172.3z"/>
					<path class="st7" d="M29.6,170.7c-0.3,0-0.6-0.2-0.7-0.5c-0.1-0.3,0.2-0.6,0.5-0.6l13.5-2.1c0.4-0.1,0.7,0.1,0.8,0.4
						c0.1,0.3-0.2,0.6-0.5,0.6l-13.5,2.1C29.7,170.7,29.7,170.7,29.6,170.7z"/>
				</g>
				<g>
					
						<linearGradient id="SVGID_00000176033371000696316430000012288242837049284495_" gradientUnits="userSpaceOnUse" x1="44.5911" y1="173.1886" x2="66.4085" y2="173.1886">
						<stop  offset="0" style="stop-color:#D8DEE8"/>
						<stop  offset="0.9964" style="stop-color:#97A6B7"/>
					</linearGradient>
					<path style="fill:url(#SVGID_00000176033371000696316430000012288242837049284495_);" d="M66.3,173.1
						c0.9,5.5-3.8,10.2-9.4,10.7c-5.7,0.5-11.2-3.6-12.2-9.3c-1-5.7,3.2-11.6,8.9-12C59.3,162.2,65.3,167.6,66.3,173.1z"/>
					<path class="st3" d="M66.6,171.7c0.9,5.5-2.7,10.4-8.3,10.9c-5.7,0.5-11.2-3.6-12.2-9.3c-1-5.7,2.9-10.6,8.7-10.9
						C60.4,162.1,65.6,166.2,66.6,171.7z"/>
					<path class="st43" d="M57.3,181.8c-2.4,0-4.8-0.9-6.7-2.5c-1.9-1.6-3.2-3.8-3.6-6.2c-0.4-2.5,0.1-4.9,1.6-6.7
						c1.5-1.9,3.7-3,6.2-3.2c0.2,0,0.4,0,0.6,0c4.9,0,9.5,3.8,10.3,8.6c0.4,2.4-0.1,4.8-1.6,6.6c-1.4,1.9-3.5,3-6,3.2
						C57.9,181.8,57.6,181.8,57.3,181.8z"/>
					<path class="st7" d="M55,164.1c-0.5,0-0.9,0.5-0.8,1l2.5,14.8c0.1,0.5,0.6,0.9,1.1,0.8c0.5,0,0.9-0.5,0.8-1l-2.5-14.7
						C56,164.4,55.6,164.1,55,164.1z"/>
					<path class="st43" d="M58.7,179.7l-2.5-14.7c-0.1-0.5-0.6-0.9-1.1-0.9c-0.2,0-0.3,0.1-0.5,0.2c0,0,0.1,0,0.1,0
						c0.5,0,1,0.4,1.1,0.9l2.5,14.7c0.1,0.3-0.1,0.7-0.3,0.8C58.5,180.6,58.8,180.2,58.7,179.7z"/>
				</g>
			</g>
		</g>
		<g>
			
				<linearGradient id="SVGID_00000142155548039266288120000011288999025618832548_" gradientUnits="userSpaceOnUse" x1="111.4728" y1="-17.0165" x2="147.1593" y2="54.5978">
				<stop  offset="0" style="stop-color:#444B8C"/>
				<stop  offset="0.9964" style="stop-color:#26264F"/>
			</linearGradient>
			<path style="fill:url(#SVGID_00000142155548039266288120000011288999025618832548_);" d="M167.7,47.4c0-12.4-11.4-22-25-21.6
				c-7.7,0.3-14.5,3.7-18.7,8.9c0,0,0,0,0,0c0,0-0.1,0.1-0.1,0.1c-0.1,0.1-0.1,0.2-0.2,0.3c-0.1,0.2-0.3,0.3-0.4,0.5
				c-0.1,0.1-0.1,0.2-0.2,0.3c-0.1,0.2-0.2,0.3-0.4,0.5c-0.1,0.1-0.1,0.2-0.2,0.3c-0.1,0.2-0.3,0.4-0.4,0.6c0,0.1-0.1,0.1-0.1,0.2
				c-0.2,0.3-0.3,0.6-0.5,0.8c0,0.1-0.1,0.2-0.1,0.2c-0.1,0.2-0.2,0.4-0.3,0.6c0,0.1-0.1,0.2-0.1,0.3c-0.1,0.2-0.2,0.4-0.2,0.6
				c0,0.1-0.1,0.2-0.1,0.3c-0.1,0.2-0.1,0.4-0.2,0.6c0,0.1-0.1,0.2-0.1,0.3c-0.1,0.3-0.2,0.5-0.2,0.8c0,0.1,0,0.1,0,0.2
				c-0.1,0.3-0.2,0.6-0.2,0.9c0,0.1,0,0.2-0.1,0.3c0,0.2-0.1,0.5-0.1,0.7c0,0.1,0,0.2-0.1,0.3c0,0.2-0.1,0.4-0.1,0.6
				c0,0.1,0,0.2,0,0.4c0,0.2,0,0.4-0.1,0.7c0,0.1,0,0.2,0,0.3c0,0.3,0,0.7,0,1c0,7.9,4.8,14.9,12,18.7c0.7,0.3,1.3,0.7,2,1
				c0.4,0.1,0.7,0.3,1.1,0.4c2.5,0.9,5.3,1.5,8.2,1.5l0,0l0,0h0c0.4,0,0.8,0,1.2,0c0.1,0,0.3,0,0.4,0c0.3,0,0.5,0,0.8,0
				c0.2,0,0.3,0,0.5,0c0.2,0,0.5,0,0.7-0.1c0.2,0,0.3,0,0.5-0.1c0.2,0,0.4-0.1,0.7-0.1c0.2,0,0.3-0.1,0.5-0.1c0.2,0,0.4-0.1,0.6-0.1
				c0.2,0,0.3-0.1,0.5-0.1c0.2,0,0.4-0.1,0.6-0.1c0.2,0,0.3-0.1,0.5-0.1c0.2-0.1,0.4-0.1,0.6-0.2c0.2,0,0.3-0.1,0.5-0.1
				c0.1,0,0.1,0,0.2-0.1c0,0,0,0,0,0C160.9,64.9,167.7,56.9,167.7,47.4z"/>
			
				<linearGradient id="SVGID_00000178890657558737321870000002194197693760441502_" gradientUnits="userSpaceOnUse" x1="132.4589" y1="30.022" x2="167.1214" y2="94.3107">
				<stop  offset="0.3999" style="stop-color:#6165D7"/>
				<stop  offset="0.557" style="stop-color:#8A74EA"/>
				<stop  offset="1" style="stop-color:#AA80F9"/>
			</linearGradient>
			<path style="fill:url(#SVGID_00000178890657558737321870000002194197693760441502_);" d="M165.9,47.4c0,12.3-11.4,22-24.9,21.6
				c-13-0.4-23.2-10-23.2-21.5c0-11.5,10.2-21.2,23.2-21.6C154.5,25.4,165.9,35,165.9,47.4z"/>
			<path class="st3" d="M140.5,56.8c-1.2,0-2.1,0.3-2.8,0.9c-0.6,0.6-0.9,1.5-0.9,2.7c0,1.1,0.3,2,1,2.6s1.6,0.9,2.7,0.9
				c1.2,0,2.1-0.3,2.7-1c0.6-0.6,1-1.5,1-2.6c0-1.2-0.3-2-1-2.7C142.6,57.1,141.7,56.8,140.5,56.8z"/>
			<path class="st3" d="M148.7,34.2c-1.7-1.4-4-2.1-6.9-2.1c-2.8,0-5.4,0.5-7.9,1.6c-0.5,0.2-1,0.7-1.2,1.2
				c-0.2,0.6-0.2,1.2,0.1,1.7l0.4,0.8c0.5,1,1.7,1.4,2.7,1c2-0.8,3.8-1.2,5.4-1.2c1.2,0,2.1,0.2,2.8,0.7c0.7,0.5,1,1.2,1,2.1
				c0,0.8-0.2,1.6-0.7,2.2c-0.5,0.7-1.4,1.5-2.9,2.6c-1.5,1.1-2.6,2.2-3.2,3.2c-0.6,1-0.9,2.2-0.9,3.6c0,0.9,0.7,1.6,1.6,1.6h2.8
				c0.7,0,1.3-0.6,1.3-1.3c0-0.8,0.2-1.5,0.5-2.1c0.4-0.5,1.2-1.3,2.6-2.3c2-1.4,3.3-2.7,4-3.8c0.7-1.1,1.1-2.5,1.1-4
				C151.2,37.5,150.4,35.6,148.7,34.2z"/>
			<g class="st26">
				
					<linearGradient id="SVGID_00000066498666986919228770000009159640644134563234_" gradientUnits="userSpaceOnUse" x1="122.9398" y1="34.2944" x2="156.6135" y2="101.8694">
					<stop  offset="0.3999" style="stop-color:#6165D7"/>
					<stop  offset="0.557" style="stop-color:#8A74EA"/>
					<stop  offset="1" style="stop-color:#AA80F9"/>
				</linearGradient>
				<path style="fill:url(#SVGID_00000066498666986919228770000009159640644134563234_);" d="M146.9,63.6c-2.9-6.5,0-12.4-3.9-16.6
					c-4-4.2-9.1-0.3-14.5-3.6c-2.1-1.3-4.4-3.7-6-8.7c-2.9,3.6-4.6,8-4.6,12.8C117.8,59,128,68.6,141,69c3.1,0.1,6-0.3,8.7-1.2
					C148.4,66.4,147.5,65,146.9,63.6z"/>
			</g>
		</g>
	</g>
</g>
</svg>
