<?xml version="1.0" encoding="UTF-8"?><svg id="Layer_14" xmlns="http://www.w3.org/2000/svg" viewBox="0 0 157.32 134.29"><defs><style>.cls-1{fill:#fff;}.cls-2{fill:#ffba14;}.cls-3{fill:#ff9a95;}.cls-4{fill:#ffcec7;}.cls-5{fill:#ffb5d6;}.cls-6{fill:#fe7129;}.cls-7{fill:#ff7bac;}.cls-8{fill:#9fd3fb;}.cls-9{fill:#d4d8f3;}.cls-10{fill:#241614;}.cls-11{fill:#3897e9;}.cls-12{fill:#838ee8;}.cls-13{fill:#27191c;}.cls-14{fill:#78c8f9;}</style></defs><g><path class="cls-9" d="M157.32,42.21v-2.01h-22.32V17.86h-2v22.34h-20.34V17.86h-2v22.34h-20.34V17.86h-2v22.34h-20.32V17.86h-2v22.34h-20.34V17.86h-2v22.34H23.35V17.86h-2.03v22.34H0v2.01H21.32v20.33H0v2.01H21.32v20.33H0v2.01H21.32v21.33h2.03v-21.33h20.32v21.33h2v-21.33h20.34v21.33h2v-21.33h20.32v21.33h2v-21.33h20.34v21.33h2v-21.33h20.34v21.33h2v-21.33h22.32v-2.01h-22.32v-20.33h22.32v-2.01h-22.32v-20.33h22.32Zm-46.66,0v20.33h-20.34v-20.33h20.34Zm-22.34,0v20.33h-20.32v-20.33h20.32Zm-22.32,0v20.33h-20.34v-20.33h20.34Zm-42.66,0h20.32v20.33H23.35v-20.33Zm0,42.66v-20.33h20.32v20.33H23.35Zm22.32,0v-20.33h20.34v20.33h-20.34Zm22.34,0v-20.33h20.32v20.33h-20.32Zm22.32,0v-20.33h20.34v20.33h-20.34Zm42.69,0h-20.34v-20.33h20.34v20.33Zm0-22.33h-20.34v-20.33h20.34v20.33Z"/><polygon class="cls-2" points="153.19 27.76 125.75 37.2 133.04 43.54 118 60.82 99.43 46.29 56.01 84.42 34.59 64.59 4.27 91.42 10.7 98.69 34.45 77.67 55.84 97.49 99.79 58.89 119.28 74.14 140.36 49.91 147.65 56.25 153.19 27.76"/><path class="cls-13" d="M10.68,98.87l-6.6-7.46,.1-.09,30.42-26.91,.09,.08,21.33,19.75,43.42-38.13,.09,.07,18.47,14.46,14.86-17.09-7.36-6.4,27.87-9.59-5.63,28.93-7.36-6.4-21.07,24.23-.1-.08-19.4-15.19-43.96,38.61-.09-.08-21.31-19.73-23.76,21.02Zm-6.23-7.44l6.25,7.07,23.74-21,.09,.08,21.31,19.73,43.94-38.6,.09,.07,19.39,15.18,21.08-24.24,7.22,6.28,5.46-28.04-27.01,9.29,7.22,6.28-15.2,17.48-.1-.08-18.48-14.47-43.43,38.14-.09-.08-21.33-19.75L4.45,91.43Z"/></g><g><circle class="cls-1" cx="84.48" cy="24.08" r="22.21"/><g><g><path class="cls-4" d="M90.16,13.48c-.09-.05-.18-.1-.26-.14-.02-.01-.05-.02-.07-.03-.03,0-.05-.02-.08-.03l-.05-.02s-.03,0-.05-.01c0,0,0,0,0,0-.65-.16-1.07,.31-1.76,1.34l-.13,.02s-.03-1.58-.4-2.44c-.31-.72-.23-1.81,.06-2.4-.35,.44-1.17,1.24-2.55,1.14-.37-.03-.73-.06-1.09-.1-.77-.09-1.65-.25-2.36-.65-.16,.31-.71,1.45-.9,3.15h0s.2,4.04,.2,4.04c.06,1.33,.87,2.49,2.09,3.03l.11,.05h0s-.44,1.37-.44,1.37l-.05,.17,2.12,2.59,3.19-2.29c-.55-2.78,.12-4.07,.18-4.18,0,0,0,0,0,0,.23-.52,.44-1.04,.61-1.48v-.04c.11-.27,.13-.31,.24-.29,.13,.02,.26,.04,.38,.03,.98,0,1.76-.72,1.75-1.58,0-.51-.29-.96-.73-1.24Z"/><path class="cls-3" d="M82.77,20.49l-.39,1.33c.06,0,.23-.05,.28-.06,.54-.08,1.07-.19,1.6-.33,.52-.14,1.05-.29,1.54-.54,.1-.05,.21-.11,.29-.19,.1-.09,.19-.25,.14-.39-.06-.17-.24-.2-.4-.2-.8,0-1.58,.26-2.37,.33-.2,.02-.4,.02-.6,0-.06,0-.13-.02-.2-.02,.03,.03,.07,.05,.1,.08Z"/><path class="cls-6" d="M92.75,27.81l.61,4.39-4.69,7.52c.39-4.69,1.41-9.31,3.03-13.73,.24-.64,.48-1.27,.74-1.86,.03-.08,.06-.14,.08-.2,0-.02,.01-.04,.02-.06,.25,.12,.56,.25,.9,.4,.53,.23,1.13,.49,1.71,.77l-2.4,2.76Z"/><path class="cls-1" d="M83.32,26.89c-1.09,4.49-2.01,13.25-2.46,19.1-1.04-.17-2.05-.41-3.03-.72l.04-.87h0c.3-8.31,.52-16.86,.61-20.22,.78-.64,1.65-1.17,2.59-1.59l.4,5.84,1.78-1.75,.08,.21Z"/><path class="cls-1" d="M92.14,24.15c-.24,.56-.47,1.15-.69,1.75-1.69,4.6-2.73,9.41-3.09,14.31l-.03,.05c-.03,.05-.02,.12,.02,.16-.07,.96-.11,1.93-.12,2.9v.41s0,0,0,0c-.44,.78-.96,1.61-1.54,2.45h0c-.73,.07-1.46,.11-2.21,.11-.44,0-.89-.01-1.32-.04,.11-5.73,.71-14.65,1.45-19.09h0s.12-.12,.12-.12l.98,2.41,4.52-6.08,.06,.02c.61,.25,1.24,.5,1.85,.76Z"/><polygon class="cls-8" points="84.62 26.78 83.83 27.51 83.45 26.49 84.2 25.75 84.62 26.78"/><path class="cls-6" d="M78.22,23.89s0,.04,0,.06v.17s0,0,0,0c-.08,3.19-.29,11.28-.58,19.33l-2.44-9.91,1.94-3.99-1.14-2.7s0,0,0,0c0,0,0-.01,0-.02h0s0,0,0,0h0s-.17-.41-.17-.41c.65-.85,1.42-1.66,2.41-2.53Z"/><path class="cls-6" d="M77.6,44.41l-.03,.78c-1.96-.64-3.8-1.55-5.48-2.68,0-1.13,0-2.24,.11-3.35,.44-4.87,1.66-8.9,3.65-11.99l1,2.37-1.93,3.97,2.69,10.9Z"/><path class="cls-6" d="M103.75,35.14c-3.43,5.96-9.55,10.18-16.71,11,.53-.79,1.01-1.56,1.43-2.3,0,0,0,0,0-.01,0,0,0,0,0-.01,0,0,0,0,0,0,.3-.54,.58-1.07,.83-1.59,.05-.11,.1-.22,.15-.33,.18-.39,.35-.79,.49-1.17,.03-.07,0-.14-.08-.17-.07-.03-.14,0-.17,.08-.14,.37-.3,.76-.48,1.15-.05,.11-.1,.21-.15,.32-.18,.37-.37,.75-.58,1.13,.01-.99,.06-1.98,.13-2.96l5.01-8.03-.61-4.37,2.08-2.4c1.27,.64,2.36,1.29,3.32,1.98,1.31,.95,2.54,2.17,3.55,3.53,0,0,0,0,0,0,.91,1.26,1.51,2.65,1.77,4.14Z"/><path class="cls-6" d="M74.77,28.5c-1.51,2.9-2.47,6.46-2.84,10.64-.1,1.07-.11,2.12-.11,3.2-2.07-1.44-3.88-3.21-5.35-5.25,4.05-3.11,6.64-6.41,8.3-8.59Z"/><path class="cls-8" d="M84.29,27.45c-.72,4.55-1.29,13.19-1.4,18.79-.6-.04-1.19-.11-1.77-.2,.44-5.68,1.32-14.12,2.37-18.7l.23,.63,.57-.53Z"/><path class="cls-11" d="M89.99,23.26l-4.21,5.66-.88-2.15s0,0,0,0l-.6-1.47-1.09,1.08-1.51,1.49-.37-5.36c.05-.02,.11-.04,.16-.07,0,0,0,0,.01,0,.09-.03,.17-.07,.26-.1,0,0,0,0,0,0,.09-.03,.17-.06,.26-.09,0,0,0,0,.01,0,.06-.02,.12-.04,.18-.06l2.26,2.76,3.41-2.45c.72,.21,1.39,.46,2.09,.79Z"/></g><g><g><path class="cls-10" d="M88.49,40.38s-.05,0-.07-.02c-.06-.04-.08-.12-.04-.18l4.98-7.98-.61-4.39,2.51-2.89c.05-.05,.13-.06,.19-.01,.05,.05,.06,.13,.01,.19l-2.43,2.8,.61,4.37-5.03,8.06s-.07,.06-.11,.06Z"/><path class="cls-10" d="M77.74,44.53c-.06,0-.11-.04-.13-.1l-2.69-10.92,1.93-3.97-1.31-3.1c-.03-.07,0-.14,.07-.17,.07-.03,.14,0,.17,.07l1.36,3.21-1.94,3.99,2.67,10.82c.02,.07-.03,.14-.1,.16-.01,0-.02,0-.03,0Z"/><path class="cls-10" d="M83.15,46.38l-.27-.02c-.6-.04-1.2-.11-1.78-.2-.04,0-.08-.01-.12-.02l-.13-.02v-.12c.48-6.08,1.41-14.74,2.48-19.15l.1-.42,.4,1.08,.84-.78-.06,.38c-.73,4.37-1.34,13.42-1.45,19.13v.14Zm-2.02-.48s0,0,0,0c.58,.09,1.17,.15,1.76,.2,.11-5.54,.67-14.06,1.39-18.65l-.57,.53-.23-.63c-1.02,4.48-1.9,12.69-2.36,18.57Z"/><path class="cls-10" d="M85.71,29.45l-1.51-3.7-2.74,2.69-.42-6.12,.09-.04c.35-.15,.71-.29,1.09-.41l.09-.03,2.22,2.71,3.31-2.37,.08,.02c.81,.23,1.55,.51,2.33,.89l.14,.07-4.68,6.29Zm-1.41-4.17l1.48,3.63,4.21-5.66c-.7-.33-1.37-.58-2.09-.79l-3.41,2.45-2.26-2.76c-.31,.1-.61,.22-.89,.34l.37,5.36,2.61-2.56Z"/><path class="cls-10" d="M83.72,27.97l-.55-1.48c-.03-.07,0-.14,.08-.17,.07-.03,.14,0,.17,.08l.41,1.11,.86-.79c.05-.05,.14-.05,.19,0,.05,.05,.05,.14,0,.19l-1.14,1.06Z"/><path class="cls-10" d="M102.08,31.06s-.08-.02-.11-.05c-1.01-1.36-2.24-2.58-3.55-3.53-.98-.71-2.1-1.37-3.41-2.03-.07-.03-.09-.11-.06-.18,.03-.07,.11-.09,.18-.06,1.32,.66,2.45,1.33,3.45,2.05,1.33,.97,2.58,2.2,3.6,3.58,.04,.06,.03,.14-.03,.18-.02,.02-.05,.03-.08,.03Z"/><path class="cls-10" d="M92.31,24.21s-.03,0-.05-.01c-.65-.27-1.31-.54-1.96-.8l-.17-.07c-.07-.03-.1-.1-.07-.17,.03-.07,.1-.1,.17-.07l.17,.07c.64,.26,1.31,.53,1.96,.81,.07,.03,.1,.11,.07,.17-.02,.05-.07,.08-.12,.08Z"/><path class="cls-10" d="M88.36,43.9h0c-.07,0-.13-.06-.13-.13v-.45c.02-1.02,.13-3.06,.14-3.08,.35-4.91,1.39-9.73,3.09-14.34,.24-.65,.49-1.28,.74-1.87,.03-.08,.05-.13,.07-.18,.02-.06,.04-.12,.08-.2,.03-.07,.11-.1,.17-.07,.07,.03,.1,.11,.07,.17-.03,.08-.05,.13-.07,.19-.02,.06-.04,.11-.08,.2-.25,.59-.5,1.22-.73,1.86-1.69,4.59-2.72,9.39-3.07,14.26,0,.02-.12,2.06-.13,3.07v.45c0,.07-.06,.13-.14,.13Z"/><path class="cls-10" d="M75.66,26.53s-.07-.01-.1-.04c-.03-.03-.04-.07-.03-.1v-.03l.03-.04c.72-.95,1.58-1.85,2.71-2.82,.02-.02,.06-.04,.09-.04,.07,0,.13,.06,.13,.13v.06l-.05,.04c-1.11,.95-1.95,1.82-2.65,2.74h0s-.04,.05-.04,.05c-.03,.02-.06,.03-.09,.03Z"/><path class="cls-10" d="M77.74,44.53s0,0,0,0c-.07,0-.13-.06-.13-.14,.3-8.35,.53-16.96,.61-20.27v-.15c0-.13,0-.26,.01-.38,0-.07,.06-.13,.13-.13,.07,0,.13,.06,.13,.13,0,.12,0,.25,0,.38v.15c-.09,3.31-.31,11.92-.61,20.28,0,.07-.06,.13-.13,.13Z"/><path class="cls-10" d="M95.36,25.13s-.04,0-.06-.01c-.63-.32-1.29-.6-1.87-.85-.41-.17-.76-.33-1.03-.46-.07-.03-.09-.11-.06-.18,.03-.07,.11-.09,.18-.06,.26,.13,.61,.28,1.02,.45,.58,.25,1.25,.54,1.88,.85,.06,.03,.09,.11,.06,.18-.02,.05-.07,.07-.12,.07Z"/><path class="cls-10" d="M66.4,37.11s-.08-.02-.1-.05c-.04-.06-.03-.14,.02-.18,4.23-3.25,6.9-6.76,8.49-8.85,.37-.48,.69-.9,.95-1.23,.05-.06,.13-.06,.19-.02,.06,.05,.06,.13,.02,.19-.26,.32-.58,.74-.95,1.22-1.6,2.11-4.28,5.63-8.54,8.9-.02,.02-.05,.03-.08,.03Z"/><path class="cls-10" d="M86.86,46.3s-.05,0-.07-.02c-.06-.04-.08-.12-.03-.18,.55-.81,1.05-1.6,1.47-2.35l.02-.03c.31-.54,.58-1.07,.83-1.59,.05-.11,.1-.21,.15-.32,.18-.38,.34-.77,.48-1.15,.03-.07,.1-.1,.17-.08,.07,.03,.1,.1,.08,.17-.15,.38-.31,.78-.49,1.17-.05,.11-.1,.22-.15,.33-.24,.51-.52,1.04-.82,1.57l-.02,.03c-.44,.77-.94,1.58-1.5,2.4-.03,.04-.07,.06-.11,.06Z"/><path class="cls-10" d="M103.85,35.1c-.06,0-.12-.04-.13-.11-.28-1.43-.87-2.76-1.74-3.98h0s-.01-.02-.01-.02c-.06-.08-.11-.16-.17-.23-.04-.06-.03-.14,.02-.18s.14-.03,.18,.02c.06,.08,.11,.15,.17,.23,0,0,0,.01,.01,.02h0c.9,1.25,1.5,2.62,1.79,4.09,.01,.07-.03,.14-.1,.15,0,0-.02,0-.03,0Z"/><path class="cls-10" d="M77.83,45.37h-.13c-.07,0-.13-.06-.13-.13,0,0,0-.01,0-.02,.02-.51,.03-.82,.03-.82,0-.07,.06-.13,.14-.13,.07,0,.13,.06,.13,.14,0,0-.01,.32-.03,.84v.13Z"/><path class="cls-10" d="M71.96,42.56c-.07,0-.13-.06-.13-.13,0-.97,0-2.13,.11-3.29,.37-4.11,1.3-7.64,2.77-10.5,.32-.63,.68-1.24,1.06-1.81l.04-.06h.06c.07,0,.15,.05,.15,.13,0,.03,0,.06-.03,.08-.37,.56-.72,1.16-1.04,1.78-1.45,2.83-2.37,6.33-2.74,10.4-.1,1.15-.11,2.29-.11,3.26,0,.07-.06,.13-.13,.13h0Z"/><path class="cls-10" d="M78.35,24.26s-.08-.02-.1-.05c-.05-.06-.04-.14,.02-.19,.86-.71,1.83-1.29,2.87-1.74,.33-.14,.67-.27,1.02-.39l.42-1.32c-1.25-.59-2.07-1.81-2.14-3.21l-.22-4.57c-.1-2.01,1.17-3.83,3.09-4.41,1.86-.57,3.45-.2,4.71,1.1,.9,.93,1.45,2.16,1.54,3.48,.92,.18,1.58,.91,1.59,1.76,0,.49-.2,.95-.59,1.3-.38,.35-.89,.54-1.43,.54-.11,0-.22,0-.32-.02-.01,.04-.03,.08-.04,.1,0,.03-.02,.04-.02,.05-.17,.45-.38,.98-.62,1.51-.03,.07-.11,.1-.17,.07-.07-.03-.1-.11-.07-.17,.24-.52,.44-1.05,.61-1.49,0,0,0-.02,.02-.04,.09-.26,.11-.31,.22-.29,.13,.02,.26,.03,.38,.03,.48,0,.92-.17,1.25-.48,.33-.3,.51-.69,.5-1.1,0-.75-.63-1.39-1.47-1.52l-.11-.02v-.11c-.07-1.3-.6-2.51-1.48-3.41-1.21-1.24-2.66-1.57-4.45-1.03-1.8,.55-3,2.25-2.9,4.15l.22,4.57c.06,1.33,.87,2.49,2.09,3.03l.11,.05-.53,1.67-.06,.02c-.37,.12-.73,.26-1.07,.4-1.02,.44-1.97,1.01-2.81,1.7-.02,.02-.05,.03-.08,.03Z"/><path class="cls-10" d="M90.27,14.98c-.05,0-.1-.03-.12-.08-.15-.37-.52-.45-1.01-.44-.07,0-.13-.06-.13-.13,0-.07,.06-.13,.13-.13,.33,0,1.01,0,1.26,.61,.03,.07,0,.14-.07,.17-.02,0-.03,0-.05,0Z"/><path class="cls-10" d="M89.29,15.3c-.06,0-.11-.04-.13-.1-.02-.07,.03-.14,.1-.16,.26-.06,.48-.29,.52-.56,.01-.07,.08-.12,.15-.11,.07,.01,.12,.08,.11,.15-.06,.37-.36,.68-.72,.77-.01,0-.02,0-.03,0Z"/><path class="cls-10" d="M84.24,15.72c-.17,0-.36-.09-.43-.26-.08-.2,.04-.4,.1-.51l.38-.68c.04-.06,.12-.09,.18-.05,.06,.04,.09,.12,.05,.18l-.38,.68c-.06,.1-.11,.21-.08,.29,.03,.07,.13,.1,.21,.1,.11-.01,.22-.08,.33-.14,.06-.04,.14-.02,.18,.05,.04,.06,.02,.14-.05,.18-.12,.07-.27,.16-.44,.18-.02,0-.03,0-.05,0Z"/><path class="cls-10" d="M84.28,17.76c-.65,0-1.28-.32-1.67-.84-.04-.06-.03-.14,.03-.18,.06-.04,.14-.03,.18,.03,.34,.45,.9,.73,1.46,.73h.01c.57,0,1.13-.29,1.46-.75,.04-.06,.13-.07,.18-.03,.06,.04,.07,.13,.03,.18-.38,.52-1.02,.85-1.67,.86h-.01Z"/><path class="cls-10" d="M87.87,22.45c-.06,0-.12-.04-.13-.11-.59-2.91,.13-4.21,.16-4.26,.04-.06,.12-.08,.18-.05,.06,.04,.08,.12,.05,.18,0,.01-.7,1.29-.13,4.08,.01,.07-.03,.14-.1,.16,0,0-.02,0-.03,0Z"/></g><g><path class="cls-10" d="M90.89,17.77c1.27-2,1.32-4.39,.69-6.62-.14-.49-.39-.94-.73-1.32-.38-.42-.86-.73-1.33-1.03-.01,0-.05-.03-.1-.06,.02-.16,.03-.4,.02-.43-.02-.2-.07-.39-.16-.57-.61-1.28-1.97-1.09-3.15-1.08-.66,0-1.21-.18-1.69-.63-.5-.48-.81-1.12-1.39-1.53-.88-.62-2.15-.2-2.74,.62-.14,.2-.24,.41-.31,.65-.33,1.17-.2,2.63,.54,3.63-.77,2.37-.1,5.26-.1,5.26-.03-2.46,.77-4.13,.97-4.51,.71,.4,1.59,.56,2.36,.65,.36,.04,.73,.07,1.09,.1,1.38,.11,2.21-.7,2.55-1.14-.29,.58-.37,1.67-.06,2.4,.37,.87,.4,2.44,.4,2.44l.13-.02c.85-1.28,1.3-1.7,2.28-1.11,.01-.05,.03-.09,.04-.14,1.16,.72,1.2,3.29-1.48,3.06-.1,0-.67,1.54-.93,2.24-.17,.46-.14,1.57-.14,1.57,.02,.06,1.37-.55,1.43-.58,.84-.47,1.28-1.04,1.8-1.86Z"/><path class="cls-10" d="M74.87,28.32l-.05,.38c-1.65,3.21-2.43,6.89-2.75,10.45-.1,1.09-.11,2.18-.11,3.27-.04-.03-.09-.06-.13-.09-.36-.25-.72-.52-1.07-.79,1.18-10.2,4.11-13.23,4.11-13.23Z"/><path class="cls-13" d="M82.94,13.9c0,.31-.25,.56-.56,.56s-.56-.25-.56-.56,.25-.56,.56-.56,.56,.25,.56,.56Z"/><path class="cls-13" d="M86.76,13.63c0,.31-.25,.56-.56,.56s-.56-.25-.56-.56,.25-.56,.56-.56,.56,.25,.56,.56Z"/></g></g></g><g><path class="cls-13" d="M84.48,46.42c-5.97,0-11.58-2.32-15.8-6.54-4.22-4.22-6.54-9.83-6.54-15.8s2.32-11.58,6.54-15.8c4.22-4.22,9.83-6.54,15.8-6.54s11.58,2.32,15.8,6.54c4.22,4.22,6.54,9.83,6.54,15.8s-2.32,11.58-6.54,15.8c-4.22,4.22-9.83,6.54-15.8,6.54Zm0-44.42c-12.17,0-22.08,9.9-22.08,22.08s9.9,22.08,22.08,22.08,22.08-9.9,22.08-22.08S96.66,2,84.48,2Z"/><path class="cls-12" d="M84.48,.26c-13.13,0-23.82,10.68-23.82,23.82s10.68,23.82,23.82,23.82,23.82-10.68,23.82-23.82S97.61,.26,84.48,.26Zm15.8,39.61c-4.22,4.22-9.83,6.54-15.8,6.54s-11.58-2.32-15.8-6.54c-4.22-4.22-6.54-9.83-6.54-15.8s2.32-11.58,6.54-15.8c4.22-4.22,9.83-6.54,15.8-6.54s11.58,2.32,15.8,6.54c4.22,4.22,6.54,9.83,6.54,15.8s-2.32,11.58-6.54,15.8Z"/><path class="cls-13" d="M84.48,48.16c-6.43,0-12.48-2.5-17.03-7.05s-7.05-10.59-7.05-17.03,2.5-12.48,7.05-17.03c4.55-4.55,10.59-7.05,17.03-7.05s12.48,2.5,17.03,7.05c4.55,4.55,7.05,10.59,7.05,17.03s-2.5,12.48-7.05,17.03-10.59,7.05-17.03,7.05ZM84.48,.26c-13.13,0-23.82,10.68-23.82,23.82s10.68,23.82,23.82,23.82,23.82-10.68,23.82-23.82S97.61,.26,84.48,.26Z"/></g></g><g><circle class="cls-1" cx="63.83" cy="110.21" r="22.21"/><g><g><path class="cls-4" d="M58.62,104.21s0,.1,0,.16c0,.05,.01,.1,.02,.15,.01,.07,.04,.15,.06,.22,0,.02,.02,.04,.02,.06h0l.04,.08c.03,.05,.06,.11,.09,.16,.02,.04,.05,.07,.07,.1,.14,.19,.34,.35,.56,.48,.05,.03,.1,.05,.15,.08,.05,.02,.1,.04,.16,.06,.03,0,.05,.02,.08,.03,.09,.03,.18,.04,.26,.06h.03s.05,.01,.08,.01c.06,0,.12,0,.18,0,.03,0,.06,0,.09,0h.02c.1,.02,.11,.05,.16,.31,0,.02,0,.04,.01,.05,.11,.47,.24,1.03,.4,1.56,.03,.09,.05,.18,.07,.28,0,0,0,0,0,0h0s0,0,0,0c.03,.15,.41,2.6-1.89,4.32,.4,.52,2.27,2.77,4.1,2.6,.92-.08,1.71-.78,2.34-2.07h0s0-.79,0-.79l.02-1.37,.09-.03s.08-.02,.11-.03c.07-.02,.15-.05,.23-.08,.07-.03,.14-.06,.21-.09,.23-.11,.44-.24,.64-.39,.03-.02,.05-.04,.07-.06,.03-.02,.06-.05,.08-.07,.06-.05,.11-.1,.16-.15,0,0,.01-.01,.02-.02,0-.01,.02-.02,.02-.04,.09-.15,.21-.28,.34-.39,.01-.02,.03-.04,.04-.05,.01-.02,.03-.04,.04-.06,.02-.03,.03-.05,.05-.07,.02-.03,.03-.05,.04-.07h0s.04-.08,.05-.11c.02-.03,.03-.06,.05-.09,.01-.02,.02-.04,.03-.06,.01-.03,.02-.04,.03-.06,.02-.04,.04-.08,.05-.12,.03-.07,.06-.14,.08-.21,.05-.15,.09-.31,.12-.47l.51-2.72h0c-.02-.07-.04-.14-.06-.2-.41-1.36-1.46-2.44-2.82-2.86,0,0-.02,0-.03,0-1.96-.6-2.4-1.26-2.46-1.68-.43,.4-1.02,1.38-1.34,1.93h0c.04,.62,.12,1.04,.1,1.53,0,.07,0,.14-.01,.21,0,.03,0,.06,0,.1,0,.02,0,.05,0,.07,0,.02,0,.05-.01,.08,0,.05-.02,.1-.03,.16,0,0,0,.02,0,.02,0,0,0,.02,0,.03,0,.01,0,.02,0,.03,0,0,0,.02,0,.03,0,.01,0,.02,0,.04,0,.02,0,.05-.01,.07,0,.02,0,.05-.01,.07-.02,.1-.05,.21-.08,.33,0,.03-.02,.05-.03,.08,0,.03-.02,.06-.03,.09-.01,.04-.03,.07-.04,.11-.01,.03-.03,.06-.04,.1-.04,.1-.1,.21-.16,.32-.03,.06-.07,.11-.11,.17,.01-3.17-1.25-3.4-1.25-3.4h-.11c-.18,0-.35,.03-.52,.08h-.05c-.06,.04-.12,.06-.17,.08-.07,.03-.13,.06-.19,.1h-.01c-.06,.04-.11,.08-.16,.12-.17,.13-.31,.29-.4,.47-.01,.02-.02,.04-.03,.06-.03,.06-.05,.12-.08,.19,0,.03-.02,.07-.03,.1l-.02,.1c0,.06-.01,.11-.02,.17Z"/><path class="cls-3" d="M65.8,112.17s-.08-.04-.1-.04c-.51-.19-1-.42-1.49-.67-.48-.25-.97-.52-1.39-.86-.09-.07-.18-.15-.24-.25-.07-.11-.13-.28-.05-.41,.09-.15,.28-.14,.44-.11,.78,.16,1.48,.59,2.24,.83,.19,.06,.38,.1,.57,.13l.02,1.39Z"/><path class="cls-3" d="M65.69,107.48c-.16,.27-.48,.58-.82,.65-.19,.04-.37,0-.53-.11-.33-.23-.46-.81-.5-1.13,0-.03,.01-.04,.02-.05,0,0,.02-.01,.03-.01,0,0,.01,0,.02,0l1.75,.58s.03,.03,.04,.03c0,.01,0,.03,0,.04Z"/><path class="cls-7" d="M73.66,130.14c-.1-1.29-.23-2.53-.4-3.69-.29-2.04-.67-4.19-1.41-6.18-.3-.79-.63-1.5-1.01-2.16-.18-.32-.38-.63-.59-.93-.1-.15-.21-.3-.33-.44-1.07-1.38-2.41-2.59-3.99-3.58-.67,1.31-1.51,2.02-2.5,2.11-.07,0-.14,0-.21,0-1.98,0-3.85-2.36-4.16-2.77-2.57,.06-5.09,.78-7.3,2.1-3.1,1.85-5.05,5.66-5.03,9.77,4.07,4.91,10.22,8.04,17.11,8.04,3.37,0,6.57-.75,9.44-2.1-1.41-.59-2.74-1.18-3.98-1.75-6.3-2.94-10.19-5.63-11.55-7.99-.04-.06-.01-.14,.05-.18,.06-.04,.14-.01,.18,.05,1.33,2.31,5.18,4.97,11.43,7.89,1.29,.6,2.7,1.22,4.18,1.84l.07-.04Z"/><path class="cls-7" d="M79.96,125.48c-1.45,1.53-3.11,2.85-4.94,3.92,0-.04-.01-.09-.02-.13-.04-.29-.09-.62-.15-.98,0-.06-.02-.12-.03-.18-.03-.23-.07-.47-.11-.73,0-.04-.01-.07-.02-.11-.02-.12-.04-.25-.06-.38,0-.07-.02-.13-.03-.2,0-.04-.01-.08-.02-.12,0-.05-.01-.09-.02-.14-.01-.08-.02-.16-.04-.24-.05-.32-.11-.64-.17-.94-.01-.07-.03-.14-.04-.21-.02-.08-.04-.16-.06-.24-.01-.06-.03-.12-.04-.18-.05-.22-.11-.44-.17-.66-.02-.06-.03-.12-.05-.17-.07-.23-.14-.46-.21-.67-.02-.07-.04-.13-.07-.2-.03-.09-.06-.18-.1-.27-.02-.05-.04-.1-.06-.15-.02-.05-.04-.1-.06-.15-.22-.55-.44-1.06-.67-1.52-.05-.1-.1-.19-.14-.28-.03-.05-.05-.1-.08-.15-.02-.05-.05-.09-.07-.14-.07-.14-.15-.27-.22-.39-.02-.04-.05-.08-.07-.12,0-.01-.02-.03-.02-.04-.04-.07-.08-.13-.12-.19-.03-.04-.05-.08-.08-.13-.02-.03-.04-.07-.06-.1-.02-.04-.04-.07-.07-.1-.28-.43-.52-.75-.68-.97,1.02,1.05,2.79,2.78,5.1,4.62,1.05,.84,2.28,1.75,3.65,2.65Z"/></g><g><g><path class="cls-13" d="M67.25,103.84c.31,.04,.52,.33,.48,.64s-.33,.52-.64,.48c-.31-.04-.52-.33-.48-.64,.04-.31,.33-.52,.64-.48Z"/><path class="cls-13" d="M63.51,103.04c.31,.04,.52,.33,.48,.64-.04,.31-.33,.52-.64,.48-.31-.04-.52-.33-.48-.64,.04-.31,.33-.52,.64-.48Z"/><path class="cls-13" d="M68.89,109.8c-2.03,.55-1.43,2.55-1.41,2.61-.63-.79-.61-2.57,.63-3.2,.85-.43,1.68-.91,1.31-2-.22-.65-.39-1.35-.61-2.08-.41-1.36-1.46-2.44-2.82-2.86,0,0-.02,0-.03,0-1.96-.6-2.4-1.26-2.46-1.68-.43,.4-1.02,1.38-1.34,1.93,.06,.86,.18,1.33,.03,2.14-.05,.27-.14,.88-.55,1.5,.01-3.17-1.25-3.4-1.25-3.4l-.03-.33s-.02,0-.04,0c-.02,.07-.03,.14-.05,.21,0,0-.29,.02-.31,.03-.11,.02-.21,.04-.32,.08-.38,.13-.71,.38-.93,.71-.19,.3-.27,.66-.23,1.01,.02,.17,.07,.34,.14,.49,.07,.14,.16,.26,.24,.39,.17,.24,.41,.41,.68,.52,.19,.08,.4,.14,.61,.16,.04,0,.28,.04,.3,.02,.02,.09,.01,.18,.02,.27,.1,0,.22,.56,.24,.64,.09,.35,.19,.71,.28,1.06,.07,.27,.11,.52,.07,.8-.02,.18-.05,.41-.14,.58l-.02,.23-.06,.24c-.23-.1-1.09-.62-1.14-.65-.77-.54-1.14-1.13-1.55-1.94-.35-.69-.54-1.4-.61-2.12-.15-1.52-.05-3.16,.92-4.4l-.3-.19c-.13-.12-.25-.26-.35-.41-.72-1.15-.09-2.85,1.42-3.79,1.51-.94,3.31-.77,4.03,.39,.29,.47,.36,1.03,.24,1.6l.68-.22c2.61-.85,5.47,.51,6.37,3.11,.14,.4,.21,.78,.22,1.11,.07,2.04-.68,3.69-.68,3.69,.81,.69,.37,3.36-1.24,3.8Z"/><path class="cls-13" d="M75.03,129.4c-.41,.24-.82,.46-1.24,.67,0-.13-.02-.26-.03-.38-.01-.15-.02-.3-.04-.44-.01-.16-.03-.32-.04-.48-.01-.14-.03-.28-.04-.42,0-.09-.02-.18-.03-.27-.01-.1-.02-.21-.03-.31-.02-.15-.04-.3-.05-.45-.02-.15-.04-.3-.06-.45-.02-.15-.04-.3-.06-.45-.3-2.11-.68-4.23-1.42-6.21-.28-.75-.61-1.48-1.02-2.18l.02-.12s.09,.1,.24,.29c.16,.21,.41,.54,.68,.97,.02,.03,.04,.07,.07,.1,.02,.03,.04,.06,.06,.1,.03,.04,.05,.08,.08,.13,.04,.06,.08,.13,.12,.19,0,.01,.02,.03,.02,.04,.02,.04,.05,.08,.07,.12,.07,.13,.15,.26,.22,.39,.02,.04,.05,.09,.07,.14,.03,.05,.05,.1,.08,.15,.05,.09,.09,.18,.14,.28,.23,.46,.46,.96,.67,1.52,.02,.05,.04,.1,.06,.15,.02,.05,.04,.1,.06,.15,.03,.09,.07,.18,.1,.27,.02,.06,.05,.13,.07,.2,.07,.22,.15,.44,.21,.67,.02,.06,.03,.11,.05,.17,.06,.21,.12,.43,.17,.66,.01,.06,.03,.12,.04,.18,.02,.08,.04,.16,.06,.24,.01,.07,.03,.14,.04,.21,.06,.31,.12,.62,.17,.94,.01,.08,.02,.16,.04,.24,0,.05,.01,.09,.02,.14,0,.04,.01,.08,.02,.12,0,.07,.02,.13,.03,.2,.02,.13,.04,.26,.06,.38,0,.04,.01,.07,.02,.11,.04,.26,.08,.5,.11,.73,0,.06,.02,.12,.03,.18,.05,.36,.1,.68,.15,.98,0,.05,.01,.09,.02,.13Z"/></g><g><path class="cls-13" d="M73.79,130.2c-.07,0-.13-.05-.13-.12,0-.13-.02-.25-.03-.38-.01-.15-.02-.3-.04-.44-.01-.16-.03-.32-.04-.48-.01-.14-.03-.28-.04-.42,0-.09-.02-.18-.03-.27-.01-.1-.02-.21-.03-.31-.02-.15-.04-.3-.05-.45-.02-.15-.04-.3-.06-.45-.02-.15-.04-.3-.06-.44-.29-2.04-.66-4.19-1.41-6.18-.3-.79-.63-1.5-1.01-2.16-.18-.32-.38-.63-.58-.92h0c-.1-.16-.21-.31-.33-.45-1.09-1.42-2.48-2.64-4.11-3.65-.04-.02-.07-.07-.07-.12,0-.07,.06-.13,.13-.13h.04l.03,.02c1.66,1.02,3.07,2.27,4.19,3.72,.11,.14,.22,.29,.33,.44h0c.21,.31,.41,.63,.6,.96,.39,.67,.73,1.39,1.03,2.2,.75,2.01,1.13,4.19,1.42,6.24,.02,.15,.04,.3,.06,.45,.02,.15,.04,.3,.06,.45,.02,.15,.04,.3,.05,.45,.01,.1,.02,.21,.03,.31,.01,.09,.02,.18,.03,.27,.01,.14,.03,.28,.04,.42,.02,.16,.03,.32,.04,.48,.01,.15,.03,.3,.04,.44,.01,.13,.02,.25,.03,.38,0,.07-.05,.14-.12,.14,0,0,0,0-.01,0Z"/><path class="cls-13" d="M65.88,113.1h0c-.07,0-.13-.06-.13-.13l.03-2.19,.1-.03s.08-.02,.12-.03c.07-.02,.14-.05,.23-.08,.07-.03,.14-.06,.21-.09,.23-.11,.44-.24,.64-.39,.02-.02,.05-.04,.07-.06h0s.05-.05,.08-.07c.06-.05,.11-.1,.16-.15,.02-.02,.04-.04,.06-.06,.02-.02,.04-.04,.06-.06,.02-.02,.04-.05,.06-.07l.11,.08-.1-.09s.05-.06,.08-.09c.02-.02,.04-.05,.06-.07,.01-.02,.02-.03,.04-.05,0-.01,.02-.02,.02-.03l.04-.06s.03-.04,.04-.06c.02-.03,.03-.05,.05-.07,.02-.03,.03-.05,.04-.07h0s.04-.08,.05-.11c.02-.03,.03-.06,.05-.09,.01-.02,.02-.04,.03-.06,.01-.03,.02-.04,.03-.06,.02-.04,.04-.08,.05-.12,.03-.07,.06-.14,.08-.21,.05-.15,.09-.31,.12-.47l.85-4.5c.18-.94,.02-1.92-.44-2.76h0s-.04-.07-.05-.1c-.42-.72-1.05-1.29-1.81-1.64-.06-.03-.13-.06-.19-.09-.06-.03-.13-.05-.19-.08-.04-.01-.07-.03-.11-.04-.13-.05-.26-.09-.38-.12-.08-.02-.17-.04-.25-.06-.06-.01-.13-.03-.19-.04-.26-.05-.53-.07-.79-.07h0s-.07,0-.11,0c-.07,0-.14,0-.22,.02h-.09c-.05,.02-.11,.02-.16,.03-.03,0-.05,0-.08,.01-.07,.01-.14,.03-.22,.05-.03,0-.06,.02-.09,.03-.06,.02-.13,.04-.19,.06-.06,.02-.13,.04-.19,.07-.09,.04-.18,.08-.28,.12-.1,.05-.19,.1-.27,.15-.06,.04-.12,.07-.18,.11-.12,.08-.24,.16-.36,.25-.11,.08-.2,.17-.29,.25-.84,.75-1.42,1.8-1.64,2.93l-.02,.11h-.11c-.18,0-.35,.03-.52,.08l-.03,.02h-.03c-.06,.02-.12,.04-.17,.06-.07,.03-.13,.06-.19,.1h-.01c-.06,.04-.11,.08-.17,.12-.17,.13-.31,.29-.4,.47-.01,.02-.02,.04-.03,.06-.03,.06-.05,.12-.08,.19,0,.03-.02,.07-.03,.1l-.02,.1c0,.06-.01,.11-.02,.17,0,.05,0,.1,0,.16,0,.06,.01,.1,.02,.15,.01,.07,.04,.15,.06,.22,0,.03,.02,.05,.03,.07l.03,.06c.03,.06,.06,.12,.1,.17,.02,.04,.05,.07,.07,.1,.14,.19,.34,.35,.56,.48,.05,.03,.1,.05,.15,.08,.05,.02,.1,.04,.16,.06,.03,0,.05,.02,.08,.03,.09,.03,.18,.04,.27,.06h.03s.06,.01,.08,.01c.06,0,.12,0,.18,0,.03,0,.06,0,.09,0h.01s.01,0,.01,0c.1,.01,.11,.05,.16,.31,0,.02,0,.04,.01,.05,.11,.47,.24,1.02,.4,1.56,.03,.09,.05,.19,.07,.28,.01,.07-.03,.14-.11,.15-.07,.01-.14-.03-.15-.11-.02-.09-.04-.17-.06-.26-.16-.55-.3-1.1-.41-1.58,0,0,0-.03-.01-.06,0-.02-.01-.06-.02-.1-.07,0-.13,0-.2,0-.03,0-.06,0-.1-.01h-.03c-.1-.02-.2-.04-.3-.07-.03,0-.06-.02-.1-.03-.07-.02-.13-.05-.18-.07-.06-.03-.12-.06-.17-.09-.25-.14-.47-.33-.64-.55-.03-.04-.06-.08-.08-.12-.03-.05-.06-.1-.09-.15h0s-.02-.04-.02-.04c0,0,0,0,0,0v-.02s-.05-.09-.07-.14c-.03-.09-.06-.18-.07-.26-.01-.05-.02-.11-.03-.18,0-.07,0-.13,0-.19,0-.07,0-.14,.02-.2l.02-.12s.02-.08,.03-.12c.03-.08,.06-.16,.09-.23,.01-.02,.02-.05,.04-.07,.11-.21,.27-.4,.47-.55,.06-.05,.12-.09,.19-.13,0,0,.01,0,.02-.01,.07-.04,.14-.08,.21-.11,.06-.03,.13-.05,.2-.08l.02-.02h.03s0,0,0,0h0c.16-.05,.32-.07,.48-.08,.24-1.15,.84-2.2,1.7-2.97,.09-.09,.2-.17,.31-.26,.12-.09,.24-.18,.37-.27,.06-.04,.13-.08,.19-.12,.09-.05,.19-.1,.29-.16,.1-.05,.2-.09,.3-.13,.07-.03,.13-.05,.2-.07,.07-.02,.13-.04,.2-.06,.04-.01,.07-.02,.11-.03,.08-.02,.16-.04,.23-.05,.03,0,.06-.01,.09-.02,.06-.01,.12-.02,.18-.03h.09c.09-.02,.17-.02,.24-.03,.04,0,.08,0,.12,0h0s0,0,0,0c.27,0,.55,.02,.83,.07,.07,.01,.13,.03,.2,.04,.09,.02,.18,.04,.26,.07,.13,.04,.26,.08,.4,.13,.04,.01,.08,.03,.12,.04,.06,.03,.13,.05,.2,.08,.07,.03,.13,.06,.2,.09,.81,.37,1.47,.98,1.92,1.74,.02,.03,.04,.06,.06,.1h0c.49,.91,.66,1.95,.47,2.95l-.85,4.5c-.03,.17-.08,.34-.13,.51-.02,.07-.05,.15-.09,.23-.02,.04-.04,.09-.06,.13,0,.02-.02,.05-.03,.07,0,.02-.02,.04-.03,.07-.01,.03-.03,.06-.05,.1-.02,.03-.04,.07-.06,.1h0s-.03,.06-.04,.09c-.01,.02-.03,.05-.05,.08-.01,.02-.03,.05-.05,.07l-.04,.06s-.02,.03-.03,.04c0,.01-.02,.03-.04,.05-.02,.02-.04,.05-.06,.08-.02,.03-.05,.06-.08,.09h0s-.05,.06-.07,.08c-.02,.02-.04,.05-.07,.07-.02,.02-.04,.05-.07,.07-.05,.05-.11,.11-.17,.16-.03,.02-.05,.05-.08,.07-.03,.03-.06,.05-.08,.07-.21,.16-.44,.31-.69,.42-.08,.04-.15,.07-.23,.1-.09,.03-.17,.06-.24,.09-.01,0-.02,0-.03,0l-.02,1.99c0,.07-.06,.13-.13,.13Z"/><path class="cls-13" d="M59.22,104.38s-.04,0-.07-.02c-.06-.04-.08-.12-.05-.18,.33-.58,1.01-.48,1.33-.43,.07,.01,.12,.08,.11,.15-.01,.07-.08,.12-.15,.11-.5-.07-.87-.05-1.07,.3-.02,.04-.07,.07-.11,.07Z"/><path class="cls-13" d="M60.16,104.83s-.03,0-.05,0c-.35-.13-.6-.49-.61-.86,0-.07,.06-.13,.13-.13,.07,0,.13,.06,.13,.13,0,.27,.19,.53,.44,.62,.07,.03,.1,.1,.08,.17-.02,.05-.07,.08-.12,.08Z"/><path class="cls-13" d="M65.16,105.94s-.08,0-.12-.01c-.17-.04-.3-.15-.41-.24-.06-.05-.07-.13-.02-.18,.05-.06,.13-.07,.18-.02,.1,.08,.2,.16,.31,.19,.08,.02,.19,0,.22-.07,.04-.07,0-.19-.04-.3l-.28-.73c-.03-.07,0-.14,.07-.17,.07-.03,.14,0,.17,.07l.28,.73c.05,.12,.13,.33,.02,.52-.08,.14-.24,.21-.39,.21Z"/><path class="cls-13" d="M46.59,124.35h0c-.07,0-.13-.06-.13-.13,.02-1.95,.48-3.89,1.33-5.59,.91-1.82,2.23-3.29,3.83-4.24,2.26-1.35,4.84-2.09,7.46-2.14,2.32-1.68,1.87-4.1,1.86-4.12-.01-.07,.03-.14,.1-.15,.07-.01,.14,.03,.15,.1,0,.03,.49,2.64-2,4.41l-.03,.02h-.04c-2.59,.04-5.14,.77-7.37,2.11-3.02,1.8-4.99,5.57-5.03,9.61,0,.07-.06,.13-.13,.13Z"/><path class="cls-13" d="M73.43,130.38s-.03,0-.05-.01c-1.45-.6-2.82-1.21-4.08-1.8-6.3-2.94-10.19-5.63-11.55-7.99-.04-.06-.01-.14,.05-.18,.06-.04,.14-.01,.18,.05,1.33,2.31,5.18,4.96,11.43,7.89,1.26,.59,2.63,1.19,4.07,1.79,.07,.03,.1,.11,.07,.17-.02,.05-.07,.08-.12,.08Z"/><path class="cls-13" d="M64.72,108.41c-.19,0-.37-.06-.54-.18-.39-.27-.55-.86-.61-1.31-.02-.11,.03-.22,.11-.29,.08-.07,.2-.09,.3-.06l1.75,.58c.09,.03,.17,.1,.2,.19,.03,.09,.02,.19-.03,.27-.18,.3-.55,.67-.99,.77-.07,.01-.14,.02-.2,.02Zm-.84-1.59s-.03,0-.03,.01c0,0-.02,.02-.02,.05,.05,.32,.18,.9,.5,1.13,.16,.11,.34,.15,.53,.11,.34-.07,.66-.38,.82-.65,0-.02,0-.03,0-.04,0,0-.01-.03-.04-.03h0s-1.75-.58-1.75-.58c0,0-.01,0-.02,0Z"/><path class="cls-13" d="M63.22,115.28c-2.12,0-4.11-2.71-4.2-2.83-.04-.06-.03-.14,.03-.18,.06-.04,.14-.03,.18,.03,.02,.03,2.13,2.89,4.18,2.71,.93-.08,1.72-.79,2.35-2.09,.03-.07,.11-.09,.18-.06,.07,.03,.09,.11,.06,.18-.68,1.39-1.54,2.15-2.57,2.24-.07,0-.14,0-.21,0Z"/><path class="cls-13" d="M80.05,125.52s-.05,0-.07-.02c-5.72-3.77-9.55-8.11-9.72-8.3-.05-.05-.05-.13,0-.18,.05-.05,.13-.05,.19,0h0c.16,.19,3.97,4.51,9.66,8.26,.06,.04,.08,.12,.04,.18-.03,.04-.07,.06-.11,.06Z"/></g></g></g><path class="cls-13" d="M63.83,132.64c-5.99,0-11.62-2.33-15.86-6.57s-6.57-9.87-6.57-15.86,2.33-11.62,6.57-15.86c4.24-4.24,9.87-6.57,15.86-6.57s11.62,2.33,15.86,6.57c4.24,4.24,6.57,9.87,6.57,15.86s-2.33,11.62-6.57,15.86c-4.24,4.24-9.87,6.57-15.86,6.57Zm0-44.42c-12.13,0-21.99,9.87-21.99,21.99s9.87,21.99,21.99,21.99,21.99-9.87,21.99-21.99-9.87-21.99-21.99-21.99Z"/><g><path class="cls-13" d="M63.83,132.56c-5.97,0-11.58-2.32-15.8-6.54-4.22-4.22-6.54-9.83-6.54-15.8s2.32-11.58,6.54-15.8c4.22-4.22,9.83-6.54,15.8-6.54s11.58,2.32,15.8,6.54c4.22,4.22,6.54,9.83,6.54,15.8s-2.32,11.58-6.54,15.8c-4.22,4.22-9.83,6.54-15.8,6.54Zm0-44.42c-12.17,0-22.08,9.9-22.08,22.08s9.9,22.08,22.08,22.08,22.08-9.9,22.08-22.08-9.9-22.08-22.08-22.08Z"/><path class="cls-12" d="M63.83,86.4c-13.13,0-23.82,10.68-23.82,23.82s10.68,23.82,23.82,23.82,23.82-10.68,23.82-23.82-10.68-23.82-23.82-23.82Zm15.8,39.61c-4.22,4.22-9.83,6.54-15.8,6.54s-11.58-2.32-15.8-6.54c-4.22-4.22-6.54-9.83-6.54-15.8s2.32-11.58,6.54-15.8c4.22-4.22,9.83-6.54,15.8-6.54s11.58,2.32,15.8,6.54c4.22,4.22,6.54,9.83,6.54,15.8s-2.32,11.58-6.54,15.8Z"/><path class="cls-13" d="M63.83,134.29c-6.43,0-12.48-2.5-17.03-7.05-4.55-4.55-7.05-10.59-7.05-17.03s2.5-12.48,7.05-17.03c4.55-4.55,10.59-7.05,17.03-7.05s12.48,2.5,17.03,7.05c4.55,4.55,7.05,10.59,7.05,17.03s-2.5,12.48-7.05,17.03c-4.55,4.55-10.59,7.05-17.03,7.05Zm0-47.9c-13.13,0-23.82,10.68-23.82,23.82s10.68,23.82,23.82,23.82,23.82-10.68,23.82-23.82-10.68-23.82-23.82-23.82Z"/></g></g><g><circle class="cls-1" cx="123.29" cy="88.58" r="22.21"/><g><g><path class="cls-4" d="M119.09,77.97c1.38-1.16,3.5-1.34,5.04-.42,.74,.44,1.36,1.15,1.78,2.04,.31,.65,.48,1.34,.52,2.05,0,0,0,0,0,.01,0,0,0,0,0,0,0,0,0,.01,0,.02,0,0,0,.01,0,.02,0,0,0,0,0,.01,0,0,0,.01,.01,.01,0,0,0,0,0,0,0,0,0,0,.01,.01,0,0,0,0,0,0,0,0,.01,0,.02,.01,0,0,.02,0,.02,0,0,0,0,0,0,0,.69,.1,1.25,.57,1.41,1.17,.15,.58-.1,1.22-.62,1.6-.38,.27-.88,.38-1.37,.31-.02,0-.03,0-.05,0-.01,0-.02,0-.03,.01,0,0,0,0-.01,0,0,0,0,0-.01,0-.01,.01-.02,.02-.03,.03-.07,.1-.55,.85-.75,1.68h0s0,.04,0,.04c-.16,.72-.19,1.4-.07,2.04v.04h0c.07,.39,.2,.75,.37,1.09h0s.01,.03,.01,.03c.15,.3,.34,.58,.57,.85l-.13,.14-3.67,3.93c-.12,.13-.18,.31-.14,.49,.03,.18,.08,.47,.15,.85-.38,.56-.76,1.12-1.13,1.68-.6,.93-1.17,1.88-1.68,2.86-.45,.86-.85,1.74-1.22,2.64,0-.03-.01-.06-.01-.1-.21-1.37-.29-2.75-.26-4.13,.03-1.13,.14-2.25,.35-3.37,.16-.85,.37-1.7,.64-2.52,.1-.31,.21-.62,.33-.92,.02-.06,.05-.12,.07-.18,.01-.03,.02-.06,.04-.08,0,0,0,0,0,0,0,0,0,0,0,0,0,0,0,0,0,0,0,0,0,0,0,0h0s0-.02,0-.02c0-.01,.01-.02,.01-.04,.04-.1,.09-.2,.14-.3,.06-.14,.13-.27,.2-.41,.02-.04,.05-.09,.07-.13,0,0,0,0,0-.01,0,0,0,0,0,0,0,0,0,0,0,0,0,0,0,0,0,0,0,0,0-.02,0-.02,0,0,0,0,0,0h0s.04-.35,.04-.35q.2-1.59,.2-1.6v-.09l-.08-.03s-.07-.03-.11-.05c-.07-.03-.14-.07-.21-.11-.06-.04-.13-.08-.19-.12-.21-.14-.41-.3-.58-.48-.02-.02-.04-.05-.06-.07h0s-.04-.05-.06-.08c-.05-.06-.1-.11-.14-.17-.02-.02-.04-.05-.05-.07-.02-.02-.03-.05-.05-.07-.02-.02-.04-.05-.05-.08l-.12,.06,.11-.07s-.04-.07-.06-.1c-.02-.03-.03-.05-.05-.08-.01-.02-.02-.04-.03-.05,0-.01-.01-.02-.02-.03-.01-.02-.02-.04-.03-.07-.01-.02-.02-.05-.03-.07-.01-.03-.03-.05-.04-.08,0-.02-.02-.04-.02-.06v-.03s-.04-.07-.05-.1c-.01-.03-.02-.06-.03-.09,0-.03-.02-.05-.02-.07,0-.03-.01-.04-.02-.06-.01-.05-.03-.09-.04-.13-.02-.08-.04-.15-.05-.22-.03-.16-.05-.32-.06-.48l-.13-2.7h0s-.09-1.86-.09-1.88c-.08-1.25,.49-2.54,1.48-3.37Z"/><path class="cls-3" d="M119.89,89.06l-.14,1.37c.05-.01,.21-.09,.27-.11,.52-.17,1.02-.38,1.51-.61,.49-.23,.98-.48,1.42-.81,.09-.07,.18-.15,.25-.24,.08-.11,.14-.28,.07-.41-.08-.16-.28-.15-.43-.13-.79,.14-1.5,.54-2.27,.75-.19,.05-.39,.09-.59,.11-.06,0-.13,0-.2,.02,.04,.02,.08,.04,.11,.06Z"/><path class="cls-7" d="M109.25,105.79c-.24-.2-.48-.4-.71-.61,.17-.6,.36-1.19,.55-1.77,.02,.56,.05,1.12,.1,1.67,.02,.23,.04,.47,.07,.7Z"/><path class="cls-1" d="M124.55,110.76c-.42,.02-.84,.04-1.26,.04-5.19,0-9.97-1.78-13.75-4.77,0-.02,0-.04,0-.06-.11-1.09-.19-2.18-.19-3.27,2.1-6.01,5.27-10.88,10.05-11.53-.05,.1-.1,.21-.15,.32-.24,.53-.45,1.07-.63,1.62-.27,.83-.49,1.68-.65,2.54-.21,1.13-.33,2.27-.36,3.42-.04,1.4,.06,2.8,.26,4.18,.03,.19,.06,.38,.09,.57,0,.06,.07,.1,.13,.1,.06,0,.11-.04,.13-.1,.41-1.04,.87-2.06,1.39-3.06,.51-.97,1.07-1.91,1.66-2.83,.31-.49,.64-.97,.96-1.45,.27,1.64,1.4,8.59,2.33,14.29Z"/><path class="cls-5" d="M103.73,86.89l-.19,.3-2.35,3.65c-.08-.74-.11-1.49-.11-2.25s.04-1.49,.11-2.22h0s.96-1.41,.96-1.41c.06-.09,.15-.13,.25-.13h0c.1,0,.2,.05,.25,.14l1.07,1.6c.07,.1,.07,.23,0,.34Z"/><path class="cls-7" d="M118.48,91.06c-3.91,.97-7.06,4.84-9.4,11.54,0,0,0,.02,0,.03-.26,.75-.51,1.54-.75,2.36-3.83-3.5-6.43-8.32-7.08-13.74h0s2.46-3.82,2.46-3.82c.42,.2,.86,.39,1.3,.58,3.23,1.38,5.94,2.22,8.54,2.63,1.5,.24,3.32,.34,4.94,.43Z"/><path class="cls-3" d="M120.52,85.65c.09,.3,.33,.67,.64,.82,.17,.08,.36,.09,.54,.02,.37-.14,.63-.67,.76-.98,.01-.02,0-.04,0-.05,0,0-.02-.02-.04-.02h0l-1.84,.15s-.04,.02-.04,.02c0,0-.01,.02,0,.04Z"/><path class="cls-7" d="M141.25,101.65c-2.65,3.64-6.39,6.45-10.73,7.94-.02-.34-.04-.68-.07-1.02-.13-1.56-.47-3.08-.79-4.56-.09-.41-.19-.84-.27-1.27-.01-.07-.09-.12-.16-.1-.07,.01-.12,.08-.1,.16,.09,.43,.18,.85,.27,1.27,.32,1.47,.66,2.98,.79,4.52,.03,.36,.06,.72,.07,1.08-1.73,.57-3.56,.94-5.45,1.06-1.01-6.21-2.26-13.92-2.38-14.63h0s0-.01,0-.01c-.07-.41-.13-.72-.16-.91-.02-.1,.01-.19,.08-.26l3.83-4.1c.11,0,.41-.01,.85,0,1.85,.08,5.44,.56,8.72,2.89,2.6,1.86,4.45,4.52,5.51,7.91Z"/></g><g><g><path class="cls-13" d="M135.8,91.78c-.11-1.37-.74-2.41-1.6-3.46-.3-.37-.78-.59-1.01-1.03-.25-.48-.1-1.06-.1-1.6-.01-1.56-1.35-2.4-1.72-3.79-.04-.15-.07-.3-.11-.46h0c-.13-.61-.24-1.23-.6-1.76-.19-.28-.39-.5-.61-.7,.05-.05,.1-.1,.15-.16,.87-1.04,.48-2.81-.88-3.95-1.36-1.14-3.17-1.22-4.05-.17-.34,.41-.49,.93-.46,1.48,0-.11-.97-.3-1.09-.33-.39-.08-.79-.11-1.2-.11-.82,.01-1.75,.15-2.65,.43-1.51,.48-2.9,1.36-3.44,2.92,0,.03-.02,.05-.02,.08-.01,.04-.02,.08-.03,.12-.09,.22-.15,.43-.18,.63-.03,.19-.06,.38-.08,.56-.14,1.4,.08,2.81,.61,4.11l.15,.37c.21-.42,.4-.86,.6-1.31l.09-.21h0c.04-.09,.08-.18,.12-.27h0c.03-.06,.06-.12,.08-.19,.59-1.29,1.78-2.22,3.18-2.45,0,0,.02,0,.03,0,2.02-.32,2.55-.92,2.67-1.33,.37,.45,.82,1.51,1.06,2.09-.18,.84-.36,1.3-.32,2.12,.01,.27,.01,.89,.33,1.56,.24-3.25,1.69-3.22,1.81-3.21h0s0,0,0,0h0v-.1c.08,.02,.3,.06,.32,.07,.1,.03,.2,.07,.3,.12,.36,.18,.65,.47,.82,.83,.07,.16,.12,.33,.13,.51,0,0,0,0,0,0,.01,.12,0,.25-.01,.37-.04,.23-.14,.45-.29,.64-.01,.01-.02,.03-.03,.04-.29,.37-.74,.63-1.21,.72-.05,0-.11,.02-.16,.02-.01,0-.03,0-.04,0,0,0,0,0,0,0-.02,0-.03,0-.05,0-.02,0-.05,0-.07,0h0s-.06,0-.08,0c0,0,0,0,0,0s0,0,0,0c-.05,0-.1,0-.14-.01t0,0h0s-.05,0-.07,0h0s-.02,.03-.04,.05c0,0,0,0,0,0,0,0,0,0,0,0-.02,.05-.03,.1-.03,.1,0,0,0,0,0,0-.16,.45-.36,.72-.54,1.16-.06,.15-.11,.29-.15,.44,0,0,0,0,0,.01-.07,.24-.11,.48-.13,.74-.03,.39-.04,.78,.07,1.16,0,0,0,.01,0,.02,0,0,0,0,0,0,.11,.37,.25,.73,.37,1.1,0,0,0,0,0,0h0c.04,.08,.08,.16,.13,.23t0,0c.14,.25,.31,.48,.48,.7l.02-.02c.29,0,.59,0,.89,.03,1.69,.07,5.42,.52,8.79,2.92,.03-.62,.03-1.24-.02-1.85Z"/><path class="cls-13" d="M119.53,88.9c-.07-.04-.14-.08-.2-.12-.22-.14-.42-.31-.6-.5-.02-.02-.04-.05-.07-.07h0s-.05-.06-.07-.08c-.05-.06-.1-.12-.14-.18-.02-.02-.04-.05-.05-.07-.02-.02-.04-.05-.05-.07-.02-.03-.04-.05-.05-.08,0,0,0,0,0-.01-.02-.03-.04-.07-.06-.1-.02-.03-.03-.06-.05-.09-.01-.02-.02-.04-.03-.05,0-.01-.01-.02-.02-.03-.01-.02-.02-.04-.03-.07-.01-.02-.02-.05-.04-.07-.01-.03-.03-.05-.04-.08,0-.02-.02-.04-.02-.06-.09,.17-.19,.37-.3,.59-.39,.82-.03,1.92,.58,2.82,.08,.12,.17,.24,.26,.35,.38,.02,.75,.04,1.1,.06l.04-.35,.2-1.58h0s-.08-.04-.12-.05c-.08-.04-.15-.07-.22-.11Z"/><path class="cls-13" d="M119.5,81.9c-.31,0-.56,.25-.56,.56s.25,.56,.56,.56,.56-.25,.56-.56-.25-.56-.56-.56Z"/><path class="cls-13" d="M123.32,81.63c-.31,0-.56,.25-.56,.56s.25,.56,.56,.56,.56-.25,.56-.56-.25-.56-.56-.56Z"/></g><g><path class="cls-13" d="M109.07,102.66c0,.84,.05,1.69,.12,2.53,.02,.24,.04,.48,.07,.72,0,.07,.06,.13,.13,.13,.07,0,.14-.06,.13-.13-.09-.84-.15-1.69-.18-2.54,0-.24-.01-.47-.01-.71,0-.17-.26-.17-.26,0h0Z"/><path class="cls-13" d="M122.18,96.06c-.67,.98-1.33,1.96-1.94,2.98-.56,.94-1.07,1.9-1.53,2.89-.27,.59-.53,1.19-.77,1.8h.25c-.24-1.39-.36-2.8-.35-4.22,0-1.16,.1-2.32,.29-3.46,.15-.89,.35-1.77,.62-2.63,.1-.33,.22-.66,.34-.98,.05-.13,.1-.26,.15-.39,.01-.03,.02-.06,.04-.09-.02,.04,0,0,0-.02,0-.02,.01-.03,.02-.05,.02-.05,.05-.11,.07-.16,.1-.23,.22-.45,.33-.67,0-.01,.01-.02,.02-.04-.01,.02-.02,.04-.03,.06,0,0,0,0,0,0,.12-.12-.07-.31-.19-.19,0,0-.01,.02-.02,.03,0,.01,0,.02-.01,.03,.01-.03,.02-.04,.01-.03,0,0,0,0,0,0,0,0,0,0,0,0,0,0,0,.02-.01,.02-.02,.03-.04,.07-.06,.1-.07,.13-.14,.27-.2,.41-.24,.53-.45,1.07-.63,1.62-.27,.83-.49,1.68-.65,2.55-.21,1.13-.33,2.27-.36,3.42-.04,1.4,.06,2.8,.26,4.18,.03,.19,.06,.38,.09,.57,0,.06,.07,.1,.13,.1,.06,0,.11-.04,.13-.1,.41-1.04,.87-2.06,1.39-3.06,.51-.97,1.07-1.91,1.66-2.83,.37-.58,.76-1.15,1.15-1.72,.04-.06,.01-.15-.05-.18-.07-.04-.14-.01-.18,.05h0Z"/><path class="cls-13" d="M124.68,110.88c-.06,0-.12-.05-.13-.11-1.49-9.21-2.3-14.13-2.38-14.62h0c-.07-.42-.12-.72-.16-.91-.03-.18,.02-.36,.14-.49l3.89-4.16c.05-.05,.13-.05,.19,0,.05,.05,.05,.13,0,.19l-.02,.02-.19,.2-3.67,3.93c-.07,.07-.1,.17-.08,.26,.03,.19,.09,.5,.16,.91h0c.1,.57,.88,5.35,2.38,14.63,.01,.07-.04,.14-.11,.15,0,0-.01,0-.02,0Z"/><path class="cls-13" d="M119.62,91.13h0c-.36-.02-.73-.04-1.1-.06-1.63-.09-3.47-.19-4.98-.43-2.6-.42-5.31-1.25-8.54-2.63-.48-.2-.95-.41-1.41-.63-.07-.03-.09-.11-.06-.17,.03-.07,.11-.09,.17-.06,.45,.21,.92,.42,1.4,.62,3.21,1.37,5.9,2.2,8.48,2.61,1.49,.24,3.33,.34,4.95,.43,.38,.02,.75,.04,1.1,.06,.07,0,.13,.06,.12,.14,0,.07-.06,.13-.13,.13Z"/><path class="cls-13" d="M108.43,105.22s-.02,0-.04,0c-.07-.02-.11-.09-.09-.16,.25-.84,.51-1.66,.78-2.43,2.54-7.28,6.04-11.23,10.41-11.74h0s.13-.02,.13-.02c.07,0,.13,.06,.13,.13,0,0,0,0,0,.01v.12h-.12c-4.31,.45-7.78,4.34-10.3,11.58-.27,.77-.53,1.58-.77,2.42-.02,.06-.07,.09-.13,.09Z"/><path class="cls-13" d="M101.13,91.42l-.04-.36c0-.07-.02-.14-.02-.21h0c-.08-.74-.11-1.5-.11-2.26s.04-1.5,.11-2.23h0c0-.1,.02-.19,.03-.29v-.03s.84-1.23,.84-1.23c.11-.16,.28-.25,.47-.25h0c.19,0,.37,.09,.47,.25l1.07,1.6c.13,.19,.13,.44,0,.63l-2.83,4.39Zm.2-5.05h0c-.07,.73-.11,1.47-.11,2.22,0,.7,.03,1.39,.1,2.07l2.43-3.77c.07-.1,.06-.23,0-.34l-1.07-1.6c-.06-.09-.15-.14-.25-.14h0c-.1,0-.2,.05-.25,.13l-.8,1.18c0,.08-.02,.16-.03,.24Z"/><path class="cls-13" d="M127.4,83.55c-.05,0-.1-.03-.12-.08-.15-.37-.52-.45-1.01-.44h0c-.07,0-.13-.06-.13-.13,0-.07,.06-.13,.13-.13,.33,0,1.01,0,1.26,.61,.03,.07,0,.14-.07,.17-.02,0-.03,0-.05,0Z"/><path class="cls-13" d="M126.42,83.87c-.06,0-.11-.04-.13-.1-.02-.07,.03-.14,.1-.16,.26-.06,.48-.29,.52-.56,.01-.07,.08-.12,.15-.11,.07,.01,.12,.08,.11,.15-.06,.37-.36,.68-.72,.77-.01,0-.02,0-.03,0Z"/><path class="cls-13" d="M121.37,84.28c-.17,0-.36-.09-.43-.26-.08-.2,.04-.4,.1-.51l.38-.68c.04-.06,.12-.09,.18-.05,.06,.04,.09,.12,.05,.18l-.38,.68c-.06,.1-.11,.21-.08,.29,.03,.07,.13,.1,.21,.1,.11-.01,.22-.08,.33-.14,.06-.04,.14-.02,.18,.05,.04,.06,.02,.14-.05,.18-.12,.07-.27,.16-.44,.18-.02,0-.03,0-.05,0Z"/><path class="cls-13" d="M121.45,86.81c-.14,0-.27-.03-.4-.09-.41-.2-.68-.65-.78-.98-.03-.09-.01-.19,.04-.27,.05-.08,.14-.13,.24-.14h0l1.84-.15c.11,0,.22,.04,.28,.13,.07,.09,.08,.2,.04,.31-.17,.42-.47,.96-.91,1.13-.12,.05-.24,.07-.35,.07Zm-.88-1.22s-.04,.02-.04,.02c0,0-.01,.02,0,.04,.09,.3,.33,.67,.64,.82,.17,.08,.36,.09,.54,.02,.37-.14,.63-.68,.76-.98,.01-.03,0-.04,0-.05,0,0-.02-.02-.05-.02l-1.84,.15Z"/><path class="cls-13" d="M135.34,88.85s-.07-.01-.09-.04c-.13-.13-.27-.25-.41-.37-.42-.37-.85-.75-1.09-1.29-.16-.36-.16-.76-.15-1.13,0-.24,0-.46-.03-.67-.08-.47-.26-.94-.56-1.46-.4-.69-.94-1.31-1.47-1.91-.13-.15-.26-.3-.39-.45-.08-.09-.16-.19-.24-.28-.05-.06-.04-.14,.02-.19,.06-.05,.14-.04,.19,.02,.08,.09,.16,.19,.24,.28,.13,.15,.26,.3,.38,.44,.53,.61,1.08,1.23,1.5,1.95,.32,.54,.51,1.05,.59,1.55,.04,.24,.03,.48,.03,.72,0,.37-.01,.71,.13,1.02,.22,.49,.61,.84,1.03,1.2,.14,.12,.28,.25,.42,.38,.05,.05,.05,.13,0,.19-.03,.03-.06,.04-.09,.04Z"/><path class="cls-13" d="M126.14,90.82s-.07-.01-.1-.04c-.26-.29-.48-.61-.65-.94v-.03c-.19-.34-.31-.7-.38-1.08h0s0-.05,0-.05c-.11-.64-.09-1.33,.07-2.04v-.04c.22-.87,.74-1.66,.77-1.69,.04-.06,.12-.08,.18-.04,.06,.04,.08,.12,.04,.18,0,0-.53,.8-.73,1.64v.02c-.16,.67-.18,1.3-.08,1.9h0s0,.04,0,.04c.07,.38,.19,.74,.36,1.08v.03c.17,.3,.37,.59,.61,.85,.05,.05,.04,.14,0,.19-.03,.02-.06,.03-.09,.03Z"/><path class="cls-13" d="M126.24,85.13c-.11,0-.21,0-.32-.02-.07-.01-.12-.08-.11-.15,.01-.07,.08-.12,.15-.11,.49,.07,.98-.05,1.37-.32,.53-.37,.78-1.01,.63-1.6-.16-.6-.72-1.07-1.41-1.17-.07-.01-.12-.08-.11-.15,.01-.07,.08-.12,.15-.11,.79,.12,1.44,.66,1.63,1.36,.18,.69-.11,1.44-.73,1.88-.35,.25-.79,.38-1.24,.38Z"/><path class="cls-13" d="M119.62,91.13s-.01,0-.02,0c-.07,0-.12-.07-.11-.15l.04-.35s.15-1.14,.19-1.49c0,0-.01,0-.02,0h0c-.07-.04-.15-.08-.23-.12-.07-.04-.14-.08-.21-.13-.23-.15-.44-.32-.62-.51-.02-.02-.05-.05-.07-.07-.03-.03-.05-.06-.08-.09-.05-.06-.1-.12-.15-.18-.02-.02-.04-.05-.06-.07-.02-.03-.04-.05-.06-.08-.02-.03-.04-.05-.05-.08v-.02s-.05-.07-.07-.1c-.02-.03-.04-.06-.05-.09,0-.01-.02-.03-.03-.06,0,0-.01-.02-.02-.04-.01-.02-.02-.04-.03-.07-.01-.02-.03-.05-.04-.08-.01-.02-.03-.05-.04-.08,0-.01-.02-.04-.02-.06v-.03s-.04-.08-.06-.11c-.01-.03-.03-.07-.04-.1,0-.02-.02-.05-.02-.07,0-.02-.02-.05-.02-.07-.01-.04-.03-.09-.04-.13-.02-.08-.04-.16-.05-.24-.03-.17-.05-.34-.06-.52l-.13-2.72q-.09-1.86-.09-1.86c-.08-1.34,.51-2.69,1.58-3.58,1.47-1.23,3.71-1.42,5.34-.45,.79,.47,1.44,1.22,1.88,2.16,.32,.68,.51,1.4,.55,2.15,0,.07-.05,.13-.12,.14-.07,0-.13-.05-.14-.12-.04-.71-.21-1.4-.52-2.05-.42-.89-1.04-1.6-1.78-2.04-1.54-.92-3.65-.74-5.04,.42-.99,.83-1.56,2.12-1.48,3.37,0,.01,.09,1.86,.09,1.86v.02s.13,2.69,.13,2.69c0,.16,.03,.32,.06,.48,.01,.07,.03,.15,.05,.22,.01,.04,.02,.08,.04,.13,0,.02,.01,.04,.02,.06h0s.01,.05,.02,.07c.01,.03,.02,.06,.03,.09,.01,.04,.03,.07,.04,.11v.03s.03,.03,.04,.05c.01,.03,.02,.05,.04,.08,.01,.03,.02,.05,.04,.07,.01,.02,.02,.05,.03,.07,0,.01,.01,.02,.02,.03,.01,.02,.02,.04,.03,.05,.02,.03,.03,.06,.05,.09,.02,.03,.04,.06,.06,.09v.02s.04,.05,.06,.07c.02,.02,.03,.05,.05,.07,.02,.03,.03,.05,.05,.07,.05,.06,.09,.12,.14,.17,.02,.03,.05,.05,.07,.08,.02,.03,.04,.05,.07,.07,.18,.18,.37,.34,.58,.48,.06,.04,.13,.08,.19,.12,.08,.04,.15,.08,.21,.11,.04,.02,.08,.04,.11,.05l.08,.03v.09s0,0-.2,1.6l-.04,.35c0,.07-.07,.12-.13,.12Z"/><path class="cls-13" d="M130.39,109.77c-.07,0-.13-.05-.13-.13-.02-.34-.04-.69-.07-1.05-.13-1.54-.47-3.06-.79-4.53-.09-.41-.18-.84-.27-1.27-.01-.07,.03-.14,.1-.16,.07-.01,.14,.03,.16,.1,.09,.42,.18,.85,.27,1.26,.32,1.48,.66,3,.79,4.56,.03,.36,.05,.71,.07,1.06,0,.07-.05,.13-.13,.14,0,0,0,0,0,0Z"/><path class="cls-13" d="M141.37,101.63c-.06,0-.11-.04-.13-.09-1.07-3.33-2.92-5.96-5.49-7.8-3.28-2.34-6.87-2.82-8.72-2.89-.56-.02-.9,0-.9,0-.07,0-.13-.05-.14-.12,0-.07,.05-.13,.12-.14,.01,0,.35-.02,.93,0,1.88,.08,5.53,.57,8.86,2.94,2.63,1.87,4.51,4.54,5.59,7.93,.02,.07-.02,.14-.09,.17-.01,0-.03,0-.04,0Z"/></g></g></g><g><path class="cls-13" d="M123.29,110.93c-5.97,0-11.58-2.32-15.8-6.54-4.22-4.22-6.54-9.83-6.54-15.8s2.32-11.58,6.54-15.8c4.22-4.22,9.83-6.54,15.8-6.54s11.58,2.32,15.8,6.54c4.22,4.22,6.54,9.83,6.54,15.8s-2.32,11.58-6.54,15.8c-4.22,4.22-9.83,6.54-15.8,6.54Zm0-44.42c-12.17,0-22.08,9.9-22.08,22.08s9.9,22.08,22.08,22.08,22.08-9.9,22.08-22.08-9.9-22.08-22.08-22.08Z"/><path class="cls-12" d="M123.29,64.77c-13.13,0-23.82,10.68-23.82,23.82s10.68,23.82,23.82,23.82,23.82-10.68,23.82-23.82-10.68-23.82-23.82-23.82Zm15.8,39.61c-4.22,4.22-9.83,6.54-15.8,6.54s-11.58-2.32-15.8-6.54c-4.22-4.22-6.54-9.83-6.54-15.8s2.32-11.58,6.54-15.8c4.22-4.22,9.83-6.54,15.8-6.54s11.58,2.32,15.8,6.54c4.22,4.22,6.54,9.83,6.54,15.8s-2.32,11.58-6.54,15.8Z"/><path class="cls-13" d="M123.29,112.66c-6.43,0-12.48-2.5-17.03-7.05-4.55-4.55-7.05-10.59-7.05-17.03s2.5-12.48,7.05-17.03c4.55-4.55,10.59-7.05,17.03-7.05s12.48,2.5,17.03,7.05c4.55,4.55,7.05,10.59,7.05,17.03s-2.5,12.48-7.05,17.03c-4.55,4.55-10.6,7.05-17.03,7.05Zm0-47.9c-13.13,0-23.82,10.68-23.82,23.82s10.68,23.82,23.82,23.82,23.82-10.68,23.82-23.82-10.68-23.82-23.82-23.82Z"/></g></g><g><circle class="cls-1" cx="28.35" cy="55.45" r="22.21"/><g><g><path class="cls-14" d="M45.05,66.8c-.04,1.32-.34,2.63-.87,3.89,0,0,0,0,0,0-.03,.08-.07,.16-.1,.24-.01,.03-.02,.06-.04,.08-.02,.06-.05,.11-.08,.16-.02,.05-.05,.1-.07,.15-4,3.92-9.48,6.33-15.53,6.33-4.77,0-9.2-1.51-12.82-4.07,.52-.2,1.06-.42,1.6-.64,.09-.04,.18-.07,.27-.11,.09-.04,.18-.07,.27-.11,.09-.04,.18-.08,.28-.11h0s.04-.02,.06-.03h0c6.16-2.55,13.93-6.34,16.01-9.95,.04-.06,.01-.14-.05-.18-.06-.04-.14-.01-.18,.05-1.13,1.96-4.15,4.21-8.85,6.62-.21,.11-.42,.21-.64,.32-.22,.11-.43,.22-.66,.32-.22,.11-.45,.22-.68,.33-.23,.11-.46,.22-.7,.33-.24,.11-.47,.22-.72,.33-1.09,.5-2.24,1-3.46,1.5h0c.01-.16,.02-.32,.04-.48,.03-.33,.06-.65,.09-.98,.03-.32,.06-.63,.1-.94,.05-.47,.11-.92,.18-1.36,.22-1.52,.48-3.12,.92-4.66,.01-.05,.03-.09,.04-.14,.05-.16,.09-.32,.14-.48,.04-.11,.07-.22,.11-.34,.06-.19,.13-.38,.2-.56,0,0,0,0,0,0,.35-.93,.75-1.77,1.23-2.53,.17-.28,.36-.55,.55-.81,.05-.06,.1-.13,.15-.19,.13-.17,.26-.33,.4-.49,.07-.08,.14-.16,.21-.24,.07-.08,.14-.16,.21-.24,.07-.07,.13-.14,.2-.21,0-.01,.02-.02,.03-.03,.05-.05,.1-.11,.16-.16,.04-.04,.07-.07,.11-.1,.03-.03,.07-.07,.1-.1,.05-.05,.09-.09,.14-.13,.04-.04,.07-.07,.11-.1,.04-.04,.08-.08,.12-.11,.05-.05,.11-.09,.16-.14,.03-.03,.06-.05,.08-.07,.06-.05,.12-.1,.18-.15,.02-.02,.03-.03,.05-.04,.07-.06,.15-.12,.22-.18,0,0,.01-.01,.02-.02,.08-.06,.16-.13,.25-.19,.09-.07,.17-.13,.26-.19,0,0,.02-.01,.02-.02,.08-.06,.15-.11,.23-.16,.04-.03,.08-.05,.11-.08,.06-.04,.11-.08,.17-.12,.03-.02,.07-.05,.1-.07,.06-.04,.13-.09,.19-.13,0,0,0,0,0,0,0,.03-.01,.06-.02,.09,0,.05-.02,.11-.03,.17,0,.03,0,.06-.01,.09,0,.03,0,.06-.01,.09-.01,.13-.02,.26-.03,.39,0,.1-.01,.21-.01,.32,0,.04,0,.07,0,.11,0,.37,0,.77,.01,1.19,0,.04,0,.08,0,.13,.01,.25,.03,.51,.04,.76,0,0,0,.01,0,.02,.01,.21,.03,.42,.05,.62,0,.09,.01,.17,.02,.25,.02,.17,.03,.34,.05,.5,0,0,0,.02,0,.03,0,.04,0,.08,.01,.12,.01,.12,.03,.24,.04,.36,0,.08,.02,.16,.03,.24,0,.03,0,.05,0,.08,.01,.11,.03,.22,.04,.33,0,.01,0,.02,0,.04,0,.06,.01,.12,.02,.18,.01,.11,.03,.21,.04,.3,0,.04,.01,.09,.02,.13,.02,.16,.04,.31,.06,.44,0,.05,.02,.11,.02,.16,.02,.16,.04,.3,.06,.41,0,.02,0,.04,0,.06,0,.02,0,.04,0,.05,0,.01,0,.03,0,.04,.01,.07,.02,.12,.02,.14,0,0,0,0,0,0,0,.01,0,.03,.02,.04,0,0,0,0,0,0,0,0,0,0,0,0,0,0,0,0,0,0,0,0,0,0,0,0,0,0,0,0,0,0,0,0,0,0,0,0,0,0,0,0,0,0,0,0,0,0,0,0,0,0,0,0,0,0,0,0,0,0,0,0h0s0,0,0,0c0,0,0,0,0,0,0,0,0,0,0,0,0,0,0,0,0,0,0,0,.01,0,.02,0,0,0,0,0,.01,0,0,0,.01,0,.02,0s.01,0,.02,0c0,0,.01,0,.02,0,0,0,0,0,0,0,0,0,0,0,0,0,0,0,.01,0,.02,0,0,0,0,0,.01,0,0,0,0,0,0,0t0,0s0,0,0,0c0,0,0,0,0,0,0,0,0,0,0,0,0,0,0,0,0,0,0,0,0,0,0,0,0,0,0,0,0,0,0,0,0,0,0,0,0,0,0,0,0,0,0,0,0,0,0,0,0,0,0,0,0,0,0,0,0,0,0,0,.02-.06,.04-.13,.06-.2,0-.03,.02-.06,.03-.09,.1-.29,.24-.59,.4-.91,.02-.04,.04-.08,.06-.12,.03-.06,.07-.13,.1-.19,.03-.05,.06-.1,.09-.15,.03-.05,.05-.09,.08-.14,0-.02,.02-.04,.03-.05,.03-.04,.05-.09,.08-.14,.17-.28,.35-.56,.54-.84,.07-.11,.15-.22,.22-.33,.16-.23,.33-.47,.51-.7,.04-.05,.07-.1,.11-.15,.06-.08,.12-.16,.18-.24,.09-.11,.18-.23,.26-.34,.14-.17,.28-.35,.41-.52,.05-.06,.09-.11,.14-.17,.09-.11,.18-.22,.27-.33,.05-.05,.09-.11,.14-.16,.11-.14,.22-.27,.34-.4,.09-.1,.17-.2,.26-.3,.04-.05,.08-.1,.13-.15,.04-.05,.08-.1,.13-.14,.1-.11,.2-.22,.29-.33,.04-.05,.08-.09,.12-.14,.1-.12,.21-.23,.3-.33,.04-.05,.08-.09,.13-.14,.03-.04,.06-.07,.1-.11,.02-.02,.04-.04,.06-.06,.03-.03,.06-.06,.09-.09,.03-.03,.05-.06,.08-.08,.01-.01,.03-.03,.04-.04,.03-.03,.05-.06,.08-.08,.02-.03,.05-.05,.07-.08,.02-.02,.05-.05,.07-.07,.05-.05,.09-.1,.13-.14,.02-.02,.04-.04,.06-.06,.03-.04,.06-.07,.08-.09,0,0,0,0,0,0h0c2.57,.05,5.1,.78,7.31,2.1,3.19,1.9,5.16,5.88,5.02,10.13Z"/><path class="cls-14" d="M19.51,62.71s0,0,0,0c-.06,.13-1.64,3.39-2.05,9.82-.74,.3-1.47,.59-2.18,.87-1.8-1.31-3.39-2.88-4.72-4.66,1.77-.95,3.48-1.99,5.1-3.1,1.46-1.01,2.72-1.97,3.85-2.93Z"/><path class="cls-4" d="M31.38,48.19s0-.02,.01-.04c.07-.27,.08-.32,.2-.31,.13,.01,.26,.01,.38,0,.97-.1,1.69-.87,1.61-1.73-.08-.75-.75-1.33-1.6-1.38h-.11s-.02,0-.03,0c0,0-.19-1.01-1.09-2.08-.83-.98-1.79-1.03-3.58,.01-1.28,.75-2.6,1.1-3.79,.8-.13,.5-.26,1.21-.27,2.13l.56,4.06c.18,1.32,1.09,2.4,2.35,2.83l.09,.03-.09,2.52h0s0,.04,0,.05h0s0,0,0,0c0,0,0,0,0,.01,0,0,0,0,0,.01-.46,1.6,.12,5.97,.34,7.49,1.18-3,5.52-7.54,6.14-8.17-.15-.3-.4-.76-.65-1.21-.27-.49-.54-1-.69-1.3-.02-.04-.04-.08-.06-.12-.11-.21-.21-.42-.27-.66-.11-.45-.08-.92,.08-1.4,.19-.54,.35-1.08,.48-1.54Z"/><path class="cls-3" d="M26.03,52.57l-.08,1.38c.05-.02,.21-.1,.26-.12,.51-.2,1-.43,1.48-.69,.48-.26,.96-.53,1.38-.88,.09-.08,.18-.15,.24-.25,.07-.11,.13-.28,.05-.41-.09-.15-.28-.14-.44-.11-.78,.17-1.48,.61-2.23,.85-.19,.06-.38,.11-.58,.14-.06,0-.13,.01-.2,.03,.04,.02,.08,.04,.12,.05Z"/></g><g><g><path class="cls-13" d="M17.85,72.26c.1-1.32,.24-2.6,.41-3.79,.27-1.89,.61-3.88,1.25-5.76-.06,.13-1.64,3.39-2.05,9.82,.13-.05,.25-.1,.38-.16,0-.04,0-.08,0-.12Z"/><path class="cls-13" d="M22.04,42.77c.21,.17,.43,.31,.65,.42-.03,1.91,.49,3.79,.49,3.79-.17-1.6,.02-2.8,.21-3.53,1.19,.3,2.51-.05,3.79-.8,1.79-1.04,2.75-1,3.58-.01,.9,1.07,1.09,2.08,1.09,2.08,1.89-.58,3.01,3.24-.27,3.24-.1,0-.53,1.59-.72,2.32-.13,.48,.28,1.45,.28,1.45,0,0,7.79-4.36,1.96-11.67-2.58-3.22-4.73-2.5-6.67-1.87-2.45,.79-3.75,1.72-4.71,1.56-.51-.08-.98-.49-1.05-.2s-.12,2.01,1.37,3.22Z"/><path class="cls-13" d="M24.98,45.48c-.31,.03-.54,.3-.51,.61,.03,.31,.3,.54,.61,.51s.54-.3,.51-.61c-.03-.31-.3-.54-.61-.51Z"/><path class="cls-13" d="M28.76,44.87c-.31,.03-.54,.3-.51,.61,.03,.31,.3,.54,.61,.51,.31-.03,.54-.3,.51-.61-.03-.31-.3-.54-.61-.51Z"/></g><g><path class="cls-13" d="M19.92,62.33s0,0,0,0c0,.02-.02,.03-.03,.05-.13,.11-.25,.22-.38,.33,0,0,0,0,0,0-.07,.06-.14,.12-.21,.18-.07,.06-.14,.12-.22,.18-.69,.58-1.44,1.16-2.25,1.75-.09,.07-.18,.13-.28,.2-.08,.06-.17,.12-.25,.18-.21,.15-.42,.3-.64,.45-.42,.29-.85,.57-1.28,.85-.09,.06-.18,.11-.27,.17-.1,.07-.21,.13-.31,.2-.21,.13-.42,.26-.63,.39-.11,.06-.21,.13-.32,.19-.21,.13-.43,.25-.64,.38-.11,.06-.22,.12-.32,.19-.11,.06-.22,.12-.33,.19-.33,.18-.66,.37-.99,.54-.05-.07-.11-.14-.16-.21,1.78-.95,3.48-1.99,5.11-3.11,1.61-1.11,2.98-2.16,4.18-3.22,0,0,.02-.01,.02-.02,.06-.05,.14-.04,.19,.01,.03,.04,.04,.09,.02,.13Z"/><path class="cls-13" d="M26.31,63.27s-.02,0-.04,0c-.07-.02-.11-.09-.09-.16,.87-3.12,6.16-8.53,6.38-8.76,.05-.05,.13-.05,.19,0,.05,.05,.05,.13,0,.19-.05,.06-5.46,5.59-6.31,8.64-.02,.06-.07,.1-.13,.1Z"/><path class="cls-13" d="M26.31,63.27c-.06,0-.12-.05-.13-.11-.04-.25-.99-6.19-.41-8.16,.02-.07,.09-.11,.16-.09,.07,.02,.11,.09,.09,.16-.57,1.92,.4,7.98,.41,8.05,.01,.07-.04,.14-.11,.15,0,0-.01,0-.02,0Z"/><g><path class="cls-13" d="M34.03,62.64c-2.08,3.61-9.86,7.41-16.01,9.95h0s-.04,.02-.06,.03h0c-.09,.04-.18,.08-.28,.11-.09,.04-.18,.07-.27,.11-.09,.04-.18,.07-.27,.11-.54,.22-1.07,.43-1.6,.64-.09-.06-.17-.12-.26-.18,.13-.05,.25-.1,.38-.15,.19-.07,.38-.15,.58-.23,.15-.06,.31-.12,.47-.19,.14-.06,.28-.11,.42-.17,.12-.05,.23-.09,.35-.14,.1-.04,.21-.08,.31-.13,0,0,0,0,.01,0,0,0,0,0,0,0s0,0,0,0c.02,0,.04-.01,.06-.02,.03-.01,.05-.02,.08-.03,.07-.03,.13-.05,.2-.08h0c.91-.38,1.79-.76,2.63-1.13,.28-.12,.56-.25,.83-.37,.24-.11,.48-.22,.72-.33,.24-.11,.47-.22,.7-.33,.23-.11,.45-.22,.68-.33,.22-.11,.44-.22,.66-.32,.22-.11,.43-.22,.64-.32,4.7-2.41,7.72-4.66,8.85-6.62,.04-.06,.12-.08,.18-.05,.06,.04,.08,.12,.05,.18Z"/><path class="cls-13" d="M45.31,66.81c-.04,1.34-.34,2.67-.88,3.95h0s0,.01,0,.02c0,0,0,0,0,.01-.06,.15-.13,.3-.2,.45l-.02-.22c-.1,.11-.21,.21-.31,.31,.03-.05,.05-.1,.07-.15,.03-.05,.05-.11,.08-.16,.01-.03,.03-.05,.04-.08,.04-.08,.07-.16,.1-.24,0,0,0,0,0,0,.54-1.26,.83-2.57,.87-3.89,.14-4.25-1.83-8.22-5.02-10.13-2.22-1.32-4.74-2.05-7.31-2.1h0s-.03,0-.04,0h-.02s-.02,0-.03,0c0,0-.02,0-.03,0,0,0-.01,0-.02-.01,0,0-.02-.01-.02-.02,0,0-.01-.02-.02-.03,0,0,0,0,0,0,0-.02,0-.03,0-.05,0-.03,.01-.06,.04-.09,0,0,0,0,0,0,0,0,.01-.01,.02-.01,0,0,.01,0,.02-.01,0,0,0,0,0,0,0,0,.02,0,.02,0,0,0,0,0,.01,0,0,0,0,0,0,0,0,0,0,0,.01,0,.03,0,.05,0,.08,0h0c2.61,.06,5.17,.8,7.42,2.14,3.27,1.95,5.29,6.02,5.15,10.36Z"/></g><path class="cls-13" d="M17.97,72.6s0,0,0,0c-.07,0-.13-.07-.12-.14,0-.07,0-.13,.01-.2,.1-1.33,.23-2.6,.4-3.79,.29-2.05,.67-4.22,1.42-6.24,.52-1.38,1.16-2.55,1.96-3.6,1.12-1.45,2.52-2.7,4.19-3.72,.06-.04,.14-.02,.18,.04,.04,.06,.02,.14-.04,.18-1.64,1-3.02,2.23-4.12,3.65-.79,1.02-1.42,2.18-1.93,3.53-.75,1.99-1.12,4.15-1.41,6.18-.17,1.18-.3,2.45-.4,3.77,0,.07,0,.13-.01,.2,0,.07-.06,.12-.13,.12Z"/><g><path class="cls-13" d="M17.95,72.62c-.09,.04-.18,.08-.28,.11,0-.07,.01-.15,.02-.22,0-.05,.03-.09,.07-.11,0,0,0,0,.01,0,0,0,0,0,0,0,.02,0,.04,0,.06,0,.07,0,.13,.07,.12,.14,0,.02,0,.04,0,.06,0,0,0,.01,0,.02h0Z"/><path class="cls-13" d="M44.43,70.77s0,0,0,0c0,0,0,0,0,.01-.06,.15-.13,.3-.2,.45l-.02-.22-.03-.26s0-.04,0-.06c0,0,0,0,0,0,.02-.04,.06-.07,.11-.08,.07,0,.14,.04,.14,.12v.03s0,0,0,0h0Z"/></g><path class="cls-13" d="M25.9,55.17s0,0,0,0c-.07,0-.13-.06-.13-.14l.09-2.35c-1.31-.48-2.24-1.62-2.44-3.01l-.63-4.53c-.28-2,.83-3.92,2.68-4.67,1.8-.73,3.42-.51,4.79,.67,.98,.84,1.64,2.02,1.85,3.33,.93,.1,1.65,.76,1.74,1.61,.1,1-.73,1.91-1.84,2.02-.11,.01-.22,.01-.33,0-.01,.04-.02,.08-.03,.11,0,.03-.01,.04-.01,.05-.13,.46-.29,1.01-.48,1.56-.15,.43-.18,.85-.08,1.25,.05,.21,.15,.4,.25,.61,.02,.04,.04,.08,.06,.12,.15,.3,.42,.8,.69,1.29,.27,.49,.54,1,.69,1.3,.03,.07,0,.14-.06,.18-.06,.03-.14,0-.18-.06-.15-.3-.42-.8-.69-1.29-.27-.49-.54-1-.69-1.3-.02-.04-.04-.08-.06-.12-.11-.21-.21-.42-.27-.66-.11-.45-.08-.92,.08-1.4,.19-.54,.35-1.08,.48-1.54,0,0,0-.02,.01-.04,.07-.27,.08-.32,.2-.31,.13,.01,.26,.01,.38,0,.97-.1,1.69-.87,1.61-1.73-.08-.75-.75-1.33-1.6-1.38h-.11s-.02-.11-.02-.11c-.18-1.29-.81-2.45-1.77-3.27-1.31-1.12-2.79-1.33-4.52-.63-1.75,.71-2.78,2.51-2.52,4.39l.63,4.53c.18,1.32,1.09,2.41,2.35,2.83l.09,.03-.1,2.55c0,.07-.06,.13-.13,.13Z"/><path class="cls-13" d="M32.98,46.42s-.09-.03-.12-.07c-.18-.36-.55-.4-1.05-.35-.07,0-.14-.05-.14-.12,0-.07,.05-.14,.12-.14,.33-.03,1.01-.1,1.31,.49,.03,.06,0,.14-.06,.18-.02,0-.04,.01-.06,.01Z"/><path class="cls-13" d="M32.03,46.82c-.06,0-.11-.04-.13-.09-.02-.07,.01-.14,.08-.17,.26-.08,.45-.33,.47-.6,0-.07,.07-.13,.14-.12,.07,0,.13,.07,.12,.14-.03,.37-.29,.71-.65,.83-.01,0-.03,0-.04,0Z"/><path class="cls-13" d="M27,47.69c-.16,0-.33-.07-.41-.23-.1-.19,0-.41,.05-.52l.32-.71c.03-.07,.11-.1,.17-.07,.07,.03,.1,.11,.07,.17l-.32,.71c-.05,.1-.09,.22-.05,.3,.03,.07,.14,.09,.22,.08,.11-.02,.22-.1,.32-.17,.06-.04,.14-.03,.18,.03,.04,.06,.03,.14-.03,.18-.11,.08-.25,.18-.42,.22-.03,0-.06,0-.1,0Z"/><path class="cls-13" d="M27.1,49.73c-.59,0-1.17-.26-1.56-.69-.05-.05-.04-.14,0-.19,.05-.05,.14-.04,.19,0,.38,.42,.97,.65,1.53,.6,.56-.05,1.1-.39,1.39-.88,.04-.06,.12-.08,.18-.05,.06,.04,.08,.12,.05,.18-.33,.56-.94,.94-1.59,1-.06,0-.13,0-.19,0Z"/></g></g></g><g><path class="cls-13" d="M28.35,77.79c-5.97,0-11.58-2.32-15.8-6.54-4.22-4.22-6.54-9.83-6.54-15.8s2.32-11.58,6.54-15.8c4.22-4.22,9.83-6.54,15.8-6.54s11.58,2.32,15.8,6.54c4.22,4.22,6.54,9.83,6.54,15.8s-2.32,11.58-6.54,15.8c-4.22,4.22-9.83,6.54-15.8,6.54Zm0-44.42c-12.17,0-22.08,9.9-22.08,22.08s9.9,22.08,22.08,22.08,22.08-9.9,22.08-22.08-9.9-22.08-22.08-22.08Z"/><path class="cls-12" d="M28.35,31.63c-13.13,0-23.82,10.68-23.82,23.82s10.68,23.82,23.82,23.82,23.82-10.68,23.82-23.82-10.68-23.82-23.82-23.82Zm15.8,39.61c-4.22,4.22-9.83,6.54-15.8,6.54s-11.58-2.32-15.8-6.54c-4.22-4.22-6.54-9.83-6.54-15.8s2.32-11.58,6.54-15.8c4.22-4.22,9.83-6.54,15.8-6.54s11.58,2.32,15.8,6.54c4.22,4.22,6.54,9.83,6.54,15.8s-2.32,11.58-6.54,15.8Z"/><path class="cls-13" d="M28.35,79.53c-6.43,0-12.48-2.5-17.03-7.05-4.55-4.55-7.05-10.59-7.05-17.03s2.5-12.48,7.05-17.03c4.55-4.55,10.59-7.05,17.03-7.05s12.48,2.5,17.03,7.05c4.55,4.55,7.05,10.59,7.05,17.03s-2.5,12.48-7.05,17.03c-4.55,4.55-10.59,7.05-17.03,7.05Zm0-47.9c-13.13,0-23.82,10.68-23.82,23.82s10.68,23.82,23.82,23.82,23.82-10.68,23.82-23.82-10.68-23.82-23.82-23.82Z"/></g></g></svg>