<?xml version="1.0" encoding="UTF-8"?><svg id="OBJECT" xmlns="http://www.w3.org/2000/svg" xmlns:xlink="http://www.w3.org/1999/xlink" viewBox="0 0 185.25 116"><defs><style>.cls-1{fill:none;}.cls-2{clip-path:url(#clippath);}.cls-3{fill:#6a3649;}.cls-4{fill:#eba588;}.cls-5{fill:#fff;}.cls-6{fill:#e78882;}.cls-7{fill:#e7faf9;}.cls-8{fill:#f0bf9c;}.cls-9{fill:#e4e4e0;}.cls-10{fill:#6c6fc3;}.cls-11{fill:#7ca566;}.cls-12{fill:#938985;}.cls-13{fill:#ba3770;}.cls-14{fill:#8e5a61;}.cls-15{fill:#a59b95;}.cls-16{fill:#adbf53;}.cls-17{fill:#c7d2d7;}.cls-18{fill:#df4268;}.cls-19{fill:#d1f4f5;}.cls-20{fill:#d4cfbe;}.cls-21{fill:#422c4f;}.cls-22{fill:#56438c;}.cls-23{fill:#852d70;}.cls-24{fill:#81d3cf;}.cls-25,.cls-26{fill:#4d8c84;}.cls-27,.cls-26{opacity:.3;}</style><clipPath id="clippath"><path class="cls-1" d="M120.96,57.62l-3.19-8.69c.24-.92,.44-1.86,.6-2.8,1.06-6.49-.86-14.19-6.55-17.16-2.41-1.25-5.12-1.5-7.86-1.66l-1.47-4.08-8.17,2.18c-5.27-2.98-6.97-9.85-10.54-14.86-4.57-6.42-12.86-9.76-20.43-8.24-7.57,1.52-14.04,7.82-15.96,15.54-.87,3.51-.85,7.19-1.34,10.78-.12,.92-.29,1.85-.51,2.77l-5.16-19.06L26.77,3.58l-2.17,13.74,11.41,24.15c-3.61,1.01-7.61,1.33-10.97,3.05-7.68,3.93-8.35,13.1-6.74,20.76,1.85,8.83,3.24,17.25,7.81,25.14,2.63,4.54,5.94,8.67,9.83,12.12,10.29,9.12,24.6,13.34,37.93,10.76,11.3-2.18,21.64-9.31,27.9-19.21l6.77-3.66c11.72-6.33,17.01-20.3,12.42-32.8Z"/></clipPath></defs><g><g><path class="cls-19" d="M88.85,74.96c-4.65-1.37-9.36,1.69-13.04,4.84-3.68,3.15-7.62,6.78-12.47,6.8-4.9,.02-8.9-3.66-12.62-6.84-3.72-3.18-8.53-6.26-13.2-4.79-1.74,.55-3.24,1.68-4.96,2.27-3.55,1.23-7.59-.05-10.56-2.34-.74-.57-1.42-1.19-2.06-1.85,1.33,6.02,2.97,11.83,6.18,17.37,2.63,4.54,5.94,8.67,9.83,12.12,10.29,9.12,24.6,13.34,37.93,10.76,13.33-2.57,25.33-12.03,30.87-24.81,.22-.51,.43-1.03,.64-1.55-3.19-1.45-6.13-3.41-8.65-5.84-2.42-2.34-4.65-5.18-7.88-6.13Z"/><path class="cls-7" d="M118.37,46.13c1.06-6.49-.86-14.19-6.55-17.16-5.33-2.78-12.18-.6-17.44-3.52-5.32-2.96-7.02-9.87-10.6-14.89-4.57-6.42-12.86-9.76-20.43-8.24-7.57,1.52-14.04,7.82-15.96,15.54-.87,3.51-.85,7.19-1.34,10.78-.48,3.59-1.58,7.3-4.16,9.76-4.43,4.21-11.46,3.35-16.85,6.11-7.68,3.93-8.35,13.1-6.74,20.76,.55,2.63,1.06,5.22,1.63,7.78,.64,.66,1.33,1.29,2.06,1.85,2.98,2.3,7.01,3.57,10.56,2.34,1.72-.59,3.23-1.73,4.96-2.27,4.67-1.46,9.48,1.61,13.2,4.79,3.72,3.18,7.72,6.86,12.62,6.84,4.84-.02,8.79-3.65,12.47-6.8,3.68-3.15,8.39-6.21,13.04-4.84,3.23,.95,5.46,3.8,7.88,6.13,2.52,2.43,5.47,4.39,8.65,5.84,2.8-7.18,3.89-14.99,6.46-22.28,2.19-6.19,5.47-12.03,6.53-18.52Z"/></g><path class="cls-7" d="M41.51,22.86c-.26,2.95-1.71,5.78-3.96,7.72-2.57,2.22-5.95,3.19-9.22,4.09-1.77,.49-3.55,.99-5.32,1.48-.99,.28-2.01,.55-3.03,.48-1.79-.13-3.35-1.34-4.36-2.82-2.12-3.1-2.09-7.34-.57-10.78s4.36-6.15,7.49-8.23c2.43-1.62,5.14-2.93,8.04-3.24,2.81-.31,6.29,.44,8.24,2.64,1.99,2.24,2.95,5.72,2.69,8.66Z"/><g class="cls-2"><g><g><g><g><path class="cls-22" d="M44.08,94.77l-.73,1.2c-1.14,1.89-1.75,4.05-1.75,6.26v9.89l20.56,2.48,17.49-1.49-4.34-14.63-31.24-3.72Z"/><path class="cls-21" d="M48,102.68l6.23,1.17c4.68,.88,9.49,.77,14.13-.31l4.18-.98c1.38-.32,2.56-1.19,3.27-2.39l-.5-1.68-31.24-3.72-.73,1.2c-.39,.65-.72,1.33-.98,2.03l.09,.21c.99,2.32,3.07,3.99,5.55,4.46Z"/></g><path class="cls-21" d="M62.62,113.5c-.76-.85-1.74-1.75-2.88-2.59-1.14-.84-2.43-1.63-3.79-2.28-1.36-.65-2.78-1.18-4.14-1.54-1.37-.37-2.68-.57-3.82-.64,2.14,.84,4.86,1.89,7.49,3.17,2.64,1.26,5.16,2.74,7.14,3.9Z"/><path class="cls-21" d="M73.9,105.76c-.87,.1-1.87,.33-2.89,.71-1.02,.38-2.06,.9-3.03,1.54-.97,.64-1.86,1.4-2.6,2.19-.75,.79-1.35,1.62-1.78,2.38,1.29-1.19,2.98-2.65,4.85-3.88,1.85-1.24,3.86-2.22,5.46-2.95Z"/></g><g><path class="cls-10" d="M63.36,51.47l10.99,1.61,14.07,5.19-.93,12.25-5.78-1.4-4.98,14.75c-.89,2.64-.78,5.51,.31,8.06h0c.91,2.12,.73,4.55-.47,6.52l-.57,.94c-.48,.79-1.27,1.33-2.17,1.49-5.38,.98-15.71,1.99-25.58-.54-2.44-.62-4.52-2.22-5.74-4.42h0c-1.11-2.01-1.42-4.37-.86-6.61,1.11-4.44,3.14-12.03,5.1-16.4l-8.41-4.48,5.96-9.33c1.98-3.1,5.17-5.22,8.79-5.85l10.27-1.78"/><path class="cls-22" d="M87.48,70.52l.93-12.25-14.07-5.19-10.95-1.6c2.36,8.52,5.93,16.7,10.58,24.21,1.12,1.81,2.34,3.62,3.73,5.23l3.99-11.81,5.78,1.4Z"/><path class="cls-22" d="M53.19,78.89c-.41,.51-.66,1.16-.66,1.87,0,1.64,1.33,2.96,2.96,2.96s2.96-1.33,2.96-2.96c0-1.55-1.18-2.81-2.69-2.95l-2.24-8.33-9.49,1.99,2.71,1.45c-1.96,4.37-3.99,11.96-5.1,16.4h0l9.67-13.61,1.88,3.19Z"/><path class="cls-22" d="M70.82,61.03c-.99,.18-2.12,.21-3.27-.02-1.15-.22-2.3-.7-3.26-1.44-.96-.74-1.73-1.72-2.24-2.77-.52-1.05-.79-2.15-.87-3.15-.23,.98-.21,2.21,.21,3.42,.41,1.21,1.22,2.41,2.33,3.26,1.11,.85,2.47,1.31,3.75,1.39,1.28,.08,2.48-.22,3.36-.7Z"/><path class="cls-22" d="M78.91,73.13c-1.42-.1-3.02-.24-4.7-.5-1.68-.26-3.44-.63-5.16-1.13-1.72-.5-3.41-1.12-4.96-1.81-1.56-.68-2.99-1.42-4.24-2.09,.98,1.03,2.26,2.08,3.77,2.99,1.51,.91,3.24,1.68,5.05,2.2,1.81,.52,3.68,.8,5.45,.84,1.76,.04,3.41-.16,4.79-.51Z"/><path class="cls-22" d="M75.5,79.58c-1.59,.86-3.45,1.8-5.48,2.65-2.03,.86-4.24,1.65-6.5,2.28-2.26,.63-4.56,1.09-6.74,1.41-2.19,.32-4.26,.47-6.07,.56,1.8,.2,3.9,.25,6.14,.07,2.24-.18,4.6-.58,6.9-1.22,2.3-.64,4.53-1.51,6.54-2.52,2.01-1,3.78-2.14,5.22-3.23Z"/><path class="cls-22" d="M69.38,81.48c-1.83,.08-4.17,.19-6.5,.12-2.34-.06-4.66-.32-6.48-.51,1.67,.75,4.05,1.31,6.46,1.38,2.41,.08,4.82-.34,6.53-.99Z"/></g></g><g><g><polygon class="cls-4" points="46.74 72.92 39.33 68.96 34.03 77.8 46.74 72.92"/><polygon class="cls-21" points="39.33 68.96 46.74 72.92 40.81 75.19 38.77 69.9 39.33 68.96"/></g><g><g><path class="cls-8" d="M48.34,67.9l-.47-2.89h0l-13.11,11.96c-2.35,2.14-2.36,5.83-.02,7.99h0c2.42,2.24,6.27,1.81,8.14-.91l7.59-11.01-.14-.19c-1.03-1.48-1.71-3.17-2-4.95Z"/><path class="cls-4" d="M48.27,64.65l-.4,.36h0l.47,2.89c.29,1.78,.97,3.47,2,4.95l.14,.19,2.05-2.98-4.26-5.41Z"/></g><g><g><path class="cls-15" d="M53.53,69.49l.34,.6c.68-.91,2.05-1.62,2.73-1.79h0c-.81,.07-1.28,.12-2.02,.45-.39,.17-.75,.42-1.04,.73Z"/><path class="cls-20" d="M53.02,68.59l.5,.9c.29-.31,.65-.56,1.04-.73,.75-.33,1.21-.39,2.02-.45l-.63-1.7c-1.94,.57-2.75,1.7-2.93,1.99Z"/><path class="cls-20" d="M53.86,70.09l1,1.79c.29-.31,.64-.55,1.03-.71,.44-.18,1.14-.37,1.61-.41l-.91-2.46c-.68,.17-2.05,.88-2.73,1.79Z"/><path class="cls-15" d="M54.86,71.88l.33,.59c.53-.75,1.47-1.41,2.31-1.71h0c-.47,.04-1.17,.24-1.61,.41-.39,.16-.75,.4-1.03,.71Z"/><path class="cls-15" d="M53.02,68.59c.19-.29,.99-1.43,2.93-1.99-1.47,.03-2.85,.69-3.79,1.83l-.1,.12,.98,1.66c.11-.26,.27-.5,.47-.71l-.5-.9Z"/><path class="cls-15" d="M53.53,69.49c-.2,.21-.36,.45-.47,.71l.42,.72c.05-.29,.19-.57,.38-.83l-.34-.6Z"/><path class="cls-15" d="M54.83,73.21l1.26,2.13,.5-.38-1.39-2.49c-.17,.24-.29,.49-.36,.74Z"/><path class="cls-20" d="M57.5,70.76c-.84,.3-1.78,.96-2.31,1.71l1.39,2.49,1.93-1.47-1.02-2.74Z"/><path class="cls-15" d="M54.86,71.88c-.18,.19-.33,.41-.44,.65l.4,.68c.07-.25,.19-.5,.36-.74l-.33-.59Z"/><path class="cls-15" d="M53.86,70.09c-.2,.26-.33,.54-.38,.83l.95,1.61c.11-.24,.26-.45,.44-.65l-1-1.79Z"/></g><g><g><path class="cls-20" d="M58.88,77.8c-1.73,0-3.13-1.4-3.13-3.13,0-.01,0-.03,0-.04-.28,.47-.45,1.02-.45,1.61,0,1.73,1.4,3.14,3.13,3.14s3.11-1.38,3.13-3.09c-.55,.91-1.54,1.53-2.69,1.53Z"/><path class="cls-9" d="M58.88,77.8c1.14,0,2.14-.61,2.69-1.53,0-.01,0-.03,0-.04,0-1.73-1.4-3.13-3.14-3.13-1.14,0-2.14,.61-2.69,1.53,0,.01,0,.03,0,.04,0,1.73,1.4,3.13,3.13,3.13Z"/></g><path class="cls-5" d="M60.24,74.81c-.08,.47-.85,.74-1.72,.59s-1.52-.65-1.44-1.12c.08-.47,.85-.74,1.72-.59,.87,.14,1.52,.65,1.44,1.12Z"/></g><g><polygon class="cls-12" points="28.79 7.79 49.63 55.99 52.18 55.03 36.21 15.53 28.79 7.79"/><polygon class="cls-15" points="28.79 7.79 28.73 7.72 27.89 17.92 46.97 57 49.63 55.99 28.79 7.79"/><polygon class="cls-5" points="28.73 7.72 26.77 18.1 46.97 57 27.89 17.92 28.73 7.72"/><polygon class="cls-20" points="36.21 15.53 52.18 55.03 36.84 15.19 28.79 7.78 28.79 7.79 36.21 15.53"/></g><g><path class="cls-15" d="M53.73,48.52l-1.08,1.67c.02,1.98-.98,4.02-2.61,5.31-1.59,1.26-3.8,1.85-5.93,1.59-.7-.09-1.4-.27-2.07-.52l.54-.81-2.94-2.48-2.23,1.29-1.08,1.67c2.02,2.1,4.66,3.45,7.42,3.8,.47,.06,.94,.09,1.41,.09,2.46,0,4.86-.81,6.74-2.3,2.37-1.88,4.85-6.42,4.82-9.35l-2.97,.03Z"/><path class="cls-20" d="M46.23,58.46c-.47,0-.94-.03-1.41-.09-2.76-.35-5.39-1.69-7.42-3.8l2.14-2.06c1.55,1.61,3.55,2.65,5.64,2.91,2.12,.27,4.34-.33,5.93-1.59,1.63-1.29,2.63-3.33,2.61-5.31l2.97-.03c.03,2.92-1.37,5.79-3.74,7.67-1.88,1.49-4.27,2.3-6.74,2.3Z"/></g><g><path class="cls-4" d="M54.95,57.18h0c.73-.42,1.67-.1,1.99,.68l1.01,2.44c.27,.65-.02,1.4-.66,1.7h0c-.65,.3-1.42,.03-1.74-.61l-1.17-2.38c-.33-.66-.08-1.46,.56-1.83Z"/><g><path class="cls-8" d="M46.96,58.71l2.6-2.09c.82-.66,1.96-.74,2.86-.19l1.53,.93c.47,.29,.84,.72,1.03,1.24l2.7,7.1c.19,.49,.1,1.03-.22,1.44l-.88,1.17-.63-1.7h0c-1.47,.03-2.85,.69-3.79,1.83l-.1,.12,.98,1.66-1.77-.39c-1.08-.22-1.97-.98-2.36-2.02l-2.58-6.83c-.3-.8-.06-1.71,.61-2.25Z"/><path class="cls-4" d="M57.37,64.86l-3.1-.87c-.46-.13-.94,0-1.28,.33l-1.67,1.67,1.23-1.89c.52-.79,1.55-1.05,2.38-.59l2.44,1.34Z"/><path class="cls-4" d="M56.71,63.13l-3.14-1.55c-.66-.32-1.45-.12-1.87,.48l-1.15,1.66,.8-1.83c.45-1.03,1.73-1.38,2.64-.72l2.72,1.96Z"/><path class="cls-4" d="M55.63,60.29l-2.4-1.52c-.66-.42-1.53-.28-2.02,.32l-1.17,1.41,.98-1.81c.43-.79,1.47-.99,2.16-.42l2.47,2.02Z"/></g></g></g></g></g><g><g><path class="cls-21" d="M67.96,52.99c1.15,.91,2.62,1.4,4.09,1.38,.69,0,1.38-.14,2.04-.37l.96-3.44-9.79-2.14-.18,.29c.65,1.64,1.51,3.21,2.88,4.28Z"/><path class="cls-8" d="M72.05,54.37c-1.47,.02-2.94-.48-4.09-1.38-1.37-1.08-2.24-2.64-2.88-4.28l-1.72,2.76c-.85,1.37-.96,3.07-.28,4.53h0c1.05,2.26,3.41,3.66,5.88,3.35,2.32-.29,4.18-1.94,4.79-4.12l.34-1.23c-.65,.23-1.34,.36-2.04,.37Z"/></g><g><path class="cls-3" d="M61.76,46l-4.45-9.37c-.92-1.93,0-4.22,1.99-5,4.06-1.6,7.68-5.29,10.74-8.35,.36-.36,.72-.73,1.17-.97,.45-.23,1.02-.31,1.46-.06,.5,.29,.71,.93,.65,1.51-.06,.58-.34,1.11-.62,1.62,.59-.23,1.36-.6,1.84-1,.61-.52,1.24-1.05,2.08-1.16,.34-.05,.69,0,.99,.16,.97,.52,.9,1.75,.6,2.71-.6,1.87-1.85,3.52-3.49,4.6l-9.35,2.48,.74,4.77-2.34,2.42-.09,5.64h-1.91Z"/><path class="cls-8" d="M80.23,41.47l-1.55-6.22c-.55-2.37-2-4.3-3.92-5.5-3.65,.18-7.26,1.16-10.49,2.88,.41,1.28,.79,2.69,.59,4.01-.19,1.24-.93,2.38-1.99,3.04l-.14,4.73,.26,1.04c1.1,4.76,5.85,7.72,10.61,6.62h0c4.76-1.1,7.72-5.85,6.62-10.61Z"/><g><path class="cls-17" d="M68.82,51.19c-2.39-.26-4.65-1.34-6.35-3.04l.53-.53c1.58,1.58,3.68,2.58,5.91,2.82l-.08,.74Z"/><g><path class="cls-17" d="M66.17,45.83c-1.66-.75-3.42-.88-5.55-.96l.03-.74c1.74,.07,3.9,.15,5.82,1.03l-.31,.68Z"/><g><path class="cls-5" d="M68.06,49.54c-.49-1.37-.92-2.82-1.25-4.18,1.54-.5,2.77-1.67,3.64-2.5,.98-.93,2.2-2.09,3.55-2.25,.12-.01,.24-.02,.36-.02,.68,0,1.39,.19,2.14,.4l.3,.08c.69,.18,1.5,.37,2.33,.37,.12,0,.24,0,.35-.01,.32-.02,.65-.11,.96-.24l-.2-.91c-1.03,.33-2.14,.1-3.18-.18-1.04-.28-2.11-.61-3.18-.49-1.63,.19-2.93,1.39-4.12,2.51-1.19,1.13-2.51,2.31-4.14,2.46,.35,1.7,.89,3.59,1.5,5.28,.71,1.98,2.74,3.12,4.76,2.77-2.21-.58-3.43-2-3.83-3.12Z"/><path class="cls-24" d="M80.45,41.21c-.31,.13-.64,.21-.96,.24-.12,0-.23,.01-.35,.01-.82,0-1.64-.19-2.33-.37l-.3-.08c-.75-.21-1.47-.4-2.14-.4-.12,0-.25,0-.36,.02-1.35,.16-2.57,1.32-3.55,2.25-.87,.82-2.1,1.99-3.64,2.5,.32,1.35,.75,2.81,1.25,4.18,.4,1.12,1.62,2.54,3.83,3.12,.19-.03,.37-.07,.56-.13l3.04-.95c3.84-1.2,6.12-5.15,5.25-9.08l-.29-1.29Z"/></g></g></g><path class="cls-3" d="M67.76,35.62c-1.02,.38-1.74,1.24-2.02,2.24l5.01-1.88c-.87-.57-1.97-.74-2.99-.36Z"/><path class="cls-3" d="M76.76,34.03c.85,.03,1.59,.6,2.05,1.45l-4.18-.13c.51-.83,1.28-1.35,2.14-1.32Z"/><path class="cls-21" d="M70.48,39.25c0,.42-.34,.75-.75,.75s-.75-.34-.75-.75,.34-.75,.75-.75,.75,.34,.75,.75Z"/><path class="cls-21" d="M77.79,37.72c.02,.42-.24,.77-.57,.78-.34,.02-.62-.31-.64-.73-.02-.42,.24-.77,.57-.78,.34-.02,.62,.31,.64,.73Z"/><g><circle class="cls-8" cx="60.79" cy="46.71" r="2.97"/><circle class="cls-4" cx="60.79" cy="46.71" r="1.71"/></g><path class="cls-14" d="M57.8,36.97c-.76-2.1,.36-4.39,2.46-5.14,1.32-.47,2.58-1.16,3.72-2.01,2.26-1.68,4.1-3.85,5.89-6.02,.46-.56,.94-1.13,1.55-1.52,.06-.04,.13-.08,.19-.11-.14,.04-.28,.09-.4,.15-.45,.23-.81,.61-1.17,.97-3.06,3.06-6.68,6.75-10.74,8.35-1.99,.78-2.91,3.07-1.99,5l1.51,3.19h0l-1.03-2.85Z"/></g></g><g><g><path class="cls-6" d="M79.53,53.87l-2.33-.19c-.91-.07-1.74,.53-1.95,1.43l-1.16,5.05,.7,.08c1.49,.17,2.86-.85,3.13-2.33l.24-1.33,1.37-2.7Z"/><g><path class="cls-4" d="M77.44,58.31l-.75-1.52c-.28-.57-.14-1.26,.35-1.66l2.13-1.76c.81-.67,1.88-.93,2.91-.71l4.57,1,2.76,8.65-4.45,4.02c-.42,.38-.98,.59-1.55,.57l-1.55-.04c-.69-.02-1.3-.44-1.56-1.07l-.4-.96-.32-.07c-.64-.13-1.13-.66-1.21-1.31l-.2-1.59h0c-.57-.04-1.06-.4-1.27-.93l-.27-.69c-.25-.64-.03-1.36,.54-1.74l.28-.19Z"/><path class="cls-6" d="M77.44,58.31l4.19-3.31-1.36,.63c-1.07,.5-1.98,1.3-2.6,2.31l-.23,.37Z"/><path class="cls-6" d="M78.17,61.86l5.87-1.34-1.33,.67c-1.17,.59-2.48,.84-3.78,.74l-.76-.06Z"/><path class="cls-6" d="M79.89,64.83h4.14l-.69,.19c-1.12,.31-2.3,.25-3.38-.16l-.07-.03Z"/></g></g><g><g><path class="cls-23" d="M84.73,66.94c3.53,9.71,10.61,17.2,18.33,19.42l5.87,1.69,3.85-1.4-1.02-2.8,.59-.87c4.49-6.66,5.09-16.95,1.56-26.66l-8.4-23.08-29.18,10.62,8.4,23.08Z"/><path class="cls-13" d="M96.98,27.34l-5.11,1.86-3.85,1.4-8.96,3.26c1.6,4.39,.38,8.87-2.73,10.01l29.18-10.62c-3.11,1.13-6.93-1.51-8.53-5.91Z"/></g><path class="cls-18" d="M100.83,25.94l-17.92,6.52c1.6,4.39,.38,8.87-2.73,10.01l8.4,23.08c3.53,9.71,10.61,17.2,18.33,19.42l5.87,1.69,3.42-5.07c4.49-6.66,5.09-16.95,1.56-26.66l-8.4-23.08c-3.11,1.13-6.93-1.51-8.53-5.91Z"/><g><path class="cls-13" d="M113.51,56.47l-7.63-20.96c-3.07-.15-6.11-2.19-8.08-5.46l-11.52,4.19c.6,3.78-.42,7.29-2.68,9.38l7.63,20.96c3.2,8.78,9.66,15.72,16.46,17.67l2.9,.83,1.68-2.5c3.95-5.87,4.44-15.33,1.25-24.12Z"/><g><path class="cls-23" d="M99.39,29.47l-1.59,.58c1.97,3.28,5.01,5.32,8.08,5.46l1.59-.58c-3.07-.15-6.11-2.19-8.08-5.46Z"/><path class="cls-23" d="M113.51,56.47c3.2,8.78,2.71,18.25-1.25,24.12l-1.68,2.5,1.01,.29,2.27-3.37c3.95-5.87,4.44-15.33,1.25-24.12l-7.63-20.96-1.59,.58,7.63,20.96Z"/></g></g><g><polygon class="cls-17" points="107.25 49.77 102.7 51.43 100.48 45.33 95.18 47.26 97.4 53.36 92.84 55.02 94.77 60.32 99.33 58.66 101.55 64.76 106.85 62.83 104.63 56.73 109.19 55.08 107.25 49.77"/><polygon class="cls-5" points="108.73 49.23 104.18 50.89 101.96 44.79 96.65 46.72 98.87 52.82 94.32 54.48 96.25 59.78 100.81 58.12 103.03 64.23 108.33 62.3 106.11 56.19 110.66 54.54 108.73 49.23"/></g></g></g></g></g></g><g><path class="cls-16" d="M148.57,83.45c-.23-.69-.58-1.38-1.12-1.76-.54-.38-1.3-.36-1.66,.21-.28,.44-.25,1.08-.05,1.61,.03,.09,.07,.17,.12,.26,.28,.5-.03,1.13-.6,1.2-1.13,.15-2.27,.02-3.26-.48-.19-.63-.42-1.24-.69-1.82,.27-.66,.76-1.19,1.36-1.59,.3-.2,.7-.04,.8,.31,.01,.04,.02,.09,.04,.13,.1,.3,.25,.61,.5,.78,.37,.24,.82,.05,.98-.31,.17-.36,.12-.84,0-1.27-.18-.65-.49-1.28-.92-1.81-.29-.36-.65-.7-1.06-.81-.41-.11-.86,.07-.95,.49-.07,.32,.09,.7,.32,.98,.04,.04,.08,.09,.13,.13,.28,.24,.23,.68-.1,.85-.65,.34-1.37,.51-2.08,.42-.48-.73-1.02-1.4-1.63-2.02,.07-.93,.45-1.82,1.02-2.59,.3-.41,.91-.39,1.2,.02,.04,.05,.07,.1,.11,.15,.28,.34,.62,.69,1.03,.79,.6,.14,1.1-.33,1.15-.89s-.25-1.16-.61-1.67c-.55-.77-1.27-1.45-2.08-1.95-.56-.34-1.19-.61-1.78-.56-.59,.05-1.1,.5-1.02,1.09,.06,.46,.45,.88,.89,1.13,.07,.04,.15,.08,.23,.11,.48,.18,.63,.79,.28,1.17-.67,.73-1.5,1.28-2.43,1.52-.69-.47-1.42-.88-2.2-1.22-.18-.57-.15-1.18,.02-1.76,.09-.29,.43-.41,.69-.24,.03,.02,.06,.04,.1,.06,.23,.14,.49,.26,.75,.23,.37-.04,.56-.41,.47-.74-.09-.33-.38-.61-.69-.83-.47-.33-1.02-.56-1.59-.68-.39-.08-.8-.1-1.13,.05-.33,.15-.52,.51-.35,.83,.13,.25,.44,.41,.74,.46,.05,0,.1,.01,.15,.01,.31,0,.52,.32,.4,.61-.24,.58-.62,1.09-1.13,1.42-.8-.24-1.63-.4-2.49-.48-.54-.76-.82-1.68-.88-2.64-.03-.51,.44-.88,.93-.75,.06,.02,.12,.03,.18,.04,.43,.08,.92,.13,1.3-.06,.55-.27,.63-.96,.31-1.42-.32-.46-.93-.73-1.54-.89-.91-.24-1.9-.3-2.85-.16-.65,.1-1.3,.3-1.72,.71-.42,.42-.52,1.09-.08,1.49,.34,.31,.91,.39,1.41,.3,.08-.01,.16-.04,.25-.07,.48-.17,.99,.2,.97,.72-.04,.99-.32,1.94-.88,2.73-.98,.1-1.94,.3-2.85,.59-.16-.21-.29-.44-.39-.69-.12-.28,.07-.59,.37-.62,.04,0,.08,0,.11-.01,.26-.04,.55-.12,.72-.3,.26-.27,.16-.67-.12-.87-.28-.19-.68-.22-1.06-.19-.57,.05-1.14,.22-1.65,.5-.35,.19-.68,.44-.83,.76-.15,.32-.07,.73,.27,.86,.26,.11,.6,.03,.86-.12,.04-.03,.08-.06,.13-.09,.24-.2,.61-.09,.7,.21,.09,.27,.14,.55,.16,.83-1.06,.42-2.05,.96-2.96,1.62-.66-.2-1.26-.61-1.75-1.13-.28-.3-.18-.77,.18-.94,.05-.02,.09-.04,.13-.07,.31-.17,.63-.39,.76-.7,.2-.45-.1-.91-.54-1.03-.43-.12-.95,.03-1.4,.25-.69,.32-1.32,.8-1.83,1.37-.35,.39-.65,.85-.69,1.32-.04,.47,.24,.93,.72,.95,.37,.01,.76-.23,1.02-.54,.04-.05,.08-.11,.12-.17,.21-.35,.71-.38,.96-.06,.45,.59,.76,1.26,.85,1.98-.75,.73-1.42,1.54-1.98,2.43-.35-.06-.7-.18-1.03-.35-.32-.16-.38-.57-.13-.82,.03-.03,.06-.06,.09-.1,.2-.23,.4-.51,.41-.8,.03-.43-.36-.71-.74-.68-.39,.03-.76,.31-1.07,.62-.46,.47-.84,1.04-1.08,1.66-.17,.42-.27,.89-.17,1.28,.1,.4,.48,.69,.87,.56,.31-.1,.55-.42,.67-.75,.02-.05,.03-.11,.04-.17,.06-.35,.47-.52,.77-.33,.33,.21,.62,.46,.86,.75-.46,.85-.82,1.76-1.08,2.71-.84,.4-1.8,.52-2.75,.41-.5-.06-.79-.59-.58-1.05,.03-.06,.05-.11,.07-.17,.16-.41,.29-.88,.16-1.29-.18-.59-.83-.79-1.34-.55-.51,.24-.88,.79-1.14,1.37-.4,.86-.62,1.82-.65,2.78-.02,.65,.07,1.33,.4,1.82,.34,.49,.98,.7,1.46,.33,.37-.28,.54-.83,.54-1.34,0-.08-.01-.17-.03-.25-.09-.5,.37-.94,.87-.83,.97,.21,1.86,.66,2.53,1.35-.03,.34-.04,.68-.04,1.03,0,.74,.06,1.47,.18,2.18-.34,.19-.71,.33-1.1,.42-.39,.09-.75-.22-.72-.62,0-.05,0-.1,0-.15,0-.35-.03-.73-.23-1-.29-.39-.83-.36-1.15-.05s-.44,.83-.48,1.33c-.06,.75,.03,1.52,.27,2.24,.16,.49,.41,.97,.79,1.24,.38,.27,.92,.25,1.17-.15,.2-.31,.18-.77,.04-1.14-.02-.06-.05-.12-.09-.18-.2-.35,.02-.8,.42-.85,.43-.06,.87-.05,1.28,.02,.22,.88,.53,1.73,.92,2.53-.62,1.02-2.08,2.19-2.9,2.73-.42,.28-.99,.06-1.12-.43-.02-.06-.03-.12-.05-.18-.14-.42-.35-.86-.7-1.09-.51-.34-1.14-.07-1.38,.44-.24,.51-.16,1.17,0,1.78,.25,.91,.69,1.79,1.29,2.54,.4,.51,.91,.98,1.48,1.13,.57,.16,1.2-.1,1.33-.68,.1-.45-.12-.99-.45-1.37-.05-.06-.12-.12-.18-.18-.39-.33-.32-.96,.14-1.2,.93-.48,2.77-1.18,4-1.17,.47,.61,.98,1.17,1.54,1.69-.13,.39-.33,.75-.58,1.09-.22,.3-.67,.29-.89-.02-.03-.04-.05-.07-.08-.11-.21-.25-.46-.51-.76-.58-.44-.11-.81,.24-.85,.65-.04,.41,.18,.86,.45,1.24,.4,.57,.94,1.07,1.54,1.44,.41,.25,.88,.45,1.31,.41,.44-.04,.81-.37,.75-.81-.05-.34-.33-.65-.66-.84-.05-.03-.11-.06-.17-.08-.36-.13-.46-.59-.21-.86,.3-.32,.64-.6,1.01-.81,.84,.66,1.77,1.21,2.75,1.65,.15,.67,.1,1.38-.1,2.06-.12,.39-.57,.54-.9,.31-.04-.03-.08-.06-.13-.08-.3-.18-.65-.35-.99-.31-.49,.06-.73,.54-.62,.98,.12,.43,.5,.8,.91,1.09,.62,.43,1.34,.74,2.09,.89,.51,.1,1.06,.13,1.48-.07,.43-.2,.68-.68,.46-1.1-.17-.33-.58-.54-.98-.61-.06-.01-.13-.02-.2-.02-.41,0-.69-.42-.53-.8,.28-.68,.71-1.28,1.28-1.71,1.03,.29,2.11,.47,3.22,.5,.08,.25,.12,.52,.14,.79,.02,.31-.27,.53-.56,.46-.04,0-.07-.02-.11-.03-.26-.05-.55-.08-.78,.04-.33,.17-.38,.58-.19,.86,.2,.28,.57,.44,.93,.54,.55,.15,1.15,.18,1.72,.1,.39-.06,.79-.18,1.04-.43,.25-.25,.31-.66,.05-.9-.21-.19-.55-.23-.85-.18-.05,0-.1,.02-.15,.04-.29,.11-.6-.12-.59-.43,.01-.29,.06-.57,.14-.84,.92-.02,1.81-.14,2.67-.33,.98,.63,1.71,1.58,2.18,2.67,.24,.55-.13,1.16-.73,1.22-.07,0-.15,.02-.22,.03-.52,.08-1.07,.23-1.42,.6-.5,.53-.32,1.32,.23,1.7,.55,.38,1.34,.43,2.08,.36,1.12-.1,2.24-.44,3.24-.98,.68-.37,1.33-.86,1.63-1.49,.3-.64,.13-1.42-.52-1.69-.51-.21-1.18-.06-1.69,.24-.08,.05-.17,.11-.25,.18-.47,.39-1.19,.17-1.37-.4-.37-1.17-.44-2.4-.08-3.55,.69-.35,1.35-.76,1.97-1.23,.42,.22,.8,.52,1.14,.87,.28,.3,.18,.77-.18,.94-.05,.02-.09,.04-.13,.07-.31,.17-.63,.39-.76,.7-.2,.45,.1,.91,.54,1.03s.95-.03,1.4-.25c.69-.32,1.32-.8,1.83-1.37,.35-.39,.65-.85,.69-1.32,.04-.47-.24-.93-.72-.95-.37-.01-.76,.23-1.02,.54-.04,.05-.08,.11-.12,.17-.21,.35-.71,.38-.96,.06-.31-.41-.55-.85-.7-1.33,.68-.63,1.3-1.32,1.84-2.07,.93-.09,1.87,.13,2.73,.56,.45,.23,.54,.82,.19,1.18-.04,.04-.09,.09-.13,.14-.29,.33-.57,.73-.59,1.15-.04,.61,.51,1.02,1.07,.98,.56-.05,1.1-.44,1.54-.89,.67-.67,1.21-1.5,1.56-2.39,.24-.61,.39-1.28,.24-1.85-.15-.57-.69-.99-1.25-.81-.44,.14-.79,.6-.96,1.07-.03,.08-.05,.16-.06,.25-.09,.5-.67,.76-1.1,.48-.84-.53-1.52-1.25-1.92-2.13,.37-.82,.67-1.69,.87-2.59,.4-.08,.82-.09,1.23-.04,.37,.04,.59,.43,.43,.77-.02,.04-.04,.08-.05,.13-.12,.3-.21,.65-.12,.95,.13,.43,.61,.58,.99,.41,.38-.18,.65-.59,.85-1.01,.29-.63,.46-1.35,.48-2.05,.01-.48-.05-.99-.3-1.34-.25-.36-.73-.52-1.08-.25-.27,.21-.4,.62-.4,.99,0,.06,0,.12,.02,.19,.06,.37-.28,.69-.64,.61-.43-.1-.84-.25-1.21-.47,.08-.6,.13-1.21,.13-1.83,0-.27-.01-.55-.03-.82,.74-.79,1.73-1.29,2.8-1.55,.55-.13,1.06,.31,1.01,.88,0,.07,0,.14-.01,.21,0,.49,.04,1.03,.32,1.41,.41,.55,1.17,.51,1.62,.06,.44-.44,.62-1.17,.68-1.87,.09-1.05-.04-2.15-.38-3.16Z"/><g><path class="cls-11" d="M126.86,79.1c.08,.46-.29,.93-.8,1.43-.26,.25-.55,.51-.87,.78-.32,.28-.66,.56-1.02,.85-.36,.3-.7,.59-1.02,.85-.32,.27-.63,.51-.92,.72-.58,.41-1.11,.68-1.55,.52-.42-.15-.66-.78-.49-1.69,.08-.46,.28-.97,.59-1.48,.31-.51,.74-1.02,1.27-1.47,.54-.44,1.12-.77,1.68-.98,.56-.21,1.1-.31,1.56-.31,.93,0,1.5,.35,1.58,.79Z"/><path class="cls-11" d="M120.52,92.49c-.34,.11-.77-.15-1.14-.72-.37-.57-.66-1.46-.69-2.46-.02-1.01,.23-1.91,.57-2.49,.35-.59,.77-.87,1.11-.77,.35,.1,.56,.52,.69,1.09,.13,.58,.2,1.31,.21,2.11,.02,.8-.01,1.53-.12,2.11-.11,.58-.3,1.01-.64,1.13Z"/><path class="cls-11" d="M130.51,97.88c.04,.32-.27,.67-.84,.9-.57,.24-1.42,.35-2.33,.2-.91-.15-1.68-.52-2.15-.93-.47-.41-.66-.83-.52-1.12,.14-.3,.56-.42,1.1-.45,.54-.02,1.21,.04,1.94,.16,.73,.12,1.38,.27,1.89,.46,.5,.2,.86,.44,.9,.77Z"/><path class="cls-11" d="M136.78,87.07c.63,.85-.59,2.82-2.73,4.41-2.14,1.59-4.38,2.2-5.01,1.35-.63-.85,.59-2.82,2.73-4.41,2.14-1.59,4.38-2.2,5.01-1.35Z"/><path class="cls-11" d="M127.24,84.61c.38,.17,.56,.69,.6,1.38,.04,.7-.04,1.56-.2,2.5-.17,.94-.39,1.78-.67,2.42-.28,.63-.63,1.07-1.04,1.09-.41,.02-.82-.39-1.08-1.13-.26-.73-.36-1.78-.16-2.91,.2-1.12,.66-2.08,1.15-2.67,.5-.6,1.02-.85,1.4-.69Z"/><path class="cls-11" d="M125.53,94.99c-.09,.16-.35,.21-.7,.11-.35-.1-.77-.37-1.11-.79-.34-.42-.51-.89-.54-1.25-.03-.36,.08-.61,.26-.66,.18-.06,.39,.07,.61,.27,.22,.2,.46,.48,.72,.8,.25,.31,.47,.61,.62,.87,.15,.26,.23,.49,.13,.66Z"/><path class="cls-11" d="M124.52,84.03c.26,.25,0,.94-.48,1.63-.48,.69-1.03,1.18-1.36,1.03-.32-.15-.25-.97,.3-1.76,.54-.79,1.29-1.15,1.54-.9Z"/><path class="cls-11" d="M134.21,81.99c-.13,.34-.57,.51-1.15,.59-.59,.08-1.32,.07-2.12,0-.8-.06-1.52-.16-2.09-.33-.57-.16-.98-.4-1.05-.75-.07-.34,.22-.75,.83-1.06,.6-.31,1.51-.51,2.51-.44,1,.08,1.87,.41,2.42,.81,.55,.4,.79,.84,.66,1.17Z"/><path class="cls-11" d="M133.58,78.46c-.08,.18-.32,.25-.63,.28-.31,.03-.7,0-1.12-.04-.42-.04-.8-.1-1.1-.19-.3-.09-.52-.21-.56-.4-.04-.18,.12-.4,.45-.57,.32-.17,.82-.27,1.36-.21,.54,.06,1,.26,1.28,.48,.29,.23,.4,.47,.32,.65Z"/><path class="cls-11" d="M138.88,85.93c-.32,.03-.63-.25-.95-.64-.31-.4-.64-.92-.99-1.49-.35-.57-.66-1.1-.88-1.56-.21-.46-.32-.86-.14-1.14,.17-.26,.62-.33,1.21-.1,.29,.11,.61,.31,.92,.57,.31,.27,.61,.61,.85,1.01,.24,.4,.41,.82,.51,1.22,.09,.4,.12,.77,.09,1.08-.06,.63-.33,1.01-.64,1.04Z"/><path class="cls-11" d="M137.07,94.32c-.17-.19-.13-.52-.01-.91,.12-.39,.31-.84,.53-1.32,.22-.49,.42-.93,.63-1.28,.21-.34,.43-.59,.69-.6,.25,0,.49,.27,.6,.76,.11,.48,.06,1.18-.24,1.87-.31,.68-.79,1.19-1.23,1.43-.44,.25-.8,.24-.97,.06Z"/><path class="cls-11" d="M135.03,95.91c.14,.12,.14,.39-.02,.72-.16,.32-.49,.69-.95,.98-.46,.28-.94,.41-1.3,.41-.36,0-.6-.12-.65-.3-.05-.19,.09-.4,.32-.61,.23-.22,.55-.44,.91-.66,.36-.22,.71-.41,1-.51,.3-.11,.55-.13,.69,0Z"/><path class="cls-11" d="M135,85.18c.06,.59-1.15,1.19-2.71,1.19-1.55,0-2.77-.58-2.72-1.17,.05-.59,1.26-.97,2.71-.98,1.45,0,2.66,.36,2.72,.96Z"/><path class="cls-11" d="M134.47,93.47c.19,.21,.14,.62-.18,1.08-.32,.46-.93,.94-1.72,1.22-.79,.28-1.57,.28-2.11,.12-.54-.15-.83-.44-.82-.72,.02-.29,.31-.53,.72-.74,.41-.21,.94-.42,1.52-.62,.58-.2,1.12-.37,1.57-.46,.45-.09,.83-.09,1.02,.13Z"/><path class="cls-11" d="M123.25,96.93c-.15,.2-.48,.25-.91,.12-.42-.13-.93-.44-1.37-.9-.44-.46-.73-.99-.83-1.42-.11-.43-.05-.76,.16-.9,.21-.14,.53-.06,.88,.14,.35,.2,.74,.52,1.11,.92,.38,.4,.68,.8,.86,1.16,.18,.36,.24,.68,.1,.88Z"/></g><path class="cls-26" d="M134.92,96.3c.12,.62-.09,1.29-.72,1.92-.62,.63-1.66,1.18-3.04,1.46-.69,.14-1.46,.2-2.3,.17-.83-.05-1.72-.18-2.63-.45-1.82-.53-3.74-1.59-5.35-3.22-1.6-1.65-2.62-3.59-3.11-5.42-.25-.92-.36-1.81-.39-2.64-.01-.83,.06-1.6,.21-2.29,.31-1.38,.88-2.4,1.52-3.01,.64-.61,1.32-.81,1.94-.68,.63,.14,1.16,.57,1.64,1.14,.48,.56,.95,1.26,1.43,1.99,.95,1.47,2.07,3.09,3.38,4.43,1.31,1.34,2.91,2.49,4.36,3.47,.72,.49,1.41,.98,1.96,1.47,.55,.49,.98,1.03,1.1,1.66Z"/></g><g><path class="cls-16" d="M169.58,71.66c.25-.46,.43-.98,.36-1.45-.07-.47-.46-.85-.93-.76-.36,.07-.69,.41-.86,.77-.03,.06-.05,.12-.07,.19-.12,.39-.6,.54-.92,.28-.64-.52-1.13-1.17-1.36-1.94,.24-.41,.44-.83,.61-1.26,.47-.19,1-.19,1.5-.08,.25,.06,.37,.35,.24,.57-.02,.03-.03,.06-.05,.08-.1,.2-.2,.43-.16,.65,.06,.31,.38,.45,.65,.36,.27-.09,.49-.35,.66-.63,.25-.41,.42-.89,.49-1.38,.05-.33,.04-.68-.1-.95-.14-.27-.46-.41-.72-.25-.2,.12-.32,.39-.35,.65,0,.04,0,.09,0,.13,.02,.26-.24,.46-.49,.37-.5-.17-.94-.46-1.25-.88,.14-.61,.22-1.23,.25-1.85,.52-.42,1.17-.67,1.85-.75,.36-.04,.65,.28,.58,.64,0,.04-.02,.09-.02,.13-.04,.31-.05,.66,.1,.93,.22,.38,.71,.41,1.03,.16,.32-.25,.48-.7,.57-1.15,.13-.67,.13-1.38-.01-2.05-.1-.46-.27-.92-.59-1.2-.32-.28-.8-.32-1.07,.01-.21,.26-.24,.67-.15,1.02,.01,.06,.04,.12,.06,.17,.15,.34-.1,.72-.47,.73-.71,.01-1.41-.15-2-.51-.09-.59-.25-1.18-.45-1.75,.21-.37,.54-.66,.93-.86,.2-.1,.43,.02,.46,.24,0,.03,0,.05,.01,.08,.04,.19,.11,.39,.25,.51,.2,.17,.49,.09,.62-.12,.13-.21,.13-.5,.09-.77-.06-.41-.21-.81-.43-1.16-.15-.24-.34-.47-.58-.56-.24-.1-.52-.02-.61,.23-.06,.19,0,.43,.13,.61,.02,.03,.04,.06,.07,.09,.15,.16,.09,.43-.12,.51-.42,.16-.87,.21-1.3,.11-.27-.53-.6-1.05-.98-1.54,.13-.66,.47-1.26,.94-1.76,.25-.27,.68-.21,.85,.11,.02,.04,.04,.08,.07,.12,.17,.27,.39,.54,.67,.64,.41,.15,.81-.14,.89-.54,.08-.4-.08-.85-.3-1.24-.33-.6-.79-1.14-1.33-1.56-.37-.29-.8-.53-1.22-.54-.43-.01-.82,.27-.81,.7,0,.33,.25,.67,.54,.88,.05,.03,.1,.07,.16,.09,.33,.17,.38,.62,.11,.86-.54,.47-1.17,.79-1.86,.89-.54-.47-1.11-.86-1.72-1.19,.03-.19,.09-.37,.16-.55,.09-.2,.34-.26,.51-.11,.02,.02,.04,.04,.06,.05,.15,.12,.33,.23,.52,.23,.27,0,.43-.25,.39-.49-.04-.24-.22-.46-.43-.65-.31-.27-.68-.48-1.08-.61-.27-.09-.56-.14-.81-.06-.24,.08-.41,.32-.32,.57,.07,.19,.28,.33,.49,.39,.03,0,.07,.02,.11,.02,.22,.03,.35,.27,.24,.47-.1,.18-.22,.35-.36,.49-.74-.35-1.52-.59-2.31-.74-.22-.45-.31-.95-.28-1.47,.02-.29,.31-.48,.58-.37,.03,.01,.07,.03,.1,.04,.24,.08,.51,.13,.74,.05,.33-.12,.42-.51,.27-.79-.15-.28-.49-.48-.82-.61-.51-.2-1.07-.29-1.62-.27-.37,.01-.76,.08-1.03,.3-.27,.21-.37,.59-.14,.85,.18,.2,.5,.28,.79,.26,.05,0,.1-.01,.15-.02,.29-.07,.55,.18,.51,.47-.08,.53-.28,1.02-.61,1.42-.75-.03-1.51,.03-2.25,.17-.14-.22-.25-.46-.33-.71-.07-.24,.11-.48,.36-.47,.03,0,.06,0,.09,0,.22,0,.46-.04,.62-.18,.23-.2,.19-.54-.02-.72-.21-.19-.54-.24-.85-.25-.47-.01-.96,.08-1.4,.26-.3,.12-.6,.3-.75,.55-.16,.25-.12,.59,.14,.73,.2,.11,.49,.08,.72-.02,.04-.02,.07-.04,.11-.06,.21-.14,.5-.02,.55,.23,.05,.27,.07,.55,.04,.82-.67,.18-1.32,.44-1.95,.77-.63-.24-1.16-.68-1.57-1.23-.22-.29-.09-.7,.26-.82,.04-.01,.08-.03,.13-.05,.29-.12,.6-.29,.75-.55,.22-.38,0-.82-.38-.97-.38-.15-.85-.07-1.28,.08-.64,.22-1.26,.58-1.77,1.04-.35,.31-.66,.69-.75,1.11-.09,.42,.12,.86,.55,.92,.33,.05,.7-.13,.96-.38,.04-.04,.08-.09,.12-.14,.22-.3,.67-.27,.86,.04,.37,.61,.58,1.29,.55,1.99-.19,.15-.38,.31-.56,.49-.39,.37-.73,.76-1.05,1.17-.27-.09-.52-.21-.76-.37-.24-.16-.25-.5-.03-.68,.03-.02,.05-.05,.08-.07,.18-.17,.37-.38,.41-.61,.06-.34-.22-.61-.54-.62s-.65,.18-.93,.41c-.42,.34-.78,.77-1.03,1.25-.17,.33-.3,.7-.26,1.03,.05,.33,.32,.6,.66,.54,.26-.05,.49-.29,.61-.54,.02-.04,.04-.09,.05-.14,.08-.28,.43-.38,.65-.2,.24,.2,.46,.42,.63,.68-.35,.55-.64,1.13-.86,1.73-.84,.18-2.17,0-2.86-.16-.36-.08-.52-.48-.33-.8,.02-.04,.05-.08,.07-.12,.15-.28,.28-.61,.22-.91-.08-.43-.53-.63-.91-.5-.38,.13-.69,.49-.93,.88-.35,.58-.59,1.25-.69,1.93-.07,.46-.06,.96,.14,1.33,.2,.37,.65,.58,1.01,.36,.28-.17,.45-.55,.49-.91,0-.06,0-.12,0-.18-.02-.37,.34-.64,.69-.52,.71,.24,1.99,.86,2.59,1.51-.09,.54-.13,1.09-.12,1.64-.27,.12-.56,.2-.86,.23-.27,.03-.48-.2-.43-.47,0-.03,.01-.07,.02-.1,.03-.23,.04-.49-.08-.69-.16-.28-.53-.3-.76-.12-.23,.19-.36,.52-.42,.85-.1,.49-.1,1.02,0,1.51,.07,.34,.2,.68,.43,.89,.23,.21,.59,.24,.79,0,.15-.19,.18-.5,.11-.76-.01-.04-.03-.09-.04-.13-.11-.25,.08-.53,.35-.54,.32,0,.63,.03,.92,.13,.08,.76,.24,1.52,.5,2.25-.27,.41-.67,.74-1.13,.97-.26,.13-.56-.03-.61-.32,0-.04-.01-.07-.02-.11-.05-.25-.14-.51-.33-.67-.27-.23-.65-.11-.81,.16-.17,.27-.17,.66-.11,1.01,.08,.54,.28,1.07,.57,1.53,.2,.32,.45,.62,.77,.74,.32,.13,.69,.02,.8-.3,.09-.25,0-.57-.17-.81-.03-.04-.06-.08-.09-.11-.2-.21-.12-.57,.15-.67,.49-.19,1.02-.27,1.53-.18,.36,.68,.8,1.33,1.33,1.93-.09,.16-.21,.32-.34,.46-.15,.16-.41,.13-.52-.07-.01-.02-.03-.05-.04-.07-.1-.16-.23-.33-.41-.39-.25-.09-.49,.09-.54,.33-.05,.24,.05,.51,.18,.75,.2,.36,.48,.69,.8,.95,.22,.18,.48,.32,.74,.33,.26,0,.5-.16,.49-.42,0-.2-.15-.4-.33-.53-.03-.02-.06-.04-.1-.06-.2-.1-.23-.37-.06-.52,.16-.14,.33-.25,.51-.34,.47,.47,.97,.88,1.5,1.23,.16,.82,.02,1.67-.31,2.46-.17,.4-.67,.51-1,.22-.04-.04-.08-.07-.12-.1-.3-.23-.65-.45-1.01-.45-.52,0-.85,.49-.77,.96,.07,.47,.44,.91,.84,1.27,.61,.53,1.34,.95,2.11,1.2,.53,.17,1.11,.27,1.59,.11,.48-.16,.81-.64,.62-1.11-.14-.37-.55-.64-.96-.76-.07-.02-.14-.03-.21-.04-.43-.05-.68-.53-.47-.91,.43-.77,1.04-1.42,1.81-1.8,.53,.19,1.07,.33,1.61,.42,.09,.33,.13,.68,.11,1.03-.02,.29-.31,.48-.58,.37-.03-.01-.07-.03-.1-.04-.24-.08-.51-.13-.74-.05-.33,.12-.42,.51-.27,.79,.15,.28,.49,.48,.82,.61,.51,.2,1.07,.29,1.62,.27,.37-.01,.76-.08,1.03-.3,.27-.21,.37-.59,.14-.85-.18-.2-.5-.28-.79-.26-.05,0-.1,.01-.14,.02-.29,.07-.55-.18-.51-.47,.06-.36,.17-.71,.34-1.02,.66,.05,1.33,.02,1.99-.07,.51,.44,.86,1.04,1.06,1.7,.11,.35-.16,.69-.52,.68-.05,0-.09,0-.13,0-.32,.01-.66,.06-.9,.26-.34,.28-.28,.77,.02,1.04,.3,.27,.77,.35,1.23,.36,.68,.02,1.38-.11,2.02-.37,.43-.17,.86-.43,1.08-.79,.22-.36,.18-.85-.2-1.05-.29-.16-.7-.12-1.04,.03-.05,.02-.11,.05-.16,.09-.31,.2-.73,.02-.8-.34-.14-.7-.1-1.41,.16-2.05,.61-.21,1.21-.49,1.78-.83,.24,.17,.45,.38,.63,.62,.16,.22,.06,.52-.19,.61-.03,.01-.06,.02-.09,.03-.22,.09-.44,.21-.56,.41-.16,.28,0,.61,.28,.72,.28,.11,.63,.05,.94-.06,.48-.16,.93-.43,1.31-.76,.26-.23,.49-.51,.55-.82s-.09-.63-.4-.68c-.24-.04-.52,.1-.71,.28-.03,.03-.06,.07-.09,.1-.16,.22-.5,.2-.64-.03-.16-.27-.28-.56-.35-.86,.35-.25,.69-.53,1.02-.84,.14-.14,.28-.28,.41-.42,.78,0,1.53,.26,2.19,.69,.34,.22,.36,.71,.04,.96-.04,.03-.08,.06-.11,.1-.26,.24-.52,.53-.58,.87-.08,.49,.32,.86,.77,.88s.92-.26,1.31-.57c.59-.48,1.1-1.09,1.46-1.76Z"/><g><path class="cls-11" d="M161.11,58.19c-.2,.27-.63,.31-1.14,.29-.26-.01-.54-.03-.84-.07-.3-.03-.62-.07-.95-.11-.33-.04-.65-.07-.95-.11-.3-.03-.58-.08-.83-.13-.5-.1-.91-.24-1.04-.55-.13-.3,.08-.73,.64-1.09,.28-.18,.64-.33,1.06-.43,.42-.09,.9-.12,1.4-.07,.49,.06,.95,.2,1.34,.39,.39,.19,.71,.42,.93,.66,.46,.48,.56,.96,.37,1.21Z"/><path class="cls-11" d="M150.99,61.52c-.22-.12-.3-.47-.19-.95,.11-.47,.43-1.07,.94-1.58,.51-.51,1.1-.83,1.58-.93,.48-.11,.83-.03,.95,.19,.12,.23,0,.55-.23,.9-.24,.35-.58,.75-.99,1.15-.41,.41-.8,.75-1.16,.99-.35,.23-.68,.35-.9,.22Z"/><path class="cls-11" d="M153.12,69.39c-.15,.18-.48,.19-.89,0-.41-.18-.88-.57-1.26-1.11-.37-.55-.56-1.13-.58-1.58-.02-.45,.11-.75,.33-.83,.23-.07,.5,.08,.78,.35,.28,.27,.58,.65,.88,1.09,.3,.44,.54,.85,.69,1.21,.15,.36,.2,.67,.05,.85Z"/><path class="cls-11" d="M161.86,67.31c-.13,.75-1.76,1.09-3.65,.76-1.89-.33-3.31-1.19-3.18-1.94,.13-.75,1.76-1.09,3.65-.76,1.89,.33,3.31,1.19,3.18,1.94Z"/><path class="cls-11" d="M158.42,61.13c.1,.28-.08,.63-.42,1-.34,.37-.83,.76-1.4,1.13-.57,.38-1.12,.68-1.59,.85-.47,.17-.87,.2-1.08,0-.21-.2-.2-.62,.05-1.12,.25-.5,.75-1.07,1.44-1.52,.68-.45,1.41-.69,1.96-.72,.56-.04,.95,.11,1.05,.39Z"/><path class="cls-11" d="M152.17,65.37c-.13,.03-.28-.08-.4-.31-.12-.23-.19-.59-.14-.97,.05-.38,.21-.71,.39-.9,.18-.19,.36-.26,.47-.19,.12,.07,.16,.24,.16,.45,0,.22-.02,.48-.06,.77-.04,.29-.08,.55-.15,.76-.06,.21-.15,.36-.28,.39Z"/><path class="cls-11" d="M157.37,59.42c0,.26-.49,.46-1.09,.56-.6,.09-1.13,.05-1.21-.2-.08-.24,.39-.61,1.06-.72,.68-.11,1.24,.1,1.23,.35Z"/><path class="cls-11" d="M163.24,63.46c-.24,.1-.55-.05-.88-.31-.33-.27-.69-.65-1.05-1.1-.36-.44-.67-.87-.87-1.25-.19-.38-.28-.71-.13-.92,.14-.21,.5-.25,.96-.09,.46,.16,1.01,.53,1.47,1.09,.46,.56,.71,1.18,.78,1.66,.07,.49-.05,.83-.28,.93Z"/><path class="cls-11" d="M164.76,61.38c-.13,.05-.29-.04-.46-.19-.17-.15-.35-.36-.53-.6-.18-.24-.34-.47-.44-.67-.1-.2-.14-.38-.07-.49,.08-.11,.27-.14,.52-.05,.25,.09,.54,.3,.78,.6,.24,.31,.36,.65,.38,.91,.02,.26-.05,.44-.18,.49Z"/><path class="cls-11" d="M163.49,67.84c-.18-.15-.18-.45-.13-.81,.05-.36,.16-.79,.29-1.25,.12-.47,.24-.89,.38-1.23,.14-.34,.29-.59,.52-.64,.22-.04,.48,.16,.65,.58,.09,.21,.14,.47,.16,.76,.01,.29-.02,.62-.1,.94-.09,.33-.22,.62-.38,.87-.16,.25-.34,.44-.52,.58-.36,.28-.69,.33-.86,.18Z"/><path class="cls-11" d="M158.22,71.05c.02-.18,.21-.33,.47-.46,.26-.13,.59-.25,.95-.38,.36-.13,.69-.24,.98-.3,.28-.06,.52-.07,.65,.06,.13,.13,.11,.39-.1,.69-.2,.3-.59,.62-1.09,.8-.51,.18-1.01,.17-1.35,.07-.35-.11-.52-.3-.51-.48Z"/><path class="cls-11" d="M156.39,70.77c0,.13-.14,.27-.39,.34-.25,.08-.61,.09-.98-.01-.37-.1-.68-.29-.85-.47-.18-.19-.24-.37-.17-.49,.07-.12,.25-.15,.48-.14,.23,.01,.5,.07,.8,.15,.3,.08,.56,.17,.76,.27,.2,.1,.34,.22,.35,.36Z"/><path class="cls-11" d="M161.96,65.45c-.28,.32-1.19-.01-1.96-.82-.77-.81-1.07-1.73-.74-1.99,.33-.27,1.13,.18,1.85,.93,.72,.75,1.13,1.57,.85,1.89Z"/><path class="cls-11" d="M157.38,69.27c-.02,.2-.25,.38-.65,.44-.4,.06-.95-.02-1.49-.29-.53-.27-.92-.68-1.11-1.04-.19-.36-.18-.65-.03-.78,.16-.13,.43-.1,.74,0,.31,.11,.68,.28,1.07,.48,.39,.2,.75,.4,1.02,.59,.27,.19,.46,.39,.44,.6Z"/><path class="cls-11" d="M150.02,65.14c-.18,.03-.37-.13-.51-.41-.14-.28-.23-.7-.21-1.16,.02-.46,.15-.87,.33-1.14,.17-.27,.37-.4,.55-.36,.18,.04,.29,.25,.36,.53,.07,.28,.09,.64,.07,1.03-.02,.39-.08,.75-.18,1.02-.1,.27-.23,.46-.41,.49Z"/></g><g class="cls-27"><path class="cls-25" d="M161.42,69.84c.09,.45-.07,.93-.52,1.38-.45,.45-1.19,.85-2.19,1.05-.5,.1-1.05,.14-1.65,.12-.6-.04-1.24-.13-1.89-.32-1.31-.38-2.69-1.14-3.85-2.32-1.15-1.18-1.88-2.58-2.24-3.89-.18-.66-.26-1.3-.28-1.9,0-.6,.04-1.15,.15-1.65,.22-.99,.63-1.73,1.1-2.16,.46-.44,.95-.58,1.39-.49,.45,.1,.83,.41,1.18,.82,.34,.41,.68,.91,1.02,1.43,.68,1.06,1.49,2.22,2.43,3.18,.94,.96,2.09,1.79,3.13,2.5,.52,.36,1.01,.7,1.41,1.05,.4,.36,.7,.74,.79,1.19Z"/></g></g><g><path class="cls-16" d="M128.42,29.59c-.66-.02-1.34,.07-1.83,.41-.49,.34-.7,.99-.34,1.47,.28,.37,.84,.54,1.35,.54,.08,0,.17-.01,.26-.03,.51-.09,.95,.38,.83,.88-.22,1-.69,1.93-1.42,2.61-.59-.04-1.18-.03-1.76,.02-.47-.43-.78-1.01-.93-1.65-.08-.32,.18-.61,.51-.58,.04,0,.08,0,.12,0,.28,0,.59-.02,.81-.18,.32-.24,.29-.68,.04-.93-.26-.26-.67-.36-1.08-.39-.61-.05-1.24,.02-1.82,.22-.4,.13-.79,.33-1.01,.64-.22,.31-.21,.75,.12,.95,.25,.16,.62,.14,.93,.03,.05-.02,.1-.04,.15-.07,.29-.16,.65,.02,.69,.35,.09,.66,0,1.32-.29,1.89-.76,.18-1.5,.43-2.21,.75-.77-.35-1.4-.94-1.88-1.67-.25-.38-.05-.89,.39-1.01,.05-.01,.11-.03,.16-.05,.38-.13,.77-.31,.98-.63,.31-.46,.06-1.03-.4-1.25-.46-.21-1.06-.15-1.61,0-.82,.22-1.62,.62-2.29,1.16-.46,.36-.88,.82-1.02,1.33-.14,.51,.09,1.08,.61,1.2,.41,.09,.89-.11,1.24-.4,.06-.05,.11-.1,.16-.16,.3-.35,.87-.29,1.08,.12,.41,.79,.62,1.66,.54,2.53-.61,.44-1.19,.93-1.71,1.48-.54-.02-1.05-.24-1.49-.57-.22-.17-.21-.49,.01-.65,.03-.02,.06-.04,.08-.06,.19-.15,.38-.34,.43-.56,.08-.33-.18-.6-.48-.63-.31-.03-.63,.13-.91,.33-.42,.3-.79,.69-1.07,1.13-.19,.3-.33,.65-.31,.97s.27,.6,.6,.56c.25-.03,.48-.25,.62-.49,.02-.04,.04-.08,.06-.13,.1-.26,.43-.34,.64-.15,.42,.38,.73,.86,.85,1.4-.45,.61-.85,1.26-1.18,1.96-.81,.23-1.68,.18-2.51-.07-.44-.13-.61-.65-.35-1.02,.03-.05,.06-.09,.09-.14,.2-.34,.39-.74,.35-1.12-.06-.55-.61-.83-1.1-.7-.49,.13-.9,.57-1.23,1.03-.49,.7-.84,1.52-1.01,2.36-.12,.58-.15,1.19,.07,1.68,.22,.48,.76,.77,1.24,.53,.37-.19,.61-.65,.69-1.1,.01-.07,.02-.15,.02-.23,0-.46,.48-.78,.91-.6,.82,.34,1.55,.87,2.04,1.59-.22,.86-.35,1.73-.38,2.59-.23,.07-.46,.11-.71,.12-.28,.02-.48-.24-.41-.51,0-.03,.02-.07,.02-.1,.05-.24,.07-.5-.03-.71-.15-.3-.52-.35-.77-.17-.25,.18-.4,.51-.49,.84-.13,.5-.16,1.04-.09,1.55,.05,.35,.16,.71,.39,.94,.23,.23,.59,.28,.81,.04,.17-.19,.21-.5,.16-.77,0-.04-.02-.09-.04-.13-.09-.26,.11-.54,.39-.53,.26,.01,.51,.05,.75,.13,.02,1.03,.18,2.04,.46,3.01-.38,.5-.9,.88-1.49,1.13-.34,.14-.71-.08-.74-.45,0-.05,0-.09-.02-.13-.05-.31-.14-.65-.36-.86-.32-.3-.8-.19-1.04,.14-.23,.33-.26,.81-.22,1.27,.06,.68,.27,1.36,.59,1.97,.22,.41,.52,.81,.91,.99,.39,.18,.87,.08,1.03-.32,.13-.31,.04-.72-.15-1.03-.03-.05-.07-.1-.11-.15-.24-.28-.11-.72,.25-.83,.64-.2,1.3-.25,1.94-.11,.38,.86,.87,1.68,1.45,2.43-.16,.28-.37,.54-.61,.77-.23,.22-.6,.14-.74-.14-.02-.04-.03-.07-.05-.1-.13-.24-.31-.49-.55-.6-.35-.15-.71,.08-.8,.42-.09,.34,.03,.74,.19,1.1,.25,.54,.62,1.03,1.07,1.43,.31,.27,.67,.51,1.03,.54s.73-.19,.75-.56c.01-.29-.18-.59-.43-.8-.04-.03-.08-.06-.13-.09-.28-.16-.3-.56-.05-.75,.28-.21,.58-.38,.9-.5,.58,.65,1.24,1.24,1.96,1.76,.08,.84-.12,1.68-.5,2.46-.21,.41-.74,.49-1.07,.17-.04-.04-.08-.08-.12-.11-.3-.26-.66-.51-1.04-.54-.55-.03-.92,.46-.88,.97,.04,.5,.4,.99,.8,1.39,.6,.6,1.35,1.09,2.15,1.41,.55,.22,1.15,.36,1.67,.22,.52-.14,.9-.62,.73-1.13-.13-.4-.54-.71-.97-.87-.07-.03-.15-.04-.22-.06-.45-.08-.68-.61-.43-1,.48-.75,1.13-1.37,1.92-1.73,.28,.13,.56,.25,.86,.35,.63,.23,1.26,.4,1.9,.52,.05,.35,.06,.71,.02,1.06-.04,.36-.42,.57-.75,.41-.04-.02-.08-.04-.12-.05-.29-.11-.63-.2-.92-.12-.42,.12-.56,.59-.39,.96,.17,.36,.56,.63,.97,.82,.61,.28,1.3,.45,1.98,.46,.46,.01,.95-.05,1.3-.29,.35-.24,.5-.7,.24-1.04-.2-.26-.59-.39-.95-.38-.06,0-.12,0-.18,.02-.36,.06-.67-.27-.59-.62,.09-.38,.22-.75,.41-1.08,.81,.08,1.63,.08,2.42,0,.67,.85,1.21,2.43,1.41,3.3,.11,.45-.25,.85-.71,.82-.06,0-.11,0-.17,0-.4,0-.83,.03-1.14,.26-.44,.33-.41,.95-.05,1.31,.36,.36,.94,.5,1.51,.55,.85,.07,1.73-.03,2.55-.3,.56-.18,1.11-.47,1.42-.9,.31-.44,.29-1.05-.17-1.34-.35-.22-.87-.2-1.3-.04-.07,.03-.14,.06-.21,.1-.4,.23-.91-.03-.97-.48-.12-.93-.15-2.71,.25-3.75,.66-.21,1.3-.47,1.91-.78,.29,.23,.53,.51,.74,.83,.19,.28,.04,.66-.29,.75-.04,.01-.08,.02-.12,.04-.28,.1-.57,.23-.73,.47-.23,.34-.05,.76,.29,.92,.34,.16,.78,.11,1.19,0,.61-.16,1.2-.46,1.7-.86,.34-.27,.65-.6,.76-.99,.1-.38-.06-.8-.45-.89-.3-.07-.66,.08-.91,.3-.04,.04-.08,.08-.12,.12-.22,.26-.64,.21-.8-.09-.18-.35-.31-.73-.37-1.11,.82-.51,1.57-1.12,2.25-1.82,.62,.08,1.2,.34,1.72,.72,.29,.22,.28,.65-.02,.86-.04,.03-.07,.05-.11,.08-.25,.2-.49,.44-.57,.74-.1,.43,.23,.79,.64,.82,.4,.03,.83-.18,1.2-.44,.56-.39,1.04-.91,1.4-1.49,.25-.4,.44-.85,.4-1.28-.04-.42-.36-.79-.79-.73-.33,.04-.64,.32-.82,.64-.03,.05-.05,.11-.08,.17-.13,.35-.57,.45-.84,.2-.49-.45-.87-1-1.06-1.61,.57-.78,1.05-1.64,1.42-2.57,.24,.01,.48,.06,.71,.13,.27,.08,.37,.39,.21,.62-.02,.03-.04,.06-.06,.09-.12,.21-.24,.45-.21,.68,.04,.33,.37,.5,.67,.42,.3-.08,.55-.34,.75-.63,.3-.42,.51-.92,.61-1.43,.07-.35,.09-.72-.04-1.02-.14-.29-.46-.47-.75-.32-.22,.12-.37,.4-.42,.67,0,.04-.01,.09-.01,.14,0,.28-.29,.47-.55,.36-.24-.1-.46-.23-.67-.38,.26-.78,.44-1.58,.54-2.37,.83-.64,1.86-.96,2.94-1.02,.54-.03,.94,.47,.81,1-.02,.06-.03,.13-.04,.19-.09,.46-.14,.98,.07,1.39,.29,.59,1.02,.68,1.51,.33,.49-.34,.78-1,.95-1.65,.26-.98,.32-2.03,.17-3.04-.1-.69-.32-1.39-.76-1.84-.45-.45-1.17-.55-1.6-.08-.33,.37-.41,.98-.32,1.51,.02,.09,.04,.17,.07,.26,.19,.52-.22,1.06-.77,1.03-1.11-.05-2.17-.37-3.03-1.03-.09-.7-.23-1.38-.43-2.05,.32-.29,.69-.52,1.09-.69,.34-.14,.71,.08,.74,.45,0,.05,0,.09,.02,.13,.05,.31,.14,.65,.36,.86,.32,.3,.8,.19,1.04-.14,.23-.33,.26-.81,.22-1.27-.06-.68-.27-1.36-.59-1.97-.22-.41-.52-.81-.91-.99-.39-.18-.87-.08-1.03,.32-.13,.31-.04,.72,.15,1.03,.03,.05,.07,.1,.11,.15,.24,.28,.11,.72-.25,.83-.44,.14-.89,.2-1.34,.19-.32-.77-.72-1.51-1.19-2.2,.21-.82,.68-1.54,1.31-2.14,.33-.31,.87-.21,1.06,.21,.02,.05,.05,.1,.08,.15,.19,.35,.44,.71,.79,.86,.51,.22,1.03-.12,1.16-.61,.13-.49-.04-1.07-.28-1.58-.36-.77-.9-1.49-1.54-2.06-.44-.39-.96-.73-1.49-.78-.53-.05-1.05,.27-1.07,.81-.02,.42,.26,.86,.61,1.15,.06,.05,.12,.09,.19,.13,.4,.23,.43,.8,.07,1.08-.71,.54-1.53,.9-2.4,.97-.58-.57-1.23-1.09-1.93-1.54,.06-.36,.18-.72,.35-1.06,.15-.3,.55-.36,.79-.12,.03,.03,.06,.06,.09,.08,.22,.19,.49,.38,.77,.4,.41,.02,.68-.34,.65-.71-.03-.37-.3-.73-.59-1.03-.45-.44-1-.81-1.59-1.04-.4-.16-.85-.26-1.23-.16-.38,.1-.66,.46-.54,.83,.09,.29,.4,.53,.71,.64,.05,.02,.11,.03,.16,.04,.34,.06,.5,.45,.32,.74-.21,.33-.47,.63-.77,.88-.48-.25-.98-.48-1.51-.67-.23-.08-.47-.16-.7-.23-.44-.87-.56-1.86-.45-2.85,.06-.51,.59-.8,1.06-.58,.06,.03,.12,.05,.17,.07,.41,.16,.89,.29,1.3,.17,.59-.18,.79-.84,.56-1.35-.24-.51-.8-.89-1.38-1.15-.87-.4-1.83-.63-2.8-.66Z"/><g><path class="cls-11" d="M118.02,46.63c.41,.08,.7,.53,.96,1.12,.13,.29,.26,.62,.39,.98,.13,.35,.27,.73,.41,1.13,.15,.4,.28,.77,.4,1.13,.13,.35,.23,.69,.32,1,.17,.62,.24,1.15-.04,1.47-.26,.31-.86,.32-1.59-.11-.36-.21-.73-.54-1.07-.96-.34-.42-.64-.94-.85-1.53-.21-.59-.3-1.18-.31-1.72,0-.54,.08-1.03,.22-1.42,.29-.79,.76-1.17,1.16-1.09Z"/><path class="cls-11" d="M127.4,56.14c-.01,.32-.36,.61-.96,.74-.6,.14-1.44,.11-2.3-.18-.86-.29-1.54-.78-1.93-1.25-.39-.47-.5-.92-.31-1.18,.19-.26,.61-.31,1.14-.25,.53,.07,1.17,.24,1.85,.47,.68,.23,1.29,.48,1.76,.75,.46,.27,.77,.57,.76,.89Z"/><path class="cls-11" d="M135.05,49.35c.28,.06,.48,.43,.5,.99,.02,.56-.14,1.31-.55,2.04-.41,.72-.96,1.26-1.45,1.53-.49,.28-.91,.3-1.11,.09-.21-.21-.18-.61-.04-1.07,.15-.47,.41-1.02,.73-1.59,.32-.58,.65-1.09,.98-1.46,.32-.37,.64-.59,.93-.53Z"/><path class="cls-11" d="M127.84,40.69c.91-.27,2.21,1.37,2.89,3.67s.51,4.39-.4,4.66c-.91,.27-2.21-1.37-2.89-3.67-.69-2.3-.51-4.39,.4-4.66Z"/><path class="cls-11" d="M122.81,48.01c.26-.27,.76-.26,1.36-.08,.6,.18,1.31,.51,2.06,.95,.74,.43,1.39,.88,1.84,1.32,.45,.43,.71,.86,.6,1.22-.11,.35-.58,.57-1.29,.56-.7,0-1.62-.25-2.51-.76-.89-.52-1.56-1.2-1.91-1.8-.35-.61-.4-1.13-.15-1.4Z"/><path class="cls-11" d="M131.07,52.66c.11,.13,.07,.36-.12,.63-.19,.26-.55,.54-1.02,.69-.46,.16-.92,.16-1.23,.07-.32-.09-.49-.26-.48-.42,0-.17,.18-.31,.42-.44,.24-.13,.55-.24,.9-.36,.34-.12,.66-.21,.93-.26,.27-.05,.49-.04,.6,.09Z"/><path class="cls-11" d="M121.48,50.14c.29-.14,.8,.3,1.24,.91,.44,.62,.68,1.24,.45,1.47-.23,.22-.9-.09-1.4-.8-.5-.7-.58-1.44-.29-1.58Z"/><path class="cls-11" d="M122.74,41.3c.25,.21,.25,.64,.14,1.16-.12,.52-.35,1.14-.65,1.8-.3,.66-.61,1.24-.92,1.67-.31,.43-.64,.71-.96,.66-.31-.04-.56-.42-.64-1.03-.08-.61,.03-1.44,.41-2.26,.37-.82,.92-1.46,1.43-1.8,.51-.34,.96-.41,1.2-.2Z"/><path class="cls-11" d="M119.56,40.74c.12,.12,.11,.35,.04,.62-.08,.27-.21,.59-.38,.93-.17,.34-.34,.65-.5,.87-.17,.22-.34,.37-.51,.35-.17-.02-.3-.22-.34-.55-.04-.33,.03-.77,.24-1.21,.21-.44,.53-.77,.81-.94,.28-.17,.52-.19,.65-.07Z"/><path class="cls-11" d="M127.52,38.56c-.07,.28-.41,.46-.84,.6-.44,.14-.98,.26-1.57,.38-.59,.12-1.13,.22-1.59,.26-.45,.04-.83,0-1.01-.23-.17-.22-.09-.63,.29-1.06,.19-.21,.45-.42,.77-.6,.32-.18,.7-.32,1.12-.41,.42-.08,.83-.1,1.19-.06,.37,.04,.69,.13,.95,.26,.52,.25,.75,.59,.68,.86Z"/><path class="cls-11" d="M134.07,42.69c-.22,.08-.48-.05-.77-.27-.29-.22-.61-.52-.96-.86-.35-.33-.66-.65-.89-.93-.23-.28-.37-.55-.29-.77,.07-.21,.38-.34,.83-.28,.45,.06,1.02,.31,1.51,.78,.48,.47,.76,1.04,.83,1.48,.07,.45-.04,.76-.25,.84Z"/><path class="cls-11" d="M134.79,44.9c.15-.08,.38,0,.6,.24,.22,.24,.44,.63,.53,1.1,.1,.47,.06,.92-.06,1.22-.11,.31-.29,.47-.46,.46-.17-.02-.31-.2-.42-.46-.11-.26-.2-.6-.28-.98-.08-.38-.13-.72-.13-1.01,0-.28,.05-.5,.21-.59Z"/><path class="cls-11" d="M125.69,41.61c.52,.13,.65,1.34,.17,2.66-.47,1.32-1.35,2.17-1.83,1.94-.49-.23-.44-1.37,0-2.6,.44-1.23,1.13-2.14,1.65-2.01Z"/><path class="cls-11" d="M132.54,44.63c.24-.1,.57,.07,.85,.49,.29,.41,.51,1.08,.5,1.84-.01,.75-.25,1.42-.55,1.82-.3,.41-.63,.57-.87,.47-.24-.1-.35-.43-.41-.84-.05-.41-.06-.92-.05-1.48,0-.55,.03-1.06,.09-1.47,.07-.41,.18-.73,.43-.83Z"/><path class="cls-11" d="M132.01,55.2c.13,.19,.06,.48-.18,.8-.24,.32-.66,.65-1.19,.88-.53,.23-1.06,.31-1.46,.27-.4-.04-.66-.2-.71-.42-.05-.22,.11-.47,.39-.7,.28-.23,.67-.46,1.12-.66,.45-.2,.89-.33,1.25-.37,.36-.04,.65,0,.78,.19Z"/></g><g class="cls-27"><path class="cls-25" d="M131.66,54.34c.11,.56-.08,1.17-.65,1.73-.56,.57-1.49,1.07-2.74,1.32-.62,.13-1.32,.18-2.07,.15-.75-.04-1.55-.16-2.37-.4-1.64-.47-3.37-1.43-4.83-2.91-1.44-1.48-2.36-3.23-2.8-4.89-.23-.83-.33-1.63-.36-2.38-.01-.75,.05-1.45,.19-2.07,.28-1.24,.79-2.17,1.37-2.71,.58-.55,1.19-.73,1.75-.61,.57,.12,1.04,.52,1.48,1.02,.43,.51,.85,1.14,1.29,1.8,.86,1.33,1.87,2.79,3.05,4,1.18,1.21,2.62,2.25,3.93,3.13,.65,.45,1.27,.88,1.77,1.32,.5,.45,.88,.93,.99,1.5Z"/></g></g><g><path class="cls-16" d="M164.11,19.13c-.16-.49-.41-.98-.8-1.25-.39-.27-.93-.25-1.18,.15-.2,.31-.18,.77-.04,1.15,.02,.06,.05,.12,.09,.18,.2,.35-.02,.81-.43,.86-.81,.11-1.62,.01-2.32-.35-.13-.45-.3-.88-.49-1.3,.19-.47,.54-.85,.97-1.13,.22-.14,.5-.03,.57,.22,0,.03,.02,.06,.03,.09,.07,.21,.18,.44,.36,.56,.26,.17,.58,.03,.7-.22,.12-.26,.08-.6,0-.91-.13-.46-.35-.91-.65-1.29-.21-.26-.46-.5-.75-.58-.29-.08-.61,.05-.68,.35-.05,.23,.06,.5,.23,.7,.03,.03,.06,.06,.09,.09,.2,.17,.16,.49-.07,.61-.46,.24-.98,.36-1.48,.3-.34-.52-.73-1-1.16-1.44,.05-.67,.32-1.3,.73-1.85,.22-.29,.65-.28,.86,.01,.03,.04,.05,.07,.08,.11,.2,.24,.44,.49,.74,.56,.43,.1,.78-.23,.82-.63,.03-.4-.18-.83-.44-1.19-.39-.55-.9-1.03-1.48-1.39-.4-.24-.85-.43-1.27-.4-.42,.04-.78,.36-.72,.78,.04,.33,.32,.63,.63,.81,.05,.03,.11,.05,.17,.08,.34,.13,.45,.57,.2,.83-.48,.52-1.07,.91-1.73,1.08-.49-.34-1.02-.63-1.57-.87-.13-.41-.11-.84,.02-1.26,.06-.21,.31-.29,.49-.17,.02,.02,.04,.03,.07,.04,.16,.1,.35,.19,.54,.17,.26-.03,.4-.29,.33-.53-.06-.23-.27-.43-.5-.59-.34-.23-.73-.4-1.13-.48-.28-.06-.57-.07-.8,.04-.23,.11-.37,.37-.25,.59,.09,.18,.31,.29,.53,.33,.04,0,.07,0,.11,0,.22,0,.37,.23,.29,.43-.17,.41-.44,.77-.81,1.01-.57-.17-1.16-.29-1.78-.35-.39-.54-.59-1.2-.63-1.88-.02-.36,.31-.63,.66-.54,.04,.01,.09,.02,.13,.03,.31,.06,.65,.09,.92-.04,.39-.2,.45-.68,.22-1.01-.23-.33-.67-.52-1.1-.63-.65-.17-1.36-.21-2.03-.11-.46,.07-.93,.21-1.23,.51-.3,.3-.37,.78-.05,1.06,.24,.22,.65,.28,1.01,.21,.06-.01,.12-.03,.18-.05,.34-.12,.71,.15,.69,.51-.03,.71-.23,1.39-.63,1.94-.7,.07-1.38,.21-2.03,.42-.11-.15-.21-.32-.28-.49-.09-.2,.05-.42,.27-.44,.03,0,.05,0,.08,0,.19-.03,.39-.08,.52-.22,.18-.19,.11-.48-.08-.62-.2-.14-.49-.16-.76-.13-.41,.04-.82,.16-1.18,.36-.25,.13-.48,.31-.59,.54-.11,.23-.05,.52,.19,.62,.18,.08,.43,.02,.62-.09,.03-.02,.06-.04,.09-.06,.17-.14,.43-.06,.5,.15,.06,.19,.1,.39,.11,.59-.76,.3-1.46,.69-2.11,1.16-.47-.15-.9-.43-1.25-.8-.2-.21-.13-.55,.13-.67,.03-.02,.06-.03,.09-.05,.22-.12,.45-.28,.54-.5,.14-.32-.07-.65-.38-.73-.31-.08-.67,.02-1,.18-.49,.23-.94,.57-1.3,.98-.25,.28-.46,.61-.49,.94s.17,.67,.51,.68c.26,.01,.54-.17,.72-.39,.03-.04,.06-.08,.08-.12,.15-.25,.51-.27,.69-.04,.32,.42,.54,.9,.6,1.41-.54,.52-1.01,1.1-1.41,1.73-.25-.05-.5-.13-.73-.25-.22-.11-.27-.41-.09-.59,.02-.02,.04-.04,.06-.07,.14-.16,.28-.36,.29-.57,.02-.3-.25-.51-.53-.48-.28,.02-.54,.22-.76,.44-.33,.33-.6,.74-.77,1.18-.12,.3-.2,.63-.12,.92,.07,.28,.34,.49,.62,.4,.22-.07,.39-.3,.48-.53,.01-.04,.02-.08,.03-.12,.04-.25,.33-.37,.55-.24,.23,.15,.44,.33,.62,.53-.32,.61-.58,1.25-.77,1.93-.6,.29-1.28,.37-1.96,.29-.36-.04-.57-.42-.41-.75,.02-.04,.04-.08,.05-.12,.11-.29,.2-.63,.12-.92-.13-.42-.59-.56-.96-.39s-.63,.57-.82,.97c-.28,.61-.44,1.3-.46,1.98-.01,.46,.05,.95,.29,1.3s.7,.5,1.04,.24c.26-.2,.38-.59,.38-.95,0-.06,0-.12-.02-.18-.06-.36,.27-.67,.62-.59,.69,.15,1.33,.47,1.81,.96-.02,.24-.03,.49-.03,.73,0,.53,.04,1.05,.13,1.55-.24,.13-.51,.23-.79,.3-.28,.07-.53-.16-.51-.44,0-.04,0-.07,0-.11,0-.25-.02-.52-.16-.71-.21-.28-.59-.26-.82-.03-.22,.22-.31,.59-.34,.95-.04,.53,.02,1.09,.19,1.6,.12,.35,.29,.69,.57,.89s.66,.18,.84-.1c.14-.22,.13-.55,.03-.81-.02-.04-.04-.09-.06-.13-.14-.25,.02-.57,.3-.61,.31-.04,.62-.04,.92,.01,.16,.63,.38,1.23,.65,1.8-.45,.73-1.48,1.56-2.07,1.95-.3,.2-.7,.04-.8-.31-.01-.04-.02-.09-.04-.13-.1-.3-.25-.61-.5-.78-.37-.24-.82-.05-.98,.31-.17,.36-.12,.84,0,1.27,.18,.65,.49,1.28,.92,1.81,.29,.36,.65,.7,1.05,.81,.41,.11,.86-.07,.95-.49,.07-.32-.09-.7-.32-.98-.04-.04-.08-.09-.13-.13-.28-.24-.23-.68,.1-.85,.66-.34,1.98-.84,2.85-.83,.33,.43,.7,.84,1.1,1.21-.1,.27-.24,.54-.42,.78-.16,.21-.48,.21-.63-.01-.02-.03-.04-.05-.06-.08-.15-.18-.33-.36-.54-.41-.31-.08-.58,.17-.6,.47s.13,.61,.32,.88c.29,.41,.67,.76,1.1,1.03,.29,.18,.63,.32,.94,.3,.31-.03,.58-.26,.54-.58-.03-.24-.24-.47-.47-.6-.04-.02-.08-.04-.12-.06-.25-.09-.33-.42-.15-.62,.21-.23,.45-.43,.72-.58,.6,.47,1.26,.86,1.96,1.18,.11,.48,.07,.99-.07,1.47-.08,.28-.41,.39-.64,.22-.03-.02-.06-.04-.09-.06-.21-.13-.46-.25-.7-.22-.35,.04-.52,.39-.44,.7,.08,.31,.36,.57,.65,.78,.44,.31,.96,.53,1.49,.64,.36,.07,.75,.09,1.06-.05,.31-.14,.49-.48,.33-.78-.12-.23-.41-.38-.7-.43-.05,0-.09-.01-.14-.01-.29,0-.49-.3-.38-.57,.2-.48,.51-.91,.91-1.22,.73,.21,1.5,.33,2.3,.36,.05,.18,.09,.37,.1,.56,.01,.22-.19,.38-.4,.33-.03,0-.05-.01-.08-.02-.19-.04-.4-.06-.56,.03-.24,.12-.27,.41-.13,.61,.14,.2,.4,.31,.67,.38,.39,.1,.82,.13,1.23,.07,.28-.04,.56-.13,.74-.31,.18-.18,.22-.47,.03-.64-.15-.13-.39-.17-.61-.13-.04,0-.07,.02-.11,.03-.21,.07-.43-.09-.42-.31,0-.2,.04-.41,.1-.6,.65-.02,1.29-.1,1.91-.24,.7,.45,1.22,1.13,1.55,1.91,.17,.39-.09,.83-.52,.87-.05,0-.11,.01-.16,.02-.37,.06-.77,.16-1.01,.42-.36,.38-.23,.94,.16,1.21,.39,.27,.95,.31,1.49,.26,.8-.07,1.6-.31,2.31-.7,.49-.26,.95-.61,1.16-1.07,.21-.45,.1-1.02-.37-1.21-.36-.15-.84-.04-1.21,.17-.06,.04-.12,.08-.18,.13-.33,.28-.85,.12-.98-.29-.26-.83-.31-1.71-.06-2.53,.49-.25,.96-.54,1.4-.88,.3,.16,.57,.37,.81,.62,.2,.21,.13,.55-.13,.67-.03,.02-.06,.03-.09,.05-.22,.12-.45,.28-.54,.5-.14,.32,.07,.65,.38,.73,.31,.08,.67-.02,1-.18,.49-.23,.94-.57,1.3-.98,.25-.28,.46-.61,.49-.94,.03-.34-.17-.67-.51-.68-.26-.01-.54,.17-.72,.39-.03,.04-.06,.08-.08,.12-.15,.25-.51,.27-.69,.04-.22-.29-.39-.61-.5-.95,.49-.45,.92-.94,1.31-1.48,.66-.07,1.33,.09,1.94,.4,.32,.16,.39,.59,.13,.84-.03,.03-.06,.06-.09,.1-.21,.24-.41,.52-.42,.82-.03,.44,.37,.73,.76,.7,.4-.04,.78-.32,1.1-.64,.48-.48,.86-1.07,1.11-1.7,.17-.43,.28-.91,.17-1.32s-.49-.71-.89-.58c-.31,.1-.56,.43-.69,.77-.02,.06-.03,.11-.05,.18-.06,.36-.48,.54-.79,.34-.6-.38-1.08-.89-1.37-1.52,.27-.59,.48-1.21,.62-1.85,.29-.05,.58-.06,.88-.03,.27,.03,.42,.31,.31,.55-.01,.03-.03,.06-.04,.09-.08,.22-.15,.46-.09,.68,.09,.31,.44,.42,.71,.29,.27-.13,.46-.42,.6-.72,.21-.45,.33-.96,.34-1.46,0-.34-.03-.7-.21-.96-.18-.26-.52-.37-.77-.18-.19,.15-.28,.44-.28,.7,0,.04,0,.09,.01,.13,.05,.27-.2,.5-.46,.44-.31-.07-.6-.18-.86-.33,.06-.43,.09-.86,.09-1.3,0-.2,0-.39-.02-.58,.53-.56,1.23-.92,2-1.11,.39-.09,.75,.22,.72,.63,0,.05,0,.1,0,.15,0,.35,.03,.74,.23,1.01,.29,.39,.84,.36,1.15,.05s.44-.83,.48-1.34c.06-.75-.03-1.53-.27-2.26Z"/><g><path class="cls-11" d="M148.63,16.02c.06,.33-.21,.67-.57,1.02-.18,.17-.39,.36-.62,.55-.23,.2-.47,.4-.73,.61-.25,.22-.5,.42-.73,.61-.23,.19-.45,.36-.66,.51-.41,.29-.79,.49-1.11,.37-.3-.11-.47-.56-.35-1.21,.06-.32,.2-.69,.42-1.06,.22-.36,.53-.73,.91-1.05,.38-.31,.8-.55,1.2-.7,.4-.15,.79-.22,1.12-.22,.66,0,1.07,.25,1.12,.56Z"/><path class="cls-11" d="M144.11,25.58c-.24,.08-.55-.1-.81-.51-.27-.4-.47-1.04-.49-1.75-.02-.72,.16-1.36,.41-1.78,.25-.42,.55-.62,.79-.55,.25,.07,.4,.37,.49,.78,.09,.41,.14,.93,.15,1.5,.01,.57,0,1.09-.08,1.51-.08,.41-.21,.72-.46,.8Z"/><path class="cls-11" d="M151.23,29.42c.03,.23-.19,.48-.6,.64-.41,.17-1.01,.25-1.66,.14-.65-.11-1.2-.37-1.53-.66-.34-.29-.47-.59-.37-.8,.1-.21,.4-.3,.79-.32,.39-.02,.87,.03,1.38,.11,.52,.08,.99,.19,1.35,.33,.36,.14,.62,.32,.65,.55Z"/><path class="cls-11" d="M155.71,21.71c.45,.6-.42,2.01-1.94,3.15-1.52,1.13-3.12,1.57-3.57,.96-.45-.6,.42-2.01,1.94-3.15,1.52-1.13,3.12-1.57,3.57-.96Z"/><path class="cls-11" d="M148.91,19.96c.27,.12,.4,.49,.43,.99,.03,.5-.03,1.12-.14,1.78-.12,.67-.28,1.27-.48,1.72-.2,.45-.45,.76-.74,.78-.29,.02-.58-.28-.77-.8-.19-.52-.26-1.27-.11-2.07,.14-.8,.47-1.48,.82-1.91,.36-.43,.73-.6,1-.49Z"/><path class="cls-11" d="M147.69,27.35c-.06,.11-.25,.15-.5,.08-.25-.07-.55-.27-.79-.57-.24-.3-.36-.64-.38-.89-.02-.26,.06-.43,.18-.47,.13-.04,.28,.05,.44,.19,.16,.15,.33,.34,.51,.57,.18,.22,.34,.43,.45,.62,.11,.19,.16,.35,.09,.47Z"/><path class="cls-11" d="M146.96,19.54c.18,.18,0,.67-.34,1.17-.34,.49-.74,.84-.97,.74-.23-.11-.17-.69,.21-1.26,.39-.56,.92-.82,1.1-.65Z"/><path class="cls-11" d="M153.88,18.09c-.09,.24-.41,.36-.82,.42-.42,.05-.94,.05-1.51,0-.57-.04-1.09-.12-1.49-.23-.4-.12-.7-.28-.75-.54-.05-.25,.16-.53,.59-.76,.43-.22,1.08-.37,1.79-.31,.71,.05,1.33,.29,1.72,.58,.39,.28,.56,.6,.47,.84Z"/><path class="cls-11" d="M153.42,15.57c-.06,.12-.23,.18-.45,.2-.22,.02-.5,0-.8-.03-.3-.03-.57-.07-.78-.14-.21-.06-.37-.15-.4-.29-.03-.13,.08-.29,.32-.4,.23-.12,.58-.19,.97-.15,.38,.04,.71,.18,.92,.35,.2,.16,.28,.34,.23,.46Z"/><path class="cls-11" d="M157.21,20.9c-.23,.02-.45-.18-.68-.46-.22-.29-.46-.65-.7-1.06-.25-.41-.47-.78-.63-1.11-.15-.33-.23-.62-.1-.81,.12-.19,.45-.24,.87-.07,.21,.08,.44,.22,.66,.41,.22,.19,.43,.43,.61,.72,.17,.29,.29,.59,.37,.87,.07,.28,.09,.55,.07,.77-.04,.45-.23,.72-.46,.74Z"/><path class="cls-11" d="M155.91,26.88c-.12-.14-.09-.37,0-.65,.09-.28,.22-.6,.38-.94,.15-.35,.3-.66,.45-.91,.15-.24,.31-.42,.49-.43,.18,0,.35,.19,.43,.54,.08,.35,.04,.84-.17,1.33-.22,.49-.57,.85-.88,1.02-.31,.18-.57,.17-.69,.04Z"/><path class="cls-11" d="M154.46,28.01c.1,.09,.1,.28-.02,.51-.11,.23-.35,.5-.67,.7-.32,.2-.67,.29-.93,.29-.26,0-.43-.09-.47-.21-.04-.13,.06-.28,.23-.44,.16-.15,.39-.32,.65-.47,.26-.16,.5-.29,.72-.37,.21-.08,.39-.1,.49,0Z"/><path class="cls-11" d="M154.44,20.36c.04,.42-.82,.85-1.93,.85-1.11,0-1.98-.41-1.94-.83,.04-.42,.9-.69,1.93-.7,1.03,0,1.9,.26,1.94,.68Z"/><path class="cls-11" d="M154.06,26.27c.13,.15,.1,.44-.13,.77-.23,.33-.67,.67-1.23,.87-.56,.2-1.12,.2-1.5,.09-.39-.11-.59-.32-.58-.52,.01-.21,.22-.38,.51-.53,.29-.15,.67-.3,1.08-.44,.41-.15,.8-.27,1.12-.33,.32-.06,.59-.06,.73,.09Z"/><path class="cls-11" d="M146.06,28.74c-.1,.15-.34,.18-.65,.09-.3-.09-.66-.31-.98-.64-.32-.33-.52-.7-.59-1.01-.08-.31-.03-.54,.12-.64,.15-.1,.38-.04,.63,.1,.25,.14,.53,.37,.79,.65,.27,.28,.48,.57,.62,.82,.13,.26,.17,.48,.07,.63Z"/></g><path class="cls-26" d="M154.38,28.29c.09,.44-.07,.92-.51,1.37-.44,.45-1.18,.84-2.17,1.04-.49,.1-1.04,.14-1.64,.12-.59-.04-1.23-.13-1.88-.32-1.3-.38-2.67-1.13-3.82-2.3-1.14-1.17-1.87-2.56-2.22-3.86-.18-.65-.26-1.29-.28-1.88,0-.59,.04-1.14,.15-1.64,.22-.98,.63-1.71,1.09-2.15,.46-.44,.94-.58,1.38-.48,.45,.1,.82,.41,1.17,.81,.34,.4,.67,.9,1.02,1.42,.68,1.05,1.48,2.21,2.41,3.16,.94,.95,2.07,1.78,3.11,2.48,.51,.35,1,.7,1.4,1.05,.39,.35,.7,.73,.79,1.19Z"/></g><g><path class="cls-16" d="M116.8,14.31c-.28-.17-.6-.3-.89-.27-.29,.03-.54,.26-.5,.55,.03,.23,.23,.44,.45,.56,.04,.02,.08,.04,.12,.05,.24,.08,.32,.39,.15,.58-.34,.38-.76,.67-1.24,.79-.25-.16-.5-.3-.76-.41-.1-.3-.09-.62,0-.93,.04-.16,.22-.22,.36-.13,.02,.01,.03,.02,.05,.03,.12,.07,.26,.13,.4,.12,.19-.03,.29-.22,.24-.39-.05-.17-.2-.32-.37-.43-.25-.17-.54-.29-.84-.35-.2-.04-.42-.05-.59,.03-.17,.08-.27,.27-.18,.44,.07,.13,.23,.21,.39,.24,.03,0,.05,0,.08,0,.16,0,.28,.17,.22,.32-.12,.3-.31,.57-.58,.75-.37-.11-.75-.18-1.14-.21-.25-.34-.38-.74-.41-1.17-.02-.23,.19-.4,.41-.34,.03,0,.05,.01,.08,.02,.19,.03,.41,.05,.58-.04,.24-.13,.28-.43,.13-.63-.15-.2-.42-.32-.69-.39-.41-.1-.85-.12-1.27-.05-.29,.05-.58,.14-.76,.33-.18,.19-.22,.49-.02,.67,.15,.14,.41,.17,.63,.12,.04,0,.07-.02,.11-.03,.21-.08,.44,.09,.44,.31-.01,.44-.13,.87-.38,1.22-.37,.04-.74,.12-1.1,.23-.23-.14-.39-.35-.51-.6-.06-.13,.03-.27,.16-.28,.02,0,.03,0,.05,0,.12-.02,.24-.06,.32-.14,.11-.12,.07-.3-.06-.39-.13-.09-.31-.09-.47-.08-.25,.03-.51,.11-.73,.23-.15,.09-.3,.2-.37,.35s-.03,.32,.12,.38c.12,.05,.27,.01,.38-.06,.02-.01,.04-.03,.06-.04,.1-.09,.27-.04,.31,.09,.09,.27,.11,.55,.03,.81-.34,.15-.67,.34-.98,.56-.4-.1-.77-.33-1.07-.63-.16-.16-.11-.43,.09-.53,.03-.01,.05-.03,.07-.04,.17-.1,.35-.22,.42-.4,.11-.25-.07-.51-.31-.57-.24-.06-.53,.03-.78,.15-.38,.18-.73,.45-1.01,.78-.19,.22-.35,.48-.37,.74-.02,.26,.14,.52,.41,.53,.21,0,.42-.14,.56-.31,.02-.03,.04-.06,.06-.09,.11-.2,.39-.22,.54-.04,.27,.35,.46,.75,.5,1.18-.3,.32-.57,.66-.79,1.03-.11-.03-.23-.07-.33-.12-.12-.06-.15-.22-.06-.32,.01-.01,.02-.02,.03-.04,.08-.09,.15-.2,.16-.31,0-.17-.14-.27-.29-.26s-.29,.12-.41,.25c-.18,.18-.32,.41-.41,.65-.06,.16-.1,.35-.06,.5s.19,.27,.34,.21c.12-.04,.21-.16,.26-.29,0-.02,.01-.04,.02-.07,.02-.14,.18-.21,.3-.13,.11,.07,.21,.15,.29,.24-.24,.45-.41,.92-.53,1.41-.28,.12-.6,.16-.92,.13-.18-.02-.29-.21-.21-.37,0-.02,.02-.04,.03-.06,.05-.15,.1-.32,.05-.46-.07-.21-.3-.28-.48-.19-.18,.09-.31,.29-.4,.49-.14,.31-.21,.65-.22,.99,0,.23,.03,.48,.15,.65s.35,.24,.52,.11c.13-.1,.19-.3,.18-.48,0-.03,0-.06-.01-.09-.03-.18,.13-.34,.31-.3,.32,.07,.62,.2,.86,.42-.04,.46-.03,.93,.04,1.4-.14,.08-.29,.14-.45,.18-.15,.04-.29-.08-.28-.24,0-.02,0-.04,0-.06,0-.14-.01-.29-.09-.39-.12-.15-.33-.14-.45-.01s-.17,.33-.18,.52c-.02,.29,.02,.6,.12,.87,.07,.19,.17,.38,.32,.48,.15,.1,.36,.09,.46-.06,.07-.12,.06-.3,0-.45,0-.02-.02-.05-.04-.07-.08-.14,0-.31,.16-.34,.17-.02,.34-.03,.51,0,.09,.42,.24,.83,.42,1.23-.17,.38-.46,.7-.81,.94-.19,.13-.44,.03-.5-.18,0-.03-.02-.05-.03-.08-.07-.18-.16-.38-.32-.48-.23-.15-.51-.02-.61,.2-.1,.23-.07,.52,.01,.79,.12,.41,.32,.8,.59,1.13,.18,.23,.41,.43,.67,.5,.26,.07,.54-.05,.59-.31,.04-.2-.06-.44-.21-.61-.02-.03-.05-.05-.08-.08-.18-.14-.15-.43,.05-.53,.39-.21,.82-.32,1.25-.28,.09,.12,.18,.24,.28,.36,.22,.25,.45,.48,.69,.68-.06,.16-.14,.32-.25,.46-.11,.15-.32,.14-.42,0-.01-.02-.03-.04-.04-.05-.1-.12-.22-.24-.37-.27-.21-.05-.39,.12-.4,.32-.01,.2,.09,.41,.22,.59,.2,.27,.45,.51,.74,.68,.2,.12,.42,.21,.63,.19,.21-.02,.38-.18,.35-.39-.02-.16-.16-.31-.32-.4-.03-.01-.05-.03-.08-.04-.17-.06-.23-.28-.1-.41,.13-.15,.28-.27,.44-.37,.33,.23,.68,.43,1.05,.59,.09,.53-.06,1.34-.18,1.77-.06,.22-.32,.31-.5,.18-.02-.02-.05-.03-.07-.04-.17-.1-.37-.19-.55-.16-.27,.04-.41,.31-.34,.55,.07,.24,.29,.44,.52,.6,.35,.24,.76,.4,1.18,.48,.29,.05,.59,.07,.83-.05,.24-.11,.38-.38,.25-.62-.1-.18-.33-.3-.55-.33-.04,0-.07,0-.11,0-.23,0-.39-.23-.3-.44,.17-.43,.59-1.21,1.01-1.56,.33,.07,.67,.11,1.01,.12,.07,.17,.11,.35,.12,.54,.01,.17-.14,.29-.3,.25-.02,0-.04,0-.06-.01-.14-.03-.3-.04-.43,.03-.18,.09-.2,.32-.1,.47s.31,.24,.51,.29c.3,.08,.63,.09,.94,.04,.21-.03,.43-.1,.56-.24,.14-.14,.17-.36,.02-.49-.11-.1-.3-.12-.47-.09-.03,0-.05,.01-.08,.02-.16,.06-.33-.06-.32-.23,0-.2,.04-.39,.11-.57,.48-.02,.95-.1,1.41-.24,.25,.18,.44,.44,.57,.73,.07,.16-.03,.35-.21,.37-.02,0-.04,0-.07,0-.15,.03-.32,.07-.42,.18-.15,.16-.09,.4,.08,.51,.17,.11,.4,.12,.63,.1,.33-.03,.67-.14,.97-.31,.2-.11,.4-.26,.48-.45,.09-.19,.03-.43-.16-.51-.15-.06-.35-.01-.51,.08-.03,.02-.05,.03-.07,.05-.14,.12-.35,.06-.41-.12-.1-.31-.13-.64-.07-.95,.43-.2,.85-.46,1.23-.77,.1,.06,.19,.14,.28,.23,.1,.1,.07,.26-.06,.32-.02,0-.03,.02-.04,.02-.1,.06-.21,.14-.25,.24-.06,.15,.04,.31,.19,.34s.32-.02,.47-.09c.23-.11,.44-.27,.61-.47,.12-.13,.21-.29,.23-.45,.01-.16-.09-.31-.25-.32-.12,0-.26,.08-.34,.19-.01,.02-.03,.04-.04,.06-.07,.12-.24,.13-.32,.02-.08-.1-.15-.21-.2-.32,.3-.27,.57-.57,.8-.89,.51-.07,1.04,.04,1.51,.27,.24,.12,.29,.43,.11,.63-.02,.02-.05,.05-.07,.07-.15,.18-.3,.39-.31,.61-.01,.32,.28,.54,.57,.51,.3-.03,.58-.24,.81-.48,.35-.36,.63-.8,.81-1.27,.12-.32,.2-.68,.12-.98-.08-.3-.37-.52-.67-.42-.23,.08-.41,.32-.5,.57-.01,.04-.02,.09-.03,.13-.04,.27-.35,.4-.58,.26-.47-.29-.85-.68-1.06-1.17,.13-.32,.23-.65,.31-.99,.21-.05,.42-.06,.64-.04,.18,.02,.29,.21,.21,.37,0,.02-.02,.04-.03,.06-.05,.15-.1,.32-.05,.46,.07,.21,.3,.28,.48,.19,.18-.09,.31-.29,.4-.49,.14-.31,.21-.65,.22-.99,0-.23-.03-.48-.15-.65-.12-.17-.35-.24-.52-.11-.13,.1-.19,.3-.18,.48,0,.03,0,.06,.01,.09,.03,.18-.13,.34-.31,.3-.22-.05-.44-.13-.62-.24,.05-.41,.05-.82,.02-1.24,.29-.3,.67-.5,1.08-.61,.22-.06,.42,.12,.41,.35,0,.03,0,.06,0,.08,0,.2,.02,.41,.14,.56,.17,.22,.47,.2,.65,.02,.17-.18,.24-.47,.26-.75,.03-.42-.03-.86-.17-1.26-.1-.27-.24-.55-.46-.69s-.52-.14-.66,.09c-.11,.18-.09,.43-.01,.64,.01,.03,.03,.07,.05,.1,.12,.2,0,.45-.23,.48-.44,.06-.88,.02-1.27-.16-.11-.39-.27-.77-.46-1.13,.11-.14,.25-.27,.4-.37,.14-.09,.32-.02,.37,.14,0,.02,.01,.04,.02,.06,.05,.14,.12,.28,.24,.36,.17,.11,.38,.02,.45-.15,.08-.17,.05-.39,0-.59-.09-.3-.24-.59-.44-.83-.14-.17-.3-.32-.49-.37-.19-.05-.4,.04-.43,.23-.03,.15,.04,.32,.15,.45,.02,.02,.04,.04,.06,.06,.13,.11,.11,.31-.04,.39-.17,.09-.36,.16-.54,.19-.15-.23-.31-.44-.49-.65-.08-.09-.16-.18-.25-.27,.02-.48,.21-.94,.49-1.34,.15-.21,.45-.2,.6,0,.02,.03,.04,.05,.06,.07,.14,.17,.31,.34,.52,.38,.3,.07,.55-.17,.57-.45,.02-.28-.13-.58-.32-.83-.28-.38-.64-.71-1.05-.96Z"/><g><path class="cls-11" d="M108.21,19.16c.16,.13,.17,.4,.15,.71-.02,.16-.04,.33-.07,.52-.03,.19-.06,.38-.1,.59-.03,.21-.06,.4-.1,.59-.03,.18-.07,.36-.1,.51-.08,.31-.18,.55-.37,.63-.19,.07-.45-.07-.66-.43-.1-.18-.19-.41-.23-.67-.04-.26-.05-.56,0-.87,.05-.3,.15-.58,.28-.82,.13-.23,.28-.43,.44-.56,.31-.27,.61-.32,.76-.19Z"/><path class="cls-11" d="M109.97,25.53c-.08,.13-.3,.17-.6,.09-.29-.08-.65-.3-.95-.63-.3-.33-.48-.71-.53-1.01-.06-.3,0-.52,.15-.58,.15-.07,.34,.01,.55,.17,.21,.16,.45,.38,.69,.65,.24,.26,.44,.52,.58,.75,.13,.23,.19,.43,.11,.57Z"/><path class="cls-11" d="M114.91,24.44c.11,.1,.1,.3-.02,.55-.12,.25-.38,.53-.73,.75-.35,.21-.72,.31-.99,.31-.28,0-.46-.09-.5-.23-.04-.14,.07-.31,.24-.47,.18-.17,.42-.34,.7-.51,.28-.17,.54-.31,.77-.39,.23-.08,.42-.1,.53,0Z"/><path class="cls-11" d="M113.88,18.96c.46,.1,.62,1.12,.36,2.28-.26,1.16-.84,2.02-1.3,1.91-.46-.1-.62-1.12-.36-2.28s.84-2.02,1.3-1.91Z"/><path class="cls-11" d="M109.94,20.91c.18-.06,.39,.07,.61,.29,.22,.22,.44,.54,.66,.9,.22,.36,.39,.71,.48,1.01,.09,.3,.1,.54-.03,.67-.13,.13-.39,.11-.69-.07-.3-.17-.64-.5-.9-.94-.26-.44-.38-.89-.39-1.24,0-.35,.1-.58,.27-.64Z"/><path class="cls-11" d="M112.39,24.91c.02,.08-.06,.17-.2,.24-.15,.07-.37,.1-.61,.05-.24-.04-.43-.15-.55-.27-.11-.11-.15-.23-.11-.3,.04-.07,.15-.09,.29-.09,.13,0,.3,.03,.47,.06,.18,.03,.34,.07,.46,.11,.13,.04,.22,.1,.24,.18Z"/><path class="cls-11" d="M108.85,21.51c.16,0,.27,.32,.31,.69,.04,.37,0,.7-.16,.74-.15,.04-.37-.26-.41-.68-.05-.42,.1-.76,.26-.75Z"/><path class="cls-11" d="M111.53,18c.06,.15-.04,.34-.22,.53-.18,.2-.43,.41-.71,.62-.29,.21-.56,.39-.8,.5-.24,.11-.45,.15-.57,.05-.13-.09-.14-.32-.03-.6,.11-.28,.36-.61,.72-.88,.36-.27,.75-.41,1.05-.43,.3-.03,.51,.06,.57,.2Z"/><path class="cls-11" d="M110.29,16.99c.02,.08-.03,.18-.13,.28-.1,.1-.23,.21-.39,.31-.15,.11-.3,.2-.43,.26-.13,.06-.24,.08-.31,.03-.07-.05-.08-.17-.01-.32,.06-.15,.2-.33,.4-.47,.2-.14,.41-.2,.57-.21,.16,0,.27,.04,.3,.12Z"/><path class="cls-11" d="M114.26,17.97c-.1,.1-.29,.1-.51,.06-.22-.04-.48-.12-.77-.22-.28-.09-.54-.18-.75-.27-.2-.09-.36-.2-.38-.34-.02-.14,.11-.29,.38-.39,.13-.05,.3-.07,.48-.08,.18,0,.38,.03,.58,.09,.2,.06,.38,.16,.53,.26,.15,.11,.27,.22,.35,.34,.16,.23,.18,.44,.09,.54Z"/><path class="cls-11" d="M116.09,21.33c-.11-.02-.2-.14-.27-.3-.07-.17-.14-.37-.21-.6-.07-.23-.13-.44-.16-.62-.03-.18-.03-.33,.06-.4,.08-.07,.24-.05,.42,.08,.18,.13,.37,.38,.46,.7,.1,.32,.08,.63,0,.84-.08,.21-.2,.32-.31,.3Z"/><path class="cls-11" d="M115.86,22.46c.08,0,.16,.09,.2,.25,.04,.16,.04,.38-.04,.61-.07,.23-.2,.41-.32,.52-.12,.11-.24,.14-.31,.09-.07-.05-.09-.16-.07-.3,.01-.14,.06-.31,.11-.49,.06-.18,.12-.34,.19-.47,.07-.12,.15-.2,.23-.2Z"/><path class="cls-11" d="M112.73,18.85c.19,.18-.04,.74-.57,1.19-.52,.46-1.1,.61-1.26,.4-.16-.22,.14-.7,.63-1.12,.49-.42,1-.65,1.2-.47Z"/><path class="cls-11" d="M114.96,21.8c.12,.02,.23,.17,.25,.42,.02,.25-.04,.59-.23,.91-.19,.32-.45,.55-.68,.65-.23,.11-.41,.09-.49,0-.08-.1-.05-.27,.03-.46,.08-.19,.19-.41,.33-.65,.14-.24,.27-.45,.39-.61,.13-.16,.25-.27,.38-.25Z"/><path class="cls-11" d="M112.18,26.24c.01,.11-.09,.22-.27,.3-.18,.08-.44,.12-.73,.1-.28-.03-.53-.12-.69-.24-.16-.11-.24-.24-.21-.35,.03-.11,.16-.17,.34-.21,.18-.03,.4-.04,.64-.01,.24,.02,.46,.07,.63,.14,.17,.07,.28,.16,.29,.27Z"/></g><path class="cls-26" d="M114.24,25.05c.05,.28-.04,.58-.32,.86-.28,.28-.74,.53-1.36,.65-.31,.06-.65,.09-1.02,.07-.37-.02-.77-.08-1.17-.2-.81-.23-1.67-.71-2.39-1.44-.71-.73-1.17-1.6-1.39-2.42-.11-.41-.16-.81-.18-1.18,0-.37,.03-.72,.09-1.02,.14-.61,.39-1.07,.68-1.34,.29-.27,.59-.36,.86-.3,.28,.06,.52,.26,.73,.51,.21,.25,.42,.56,.64,.89,.42,.66,.92,1.38,1.51,1.98,.59,.6,1.3,1.11,1.94,1.55,.32,.22,.63,.44,.87,.65,.25,.22,.44,.46,.49,.74Z"/></g></svg>