<?xml version="1.0" encoding="UTF-8"?><svg id="Illustration" xmlns="http://www.w3.org/2000/svg" xmlns:xlink="http://www.w3.org/1999/xlink" viewBox="0 0 193.25 131.12"><defs><style>.cls-1{fill:none;}.cls-2{fill:url(#_41);}.cls-3{fill:url(#_45);}.cls-4{fill:url(#_39);}.cls-5{fill:url(#_37);}.cls-6{fill:url(#_55);}.cls-7{fill:url(#_14);opacity:.37;}.cls-8{fill:url(#linear-gradient);}.cls-8,.cls-9{opacity:.26;}.cls-10{clip-path:url(#clippath);}.cls-11{mask:url(#mask);}.cls-12{filter:url(#luminosity-noclip-2);}.cls-13,.cls-14,.cls-15,.cls-16,.cls-17,.cls-18,.cls-19,.cls-20,.cls-21{fill:#fff;}.cls-22{fill:#0f3f66;}.cls-23{fill:url(#_45-5);}.cls-24{fill:url(#_45-9);}.cls-25{fill:url(#_45-8);}.cls-26{fill:url(#_45-6);}.cls-27{fill:url(#_45-3);}.cls-28{fill:url(#_45-4);}.cls-29{fill:url(#_45-7);}.cls-30{fill:url(#_45-2);}.cls-31{fill:url(#_39-2);}.cls-32{fill:url(#_3);mix-blend-mode:multiply;}.cls-33{fill:url(#linear-gradient-8);}.cls-34{fill:url(#linear-gradient-9);}.cls-35{fill:url(#linear-gradient-3);}.cls-36{fill:url(#linear-gradient-4);}.cls-37{fill:url(#linear-gradient-6);}.cls-38{fill:url(#linear-gradient-7);}.cls-39{fill:url(#linear-gradient-5);}.cls-40{opacity:.64;}.cls-41,.cls-17{opacity:.5;}.cls-42{opacity:.49;}.cls-43{opacity:.72;}.cls-44{fill:url(#linear-gradient-59);}.cls-45{fill:url(#linear-gradient-57);}.cls-46{fill:url(#linear-gradient-58);}.cls-47{fill:url(#linear-gradient-55);}.cls-48{fill:url(#linear-gradient-56);}.cls-49{fill:url(#linear-gradient-53);}.cls-50{fill:url(#linear-gradient-54);}.cls-51{fill:url(#linear-gradient-51);}.cls-52{fill:url(#linear-gradient-52);}.cls-53{fill:url(#linear-gradient-50);}.cls-54{fill:url(#linear-gradient-77);}.cls-55{fill:url(#linear-gradient-78);}.cls-56{fill:url(#linear-gradient-79);}.cls-57{fill:url(#linear-gradient-74);}.cls-58{fill:url(#linear-gradient-75);}.cls-59{fill:url(#linear-gradient-76);}.cls-60{fill:url(#linear-gradient-70);}.cls-61{fill:url(#linear-gradient-71);}.cls-62{fill:url(#linear-gradient-72);}.cls-63{fill:url(#linear-gradient-73);}.cls-64{fill:url(#linear-gradient-68);}.cls-65{fill:url(#linear-gradient-67);}.cls-66{fill:url(#linear-gradient-69);}.cls-67{fill:url(#linear-gradient-64);}.cls-68{fill:url(#linear-gradient-63);}.cls-69{fill:url(#linear-gradient-66);}.cls-70{fill:url(#linear-gradient-65);}.cls-71{fill:url(#linear-gradient-60);}.cls-72{fill:url(#linear-gradient-62);}.cls-73{fill:url(#linear-gradient-61);}.cls-74{fill:url(#linear-gradient-91);}.cls-75{fill:url(#linear-gradient-95);}.cls-76{fill:url(#linear-gradient-96);}.cls-77{fill:url(#linear-gradient-94);}.cls-78{fill:url(#linear-gradient-92);}.cls-79{fill:url(#linear-gradient-93);}.cls-80{fill:url(#linear-gradient-90);}.cls-81{fill:url(#linear-gradient-81);}.cls-82{fill:url(#linear-gradient-80);}.cls-83{fill:url(#linear-gradient-88);}.cls-84{fill:url(#linear-gradient-89);}.cls-85{fill:url(#linear-gradient-87);}.cls-86{fill:url(#linear-gradient-86);}.cls-87{fill:url(#linear-gradient-85);}.cls-88{fill:url(#linear-gradient-84);}.cls-89{fill:url(#linear-gradient-83);}.cls-90{fill:url(#linear-gradient-82);}.cls-91{fill:url(#linear-gradient-41);}.cls-92{fill:url(#linear-gradient-40);}.cls-93{fill:url(#linear-gradient-43);}.cls-94{fill:url(#linear-gradient-42);}.cls-95{fill:url(#linear-gradient-45);}.cls-96{fill:url(#linear-gradient-46);}.cls-97{fill:url(#linear-gradient-44);}.cls-98{fill:url(#linear-gradient-49);}.cls-99{fill:url(#linear-gradient-47);}.cls-100{fill:url(#linear-gradient-48);}.cls-101{fill:url(#linear-gradient-14);}.cls-102{fill:url(#linear-gradient-18);}.cls-103{fill:url(#linear-gradient-22);}.cls-104{fill:url(#linear-gradient-20);}.cls-105{fill:url(#linear-gradient-21);}.cls-106{fill:url(#linear-gradient-23);}.cls-107{fill:url(#linear-gradient-15);}.cls-108{fill:url(#linear-gradient-19);}.cls-109{fill:url(#linear-gradient-16);}.cls-110{fill:url(#linear-gradient-17);}.cls-111{fill:url(#linear-gradient-13);}.cls-112{fill:url(#linear-gradient-12);}.cls-113{fill:url(#linear-gradient-10);}.cls-114{fill:url(#linear-gradient-11);}.cls-115{fill:url(#linear-gradient-27);}.cls-116{fill:url(#linear-gradient-24);}.cls-117{fill:url(#linear-gradient-26);}.cls-118{fill:url(#linear-gradient-38);}.cls-119{fill:url(#linear-gradient-35);}.cls-120{fill:url(#linear-gradient-37);}.cls-121{fill:url(#linear-gradient-34);}.cls-122{fill:url(#linear-gradient-39);}.cls-123{fill:url(#linear-gradient-36);}.cls-124{fill:url(#linear-gradient-25);}.cls-125{fill:url(#linear-gradient-28);}.cls-126{fill:url(#linear-gradient-29);}.cls-127{fill:url(#linear-gradient-33);}.cls-128{fill:url(#linear-gradient-30);}.cls-129{fill:url(#linear-gradient-32);}.cls-130{fill:url(#linear-gradient-31);}.cls-9{fill:url(#linear-gradient-2);}.cls-131{mask:url(#mask-1);}.cls-132{fill:url(#_45-25);}.cls-133{fill:url(#_45-26);}.cls-134{fill:url(#_45-20);}.cls-135{fill:url(#_45-21);}.cls-136{fill:url(#_45-22);}.cls-137{fill:url(#_45-23);}.cls-138{fill:url(#_45-24);}.cls-139{fill:url(#_45-11);}.cls-140{fill:url(#_45-10);}.cls-141{fill:url(#_45-19);}.cls-142{fill:url(#_45-13);}.cls-143{fill:url(#_45-12);}.cls-144{fill:url(#_45-18);}.cls-145{fill:url(#_45-15);}.cls-146{fill:url(#_45-14);}.cls-147{fill:url(#_45-17);}.cls-148{fill:url(#_45-16);}.cls-14{opacity:.6;}.cls-15{opacity:.61;}.cls-16{opacity:.54;}.cls-18{opacity:.86;}.cls-19{opacity:.3;}.cls-20{opacity:.45;}.cls-21{opacity:.43;}</style><linearGradient id="linear-gradient" x1="6.85" y1="62.2" x2="185.16" y2="62.2" gradientUnits="userSpaceOnUse"><stop offset="0" stop-color="#b37cff"/><stop offset="1" stop-color="#f895e7"/></linearGradient><linearGradient id="linear-gradient-2" x1="167.83" y1="62.9" x2="-19.85" y2="63.61" xlink:href="#linear-gradient"/><linearGradient id="linear-gradient-3" x1="185.78" y1="35.59" x2="123.14" y2="198.73" gradientUnits="userSpaceOnUse"><stop offset="0" stop-color="#53d8ff"/><stop offset="1" stop-color="#3840f7"/></linearGradient><linearGradient id="linear-gradient-4" x1="143.66" y1="90.99" x2="185.56" y2="90.99" xlink:href="#linear-gradient-3"/><linearGradient id="linear-gradient-5" x1="2188.04" y1="185.68" x2="2235.67" y2="185.68" gradientTransform="translate(1532.51 1779.32) rotate(-123.92) scale(1 -1)" gradientUnits="userSpaceOnUse"><stop offset="0" stop-color="#a737d5"/><stop offset="1" stop-color="#ef497a"/></linearGradient><linearGradient id="linear-gradient-6" x1="3558.27" y1="1191.92" x2="3600.76" y2="1191.92" gradientTransform="translate(-3147.45 -1764) rotate(10.54)" gradientUnits="userSpaceOnUse"><stop offset="0" stop-color="#cb236d"/><stop offset="1" stop-color="#4c246d"/></linearGradient><linearGradient id="linear-gradient-7" x1="5010.76" y1="808.98" x2="5033.05" y2="808.98" gradientTransform="translate(-2672.77 -4130.35) rotate(46.96)" xlink:href="#linear-gradient-5"/><linearGradient id="linear-gradient-8" x1="1502.42" y1="-803.54" x2="1550.05" y2="-803.54" gradientTransform="translate(-155.93 1779.32) rotate(-56.08)" xlink:href="#linear-gradient-5"/><linearGradient id="linear-gradient-9" x1="5821.88" y1="-59.66" x2="5844.18" y2="-59.66" gradientTransform="translate(4049.35 -4130.35) rotate(133.04) scale(1 -1)" xlink:href="#linear-gradient-5"/><linearGradient id="linear-gradient-10" x1="95.79" y1="130.93" x2="94.35" y2="102.48" gradientUnits="userSpaceOnUse"><stop offset="0" stop-color="#2b3582"/><stop offset="1" stop-color="#150e42"/></linearGradient><linearGradient id="linear-gradient-11" x1="25.71" y1="66.74" x2="158.44" y2="66.74" xlink:href="#linear-gradient-10"/><linearGradient id="linear-gradient-12" x1="62.43" y1="88.29" x2="184.25" y2="-13.22" gradientUnits="userSpaceOnUse"><stop offset="0" stop-color="#fdf53f"/><stop offset="1" stop-color="#d93c65"/></linearGradient><linearGradient id="linear-gradient-13" x1="95.88" y1="120.19" x2="82.66" y2="149.21" xlink:href="#linear-gradient-10"/><clipPath id="clippath"><path class="cls-1" d="M29.41,35.02v55.93c0,2.83,2.27,5.13,5.1,5.17l114.14,1.41c2.8,.04,5.1-2.21,5.11-5.02l.19-55.43c0-2-1.59-3.65-3.59-3.7l-116.85-2.36c-2.24-.05-4.09,1.75-4.09,3.99Z"/></clipPath><linearGradient id="linear-gradient-14" x1="112.18" y1="35.55" x2="85.91" y2="60.47" xlink:href="#linear-gradient-12"/><linearGradient id="linear-gradient-15" x1="129.34" y1="37.31" x2="106.52" y2="58.96" xlink:href="#linear-gradient-12"/><linearGradient id="linear-gradient-16" x1="148.75" y1="37.37" x2="125.94" y2="59.02" xlink:href="#linear-gradient-12"/><linearGradient id="linear-gradient-17" x1="72.73" y1="71.11" x2="73.54" y2="127.28" xlink:href="#linear-gradient-12"/><linearGradient id="linear-gradient-18" x1="165.04" y1="88.35" x2="106.67" y2="159.43" xlink:href="#linear-gradient-3"/><linearGradient id="linear-gradient-19" x1="113.76" y1="106.98" x2="143.81" y2="149.98" xlink:href="#linear-gradient-3"/><linearGradient id="linear-gradient-20" x1="-5718.53" y1="31.6" x2="-5773.63" y2="67.98" gradientTransform="translate(5850.42 122.93) scale(1 -1)" xlink:href="#linear-gradient-10"/><linearGradient id="_55" x1="-5763.62" y1="53.16" x2="-5764.05" y2="71.45" gradientTransform="translate(5850.53 123.25) scale(1 -1)" gradientUnits="userSpaceOnUse"><stop offset="0" stop-color="#18459f"/><stop offset=".99" stop-color="#2874b5"/></linearGradient><filter id="luminosity-noclip-2" x="69.41" y="52.56" width="34.61" height="18.1" color-interpolation-filters="sRGB" filterUnits="userSpaceOnUse"><feFlood flood-color="#fff" result="bg"/><feBlend in="SourceGraphic" in2="bg"/></filter><filter id="luminosity-noclip-3" x="6530.11" y="-7902.39" width="-32766" height="32766" color-interpolation-filters="sRGB" filterUnits="userSpaceOnUse"><feFlood flood-color="#fff" result="bg"/><feBlend in="SourceGraphic" in2="bg"/></filter><mask id="mask-1" x="6530.11" y="-7902.39" width="-32766" height="32766" maskUnits="userSpaceOnUse"/><linearGradient id="_3" x1="-5740.25" y1="45.84" x2="-5775.07" y2="69.14" gradientTransform="translate(5850.53 123.23) scale(1 -1)" gradientUnits="userSpaceOnUse"><stop offset="0" stop-color="#000"/><stop offset="1" stop-color="gray"/></linearGradient><mask id="mask" x="69.41" y="52.56" width="34.61" height="18.1" maskUnits="userSpaceOnUse"><g class="cls-12"><g class="cls-131"><rect class="cls-32" x="69.41" y="52.56" width="34.61" height="18.1" rx="9.05" ry="9.05" transform="translate(173.43 123.23) rotate(180)"/></g></g></mask><linearGradient id="_14" x1="-5740.25" y1="45.84" x2="-5775.07" y2="69.14" gradientTransform="translate(5850.53 123.23) scale(1 -1)" gradientUnits="userSpaceOnUse"><stop offset="0" stop-color="#fff"/><stop offset="1" stop-color="#fff"/></linearGradient><linearGradient id="_45" x1="-5772.47" y1="55.47" x2="-5743.31" y2="73.23" gradientTransform="translate(5826.78 135.94) scale(1 -1)" gradientUnits="userSpaceOnUse"><stop offset=".29" stop-color="#53d8ff"/><stop offset="1" stop-color="#3840f7"/></linearGradient><linearGradient id="_45-2" x1="-5770.95" y1="53.23" x2="-5741.94" y2="70.9" gradientTransform="translate(5823.39 131.68) scale(1 -1)" xlink:href="#_45"/><linearGradient id="_45-3" x1="-5769.78" y1="50.82" x2="-5740.51" y2="68.65" gradientTransform="translate(5825.41 124.2) scale(1 -1)" xlink:href="#_45"/><linearGradient id="_45-4" x1="-5775.37" y1="60.08" x2="-5746.24" y2="77.82" gradientTransform="translate(5842.6 139.06) scale(1 -1)" xlink:href="#_45"/><linearGradient id="_45-5" x1="-5772.48" y1="55.08" x2="-5743.1" y2="72.97" gradientTransform="translate(5832.5 131.68) scale(1 -1)" xlink:href="#_45"/><linearGradient id="_45-6" x1="-5774.24" y1="57.97" x2="-5745.05" y2="75.74" gradientTransform="translate(5851.43 128.08) scale(1 -1)" xlink:href="#_45"/><linearGradient id="_45-7" x1="-5773.07" y1="56.11" x2="-5743.84" y2="73.91" gradientTransform="translate(5843 128.08) scale(1 -1)" xlink:href="#_45"/><linearGradient id="_45-8" x1="-5771.78" y1="54.01" x2="-5742.48" y2="71.85" gradientTransform="translate(5833.51 128.08) scale(1 -1)" xlink:href="#_45"/><linearGradient id="_45-9" x1="-5775.72" y1="60.18" x2="-5746.34" y2="78.07" gradientTransform="translate(5861.68 128.08) scale(1 -1)" xlink:href="#_45"/><linearGradient id="_45-10" x1="-5776.28" y1="61.04" x2="-5747.12" y2="78.8" gradientTransform="translate(5871.96 124.21) scale(1 -1)" xlink:href="#_45"/><linearGradient id="_45-11" x1="-5777.13" y1="62.46" x2="-5747.96" y2="80.22" gradientTransform="translate(5871.96 128.08) scale(1 -1)" xlink:href="#_45"/><linearGradient id="_45-12" x1="-5777.92" y1="63.78" x2="-5748.75" y2="81.54" gradientTransform="translate(5871.96 131.68) scale(1 -1)" xlink:href="#_45"/><linearGradient id="_45-13" x1="-5773.91" y1="57.28" x2="-5744.59" y2="75.13" gradientTransform="translate(5854.86 124.21) scale(1 -1)" xlink:href="#_45"/><linearGradient id="_45-14" x1="-5772.46" y1="55.02" x2="-5743.18" y2="72.85" gradientTransform="translate(5844.55 124.21) scale(1 -1)" xlink:href="#_45"/><linearGradient id="_45-15" x1="-5775.16" y1="59.32" x2="-5746.03" y2="77.06" gradientTransform="translate(5864.07 124.21) scale(1 -1)" xlink:href="#_45"/><linearGradient id="_45-16" x1="-5771.17" y1="52.98" x2="-5741.88" y2="70.82" gradientTransform="translate(5835.28 124.21) scale(1 -1)" xlink:href="#_45"/><linearGradient id="_45-17" x1="-5773.96" y1="57.53" x2="-5744.67" y2="75.37" gradientTransform="translate(-5677.1) rotate(-180) scale(1 -1)" xlink:href="#_45"/><linearGradient id="_45-18" x1="-5775.31" y1="59.67" x2="-5746.04" y2="77.49" gradientTransform="translate(-5677.1) rotate(-180) scale(1 -1)" xlink:href="#_45"/><linearGradient id="_45-19" x1="-5776.66" y1="61.77" x2="-5747.36" y2="79.62" gradientTransform="translate(-5677.1) rotate(-180) scale(1 -1)" xlink:href="#_45"/><linearGradient id="_45-20" x1="-5778.76" y1="65.2" x2="-5749.59" y2="82.96" gradientTransform="translate(5871.96 135.55) scale(1 -1)" xlink:href="#_45"/><linearGradient id="_45-21" x1="-5775.54" y1="60.01" x2="-5746.16" y2="77.9" gradientTransform="translate(5848.47 135.55) scale(1 -1)" xlink:href="#_45"/><linearGradient id="_45-22" x1="-5773.86" y1="57.41" x2="-5744.53" y2="75.27" gradientTransform="translate(5835.93 135.94) scale(1 -1)" xlink:href="#_45"/><linearGradient id="_45-23" x1="-5777.34" y1="62.87" x2="-5747.96" y2="80.76" gradientTransform="translate(5861.46 135.55) scale(1 -1)" xlink:href="#_45"/><linearGradient id="_45-24" x1="-5779.53" y1="66.49" x2="-5750.36" y2="84.25" gradientTransform="translate(5871.96 139.06) scale(1 -1)" xlink:href="#_45"/><linearGradient id="_45-25" x1="-5777.06" y1="62.47" x2="-5747.66" y2="80.37" gradientTransform="translate(5853.82 139.06) scale(1 -1)" xlink:href="#_45"/><linearGradient id="_45-26" x1="-5778.42" y1="64.76" x2="-5749.25" y2="82.53" gradientTransform="translate(5864.07 139.06) scale(1 -1)" xlink:href="#_45"/><linearGradient id="linear-gradient-21" x1="-5756.5" y1="52.92" x2="-5761.47" y2="57.64" gradientTransform="translate(-5677.1) rotate(-180) scale(1 -1)" xlink:href="#linear-gradient-12"/><linearGradient id="linear-gradient-22" x1="-5753.25" y1="53.25" x2="-5757.57" y2="57.35" gradientTransform="translate(-5677.1) rotate(-180) scale(1 -1)" xlink:href="#linear-gradient-12"/><linearGradient id="linear-gradient-23" x1="-5749.57" y1="53.26" x2="-5753.89" y2="57.36" gradientTransform="translate(-5677.1) rotate(-180) scale(1 -1)" xlink:href="#linear-gradient-12"/><linearGradient id="linear-gradient-24" x1="8153.54" y1="117.71" x2="8165.5" y2="117.71" gradientTransform="translate(-8074.21)" gradientUnits="userSpaceOnUse"><stop offset="0" stop-color="#cb236d"/><stop offset="1" stop-color="#4c246d"/></linearGradient><linearGradient id="linear-gradient-25" x1="8162.76" y1="94.7" x2="8159.49" y2="117.29" xlink:href="#linear-gradient-24"/><linearGradient id="linear-gradient-26" x1="8154.13" y1="114.1" x2="8157.37" y2="114.1" gradientTransform="translate(-8074.21)" gradientUnits="userSpaceOnUse"><stop offset="0" stop-color="#f9b776"/><stop offset="1" stop-color="#f47960"/></linearGradient><linearGradient id="linear-gradient-27" x1="-5781.28" y1="71.93" x2="-5750.76" y2="100.2" gradientTransform="translate(-5677.1) rotate(-180) scale(1 -1)" gradientUnits="userSpaceOnUse"><stop offset="0" stop-color="#7c27dd"/><stop offset="1" stop-color="#2b41d9"/></linearGradient><linearGradient id="linear-gradient-28" x1="8153.37" y1="120.15" x2="8165.54" y2="120.15" xlink:href="#linear-gradient-24"/><linearGradient id="linear-gradient-29" x1="8162.74" y1="96.75" x2="8159.42" y2="119.72" xlink:href="#linear-gradient-24"/><linearGradient id="linear-gradient-30" x1="8153.98" y1="116.48" x2="8157.27" y2="116.48" xlink:href="#linear-gradient-26"/><linearGradient id="_37" x1="-5772.23" y1="81.11" x2="-5738.59" y2="114.06" gradientTransform="translate(-5677.1) rotate(-180) scale(1 -1)" gradientUnits="userSpaceOnUse"><stop offset="0" stop-color="#7c27dd"/><stop offset=".96" stop-color="#5633db"/><stop offset="1" stop-color="#2b41d9"/></linearGradient><linearGradient id="linear-gradient-31" x1="7231.95" y1="39.13" x2="7241.58" y2="39.13" gradientTransform="translate(-5744.48 4385.84) rotate(-37.07)" xlink:href="#linear-gradient-26"/><linearGradient id="linear-gradient-32" x1="12860.72" y1="10857.01" x2="12848.98" y2="10872.54" gradientTransform="translate(-16740.2 -1034.89) rotate(-36.5)" xlink:href="#linear-gradient-26"/><linearGradient id="linear-gradient-33" x1="5688.93" y1="-4490.5" x2="5709.93" y2="-4479.08" gradientTransform="translate(-6033.34 3995.38) rotate(5.15)" xlink:href="#linear-gradient-10"/><linearGradient id="linear-gradient-34" x1="12846.04" y1="10869.48" x2="12854.22" y2="10861.09" gradientTransform="translate(-16740.2 -1034.89) rotate(-36.5)" xlink:href="#linear-gradient-26"/><linearGradient id="linear-gradient-35" x1="6313.14" y1="-310.09" x2="6321.53" y2="-310.09" gradientTransform="translate(-5815.18 2349.08) rotate(-18.34)" xlink:href="#linear-gradient-26"/><linearGradient id="linear-gradient-36" x1="-4657.25" y1="-85.52" x2="-4631.74" y2="-58.71" gradientTransform="translate(-3827.54 2600.63) rotate(147.82) scale(1 -1)" xlink:href="#linear-gradient-24"/><linearGradient id="linear-gradient-37" x1="-5792.37" y1="29.75" x2="-5696.03" y2="124.05" gradientTransform="translate(-5677.1) rotate(-180) scale(1 -1)" xlink:href="#linear-gradient-10"/><linearGradient id="linear-gradient-38" x1="-5710.62" y1="51.94" x2="-5725.91" y2="89.12" gradientTransform="translate(-5677.1) rotate(-180) scale(1 -1)" xlink:href="#linear-gradient-10"/><linearGradient id="linear-gradient-39" x1="-5760.87" y1="121.59" x2="-5749.19" y2="121.59" gradientTransform="translate(5832.97 243.19) scale(1 -1)" xlink:href="#linear-gradient-10"/><linearGradient id="linear-gradient-40" x1="-5754.74" y1="129.94" x2="-5742.1" y2="99.35" gradientTransform="translate(-5677.1) rotate(-180) scale(1 -1)" gradientUnits="userSpaceOnUse"><stop offset="0" stop-color="#2c759e"/><stop offset="1" stop-color="#051042"/></linearGradient><linearGradient id="linear-gradient-41" x1="-5754.12" y1="114.61" x2="-5765.12" y2="134.73" gradientTransform="translate(-5677.1) rotate(-180) scale(1 -1)" xlink:href="#linear-gradient-10"/><linearGradient id="linear-gradient-42" x1="-5755.5" y1="117.13" x2="-5763.93" y2="132.56" xlink:href="#linear-gradient-40"/><linearGradient id="linear-gradient-43" x1="-5756.94" y1="106.71" x2="-5710.62" y2="106.71" gradientTransform="translate(-5677.1) rotate(-180) scale(1 -1)" xlink:href="#linear-gradient-10"/><linearGradient id="linear-gradient-44" x1="-5723.12" y1="88.32" x2="-5761.36" y2="158.3" gradientTransform="translate(-5677.1) rotate(-180) scale(1 -1)" xlink:href="#linear-gradient-10"/><linearGradient id="linear-gradient-45" x1="147.89" y1="110.1" x2="148.48" y2="107.09" xlink:href="#linear-gradient-3"/><linearGradient id="linear-gradient-46" x1="152.97" y1="-319.5" x2="156.41" y2="-306.05" gradientTransform="translate(-6.24 487.57) rotate(-.12) scale(1 1.16) skewX(-.26)" xlink:href="#linear-gradient-10"/><linearGradient id="linear-gradient-47" x1="145.51" y1="123.66" x2="146.3" y2="103.92" xlink:href="#linear-gradient-3"/><linearGradient id="linear-gradient-48" x1="-155.64" y1="-27.59" x2="-175.67" y2="-11.86" gradientTransform="translate(307.38 160.04) rotate(3.47)" xlink:href="#linear-gradient-10"/><linearGradient id="linear-gradient-49" x1="-160.78" y1="-40.47" x2="-160.6" y2="-20.21" gradientTransform="translate(307.38 160.04) rotate(3.47)" xlink:href="#linear-gradient-24"/><linearGradient id="linear-gradient-50" x1="-142.64" y1="-22.6" x2="-116.94" y2="-15.06" gradientTransform="translate(307.38 160.04) rotate(3.47)" gradientUnits="userSpaceOnUse"><stop offset="0" stop-color="#c4421b"/><stop offset="1" stop-color="#5c0e16"/></linearGradient><linearGradient id="linear-gradient-51" x1="-13.56" y1="-419.47" x2="-33.59" y2="-403.74" gradientTransform="translate(109.83 542.21) rotate(6.79)" xlink:href="#linear-gradient-10"/><linearGradient id="linear-gradient-52" x1="-18.71" y1="-432.36" x2="-18.52" y2="-412.1" gradientTransform="translate(109.83 542.21) rotate(6.79)" xlink:href="#linear-gradient-24"/><linearGradient id="linear-gradient-53" x1="10.23" y1="-411.32" x2="35.94" y2="-403.78" gradientTransform="translate(109.83 542.21) rotate(6.79)" xlink:href="#linear-gradient-50"/><linearGradient id="_39" x1="125.51" y1="77.08" x2="149.73" y2="118.37" gradientUnits="userSpaceOnUse"><stop offset="0" stop-color="#cb236d"/><stop offset=".66" stop-color="#77246d"/><stop offset="1" stop-color="#4c246d"/></linearGradient><linearGradient id="_39-2" x1="141.04" y1="92.16" x2="140.11" y2="96.07" xlink:href="#_39"/><linearGradient id="linear-gradient-54" x1="149.43" y1="94.63" x2="134.77" y2="122.14" xlink:href="#linear-gradient-10"/><linearGradient id="linear-gradient-55" x1="143.93" y1="91.7" x2="129.27" y2="119.21" xlink:href="#linear-gradient-10"/><linearGradient id="linear-gradient-56" x1="149.4" y1="94.61" x2="134.75" y2="122.12" xlink:href="#linear-gradient-10"/><linearGradient id="linear-gradient-57" x1="155.09" y1="97.65" x2="140.44" y2="125.15" xlink:href="#linear-gradient-10"/><linearGradient id="linear-gradient-58" x1="134.02" y1="107.77" x2="137.68" y2="116.38" xlink:href="#linear-gradient-10"/><linearGradient id="linear-gradient-59" x1="137.4" y1="115.08" x2="138.49" y2="132.85" xlink:href="#linear-gradient-10"/><linearGradient id="linear-gradient-60" x1="137.66" y1="97.61" x2="133.23" y2="112.82" xlink:href="#linear-gradient-3"/><linearGradient id="linear-gradient-61" x1="138.19" y1="95.67" x2="132.54" y2="112.49" xlink:href="#linear-gradient-10"/><linearGradient id="linear-gradient-62" x1="136.15" y1="110.26" x2="138.29" y2="110.26" xlink:href="#linear-gradient-3"/><linearGradient id="linear-gradient-63" x1="135.17" y1="108.11" x2="142.81" y2="117.31" xlink:href="#linear-gradient-3"/><linearGradient id="linear-gradient-64" x1="132" y1="93.93" x2="142.15" y2="110.32" xlink:href="#linear-gradient-3"/><linearGradient id="linear-gradient-65" x1="135.38" y1="100.65" x2="136.93" y2="100.65" gradientUnits="userSpaceOnUse"><stop offset="0" stop-color="#9cfffb"/><stop offset="1" stop-color="#9bfffa"/></linearGradient><linearGradient id="linear-gradient-66" x1="1130.38" y1="430.97" x2="1127.99" y2="436.25" gradientTransform="translate(-815.12 -274.08) rotate(-4.24) scale(.82 1)" xlink:href="#linear-gradient-65"/><linearGradient id="linear-gradient-67" x1="99.46" y1="1208.26" x2="113.54" y2="1223.08" gradientTransform="translate(-149.5 -1088.69) rotate(-10.23) scale(.91 1) skewX(-1.15)" xlink:href="#linear-gradient-10"/><linearGradient id="linear-gradient-68" x1="-217.55" y1="1123.59" x2="-207.2" y2="1132.8" gradientTransform="translate(334.23 -1044.96) scale(.95 1)" xlink:href="#linear-gradient-3"/><linearGradient id="linear-gradient-69" x1="-536.32" y1="1151.12" x2="-528.81" y2="1162.38" gradientTransform="translate(670.44 -1061.33)" xlink:href="#linear-gradient-10"/><linearGradient id="linear-gradient-70" x1="142.62" y1="170.61" x2="155.18" y2="223.79" gradientTransform="translate(140.4 -144.06) rotate(36.4)" xlink:href="#linear-gradient-65"/><linearGradient id="linear-gradient-71" x1="141.86" y1="104.04" x2="156.39" y2="104.04" xlink:href="#linear-gradient-65"/><linearGradient id="linear-gradient-72" x1="83.07" y1="256.04" x2="93.69" y2="267.79" gradientTransform="translate(103.42 -141.6) rotate(7.45)" xlink:href="#linear-gradient-10"/><linearGradient id="linear-gradient-73" x1="146.26" y1="73.39" x2="135.88" y2="80.25" gradientTransform="translate(3.86 -6.65) rotate(2.75)" xlink:href="#linear-gradient-10"/><linearGradient id="linear-gradient-74" x1="129.72" y1="74.73" x2="158.12" y2="90.07" gradientTransform="matrix(1, 0, 0, 1, 0, 0)" xlink:href="#linear-gradient-50"/><linearGradient id="linear-gradient-75" x1="128.31" y1="86.45" x2="154.27" y2="67.35" xlink:href="#linear-gradient-3"/><linearGradient id="linear-gradient-76" x1="137.43" y1="66.44" x2="154.85" y2="85.63" xlink:href="#linear-gradient-10"/><linearGradient id="linear-gradient-77" x1="143.09" y1="61.34" x2="130.9" y2="88.21" xlink:href="#linear-gradient-65"/><linearGradient id="linear-gradient-78" x1="143.17" y1="61.22" x2="130.77" y2="88.55" xlink:href="#linear-gradient-10"/><linearGradient id="linear-gradient-79" x1="150.16" y1="64.55" x2="138.13" y2="91.05" xlink:href="#linear-gradient-65"/><linearGradient id="linear-gradient-80" x1="150.31" y1="64.47" x2="138" y2="91.61" xlink:href="#linear-gradient-10"/><linearGradient id="linear-gradient-81" x1="141.1" y1="81.28" x2="150.62" y2="89.93" xlink:href="#linear-gradient-10"/><linearGradient id="linear-gradient-82" x1="141.1" y1="83.34" x2="150.62" y2="91.99" xlink:href="#linear-gradient-10"/><linearGradient id="linear-gradient-83" x1="149.54" y1="64.24" x2="137.33" y2="91.15" xlink:href="#linear-gradient-65"/><linearGradient id="_41" x1="141.29" y1="82.36" x2="136.13" y2="92.48" gradientUnits="userSpaceOnUse"><stop offset="0" stop-color="#2b3582"/><stop offset=".78" stop-color="#1a1750"/><stop offset="1" stop-color="#150e42"/></linearGradient><linearGradient id="linear-gradient-84" x1="154.85" y1="66.65" x2="142.64" y2="93.56" xlink:href="#linear-gradient-65"/><linearGradient id="linear-gradient-85" x1="154.87" y1="66.87" x2="142.79" y2="93.5" xlink:href="#linear-gradient-10"/><linearGradient id="linear-gradient-86" x1="142.91" y1="128.17" x2="132.26" y2="79.76" xlink:href="#linear-gradient-65"/><linearGradient id="linear-gradient-87" x1="146.85" y1="127.3" x2="136.21" y2="78.9" gradientTransform="translate(80.27 -64.73) rotate(36.39)" xlink:href="#linear-gradient-65"/><linearGradient id="linear-gradient-88" x1="139.66" y1="125.61" x2="150.28" y2="137.36" gradientTransform="translate(18.03 -17.5) rotate(7.45)" xlink:href="#linear-gradient-10"/><linearGradient id="linear-gradient-89" x1="124.47" y1="81.23" x2="150.43" y2="62.14" xlink:href="#linear-gradient-3"/><linearGradient id="linear-gradient-90" x1="126.07" y1="81.5" x2="154.47" y2="96.84" gradientTransform="matrix(1, 0, 0, 1, 0, 0)" xlink:href="#linear-gradient-50"/><linearGradient id="linear-gradient-91" x1="134.21" y1="77.17" x2="129.54" y2="84.43" xlink:href="#linear-gradient-10"/><linearGradient id="linear-gradient-92" x1="-172.09" y1="-89.66" x2="-180.25" y2="-74.68" gradientTransform="translate(307.38 160.04) rotate(3.47)" xlink:href="#linear-gradient-10"/><linearGradient id="linear-gradient-93" x1="140.45" y1="67.06" x2="143.16" y2="62.57" gradientTransform="matrix(1, 0, 0, 1, 0, 0)" xlink:href="#linear-gradient-50"/><linearGradient id="linear-gradient-94" x1="48.26" y1="143.88" x2="56.96" y2="140.13" gradientTransform="translate(87.14 -81.04) rotate(-1.5)" xlink:href="#linear-gradient-50"/><linearGradient id="linear-gradient-95" x1="-1087.47" y1="555.38" x2="-1078.3" y2="555.38" gradientTransform="translate(795.51 -970.24) rotate(-30.37)" xlink:href="#linear-gradient-10"/><linearGradient id="linear-gradient-96" x1="48.08" y1="143.48" x2="56.79" y2="139.73" gradientTransform="translate(87.14 -81.04) rotate(-1.5)" xlink:href="#linear-gradient-50"/></defs><g><path class="cls-8" d="M19.29,123.38c4.79,1.44,10.22,.86,15.57,.85,19.83-.04,39.66,0,59.48,0h33.74c5.42,0,10.85,.1,16.27-.02,5.02-.11,10.45,.8,15.36-.52,6.46-1.73,12.17-7.05,16.48-12.25,11.33-13.68,12.9-32.21-.99-32.73-13.89-.51-15.36-9.45-7.83-16.09,7.53-6.64,9.43-23.45,1.53-36.71-7.9-13.25-17.48-11.69-29.67-10.78C127.05,16.03,128.19,.46,118.99,.01c-9.19-.45-22.29,10.13-30.8,11.85-8.52,1.73-23.07-13.55-41.81-8.49-18.73,5.05-10.31,22.94-16.94,26.37-6.63,3.43-9.14-6.15-17.46,3.16-8.32,9.31-5.78,25.88,2.29,34.58,8.07,8.7,1.09,18.57-5.08,34.48-2.07,5.34-1.38,11.04,1.96,15.58,2.35,3.2,5.12,4.92,8.15,5.83Z"/><path class="cls-9" d="M183.08,64.44s-.06-.08-.09-.12c-1.76-2.29-3.57-4.6-4.63-7.32-2.95-7.52,.46-16.03,.06-24.15-.31-6.2-2.98-12.24-7.31-16.51-4.64-4.59-10.88-7.02-17.11-8.54-4.08-1-8.32-1.66-12.47-1.03-4.3,.66-8.28,2.67-12.18,4.66-4.46,2.27-8.93,4.54-13.39,6.81-2.81,1.43-5.64,2.87-8.64,3.81-16.5,5.16-31.82-8.93-48.26-9.01-6.29-.03-12.97,2.2-17.91,6.3-4.85,4.02-7.95,9.36-11.75,14.28-4.01,5.19-11.79,8.08-16.83,12.29-4.52,3.79-10.77,9.8-11.98,16.04-1.08,5.55,1.88,12.87,5.46,16.87,2.7,3.02,10.06,3.62,14.19,4.7,5.83,1.53,11.85,3.55,16.01,8.07,4.52,4.92,6.12,12.02,9.95,17.53,9.48,13.64,27.35,11.73,40.84,7.45,7.32-2.32,14.68-3.32,21.99-5.26,7.66-2.03,16.13-.65,23.86,.53,10.8,1.65,21.75,3.89,32.56,2.28,15.36-2.28,32.2-15.84,26.81-33.72-1.79-5.95-5.42-11.08-9.15-15.96Z"/></g><g><path class="cls-35" d="M144.07,124.16h41.43c1.32,0,2.39-1.07,2.39-2.39V59.72c0-1.32-1.07-2.39-2.39-2.39l-41.76-.11c-1.33,0-2.41,1.08-2.4,2.4l.33,62.16c0,1.32,1.08,2.38,2.39,2.38Z"/><path class="cls-36" d="M146.1,60.28l37.04,.23c1.34,0,2.42,1.1,2.41,2.44l-.26,55.69c0,1.32-1.06,2.39-2.38,2.42l-35.99,.66c-1.34,.02-2.45-1.05-2.47-2.39l-.79-56.58c-.02-1.36,1.08-2.47,2.44-2.46Z"/><rect class="cls-14" x="147.61" y="62.67" width="29.99" height="1.71" rx=".73" ry=".73"/><path class="cls-14" d="M150.8,66.61h0c.02,.38,.33,.68,.71,.69l24.96,.45c.41,0,.74-.32,.74-.73v-.06c0-.4-.32-.72-.71-.73l-24.96-.4c-.42,0-.76,.34-.74,.77Z"/><path class="cls-15" d="M148.25,119.8c-1.12,0-2.05-.91-2.07-2.03l-.81-45.55h0c-.02-1.14,.89-2.08,2.03-2.11l33.7-.66c.56,0,1.08,.19,1.47,.58,.4,.38,.62,.9,.63,1.45l.87,45.8c.01,.56-.2,1.08-.58,1.48-.39,.4-.91,.62-1.46,.63l-33.76,.41s-.02,0-.02,0Zm32.89-49.65s-.02,0-.03,0l-33.7,.66c-.76,.01-1.37,.64-1.35,1.4h0s.81,45.55,.81,45.55c.01,.76,.64,1.37,1.4,1.36l33.76-.41c.37,0,.72-.15,.97-.42,.26-.27,.4-.62,.39-.99l-.87-45.8c0-.37-.16-.71-.42-.97-.26-.25-.6-.39-.96-.39Z"/><path class="cls-15" d="M182.92,74.73h-36.77c-.19,0-.34-.15-.34-.34s.15-.34,.34-.34h36.77c.19,0,.34,.15,.34,.34s-.15,.34-.34,.34Z"/></g><g class="cls-43"><path class="cls-39" d="M156.47,11.63c2.54,7.59,15.49,52.38-24.35,72.09,0,0-16.12-27.29,23.2-72.32,.34-.39,.99-.26,1.15,.23Z"/><path class="cls-18" d="M154,19.27c-.2,2.55-.45,5.1-.72,7.64-.27,2.54-.58,5.08-.91,7.62-.67,5.07-1.45,10.13-2.38,15.16-.94,5.03-2.03,10.04-3.39,14.98-.67,2.47-1.43,4.92-2.29,7.34-.86,2.42-1.81,4.81-2.96,7.11-.08,.17-.29,.24-.46,.16-.17-.08-.24-.29-.16-.46h0s0,0,0,0c1.14-2.27,2.11-4.63,2.97-7.02,.86-2.4,1.64-4.83,2.32-7.28,1.39-4.91,2.5-9.9,3.47-14.91,.97-5.02,1.78-10.06,2.48-15.12,.35-2.53,.67-5.07,.96-7.6,.29-2.54,.56-5.08,.77-7.62h0c0-.08,.08-.14,.16-.13,.08,0,.14,.08,.13,.16Z"/></g><g><path class="cls-37" d="M179.92,20.17c-.01-.79-1.08-1.04-1.44-.33-3.46,6.82-13.09,24.43-24.15,32.6-18.02,13.29-33.09,37.69-26.31,53.22,0,0,53.34,.72,51.9-85.48Z"/><path class="cls-21" d="M176.4,30.19c-.06,.22-.14,.41-.21,.61l-.22,.6-.45,1.19c-.31,.79-.62,1.57-.94,2.36-.64,1.57-1.3,3.12-1.97,4.68-1.35,3.1-2.78,6.17-4.26,9.21-1.47,3.04-3.03,6.05-4.64,9.02l-.6,1.12-.62,1.11c-.42,.74-.82,1.48-1.24,2.21l-1.27,2.2-1.3,2.18c-3.5,5.79-7.3,11.41-11.49,16.73-.26,.34-.53,.66-.8,.99l-.81,.98-.81,.98c-.27,.32-.55,.64-.83,.96-.56,.64-1.1,1.28-1.67,1.91l-1.72,1.86c-2.35,2.44-4.8,4.78-7.4,6.94-.04,.03-.09,.03-.12-.01-.03-.04-.03-.09,0-.12h0c2.55-2.22,4.96-4.58,7.26-7.05l1.7-1.88c.56-.63,1.1-1.28,1.65-1.92,.27-.32,.55-.64,.82-.97l.79-.99,.79-.99c.27-.33,.53-.66,.78-.99l1.54-2.01c.51-.67,1-1.36,1.5-2.04,.25-.34,.5-.68,.75-1.02l.73-1.04,.73-1.04c.24-.34,.48-.69,.72-1.04,1.9-2.79,3.7-5.65,5.46-8.53,3.51-5.77,6.72-11.72,9.73-17.76,1.5-3.02,2.95-6.08,4.34-9.16,.7-1.54,1.38-3.08,2.04-4.64,.33-.78,.66-1.56,.97-2.34l.47-1.18,.23-.59c.07-.2,.15-.4,.21-.58v-.02s.07-.07,.11-.06c.04,.01,.07,.06,.06,.11Z"/></g><g><path class="cls-38" d="M132.67,123.05s.52-10.95,11.85-21.76c10.51-10.02,36.31-33.18,42.46-46.21,.27-.58,1.13-.38,1.12,.26-.11,6.85-1.73,23.97-14.01,40.72-15.83,21.59-41.42,26.99-41.42,26.99Z"/><path class="cls-20" d="M182.66,67.23c-.23,1.5-.65,2.96-1.15,4.39-.06,.18-.12,.36-.18,.54l-.2,.53-.41,1.06-.45,1.04c-.15,.35-.29,.7-.47,1.04-1.31,2.74-2.83,5.37-4.59,7.86-.41,.64-.89,1.23-1.34,1.84-.46,.6-.9,1.22-1.4,1.79l-1.46,1.75c-.24,.3-.51,.57-.76,.85l-.78,.83-.78,.83-.39,.42-.41,.4-1.63,1.59c-.27,.26-.54,.53-.82,.79l-.84,.76-1.68,1.53-1.7,1.51c-.57,.5-1.13,1.01-1.7,1.5-1.14,.99-2.29,1.98-3.45,2.95-1.15,.98-2.32,1.94-3.48,2.91l-3.52,2.87c-2.35,1.91-4.69,3.81-6.97,5.79-.58,.49-1.13,1-1.69,1.5-.28,.25-.55,.52-.82,.78-.27,.26-.55,.52-.81,.79-.51,.55-1.05,1.08-1.52,1.66l-.37,.43c-.06,.07-.12,.14-.18,.22l-.17,.23-.67,.91h0s-.08,.05-.12,.02c-.04-.03-.05-.08-.02-.12,.83-1.27,1.8-2.45,2.84-3.56,.26-.28,.53-.54,.79-.81,.27-.27,.53-.54,.81-.8,.55-.52,1.09-1.05,1.66-1.55,2.25-2.03,4.58-3.96,6.9-5.9,2.32-1.94,4.64-3.88,6.93-5.84,2.3-1.96,4.57-3.96,6.82-5.97l1.67-1.53,.84-.76c.28-.25,.54-.52,.82-.78l1.63-1.57,.41-.39,.39-.41,.77-.82c2.09-2.17,4-4.51,5.77-6.93,1.79-2.42,3.36-5,4.72-7.69,.18-.33,.33-.68,.49-1.02l.48-1.02,.44-1.04,.22-.52c.07-.18,.13-.35,.2-.53,.13-.35,.27-.7,.39-1.06l.35-1.07c.21-.72,.43-1.45,.57-2.19,0,0,0,0,.01,0,0,0,0,0,0,.01Z"/></g><g class="cls-43"><path class="cls-33" d="M16.68,28.57c-2.54,7.59-15.49,52.38,24.35,72.09,0,0,16.12-27.29-23.2-72.32-.34-.39-.99-.26-1.15,.23Z"/><path class="cls-18" d="M19.44,36.19c.21,2.54,.48,5.09,.77,7.62,.29,2.54,.61,5.07,.96,7.6,.7,5.06,1.51,10.11,2.48,15.12,.97,5.01,2.09,10,3.47,14.91,.68,2.46,1.46,4.89,2.32,7.28,.87,2.39,1.83,4.75,2.97,7.02h0c.09,.17,.02,.38-.15,.46-.17,.09-.38,.02-.46-.15h0c-1.14-2.31-2.1-4.7-2.96-7.12-.86-2.42-1.62-4.87-2.29-7.34-1.36-4.94-2.45-9.95-3.39-14.98-.94-5.03-1.72-10.09-2.38-15.16-.33-2.54-.64-5.08-.91-7.62-.27-2.54-.52-5.09-.72-7.64,0-.08,.05-.15,.13-.16,.08,0,.15,.05,.16,.13h0Z"/></g><g><path class="cls-34" d="M55.43,123.05s-.52-10.95-11.85-21.76C33.07,91.27,7.27,68.11,1.12,55.08,.85,54.5-.01,54.7,0,55.34c.11,6.85,1.73,23.97,14.01,40.72,15.83,21.59,41.42,26.99,41.42,26.99Z"/><path class="cls-20" d="M5.46,67.23c.14,.74,.36,1.47,.57,2.19l.35,1.07c.12,.36,.26,.71,.39,1.06,.07,.18,.13,.35,.2,.53l.22,.52,.44,1.04,.48,1.02c.17,.34,.31,.69,.49,1.02,1.35,2.69,2.93,5.27,4.72,7.69,1.78,2.43,3.68,4.77,5.77,6.93l.77,.82,.39,.41,.41,.39,1.63,1.57c.27,.26,.54,.53,.82,.78l.84,.76,1.67,1.53c2.25,2.01,4.52,4.01,6.82,5.97,2.3,1.96,4.62,3.9,6.93,5.84,2.32,1.94,4.65,3.87,6.9,5.9,.57,.5,1.11,1.03,1.66,1.55,.28,.26,.54,.53,.81,.8,.26,.27,.54,.54,.79,.81,1.04,1.11,2,2.29,2.84,3.56,.03,.04,.02,.09-.02,.12-.04,.03-.09,.02-.12-.02h0s-.67-.91-.67-.91l-.17-.23c-.06-.08-.12-.14-.18-.22l-.37-.43c-.47-.58-1.01-1.12-1.52-1.66-.26-.27-.54-.53-.81-.79-.27-.26-.54-.53-.82-.78-.56-.5-1.11-1.02-1.69-1.5-2.28-1.98-4.63-3.88-6.97-5.79l-3.52-2.87c-1.16-.97-2.33-1.93-3.48-2.91-1.16-.97-2.31-1.96-3.45-2.95-.57-.49-1.14-1-1.7-1.5l-1.7-1.51-1.68-1.53-.84-.76c-.28-.25-.55-.53-.82-.79l-1.63-1.59-.41-.4-.39-.42-.78-.83-.78-.83c-.26-.28-.52-.55-.76-.85l-1.46-1.75c-.5-.57-.94-1.19-1.4-1.79-.45-.61-.93-1.2-1.34-1.84-1.75-2.48-3.28-5.12-4.59-7.86-.17-.34-.31-.69-.47-1.04l-.45-1.04-.41-1.06-.2-.53c-.06-.18-.12-.36-.18-.54-.5-1.43-.92-2.89-1.15-4.39,0,0,0-.01,0-.01,0,0,.01,0,.01,0Z"/></g><g><g><polygon class="cls-113" points="83.78 98.63 81.39 120.03 109.08 120.03 105.47 98.63 83.78 98.63"/><path class="cls-114" d="M25.71,35.31v58.87c0,4.84,3.86,8.8,8.7,8.93,21.5,.55,96.7,1.9,117.17,1.6,3.52-.05,6.37-2.87,6.47-6.38,.39-13.68,1.04-46.56-1.34-61.83-.5-3.22-3.21-5.62-6.47-5.72-18.02-.58-97.73-2.41-118.19-1.95-3.53,.08-6.35,2.96-6.35,6.49Z"/><path class="cls-112" d="M29.41,35.02v55.93c0,2.83,2.27,5.13,5.1,5.17l114.14,1.41c2.8,.04,5.1-2.21,5.11-5.02l.19-55.43c0-2-1.59-3.65-3.59-3.7l-116.85-2.36c-2.24-.05-4.09,1.75-4.09,3.99Z"/><path class="cls-111" d="M115.04,124.41h-40.52c-1.1,0-1.93-.78-1.71-1.63l.52-2.06c.16-.62,.84-1.07,1.64-1.1l39.06-1.22c.84-.03,1.59,.42,1.78,1.06l.94,3.27c.24,.85-.59,1.66-1.71,1.66Z"/><path class="cls-13" d="M96.34,120.23c-.1,0-.17-.08-.18-.17,0-.1,.08-.18,.17-.18l1.67-.02c.09,0,.18,.08,.18,.17,0,.1-.08,.18-.17,.18l-1.67,.02h0Z"/></g><g class="cls-10"><g><g class="cls-42"><path class="cls-17" d="M52.5,62.54h-12.89c-1.76,0-3.16,1.37-3.08,3l1.47,27.84c.08,1.53,1.43,2.72,3.08,2.72h11.42c1.7,0,3.08-1.28,3.08-2.86v-27.84c0-1.58-1.38-2.86-3.08-2.86Z"/><path class="cls-17" d="M83.5,37.27l-45.24,.65c-1.74,.02-3.12,1.39-3.03,3l.75,14.3c.08,1.53,1.43,2.72,3.08,2.72h44.48c1.7,0,3.08-1.28,3.08-2.86v-14.95c0-1.6-1.41-2.89-3.13-2.86Z"/><path class="cls-17" d="M83.55,62.54h-21.07c-1.7,0-3.08,1.28-3.08,2.86v27.84c0,1.58,1.38,2.86,3.08,2.86h21.07c1.7,0,3.08-1.28,3.08-2.86v-27.84c0-1.58-1.38-2.86-3.08-2.86Z"/></g><g><ellipse class="cls-17" cx="101.89" cy="45.07" rx="7.74" ry="7.19"/><ellipse class="cls-17" cx="121.12" cy="45.07" rx="7.74" ry="7.19"/><ellipse class="cls-17" cx="140.35" cy="45.31" rx="7.74" ry="7.19"/><g><path class="cls-101" d="M106.49,43.55c.24,.54,.37,1.13,.37,1.76,0,2.55-2.23,4.62-4.97,4.62s-4.97-2.07-4.97-4.62,2.23-4.62,4.97-4.62c.08,0,.17,0,.25,0v-1.17c-.08,0-.17,0-.25,0-3.44,0-6.23,2.59-6.23,5.79s2.79,5.79,6.23,5.79,6.23-2.59,6.23-5.79c0-.79-.17-1.54-.48-2.22l-1.16,.47Z"/><path class="cls-107" d="M123.69,49.22c-.77,.45-1.67,.71-2.65,.71-2.74,0-4.97-2.07-4.97-4.62s2.23-4.62,4.97-4.62c.08,0,.17,0,.25,0v-1.17c-.08,0-.17,0-.25,0-3.44,0-6.23,2.59-6.23,5.79s2.79,5.79,6.23,5.79c1.2,0,2.32-.32,3.27-.86l-.62-1.02Z"/><path class="cls-109" d="M144.5,47.91c-.89,1.22-2.4,2.02-4.11,2.02-2.75,0-4.97-2.07-4.97-4.62s2.23-4.62,4.97-4.62c.08,0,.17,0,.25,0v-1.17c-.08,0-.17,0-.25,0-3.44,0-6.23,2.59-6.23,5.79s2.79,5.79,6.23,5.79c2.13,0,4.01-.99,5.13-2.51l-1.02-.69Z"/></g><g class="cls-40"><path class="cls-17" d="M108.2,55.31h-12.61c-.79,0-1.43,.6-1.43,1.33s.64,1.33,1.43,1.33h12.61c.79,0,1.43-.6,1.43-1.33s-.64-1.33-1.43-1.33Z"/><path class="cls-17" d="M127.43,55.31h-12.61c-.79,0-1.43,.6-1.43,1.33s.64,1.33,1.43,1.33h12.61c.79,0,1.43-.6,1.43-1.33s-.64-1.33-1.43-1.33Z"/><path class="cls-17" d="M134.05,57.98h12.61c.79,0,1.43-.6,1.43-1.33s-.64-1.33-1.43-1.33h-12.61c-.79,0-1.43,.6-1.43,1.33s.64,1.33,1.43,1.33Z"/><path class="cls-17" d="M108.2,59.46h-12.61c-.79,0-1.43,.6-1.43,1.33v7.84c0,.74,.64,1.33,1.43,1.33h12.61c.79,0,1.43-.6,1.43-1.33v-7.84c0-.74-.64-1.33-1.43-1.33Z"/><path class="cls-17" d="M127.43,59.46h-12.61c-.79,0-1.43,.6-1.43,1.33v7.84c0,.74,.64,1.33,1.43,1.33h12.61c.79,0,1.43-.6,1.43-1.33v-7.84c0-.74-.64-1.33-1.43-1.33Z"/><path class="cls-17" d="M146.66,59.46h-12.61c-.79,0-1.43,.6-1.43,1.33v7.84c0,.74,.64,1.33,1.43,1.33h12.61c.79,0,1.43-.6,1.43-1.33v-7.84c0-.74-.64-1.33-1.43-1.33Z"/></g></g><path class="cls-110" d="M61.85,80.46v10.57c0,1.65,1.44,2.99,3.22,2.99h15.58c1.83,0,3.31-1.38,3.31-3.07v-15.92c0-1.34-1.78-1.97-2.74-.97l-3.01,3.13c-1.16,1.2-3.12,1.37-4.5,.39l-.29-.21c-1.06-.76-2.55-.73-3.57,.08l-1.65,1.3c-1.27,1-3.04,1.25-4.57,.62h0c-.84-.34-1.78,.23-1.78,1.08Z"/><g class="cls-41"><rect class="cls-13" x="94.92" y="85.13" width="2.61" height="10.98"/><rect class="cls-13" x="99.28" y="88.9" width="2.61" height="7.21"/><rect class="cls-13" x="103.64" y="79.57" width="2.61" height="16.54"/><rect class="cls-13" x="108" y="92.14" width="2.61" height="3.97"/><rect class="cls-13" x="112.37" y="81.79" width="2.61" height="14.33"/><rect class="cls-13" x="116.73" y="84.27" width="2.61" height="11.85"/><rect class="cls-13" x="121.09" y="86.96" width="2.61" height="9.15"/><rect class="cls-13" x="125.45" y="76.23" width="2.61" height="19.88"/><rect class="cls-13" x="129.81" y="78.33" width="2.61" height="17.78"/><rect class="cls-13" x="134.17" y="81.52" width="2.61" height="14.6"/><rect class="cls-13" x="138.54" y="92.51" width="2.61" height="3.6"/><rect class="cls-13" x="142.9" y="85.51" width="2.61" height="10.61"/></g><path class="cls-16" d="M101.75,76.23h-11.49c-.5,0-.91,.38-.91,.85s.41,.85,.91,.85h11.49c.5,0,.91-.38,.91-.85s-.41-.85-.91-.85Z"/><path class="cls-17" d="M101.75,73.57h-11.49c-.5,0-.91,.38-.91,.85s.41,.85,.91,.85h11.49c.5,0,.91-.38,.91-.85s-.41-.85-.91-.85Z"/><path class="cls-16" d="M122.47,76.23h-11.49c-.5,0-.91,.38-.91,.85s.41,.85,.91,.85h11.49c.5,0,.91-.38,.91-.85s-.41-.85-.91-.85Z"/><path class="cls-17" d="M122.47,73.57h-11.49c-.5,0-.91,.38-.91,.85s.41,.85,.91,.85h11.49c.5,0,.91-.38,.91-.85s-.41-.85-.91-.85Z"/></g></g></g><g><path class="cls-102" d="M169.5,124.68h-41.43c-1.32,0-2.39-.79-2.39-1.77v-29.55c0-.97,1.07-1.76,2.39-1.77l41.76-.08c1.33,0,2.41,.8,2.4,1.78l-.33,29.63c0,.97-1.08,1.76-2.39,1.76Z"/><path class="cls-19" d="M167.47,93.78l-37.04,.17c-1.34,0-2.42,.81-2.41,1.8l.26,24.85c0,.97,1.06,1.77,2.38,1.78l35.99,.49c1.34,.02,2.45-.77,2.47-1.77l.79-25.51c.02-1-1.08-1.82-2.44-1.82Z"/><path class="cls-14" d="M165.96,96.08v.19c0,.3-.33,.54-.73,.54h-28.54c-.4,0-.73-.24-.73-.54v-.19c0-.3,.33-.54,.73-.54h28.54c.4,0,.73,.24,.73,.54Z"/><path class="cls-14" d="M162.78,98.45h0c-.02,.28-.33,.5-.71,.51l-24.96,.34c-.41,0-.74-.24-.74-.54v-.04c0-.29,.32-.53,.71-.54l24.96-.29c.42,0,.76,.25,.74,.57Z"/><path class="cls-13" d="M165.33,121.55s-.02,0-.02,0l-33.76-.3c-.65,0-1.24-.24-1.63-.64-.28-.29-.43-.65-.42-1.01l.87-17.55c.02-.87,.95-1.58,2.07-1.58,.01,0,.03,0,.04,0l33.7,.48c.64,0,1.23,.24,1.62,.64,.28,.29,.42,.64,.41,1.01,0,0,0,0,0,0l-.81,17.36c-.02,.89-.93,1.58-2.07,1.58Zm-32.89-20.39c-.74,0-1.37,.41-1.38,.91l-.87,17.55c0,.22,.12,.4,.22,.51,.26,.27,.68,.43,1.14,.43l33.76,.3s.01,0,.02,0c.74,0,1.37-.42,1.38-.92l.81-17.36c0-.23-.12-.4-.22-.51-.25-.26-.68-.42-1.13-.43l-33.7-.48s-.02,0-.03,0Zm35.43,1.44h0Z"/><path class="cls-13" d="M167.42,104.55h-36.77c-.19,0-.34-.15-.34-.34s.15-.34,.34-.34h36.77c.19,0,.34,.15,.34,.34s-.15,.34-.34,.34Z"/></g><g><path class="cls-108" d="M99.32,111.56l.32,11.51c.03,.89,1.24,1.61,2.73,1.61h37.68c1.51,0,2.73-.73,2.73-1.64v-10.77c0-.88-1.17-1.61-2.64-1.64l-38-.74c-1.56-.03-2.85,.73-2.82,1.67Z"/><path class="cls-14" d="M102.44,112.68l.82,10.58c.03,.41,.6,.72,1.28,.72l34.31-.36c.68,0,1.23-.34,1.23-.75v-9.18c0-.4-.52-.73-1.19-.75l-35.13-1.04c-.74-.02-1.35,.34-1.32,.79Z"/><path class="cls-14" d="M105.18,113.68v.76c0,.27,.37,.49,.82,.48l29.6-.29c.44,0,.79-.22,.79-.48h0c0-.26-.35-.47-.78-.48l-29.6-.47c-.45,0-.82,.21-.82,.48Z"/><path class="cls-14" d="M105.62,116.56v.7c0,.27,.38,.49,.83,.48l28.19-.59c.43,0,.77-.22,.77-.48v-.22c0-.27-.36-.48-.81-.48l-28.19,.11c-.44,0-.8,.22-.8,.48Z"/></g><g><g><g><rect class="cls-22" x="83.93" y="57.68" width="2.73" height="28.58" transform="translate(170.59 143.94) rotate(180)"/><rect class="cls-22" x="54.6" y="84.17" width="32.06" height="2.1" transform="translate(141.25 170.43) rotate(180)"/></g><g><rect class="cls-104" x="66.15" y="50.07" width="41.01" height="22.8" rx="11.4" ry="11.4" transform="translate(173.32 122.93) rotate(180)"/><rect class="cls-6" x="67.34" y="51.49" width="38.75" height="20.27" rx="10.13" ry="10.13" transform="translate(173.43 123.25) rotate(-180)"/><g class="cls-11"><rect class="cls-7" x="69.41" y="52.56" width="34.61" height="18.1" rx="9.05" ry="9.05" transform="translate(173.43 123.23) rotate(180)"/></g><g><g><rect class="cls-3" x="73.29" y="67.71" width="3.09" height=".52" rx=".26" ry=".26" transform="translate(149.68 135.94) rotate(-180)"/><rect class="cls-30" x="72" y="65.58" width="2.29" height=".52" rx=".26" ry=".26" transform="translate(146.29 131.68) rotate(180)"/><rect class="cls-27" x="72.18" y="61.84" width="3.96" height=".52" rx=".26" ry=".26" transform="translate(148.31 124.2) rotate(180)"/><rect class="cls-28" x="81.31" y="69.27" width="2.89" height=".52" rx=".26" ry=".26" transform="translate(165.5 139.06) rotate(180)"/><rect class="cls-23" x="74.84" y="65.58" width="5.72" height=".52" rx=".26" ry=".26" transform="translate(155.4 131.68) rotate(180)"/><rect class="cls-26" x="85.53" y="63.78" width="3.28" height=".52" rx=".26" ry=".26" transform="translate(174.33 128.08) rotate(180)"/><rect class="cls-29" x="81.14" y="63.78" width="3.62" height=".52" rx=".26" ry=".26" transform="translate(165.89 128.08) rotate(180)"/><rect class="cls-25" x="75.99" y="63.78" width="4.42" height=".52" rx=".26" ry=".26" transform="translate(156.41 128.08) rotate(180)"/><rect class="cls-24" x="89.43" y="63.78" width="5.72" height=".52" rx=".26" ry=".26" transform="translate(184.58 128.08) rotate(-180)"/><rect class="cls-140" x="95.88" y="61.85" width="3.09" height=".52" rx=".26" ry=".26" transform="translate(194.86 124.21) rotate(-180)"/><rect class="cls-139" x="95.88" y="63.78" width="3.09" height=".52" rx=".26" ry=".26" transform="translate(194.86 128.08) rotate(180)"/><rect class="cls-143" x="95.88" y="65.58" width="3.09" height=".52" rx=".26" ry=".26" transform="translate(194.86 131.68) rotate(180)"/><rect class="cls-142" x="86.59" y="61.85" width="4.58" height=".52" rx=".26" ry=".26" transform="translate(177.76 124.21) rotate(180)"/><rect class="cls-146" x="81.67" y="61.85" width="4.11" height=".52" rx=".26" ry=".26" transform="translate(167.44 124.21) rotate(180)"/><rect class="cls-145" x="92.06" y="61.85" width="2.86" height=".52" rx=".26" ry=".26" transform="translate(186.97 124.21) rotate(-180)"/><rect class="cls-148" x="76.97" y="61.85" width="4.24" height=".52" rx=".26" ry=".26" transform="translate(158.18 124.21) rotate(-180)"/><rect class="cls-147" x="81.11" y="65.58" width="4.21" height=".52" rx=".26" ry=".26"/><rect class="cls-144" x="86.1" y="65.58" width="3.96" height=".52" rx=".26" ry=".26"/><rect class="cls-141" x="90.65" y="65.58" width="4.45" height=".52" rx=".26" ry=".26"/><rect class="cls-134" x="95.88" y="67.51" width="3.09" height=".52" rx=".26" ry=".26" transform="translate(194.86 135.55) rotate(180)"/><rect class="cls-135" x="82.75" y="67.51" width="5.87" height=".52" rx=".26" ry=".26" transform="translate(171.36 135.55) rotate(-180)"/><rect class="cls-136" x="77.03" y="67.71" width="4.78" height=".52" rx=".26" ry=".26" transform="translate(158.83 135.94) rotate(-180)"/><rect class="cls-137" x="89.32" y="67.51" width="5.72" height=".52" rx=".26" ry=".26" transform="translate(184.36 135.55) rotate(180)"/><rect class="cls-138" x="95.88" y="69.27" width="3.09" height=".52" rx=".26" ry=".26" transform="translate(194.86 139.06) rotate(-180)"/><rect class="cls-132" x="85.28" y="69.27" width="6.14" height=".52" rx=".26" ry=".26" transform="translate(176.71 139.06) rotate(180)"/><rect class="cls-133" x="91.92" y="69.27" width="3.12" height=".52" rx=".26" ry=".26" transform="translate(186.96 139.06) rotate(180)"/></g><path class="cls-17" d="M85.24,53.71l12.41,.19c.48,0,.85,.4,.83,.86l-.21,4.08c-.02,.44-.39,.78-.84,.78h-12.2c-.47,0-.85-.37-.85-.82v-4.26c0-.46,.39-.82,.86-.82Z"/><g><ellipse class="cls-17" cx="81.34" cy="54.72" rx="1.47" ry="1.36"/><ellipse class="cls-17" cx="77.7" cy="54.72" rx="1.47" ry="1.36"/><ellipse class="cls-17" cx="74.06" cy="54.77" rx="1.47" ry="1.36"/><g><path class="cls-105" d="M80.47,54.43c-.05,.1-.07,.21-.07,.33,0,.48,.42,.87,.94,.87s.94-.39,.94-.87-.42-.87-.94-.87c-.02,0-.03,0-.05,0v-.22s.03,0,.05,0c.65,0,1.18,.49,1.18,1.1s-.53,1.1-1.18,1.1-1.18-.49-1.18-1.1c0-.15,.03-.29,.09-.42l.22,.09Z"/><path class="cls-103" d="M77.21,55.51c.15,.09,.32,.13,.5,.13,.52,0,.94-.39,.94-.87s-.42-.87-.94-.87c-.02,0-.03,0-.05,0v-.22s.03,0,.05,0c.65,0,1.18,.49,1.18,1.1s-.53,1.1-1.18,1.1c-.23,0-.44-.06-.62-.16l.12-.19Z"/><path class="cls-106" d="M73.27,55.26c.17,.23,.45,.38,.78,.38,.52,0,.94-.39,.94-.87s-.42-.87-.94-.87c-.02,0-.03,0-.05,0v-.22s.03,0,.05,0c.65,0,1.18,.49,1.18,1.1s-.53,1.1-1.18,1.1c-.4,0-.76-.19-.97-.47l.19-.13Z"/></g><g class="cls-40"><path class="cls-17" d="M80.15,56.66h2.39c.15,0,.27,.11,.27,.25s-.12,.25-.27,.25h-2.39c-.15,0-.27-.11-.27-.25s.12-.25,.27-.25Z"/><path class="cls-17" d="M76.51,56.66h2.39c.15,0,.27,.11,.27,.25s-.12,.25-.27,.25h-2.39c-.15,0-.27-.11-.27-.25s.12-.25,.27-.25Z"/><path class="cls-17" d="M75.25,57.16h-2.39c-.15,0-.27-.11-.27-.25s.12-.25,.27-.25h2.39c.15,0,.27,.11,.27,.25s-.12,.25-.27,.25Z"/><path class="cls-17" d="M80.15,57.44h2.39c.15,0,.27,.11,.27,.25v1.49c0,.14-.12,.25-.27,.25h-2.39c-.15,0-.27-.11-.27-.25v-1.49c0-.14,.12-.25,.27-.25Z"/><path class="cls-17" d="M76.51,57.44h2.39c.15,0,.27,.11,.27,.25v1.49c0,.14-.12,.25-.27,.25h-2.39c-.15,0-.27-.11-.27-.25v-1.49c0-.14,.12-.25,.27-.25Z"/><path class="cls-17" d="M72.87,57.44h2.39c.15,0,.27,.11,.27,.25v1.49c0,.14-.12,.25-.27,.25h-2.39c-.15,0-.27-.11-.27-.25v-1.49c0-.14,.12-.25,.27-.25Z"/></g></g></g></g></g><g><g><path d="M44.89,89.52l-1.21-26.71c4.84-7.77,6.54,4.14,4.63,26.71h-3.41Z"/><path d="M43.68,95.48h35.46c1.76-3.19-1.16-5.94-9.62-7.73l-24.16-.33-1.68,8.06Z"/></g><g><g><g><g><path class="cls-116" d="M84.13,117.76c-2.93,0-4.23-.25-4.81-.48,.11,.48,.54,.86,1.08,.86h10.38c.35,0,.57-.33,.49-.64-1.18,.1-3.7,.26-7.14,.26Z"/><path class="cls-124" d="M91.27,117.5c-.02-.06-.04-.12-.08-.18-.79-1.01-2.38-2.59-4.54-2.56-3.16,.04-4.27,.39-6.73,.02l-.58,1.92c-.06,.2-.06,.39-.02,.57,.58,.23,1.88,.48,4.81,.48,3.44,0,5.95-.16,7.14-.26Z"/></g><path class="cls-117" d="M80.63,112.71l-.71,2.42s1.58,.72,2.96,.14l.27-2.1-2.53-.47Z"/><path class="cls-115" d="M65.4,85.12s17.56,1.43,21.16,3.13c3.6,1.7-2.94,25.47-2.94,25.47,0,0-.98,.47-3.16-.21,0,0,2.24-17.54,.57-21.34l-19.01-3.11,3.38-3.93Z"/></g><g><g><path class="cls-125" d="M84.05,120.2c-2.98,0-4.3-.26-4.89-.49,.11,.49,.55,.88,1.1,.88h10.55c.36,0,.58-.34,.49-.65-1.2,.1-3.76,.26-7.26,.26Z"/><path class="cls-126" d="M91.31,119.94c-.02-.06-.04-.12-.09-.18-.8-1.03-2.42-2.64-4.61-2.61-3.22,.05-4.34,.39-6.84,.02l-.59,1.96c-.06,.2-.06,.4-.02,.58,.59,.23,1.91,.49,4.89,.49,3.5,0,6.05-.16,7.26-.26Z"/></g><path class="cls-128" d="M80.49,115.06l-.72,2.46s1.6,.73,3.02,.14l.28-2.13-2.57-.47Z"/><path class="cls-5" d="M65,87.01s17.86,1.46,21.52,3.18c3.66,1.72-2.99,25.9-2.99,25.9,0,0-1,.48-3.22-.21,0,0,.52-16.51-1.17-20.38l-17.58-4.49,3.44-4Z"/></g></g><g><g><path class="cls-130" d="M53.3,49.49s-2.21,6.53-2.87,9.41l5.32-.74s.26-3.86,1.45-6.29l-3.9-2.39Z"/><g><path class="cls-129" d="M57.71,42.41c.41,.81,.66,1.79,.97,2.83,.6,1.95,1.19,3.91,1.78,5.86l-4.96,1.38c-.93-1.98-1.82-3.97-2.76-5.95-.5-1.05-.96-2.5-2.14-2.99-.68-.28-1.44,.04-1.11-.89,.24-.69,1.17-1.3,1.79-1.61,1-.5,2.14-.66,3.26-.59,1.75,.11,2.61,.87,3.17,1.96Z"/><path class="cls-127" d="M50.26,40.28c.65-.54,1.41-.88,2.25-.86,.49,.01,.96,.16,1.45,.14,.72-.03,1.39-.44,2.12-.45,.75-.01,1.47,.43,1.89,1.05,.42,.62,.56,1.4,.51,2.15-.01,.15-.03,.32-.13,.44-.18,.25-.55,.25-.86,.27-1.49,.07-2.05,.87-3.04,1.79-.41,.38-.57,.7-.59,1.03-.02,.41,.17,.83,.38,1.39,.36,.96,.72,1.92,1.09,2.88,.02,.05,.05,.11,.08,.15,.21,.29,1.02,1.23,1.93,.34,.82-.8,1.59-1.52,2.31-1.66,.32-.06,.64,.13,.73,.44,.24,.78,.73,2.56,.93,4.17,.04,.33-.18,.63-.5,.7-.97,.21-3.03,.59-4.75,.5-.23-.01-.44-.15-.54-.36-.46-.94-.42-2.47-1.76-2.53-.51-.02-1.01,.17-1.48,.39-.1,.05-.2,.09-.3,.12-.24,.06-.5,0-.68-.16-.41-.35-.33-1.05-.73-1.45-.19-.19-.44-.31-.69-.43-.88-.41-2.04-.97-2.2-2.05-.09-.6,.13-1.27,.17-1.88,.03-.48,.02-.95,.05-1.43,.11-1.54,.99-3.57,2.35-4.7Z"/><path class="cls-121" d="M53.82,50.85s-.69-2.58-1.82-2.69c-1.14-.11-2.22,.85-1.06,2.35,1.45,1.87,2.88,.34,2.88,.34Z"/></g></g><g><path class="cls-119" d="M79.73,68.71l1-.66,3.08-1.88c.37-.23,.82-.29,1.24-.19l2.74,.67c.21,.05,.22,.35,.02,.41l-7.21,2.38-.86-.74Z"/><path class="cls-123" d="M49.97,89.44s5.79-.41,9.59-4.41c0,0,.12-13.28,1.11-17.14,0,0,10.94,6.07,20.2,1.47l-.64-.98s-10.32-2.04-15.54-5.61c-5.22-3.56-7.39-5.12-10.14-5.18-1.71-.04-2.78-.13-3.34-.19-.31-.03-.6,.13-.74,.4-1.27,2.55-6.74,14.96-.51,31.64Z"/></g></g></g><g><path class="cls-120" d="M44.31,86.84l27.87,.17v-.08c0-1.36-1.08-2.48-2.44-2.52l-24.24-.79c-.98-.03-1.72,.87-1.5,1.82l.32,1.41Z"/><path class="cls-118" d="M33.25,57.92c9.8-2.83,12.73,1.03,11.88,12.34v21.6h-2.45v-25.55c-.21-5.57-2.05-7.2-8.52-5.15-2.09,.26-3.17-2.54-.91-3.24Z"/><rect class="cls-122" x="72.09" y="120.59" width="11.68" height="2.02" rx="1.01" ry="1.01" transform="translate(155.86 243.19) rotate(-180)"/><path class="cls-92" d="M45.83,86.52l33.56,7.36c2.47,.54,4.25,2.71,4.3,5.25l.36,21.08h-2.48l-1.65-20.38-35.44-3.64,1.35-9.67Z"/><g><circle class="cls-91" cx="82.92" cy="125.41" r="5.7"/><circle class="cls-94" cx="82.92" cy="125.41" r="4.38"/></g><g><circle class="cls-93" cx="56.68" cy="106.71" r="23.16"/><circle class="cls-97" cx="56.28" cy="107.11" r="19.84"/></g></g></g></g><g><g><g><ellipse class="cls-95" cx="148.04" cy="109.31" rx=".64" ry="1.12"/><path class="cls-96" d="M148.33,120.8l.14-10.5c0-.43-.29-.79-.66-.79h-.73c-.38-.01-.69,.35-.68,.8l.28,10.7s0,.08,0,.12c-.13,1.38,1.64,1.65,1.67-.32Z"/><path class="cls-99" d="M146.71,90.67c.59,6.07,1.38,12.04,1.6,17.99,.01,.38-.26,.7-.63,.73l-.9,.09c-.42,.04-.8-.28-.83-.72l-1.3-18.45c-.03-.36,.28-.64,.62-.59l.97,.15c.35,.05,.42,.44,.46,.8Z"/></g><g><path class="cls-100" d="M146.91,126.69c-1.34-.12-2.03-.32-2.38-.49,0,.13-.02,.27-.02,.41,0,.15,.1,.28,.24,.29l7.39,.4c.24,.01,.39-.25,.3-.47-.97,.02-3.45,.05-5.52-.13Z"/><path class="cls-98" d="M152.44,126.82s-.01-.04-.03-.06c-.6-.95-2.15-2.87-5.38-3.85l-1.57-.15s-.77,1.18-.93,3.43c.35,.17,1.04,.37,2.38,.49,2.08,.18,4.55,.15,5.52,.13Z"/></g><path class="cls-53" d="M145.31,120.36c.01,.12,.12,1.92,.16,2.61,0,.17,.12,.3,.27,.33,.27,.05,.7,.1,1.08,.05,.21-.03,.37-.22,.38-.45l.17-2.8-2.06,.26Z"/><g><path class="cls-51" d="M138.97,127.29c-1.33-.2-2.01-.44-2.35-.63-.02,.13-.03,.27-.04,.41-.01,.15,.08,.28,.22,.3l7.35,.83c.23,.03,.4-.23,.33-.46-.97-.04-3.45-.15-5.51-.45Z"/><path class="cls-52" d="M144.47,127.74s-.01-.04-.02-.06c-.54-.98-1.98-2.99-5.15-4.16l-1.56-.24s-.84,1.13-1.12,3.37c.34,.19,1.01,.43,2.35,.63,2.06,.3,4.54,.42,5.51,.45Z"/></g><path class="cls-49" d="M137.73,120.88c0,.12,0,1.92,0,2.62,0,.17,.1,.31,.25,.34,.26,.06,.69,.14,1.08,.11,.21-.02,.38-.2,.41-.42l.33-2.79-2.07,.14Z"/><path class="cls-4" d="M146.02,87.74s-10.39,.5-10.39,.72l-.23-.39c-.24,.54,.18,9.96,.34,10.45,.81,6.61,1.35,20.4,1.47,22.69,.02,.31,.25,.57,.55,.62,.58,.08,1.29,.05,1.78,0,.33-.03,.6-.29,.64-.62,.88-9.05,1.19-18.3,1.43-23.77,.29,1.63,1.2,5.89,1.69,10.54,.62,5.9,1.45,12.18,1.51,12.74,.03,.31,.28,.55,.59,.58,.58,.05,1.29-.03,1.77-.1,.33-.05,.58-.32,.6-.65,.98-17.97-1.75-32.82-1.75-32.82Z"/><path class="cls-31" d="M141.51,97.16c-.06,0-.12-.05-.13-.12-.24-1.23-2.52-2.71-2.54-2.73-.07-.04-.09-.13-.04-.2,.04-.07,.13-.09,.2-.04,.1,.06,2.4,1.56,2.67,2.91,.02,.08-.04,.15-.11,.17-.01,0-.02,0-.04,0Z"/><g><path class="cls-50" d="M137.08,117.38c.58,.58,2.73,.89,3.54,0,.41-1.79,.48-3.45,.35-5.05,0-.05-.06-.08-.11-.06-1.39,.69-2.69,.63-4.09-.1-.1,1.85-.03,3.61,.31,5.22Z"/><path class="cls-47" d="M135.58,96.19c.79,1.48,3.29,2.38,5.86,3.19,.1,.03,.17,.13,.17,.23-.03,2.65-.21,5.3-.29,8.08,0,.08-.04,.16-.1,.22-.96,.89-2.84,.38-4.7-.09l-.94-11.62Z"/><path class="cls-48" d="M141.91,99.35c1.77-.21,3.55-.94,5.34-2.18,.07-.05,.16,0,.16,.08,.14,2.05,.38,5.47,.63,9.2,0,.09-.03,.19-.09,.26-1.11,1.2-3.12,1.64-4.65,1.28-.12-.03-.2-.12-.22-.24l-1.27-8.21c-.01-.08,.03-.15,.1-.18Z"/><path class="cls-45" d="M143.78,112.46c1,.49,3.47,.54,4.22-.17,.03-.02,.07,0,.07,.03l-.08,5.14c0,.07-.04,.12-.1,.15-1.08,.53-2.79,.33-3.51-.07-.05-.03-.09-.08-.1-.15l-.59-4.88s.04-.09,.08-.07Z"/></g><g><path class="cls-46" d="M138.57,121.54v-10.57c0-.44-.3-.79-.67-.79h-.73c-.38,0-.69,.38-.67,.83l.42,10.77s0,.08,0,.12c-.11,1.4,1.66,1.64,1.66-.35Z"/><path class="cls-44" d="M138.32,121.54v-10.57c0-.44-.3-.79-.67-.79h-.73c-.38,0-.69,.38-.67,.83l.42,10.77s0,.08,0,.12c-.11,1.4,1.66,1.64,1.66-.35Z"/><path class="cls-71" d="M137.14,92.15c.59,5.9,1.19,11.8,1.41,17.58,.01,.37-.26,.68-.63,.71l-.9,.09c-.42,.04-.8-.27-.83-.7l-1.3-17.93c-.03-.35,.28-.63,.62-.57l.97,.14c.35,.05,.61,.33,.65,.68Z"/><path class="cls-73" d="M136.88,92.15c.59,5.9,1.19,11.8,1.41,17.58,.01,.37-.26,.68-.63,.71l-.9,.09c-.42,.04-.8-.27-.83-.7l-1.3-17.93c-.03-.35,.28-.63,.62-.57l.97,.14c.35,.05,.61,.33,.65,.68Z"/><ellipse class="cls-72" cx="137.22" cy="110.26" rx="1.07" ry="1.26"/><ellipse class="cls-68" cx="136.95" cy="110.26" rx="1.07" ry="1.26"/><path class="cls-67" d="M135.1,93.54l1.08,14.23c.08,.63,.89,.63,1.04,0l-1.04-14.23c-.14-.59-1.07-.59-1.08,0Z"/><path class="cls-70" d="M136.72,107.73c-.11,0-.2-.08-.21-.19l-1.14-13.74c0-.11,.08-.21,.19-.22,.11,0,.21,.08,.22,.19l1.14,13.74c0,.11-.08,.21-.19,.22,0,0-.01,0-.02,0Z"/><path class="cls-69" d="M137.89,92.47c-1.18,.43-2.11,.48-2.82,.21-.37,.03-.7-.28-.73-.69l-.23-3.12c-.03-.41,.25-.77,.62-.79,.79,.18,1.74,.08,2.82-.21,.37-.03,.7,.28,.73,.69l.23,3.12c.03,.41-.25,.77-.62,.79Z"/><path class="cls-65" d="M137.51,92.41c-1.18,.43-2.11,.48-2.83,.21-.37,.03-.7-.28-.73-.69l-.23-3.12c-.03-.41,.25-.77,.62-.79,.79,.18,1.75,.08,2.83-.21,.37-.03,.7,.28,.73,.69l.23,3.12c.03,.41-.25,.77-.62,.79Z"/><ellipse class="cls-64" cx="134.91" cy="90.67" rx="1.3" ry="1.54" transform="translate(-13.33 23.99) rotate(-9.68)"/><ellipse class="cls-66" cx="134.74" cy="90.66" rx="1.25" ry="1.39" transform="translate(-13.33 23.96) rotate(-9.69)"/></g></g><g><g><rect class="cls-60" x="147.65" y="86.47" width="4.88" height=".99" rx=".43" ry=".43" transform="translate(-21.89 109.61) rotate(-37.59)"/><path class="cls-61" d="M156.39,128.29s-7.68-39.78-7.71-39.82l-6.03-8.87-.77,.14c-.24,.09,5.11,7.92,5.83,8.93l7.71,39.8,.98-.19Z"/><rect class="cls-62" x="154.88" y="126.37" width="1.61" height="2.39" rx=".81" ry=".81" transform="translate(-17.41 24.85) rotate(-8.65)"/></g><rect class="cls-63" x="134.75" y="65.93" width="11.72" height="22.38" rx="5.86" ry="5.86" transform="translate(-3.54 6.83) rotate(-2.75)"/><path class="cls-57" d="M145.86,79.68c-.8,.76-1.95,1.38-2.76,1.77,1.08,1.51,2.56,3.04,4.56,4.58,0,0,.24,.64,.24,.64,.2,.52,.64,.8,.89,1.27,.14,.28-.19,.69,.14,.93,.15,.11,.5,.04,.67,.01,.49-.08,.95-.32,1.25-.73,.6-.8,.42-2.1-.46-2.64-.46-.29-1.08-.2-1.54-.51-.87-.59-2.16-2.4-3.01-5.33Z"/><path class="cls-58" d="M145.22,65.13c-3.57-.6-7.22-.02-9.01,.1-.42,.03-.82,.13-1.2,.29-.54,1.67-.9,3.39-.6,5.16,.23,1.48,.57,2.93,.7,4.4,.02-.04,.05-.09,.07-.13,.03,.24,.08,.48,.14,.71,1.57,6.28,1.36,11.41,1.29,12.6-.01,.16,.07,.31,.21,.38,2.5,1.19,7.47,.87,9.14,.73,.31-.03,.53-.3,.5-.6-.31-4.03,1.8-11.79,3.16-16.77,.86-3.14-1.2-6.31-4.41-6.85Z"/><g><g><path class="cls-59" d="M147.39,73.6c-2.6,.34-5.27,.32-8.01,0v-1.2c2.67,.39,5.34,.39,8.01,0v1.2Z"/><path class="cls-54" d="M137.33,81.23c.99-5.71,.87-11.6-.29-16.07,.71-.86,2.1-.96,3.03-.3,.36,4.73-.86,10.63-1.81,16.63l-.93-.27Z"/><path class="cls-55" d="M137.42,81.5c1.16-5.73,.95-12.06-.14-16.6,.43-.65,1.86-.86,2.55-.17,.34,4.8-.85,10.88-1.74,16.97l-.67-.2Z"/><path class="cls-56" d="M147.68,78.93c-.12-5.44-1.6-9.01-2.2-13.6-.01-.08,.05-.15,.13-.16,.8-.06,1.73,.38,2.2,1.13,.01,.02,.02,.04,.02,.07,.21,3.98,.9,5.03,.4,10.83-.06,.44-.09,1.18-.27,1.78-.05,.15-.27,.12-.28-.04Z"/><path class="cls-82" d="M147.81,79.3c-.02-5.85-1.5-9.28-2.1-14.12,.52-.24,1.87,.33,2.36,1.14,.2,4.01,.9,5.05,.4,10.87-.08,.59-.22,1.51-.66,2.11Z"/></g><g><path class="cls-81" d="M146.16,85.06c-1.03,.37-2.01,.52-2.89,.24l-.11-1.33c.96,.33,1.92,.22,2.89-.24l.11,1.33Z"/><path class="cls-90" d="M146.16,87.12c-1.03,.37-2.01,.52-2.89,.24l-.11-1.33c.96,.33,1.92,.22,2.89-.24l.11,1.33Z"/><path class="cls-89" d="M136.29,80.81c1.71,.66,4,.87,6.53,.89,.35,0,.66,.25,.74,.59,.53,2.32,.5,4.85,.11,7.53-1.49,.93-4.69,.51-7.66,.29-.21-3.71-.45-7.48,.28-9.31Z"/><path class="cls-2" d="M136.23,80.87c1.7,.62,3.9,.87,6.35,.89,.35,0,.68,.19,.76,.54,.53,2.32,.5,4.85,.11,7.53-1.49,.93-4.69,.51-7.66,.29-.2-3.61-.43-7.27,.22-9.15,.03-.09,.13-.13,.21-.1Z"/><path class="cls-88" d="M145.47,82.4c.22,2.5,.27,4.78,0,6.89,0,.35,.29,.64,.64,.64h.48c.7-2.73,.95-5.7,.72-8.43l-1.18,.23c-.31,.03-.66,.3-.66,.66Z"/><path class="cls-87" d="M145.61,82.4c.22,2.5,.27,4.78,0,6.89,0,.35,.29,.64,.64,.64h.28c.12,0,.22-.08,.25-.19,.65-2.61,.89-5.42,.69-8.04,0-.11-.11-.18-.21-.16l-1.04,.2c-.33,.05-.6,.29-.6,.66Z"/></g></g><g><path class="cls-86" d="M143.86,130.14s-6.78-39.1-6.81-39.13l-5.77-8.8-.76,.12c-.24,.08,4.88,7.86,5.57,8.87l6.81,39.11,.97-.16Z"/><rect class="cls-85" x="136.14" y="89.23" width="4.88" height=".99" rx=".43" ry=".43" transform="translate(-26.2 99.73) rotate(-36.39)"/><rect class="cls-83" x="142.53" y="128.48" width="1.61" height="2.39" rx=".81" ry=".81" transform="translate(-15.61 19.69) rotate(-7.45)"/></g><g><path class="cls-84" d="M135.01,65.52c-.44,.19-.85,.47-1.19,.82-2.52,2.59-8.15,9.74-2.52,17.64,.81-.39,1.95-1.01,2.76-1.77-.55-1.91-.4-4.43,1.13-7.26-.13-1.47-.22-2.77-.45-4.26-.3-1.77-.26-3.49,.28-5.17Z"/><path class="cls-80" d="M134.05,82.21c-.8,.76-1.95,1.38-2.76,1.77,1.08,1.51,2.56,3.04,4.56,4.58,0,0,.24,.64,.24,.64,.14,.38,.44,.65,.7,.96,.13,.16,.27,.32,.34,.52,.06,.17,.03,.41,.2,.52,.23,.15,.63,0,.88-.03,.35-.05,.87-.18,1.11-.46,.08-.09,.13-.21,.17-.32,.09-.23,.17-.47,.16-.72,0-.61-.61-1.09-.97-1.55-.17-.22-1.41-.42-1.65-.57-.87-.59-2.16-2.4-3.01-5.33Z"/><path class="cls-74" d="M129.38,80.76c1.51-.01,2.97-.34,4.37-1.08,.42,.63,.56,1.26,.15,1.88-1.08,.52-2.29,.91-3.56,1.23-.96-.55-1.27-1.22-.95-2.03Z"/></g><path class="cls-78" d="M134.67,73.27c-.7-2.5-.35-5.33-.25-6.01,.01-.08,.09-.14,.17-.13h0c.07,.01,.13,.08,.12,.15-.03,.63-.12,3.39,.25,5.92,.01,.07-.03,.14-.11,.17h0c-.08,.03-.17-.02-.19-.1Z"/></g><path class="cls-79" d="M140.94,60.55l-.74,4.61c-.04,.24,.11,.46,.34,.52,.81,.22,2.69,.56,4.29-.29,.14-.07,.21-.24,.17-.39l-1.11-4.41-2.96-.04Z"/><g><path class="cls-77" d="M144.86,55.58c.04,.06,.78,3.69,1.23,5.93,.19,.93-.47,1.81-1.42,1.89l-.86,.07c-1.59,.14-3.02-.96-3.3-2.53l-.73-4.07s4.23-2.76,5.08-1.3Z"/><path class="cls-75" d="M138.85,56.92c-.34-.4-.65-1.06,.04-1.78,.7-.73,1.51-.57,2.03-.35,.23,.1,.51,.05,.67-.15,.07-.09,.18-.15,.33-.13,.3,.03,.56-.18,.59-.48,.05-.51,.3-1.12,1.21-1.32,1.65-.36,2.53,1.28,2.53,2.45,0,1.17-1.81,1.46-2.85,1.3-.76-.12-1.4,.56-1.69,.93-.1,.14-.14,.31-.1,.47l.29,1.12c-.17,.36-.34,.72-.59,1.03-.18,.22-.38,.34-.59,.4-.33-.57-1.19-.64-1.6-.65-.15,0-.3-.07-.4-.18-.31-.34-.81-1.11,.08-1.89,.22-.2,.24-.54,.05-.76Z"/><path class="cls-76" d="M141.05,61.6s-.09-2.04-.92-2.21c-.83-.17-1.71,.45-.97,1.65,.92,1.5,1.89,.56,1.89,.56Z"/></g></g><g><path class="cls-13" d="M153.07,75.84l-.32-.4h0s-.03-.1,.01-.13c.04-.03,.1-.03,.13,.01h0s.32,.41,.32,.41c.03,.04,.02,.09-.01,.12-.04,.03-.09,.02-.12-.01h0Z"/><path class="cls-13" d="M151.91,74.59l-.39-.33h0s-.05-.11-.01-.15c.04-.04,.1-.05,.15-.01,0,0,0,0,0,0l.39,.34s.05,.1,0,.14c-.04,.04-.1,.05-.14,.01h0Z"/><path class="cls-13" d="M150.54,73.58l-.44-.25h0c-.06-.04-.08-.11-.04-.17,.03-.06,.11-.08,.17-.04,0,0,0,0,0,0l.45,.27c.06,.03,.07,.1,.04,.16-.03,.05-.1,.07-.16,.04h0Z"/><path class="cls-13" d="M149.02,72.82l-.48-.18h0c-.07-.03-.11-.11-.08-.18,.03-.07,.11-.11,.18-.08,0,0,0,0,0,0l.49,.19c.07,.03,.1,.1,.07,.17-.03,.07-.1,.1-.17,.07h0Z"/><path class="cls-13" d="M147.4,72.29l-.5-.12h0c-.08-.02-.13-.1-.11-.18s.1-.13,.18-.11h0s.5,.13,.5,.13c.08,.02,.12,.1,.11,.18-.02,.08-.1,.12-.17,.11h0Z"/><path class="cls-13" d="M145.73,71.96l-.51-.06h0c-.09-.01-.15-.09-.14-.18,.01-.09,.09-.15,.18-.14h0s.52,.07,.52,.07c.09,.01,.15,.09,.13,.18-.01,.08-.09,.14-.17,.13h0Z"/><path class="cls-13" d="M144.04,71.8l-.51-.02h0c-.09,0-.17-.08-.16-.18,0-.09,.08-.17,.18-.16,0,0,0,0,0,0l.52,.03c.09,0,.16,.08,.16,.18,0,.09-.08,.16-.17,.16h0Z"/><path class="cls-13" d="M142.33,71.78l-.51,.02h0c-.1,0-.19-.08-.19-.18,0-.1,.08-.19,.18-.19h0s.52-.01,.52-.01c.1,0,.18,.08,.18,.18,0,.1-.08,.18-.17,.18h0Z"/><path class="cls-13" d="M140.62,71.87l-.51,.05h0c-.11,.01-.2-.07-.21-.17,0-.11,.07-.2,.18-.21,0,0,0,0,0,0l.52-.04c.1,0,.2,.07,.2,.17,0,.1-.07,.2-.17,.2h0Z"/><path class="cls-13" d="M138.92,72.06l-.51,.07h0c-.11,.02-.22-.06-.23-.17-.02-.11,.06-.22,.17-.23h0s.51-.07,.51-.07c.11-.01,.21,.06,.23,.17,.01,.11-.06,.21-.17,.23h0Z"/><path class="cls-13" d="M137.23,72.34l-.5,.1h0c-.12,.02-.23-.05-.25-.17-.02-.12,.05-.23,.17-.25,0,0,0,0,0,0l.51-.09c.12-.02,.23,.06,.25,.17,.02,.11-.06,.22-.17,.25h0Z"/><path class="cls-13" d="M135.55,72.68l-.5,.11h0c-.12,.03-.24-.05-.27-.17-.03-.12,.05-.24,.17-.27h0s.51-.1,.51-.1c.12-.02,.24,.05,.26,.18,.02,.12-.05,.24-.17,.26h0Z"/><path class="cls-13" d="M133.88,73.05l-.5,.12h0c-.13,.03-.26-.05-.29-.18-.03-.13,.05-.26,.18-.29h0s.51-.11,.51-.11c.13-.03,.25,.05,.28,.18,.03,.13-.05,.25-.18,.28h0Z"/><path class="cls-13" d="M132.21,73.46l-.5,.13h0c-.13,.03-.27-.05-.31-.18-.03-.13,.05-.27,.18-.31,0,0,0,0,0,0l.5-.12c.13-.03,.27,.05,.3,.18,.03,.13-.05,.26-.18,.3h0Z"/><path class="cls-13" d="M130.55,73.89l-.5,.14h0c-.14,.04-.28-.04-.32-.18-.04-.14,.04-.28,.18-.32h0s.5-.13,.5-.13c.14-.04,.28,.05,.32,.18,.04,.14-.05,.28-.18,.31h0Z"/><path class="cls-13" d="M128.9,74.35l-.49,.14h0c-.14,.04-.29-.04-.33-.18-.04-.14,.04-.29,.18-.33h0s.5-.14,.5-.14c.14-.04,.29,.04,.33,.18,.04,.14-.04,.29-.18,.33h0Z"/><path class="cls-13" d="M127.25,74.84l-.49,.15h0c-.14,.04-.3-.04-.34-.18-.04-.14,.04-.3,.18-.34h0s.5-.15,.5-.15c.14-.04,.3,.04,.34,.18,.04,.14-.04,.29-.18,.34h0Z"/><path class="cls-13" d="M125.61,75.36l-.49,.16h0c-.15,.05-.31-.03-.35-.18-.05-.15,.03-.31,.18-.35h0s.49-.16,.49-.16c.15-.05,.3,.03,.35,.18,.05,.15-.03,.3-.18,.35h0Z"/><path class="cls-13" d="M123.98,75.9l-.49,.17h0c-.15,.05-.31-.03-.37-.18-.05-.15,.03-.31,.18-.37h0s.49-.16,.49-.16c.15-.05,.31,.03,.36,.18,.05,.15-.03,.31-.18,.36h0Z"/><path class="cls-13" d="M122.36,76.46l-.48,.17h0c-.15,.06-.32-.02-.38-.18-.05-.15,.02-.32,.18-.38h0s.49-.17,.49-.17c.15-.05,.32,.03,.37,.18,.05,.15-.03,.32-.18,.37h0Z"/><path class="cls-13" d="M120.75,77.05l-.48,.18h0c-.16,.06-.33-.02-.39-.18-.06-.16,.02-.33,.18-.39h0s.49-.18,.49-.18c.16-.06,.33,.02,.38,.18,.06,.15-.02,.33-.18,.38h0Z"/><path class="cls-13" d="M119.15,77.66l-.48,.19h0c-.16,.06-.34-.02-.4-.18-.06-.16,.02-.34,.18-.4h0s.48-.18,.48-.18c.16-.06,.34,.02,.4,.18,.06,.16-.02,.33-.18,.39h0Z"/><path class="cls-13" d="M117.55,78.29l-.48,.19h0c-.16,.07-.35-.01-.41-.17-.07-.16,.01-.35,.17-.41h0s.48-.19,.48-.19c.16-.06,.34,.02,.41,.18,.06,.16-.01,.34-.17,.41h0Z"/><path class="cls-13" d="M115.96,78.94l-.48,.2h0c-.16,.07-.35,0-.42-.17-.07-.16,0-.35,.17-.42h0s.48-.2,.48-.2c.16-.07,.35,.01,.42,.18,.07,.16-.01,.35-.17,.42h0Z"/><path class="cls-13" d="M114.38,79.61l-.47,.2h0c-.17,.07-.36,0-.43-.17-.07-.17,0-.36,.17-.43h0s.48-.2,.48-.2c.17-.07,.36,0,.43,.17,.07,.17,0,.36-.17,.43h0Z"/><path class="cls-13" d="M112.8,80.29l-.47,.21h0c-.17,.08-.37,0-.44-.17-.08-.17,0-.37,.17-.44h0s.47-.21,.47-.21c.17-.07,.37,0,.44,.17,.07,.17,0,.36-.17,.44h0Z"/><path class="cls-13" d="M111.23,80.99l-.47,.21h0c-.17,.08-.38,0-.45-.17-.08-.17,0-.38,.17-.45h0s.47-.21,.47-.21c.17-.08,.37,0,.45,.17,.08,.17,0,.37-.17,.45h0Z"/><path class="cls-13" d="M109.67,81.7l-.47,.22h0c-.18,.08-.38,0-.46-.17-.08-.18,0-.38,.17-.46h0s.47-.22,.47-.22c.18-.08,.38,0,.46,.17,.08,.17,0,.38-.17,.46h0Z"/><path class="cls-13" d="M108.11,82.43l-.47,.22c-.18,.08-.39,0-.48-.17-.08-.18,0-.39,.17-.48h0s.47-.22,.47-.22c.18-.08,.39,0,.47,.17,.08,.18,0,.39-.17,.47Z"/><path class="cls-13" d="M106.56,83.17l-.46,.22c-.18,.09-.4,.01-.49-.17-.09-.18-.01-.4,.17-.49h0s.47-.22,.47-.22c.18-.09,.4,0,.48,.17,.09,.18,0,.39-.17,.48Z"/><path class="cls-13" d="M105.02,83.92l-.46,.23c-.18,.09-.41,.02-.5-.17-.09-.18-.02-.41,.17-.5h0s.47-.23,.47-.23c.18-.09,.4-.01,.49,.17,.09,.18,.01,.4-.17,.49Z"/><path class="cls-13" d="M103.48,84.68l-.46,.23c-.19,.09-.41,.02-.5-.17-.09-.19-.02-.41,.17-.5h0s.46-.23,.46-.23c.19-.09,.41-.01,.5,.17,.09,.19,.02,.41-.17,.5Z"/><path class="cls-13" d="M101.94,85.45l-.46,.23c-.19,.09-.41,.02-.51-.17-.09-.19-.02-.41,.17-.51h0s.46-.23,.46-.23c.19-.09,.41-.02,.51,.17,.09,.19,.02,.41-.17,.5Z"/><path class="cls-13" d="M100.4,86.22l-.46,.23c-.19,.1-.42,.02-.51-.17-.1-.19-.02-.42,.17-.51h0s.46-.23,.46-.23c.19-.09,.41-.02,.51,.17,.09,.19,.02,.41-.17,.51Z"/><path class="cls-13" d="M98.87,87l-.46,.24c-.19,.1-.42,.02-.51-.16-.1-.19-.02-.42,.16-.51h0s.46-.24,.46-.24c.19-.1,.42-.02,.51,.17,.1,.19,.02,.42-.17,.51Z"/><path class="cls-13" d="M97.34,87.79l-.46,.24c-.19,.1-.42,.02-.52-.16-.1-.19-.02-.42,.16-.52h0s.46-.24,.46-.24c.19-.1,.42-.02,.52,.17,.1,.19,.02,.42-.17,.52Z"/><path class="cls-13" d="M95.82,88.58l-.46,.24c-.19,.1-.42,.03-.52-.16-.1-.19-.03-.42,.16-.52h0s.46-.24,.46-.24c.19-.1,.42-.02,.52,.17,.1,.19,.02,.42-.16,.52Z"/><path class="cls-13" d="M94.29,89.38l-.46,.24c-.19,.1-.43,.03-.52-.16-.1-.19-.03-.43,.16-.52h0s.46-.24,.46-.24c.19-.1,.42-.02,.52,.17,.1,.19,.03,.42-.16,.52Z"/><path class="cls-13" d="M92.77,90.18l-.46,.24c-.19,.1-.43,.03-.53-.16-.1-.19-.03-.43,.16-.53h0s.46-.24,.46-.24c.19-.1,.43-.03,.53,.17,.1,.19,.03,.43-.16,.53Z"/><path class="cls-13" d="M91.24,90.98l-.46,.24c-.19,.1-.43,.03-.53-.16-.1-.19-.03-.43,.16-.53h0s.46-.24,.46-.24c.19-.1,.43-.03,.53,.17,.1,.19,.03,.43-.17,.53Z"/><path class="cls-13" d="M89.72,91.78l-.46,.24c-.19,.1-.43,.03-.53-.17-.1-.19-.03-.43,.17-.53h0s.46-.24,.46-.24c.19-.1,.43-.03,.53,.17,.1,.19,.03,.43-.17,.53Z"/><path class="cls-13" d="M88.2,92.58l-.46,.24c-.19,.1-.44,.03-.54-.17-.1-.19-.03-.44,.17-.54h0s.46-.24,.46-.24c.19-.1,.43-.03,.54,.17,.1,.19,.03,.43-.17,.54Z"/><path class="cls-13" d="M86.67,93.38l-.46,.24c-.2,.1-.44,.03-.54-.17-.1-.2-.03-.44,.17-.54h0s.46-.24,.46-.24c.2-.1,.44-.03,.54,.17,.1,.2,.03,.44-.17,.54Z"/><path class="cls-13" d="M85.15,94.18l-.46,.24c-.2,.1-.44,.03-.54-.17-.1-.2-.03-.44,.17-.54h0s.46-.24,.46-.24c.2-.1,.44-.03,.54,.17,.1,.2,.03,.44-.17,.54Z"/><path class="cls-13" d="M83.62,94.97l-.46,.24c-.2,.1-.44,.03-.55-.17-.1-.2-.03-.44,.17-.55h0s.46-.24,.46-.24c.2-.1,.44-.02,.54,.17,.1,.2,.03,.44-.17,.54Z"/><path class="cls-13" d="M82.09,95.77l-.46,.24c-.2,.1-.45,.02-.55-.18-.1-.2-.02-.45,.18-.55h0s.46-.24,.46-.24c.2-.1,.44-.02,.55,.18,.1,.2,.02,.44-.18,.55Z"/><path class="cls-13" d="M80.56,96.55l-.46,.23c-.2,.1-.45,.02-.55-.18-.1-.2-.02-.45,.18-.55h0s.46-.23,.46-.23c.2-.1,.45-.02,.55,.18,.1,.2,.02,.45-.18,.55Z"/><path class="cls-13" d="M79.02,97.33l-.46,.23c-.2,.1-.45,.02-.55-.18-.1-.2-.02-.45,.18-.55h0s.46-.23,.46-.23c.2-.1,.45-.02,.55,.18,.1,.2,.02,.45-.18,.55Z"/><path class="cls-13" d="M77.48,98.11l-.46,.23c-.2,.1-.45,.02-.56-.19-.1-.2-.02-.45,.19-.56h0s.46-.23,.46-.23c.2-.1,.45-.02,.55,.19,.1,.2,.02,.45-.19,.55Z"/><path class="cls-13" d="M75.94,98.87l-.46,.23c-.21,.1-.46,.02-.56-.19-.1-.21-.02-.46,.19-.56h0s.46-.23,.46-.23c.21-.1,.46-.02,.56,.19,.1,.21,.02,.45-.19,.56Z"/><path class="cls-13" d="M74.39,99.63l-.47,.23c-.21,.1-.46,.01-.56-.19-.1-.21-.01-.46,.19-.56h0s.46-.22,.46-.22c.21-.1,.46-.01,.56,.19,.1,.21,.01,.46-.19,.56Z"/><path class="cls-13" d="M72.84,100.38l-.47,.22c-.21,.1-.46,.01-.56-.2-.1-.21-.01-.46,.2-.56h0s0,0,0,0l.47-.22h0c.21-.1,.46,0,.56,.2,.1,.21,.01,.46-.2,.56Z"/><path class="cls-13" d="M71.28,101.11l-.47,.22c-.21,.1-.46,0-.56-.21-.1-.21,0-.46,.21-.56h0s0,0,0,0l.47-.22h0c.21-.1,.46,0,.56,.21,.1,.21,0,.46-.21,.56Z"/><path class="cls-13" d="M69.71,101.83l-.47,.21c-.21,.1-.47,0-.56-.21-.1-.21,0-.47,.21-.56h0s0,0,0,0l.47-.21h0c.21-.1,.47,0,.56,.21,.1,.21,0,.46-.21,.56Z"/><path class="cls-13" d="M68.14,102.54l-.47,.21c-.22,.09-.47,0-.56-.22-.09-.22,0-.47,.22-.56h0s.47-.21,.47-.21h0c.22-.1,.47,0,.56,.22,.1,.22,0,.47-.22,.56h0Z"/><path class="cls-13" d="M66.56,103.24l-.48,.2c-.22,.09-.46,0-.56-.22-.09-.22,0-.46,.22-.56h0s.47-.2,.47-.2h0c.22-.09,.46,0,.56,.22,.09,.22,0,.46-.22,.56h0Z"/><path class="cls-13" d="M64.97,103.91l-.48,.2c-.21,.09-.46-.01-.55-.23-.09-.21,.01-.46,.23-.55h0s.48-.2,.48-.2h0c.22-.09,.46,.01,.55,.23,.09,.22-.01,.46-.23,.55h0Z"/><path class="cls-13" d="M63.38,104.57l-.48,.19c-.21,.09-.46-.02-.55-.23-.09-.21,.02-.46,.23-.55h0s.48-.19,.48-.19h0c.21-.09,.46,.02,.55,.23,.09,.22-.02,.46-.23,.55h0Z"/><path class="cls-13" d="M61.77,105.21l-.48,.19c-.21,.08-.46-.02-.54-.24-.08-.21,.02-.46,.24-.54h0s.48-.19,.48-.19h0c.21-.09,.46,.02,.54,.24,.08,.21-.02,.46-.24,.54h0Z"/><path class="cls-13" d="M60.16,105.83l-.48,.18c-.21,.08-.45-.03-.54-.24-.08-.21,.03-.45,.24-.54h0s.48-.18,.48-.18h0c.21-.08,.46,.03,.54,.24,.08,.21-.03,.46-.24,.54h0Z"/><path class="cls-13" d="M58.54,106.43l-.49,.18c-.21,.08-.45-.03-.53-.25-.08-.21,.03-.45,.25-.53h0s.48-.18,.48-.18h0c.21-.08,.45,.03,.53,.25,.08,.21-.03,.45-.25,.53h0Z"/><path class="cls-13" d="M56.92,107.01l-.49,.17c-.21,.07-.45-.04-.52-.25-.07-.21,.04-.45,.25-.52h0s.49-.17,.49-.17h0c.21-.08,.45,.04,.52,.25,.07,.21-.04,.45-.25,.52h0Z"/><path class="cls-13" d="M55.28,107.57l-.49,.16c-.21,.07-.45-.05-.52-.26-.07-.21,.05-.45,.26-.52h0s.49-.16,.49-.16h0c.21-.07,.45,.04,.52,.26,.07,.21-.05,.45-.26,.52h0Z"/><path class="cls-13" d="M53.64,108.1l-.5,.15c-.21,.07-.44-.05-.51-.27-.07-.21,.05-.44,.27-.51h0s.49-.15,.49-.15h0c.22-.07,.44,.05,.51,.27,.07,.22-.05,.44-.27,.51h0Z"/><path class="cls-13" d="M51.98,108.6l-.5,.14c-.22,.06-.44-.06-.5-.28-.06-.22,.06-.44,.28-.5h0s.49-.14,.49-.14h0c.22-.06,.44,.06,.5,.28,.06,.22-.06,.44-.28,.5h0Z"/><path class="cls-13" d="M50.31,109.05l-.5,.13c-.22,.06-.44-.07-.49-.29-.06-.22,.07-.44,.29-.49h0s.5-.13,.5-.13h0c.22-.06,.44,.07,.49,.29,.06,.22-.07,.44-.29,.49h0Z"/><path class="cls-13" d="M48.63,109.47l-.51,.12c-.22,.05-.43-.09-.48-.3-.05-.22,.09-.43,.3-.48h0s.5-.12,.5-.12h0c.22-.05,.43,.08,.48,.3,.05,.22-.08,.43-.3,.48h0Z"/><path class="cls-13" d="M46.94,109.84l-.51,.1c-.22,.04-.43-.1-.47-.31-.04-.22,.1-.43,.31-.47h0s.5-.1,.5-.1h0c.22-.04,.43,.1,.47,.31,.04,.22-.1,.43-.31,.47h0Z"/><path class="cls-13" d="M45.23,110.16l-.51,.08c-.22,.04-.42-.11-.46-.33-.04-.22,.11-.42,.33-.46h0s.51-.08,.51-.08h0c.22-.04,.42,.11,.46,.33,.04,.22-.11,.42-.33,.46h0Z"/><path class="cls-13" d="M43.52,110.41l-.52,.06c-.22,.03-.41-.13-.44-.34-.03-.22,.13-.41,.34-.44h0s.51-.07,.51-.07h0c.22-.03,.41,.12,.44,.34,.03,.22-.13,.41-.34,.44h0Z"/><path class="cls-13" d="M41.79,110.61l-.52,.04c-.22,.02-.41-.14-.42-.36-.02-.22,.14-.41,.36-.42h0s.51-.04,.51-.04h0c.22-.02,.41,.14,.43,.36,.02,.22-.14,.41-.36,.43h0Z"/><path class="cls-13" d="M40.06,110.73l-.52,.02c-.22,0-.4-.16-.41-.37,0-.22,.16-.4,.37-.41h0s.51-.02,.51-.02h0c.22,0,.4,.16,.41,.37,0,.22-.16,.4-.37,.41h0Z"/><path class="cls-13" d="M38.32,110.77h-.52c-.21,0-.39-.18-.39-.39,0-.21,.18-.39,.39-.39h.51s0,0,0,0c.21,0,.39,.17,.39,.39,0,.21-.17,.39-.39,.39h0Z"/><path class="cls-13" d="M36.58,110.74l-.52-.03c-.21-.01-.38-.19-.37-.41,.01-.21,.19-.38,.41-.37h0s.51,.03,.51,.03h0c.21,.01,.38,.19,.37,.41-.01,.21-.19,.38-.41,.37h0Z"/><path class="cls-13" d="M34.84,110.61l-.52-.06c-.21-.02-.36-.21-.34-.42,.02-.21,.21-.36,.42-.34h0s.51,.05,.51,.05h0c.21,.02,.36,.21,.34,.42-.02,.21-.21,.36-.42,.34h0Z"/><path class="cls-13" d="M33.12,110.39l-.52-.09c-.21-.03-.35-.23-.31-.44,.03-.21,.23-.35,.44-.31h0s.5,.08,.5,.08h0c.21,.04,.35,.23,.32,.44-.03,.21-.23,.35-.44,.32h0Z"/><path class="cls-13" d="M31.4,110.07l-.51-.12c-.2-.05-.33-.25-.29-.45,.05-.2,.25-.33,.45-.29h0s.5,.11,.5,.11h0c.21,.05,.33,.25,.29,.46-.05,.21-.25,.33-.45,.29h0Z"/><path class="cls-13" d="M29.71,109.65l-.5-.15c-.2-.06-.32-.27-.26-.47,.06-.2,.27-.32,.47-.26h0s.49,.14,.49,.14h0c.2,.06,.32,.27,.26,.47-.06,.2-.27,.32-.47,.26h0Z"/><path class="cls-13" d="M28.05,109.13l-.49-.18c-.2-.07-.3-.29-.23-.48,.07-.2,.29-.3,.48-.23h0s.48,.17,.48,.17h0c.2,.07,.3,.29,.23,.48-.07,.2-.28,.3-.48,.23h0Z"/><path class="cls-13" d="M26.42,108.51l-.48-.21c-.19-.08-.28-.3-.2-.49,.08-.19,.3-.28,.49-.2h0s.47,.2,.47,.2h0c.19,.08,.28,.3,.2,.5-.08,.19-.3,.28-.49,.2h0Z"/><path class="cls-13" d="M24.83,107.77l-.47-.24c-.18-.09-.25-.32-.16-.5,.09-.18,.31-.25,.5-.16h0s.45,.23,.45,.23h0c.18,.1,.26,.32,.16,.5-.09,.18-.32,.26-.5,.16h0Z"/><path class="cls-13" d="M23.3,106.93l-.45-.27c-.17-.1-.22-.33-.12-.5,.1-.17,.33-.22,.5-.12h0s.44,.27,.44,.27h0c.17,.11,.23,.33,.12,.51s-.33,.23-.5,.12h0Z"/><path class="cls-13" d="M21.84,105.98l-.43-.31c-.16-.12-.2-.34-.08-.5,.11-.16,.34-.2,.5-.08h0s.41,.3,.41,.3h0c.16,.12,.2,.34,.08,.51-.11,.16-.34,.2-.5,.08h0Z"/><path class="cls-13" d="M20.45,104.91l-.4-.34c-.15-.13-.16-.35-.04-.49,.13-.15,.34-.16,.49-.04h0s.39,.33,.39,.33h0c.15,.13,.17,.35,.04,.5-.13,.15-.35,.17-.5,.04h0Z"/><path class="cls-13" d="M19.15,103.74l-.37-.37c-.13-.14-.13-.35,0-.49,.13-.13,.35-.13,.48,0h0s.36,.36,.36,.36h0c.14,.14,.14,.36,0,.5-.13,.14-.35,.14-.49,0h0Z"/><path class="cls-13" d="M17.96,102.46l-.34-.4c-.12-.14-.1-.36,.04-.48,.14-.12,.35-.1,.47,.04h0s.33,.39,.33,.39h0c.12,.15,.1,.36-.04,.49-.14,.12-.36,.1-.48-.04h0Z"/><path class="cls-13" d="M16.88,101.08l-.3-.43c-.1-.15-.07-.36,.08-.46,.15-.1,.36-.07,.46,.08h0s.29,.42,.29,.42h0c.11,.16,.07,.37-.08,.47-.15,.11-.36,.07-.46-.08h0Z"/><path class="cls-13" d="M15.93,99.62l-.26-.45c-.09-.16-.04-.35,.12-.44,.16-.09,.35-.04,.44,.12h0s.26,.45,.26,.45h0c.09,.16,.04,.36-.12,.45-.16,.09-.36,.04-.45-.12h0Z"/><path class="cls-13" d="M15.1,98.08l-.22-.47c-.08-.16,0-.35,.15-.42,.16-.07,.35,0,.42,.15h0s.22,.47,.22,.47h0c.08,.17,0,.36-.15,.44-.16,.08-.35,0-.43-.15h0Z"/><path class="cls-13" d="M14.4,96.48l-.19-.49c-.06-.16,.02-.34,.18-.4,.16-.06,.34,.02,.4,.18h0s.18,.48,.18,.48h0c.06,.17-.02,.35-.18,.41-.16,.06-.34-.02-.41-.18h0Z"/><path class="cls-13" d="M13.82,94.83l-.15-.5c-.05-.16,.04-.33,.21-.38,.16-.05,.33,.04,.38,.2h0s.15,.49,.15,.49h0c.05,.17-.04,.34-.21,.39-.16,.05-.34-.04-.38-.21h0Z"/><path class="cls-13" d="M13.37,93.15l-.11-.51c-.04-.16,.07-.32,.23-.36,.16-.04,.32,.07,.36,.23h0s.11,.5,.11,.5h0c.04,.17-.07,.33-.23,.37-.16,.04-.32-.07-.36-.23h0Z"/><path class="cls-13" d="M13.04,91.44l-.08-.52c-.02-.16,.09-.31,.25-.33,.16-.02,.31,.09,.33,.25h0s.08,.51,.08,.51h0c.03,.17-.09,.32-.25,.34-.16,.03-.31-.09-.34-.25h0Z"/><path class="cls-13" d="M12.83,89.71l-.04-.52c-.01-.16,.11-.3,.26-.31,.16-.01,.3,.1,.31,.26h0s.04,.51,.04,.51h0c.01,.17-.1,.31-.26,.32-.16,.01-.3-.1-.31-.26h0Z"/><path class="cls-13" d="M12.73,87.98v-.52c-.01-.16,.11-.28,.27-.29,.15,0,.28,.12,.29,.27h0s.01,.52,.01,.52h0c0,.16-.12,.29-.28,.3-.16,0-.29-.12-.29-.28h0Z"/><path class="cls-13" d="M12.74,86.24l.02-.52c0-.15,.14-.27,.29-.26,.15,0,.27,.13,.26,.29h0s-.02,.52-.02,.52h0c0,.16-.13,.28-.29,.27-.15,0-.27-.13-.27-.29h0Z"/><path class="cls-13" d="M12.85,84.5l.06-.52c.02-.15,.15-.25,.3-.24,.15,.02,.25,.15,.24,.29h0s-.05,.51-.05,.51h0c-.02,.15-.15,.26-.3,.25-.15-.02-.26-.15-.24-.3h0Z"/><path class="cls-13" d="M13.08,82.78l.09-.51c.02-.14,.16-.24,.3-.21,.14,.02,.24,.16,.22,.3h0s-.08,.51-.08,.51h0c-.02,.15-.16,.25-.3,.22-.14-.02-.24-.16-.22-.3h0Z"/><path class="cls-13" d="M13.41,81.08l.12-.51c.03-.14,.17-.22,.31-.19,.14,.03,.22,.17,.19,.31h0s-.11,.5-.11,.5h0c-.03,.14-.17,.23-.31,.2-.14-.03-.23-.17-.19-.31h0Z"/><path class="cls-13" d="M13.85,79.4l.15-.5c.04-.13,.18-.2,.31-.16,.13,.04,.2,.18,.16,.3h0s-.14,.5-.14,.5h0c-.04,.14-.18,.21-.31,.17-.13-.04-.21-.18-.17-.31,0,0,0,0,0,0Z"/><path class="cls-13" d="M14.38,77.75l.18-.49c.05-.12,.18-.19,.3-.14,.12,.04,.18,.18,.14,.3h0s-.17,.49-.17,.49h0c-.04,.13-.18,.19-.31,.15-.12-.04-.19-.18-.15-.31,0,0,0,0,0,0Z"/><path class="cls-13" d="M15.01,76.13l.2-.48c.05-.11,.18-.17,.3-.12,.11,.05,.17,.18,.12,.29h0s-.2,.48-.2,.48h0c-.05,.12-.18,.18-.3,.13-.12-.05-.17-.18-.12-.3,0,0,0,0,0,0Z"/><path class="cls-13" d="M15.72,74.55l.23-.47c.05-.11,.18-.15,.29-.1,.11,.05,.15,.18,.1,.29h0s-.22,.47-.22,.47h0c-.05,.11-.18,.16-.29,.11-.11-.05-.16-.18-.1-.29,0,0,0,0,0,0Z"/><path class="cls-13" d="M16.51,73.01l.25-.45c.05-.1,.18-.14,.28-.08,.1,.05,.13,.18,.08,.28h0s-.24,.45-.24,.45h0c-.05,.1-.18,.14-.28,.09-.1-.05-.14-.18-.09-.28,0,0,0,0,0,0Z"/><path class="cls-13" d="M17.37,71.51l.27-.44c.06-.09,.18-.12,.27-.06,.09,.06,.12,.18,.07,.27h0s-.26,.44-.26,.44h0c-.06,.1-.18,.13-.27,.07-.09-.06-.12-.18-.07-.27,0,0,0,0,0,0Z"/><path class="cls-13" d="M18.3,70.05l.29-.43c.06-.08,.17-.11,.26-.05,.08,.06,.11,.17,.05,.26h0s-.28,.43-.28,.43h0c-.06,.09-.17,.11-.26,.06-.09-.06-.11-.17-.05-.26,0,0,0,0,0,0Z"/><path class="cls-13" d="M19.29,68.63l.31-.42c.06-.08,.17-.09,.24-.04,.08,.06,.09,.17,.04,.24h0s-.3,.42-.3,.42h0c-.06,.08-.17,.1-.25,.04-.08-.06-.1-.17-.04-.25,0,0,0,0,0,0Z"/><path class="cls-13" d="M20.34,67.26l.32-.4c.06-.07,.16-.08,.23-.03,.07,.06,.08,.16,.03,.23h0s-.32,.41-.32,.41h0c-.06,.07-.16,.09-.24,.03-.07-.06-.09-.16-.03-.24,0,0,0,0,0,0Z"/><path class="cls-13" d="M21.44,65.93l.34-.39c.06-.06,.15-.07,.22-.02,.06,.06,.07,.15,.02,.22h0s-.33,.39-.33,.39h0c-.06,.07-.16,.08-.22,.02-.07-.06-.07-.16-.02-.22,0,0,0,0,0,0Z"/><path class="cls-13" d="M22.59,64.64l.35-.38c.05-.06,.15-.06,.2,0,.06,.05,.06,.14,0,.2h0s-.35,.38-.35,.38h0c-.05,.06-.15,.07-.21,.01-.06-.05-.06-.15-.01-.21,0,0,0,0,0,0Z"/><path class="cls-13" d="M23.78,63.39l.37-.37c.05-.05,.14-.05,.19,0,.05,.05,.05,.13,0,.19h0s-.36,.37-.36,.37h0c-.05,.06-.14,.06-.19,0s-.06-.14,0-.19c0,0,0,0,0,0Z"/><path class="cls-13" d="M25.01,62.18l.38-.35s.12-.04,.17,0c.04,.05,.04,.12,0,.17h0s-.37,.36-.37,.36h0s-.13,.05-.17,0c-.05-.05-.05-.13,0-.17,0,0,0,0,0,0Z"/><path class="cls-13" d="M26.28,61.01l.39-.34s.11-.03,.15,0c.04,.04,.03,.11,0,.15h0s-.38,.35-.38,.35h0s-.11,.04-.15,0c-.04-.04-.04-.11,0-.15,0,0,0,0,0,0Z"/><path class="cls-13" d="M27.58,59.88l.4-.33s.1-.03,.13,.01c.03,.04,.03,.1-.01,.13l-.39,.34s-.1,.03-.13,0-.03-.1,0-.13c0,0,0,0,0,0Z"/></g><g><path class="cls-13" d="M147.09,75.77l-.46-.22h0s-.06-.08-.04-.12,.08-.06,.12-.04h0s.46,.23,.46,.23c.04,.02,.06,.07,.04,.12-.02,.04-.07,.06-.11,.04h0Z"/><path class="cls-13" d="M145.51,75.1l-.49-.15h0c-.05-.02-.08-.07-.07-.13,.02-.05,.07-.08,.13-.07h0s.49,.16,.49,.16c.05,.02,.08,.07,.06,.12-.02,.05-.07,.08-.12,.06h0Z"/><path class="cls-13" d="M143.86,74.67l-.5-.09h0c-.06-.01-.1-.07-.09-.13,.01-.06,.07-.1,.13-.09h0s.51,.09,.51,.09c.06,.01,.1,.07,.09,.13-.01,.06-.07,.1-.13,.09h0Z"/><path class="cls-13" d="M142.17,74.46l-.51-.03h0c-.07,0-.12-.06-.12-.13,0-.07,.06-.12,.13-.12h0s.52,.03,.52,.03c.07,0,.12,.06,.11,.13,0,.07-.06,.12-.13,.11h0Z"/><path class="cls-13" d="M140.47,74.44l-.51,.03h0c-.08,0-.14-.05-.14-.13s.05-.14,.13-.14h0s.52-.02,.52-.02c.07,0,.14,.05,.14,.13,0,.07-.05,.13-.13,.14h0Z"/><path class="cls-13" d="M138.76,74.58l-.51,.07h0c-.08,.01-.16-.05-.17-.13-.01-.08,.05-.16,.13-.17h0s.52-.06,.52-.06c.08,0,.15,.05,.16,.13,0,.08-.05,.15-.12,.16h0Z"/><path class="cls-13" d="M137.07,74.85l-.5,.1h0c-.09,.02-.17-.04-.19-.13-.02-.09,.04-.17,.13-.19h0s.51-.1,.51-.1c.09-.02,.17,.04,.18,.13,.02,.08-.04,.17-.12,.18h0Z"/><path class="cls-13" d="M135.4,75.22l-.5,.13h0c-.09,.02-.19-.03-.21-.12-.02-.09,.03-.19,.12-.21h0s.5-.12,.5-.12c.09-.02,.18,.03,.2,.12,.02,.09-.03,.18-.12,.2h0Z"/><path class="cls-13" d="M133.75,75.67l-.49,.15h0c-.1,.03-.2-.02-.22-.12-.03-.1,.03-.2,.12-.22h0s.5-.15,.5-.15c.09-.03,.19,.03,.22,.12,.03,.09-.03,.19-.12,.22h0Z"/><path class="cls-13" d="M132.12,76.19l-.49,.17h0c-.1,.03-.2-.02-.24-.12-.03-.1,.02-.2,.12-.24h0s.49-.16,.49-.16c.1-.03,.2,.02,.23,.12,.03,.1-.02,.2-.12,.23h0Z"/><path class="cls-13" d="M130.49,76.75l-.48,.17h0c-.1,.04-.21-.02-.25-.12-.04-.1,.02-.21,.12-.25h0s.49-.17,.49-.17c.1-.04,.21,.02,.24,.12,.03,.1-.02,.21-.12,.24h0Z"/><path class="cls-13" d="M128.88,77.34l-.48,.18h0c-.1,.04-.22-.01-.26-.12-.04-.1,.01-.22,.12-.26h0s.48-.18,.48-.18c.1-.04,.22,.01,.26,.12,.04,.1-.01,.22-.12,.25h0Z"/><path class="cls-13" d="M127.28,77.96l-.48,.19h0c-.11,.04-.23,0-.27-.11-.04-.11,0-.23,.11-.27h0s.48-.19,.48-.19c.11-.04,.22,.01,.27,.12,.04,.1,0,.22-.11,.27h0Z"/><path class="cls-13" d="M125.69,78.61l-.47,.2h0c-.11,.05-.23,0-.28-.11-.05-.11,0-.23,.11-.28h0s.48-.2,.48-.2c.11-.04,.23,0,.28,.11,.04,.11,0,.23-.11,.28h0Z"/><path class="cls-13" d="M124.11,79.29l-.47,.21h0c-.11,.05-.24,0-.29-.11-.05-.11,0-.24,.11-.29h0s.47-.21,.47-.21c.11-.05,.24,0,.29,.11,.05,.11,0,.24-.11,.29h0Z"/><path class="cls-13" d="M122.55,80l-.47,.22h0c-.11,.05-.25,0-.3-.11-.05-.11,0-.25,.11-.3h0s.47-.22,.47-.22c.11-.05,.25,0,.3,.11,.05,.11,0,.25-.11,.3h0Z"/><path class="cls-13" d="M121,80.73l-.46,.23h0c-.12,.06-.26,0-.31-.11-.06-.12,0-.26,.11-.31h0s.47-.22,.47-.22c.12-.06,.25,0,.31,.11,.06,.11,0,.25-.11,.31h0Z"/><path class="cls-13" d="M119.46,81.5l-.46,.23h0c-.12,.06-.26,.01-.32-.1-.06-.12-.01-.26,.1-.32h0s.46-.23,.46-.23c.12-.06,.26-.01,.32,.11,.06,.12,.01,.26-.11,.32h0Z"/><path class="cls-13" d="M117.93,82.29l-.45,.24h0c-.12,.06-.26,.02-.33-.1-.06-.12-.02-.26,.1-.33h0s.46-.24,.46-.24c.12-.06,.26-.02,.32,.1,.06,.12,.02,.26-.1,.32h0Z"/><path class="cls-13" d="M116.42,83.1l-.45,.25h0c-.12,.07-.27,.02-.33-.09-.07-.12-.02-.27,.09-.33h0s.45-.25,.45-.25c.12-.06,.26-.02,.33,.1,.06,.12,.02,.26-.1,.33h0Z"/><path class="cls-13" d="M114.93,83.94l-.45,.26h0c-.12,.07-.27,.03-.33-.09-.07-.12-.03-.27,.09-.33h0s.45-.26,.45-.26c.12-.07,.27-.03,.33,.09,.07,.12,.03,.27-.09,.33h0Z"/><path class="cls-13" d="M113.45,84.81l-.44,.27h0c-.12,.07-.27,.03-.34-.08-.07-.12-.03-.27,.08-.34h0s.44-.27,.44-.27c.12-.07,.27-.03,.34,.08,.07,.12,.03,.27-.08,.34h0Z"/><path class="cls-13" d="M111.98,85.71l-.44,.27h0c-.12,.07-.27,.04-.34-.08-.07-.12-.04-.27,.08-.34h0s.44-.27,.44-.27c.12-.07,.27-.04,.34,.08,.07,.12,.04,.27-.08,.34h0Z"/><path class="cls-13" d="M110.54,86.63l-.43,.28h0c-.12,.08-.27,.04-.35-.07-.08-.12-.04-.27,.07-.35h0s.43-.28,.43-.28c.12-.08,.27-.04,.35,.07,.08,.12,.04,.27-.07,.35h0Z"/><path class="cls-13" d="M109.11,87.58l-.43,.29h0c-.12,.08-.27,.05-.35-.07-.08-.12-.05-.27,.07-.35h0s.43-.29,.43-.29c.12-.08,.27-.05,.35,.07,.08,.12,.05,.27-.07,.35h0Z"/><path class="cls-13" d="M107.69,88.55l-.42,.3h0c-.12,.08-.28,.06-.36-.06-.08-.12-.05-.28,.06-.36h0s.42-.3,.42-.3c.12-.08,.27-.05,.36,.06,.08,.12,.05,.27-.06,.36h0Z"/><path class="cls-13" d="M106.3,89.55l-.41,.3h0c-.11,.09-.28,.06-.36-.05-.08-.11-.06-.28,.06-.36h0s.42-.31,.42-.31c.11-.08,.28-.06,.36,.06,.08,.11,.06,.28-.06,.36h0Z"/><path class="cls-13" d="M104.92,90.58l-.41,.31h0c-.11,.09-.28,.07-.36-.05-.09-.11-.07-.28,.05-.36h0s.41-.31,.41-.31c.11-.09,.28-.06,.36,.05,.09,.11,.06,.28-.05,.36h0Z"/><path class="cls-13" d="M103.56,91.62l-.4,.32h0c-.11,.09-.28,.07-.37-.04-.09-.11-.07-.28,.04-.37h0s.41-.32,.41-.32c.11-.09,.28-.07,.37,.04,.09,.11,.07,.28-.04,.37h0Z"/><path class="cls-13" d="M102.22,92.69l-.4,.32h0c-.11,.09-.28,.07-.37-.04-.09-.11-.07-.28,.04-.37h0s.4-.32,.4-.32c.11-.09,.28-.07,.37,.04,.09,.11,.07,.28-.04,.37h0Z"/><path class="cls-13" d="M100.89,93.77l-.4,.33c-.11,.09-.28,.08-.37-.03-.09-.11-.08-.28,.04-.37l.4-.33c.11-.09,.28-.08,.37,.04,.09,.11,.08,.28-.04,.37h0Z"/><path class="cls-13" d="M99.56,94.87l-.39,.33c-.11,.09-.28,.08-.37-.03-.09-.11-.08-.28,.03-.37l.4-.33c.11-.09,.28-.08,.37,.03,.09,.11,.08,.28-.03,.37h0Z"/><path class="cls-13" d="M98.25,95.98l-.39,.33c-.11,.09-.27,.08-.37-.03-.09-.11-.08-.27,.03-.37l.39-.34c.11-.09,.27-.08,.37,.03,.09,.11,.08,.27-.03,.37h0Z"/><path class="cls-13" d="M96.94,97.1l-.39,.34c-.11,.09-.27,.08-.36-.03-.09-.11-.08-.27,.03-.36l.39-.34c.11-.09,.27-.08,.36,.03,.09,.11,.08,.27-.03,.36h0Z"/><path class="cls-13" d="M95.64,98.22l-.39,.34c-.11,.09-.27,.08-.36-.03-.09-.11-.08-.27,.03-.36l.39-.34c.11-.09,.27-.08,.36,.02,.09,.11,.08,.27-.02,.36h0Z"/><path class="cls-13" d="M94.34,99.35l-.39,.34c-.11,.09-.27,.08-.36-.02-.09-.11-.08-.27,.02-.36l.39-.34c.11-.09,.27-.08,.36,.02,.09,.11,.08,.27-.02,.36h0Z"/><path class="cls-13" d="M93.04,100.48l-.39,.34c-.1,.09-.26,.08-.35-.02-.09-.1-.08-.26,.02-.35l.39-.34c.1-.09,.26-.08,.36,.02,.09,.1,.08,.26-.02,.36h0Z"/><path class="cls-13" d="M91.74,101.61l-.39,.34c-.1,.09-.26,.08-.35-.03-.09-.1-.08-.26,.03-.35l.39-.34c.1-.09,.26-.08,.35,.02,.09,.1,.08,.26-.02,.35h0Z"/><path class="cls-13" d="M90.44,102.73l-.39,.34c-.1,.09-.26,.08-.35-.03-.09-.1-.08-.26,.03-.35l.39-.34c.1-.09,.26-.08,.35,.03,.09,.1,.08,.26-.03,.35h0Z"/><path class="cls-13" d="M89.13,103.85l-.39,.33c-.1,.09-.26,.07-.35-.03-.09-.1-.07-.26,.03-.35l.39-.33c.1-.09,.26-.08,.35,.03,.09,.1,.08,.26-.03,.35h0Z"/><path class="cls-13" d="M87.81,104.96l-.4,.33c-.1,.09-.26,.07-.34-.03-.09-.1-.07-.26,.03-.34l.4-.33c.1-.09,.26-.07,.34,.03,.09,.1,.07,.26-.03,.34h0Z"/><path class="cls-13" d="M86.48,106.06l-.4,.33c-.1,.08-.25,.07-.34-.03-.08-.1-.07-.25,.03-.34l.4-.33c.1-.08,.25-.07,.34,.03,.08,.1,.07,.25-.03,.34h0Z"/><path class="cls-13" d="M85.14,107.14l-.4,.32c-.1,.08-.25,.06-.34-.04-.08-.1-.06-.25,.04-.34h0s.4-.32,.4-.32h0c.1-.08,.25-.07,.34,.04,.08,.1,.07,.25-.04,.34h0Z"/><path class="cls-13" d="M83.78,108.21l-.41,.32c-.1,.08-.25,.06-.33-.04-.08-.1-.06-.25,.04-.33h0s.41-.32,.41-.32h0c.1-.08,.25-.06,.33,.04,.08,.1,.06,.25-.04,.33h0Z"/><path class="cls-13" d="M82.41,109.25l-.42,.31c-.1,.08-.24,.05-.32-.05-.07-.1-.05-.24,.05-.32h0s.41-.31,.41-.31h0c.1-.08,.25-.06,.32,.04,.08,.1,.06,.25-.05,.32h0Z"/><path class="cls-13" d="M81.02,110.27l-.42,.3c-.1,.07-.24,.05-.31-.05-.07-.1-.05-.24,.05-.31h0s.42-.3,.42-.3h0c.1-.07,.24-.05,.31,.05,.07,.1,.05,.24-.05,.31h0Z"/><path class="cls-13" d="M79.6,111.26l-.43,.29c-.1,.07-.23,.04-.3-.06-.07-.1-.04-.23,.06-.3h0s.42-.29,.42-.29h0c.1-.07,.23-.04,.3,.05,.07,.1,.04,.23-.05,.3h0Z"/><path class="cls-13" d="M78.17,112.22l-.43,.28c-.1,.06-.23,.04-.29-.06-.06-.1-.04-.23,.06-.29h0s.43-.28,.43-.28h0c.1-.06,.23-.04,.29,.06,.06,.1,.04,.23-.06,.29h0Z"/><path class="cls-13" d="M76.72,113.14l-.44,.27c-.1,.06-.22,.03-.28-.07-.06-.09-.03-.22,.06-.28h0s.44-.27,.44-.27h0c.1-.06,.22-.03,.28,.06,.06,.1,.03,.22-.06,.28h0Z"/><path class="cls-13" d="M75.24,114.04l-.45,.26c-.09,.05-.21,.02-.27-.07-.05-.09-.02-.21,.07-.27h0s.44-.26,.44-.26h0c.09-.06,.22-.03,.27,.07,.06,.09,.02,.22-.07,.27h0Z"/><path class="cls-13" d="M73.74,114.89l-.45,.25c-.09,.05-.21,.02-.26-.08-.05-.09-.02-.21,.07-.26h0s.45-.25,.45-.25h0c.09-.05,.21-.02,.26,.07,.05,.09,.02,.21-.07,.26h0Z"/><path class="cls-13" d="M72.21,115.7l-.46,.23c-.09,.05-.2,0-.25-.08-.05-.09-.01-.2,.08-.25h0s.46-.24,.46-.24h0c.09-.05,.2-.01,.25,.08,.05,.09,.01,.2-.08,.25h0Z"/><path class="cls-13" d="M70.67,116.47l-.47,.22c-.09,.04-.19,0-.24-.09-.04-.09,0-.19,.08-.24h0s.46-.22,.46-.22h0c.09-.04,.2,0,.24,.08,.04,.09,0,.2-.08,.24h0Z"/><path class="cls-13" d="M69.09,117.18l-.48,.2c-.08,.04-.18,0-.22-.09-.04-.08,0-.18,.09-.22h0s.47-.21,.47-.21h0c.09-.04,.19,0,.22,.09,.04,.09,0,.19-.09,.22,0,0,0,0,0,0Z"/><path class="cls-13" d="M67.5,117.84l-.48,.19c-.08,.03-.17,0-.2-.09-.03-.08,0-.17,.09-.2h0s.48-.19,.48-.19h0c.08-.03,.17,0,.21,.09,.03,.08,0,.17-.09,.21h0Z"/><path class="cls-13" d="M65.88,118.44l-.49,.17c-.08,.03-.16-.01-.18-.09-.03-.07,.01-.16,.09-.18h0s.48-.17,.48-.17h0c.08-.03,.16,.01,.19,.09,.03,.08-.01,.16-.09,.19,0,0,0,0,0,0Z"/><path class="cls-13" d="M64.24,118.97l-.5,.15c-.07,.02-.14-.02-.17-.09-.02-.07,.02-.14,.09-.16h0s.49-.15,.49-.15h0c.07-.02,.15,.02,.17,.09,.02,.07-.02,.15-.09,.17,0,0,0,0,0,0Z"/><path class="cls-13" d="M62.57,119.44l-.5,.13c-.07,.02-.13-.02-.15-.09-.02-.06,.02-.13,.09-.15h0s.5-.13,.5-.13h0c.07-.02,.14,.02,.15,.09,.02,.07-.02,.14-.09,.15,0,0,0,0,0,0Z"/><path class="cls-13" d="M60.89,119.84l-.51,.1c-.06,.01-.12-.03-.13-.09-.01-.06,.03-.12,.08-.13h0s.5-.11,.5-.11h0c.06-.01,.12,.02,.14,.09,.01,.06-.03,.12-.09,.14,0,0,0,0,0,0Z"/><path class="cls-13" d="M59.2,120.16l-.51,.08c-.05,0-.1-.03-.11-.08,0-.05,.03-.1,.08-.11h0s.51-.09,.51-.09h0c.06,0,.11,.03,.12,.08,0,.06-.03,.11-.08,.12,0,0,0,0,0,0Z"/><path class="cls-13" d="M57.49,120.4l-.51,.06s-.09-.03-.1-.08c0-.05,.03-.09,.08-.1h0s.51-.06,.51-.06h0s.1,.03,.1,.08c0,.05-.03,.1-.08,.1,0,0,0,0,0,0Z"/></g></svg>