<?xml version="1.0" encoding="UTF-8"?><svg id="_ÎÓÈ_1" xmlns="http://www.w3.org/2000/svg" viewBox="0 0 183.32 139.19"><defs><style>.cls-1{fill:#f49f9f;}.cls-2{fill:#f99370;}.cls-3{fill:#f9b233;}.cls-4{fill:#e9f4ff;}.cls-5{fill:#e8c0a6;}.cls-6{fill:#eb5648;}.cls-7{fill:#e57d61;}.cls-8{fill:#fff;}.cls-9{fill:#fcb4b4;}.cls-10{fill:#8c4225;}.cls-11{fill:#b8d5ff;}.cls-12{fill:#b3d2ff;}.cls-13{fill:#2fac66;}.cls-14{fill:#adc8f7;}.cls-15{fill:#bedced;}.cls-16{fill:#c16256;}.cls-17{fill:#ce3932;}.cls-18{fill:#d1e0f2;}.cls-19{fill:#d1a68f;}.cls-20{fill:#cae5ff;}.cls-21{fill:#23659b;}.cls-22{fill:#103663;}.cls-23{fill:#1d3f70;}.cls-24{fill:#4867aa;}.cls-25{fill:#395b96;}.cls-26{fill:#3a72aa;}</style></defs><g id="_8"><path class="cls-14" d="M19.13,116.02s-11.55-52.56,3.35-65.55c12.12-10.56,25.2,10.16,38.33,.95,11.69-8.2-.61-30.66,14.9-34.27,17.39-4.05,37.31,40.33,54.51,33.97,20.88-7.72,41.65,7.95,23.7,65l-134.8-.1Z"/><path class="cls-12" d="M15.47,110.6c-.36-1.05-.72-2.14-1.07-3.23l.85-.24c.34,1.09,.7,2.17,1.06,3.21l-.84,.26Zm151.95-1.35l-.88-.1c.15-1.12,.28-2.24,.41-3.34l.88,.09c-.13,1.11-.27,2.23-.41,3.35ZM13.42,104.11c-.31-1.08-.61-2.18-.89-3.28l.86-.2c.28,1.08,.58,2.18,.89,3.26l-.86,.22Zm154.77-1.58l-.88-.08c.11-1.12,.22-2.25,.31-3.35l.88,.07c-.09,1.11-.2,2.24-.31,3.36ZM11.72,97.54c-.26-1.1-.5-2.22-.72-3.31l.87-.16c.22,1.09,.47,2.2,.72,3.29l-.87,.18Zm157.04-1.75l-.88-.05c.08-1.12,.14-2.25,.2-3.36l.89,.04c-.05,1.11-.12,2.25-.2,3.37ZM10.36,90.9c-.2-1.12-.38-2.24-.54-3.34l.88-.12c.16,1.1,.34,2.21,.54,3.32l-.87,.14Zm158.73-1.85l-.89-.02c.03-1.13,.06-2.26,.07-3.36h.89c-.01,1.12-.04,2.26-.07,3.39ZM9.37,84.2c-.13-1.13-.25-2.26-.34-3.37l.88-.07c.09,1.1,.21,2.23,.34,3.34l-.88,.09Zm158.91-1.9c-.01-1.13-.03-2.26-.07-3.36l.89-.02c.03,1.11,.06,2.25,.07,3.38h-.89ZM8.8,77.45c-.06-1.13-.1-2.27-.12-3.38h.89c.02,1.09,.06,2.22,.11,3.34l-.89,.04Zm159.27-1.88c-.06-1.12-.14-2.25-.22-3.35l.88-.06c.09,1.11,.16,2.24,.22,3.37l-.88,.04ZM9.58,70.7l-.89-.02c.02-1.14,.07-2.27,.14-3.38l.88,.05c-.07,1.1-.12,2.23-.14,3.35Zm157.96-1.83c-.12-1.12-.25-2.25-.4-3.34l.88-.11c.15,1.1,.28,2.23,.4,3.36l-.88,.08ZM10,64.01l-.88-.08c.12-1.13,.27-2.26,.44-3.36l.88,.12c-.17,1.09-.31,2.21-.43,3.33Zm156.65-1.8c-.18-1.12-.39-2.23-.6-3.31l.87-.15c.22,1.09,.42,2.21,.61,3.33l-.88,.13Zm-104.8-.12c-1.23-.18-2.12-.71-3.36-1.63l.56-.65c1.08,.8,1.86,1.28,2.89,1.44l-.09,.83Zm3.07-1.99l-.79-.38c.41-.75,.76-1.79,1.07-3.1l.87,.18c-.32,1.39-.7,2.47-1.14,3.3Zm-9.03-2.04c-.71-.74-1.46-1.6-2.31-2.61l.7-.52c.83,1,1.58,1.84,2.27,2.57l-.66,.56Zm-44.86-.69l-.87-.16c.23-1.12,.49-2.23,.77-3.31l.86,.2c-.28,1.07-.54,2.17-.76,3.27Zm154.31-1.76c-.26-1.11-.55-2.2-.84-3.26l.86-.21c.3,1.07,.58,2.17,.85,3.29l-.86,.18Zm-98.67-2.18l-.88-.11c.14-1,.26-2.09,.37-3.35l.88,.07c-.12,1.26-.24,2.37-.38,3.38Zm-15.25-.68c-.72-.92-1.47-1.89-2.11-2.73l.72-.49c.64,.84,1.39,1.81,2.11,2.72l-.71,.5Zm64.88-.07c-.69,0-1.37-.19-2.01-.58l.47-.71c.97,.58,1.92,.58,2.95,.12l.38,.76c-.61,.27-1.21,.41-1.79,.41Zm-103.56-1.8l-.85-.24c.35-1.09,.74-2.17,1.15-3.22l.83,.29c-.4,1.03-.78,2.1-1.13,3.17Zm108.25-.8l-.65-.57c.67-.69,1.39-1.54,2.2-2.59l.72,.49c-.83,1.08-1.57,1.96-2.27,2.67Zm-9.22-.58c-.57-.84-1.14-1.82-1.74-3.01l.8-.36c.58,1.16,1.13,2.11,1.68,2.91l-.74,.46Zm51.75-.37c-.36-1.08-.74-2.15-1.13-3.17l.83-.29c.4,1.03,.78,2.11,1.15,3.21l-.85,.25Zm-116.31-1.84c-.81-1.05-1.49-1.91-2.13-2.7l.71-.51c.64,.8,1.32,1.67,2.14,2.72l-.72,.49Zm20.1-.62l-.88-.05c.07-.98,.14-2.08,.21-3.37l.88,.05c-.07,1.29-.14,2.4-.21,3.38Zm-52.11-2.06l-.81-.34c.49-1.04,1-2.06,1.56-3.06l.79,.39c-.54,.98-1.05,1.99-1.53,3.01Zm110.09,0l-.74-.46c.63-.9,1.28-1.86,1.94-2.83l.75,.45c-.66,.97-1.31,1.93-1.94,2.84Zm-16.69-1.24c-.4-.95-.82-1.99-1.27-3.17l.83-.28c.45,1.17,.86,2.2,1.26,3.15l-.82,.31Zm52.48-.52c-.48-1.05-.98-2.07-1.5-3.03l.79-.38c.53,.98,1.04,2.01,1.52,3.08l-.81,.33Zm-118.19-.91c-.8-.94-1.55-1.78-2.29-2.57l.66-.56c.74,.79,1.5,1.64,2.32,2.6l-.69,.53Zm24.81-2.02l-.89-.04c.06-1.12,.12-2.24,.18-3.38l.88,.04c-.06,1.14-.12,2.26-.18,3.37Zm61.47-.97l-.74-.46c.74-1.06,1.4-1.97,2.02-2.8l.72,.49c-.62,.82-1.27,1.72-2.01,2.78Zm-110.69-.24l-.75-.45c.7-1.03,1.41-1.96,2.13-2.77l.68,.54c-.69,.78-1.39,1.68-2.06,2.68Zm87.67-1.7c-.41-1.13-.81-2.25-1.14-3.2l.84-.26c.34,.95,.73,2.08,1.14,3.2l-.84,.27Zm-67.98-.06c-.91-.83-1.8-1.57-2.65-2.19l.54-.66c.88,.64,1.79,1.4,2.72,2.25l-.62,.6Zm119.69-.04c-.63-.98-1.3-1.9-1.98-2.75l.71-.51c.7,.87,1.38,1.82,2.03,2.82l-.76,.44Zm-134.83-3.16l-.54-.67c1.06-.76,2.16-1.31,3.27-1.63l.26,.8c-1.01,.29-2.02,.8-3,1.5Zm110.28-.26l-.69-.53c.83-.97,1.62-1.8,2.41-2.55l.63,.59c-.77,.73-1.53,1.54-2.35,2.48Zm-65.23-.33l-.88-.05c.08-1.22,.15-2.32,.23-3.38l.88,.06c-.08,1.05-.16,2.16-.23,3.37Zm-35.49-.18c-1.11-.52-2.19-.85-3.23-.99l.12-.83c1.13,.15,2.31,.51,3.51,1.07l-.39,.75Zm121.01-1.35c-.85-.83-1.74-1.55-2.63-2.17l.52-.68c.93,.64,1.85,1.4,2.74,2.26l-.63,.58Zm-49.73-1.04c-.44-1.25-.8-2.26-1.14-3.2l.84-.27c.34,.94,.7,1.95,1.15,3.2l-.84,.27Zm34.44-1.72l-.51-.69c1.09-.72,2.19-1.25,3.27-1.59l.27,.8c-1,.31-2.02,.8-3.04,1.48Zm9.67-1.03c-1.1-.44-2.21-.71-3.3-.8l.08-.83c1.18,.1,2.38,.4,3.56,.87l-.34,.77Zm-79.39-1.41l-.88-.07c.11-1.17,.23-2.31,.36-3.37l.88,.09c-.13,1.06-.25,2.18-.36,3.35Zm32.96-2.22c-.43-1.13-.83-2.16-1.23-3.16l.83-.3c.4,1,.81,2.04,1.24,3.17l-.83,.28Zm-32.15-4.47l-.88-.12c.18-1.17,.38-2.3,.59-3.35l.87,.15c-.21,1.04-.4,2.16-.58,3.32Zm29.6-1.81c-.48-1.08-.96-2.12-1.43-3.08l.8-.35c.48,.97,.96,2.02,1.44,3.11l-.82,.32Zm-28.27-4.78l-.86-.2c.31-1.17,.65-2.27,1.01-3.27l.84,.27c-.35,.98-.69,2.06-.99,3.21Zm25.27-1.3c-.58-1.04-1.18-2.01-1.77-2.89l.75-.45c.6,.9,1.21,1.89,1.8,2.95l-.78,.39Zm-22.94-4.97l-.79-.37c.58-1.11,1.23-2.1,1.92-2.93l.7,.52c-.65,.78-1.26,1.72-1.82,2.78Zm19.14-.64c-.77-.92-1.57-1.73-2.38-2.41l.59-.62c.84,.72,1.67,1.56,2.47,2.51l-.69,.52Zm-14.85-4.31l-.48-.71c1.05-.63,2.21-1.05,3.44-1.23l.13,.83c-1.11,.16-2.15,.53-3.09,1.1Zm9.68,0c-1.03-.53-2.11-.89-3.2-1.07l.16-.82c1.18,.2,2.35,.59,3.46,1.16l-.42,.74Z"/><path class="cls-11" d="M173.04,95.38c-7.35-1.23-6.15,9.88-16.64,9.88-9.58,0-12.65-42.33-19.62-30.23-35.75,62.03-14.99-26.38-43.42-27.5-12.86-.51-21.42,14.96-24.58,42.36-4.58,24.76-15.2-18.89-26.13-14.83-6.95,2.58-6.15,30.2-15.73,30.2-10.48,0-9.28-11.11-16.64-9.88C2.36,96.71,.14,116.38,.14,116.38H183.14s-2.18-19.67-10.1-21Z"/><path class="cls-20" d="M166.52,107.42c-6.77-.53-5.66,4.22-15.3,4.22-8.82,0-8.57-10.64-14.47-12.9-10.87-4.16-19.82,16.91-24.04,6.33-8-28.06-31.33-42.13-42.1,0-4.21,10.57-14.06-8.29-24.04-6.33-6.14,1.21-5.66,12.9-14.47,12.9-9.64,0-8.54-4.75-15.3-4.22-7.28,.57-9.46,8.97-9.46,8.97H175.98s-2.18-8.4-9.46-8.97Z"/><path class="cls-14" d="M.14,116.38s-1.29,5.29,4.04,6.62c7.29,1.81,50.07,6.58,39.67,10.19-5.87,2.04,2.99,4.82,31.57,5.84,28.57,1.02,77.61-2.98,61.12-8.9-16.49-5.92,50.69-1.43,46.6-13.75H.14Z"/></g><path id="_7" class="cls-23" d="M152.21,118.39h-23.95c-4.61,0-8.95-1.8-12.21-5.06-3.26-3.26-5.06-7.6-5.06-12.21v-11.88c0-17.47-14.21-31.67-31.67-31.67h-31.92c-5.03,0-9.77-1.96-13.33-5.52-3.56-3.56-5.52-8.29-5.52-13.33v-14.36c0-.42,.34-.77,.77-.77s.77,.34,.77,.77v14.36c0,9.55,7.77,17.31,17.31,17.31h31.92c4.48,0,8.83,.88,12.93,2.61,3.95,1.67,7.51,4.07,10.56,7.12,3.05,3.05,5.44,6.6,7.12,10.56,1.73,4.09,2.61,8.44,2.61,12.93v11.88c0,8.68,7.06,15.74,15.74,15.74h23.95c.42,0,.77,.34,.77,.77s-.34,.77-.77,.77Z"/><g id="_6"><path class="cls-6" d="M141.13,57.04c-.28,8.2-7.07,15.17-12.85,20.57-9.86,9.92-24.15,24.26-34.04,34.21-9.93-9.87-24.32-24.18-34.22-34.03-5.82-5.35-12.63-12.32-12.96-20.52-1.94-13.65,10.34-27.15,23.93-26.68,9.3-.54,17.05,6.31,23.07,12.97,.02-.05,5.74-5.75,5.96-5.99,15.44-16.15,43.82-2.6,41.12,19.46Z"/><path class="cls-17" d="M141.13,57.04c-.28,8.2-7.07,15.17-12.85,20.57-9.86,9.92-24.15,24.26-34.04,34.21l-.18-68.25s5.74-5.75,5.96-5.99c15.44-16.15,43.82-2.6,41.12,19.46Z"/><path class="cls-8" d="M96.64,94.77c-.82,0-1.54-.51-1.82-1.28l-14.59-41.08-9.92,19.62c-.33,.65-.99,1.06-1.72,1.06h-30.56c-1.06,0-1.93-.86-1.93-1.93s.86-1.93,1.93-1.93h29.37l11.41-22.57c.35-.69,1.07-1.1,1.84-1.05,.77,.05,1.44,.55,1.69,1.28l14.26,40.16,11.32-32.47c.26-.75,.96-1.27,1.76-1.29,.79-.03,1.53,.44,1.84,1.17l6.27,14.78h27.46c1.06,0,1.93,.86,1.93,1.93s-.86,1.93-1.93,1.93h-28.74c-.77,0-1.47-.46-1.77-1.17l-4.82-11.36-11.48,32.93c-.27,.77-1,1.29-1.81,1.29h0Z"/></g><g id="_5"><circle class="cls-23" cx="29.35" cy="22.79" r="15.29"/><circle class="cls-15" cx="29.35" cy="22.79" r="11.58" transform="translate(.23 45.88) rotate(-76.23)"/><path class="cls-13" d="M26.85,22.78l-9.08-.04c.02-4.15,2.21-7.78,5.5-9.81l3.57,9.85Z"/><path class="cls-6" d="M40.93,22.84l-9.08-.04,3.65-9.82c3.27,2.06,5.44,5.71,5.42,9.86Z"/><path class="cls-22" d="M31.25,28.83c0,1.07-.87,1.93-1.94,1.92-1.07,0-1.93-.87-1.92-1.94,0-1.07,.87-1.93,1.94-1.92,1.07,0,1.93,.87,1.92,1.94Z"/><path class="cls-3" d="M35.51,12.98l-3.65,9.82-5-.02-3.57-9.85c1.78-1.1,3.88-1.73,6.12-1.72s4.34,.66,6.11,1.77Z"/><path class="cls-22" d="M28.46,28.06l6.77-8.36-4.78,9.64c-.29,.59-1,.83-1.59,.54-.59-.29-.83-1-.54-1.59,.04-.08,.09-.15,.14-.22Z"/></g><g id="_4"><path class="cls-23" d="M130.63,118.06c-.42,0-.77-.34-.77-.77v-6.42c0-.42,.34-.77,.76-.77h0c.42,0,.77,.34,.77,.77v6.42c0,.42-.34,.77-.76,.77h0Z"/><path class="cls-23" d="M127.35,111.83c-.53,0-.96-.43-.96-.96,0-.53,.43-.96,.96-.96h6.54s0,0,0,0c.53,0,.96,.43,.96,.96,0,.53-.43,.96-.96,.96h-6.54s0,0,0,0Z"/><path class="cls-23" d="M134.88,120.3h-5.48c-1.66,0-3.01-1.34-3.01-3h0c0-1.66,1.34-3.01,3.01-3.01h5.48s0,6.01,0,6.01Z"/><path class="cls-23" d="M164,120.27h2.16c1.66,0,3.01-1.35,3.01-3.01h0c0-1.66-1.35-3.01-3.01-3.01h-2.16s0,6.02,0,6.02Z"/><path class="cls-21" d="M166.58,117.26c0,4.79-7.6,8.69-16.98,8.7-7.51,0-13.88-2.47-16.13-5.92-.56-.86-.87-1.78-.87-2.74,0-4.79,7.6-8.69,16.98-8.7,5.7,0,10.74,1.42,13.83,3.62,1.99,1.42,3.17,3.16,3.17,5.04Z"/><path class="cls-26" d="M164.28,114.96c0,4.79-7.6,8.69-16.98,8.7-5.7,0-10.74-1.42-13.83-3.62-.56-.86-.87-1.78-.87-2.74,0-4.79,7.6-8.69,16.98-8.7,5.7,0,10.74,1.42,13.83,3.62,.56,.86,.87,1.78,.87,2.74Z"/></g><g id="_3"><g><polygon class="cls-9" points="166.25 72.68 163.24 72.68 163.24 85.33 158.22 85.33 158.22 72.68 155.21 72.68 160.73 65.46 166.25 72.68"/><polygon class="cls-1" points="166.25 72.68 163.24 72.68 163.24 85.33 160.73 85.33 160.73 65.46 166.25 72.68"/></g><g><polygon class="cls-9" points="63.61 108.52 60.6 108.52 60.6 121.17 55.58 121.17 55.58 108.52 52.57 108.52 58.09 101.29 63.61 108.52"/><polygon class="cls-1" points="63.61 108.52 60.6 108.52 60.6 121.17 58.09 121.17 58.09 101.29 63.61 108.52"/></g><g><polygon class="cls-9" points="148.84 19.78 145.83 19.78 145.83 32.43 140.81 32.43 140.81 19.78 137.8 19.78 143.32 12.55 148.84 19.78"/><polygon class="cls-1" points="148.84 19.78 145.83 19.78 145.83 32.43 143.32 32.43 143.32 12.55 148.84 19.78"/></g></g><g id="_2"><g><path class="cls-8" d="M136.81,100.5c-.28,1.78-2.93,1.4-2.71-.39,.28-1.78,2.93-1.4,2.71,.39Z"/><path class="cls-8" d="M137.94,83.13h0c.74,.11,1.24,.81,1.11,1.54l-2.3,12.54c-.08,.44-.5,.74-.95,.68h0c-.45-.06-.76-.47-.72-.92l1.35-12.68c.08-.74,.76-1.27,1.5-1.17Z"/></g><g><path class="cls-6" d="M93.09,31.37c-.32,1.77-2.96,1.35-2.7-.44,.32-1.77,2.96-1.35,2.7,.44Z"/><path class="cls-6" d="M94.54,14.02h0c.74,.12,1.23,.83,1.08,1.56l-2.53,12.5c-.09,.44-.51,.74-.96,.66h0c-.45-.07-.75-.49-.7-.93l1.59-12.65c.09-.74,.78-1.26,1.52-1.14Z"/></g><g><path class="cls-26" d="M26.03,61.53c.3,1.78-2.34,2.26-2.69,.5-.3-1.78,2.34-2.26,2.69-.5Z"/><path class="cls-26" d="M21.58,44.7h0c.74-.13,1.44,.37,1.54,1.11l1.81,12.62c.06,.45-.24,.87-.68,.95h0c-.44,.08-.87-.2-.97-.65l-2.75-12.45c-.16-.73,.32-1.45,1.05-1.58Z"/></g><g><path class="cls-1" d="M130.67,60.82c-.03,1.8-2.7,1.81-2.74,0,.03-1.8,2.7-1.81,2.74,0Z"/><path class="cls-1" d="M129.31,43.47h0c.75,0,1.35,.62,1.32,1.37l-.48,12.74c-.02,.45-.39,.81-.84,.81h0c-.45,0-.82-.36-.84-.81l-.48-12.74c-.03-.75,.57-1.37,1.32-1.37Z"/></g></g><g id="_1"><path class="cls-2" d="M20.2,132.84c.74-.98-.16-5.48-.13-6.63h3.38c.04,1.15-.81,5.65-.1,6.62,.2,.35-3.35,.35-3.15,0Z"/><path class="cls-2" d="M36.76,134.19h-5.92c-.35,0-.63-.3-.59-.65,.06-.61,.19-1.45,.15-1.84,.02-.36-.49-5.01-.53-5.49h3.73l-.6,4.8c-.07,.57,.27,1.1,.81,1.28,.73,.24,1.56,.35,2.11,.49,.53,.13,1.01,.32,1.25,.73,.18,.3-.05,.68-.4,.68Z"/><path class="cls-25" d="M30.05,133.56h0c.04,.36,.34,.62,.7,.62h5.96c.34,0,.59-.33,.49-.66-.31-.98-1.3-1.59-4.09-1.84,0,0-1.03,.31-2.72,0,0,0-.45,.98-.34,1.87Z"/><path class="cls-25" d="M20.48,134.19h2.6c.36,0,.66-.3,.65-.67-.11-2.45-3.8-2.47-3.89,0-.01,.36,.28,.66,.65,.66Z"/><path class="cls-5" d="M35.31,133.34c.05,0,.1-.03,.12-.08,.24-.59,.67-.77,.69-.78,.16-.06,.06-.31-.1-.25-.02,0-.55,.23-.84,.93-.04,.08,.03,.18,.12,.18Z"/><path class="cls-5" d="M34.28,133.22c.06,0,.11-.04,.13-.09,.21-.68,.81-1,.82-1.01,.15-.08,.03-.32-.12-.24-.03,.01-.7,.37-.95,1.16-.03,.08,.04,.17,.13,.17Z"/><path class="cls-5" d="M33.11,133.08c.05,0,.11-.03,.13-.09,.25-.72,.82-1.1,.83-1.1,.14-.09,0-.32-.15-.22-.03,.02-.65,.44-.93,1.24-.03,.08,.04,.18,.13,.18Z"/><path class="cls-5" d="M20.82,132.49c1.01-.57,1.91,.18,2.06-.08,.12-.27-1.21-.67-2.13-.17-.12,.06-.06,.25,.07,.25Z"/><path class="cls-24" d="M37.21,133.56h-7.16c.04,.36,.34,.62,.7,.62h6.03c.32,0,.55-.31,.44-.61,0,0,0,0,0-.01Z"/><path class="cls-24" d="M20.43,134.19h2.71c.34,0,.61-.28,.59-.61,0,0,0,0,0-.01h-3.9s0,0,0,.01c-.01,.33,.26,.61,.59,.61Z"/><path class="cls-10" d="M29.29,73.06s.34-1.92-1.35-2.54l-1.07,.8,2.41,1.74Z"/><path class="cls-4" d="M32.2,87.41c4.73,3.56,12.14,2.5,14.88-2.69l-.69-1.44c-7.94,3.41-11.07-3.27-17.51-3.66l1.3,1.66s1.91,6.02,2.03,6.13Z"/><path class="cls-6" d="M19.67,130.78s2.85,.69,4.31-.05c.76-4.79,2.88-18.11,3.62-27.25,.03,.53,1.58,22.01,1.87,27.25,1.01,.34,3.05,.75,4.19-.07,.51-5.51,2.15-23.66-.32-38.49,0,0-6.78,.75-12.08-.85-1.46,4.7-1.84,33.82-1.59,39.46Z"/><path class="cls-2" d="M28.14,79.5c.05-1.46,.23-4.36-.96-4.75-.85-.3-1.86,.43-1.6,1.39,.08-.05,.32,2.69,.15,3.45-2.25,.67,4.51,2.89,2.4-.09Z"/><path class="cls-7" d="M25.56,76.01s.01,.08,.02,.12c.06-.04,.21,1.47,.21,2.57,1.03,.47,2.15,.28,2.36,.24,.06-1.51,.15-3.78-.98-4.2-.8-.34-1.76,.39-1.62,1.27Z"/><path class="cls-2" d="M23.95,75c.17,1.07,.54,2.28,1.38,2.99h0c1.24,.94,3.05,.84,4.3-.2h0c.97-.91,1.28-2.13,.77-3.07-.33-.55-.95-1.04-1.12-1.67-1.44-4.2-5.95-1.85-5.34,1.94Z"/><path class="cls-16" d="M28.04,74.34c.1-.19-.2-.34-.29-.15-.1,.19,.2,.34,.29,.15Z"/><path class="cls-16" d="M29.41,74.11c.1-.19-.2-.34-.29-.15-.1,.19,.2,.34,.29,.15Z"/><path class="cls-7" d="M23.95,75c.17,1.07,.54,2.28,1.38,2.99h0c.07,.06,.12,.09,.2,.14-.65-.64-.99-1.99-.99-1.99l.15-1.16c1.04-1.06,.59-2.24,.59-2.24,1.74,.49,2.33-.59,2.33-.59,.55,.07,1.13-.21,1.13-.21-2.07-2.82-5.4,.18-4.79,3.06Z"/><path class="cls-10" d="M24.48,72.2c.74,.29,1,2.01-.75,3.19,0,0-.85-2.83,.75-3.19Z"/><path class="cls-18" d="M45.73,83.56c-.3,1.46,.99,1.79,.99,1.79,.25-.37,.37-.63,.37-.63l-.69-1.44s-.31,.1-.66,.27Z"/><path class="cls-16" d="M28.89,75.52c.3,0,.76-.2,.38-.47-.31-.17-.53-.8-.53-.81-.03-.08-.14-.03-.12,.04,0,.03,.24,.69,.59,.88,.24,.15-.26,.29-.47,.22-.03-.01-.07,0-.08,.04-.02,.11,.14,.09,.22,.1Z"/><path class="cls-5" d="M20.58,97.97c.33,.58,12.86,1.66,13.75,.57,1.74-4.3-1.47-15.75-5.45-18.92-.03,0-.48-.12-.74-.12,.02,.07,.46,1.92-2.4,.09-.02,.02-.7,.03-.88,.16,.21,2.99-5.62,14.95-4.28,18.23Z"/><path class="cls-18" d="M32.39,82.19l1.78,6.37c2.78,1.53,7.52,1.22,9.73-.51-7.89,3.06-8.53-2.98-11.4-5.87h-.11Z"/><path class="cls-10" d="M24.75,70.52l.02,.04c.58-.69,1.64-1.02,1.88-1.72,0,0,.36,.67,.32,1.42,.28-.31,.54-.66,.74-1.03,.28,.29,.44,.62,.48,.95,.9-.2,1.7,.17,1.7,.17-.46,1.31-1.55,1.6-2.4,1.61-.71,.67-1.83,.98-2.92,.31l-1.05,1.36c-1.49-2.58,1.24-3.1,1.24-3.1Z"/><path class="cls-17" d="M29.47,130.73c.02-.46-1.87-27.25-1.87-27.25,0,0,.9,.48,1.11,3.32,.19,2.47,1.29,18.91,1.58,23.16,1.95,.44,3.46-.27,3.46-.27-.06,.62-.09,.96-.09,.96-.93,.67-2.46,.52-3.54,.26-.26-.06-.47-.13-.57-.16-.02,0-.05-.02-.07-.02Z"/><path class="cls-17" d="M19.67,130.78s2.85,.69,4.31-.05c0,0,.06-.37,.17-1.03,0,0-2.01,.54-4.51-.02-.01,.65,.04,1.05,.03,1.11Z"/><path class="cls-4" d="M17.86,117.23c2.71,.77,5.03,.72,6.19,.63,.52-.04,.81-.1,.81-.1,0,0,.91-18.82,1.19-22.8,.45-4.1,.77-13.59-1.19-15.22l-.73,.23c-4.76,5.91-5.84,34.36-6.28,37.25Z"/><path class="cls-4" d="M33.59,117.91s.26,.04,.65,.05c.77,.03,2.04-.04,2.75-.73,.09-1.52,1.32-35.64-7.24-37.52h0c-.28-.06-.57-.09-.87-.08,5.59,5.26,5.26,33.87,4.71,38.28Z"/><path class="cls-4" d="M25.41,77.12s2.98,1.77,4.22,.68c1.1-.96,1.27-2.13,.77-3.07,0,0-1.4,.49-4.57,.35,0,0,.22,1.43-.42,2.03Z"/><path class="cls-16" d="M25.84,75.15c.07,0,.08-.1,.02-.12l-1.31-.35c-.43,.14,1.31,.44,1.29,.48Z"/><path class="cls-16" d="M25.41,77.18c.06,0,.09-.08,.03-.11-.04,.01-1.28-.94-1.29-.78-.09,.09,1.21,.86,1.25,.89Z"/><path class="cls-2" d="M23.26,75.54c.26,1.22,1.75,.91,1.5-.32-.26-1.22-1.75-.91-1.5,.32Z"/><path class="cls-16" d="M23.65,75.8s.07-.04,.06-.08c-.23-.65,.06-.92,.49-.74,.43-.15-1.09-.54-.61,.78,0,.03,.03,.04,.06,.04Z"/><path class="cls-16" d="M24.23,75.71c.19-.03-.17-.6-.64-.64-.08,0-.09,.12,0,.12,.48,.05,.54,.5,.65,.51Z"/><path class="cls-18" d="M24.74,83.34c.31,2.4-1.95,6.26,1.58,7.34l-2.66,.64-.74-2.87,1.82-5.11Z"/><path class="cls-18" d="M33.59,117.91s.26,.04,.65,.05c.52-4.97,.38-11.34,.26-14.47-.12-3.24-.52-9.92-1.6-15.81-1.09-5.89-3.15-7.97-3.15-7.97h0c-.28-.06-.57-.09-.87-.08,5.59,5.26,5.26,33.87,4.71,38.28Z"/><path class="cls-18" d="M20.09,94.02l-.05,.45c2.1,1.04,6,.49,6,.49,.04-.61,.08-1.19,.12-1.74l-5.52-1.62c-.18,.97-.41,1.42-.55,2.42Z"/><path class="cls-18" d="M24.05,117.85c.52-.04,.81-.1,.81-.1,0,0,.91-18.82,1.19-22.8,.45-4.1,.77-13.59-1.19-15.22l-.73,.23c.66,.39,1.58,3.15,1.55,7.14-.03,5.35-.58,11.85-.85,16.37-.23,3.87-.67,12.1-.78,14.37Z"/><path class="cls-2" d="M32.64,89.93c.21,.26-.66,.62-.81,.89,.58,.1,1.19,.04,1.19,.04,.7-.21,1.38-.45,2.06-.72,.21-.09,.38,.24,.17,.35-.62,.35-1.26,.67-1.91,.95,0,0,0,0,0,.01,.72-.05,1.44-.15,2.15-.3,.09-.02,.18,0,.26,.03,.68,.37-2.17,.82-2.41,.88,0,0,0,0,0,0,.68,.06,1.37,.05,2.05-.04,.1-.01,.2,.01,.28,.07,.54,.44-2.29,.65-2.54,.62,0,0,0,0,0,0,.52,.13,1.06,.19,1.6,.22,.09,0,.17,.04,.24,.1,.52,.49-1.93,.33-2.17,.29-.28,.02-1.14,.33-2.43-.12-.4-.14-.58-2.01-.17-2.1,.31-.07,.85-.38,1.02-.47,.26-.21,1.15-1.01,1.44-.72Z"/><path class="cls-4" d="M29.46,93.54c.29-.1,.59-.2,.89-.31,.05-.26,.35-1.48-.17-2.1-12.61-.55-3-4.78-6.04-11.15-9.04,.6-13.56,18.86,5.33,13.56Z"/><path class="cls-18" d="M29.46,93.54c.29-.1,.59-.2,.89-.31,.05-.26,.35-1.48-.17-2.1,0,0-.35-.04-.71-.04,0,0,.62,1.09,0,2.45Z"/><path class="cls-16" d="M27.27,74.09s.04-.01,.05-.03c.22-.47,.73-.46,.73-.46,.03,0,.05-.02,.05-.05,0-.03-.02-.05-.05-.05,0,0-.58-.01-.82,.52-.01,.03,0,.05,.02,.07,0,0,.01,0,.02,0Z"/><path class="cls-16" d="M29.31,73.51s.03,0,.04-.02c.02-.02,.01-.05,0-.07-.01,0-.29-.21-.74-.05-.03,0-.04,.04-.03,.06,0,.03,.04,.04,.06,.03,.4-.14,.64,.03,.65,.04,0,0,.02,0,.03,0Z"/><path class="cls-19" d="M24.86,79.74c.46,.64,4.35,3.07,4.02-.12-.03,0-.48-.12-.74-.12,.02,.07,.31,1.8-2.4,.09-.01,0-.7,.04-.88,.16Z"/><path class="cls-2" d="M47.78,80.92c.31,.13-.29,.86-.3,1.17,.56-.18,1.07-.52,1.07-.52,.52-.51,1.01-1.04,1.48-1.6,.15-.18,.44,.03,.31,.23-.39,.6-.8,1.18-1.24,1.74,0,0,0,0,0,0,.61-.39,1.2-.8,1.76-1.27,.07-.06,.16-.09,.24-.09,.77,.01-1.53,1.74-1.72,1.9,0,0,0,0,0,0,.63-.26,1.23-.6,1.79-.99,.08-.06,.18-.09,.28-.07,.69,.13-1.72,1.64-1.96,1.74,0,0,0,0,0,0,.52-.13,1.03-.33,1.52-.55,.08-.04,.17-.05,.25-.02,.69,.19-1.55,1.2-1.79,1.27-.24,.15-1.12,.75-2.48,.96-.42,.06-1.01-.97-.81-1.48,.11-.29,.52-.95,.63-1.11,.13-.31,.55-1.43,.93-1.31Z"/></g></svg>